<?xml version="1.0" encoding="UTF-8" standalone="no"?>
<!DOCTYPE svg PUBLIC "-//W3C//DTD SVG 1.1//EN"
 "http://www.w3.org/Graphics/SVG/1.1/DTD/svg11.dtd">
<!-- Generated by graphviz version 2.43.0 (0)
 -->
<!-- Title: src/compiler/ast.cpp Pages: 1 -->
<svg width="915pt" height="192pt"
 viewBox="0.00 0.00 915.00 192.00" xmlns="http://www.w3.org/2000/svg" xmlns:xlink="http://www.w3.org/1999/xlink">
<g id="graph0" class="graph" transform="scale(1 1) rotate(0) translate(4 188)">
<title>src/compiler/ast.cpp</title>
<!-- Node1 -->
<g id="Node000001" class="node">
<title>Node1</title>
<g id="a_Node000001"><a xlink:title=" ">
<polygon fill="#999999" stroke="#666666" points="682,-184 567,-184 567,-165 682,-165 682,-184"/>
<text text-anchor="middle" x="624.5" y="-172" font-family="Helvetica,sans-Serif" font-size="10.00">src/compiler/ast.cpp</text>
</a>
</g>
</g>
<!-- Node2 -->
<g id="Node000002" class="node">
<title>Node2</title>
<g id="a_Node000002"><a xlink:href="compiler_8hpp.html" target="_top" xlink:title=" ">
<polygon fill="white" stroke="#666666" points="476.5,-129 396.5,-129 396.5,-110 476.5,-110 476.5,-129"/>
<text text-anchor="middle" x="436.5" y="-117" font-family="Helvetica,sans-Serif" font-size="10.00">compiler.hpp</text>
</a>
</g>
</g>
<!-- Node1&#45;&gt;Node2 -->
<g id="edge1_Node000001_Node000002" class="edge">
<title>Node1&#45;&gt;Node2</title>
<g id="a_edge1_Node000001_Node000002"><a xlink:title=" ">
<path fill="none" stroke="#63b8ff" d="M594.29,-164.98C562.46,-156.01 512.14,-141.82 476.9,-131.89"/>
<polygon fill="#63b8ff" stroke="#63b8ff" points="477.52,-128.43 466.94,-129.08 475.62,-135.16 477.52,-128.43"/>
</a>
</g>
</g>
<!-- Node5 -->
<g id="Node000005" class="node">
<title>Node5</title>
<g id="a_Node000005"><a xlink:title=" ">
<polygon fill="#e0e0e0" stroke="#999999" points="53,-19 0,-19 0,0 53,0 53,-19"/>
<text text-anchor="middle" x="26.5" y="-7" font-family="Helvetica,sans-Serif" font-size="10.00">cstddef</text>
</a>
</g>
</g>
<!-- Node1&#45;&gt;Node5 -->
<g id="edge22_Node000001_Node000005" class="edge">
<title>Node1&#45;&gt;Node5</title>
<g id="a_edge22_Node000001_Node000005"><a xlink:title=" ">
<path fill="none" stroke="#63b8ff" d="M566.86,-173.22C428.12,-171.21 81.75,-157.73 10.5,-74 -0.4,-61.2 6.63,-42 14.52,-28.06"/>
<polygon fill="#63b8ff" stroke="#63b8ff" points="17.6,-29.74 19.9,-19.4 11.65,-26.05 17.6,-29.74"/>
</a>
</g>
</g>
<!-- Node7 -->
<g id="Node000007" class="node">
<title>Node7</title>
<g id="a_Node000007"><a xlink:title=" ">
<polygon fill="#e0e0e0" stroke="#999999" points="799,-19 752,-19 752,0 799,0 799,-19"/>
<text text-anchor="middle" x="775.5" y="-7" font-family="Helvetica,sans-Serif" font-size="10.00">vector</text>
</a>
</g>
</g>
<!-- Node1&#45;&gt;Node7 -->
<g id="edge24_Node000001_Node000007" class="edge">
<title>Node1&#45;&gt;Node7</title>
<g id="a_edge24_Node000001_Node000007"><a xlink:title=" ">
<path fill="none" stroke="#63b8ff" d="M651.41,-164.95C687.45,-151.87 749.95,-123.11 776.5,-74 783.87,-60.36 782.84,-42.54 780.42,-29.26"/>
<polygon fill="#63b8ff" stroke="#63b8ff" points="783.8,-28.35 778.21,-19.35 776.97,-29.87 783.8,-28.35"/>
</a>
</g>
</g>
<!-- Node15 -->
<g id="Node000015" class="node">
<title>Node15</title>
<g id="a_Node000015"><a xlink:title=" ">
<polygon fill="#e0e0e0" stroke="#999999" points="907,-129 842,-129 842,-110 907,-110 907,-129"/>
<text text-anchor="middle" x="874.5" y="-117" font-family="Helvetica,sans-Serif" font-size="10.00">stdexcept</text>
</a>
</g>
</g>
<!-- Node1&#45;&gt;Node15 -->
<g id="edge23_Node000001_Node000015" class="edge">
<title>Node1&#45;&gt;Node15</title>
<g id="a_edge23_Node000001_Node000015"><a xlink:title=" ">
<path fill="none" stroke="#63b8ff" d="M664.67,-164.98C710.57,-155.25 785.38,-139.39 832.17,-129.47"/>
<polygon fill="#63b8ff" stroke="#63b8ff" points="832.94,-132.89 842,-127.39 831.49,-126.04 832.94,-132.89"/>
</a>
</g>
</g>
<!-- Node3 -->
<g id="Node000003" class="node">
<title>Node3</title>
<g id="a_Node000003"><a xlink:href="bytecode_8hpp.html" target="_top" xlink:title=" ">
<polygon fill="white" stroke="#666666" points="195,-74 112,-74 112,-55 195,-55 195,-74"/>
<text text-anchor="middle" x="153.5" y="-62" font-family="Helvetica,sans-Serif" font-size="10.00">bytecode.hpp</text>
</a>
</g>
</g>
<!-- Node2&#45;&gt;Node3 -->
<g id="edge2_Node000002_Node000003" class="edge">
<title>Node2&#45;&gt;Node3</title>
<g id="a_edge2_Node000002_Node000003"><a xlink:title=" ">
<path fill="none" stroke="#63b8ff" d="M396.25,-110.96C346.12,-101.57 260.36,-85.51 205.35,-75.21"/>
<polygon fill="#63b8ff" stroke="#63b8ff" points="205.93,-71.76 195.45,-73.36 204.64,-78.64 205.93,-71.76"/>
</a>
</g>
</g>
<!-- Node4 -->
<g id="Node000004" class="node">
<title>Node4</title>
<g id="a_Node000004"><a xlink:title=" ">
<polygon fill="#e0e0e0" stroke="#999999" points="121.5,-19 71.5,-19 71.5,0 121.5,0 121.5,-19"/>
<text text-anchor="middle" x="96.5" y="-7" font-family="Helvetica,sans-Serif" font-size="10.00">cstdint</text>
</a>
</g>
</g>
<!-- Node2&#45;&gt;Node4 -->
<g id="edge16_Node000002_Node000004" class="edge">
<title>Node2&#45;&gt;Node4</title>
<g id="a_edge16_Node000002_Node000004"><a xlink:title=" ">
<path fill="none" stroke="#63b8ff" d="M396.41,-117.21C296.84,-113.59 44.45,-101.75 19.5,-74 1.44,-53.91 33.92,-34.74 62.09,-22.82"/>
<polygon fill="#63b8ff" stroke="#63b8ff" points="63.44,-26.06 71.4,-19.07 60.82,-19.56 63.44,-26.06"/>
</a>
</g>
</g>
<!-- Node6 -->
<g id="Node000006" class="node">
<title>Node6</title>
<g id="a_Node000006"><a xlink:title=" ">
<polygon fill="#e0e0e0" stroke="#999999" points="515.5,-19 471.5,-19 471.5,0 515.5,0 515.5,-19"/>
<text text-anchor="middle" x="493.5" y="-7" font-family="Helvetica,sans-Serif" font-size="10.00">string</text>
</a>
</g>
</g>
<!-- Node2&#45;&gt;Node6 -->
<g id="edge18_Node000002_Node000006" class="edge">
<title>Node2&#45;&gt;Node6</title>
<g id="a_edge18_Node000002_Node000006"><a xlink:title=" ">
<path fill="none" stroke="#63b8ff" d="M445.89,-109.81C454.47,-101.4 466.92,-87.92 474.5,-74 482.16,-59.93 487.11,-42.38 490.03,-29.3"/>
<polygon fill="#63b8ff" stroke="#63b8ff" points="493.53,-29.65 492.09,-19.16 486.67,-28.26 493.53,-29.65"/>
</a>
</g>
</g>
<!-- Node2&#45;&gt;Node7 -->
<g id="edge20_Node000002_Node000007" class="edge">
<title>Node2&#45;&gt;Node7</title>
<g id="a_edge20_Node000002_Node000007"><a xlink:title=" ">
<path fill="none" stroke="#63b8ff" d="M476.75,-118.16C553.15,-116.7 715.26,-109.38 756.5,-74 769.32,-63 773.68,-43.74 775.08,-29.31"/>
<polygon fill="#63b8ff" stroke="#63b8ff" points="778.59,-29.2 775.66,-19.02 771.6,-28.81 778.59,-29.2"/>
</a>
</g>
</g>
<!-- Node8 -->
<g id="Node000008" class="node">
<title>Node8</title>
<g id="a_Node000008"><a xlink:href="essentials_8hpp.html" target="_top" xlink:title=" ">
<polygon fill="white" stroke="#666666" points="747,-74 660,-74 660,-55 747,-55 747,-74"/>
<text text-anchor="middle" x="703.5" y="-62" font-family="Helvetica,sans-Serif" font-size="10.00">essentials.hpp</text>
</a>
</g>
</g>
<!-- Node2&#45;&gt;Node8 -->
<g id="edge7_Node000002_Node000008" class="edge">
<title>Node2&#45;&gt;Node8</title>
<g id="a_edge7_Node000002_Node000008"><a xlink:title=" ">
<path fill="none" stroke="#63b8ff" d="M476.76,-110.51C523.06,-101.32 599.24,-86.19 650.37,-76.05"/>
<polygon fill="#63b8ff" stroke="#63b8ff" points="651.12,-79.47 660.25,-74.09 649.76,-72.6 651.12,-79.47"/>
</a>
</g>
</g>
<!-- Node10 -->
<g id="Node000010" class="node">
<title>Node10</title>
<g id="a_Node000010"><a xlink:href="params_8hpp.html" target="_top" xlink:title=" ">
<polygon fill="white" stroke="#666666" points="641.5,-74 521.5,-74 521.5,-55 641.5,-55 641.5,-74"/>
<text text-anchor="middle" x="581.5" y="-62" font-family="Helvetica,sans-Serif" font-size="10.00">compiler/params.hpp</text>
</a>
</g>
</g>
<!-- Node2&#45;&gt;Node10 -->
<g id="edge10_Node000002_Node000010" class="edge">
<title>Node2&#45;&gt;Node10</title>
<g id="a_edge10_Node000002_Node000010"><a xlink:title=" ">
<path fill="none" stroke="#63b8ff" d="M459.8,-109.98C483.75,-101.23 521.28,-87.51 548.33,-77.62"/>
<polygon fill="#63b8ff" stroke="#63b8ff" points="549.59,-80.89 557.78,-74.17 547.19,-74.32 549.59,-80.89"/>
</a>
</g>
</g>
<!-- Node11 -->
<g id="Node000011" class="node">
<title>Node11</title>
<g id="a_Node000011"><a xlink:href="types_8hpp.html" target="_top" xlink:title=" ">
<polygon fill="white" stroke="#666666" points="94,-74 29,-74 29,-55 94,-55 94,-74"/>
<text text-anchor="middle" x="61.5" y="-62" font-family="Helvetica,sans-Serif" font-size="10.00">types.hpp</text>
</a>
</g>
</g>
<!-- Node2&#45;&gt;Node11 -->
<g id="edge12_Node000002_Node000011" class="edge">
<title>Node2&#45;&gt;Node11</title>
<g id="a_edge12_Node000002_Node000011"><a xlink:title=" ">
<path fill="none" stroke="#63b8ff" d="M396.26,-114.09C335.21,-107.18 215.33,-92.82 104.17,-74.19"/>
<polygon fill="#63b8ff" stroke="#63b8ff" points="104.58,-70.7 94.13,-72.49 103.41,-77.61 104.58,-70.7"/>
</a>
</g>
</g>
<!-- Node12 -->
<g id="Node000012" class="node">
<title>Node12</title>
<g id="a_Node000012"><a xlink:title=" ">
<polygon fill="#e0e0e0" stroke="#999999" points="278,-74 213,-74 213,-55 278,-55 278,-74"/>
<text text-anchor="middle" x="245.5" y="-62" font-family="Helvetica,sans-Serif" font-size="10.00">exception</text>
</a>
</g>
</g>
<!-- Node2&#45;&gt;Node12 -->
<g id="edge17_Node000002_Node000012" class="edge">
<title>Node2&#45;&gt;Node12</title>
<g id="a_edge17_Node000002_Node000012"><a xlink:title=" ">
<path fill="none" stroke="#63b8ff" d="M405.81,-109.98C373.33,-100.97 321.9,-86.7 286.09,-76.76"/>
<polygon fill="#63b8ff" stroke="#63b8ff" points="287,-73.38 276.43,-74.08 285.13,-80.13 287,-73.38"/>
</a>
</g>
</g>
<!-- Node13 -->
<g id="Node000013" class="node">
<title>Node13</title>
<g id="a_Node000013"><a xlink:title=" ">
<polygon fill="#e0e0e0" stroke="#999999" points="389,-74 296,-74 296,-55 389,-55 389,-74"/>
<text text-anchor="middle" x="342.5" y="-62" font-family="Helvetica,sans-Serif" font-size="10.00">unordered_map</text>
</a>
</g>
</g>
<!-- Node2&#45;&gt;Node13 -->
<g id="edge19_Node000002_Node000013" class="edge">
<title>Node2&#45;&gt;Node13</title>
<g id="a_edge19_Node000002_Node000013"><a xlink:title=" ">
<path fill="none" stroke="#63b8ff" d="M421.4,-109.98C406.68,-101.69 384.08,-88.94 366.83,-79.22"/>
<polygon fill="#63b8ff" stroke="#63b8ff" points="368.31,-76.03 357.88,-74.17 364.87,-82.13 368.31,-76.03"/>
</a>
</g>
</g>
<!-- Node14 -->
<g id="Node000014" class="node">
<title>Node14</title>
<g id="a_Node000014"><a xlink:title=" ">
<polygon fill="#e0e0e0" stroke="#999999" points="465.5,-74 407.5,-74 407.5,-55 465.5,-55 465.5,-74"/>
<text text-anchor="middle" x="436.5" y="-62" font-family="Helvetica,sans-Serif" font-size="10.00">memory</text>
</a>
</g>
</g>
<!-- Node2&#45;&gt;Node14 -->
<g id="edge21_Node000002_Node000014" class="edge">
<title>Node2&#45;&gt;Node14</title>
<g id="a_edge21_Node000002_Node000014"><a xlink:title=" ">
<path fill="none" stroke="#63b8ff" d="M436.5,-109.75C436.5,-102.8 436.5,-92.85 436.5,-84.13"/>
<polygon fill="#63b8ff" stroke="#63b8ff" points="440,-84.09 436.5,-74.09 433,-84.09 440,-84.09"/>
</a>
</g>
</g>
<!-- Node3&#45;&gt;Node4 -->
<g id="edge3_Node000003_Node000004" class="edge">
<title>Node3&#45;&gt;Node4</title>
<g id="a_edge3_Node000003_Node000004"><a xlink:title=" ">
<path fill="none" stroke="#63b8ff" d="M144.34,-54.98C136,-47.23 123.47,-35.58 113.32,-26.14"/>
<polygon fill="#63b8ff" stroke="#63b8ff" points="115.53,-23.42 105.82,-19.17 110.76,-28.54 115.53,-23.42"/>
</a>
</g>
</g>
<!-- Node3&#45;&gt;Node5 -->
<g id="edge4_Node000003_Node000005" class="edge">
<title>Node3&#45;&gt;Node5</title>
<g id="a_edge4_Node000003_Node000005"><a xlink:title=" ">
<path fill="none" stroke="#63b8ff" d="M133.1,-54.98C112.48,-46.38 80.39,-32.99 56.81,-23.15"/>
<polygon fill="#63b8ff" stroke="#63b8ff" points="57.85,-19.79 47.28,-19.17 55.16,-26.25 57.85,-19.79"/>
</a>
</g>
</g>
<!-- Node3&#45;&gt;Node6 -->
<g id="edge5_Node000003_Node000006" class="edge">
<title>Node3&#45;&gt;Node6</title>
<g id="a_edge5_Node000003_Node000006"><a xlink:title=" ">
<path fill="none" stroke="#63b8ff" d="M195.23,-56.35C198.03,-55.89 200.81,-55.44 203.5,-55 297.07,-39.87 407.85,-23.22 461.37,-15.26"/>
<polygon fill="#63b8ff" stroke="#63b8ff" points="461.91,-18.72 471.29,-13.78 460.88,-11.79 461.91,-18.72"/>
</a>
</g>
</g>
<!-- Node3&#45;&gt;Node7 -->
<g id="edge6_Node000003_Node000007" class="edge">
<title>Node3&#45;&gt;Node7</title>
<g id="a_edge6_Node000003_Node000007"><a xlink:title=" ">
<path fill="none" stroke="#63b8ff" d="M195.2,-56.09C198,-55.69 200.79,-55.32 203.5,-55 440.16,-26.99 502.74,-53.79 738.5,-19 739.58,-18.84 740.67,-18.67 741.77,-18.48"/>
<polygon fill="#63b8ff" stroke="#63b8ff" points="742.57,-21.89 751.72,-16.55 741.24,-15.02 742.57,-21.89"/>
</a>
</g>
</g>
<!-- Node8&#45;&gt;Node6 -->
<g id="edge9_Node000008_Node000006" class="edge">
<title>Node8&#45;&gt;Node6</title>
<g id="a_edge9_Node000008_Node000006"><a xlink:title=" ">
<path fill="none" stroke="#63b8ff" d="M669.76,-54.98C629.95,-44.94 564.28,-28.36 525.33,-18.53"/>
<polygon fill="#63b8ff" stroke="#63b8ff" points="526.11,-15.12 515.56,-16.07 524.4,-21.91 526.11,-15.12"/>
</a>
</g>
</g>
<!-- Node9 -->
<g id="Node000009" class="node">
<title>Node9</title>
<g id="a_Node000009"><a xlink:title=" ">
<polygon fill="#e0e0e0" stroke="#999999" points="729,-19 678,-19 678,0 729,0 729,-19"/>
<text text-anchor="middle" x="703.5" y="-7" font-family="Helvetica,sans-Serif" font-size="10.00">errno.h</text>
</a>
</g>
</g>
<!-- Node8&#45;&gt;Node9 -->
<g id="edge8_Node000008_Node000009" class="edge">
<title>Node8&#45;&gt;Node9</title>
<g id="a_edge8_Node000008_Node000009"><a xlink:title=" ">
<path fill="none" stroke="#63b8ff" d="M703.5,-54.75C703.5,-47.8 703.5,-37.85 703.5,-29.13"/>
<polygon fill="#63b8ff" stroke="#63b8ff" points="707,-29.09 703.5,-19.09 700,-29.09 707,-29.09"/>
</a>
</g>
</g>
<!-- Node10&#45;&gt;Node6 -->
<g id="edge11_Node000010_Node000006" class="edge">
<title>Node10&#45;&gt;Node6</title>
<g id="a_edge11_Node000010_Node000006"><a xlink:title=" ">
<path fill="none" stroke="#63b8ff" d="M567.36,-54.98C553.71,-46.77 532.81,-34.18 516.72,-24.49"/>
<polygon fill="#63b8ff" stroke="#63b8ff" points="518.27,-21.33 507.9,-19.17 514.66,-27.33 518.27,-21.33"/>
</a>
</g>
</g>
<!-- Node11&#45;&gt;Node4 -->
<g id="edge14_Node000011_Node000004" class="edge">
<title>Node11&#45;&gt;Node4</title>
<g id="a_edge14_Node000011_Node000004"><a xlink:title=" ">
<path fill="none" stroke="#63b8ff" d="M67.28,-54.75C72.12,-47.42 79.18,-36.73 85.14,-27.7"/>
<polygon fill="#63b8ff" stroke="#63b8ff" points="88.24,-29.36 90.83,-19.09 82.4,-25.5 88.24,-29.36"/>
</a>
</g>
</g>
<!-- Node11&#45;&gt;Node5 -->
<g id="edge13_Node000011_Node000005" class="edge">
<title>Node11&#45;&gt;Node5</title>
<g id="a_edge13_Node000011_Node000005"><a xlink:title=" ">
<path fill="none" stroke="#63b8ff" d="M55.72,-54.75C50.88,-47.42 43.82,-36.73 37.86,-27.7"/>
<polygon fill="#63b8ff" stroke="#63b8ff" points="40.6,-25.5 32.17,-19.09 34.76,-29.36 40.6,-25.5"/>
</a>
</g>
</g>
<!-- Node11&#45;&gt;Node6 -->
<g id="edge15_Node000011_Node000006" class="edge">
<title>Node11&#45;&gt;Node6</title>
<g id="a_edge15_Node000011_Node000006"><a xlink:title=" ">
<path fill="none" stroke="#63b8ff" d="M94.12,-56.46C96.95,-55.93 99.77,-55.44 102.5,-55 234.78,-33.81 393.81,-18.97 461.01,-13.19"/>
<polygon fill="#63b8ff" stroke="#63b8ff" points="461.69,-16.64 471.36,-12.31 461.1,-9.67 461.69,-16.64"/>
</a>
</g>
</g>
</g>
</svg>
