<?xml version="1.0" encoding="UTF-8" standalone="no"?>
<!DOCTYPE svg PUBLIC "-//W3C//DTD SVG 1.1//EN"
 "http://www.w3.org/Graphics/SVG/1.1/DTD/svg11.dtd">
<!-- Generated by graphviz version 2.43.0 (0)
 -->
<!-- Title: src/compiler/ast.cpp Pages: 1 -->
<svg width="834pt" height="192pt"
 viewBox="0.00 0.00 833.58 192.00" xmlns="http://www.w3.org/2000/svg" xmlns:xlink="http://www.w3.org/1999/xlink">
<g id="graph0" class="graph" transform="scale(1 1) rotate(0) translate(4 188)">
<title>src/compiler/ast.cpp</title>
<!-- Node1 -->
<g id="Node000001" class="node">
<title>Node1</title>
<g id="a_Node000001"><a xlink:title=" ">
<polygon fill="#999999" stroke="#666666" points="665.58,-184 550.58,-184 550.58,-165 665.58,-165 665.58,-184"/>
<text text-anchor="middle" x="608.08" y="-172" font-family="Helvetica,sans-Serif" font-size="10.00">src/compiler/ast.cpp</text>
</a>
</g>
</g>
<!-- Node2 -->
<g id="Node000002" class="node">
<title>Node2</title>
<g id="a_Node000002"><a xlink:href="compiler_8hpp.html" target="_top" xlink:title=" ">
<polygon fill="white" stroke="#666666" points="464.08,-129 384.08,-129 384.08,-110 464.08,-110 464.08,-129"/>
<text text-anchor="middle" x="424.08" y="-117" font-family="Helvetica,sans-Serif" font-size="10.00">compiler.hpp</text>
</a>
</g>
</g>
<!-- Node1&#45;&gt;Node2 -->
<g id="edge1_Node000001_Node000002" class="edge">
<title>Node1&#45;&gt;Node2</title>
<g id="a_edge1_Node000001_Node000002"><a xlink:title=" ">
<path fill="none" stroke="#63b8ff" d="M578.51,-164.98C547.36,-156.01 498.1,-141.82 463.62,-131.89"/>
<polygon fill="#63b8ff" stroke="#63b8ff" points="464.45,-128.49 453.87,-129.08 462.51,-135.21 464.45,-128.49"/>
</a>
</g>
</g>
<!-- Node5 -->
<g id="Node000005" class="node">
<title>Node5</title>
<g id="a_Node000005"><a xlink:title=" ">
<polygon fill="#e0e0e0" stroke="#999999" points="263.58,-19 210.58,-19 210.58,0 263.58,0 263.58,-19"/>
<text text-anchor="middle" x="237.08" y="-7" font-family="Helvetica,sans-Serif" font-size="10.00">cstddef</text>
</a>
</g>
</g>
<!-- Node1&#45;&gt;Node5 -->
<g id="edge19_Node000001_Node000005" class="edge">
<title>Node1&#45;&gt;Node5</title>
<g id="a_edge19_Node000001_Node000005"><a xlink:title=" ">
<path fill="none" stroke="#63b8ff" d="M550.36,-173.05C413.19,-170.64 73.92,-156.29 4.08,-74 -1.39,-67.56 -1.3,-61.51 4.08,-55 28.53,-25.44 140.8,-15.33 200.12,-12.03"/>
<polygon fill="#63b8ff" stroke="#63b8ff" points="200.39,-15.52 210.2,-11.5 200.03,-8.53 200.39,-15.52"/>
</a>
</g>
</g>
<!-- Node7 -->
<g id="Node000007" class="node">
<title>Node7</title>
<g id="a_Node000007"><a xlink:title=" ">
<polygon fill="#e0e0e0" stroke="#999999" points="717.58,-19 670.58,-19 670.58,0 717.58,0 717.58,-19"/>
<text text-anchor="middle" x="694.08" y="-7" font-family="Helvetica,sans-Serif" font-size="10.00">vector</text>
</a>
</g>
</g>
<!-- Node1&#45;&gt;Node7 -->
<g id="edge21_Node000001_Node000007" class="edge">
<title>Node1&#45;&gt;Node7</title>
<g id="a_edge21_Node000001_Node000007"><a xlink:title=" ">
<path fill="none" stroke="#63b8ff" d="M619.57,-164.93C639.32,-149.4 679.02,-114.44 694.08,-74 699.43,-59.62 698.96,-42.1 697.42,-29.11"/>
<polygon fill="#63b8ff" stroke="#63b8ff" points="700.86,-28.42 695.91,-19.05 693.93,-29.46 700.86,-28.42"/>
</a>
</g>
</g>
<!-- Node13 -->
<g id="Node000013" class="node">
<title>Node13</title>
<g id="a_Node000013"><a xlink:title=" ">
<polygon fill="#e0e0e0" stroke="#999999" points="825.58,-129 760.58,-129 760.58,-110 825.58,-110 825.58,-129"/>
<text text-anchor="middle" x="793.08" y="-117" font-family="Helvetica,sans-Serif" font-size="10.00">stdexcept</text>
</a>
</g>
</g>
<!-- Node1&#45;&gt;Node13 -->
<g id="edge20_Node000001_Node000013" class="edge">
<title>Node1&#45;&gt;Node13</title>
<g id="a_edge20_Node000001_Node000013"><a xlink:title=" ">
<path fill="none" stroke="#63b8ff" d="M637.8,-164.98C669.13,-156.01 718.65,-141.82 753.32,-131.89"/>
<polygon fill="#63b8ff" stroke="#63b8ff" points="754.47,-135.2 763.12,-129.08 752.54,-128.47 754.47,-135.2"/>
</a>
</g>
</g>
<!-- Node3 -->
<g id="Node000003" class="node">
<title>Node3</title>
<g id="a_Node000003"><a xlink:href="bytecode_8hpp.html" target="_top" xlink:title=" ">
<polygon fill="white" stroke="#666666" points="405.58,-74 322.58,-74 322.58,-55 405.58,-55 405.58,-74"/>
<text text-anchor="middle" x="364.08" y="-62" font-family="Helvetica,sans-Serif" font-size="10.00">bytecode.hpp</text>
</a>
</g>
</g>
<!-- Node2&#45;&gt;Node3 -->
<g id="edge2_Node000002_Node000003" class="edge">
<title>Node2&#45;&gt;Node3</title>
<g id="a_edge2_Node000002_Node000003"><a xlink:title=" ">
<path fill="none" stroke="#63b8ff" d="M414.44,-109.98C405.57,-102.15 392.2,-90.34 381.47,-80.86"/>
<polygon fill="#63b8ff" stroke="#63b8ff" points="383.7,-78.17 373.89,-74.17 379.07,-83.41 383.7,-78.17"/>
</a>
</g>
</g>
<!-- Node4 -->
<g id="Node000004" class="node">
<title>Node4</title>
<g id="a_Node000004"><a xlink:title=" ">
<polygon fill="#e0e0e0" stroke="#999999" points="332.08,-19 282.08,-19 282.08,0 332.08,0 332.08,-19"/>
<text text-anchor="middle" x="307.08" y="-7" font-family="Helvetica,sans-Serif" font-size="10.00">cstdint</text>
</a>
</g>
</g>
<!-- Node2&#45;&gt;Node4 -->
<g id="edge13_Node000002_Node000004" class="edge">
<title>Node2&#45;&gt;Node4</title>
<g id="a_edge13_Node000002_Node000004"><a xlink:title=" ">
<path fill="none" stroke="#63b8ff" d="M383.76,-115.06C332.66,-109.76 248.92,-97.65 230.08,-74 213.42,-53.09 244.82,-34.31 272.39,-22.7"/>
<polygon fill="#63b8ff" stroke="#63b8ff" points="273.92,-25.86 281.9,-18.9 271.32,-19.36 273.92,-25.86"/>
</a>
</g>
</g>
<!-- Node6 -->
<g id="Node000006" class="node">
<title>Node6</title>
<g id="a_Node000006"><a xlink:title=" ">
<polygon fill="#e0e0e0" stroke="#999999" points="446.08,-19 402.08,-19 402.08,0 446.08,0 446.08,-19"/>
<text text-anchor="middle" x="424.08" y="-7" font-family="Helvetica,sans-Serif" font-size="10.00">string</text>
</a>
</g>
</g>
<!-- Node2&#45;&gt;Node6 -->
<g id="edge15_Node000002_Node000006" class="edge">
<title>Node2&#45;&gt;Node6</title>
<g id="a_edge15_Node000002_Node000006"><a xlink:title=" ">
<path fill="none" stroke="#63b8ff" d="M464.25,-116.47C494.13,-112.61 533.07,-102.07 553.08,-74 579.49,-36.95 502.87,-20.46 456.56,-14.05"/>
<polygon fill="#63b8ff" stroke="#63b8ff" points="456.73,-10.54 446.36,-12.72 455.83,-17.48 456.73,-10.54"/>
</a>
</g>
</g>
<!-- Node2&#45;&gt;Node7 -->
<g id="edge17_Node000002_Node000007" class="edge">
<title>Node2&#45;&gt;Node7</title>
<g id="a_edge17_Node000002_Node000007"><a xlink:title=" ">
<path fill="none" stroke="#63b8ff" d="M464.24,-116.41C527.04,-112.34 644.51,-101.23 675.08,-74 687.55,-62.89 691.99,-43.95 693.49,-29.65"/>
<polygon fill="#63b8ff" stroke="#63b8ff" points="697,-29.61 694.17,-19.4 690.02,-29.15 697,-29.61"/>
</a>
</g>
</g>
<!-- Node8 -->
<g id="Node000008" class="node">
<title>Node8</title>
<g id="a_Node000008"><a xlink:href="params_8hpp.html" target="_top" xlink:title=" ">
<polygon fill="white" stroke="#666666" points="544.08,-74 424.08,-74 424.08,-55 544.08,-55 544.08,-74"/>
<text text-anchor="middle" x="484.08" y="-62" font-family="Helvetica,sans-Serif" font-size="10.00">compiler/params.hpp</text>
</a>
</g>
</g>
<!-- Node2&#45;&gt;Node8 -->
<g id="edge7_Node000002_Node000008" class="edge">
<title>Node2&#45;&gt;Node8</title>
<g id="a_edge7_Node000002_Node000008"><a xlink:title=" ">
<path fill="none" stroke="#63b8ff" d="M433.72,-109.98C442.59,-102.15 455.95,-90.34 466.69,-80.86"/>
<polygon fill="#63b8ff" stroke="#63b8ff" points="469.08,-83.41 474.26,-74.17 464.45,-78.17 469.08,-83.41"/>
</a>
</g>
</g>
<!-- Node9 -->
<g id="Node000009" class="node">
<title>Node9</title>
<g id="a_Node000009"><a xlink:href="types_8hpp.html" target="_top" xlink:title=" ">
<polygon fill="white" stroke="#666666" points="304.58,-74 239.58,-74 239.58,-55 304.58,-55 304.58,-74"/>
<text text-anchor="middle" x="272.08" y="-62" font-family="Helvetica,sans-Serif" font-size="10.00">types.hpp</text>
</a>
</g>
</g>
<!-- Node2&#45;&gt;Node9 -->
<g id="edge9_Node000002_Node000009" class="edge">
<title>Node2&#45;&gt;Node9</title>
<g id="a_edge9_Node000002_Node000009"><a xlink:title=" ">
<path fill="none" stroke="#63b8ff" d="M399.66,-109.98C374.36,-101.16 334.62,-87.31 306.22,-77.41"/>
<polygon fill="#63b8ff" stroke="#63b8ff" points="307.29,-74.07 296.69,-74.08 304.98,-80.68 307.29,-74.07"/>
</a>
</g>
</g>
<!-- Node10 -->
<g id="Node000010" class="node">
<title>Node10</title>
<g id="a_Node000010"><a xlink:title=" ">
<polygon fill="#e0e0e0" stroke="#999999" points="665.58,-74 600.58,-74 600.58,-55 665.58,-55 665.58,-74"/>
<text text-anchor="middle" x="633.08" y="-62" font-family="Helvetica,sans-Serif" font-size="10.00">exception</text>
</a>
</g>
</g>
<!-- Node2&#45;&gt;Node10 -->
<g id="edge14_Node000002_Node000010" class="edge">
<title>Node2&#45;&gt;Node10</title>
<g id="a_edge14_Node000002_Node000010"><a xlink:title=" ">
<path fill="none" stroke="#63b8ff" d="M457.66,-109.98C493.75,-100.83 551.21,-86.26 590.46,-76.31"/>
<polygon fill="#63b8ff" stroke="#63b8ff" points="591.44,-79.67 600.27,-73.82 589.72,-72.89 591.44,-79.67"/>
</a>
</g>
</g>
<!-- Node11 -->
<g id="Node000011" class="node">
<title>Node11</title>
<g id="a_Node000011"><a xlink:title=" ">
<polygon fill="#e0e0e0" stroke="#999999" points="106.58,-74 13.58,-74 13.58,-55 106.58,-55 106.58,-74"/>
<text text-anchor="middle" x="60.08" y="-62" font-family="Helvetica,sans-Serif" font-size="10.00">unordered_map</text>
</a>
</g>
</g>
<!-- Node2&#45;&gt;Node11 -->
<g id="edge16_Node000002_Node000011" class="edge">
<title>Node2&#45;&gt;Node11</title>
<g id="a_edge16_Node000002_Node000011"><a xlink:title=" ">
<path fill="none" stroke="#63b8ff" d="M383.7,-112.76C326.74,-104.64 219.23,-89.24 117.02,-74.13"/>
<polygon fill="#63b8ff" stroke="#63b8ff" points="117.23,-70.62 106.82,-72.62 116.2,-77.55 117.23,-70.62"/>
</a>
</g>
</g>
<!-- Node12 -->
<g id="Node000012" class="node">
<title>Node12</title>
<g id="a_Node000012"><a xlink:title=" ">
<polygon fill="#e0e0e0" stroke="#999999" points="183.08,-74 125.08,-74 125.08,-55 183.08,-55 183.08,-74"/>
<text text-anchor="middle" x="154.08" y="-62" font-family="Helvetica,sans-Serif" font-size="10.00">memory</text>
</a>
</g>
</g>
<!-- Node2&#45;&gt;Node12 -->
<g id="edge18_Node000002_Node000012" class="edge">
<title>Node2&#45;&gt;Node12</title>
<g id="a_edge18_Node000002_Node000012"><a xlink:title=" ">
<path fill="none" stroke="#63b8ff" d="M383.89,-110.64C338.52,-101.76 262.49,-86.88 197.08,-74 195.82,-73.75 194.54,-73.5 193.24,-73.24"/>
<polygon fill="#63b8ff" stroke="#63b8ff" points="193.71,-69.77 183.22,-71.27 192.35,-76.64 193.71,-69.77"/>
</a>
</g>
</g>
<!-- Node3&#45;&gt;Node4 -->
<g id="edge3_Node000003_Node000004" class="edge">
<title>Node3&#45;&gt;Node4</title>
<g id="a_edge3_Node000003_Node000004"><a xlink:title=" ">
<path fill="none" stroke="#63b8ff" d="M354.92,-54.98C346.58,-47.23 334.05,-35.58 323.9,-26.14"/>
<polygon fill="#63b8ff" stroke="#63b8ff" points="326.11,-23.42 316.4,-19.17 321.34,-28.54 326.11,-23.42"/>
</a>
</g>
</g>
<!-- Node3&#45;&gt;Node5 -->
<g id="edge4_Node000003_Node000005" class="edge">
<title>Node3&#45;&gt;Node5</title>
<g id="a_edge4_Node000003_Node000005"><a xlink:title=" ">
<path fill="none" stroke="#63b8ff" d="M343.67,-54.98C323.06,-46.38 290.97,-32.99 267.38,-23.15"/>
<polygon fill="#63b8ff" stroke="#63b8ff" points="268.43,-19.79 257.85,-19.17 265.73,-26.25 268.43,-19.79"/>
</a>
</g>
</g>
<!-- Node3&#45;&gt;Node6 -->
<g id="edge5_Node000003_Node000006" class="edge">
<title>Node3&#45;&gt;Node6</title>
<g id="a_edge5_Node000003_Node000006"><a xlink:title=" ">
<path fill="none" stroke="#63b8ff" d="M373.72,-54.98C382.59,-47.15 395.95,-35.34 406.69,-25.86"/>
<polygon fill="#63b8ff" stroke="#63b8ff" points="409.08,-28.41 414.26,-19.17 404.45,-23.17 409.08,-28.41"/>
</a>
</g>
</g>
<!-- Node3&#45;&gt;Node7 -->
<g id="edge6_Node000003_Node000007" class="edge">
<title>Node3&#45;&gt;Node7</title>
<g id="a_edge6_Node000003_Node000007"><a xlink:title=" ">
<path fill="none" stroke="#63b8ff" d="M405.82,-56.52C408.95,-56 412.07,-55.49 415.08,-55 503.62,-40.56 608.06,-24.04 660.48,-15.78"/>
<polygon fill="#63b8ff" stroke="#63b8ff" points="661.22,-19.21 670.55,-14.2 660.13,-12.29 661.22,-19.21"/>
</a>
</g>
</g>
<!-- Node8&#45;&gt;Node6 -->
<g id="edge8_Node000008_Node000006" class="edge">
<title>Node8&#45;&gt;Node6</title>
<g id="a_edge8_Node000008_Node000006"><a xlink:title=" ">
<path fill="none" stroke="#63b8ff" d="M474.44,-54.98C465.57,-47.15 452.2,-35.34 441.47,-25.86"/>
<polygon fill="#63b8ff" stroke="#63b8ff" points="443.7,-23.17 433.89,-19.17 439.07,-28.41 443.7,-23.17"/>
</a>
</g>
</g>
<!-- Node9&#45;&gt;Node4 -->
<g id="edge11_Node000009_Node000004" class="edge">
<title>Node9&#45;&gt;Node4</title>
<g id="a_edge11_Node000009_Node000004"><a xlink:title=" ">
<path fill="none" stroke="#63b8ff" d="M277.86,-54.75C282.7,-47.42 289.76,-36.73 295.72,-27.7"/>
<polygon fill="#63b8ff" stroke="#63b8ff" points="298.82,-29.36 301.41,-19.09 292.97,-25.5 298.82,-29.36"/>
</a>
</g>
</g>
<!-- Node9&#45;&gt;Node5 -->
<g id="edge10_Node000009_Node000005" class="edge">
<title>Node9&#45;&gt;Node5</title>
<g id="a_edge10_Node000009_Node000005"><a xlink:title=" ">
<path fill="none" stroke="#63b8ff" d="M266.3,-54.75C261.46,-47.42 254.4,-36.73 248.43,-27.7"/>
<polygon fill="#63b8ff" stroke="#63b8ff" points="251.18,-25.5 242.75,-19.09 245.34,-29.36 251.18,-25.5"/>
</a>
</g>
</g>
<!-- Node9&#45;&gt;Node6 -->
<g id="edge12_Node000009_Node000006" class="edge">
<title>Node9&#45;&gt;Node6</title>
<g id="a_edge12_Node000009_Node000006"><a xlink:title=" ">
<path fill="none" stroke="#63b8ff" d="M296.5,-54.98C322.47,-45.93 363.66,-31.56 392.18,-21.62"/>
<polygon fill="#63b8ff" stroke="#63b8ff" points="393.41,-24.9 401.7,-18.3 391.1,-18.29 393.41,-24.9"/>
</a>
</g>
</g>
</g>
</svg>
