<?xml version="1.0" encoding="UTF-8" standalone="no"?>
<!DOCTYPE svg PUBLIC "-//W3C//DTD SVG 1.1//EN"
 "http://www.w3.org/Graphics/SVG/1.1/DTD/svg11.dtd">
<!-- Generated by graphviz version 2.43.0 (0)
 -->
<!-- Title: src/compiler/ast.cpp Pages: 1 -->
<svg width="701pt" height="192pt"
 viewBox="0.00 0.00 701.48 192.00" xmlns="http://www.w3.org/2000/svg" xmlns:xlink="http://www.w3.org/1999/xlink">
<g id="graph0" class="graph" transform="scale(1 1) rotate(0) translate(4 188)">
<title>src/compiler/ast.cpp</title>
<!-- Node1 -->
<g id="Node000001" class="node">
<title>Node1</title>
<g id="a_Node000001"><a xlink:title=" ">
<polygon fill="#999999" stroke="#666666" points="526.48,-184 411.48,-184 411.48,-165 526.48,-165 526.48,-184"/>
<text text-anchor="middle" x="468.98" y="-172" font-family="Helvetica,sans-Serif" font-size="10.00">src/compiler/ast.cpp</text>
</a>
</g>
</g>
<!-- Node2 -->
<g id="Node000002" class="node">
<title>Node2</title>
<g id="a_Node000002"><a xlink:href="compiler_8hpp.html" target="_top" xlink:title=" ">
<polygon fill="white" stroke="#666666" points="377.98,-129 297.98,-129 297.98,-110 377.98,-110 377.98,-129"/>
<text text-anchor="middle" x="337.98" y="-117" font-family="Helvetica,sans-Serif" font-size="10.00">compiler.hpp</text>
</a>
</g>
</g>
<!-- Node1&#45;&gt;Node2 -->
<g id="edge1_Node000001_Node000002" class="edge">
<title>Node1&#45;&gt;Node2</title>
<g id="a_edge1_Node000001_Node000002"><a xlink:title=" ">
<path fill="none" stroke="#63b8ff" d="M447.93,-164.98C426.57,-156.34 393.27,-142.87 368.91,-133.02"/>
<polygon fill="#63b8ff" stroke="#63b8ff" points="369.99,-129.68 359.41,-129.17 367.37,-136.17 369.99,-129.68"/>
</a>
</g>
</g>
<!-- Node5 -->
<g id="Node000005" class="node">
<title>Node5</title>
<g id="a_Node000005"><a xlink:title=" ">
<polygon fill="#e0e0e0" stroke="#999999" points="241.48,-19 188.48,-19 188.48,0 241.48,0 241.48,-19"/>
<text text-anchor="middle" x="214.98" y="-7" font-family="Helvetica,sans-Serif" font-size="10.00">cstddef</text>
</a>
</g>
</g>
<!-- Node1&#45;&gt;Node5 -->
<g id="edge18_Node000001_Node000005" class="edge">
<title>Node1&#45;&gt;Node5</title>
<g id="a_edge18_Node000001_Node000005"><a xlink:title=" ">
<path fill="none" stroke="#63b8ff" d="M411.16,-169.77C299.1,-161.21 58.94,-135.92 8.98,-74 -36.96,-17.07 107.35,-10.06 178.17,-9.92"/>
<polygon fill="#63b8ff" stroke="#63b8ff" points="178.45,-13.42 188.46,-9.95 178.46,-6.42 178.45,-13.42"/>
</a>
</g>
</g>
<!-- Node7 -->
<g id="Node000007" class="node">
<title>Node7</title>
<g id="a_Node000007"><a xlink:title=" ">
<polygon fill="#e0e0e0" stroke="#999999" points="501.48,-19 454.48,-19 454.48,0 501.48,0 501.48,-19"/>
<text text-anchor="middle" x="477.98" y="-7" font-family="Helvetica,sans-Serif" font-size="10.00">vector</text>
</a>
</g>
</g>
<!-- Node1&#45;&gt;Node7 -->
<g id="edge20_Node000001_Node000007" class="edge">
<title>Node1&#45;&gt;Node7</title>
<g id="a_edge20_Node000001_Node000007"><a xlink:title=" ">
<path fill="none" stroke="#63b8ff" d="M485.5,-164.91C511.55,-150.31 561.26,-117.89 580.98,-74 595.4,-41.91 546.87,-24.63 511.59,-16.52"/>
<polygon fill="#63b8ff" stroke="#63b8ff" points="512.11,-13.05 501.6,-14.38 510.64,-19.89 512.11,-13.05"/>
</a>
</g>
</g>
<!-- Node13 -->
<g id="Node000013" class="node">
<title>Node13</title>
<g id="a_Node000013"><a xlink:title=" ">
<polygon fill="#e0e0e0" stroke="#999999" points="693.48,-129 628.48,-129 628.48,-110 693.48,-110 693.48,-129"/>
<text text-anchor="middle" x="660.98" y="-117" font-family="Helvetica,sans-Serif" font-size="10.00">stdexcept</text>
</a>
</g>
</g>
<!-- Node1&#45;&gt;Node13 -->
<g id="edge19_Node000001_Node000013" class="edge">
<title>Node1&#45;&gt;Node13</title>
<g id="a_edge19_Node000001_Node000013"><a xlink:title=" ">
<path fill="none" stroke="#63b8ff" d="M499.83,-164.98C532.48,-155.97 584.17,-141.7 620.18,-131.76"/>
<polygon fill="#63b8ff" stroke="#63b8ff" points="621.18,-135.12 629.89,-129.08 619.32,-128.37 621.18,-135.12"/>
</a>
</g>
</g>
<!-- Node3 -->
<g id="Node000003" class="node">
<title>Node3</title>
<g id="a_Node000003"><a xlink:href="bytecode_8hpp.html" target="_top" xlink:title=" ">
<polygon fill="white" stroke="#666666" points="449.48,-74 366.48,-74 366.48,-55 449.48,-55 449.48,-74"/>
<text text-anchor="middle" x="407.98" y="-62" font-family="Helvetica,sans-Serif" font-size="10.00">bytecode.hpp</text>
</a>
</g>
</g>
<!-- Node2&#45;&gt;Node3 -->
<g id="edge2_Node000002_Node000003" class="edge">
<title>Node2&#45;&gt;Node3</title>
<g id="a_edge2_Node000002_Node000003"><a xlink:title=" ">
<path fill="none" stroke="#63b8ff" d="M349.23,-109.98C359.78,-102 375.78,-89.88 388.42,-80.31"/>
<polygon fill="#63b8ff" stroke="#63b8ff" points="390.67,-83 396.53,-74.17 386.44,-77.42 390.67,-83"/>
</a>
</g>
</g>
<!-- Node4 -->
<g id="Node000004" class="node">
<title>Node4</title>
<g id="a_Node000004"><a xlink:title=" ">
<polygon fill="#e0e0e0" stroke="#999999" points="371.98,-19 321.98,-19 321.98,0 371.98,0 371.98,-19"/>
<text text-anchor="middle" x="346.98" y="-7" font-family="Helvetica,sans-Serif" font-size="10.00">cstdint</text>
</a>
</g>
</g>
<!-- Node2&#45;&gt;Node4 -->
<g id="edge12_Node000002_Node000004" class="edge">
<title>Node2&#45;&gt;Node4</title>
<g id="a_edge12_Node000002_Node000004"><a xlink:title=" ">
<path fill="none" stroke="#63b8ff" d="M338.72,-109.66C340.17,-92.17 343.45,-52.8 345.41,-29.27"/>
<polygon fill="#63b8ff" stroke="#63b8ff" points="348.91,-29.41 346.26,-19.16 341.94,-28.83 348.91,-29.41"/>
</a>
</g>
</g>
<!-- Node6 -->
<g id="Node000006" class="node">
<title>Node6</title>
<g id="a_Node000006"><a xlink:title=" ">
<polygon fill="#e0e0e0" stroke="#999999" points="303.98,-19 259.98,-19 259.98,0 303.98,0 303.98,-19"/>
<text text-anchor="middle" x="281.98" y="-7" font-family="Helvetica,sans-Serif" font-size="10.00">string</text>
</a>
</g>
</g>
<!-- Node2&#45;&gt;Node6 -->
<g id="edge14_Node000002_Node000006" class="edge">
<title>Node2&#45;&gt;Node6</title>
<g id="a_edge14_Node000002_Node000006"><a xlink:title=" ">
<path fill="none" stroke="#63b8ff" d="M333.4,-109.66C324.2,-91.93 303.36,-51.73 291.22,-28.32"/>
<polygon fill="#63b8ff" stroke="#63b8ff" points="294.18,-26.42 286.47,-19.16 287.96,-29.65 294.18,-26.42"/>
</a>
</g>
</g>
<!-- Node2&#45;&gt;Node7 -->
<g id="edge16_Node000002_Node000007" class="edge">
<title>Node2&#45;&gt;Node7</title>
<g id="a_edge16_Node000002_Node000007"><a xlink:title=" ">
<path fill="none" stroke="#63b8ff" d="M378.21,-113.14C404.56,-107.6 437.9,-96.42 458.98,-74 470.42,-61.83 475,-43.04 476.81,-29.05"/>
<polygon fill="#63b8ff" stroke="#63b8ff" points="480.3,-29.37 477.76,-19.08 473.33,-28.71 480.3,-29.37"/>
</a>
</g>
</g>
<!-- Node9 -->
<g id="Node000009" class="node">
<title>Node9</title>
<g id="a_Node000009"><a xlink:href="types_8hpp.html" target="_top" xlink:title=" ">
<polygon fill="white" stroke="#666666" points="271.48,-74 206.48,-74 206.48,-55 271.48,-55 271.48,-74"/>
<text text-anchor="middle" x="238.98" y="-62" font-family="Helvetica,sans-Serif" font-size="10.00">types.hpp</text>
</a>
</g>
</g>
<!-- Node2&#45;&gt;Node9 -->
<g id="edge8_Node000002_Node000009" class="edge">
<title>Node2&#45;&gt;Node9</title>
<g id="a_edge8_Node000002_Node000009"><a xlink:title=" ">
<path fill="none" stroke="#63b8ff" d="M322.07,-109.98C306.43,-101.61 282.32,-88.7 264.09,-78.95"/>
<polygon fill="#63b8ff" stroke="#63b8ff" points="265.64,-75.8 255.17,-74.17 262.34,-81.98 265.64,-75.8"/>
</a>
</g>
</g>
<!-- Node10 -->
<g id="Node000010" class="node">
<title>Node10</title>
<g id="a_Node000010"><a xlink:title=" ">
<polygon fill="#e0e0e0" stroke="#999999" points="571.48,-74 506.48,-74 506.48,-55 571.48,-55 571.48,-74"/>
<text text-anchor="middle" x="538.98" y="-62" font-family="Helvetica,sans-Serif" font-size="10.00">exception</text>
</a>
</g>
</g>
<!-- Node2&#45;&gt;Node10 -->
<g id="edge13_Node000002_Node000010" class="edge">
<title>Node2&#45;&gt;Node10</title>
<g id="a_edge13_Node000002_Node000010"><a xlink:title=" ">
<path fill="none" stroke="#63b8ff" d="M370.27,-109.98C404.6,-100.93 459.04,-86.58 496.75,-76.64"/>
<polygon fill="#63b8ff" stroke="#63b8ff" points="497.65,-80.02 506.43,-74.08 495.87,-73.25 497.65,-80.02"/>
</a>
</g>
</g>
<!-- Node11 -->
<g id="Node000011" class="node">
<title>Node11</title>
<g id="a_Node000011"><a xlink:title=" ">
<polygon fill="#e0e0e0" stroke="#999999" points="111.48,-74 18.48,-74 18.48,-55 111.48,-55 111.48,-74"/>
<text text-anchor="middle" x="64.98" y="-62" font-family="Helvetica,sans-Serif" font-size="10.00">unordered_map</text>
</a>
</g>
</g>
<!-- Node2&#45;&gt;Node11 -->
<g id="edge15_Node000002_Node000011" class="edge">
<title>Node2&#45;&gt;Node11</title>
<g id="a_edge15_Node000002_Node000011"><a xlink:title=" ">
<path fill="none" stroke="#63b8ff" d="M297.7,-110.68C250.32,-101.48 171.48,-86.18 118.88,-75.96"/>
<polygon fill="#63b8ff" stroke="#63b8ff" points="119.53,-72.53 109.05,-74.06 118.2,-79.4 119.53,-72.53"/>
</a>
</g>
</g>
<!-- Node12 -->
<g id="Node000012" class="node">
<title>Node12</title>
<g id="a_Node000012"><a xlink:title=" ">
<polygon fill="#e0e0e0" stroke="#999999" points="187.98,-74 129.98,-74 129.98,-55 187.98,-55 187.98,-74"/>
<text text-anchor="middle" x="158.98" y="-62" font-family="Helvetica,sans-Serif" font-size="10.00">memory</text>
</a>
</g>
</g>
<!-- Node2&#45;&gt;Node12 -->
<g id="edge17_Node000002_Node000012" class="edge">
<title>Node2&#45;&gt;Node12</title>
<g id="a_edge17_Node000002_Node000012"><a xlink:title=" ">
<path fill="none" stroke="#63b8ff" d="M309.22,-109.98C279.04,-101.05 231.41,-86.94 197.88,-77.02"/>
<polygon fill="#63b8ff" stroke="#63b8ff" points="198.55,-73.57 187.96,-74.08 196.56,-80.28 198.55,-73.57"/>
</a>
</g>
</g>
<!-- Node3&#45;&gt;Node4 -->
<g id="edge3_Node000003_Node000004" class="edge">
<title>Node3&#45;&gt;Node4</title>
<g id="a_edge3_Node000003_Node000004"><a xlink:title=" ">
<path fill="none" stroke="#63b8ff" d="M398.18,-54.98C389.16,-47.15 375.57,-35.34 364.66,-25.86"/>
<polygon fill="#63b8ff" stroke="#63b8ff" points="366.8,-23.09 356.96,-19.17 362.21,-28.37 366.8,-23.09"/>
</a>
</g>
</g>
<!-- Node3&#45;&gt;Node5 -->
<g id="edge4_Node000003_Node000005" class="edge">
<title>Node3&#45;&gt;Node5</title>
<g id="a_edge4_Node000003_Node000005"><a xlink:title=" ">
<path fill="none" stroke="#63b8ff" d="M376.97,-54.98C342.69,-45.57 287.52,-30.42 251.26,-20.46"/>
<polygon fill="#63b8ff" stroke="#63b8ff" points="252.13,-17.07 241.56,-17.8 250.28,-23.82 252.13,-17.07"/>
</a>
</g>
</g>
<!-- Node3&#45;&gt;Node6 -->
<g id="edge5_Node000003_Node000006" class="edge">
<title>Node3&#45;&gt;Node6</title>
<g id="a_edge5_Node000003_Node000006"><a xlink:title=" ">
<path fill="none" stroke="#63b8ff" d="M387.73,-54.98C367.28,-46.38 335.45,-32.99 312.05,-23.15"/>
<polygon fill="#63b8ff" stroke="#63b8ff" points="313.17,-19.82 302.59,-19.17 310.45,-26.27 313.17,-19.82"/>
</a>
</g>
</g>
<!-- Node3&#45;&gt;Node7 -->
<g id="edge6_Node000003_Node000007" class="edge">
<title>Node3&#45;&gt;Node7</title>
<g id="a_edge6_Node000003_Node000007"><a xlink:title=" ">
<path fill="none" stroke="#63b8ff" d="M419.23,-54.98C429.78,-47 445.78,-34.88 458.42,-25.31"/>
<polygon fill="#63b8ff" stroke="#63b8ff" points="460.67,-28 466.53,-19.17 456.44,-22.42 460.67,-28"/>
</a>
</g>
</g>
<!-- Node8 -->
<g id="Node000008" class="node">
<title>Node8</title>
<g id="a_Node000008"><a xlink:title=" ">
<polygon fill="#e0e0e0" stroke="#999999" points="431.98,-19 389.98,-19 389.98,0 431.98,0 431.98,-19"/>
<text text-anchor="middle" x="410.98" y="-7" font-family="Helvetica,sans-Serif" font-size="10.00">array</text>
</a>
</g>
</g>
<!-- Node3&#45;&gt;Node8 -->
<g id="edge7_Node000003_Node000008" class="edge">
<title>Node3&#45;&gt;Node8</title>
<g id="a_edge7_Node000003_Node000008"><a xlink:title=" ">
<path fill="none" stroke="#63b8ff" d="M408.47,-54.75C408.87,-47.8 409.43,-37.85 409.92,-29.13"/>
<polygon fill="#63b8ff" stroke="#63b8ff" points="413.42,-29.27 410.49,-19.09 406.43,-28.88 413.42,-29.27"/>
</a>
</g>
</g>
<!-- Node9&#45;&gt;Node4 -->
<g id="edge10_Node000009_Node000004" class="edge">
<title>Node9&#45;&gt;Node4</title>
<g id="a_edge10_Node000009_Node000004"><a xlink:title=" ">
<path fill="none" stroke="#63b8ff" d="M256.33,-54.98C273.55,-46.54 300.18,-33.47 320.13,-23.68"/>
<polygon fill="#63b8ff" stroke="#63b8ff" points="321.88,-26.72 329.31,-19.17 318.79,-20.43 321.88,-26.72"/>
</a>
</g>
</g>
<!-- Node9&#45;&gt;Node5 -->
<g id="edge9_Node000009_Node000005" class="edge">
<title>Node9&#45;&gt;Node5</title>
<g id="a_edge9_Node000009_Node000005"><a xlink:title=" ">
<path fill="none" stroke="#63b8ff" d="M235.02,-54.75C231.77,-47.57 227.06,-37.18 223.02,-28.27"/>
<polygon fill="#63b8ff" stroke="#63b8ff" points="226.18,-26.75 218.87,-19.09 219.8,-29.64 226.18,-26.75"/>
</a>
</g>
</g>
<!-- Node9&#45;&gt;Node6 -->
<g id="edge11_Node000009_Node000006" class="edge">
<title>Node9&#45;&gt;Node6</title>
<g id="a_edge11_Node000009_Node000006"><a xlink:title=" ">
<path fill="none" stroke="#63b8ff" d="M246.08,-54.75C252.15,-47.26 261.06,-36.28 268.49,-27.13"/>
<polygon fill="#63b8ff" stroke="#63b8ff" points="271.43,-29.06 275.01,-19.09 265.99,-24.65 271.43,-29.06"/>
</a>
</g>
</g>
</g>
</svg>
