<?xml version="1.0" encoding="UTF-8" standalone="no"?>
<!DOCTYPE svg PUBLIC "-//W3C//DTD SVG 1.1//EN"
 "http://www.w3.org/Graphics/SVG/1.1/DTD/svg11.dtd">
<!-- Generated by graphviz version 2.43.0 (0)
 -->
<!-- Title: src/compiler/ast.cpp Pages: 1 -->
<svg width="441pt" height="192pt"
 viewBox="0.00 0.00 441.00 192.00" xmlns="http://www.w3.org/2000/svg" xmlns:xlink="http://www.w3.org/1999/xlink">
<g id="graph0" class="graph" transform="scale(1 1) rotate(0) translate(4 188)">
<title>src/compiler/ast.cpp</title>
<!-- Node1 -->
<g id="Node000001" class="node">
<title>Node1</title>
<g id="a_Node000001"><a xlink:title=" ">
<polygon fill="#999999" stroke="#666666" points="345,-184 230,-184 230,-165 345,-165 345,-184"/>
<text text-anchor="middle" x="287.5" y="-172" font-family="Helvetica,sans-Serif" font-size="10.00">src/compiler/ast.cpp</text>
</a>
</g>
</g>
<!-- Node2 -->
<g id="Node000002" class="node">
<title>Node2</title>
<g id="a_Node000002"><a xlink:href="compiler_8hpp.html" target="_top" xlink:title=" ">
<polygon fill="white" stroke="#666666" points="293.5,-129 213.5,-129 213.5,-110 293.5,-110 293.5,-129"/>
<text text-anchor="middle" x="253.5" y="-117" font-family="Helvetica,sans-Serif" font-size="10.00">compiler.hpp</text>
</a>
</g>
</g>
<!-- Node1&#45;&gt;Node2 -->
<g id="edge1_Node000001_Node000002" class="edge">
<title>Node1&#45;&gt;Node2</title>
<g id="a_edge1_Node000001_Node000002"><a xlink:title=" ">
<path fill="none" stroke="#63b8ff" d="M281.89,-164.75C277.18,-157.42 270.33,-146.73 264.53,-137.7"/>
<polygon fill="#63b8ff" stroke="#63b8ff" points="267.36,-135.62 259.01,-129.09 261.46,-139.4 267.36,-135.62"/>
</a>
</g>
</g>
<!-- Node4 -->
<g id="Node000004" class="node">
<title>Node4</title>
<g id="a_Node000004"><a xlink:title=" ">
<polygon fill="#e0e0e0" stroke="#999999" points="53,-19 0,-19 0,0 53,0 53,-19"/>
<text text-anchor="middle" x="26.5" y="-7" font-family="Helvetica,sans-Serif" font-size="10.00">cstddef</text>
</a>
</g>
</g>
<!-- Node1&#45;&gt;Node4 -->
<g id="edge11_Node000001_Node000004" class="edge">
<title>Node1&#45;&gt;Node4</title>
<g id="a_edge11_Node000001_Node000004"><a xlink:title=" ">
<path fill="none" stroke="#63b8ff" d="M248.36,-164.99C199.02,-152.52 114.09,-125.01 59.5,-74 46.19,-61.56 37.3,-42.54 32.14,-28.56"/>
<polygon fill="#63b8ff" stroke="#63b8ff" points="35.43,-27.38 28.9,-19.04 28.8,-29.63 35.43,-27.38"/>
</a>
</g>
</g>
<!-- Node8 -->
<g id="Node000008" class="node">
<title>Node8</title>
<g id="a_Node000008"><a xlink:title=" ">
<polygon fill="#e0e0e0" stroke="#999999" points="433,-74 386,-74 386,-55 433,-55 433,-74"/>
<text text-anchor="middle" x="409.5" y="-62" font-family="Helvetica,sans-Serif" font-size="10.00">vector</text>
</a>
</g>
</g>
<!-- Node1&#45;&gt;Node8 -->
<g id="edge13_Node000001_Node000008" class="edge">
<title>Node1&#45;&gt;Node8</title>
<g id="a_edge13_Node000001_Node000008"><a xlink:title=" ">
<path fill="none" stroke="#63b8ff" d="M293.79,-164.59C303.2,-151.62 321.96,-127.23 341.5,-110 354.83,-98.25 371.5,-87.29 385,-79.19"/>
<polygon fill="#63b8ff" stroke="#63b8ff" points="386.89,-82.13 393.76,-74.06 383.36,-76.09 386.89,-82.13"/>
</a>
</g>
</g>
<!-- Node10 -->
<g id="Node000010" class="node">
<title>Node10</title>
<g id="a_Node000010"><a xlink:title=" ">
<polygon fill="#e0e0e0" stroke="#999999" points="415,-129 350,-129 350,-110 415,-110 415,-129"/>
<text text-anchor="middle" x="382.5" y="-117" font-family="Helvetica,sans-Serif" font-size="10.00">stdexcept</text>
</a>
</g>
</g>
<!-- Node1&#45;&gt;Node10 -->
<g id="edge12_Node000001_Node000010" class="edge">
<title>Node1&#45;&gt;Node10</title>
<g id="a_edge12_Node000001_Node000010"><a xlink:title=" ">
<path fill="none" stroke="#63b8ff" d="M302.76,-164.98C317.63,-156.69 340.48,-143.94 357.92,-134.22"/>
<polygon fill="#63b8ff" stroke="#63b8ff" points="359.93,-137.1 366.96,-129.17 356.52,-130.99 359.93,-137.1"/>
</a>
</g>
</g>
<!-- Node3 -->
<g id="Node000003" class="node">
<title>Node3</title>
<g id="a_Node000003"><a xlink:href="types_8hpp.html" target="_top" xlink:title=" ">
<polygon fill="white" stroke="#666666" points="142,-74 77,-74 77,-55 142,-55 142,-74"/>
<text text-anchor="middle" x="109.5" y="-62" font-family="Helvetica,sans-Serif" font-size="10.00">types.hpp</text>
</a>
</g>
</g>
<!-- Node2&#45;&gt;Node3 -->
<g id="edge2_Node000002_Node000003" class="edge">
<title>Node2&#45;&gt;Node3</title>
<g id="a_edge2_Node000002_Node000003"><a xlink:title=" ">
<path fill="none" stroke="#63b8ff" d="M230.36,-109.98C206.68,-101.27 169.63,-87.63 142.79,-77.75"/>
<polygon fill="#63b8ff" stroke="#63b8ff" points="143.65,-74.34 133.06,-74.17 141.23,-80.91 143.65,-74.34"/>
</a>
</g>
</g>
<!-- Node5 -->
<g id="Node000005" class="node">
<title>Node5</title>
<g id="a_Node000005"><a xlink:title=" ">
<polygon fill="#e0e0e0" stroke="#999999" points="286.5,-19 236.5,-19 236.5,0 286.5,0 286.5,-19"/>
<text text-anchor="middle" x="261.5" y="-7" font-family="Helvetica,sans-Serif" font-size="10.00">cstdint</text>
</a>
</g>
</g>
<!-- Node2&#45;&gt;Node5 -->
<g id="edge6_Node000002_Node000005" class="edge">
<title>Node2&#45;&gt;Node5</title>
<g id="a_edge6_Node000002_Node000005"><a xlink:title=" ">
<path fill="none" stroke="#63b8ff" d="M287.72,-109.93C306.21,-103.37 327.46,-92.24 338.5,-74 352.08,-51.56 322.67,-33.45 296.36,-22.4"/>
<polygon fill="#63b8ff" stroke="#63b8ff" points="297.48,-19.08 286.89,-18.65 294.9,-25.59 297.48,-19.08"/>
</a>
</g>
</g>
<!-- Node6 -->
<g id="Node000006" class="node">
<title>Node6</title>
<g id="a_Node000006"><a xlink:title=" ">
<polygon fill="#e0e0e0" stroke="#999999" points="123.5,-19 79.5,-19 79.5,0 123.5,0 123.5,-19"/>
<text text-anchor="middle" x="101.5" y="-7" font-family="Helvetica,sans-Serif" font-size="10.00">string</text>
</a>
</g>
</g>
<!-- Node2&#45;&gt;Node6 -->
<g id="edge7_Node000002_Node000006" class="edge">
<title>Node2&#45;&gt;Node6</title>
<g id="a_edge7_Node000002_Node000006"><a xlink:title=" ">
<path fill="none" stroke="#63b8ff" d="M213.13,-114.61C163.98,-108.94 85.29,-96.55 67.5,-74 55.85,-59.23 69.64,-39.88 82.99,-26.44"/>
<polygon fill="#63b8ff" stroke="#63b8ff" points="85.71,-28.69 90.6,-19.29 80.92,-23.59 85.71,-28.69"/>
</a>
</g>
</g>
<!-- Node7 -->
<g id="Node000007" class="node">
<title>Node7</title>
<g id="a_Node000007"><a xlink:title=" ">
<polygon fill="#e0e0e0" stroke="#999999" points="253,-74 160,-74 160,-55 253,-55 253,-74"/>
<text text-anchor="middle" x="206.5" y="-62" font-family="Helvetica,sans-Serif" font-size="10.00">unordered_map</text>
</a>
</g>
</g>
<!-- Node2&#45;&gt;Node7 -->
<g id="edge8_Node000002_Node000007" class="edge">
<title>Node2&#45;&gt;Node7</title>
<g id="a_edge8_Node000002_Node000007"><a xlink:title=" ">
<path fill="none" stroke="#63b8ff" d="M245.74,-109.75C239.03,-102.18 229.16,-91.05 220.99,-81.84"/>
<polygon fill="#63b8ff" stroke="#63b8ff" points="223.37,-79.25 214.12,-74.09 218.13,-83.89 223.37,-79.25"/>
</a>
</g>
</g>
<!-- Node2&#45;&gt;Node8 -->
<g id="edge9_Node000002_Node000008" class="edge">
<title>Node2&#45;&gt;Node8</title>
<g id="a_edge9_Node000002_Node000008"><a xlink:title=" ">
<path fill="none" stroke="#63b8ff" d="M278.56,-109.98C304.99,-101.01 346.77,-86.81 376,-76.88"/>
<polygon fill="#63b8ff" stroke="#63b8ff" points="377.43,-80.09 385.78,-73.56 375.18,-73.46 377.43,-80.09"/>
</a>
</g>
</g>
<!-- Node9 -->
<g id="Node000009" class="node">
<title>Node9</title>
<g id="a_Node000009"><a xlink:title=" ">
<polygon fill="#e0e0e0" stroke="#999999" points="329.5,-74 271.5,-74 271.5,-55 329.5,-55 329.5,-74"/>
<text text-anchor="middle" x="300.5" y="-62" font-family="Helvetica,sans-Serif" font-size="10.00">memory</text>
</a>
</g>
</g>
<!-- Node2&#45;&gt;Node9 -->
<g id="edge10_Node000002_Node000009" class="edge">
<title>Node2&#45;&gt;Node9</title>
<g id="a_edge10_Node000002_Node000009"><a xlink:title=" ">
<path fill="none" stroke="#63b8ff" d="M261.26,-109.75C267.97,-102.18 277.84,-91.05 286.01,-81.84"/>
<polygon fill="#63b8ff" stroke="#63b8ff" points="288.87,-83.89 292.88,-74.09 283.63,-79.25 288.87,-83.89"/>
</a>
</g>
</g>
<!-- Node3&#45;&gt;Node4 -->
<g id="edge3_Node000003_Node000004" class="edge">
<title>Node3&#45;&gt;Node4</title>
<g id="a_edge3_Node000003_Node000004"><a xlink:title=" ">
<path fill="none" stroke="#63b8ff" d="M96.16,-54.98C83.41,-46.84 63.95,-34.41 48.83,-24.76"/>
<polygon fill="#63b8ff" stroke="#63b8ff" points="50.39,-21.6 40.08,-19.17 46.62,-27.5 50.39,-21.6"/>
</a>
</g>
</g>
<!-- Node3&#45;&gt;Node5 -->
<g id="edge4_Node000003_Node000005" class="edge">
<title>Node3&#45;&gt;Node5</title>
<g id="a_edge4_Node000003_Node000005"><a xlink:title=" ">
<path fill="none" stroke="#63b8ff" d="M133.92,-54.98C159.22,-46.16 198.95,-32.31 227.36,-22.41"/>
<polygon fill="#63b8ff" stroke="#63b8ff" points="228.6,-25.68 236.89,-19.08 226.29,-19.07 228.6,-25.68"/>
</a>
</g>
</g>
<!-- Node3&#45;&gt;Node6 -->
<g id="edge5_Node000003_Node000006" class="edge">
<title>Node3&#45;&gt;Node6</title>
<g id="a_edge5_Node000003_Node000006"><a xlink:title=" ">
<path fill="none" stroke="#63b8ff" d="M108.18,-54.75C107.13,-47.8 105.63,-37.85 104.31,-29.13"/>
<polygon fill="#63b8ff" stroke="#63b8ff" points="107.75,-28.45 102.8,-19.09 100.83,-29.5 107.75,-28.45"/>
</a>
</g>
</g>
</g>
</svg>
