<?xml version="1.0" encoding="UTF-8" standalone="no"?>
<!DOCTYPE svg PUBLIC "-//W3C//DTD SVG 1.1//EN"
 "http://www.w3.org/Graphics/SVG/1.1/DTD/svg11.dtd">
<!-- Generated by graphviz version 2.43.0 (0)
 -->
<!-- Title: src/compiler/ast.cpp Pages: 1 -->
<svg width="701pt" height="192pt"
 viewBox="0.00 0.00 700.72 192.00" xmlns="http://www.w3.org/2000/svg" xmlns:xlink="http://www.w3.org/1999/xlink">
<g id="graph0" class="graph" transform="scale(1 1) rotate(0) translate(4 188)">
<title>src/compiler/ast.cpp</title>
<!-- Node1 -->
<g id="Node000001" class="node">
<title>Node1</title>
<g id="a_Node000001"><a xlink:title=" ">
<polygon fill="#999999" stroke="#666666" points="541.72,-184 426.72,-184 426.72,-165 541.72,-165 541.72,-184"/>
<text text-anchor="middle" x="484.22" y="-172" font-family="Helvetica,sans-Serif" font-size="10.00">src/compiler/ast.cpp</text>
</a>
</g>
</g>
<!-- Node2 -->
<g id="Node000002" class="node">
<title>Node2</title>
<g id="a_Node000002"><a xlink:href="compiler_8hpp.html" target="_top" xlink:title=" ">
<polygon fill="white" stroke="#666666" points="409.22,-129 329.22,-129 329.22,-110 409.22,-110 409.22,-129"/>
<text text-anchor="middle" x="369.22" y="-117" font-family="Helvetica,sans-Serif" font-size="10.00">compiler.hpp</text>
</a>
</g>
</g>
<!-- Node1&#45;&gt;Node2 -->
<g id="edge1_Node000001_Node000002" class="edge">
<title>Node1&#45;&gt;Node2</title>
<g id="a_edge1_Node000001_Node000002"><a xlink:title=" ">
<path fill="none" stroke="#63b8ff" d="M465.75,-164.98C447.25,-156.46 418.54,-143.23 397.24,-133.41"/>
<polygon fill="#63b8ff" stroke="#63b8ff" points="398.58,-130.18 388.04,-129.17 395.65,-136.53 398.58,-130.18"/>
</a>
</g>
</g>
<!-- Node5 -->
<g id="Node000005" class="node">
<title>Node5</title>
<g id="a_Node000005"><a xlink:title=" ">
<polygon fill="#e0e0e0" stroke="#999999" points="246.72,-19 193.72,-19 193.72,0 246.72,0 246.72,-19"/>
<text text-anchor="middle" x="220.22" y="-7" font-family="Helvetica,sans-Serif" font-size="10.00">cstddef</text>
</a>
</g>
</g>
<!-- Node1&#45;&gt;Node5 -->
<g id="edge17_Node000001_Node000005" class="edge">
<title>Node1&#45;&gt;Node5</title>
<g id="a_edge17_Node000001_Node000005"><a xlink:title=" ">
<path fill="none" stroke="#63b8ff" d="M426.32,-170.2C311.42,-162.31 61.21,-138.01 9.22,-74 -38.13,-15.7 111.27,-9.47 183.47,-9.74"/>
<polygon fill="#63b8ff" stroke="#63b8ff" points="183.51,-13.24 193.53,-9.82 183.56,-6.24 183.51,-13.24"/>
</a>
</g>
</g>
<!-- Node7 -->
<g id="Node000007" class="node">
<title>Node7</title>
<g id="a_Node000007"><a xlink:title=" ">
<polygon fill="#e0e0e0" stroke="#999999" points="500.72,-19 453.72,-19 453.72,0 500.72,0 500.72,-19"/>
<text text-anchor="middle" x="477.22" y="-7" font-family="Helvetica,sans-Serif" font-size="10.00">vector</text>
</a>
</g>
</g>
<!-- Node1&#45;&gt;Node7 -->
<g id="edge19_Node000001_Node000007" class="edge">
<title>Node1&#45;&gt;Node7</title>
<g id="a_edge19_Node000001_Node000007"><a xlink:title=" ">
<path fill="none" stroke="#63b8ff" d="M500.95,-164.9C535.47,-145.97 609.09,-98.92 580.22,-55 564.94,-31.75 534.64,-20.59 510.84,-15.27"/>
<polygon fill="#63b8ff" stroke="#63b8ff" points="511.26,-11.78 500.77,-13.27 509.9,-18.65 511.26,-11.78"/>
</a>
</g>
</g>
<!-- Node12 -->
<g id="Node000012" class="node">
<title>Node12</title>
<g id="a_Node000012"><a xlink:title=" ">
<polygon fill="#e0e0e0" stroke="#999999" points="692.72,-129 627.72,-129 627.72,-110 692.72,-110 692.72,-129"/>
<text text-anchor="middle" x="660.22" y="-117" font-family="Helvetica,sans-Serif" font-size="10.00">stdexcept</text>
</a>
</g>
</g>
<!-- Node1&#45;&gt;Node12 -->
<g id="edge18_Node000001_Node000012" class="edge">
<title>Node1&#45;&gt;Node12</title>
<g id="a_edge18_Node000001_Node000012"><a xlink:title=" ">
<path fill="none" stroke="#63b8ff" d="M512.5,-164.98C542.18,-156.05 589.01,-141.94 621.97,-132.02"/>
<polygon fill="#63b8ff" stroke="#63b8ff" points="623.16,-135.32 631.72,-129.08 621.14,-128.61 623.16,-135.32"/>
</a>
</g>
</g>
<!-- Node3 -->
<g id="Node000003" class="node">
<title>Node3</title>
<g id="a_Node000003"><a xlink:href="bytecode_8hpp.html" target="_top" xlink:title=" ">
<polygon fill="white" stroke="#666666" points="410.72,-74 327.72,-74 327.72,-55 410.72,-55 410.72,-74"/>
<text text-anchor="middle" x="369.22" y="-62" font-family="Helvetica,sans-Serif" font-size="10.00">bytecode.hpp</text>
</a>
</g>
</g>
<!-- Node2&#45;&gt;Node3 -->
<g id="edge2_Node000002_Node000003" class="edge">
<title>Node2&#45;&gt;Node3</title>
<g id="a_edge2_Node000002_Node000003"><a xlink:title=" ">
<path fill="none" stroke="#63b8ff" d="M369.22,-109.75C369.22,-102.8 369.22,-92.85 369.22,-84.13"/>
<polygon fill="#63b8ff" stroke="#63b8ff" points="372.72,-84.09 369.22,-74.09 365.72,-84.09 372.72,-84.09"/>
</a>
</g>
</g>
<!-- Node4 -->
<g id="Node000004" class="node">
<title>Node4</title>
<g id="a_Node000004"><a xlink:title=" ">
<polygon fill="#e0e0e0" stroke="#999999" points="315.22,-19 265.22,-19 265.22,0 315.22,0 315.22,-19"/>
<text text-anchor="middle" x="290.22" y="-7" font-family="Helvetica,sans-Serif" font-size="10.00">cstdint</text>
</a>
</g>
</g>
<!-- Node2&#45;&gt;Node4 -->
<g id="edge11_Node000002_Node000004" class="edge">
<title>Node2&#45;&gt;Node4</title>
<g id="a_edge11_Node000002_Node000004"><a xlink:title=" ">
<path fill="none" stroke="#63b8ff" d="M329.13,-117.13C297.92,-113.7 256.45,-103.42 235.22,-74 222.2,-55.95 244.25,-36.85 264.19,-24.37"/>
<polygon fill="#63b8ff" stroke="#63b8ff" points="266.23,-27.23 273.07,-19.13 262.68,-21.2 266.23,-27.23"/>
</a>
</g>
</g>
<!-- Node6 -->
<g id="Node000006" class="node">
<title>Node6</title>
<g id="a_Node000006"><a xlink:title=" ">
<polygon fill="#e0e0e0" stroke="#999999" points="391.22,-19 347.22,-19 347.22,0 391.22,0 391.22,-19"/>
<text text-anchor="middle" x="369.22" y="-7" font-family="Helvetica,sans-Serif" font-size="10.00">string</text>
</a>
</g>
</g>
<!-- Node2&#45;&gt;Node6 -->
<g id="edge13_Node000002_Node000006" class="edge">
<title>Node2&#45;&gt;Node6</title>
<g id="a_edge13_Node000002_Node000006"><a xlink:title=" ">
<path fill="none" stroke="#63b8ff" d="M384.95,-109.88C397.1,-102.23 413.03,-89.83 420.22,-74 428.84,-55.04 410.65,-36.87 393.65,-24.86"/>
<polygon fill="#63b8ff" stroke="#63b8ff" points="395.3,-21.75 385.02,-19.17 391.45,-27.6 395.3,-21.75"/>
</a>
</g>
</g>
<!-- Node2&#45;&gt;Node7 -->
<g id="edge15_Node000002_Node000007" class="edge">
<title>Node2&#45;&gt;Node7</title>
<g id="a_edge15_Node000002_Node000007"><a xlink:title=" ">
<path fill="none" stroke="#63b8ff" d="M385.45,-109.98C399.67,-101.98 420.34,-89.02 435.22,-74 448.85,-60.25 460.63,-41.45 468.22,-27.88"/>
<polygon fill="#63b8ff" stroke="#63b8ff" points="471.3,-29.53 472.97,-19.07 465.14,-26.21 471.3,-29.53"/>
</a>
</g>
</g>
<!-- Node8 -->
<g id="Node000008" class="node">
<title>Node8</title>
<g id="a_Node000008"><a xlink:href="types_8hpp.html" target="_top" xlink:title=" ">
<polygon fill="white" stroke="#666666" points="309.72,-74 244.72,-74 244.72,-55 309.72,-55 309.72,-74"/>
<text text-anchor="middle" x="277.22" y="-62" font-family="Helvetica,sans-Serif" font-size="10.00">types.hpp</text>
</a>
</g>
</g>
<!-- Node2&#45;&gt;Node8 -->
<g id="edge7_Node000002_Node000008" class="edge">
<title>Node2&#45;&gt;Node8</title>
<g id="a_edge7_Node000002_Node000008"><a xlink:title=" ">
<path fill="none" stroke="#63b8ff" d="M354.44,-109.98C340.04,-101.69 317.91,-88.94 301.03,-79.22"/>
<polygon fill="#63b8ff" stroke="#63b8ff" points="302.69,-76.13 292.27,-74.17 299.19,-82.19 302.69,-76.13"/>
</a>
</g>
</g>
<!-- Node9 -->
<g id="Node000009" class="node">
<title>Node9</title>
<g id="a_Node000009"><a xlink:title=" ">
<polygon fill="#e0e0e0" stroke="#999999" points="570.72,-74 505.72,-74 505.72,-55 570.72,-55 570.72,-74"/>
<text text-anchor="middle" x="538.22" y="-62" font-family="Helvetica,sans-Serif" font-size="10.00">exception</text>
</a>
</g>
</g>
<!-- Node2&#45;&gt;Node9 -->
<g id="edge12_Node000002_Node000009" class="edge">
<title>Node2&#45;&gt;Node9</title>
<g id="a_edge12_Node000002_Node000009"><a xlink:title=" ">
<path fill="none" stroke="#63b8ff" d="M396.38,-109.98C424.75,-101.09 469.46,-87.07 501.08,-77.15"/>
<polygon fill="#63b8ff" stroke="#63b8ff" points="502.36,-80.41 510.86,-74.08 500.27,-73.73 502.36,-80.41"/>
</a>
</g>
</g>
<!-- Node10 -->
<g id="Node000010" class="node">
<title>Node10</title>
<g id="a_Node000010"><a xlink:title=" ">
<polygon fill="#e0e0e0" stroke="#999999" points="111.72,-74 18.72,-74 18.72,-55 111.72,-55 111.72,-74"/>
<text text-anchor="middle" x="65.22" y="-62" font-family="Helvetica,sans-Serif" font-size="10.00">unordered_map</text>
</a>
</g>
</g>
<!-- Node2&#45;&gt;Node10 -->
<g id="edge14_Node000002_Node000010" class="edge">
<title>Node2&#45;&gt;Node10</title>
<g id="a_edge14_Node000002_Node000010"><a xlink:title=" ">
<path fill="none" stroke="#63b8ff" d="M329.17,-111.52C276.13,-102.27 182.28,-85.91 121.96,-75.39"/>
<polygon fill="#63b8ff" stroke="#63b8ff" points="122.3,-71.9 111.85,-73.63 121.1,-78.79 122.3,-71.9"/>
</a>
</g>
</g>
<!-- Node11 -->
<g id="Node000011" class="node">
<title>Node11</title>
<g id="a_Node000011"><a xlink:title=" ">
<polygon fill="#e0e0e0" stroke="#999999" points="188.22,-74 130.22,-74 130.22,-55 188.22,-55 188.22,-74"/>
<text text-anchor="middle" x="159.22" y="-62" font-family="Helvetica,sans-Serif" font-size="10.00">memory</text>
</a>
</g>
</g>
<!-- Node2&#45;&gt;Node11 -->
<g id="edge16_Node000002_Node000011" class="edge">
<title>Node2&#45;&gt;Node11</title>
<g id="a_edge16_Node000002_Node000011"><a xlink:title=" ">
<path fill="none" stroke="#63b8ff" d="M335.48,-109.98C298.05,-100.54 237.73,-85.31 198.28,-75.36"/>
<polygon fill="#63b8ff" stroke="#63b8ff" points="199.03,-71.94 188.48,-72.88 197.32,-78.72 199.03,-71.94"/>
</a>
</g>
</g>
<!-- Node3&#45;&gt;Node4 -->
<g id="edge3_Node000003_Node000004" class="edge">
<title>Node3&#45;&gt;Node4</title>
<g id="a_edge3_Node000003_Node000004"><a xlink:title=" ">
<path fill="none" stroke="#63b8ff" d="M356.53,-54.98C344.39,-46.84 325.87,-34.41 311.48,-24.76"/>
<polygon fill="#63b8ff" stroke="#63b8ff" points="313.4,-21.84 303.15,-19.17 309.5,-27.65 313.4,-21.84"/>
</a>
</g>
</g>
<!-- Node3&#45;&gt;Node5 -->
<g id="edge4_Node000003_Node000005" class="edge">
<title>Node3&#45;&gt;Node5</title>
<g id="a_edge4_Node000003_Node000005"><a xlink:title=" ">
<path fill="none" stroke="#63b8ff" d="M345.28,-54.98C320.67,-46.23 282.1,-32.51 254.31,-22.62"/>
<polygon fill="#63b8ff" stroke="#63b8ff" points="255.19,-19.22 244.6,-19.17 252.85,-25.82 255.19,-19.22"/>
</a>
</g>
</g>
<!-- Node3&#45;&gt;Node6 -->
<g id="edge5_Node000003_Node000006" class="edge">
<title>Node3&#45;&gt;Node6</title>
<g id="a_edge5_Node000003_Node000006"><a xlink:title=" ">
<path fill="none" stroke="#63b8ff" d="M369.22,-54.75C369.22,-47.8 369.22,-37.85 369.22,-29.13"/>
<polygon fill="#63b8ff" stroke="#63b8ff" points="372.72,-29.09 369.22,-19.09 365.72,-29.09 372.72,-29.09"/>
</a>
</g>
</g>
<!-- Node3&#45;&gt;Node7 -->
<g id="edge6_Node000003_Node000007" class="edge">
<title>Node3&#45;&gt;Node7</title>
<g id="a_edge6_Node000003_Node000007"><a xlink:title=" ">
<path fill="none" stroke="#63b8ff" d="M386.58,-54.98C403.79,-46.54 430.42,-33.47 450.37,-23.68"/>
<polygon fill="#63b8ff" stroke="#63b8ff" points="452.12,-26.72 459.56,-19.17 449.04,-20.43 452.12,-26.72"/>
</a>
</g>
</g>
<!-- Node8&#45;&gt;Node4 -->
<g id="edge9_Node000008_Node000004" class="edge">
<title>Node8&#45;&gt;Node4</title>
<g id="a_edge9_Node000008_Node000004"><a xlink:title=" ">
<path fill="none" stroke="#63b8ff" d="M279.37,-54.75C281.09,-47.72 283.57,-37.62 285.72,-28.84"/>
<polygon fill="#63b8ff" stroke="#63b8ff" points="289.13,-29.63 288.12,-19.09 282.33,-27.97 289.13,-29.63"/>
</a>
</g>
</g>
<!-- Node8&#45;&gt;Node5 -->
<g id="edge8_Node000008_Node000005" class="edge">
<title>Node8&#45;&gt;Node5</title>
<g id="a_edge8_Node000008_Node000005"><a xlink:title=" ">
<path fill="none" stroke="#63b8ff" d="M268.07,-54.98C259.72,-47.23 247.19,-35.58 237.05,-26.14"/>
<polygon fill="#63b8ff" stroke="#63b8ff" points="239.25,-23.42 229.55,-19.17 234.49,-28.54 239.25,-23.42"/>
</a>
</g>
</g>
<!-- Node8&#45;&gt;Node6 -->
<g id="edge10_Node000008_Node000006" class="edge">
<title>Node8&#45;&gt;Node6</title>
<g id="a_edge10_Node000008_Node000006"><a xlink:title=" ">
<path fill="none" stroke="#63b8ff" d="M292,-54.98C306.4,-46.69 328.53,-33.94 345.42,-24.22"/>
<polygon fill="#63b8ff" stroke="#63b8ff" points="347.25,-27.19 354.17,-19.17 343.76,-21.13 347.25,-27.19"/>
</a>
</g>
</g>
</g>
</svg>
