<?xml version="1.0" encoding="UTF-8" standalone="no"?>
<!DOCTYPE svg PUBLIC "-//W3C//DTD SVG 1.1//EN"
 "http://www.w3.org/Graphics/SVG/1.1/DTD/svg11.dtd">
<!-- Generated by graphviz version 2.43.0 (0)
 -->
<!-- Title: main Pages: 1 -->
<svg width="213pt" height="175pt"
 viewBox="0.00 0.00 213.00 175.00" xmlns="http://www.w3.org/2000/svg" xmlns:xlink="http://www.w3.org/1999/xlink">
<g id="graph0" class="graph" transform="scale(1 1) rotate(0) translate(4 171)">
<title>main</title>
<!-- Node1 -->
<g id="Node000001" class="node">
<title>Node1</title>
<g id="a_Node000001"><a xlink:title=" ">
<polygon fill="#999999" stroke="#666666" points="41,-93 0,-93 0,-74 41,-74 41,-93"/>
<text text-anchor="middle" x="20.5" y="-81" font-family="Helvetica,sans-Serif" font-size="10.00">main</text>
</a>
</g>
</g>
<!-- Node2 -->
<g id="Node000002" class="node">
<title>Node2</title>
<g id="a_Node000002"><a xlink:href="bcdisasm_2main_8cpp.html#a1b82642e06574e497acb28e77af64c0f" target="_top" xlink:title=" ">
<polygon fill="white" stroke="#666666" points="178.5,-167 103.5,-167 103.5,-148 178.5,-148 178.5,-167"/>
<text text-anchor="middle" x="141" y="-155" font-family="Helvetica,sans-Serif" font-size="10.00">fmtOperand</text>
</a>
</g>
</g>
<!-- Node1&#45;&gt;Node2 -->
<g id="edge1_Node000001_Node000002" class="edge">
<title>Node1&#45;&gt;Node2</title>
<g id="a_edge1_Node000001_Node000002"><a xlink:title=" ">
<path fill="none" stroke="#63b8ff" d="M28.63,-93.32C38.23,-105.86 56.5,-127.38 77,-139.5 82.14,-142.54 87.83,-145.09 93.62,-147.23"/>
<polygon fill="#63b8ff" stroke="#63b8ff" points="92.78,-150.64 103.38,-150.44 94.97,-143.99 92.78,-150.64"/>
</a>
</g>
</g>
<!-- Node3 -->
<g id="Node000003" class="node">
<title>Node3</title>
<g id="a_Node000003"><a xlink:href="namespaceULang.html#aa07d7c0abda4bbb418a54f150da027c5" target="_top" xlink:title=" ">
<polygon fill="white" stroke="#666666" points="197.5,-130 84.5,-130 84.5,-111 197.5,-111 197.5,-130"/>
<text text-anchor="middle" x="141" y="-118" font-family="Helvetica,sans-Serif" font-size="10.00">ULang::opcodeToStr</text>
</a>
</g>
</g>
<!-- Node1&#45;&gt;Node3 -->
<g id="edge2_Node000001_Node000003" class="edge">
<title>Node1&#45;&gt;Node3</title>
<g id="a_edge2_Node000001_Node000003"><a xlink:title=" ">
<path fill="none" stroke="#63b8ff" d="M41.2,-90.52C51.77,-94.22 65.05,-98.75 77,-102.5 82.98,-104.38 89.31,-106.28 95.56,-108.11"/>
<polygon fill="#63b8ff" stroke="#63b8ff" points="94.67,-111.5 105.24,-110.92 96.61,-104.77 94.67,-111.5"/>
</a>
</g>
</g>
<!-- Node4 -->
<g id="Node000004" class="node">
<title>Node4</title>
<g id="a_Node000004"><a xlink:href="bcdisasm_2main_8cpp.html#a3bca66dd76f96107fb042878f9f3c901" target="_top" xlink:title=" ">
<polygon fill="white" stroke="#666666" points="186,-93 96,-93 96,-74 186,-74 186,-93"/>
<text text-anchor="middle" x="141" y="-81" font-family="Helvetica,sans-Serif" font-size="10.00">readInstruction</text>
</a>
</g>
</g>
<!-- Node1&#45;&gt;Node4 -->
<g id="edge3_Node000001_Node000004" class="edge">
<title>Node1&#45;&gt;Node4</title>
<g id="a_edge3_Node000001_Node000004"><a xlink:title=" ">
<path fill="none" stroke="#63b8ff" d="M41.07,-83.5C53.25,-83.5 69.59,-83.5 85.47,-83.5"/>
<polygon fill="#63b8ff" stroke="#63b8ff" points="85.79,-87 95.79,-83.5 85.79,-80 85.79,-87"/>
</a>
</g>
</g>
<!-- Node5 -->
<g id="Node000005" class="node">
<title>Node5</title>
<g id="a_Node000005"><a xlink:href="bcdisasm_2main_8cpp.html#a507c8c05f61ea244c3c527caf4ca6f06" target="_top" xlink:title=" ">
<polygon fill="white" stroke="#666666" points="172.5,-56 109.5,-56 109.5,-37 172.5,-37 172.5,-56"/>
<text text-anchor="middle" x="141" y="-44" font-family="Helvetica,sans-Serif" font-size="10.00">readMeta</text>
</a>
</g>
</g>
<!-- Node1&#45;&gt;Node5 -->
<g id="edge4_Node000001_Node000005" class="edge">
<title>Node1&#45;&gt;Node5</title>
<g id="a_edge4_Node000001_Node000005"><a xlink:title=" ">
<path fill="none" stroke="#63b8ff" d="M41.25,-76.99C51.83,-73.52 65.11,-69.22 77,-65.5 84.28,-63.22 92.04,-60.84 99.55,-58.56"/>
<polygon fill="#63b8ff" stroke="#63b8ff" points="100.64,-61.89 109.2,-55.65 98.61,-55.19 100.64,-61.89"/>
</a>
</g>
</g>
<!-- Node6 -->
<g id="Node000006" class="node">
<title>Node6</title>
<g id="a_Node000006"><a xlink:href="namespaceULang.html#ad491776cf7acfb29eec3e69cec0d6bd8" target="_top" xlink:title="Validate the bytecode header.">
<polygon fill="white" stroke="#666666" points="205,-19 77,-19 77,0 205,0 205,-19"/>
<text text-anchor="middle" x="141" y="-7" font-family="Helvetica,sans-Serif" font-size="10.00">ULang::validateHeader</text>
</a>
</g>
</g>
<!-- Node1&#45;&gt;Node6 -->
<g id="edge5_Node000001_Node000006" class="edge">
<title>Node1&#45;&gt;Node6</title>
<g id="a_edge5_Node000001_Node000006"><a xlink:title=" ">
<path fill="none" stroke="#63b8ff" d="M28.69,-73.9C38.37,-61.64 56.72,-40.57 77,-28.5 80.59,-26.36 84.44,-24.45 88.4,-22.74"/>
<polygon fill="#63b8ff" stroke="#63b8ff" points="89.72,-25.98 97.78,-19.1 87.19,-19.45 89.72,-25.98"/>
</a>
</g>
</g>
</g>
</svg>
