<?xml version="1.0" encoding="UTF-8" standalone="no"?>
<!DOCTYPE svg PUBLIC "-//W3C//DTD SVG 1.1//EN"
 "http://www.w3.org/Graphics/SVG/1.1/DTD/svg11.dtd">
<!-- Generated by graphviz version 2.43.0 (0)
 -->
<!-- Title: src/bcdump/main.cpp Pages: 1 -->
<svg width="681pt" height="137pt"
 viewBox="0.00 0.00 681.00 137.00" xmlns="http://www.w3.org/2000/svg" xmlns:xlink="http://www.w3.org/1999/xlink">
<g id="graph0" class="graph" transform="scale(1 1) rotate(0) translate(4 133)">
<title>src/bcdump/main.cpp</title>
<!-- Node1 -->
<g id="Node000001" class="node">
<title>Node1</title>
<g id="a_Node000001"><a xlink:title=" ">
<polygon fill="#999999" stroke="#666666" points="385.5,-129 264.5,-129 264.5,-110 385.5,-110 385.5,-129"/>
<text text-anchor="middle" x="325" y="-117" font-family="Helvetica,sans-Serif" font-size="10.00">src/bcdump/main.cpp</text>
</a>
</g>
</g>
<!-- Node2 -->
<g id="Node000002" class="node">
<title>Node2</title>
<g id="a_Node000002"><a xlink:href="bytecode_8hpp.html" target="_top" xlink:title=" ">
<polygon fill="white" stroke="#666666" points="202.5,-74 119.5,-74 119.5,-55 202.5,-55 202.5,-74"/>
<text text-anchor="middle" x="161" y="-62" font-family="Helvetica,sans-Serif" font-size="10.00">bytecode.hpp</text>
</a>
</g>
</g>
<!-- Node1&#45;&gt;Node2 -->
<g id="edge1_Node000001_Node000002" class="edge">
<title>Node1&#45;&gt;Node2</title>
<g id="a_edge1_Node000001_Node000002"><a xlink:title=" ">
<path fill="none" stroke="#63b8ff" d="M298.65,-109.98C271.24,-101.13 228.11,-87.19 197.44,-77.28"/>
<polygon fill="#63b8ff" stroke="#63b8ff" points="198.15,-73.83 187.56,-74.08 196,-80.49 198.15,-73.83"/>
</a>
</g>
</g>
<!-- Node5 -->
<g id="Node000005" class="node">
<title>Node5</title>
<g id="a_Node000005"><a xlink:title=" ">
<polygon fill="#e0e0e0" stroke="#999999" points="244,-19 200,-19 200,0 244,0 244,-19"/>
<text text-anchor="middle" x="222" y="-7" font-family="Helvetica,sans-Serif" font-size="10.00">string</text>
</a>
</g>
</g>
<!-- Node1&#45;&gt;Node5 -->
<g id="edge11_Node000001_Node000005" class="edge">
<title>Node1&#45;&gt;Node5</title>
<g id="a_edge11_Node000001_Node000005"><a xlink:title=" ">
<path fill="none" stroke="#63b8ff" d="M315.9,-109.77C306.71,-100.89 292.18,-86.67 280,-74 264.89,-58.28 248.15,-39.84 236.55,-26.89"/>
<polygon fill="#63b8ff" stroke="#63b8ff" points="239.01,-24.39 229.74,-19.26 233.79,-29.05 239.01,-24.39"/>
</a>
</g>
</g>
<!-- Node6 -->
<g id="Node000006" class="node">
<title>Node6</title>
<g id="a_Node000006"><a xlink:title=" ">
<polygon fill="#e0e0e0" stroke="#999999" points="309.5,-19 262.5,-19 262.5,0 309.5,0 309.5,-19"/>
<text text-anchor="middle" x="286" y="-7" font-family="Helvetica,sans-Serif" font-size="10.00">vector</text>
</a>
</g>
</g>
<!-- Node1&#45;&gt;Node6 -->
<g id="edge10_Node000001_Node000006" class="edge">
<title>Node1&#45;&gt;Node6</title>
<g id="a_edge10_Node000001_Node000006"><a xlink:title=" ">
<path fill="none" stroke="#63b8ff" d="M315,-109.75C306.37,-101.5 294.44,-88.3 289,-74 283.53,-59.64 283.13,-42.12 283.89,-29.12"/>
<polygon fill="#63b8ff" stroke="#63b8ff" points="287.39,-29.32 284.77,-19.06 280.41,-28.72 287.39,-29.32"/>
</a>
</g>
</g>
<!-- Node8 -->
<g id="Node000008" class="node">
<title>Node8</title>
<g id="a_Node000008"><a xlink:title=" ">
<polygon fill="#e0e0e0" stroke="#999999" points="352.5,-74 297.5,-74 297.5,-55 352.5,-55 352.5,-74"/>
<text text-anchor="middle" x="325" y="-62" font-family="Helvetica,sans-Serif" font-size="10.00">fstream</text>
</a>
</g>
</g>
<!-- Node1&#45;&gt;Node8 -->
<g id="edge7_Node000001_Node000008" class="edge">
<title>Node1&#45;&gt;Node8</title>
<g id="a_edge7_Node000001_Node000008"><a xlink:title=" ">
<path fill="none" stroke="#63b8ff" d="M325,-109.75C325,-102.8 325,-92.85 325,-84.13"/>
<polygon fill="#63b8ff" stroke="#63b8ff" points="328.5,-84.09 325,-74.09 321.5,-84.09 328.5,-84.09"/>
</a>
</g>
</g>
<!-- Node9 -->
<g id="Node000009" class="node">
<title>Node9</title>
<g id="a_Node000009"><a xlink:title=" ">
<polygon fill="#e0e0e0" stroke="#999999" points="431,-74 371,-74 371,-55 431,-55 431,-74"/>
<text text-anchor="middle" x="401" y="-62" font-family="Helvetica,sans-Serif" font-size="10.00">iostream</text>
</a>
</g>
</g>
<!-- Node1&#45;&gt;Node9 -->
<g id="edge8_Node000001_Node000009" class="edge">
<title>Node1&#45;&gt;Node9</title>
<g id="a_edge8_Node000001_Node000009"><a xlink:title=" ">
<path fill="none" stroke="#63b8ff" d="M337.21,-109.98C348.78,-101.92 366.38,-89.65 380.16,-80.03"/>
<polygon fill="#63b8ff" stroke="#63b8ff" points="382.37,-82.76 388.57,-74.17 378.36,-77.02 382.37,-82.76"/>
</a>
</g>
</g>
<!-- Node10 -->
<g id="Node000010" class="node">
<title>Node10</title>
<g id="a_Node000010"><a xlink:title=" ">
<polygon fill="#e0e0e0" stroke="#999999" points="505,-74 449,-74 449,-55 505,-55 505,-74"/>
<text text-anchor="middle" x="477" y="-62" font-family="Helvetica,sans-Serif" font-size="10.00">iomanip</text>
</a>
</g>
</g>
<!-- Node1&#45;&gt;Node10 -->
<g id="edge9_Node000001_Node000010" class="edge">
<title>Node1&#45;&gt;Node10</title>
<g id="a_edge9_Node000001_Node000010"><a xlink:title=" ">
<path fill="none" stroke="#63b8ff" d="M349.42,-109.98C374.72,-101.16 414.45,-87.31 442.86,-77.41"/>
<polygon fill="#63b8ff" stroke="#63b8ff" points="444.1,-80.68 452.39,-74.08 441.79,-74.07 444.1,-80.68"/>
</a>
</g>
</g>
<!-- Node11 -->
<g id="Node000011" class="node">
<title>Node11</title>
<g id="a_Node000011"><a xlink:title=" ">
<polygon fill="#e0e0e0" stroke="#999999" points="673,-74 523,-74 523,-55 673,-55 673,-74"/>
<text text-anchor="middle" x="598" y="-62" font-family="Helvetica,sans-Serif" font-size="10.00">boost/program_options.hpp</text>
</a>
</g>
</g>
<!-- Node1&#45;&gt;Node11 -->
<g id="edge12_Node000001_Node000011" class="edge">
<title>Node1&#45;&gt;Node11</title>
<g id="a_edge12_Node000001_Node000011"><a xlink:title=" ">
<path fill="none" stroke="#63b8ff" d="M368.86,-109.98C416.48,-100.74 492.58,-85.97 543.88,-76.01"/>
<polygon fill="#63b8ff" stroke="#63b8ff" points="544.64,-79.42 553.79,-74.08 543.31,-72.55 544.64,-79.42"/>
</a>
</g>
</g>
<!-- Node3 -->
<g id="Node000003" class="node">
<title>Node3</title>
<g id="a_Node000003"><a xlink:title=" ">
<polygon fill="#e0e0e0" stroke="#999999" points="50,-19 0,-19 0,0 50,0 50,-19"/>
<text text-anchor="middle" x="25" y="-7" font-family="Helvetica,sans-Serif" font-size="10.00">cstdint</text>
</a>
</g>
</g>
<!-- Node2&#45;&gt;Node3 -->
<g id="edge2_Node000002_Node000003" class="edge">
<title>Node2&#45;&gt;Node3</title>
<g id="a_edge2_Node000002_Node000003"><a xlink:title=" ">
<path fill="none" stroke="#63b8ff" d="M139.15,-54.98C116.88,-46.3 82.1,-32.75 56.78,-22.88"/>
<polygon fill="#63b8ff" stroke="#63b8ff" points="57.84,-19.54 47.25,-19.17 55.29,-26.06 57.84,-19.54"/>
</a>
</g>
</g>
<!-- Node4 -->
<g id="Node000004" class="node">
<title>Node4</title>
<g id="a_Node000004"><a xlink:title=" ">
<polygon fill="#e0e0e0" stroke="#999999" points="121.5,-19 68.5,-19 68.5,0 121.5,0 121.5,-19"/>
<text text-anchor="middle" x="95" y="-7" font-family="Helvetica,sans-Serif" font-size="10.00">cstddef</text>
</a>
</g>
</g>
<!-- Node2&#45;&gt;Node4 -->
<g id="edge3_Node000002_Node000004" class="edge">
<title>Node2&#45;&gt;Node4</title>
<g id="a_edge3_Node000002_Node000004"><a xlink:title=" ">
<path fill="none" stroke="#63b8ff" d="M150.4,-54.98C140.54,-47.07 125.65,-35.11 113.78,-25.58"/>
<polygon fill="#63b8ff" stroke="#63b8ff" points="115.79,-22.7 105.8,-19.17 111.4,-28.16 115.79,-22.7"/>
</a>
</g>
</g>
<!-- Node2&#45;&gt;Node5 -->
<g id="edge4_Node000002_Node000005" class="edge">
<title>Node2&#45;&gt;Node5</title>
<g id="a_edge4_Node000002_Node000005"><a xlink:title=" ">
<path fill="none" stroke="#63b8ff" d="M170.8,-54.98C179.82,-47.15 193.41,-35.34 204.32,-25.86"/>
<polygon fill="#63b8ff" stroke="#63b8ff" points="206.77,-28.37 212.02,-19.17 202.18,-23.09 206.77,-28.37"/>
</a>
</g>
</g>
<!-- Node2&#45;&gt;Node6 -->
<g id="edge5_Node000002_Node000006" class="edge">
<title>Node2&#45;&gt;Node6</title>
<g id="a_edge5_Node000002_Node000006"><a xlink:title=" ">
<path fill="none" stroke="#63b8ff" d="M181.08,-54.98C201.37,-46.38 232.96,-32.99 256.17,-23.15"/>
<polygon fill="#63b8ff" stroke="#63b8ff" points="257.71,-26.3 265.55,-19.17 254.98,-19.85 257.71,-26.3"/>
</a>
</g>
</g>
<!-- Node7 -->
<g id="Node000007" class="node">
<title>Node7</title>
<g id="a_Node000007"><a xlink:title=" ">
<polygon fill="#e0e0e0" stroke="#999999" points="182,-19 140,-19 140,0 182,0 182,-19"/>
<text text-anchor="middle" x="161" y="-7" font-family="Helvetica,sans-Serif" font-size="10.00">array</text>
</a>
</g>
</g>
<!-- Node2&#45;&gt;Node7 -->
<g id="edge6_Node000002_Node000007" class="edge">
<title>Node2&#45;&gt;Node7</title>
<g id="a_edge6_Node000002_Node000007"><a xlink:title=" ">
<path fill="none" stroke="#63b8ff" d="M161,-54.75C161,-47.8 161,-37.85 161,-29.13"/>
<polygon fill="#63b8ff" stroke="#63b8ff" points="164.5,-29.09 161,-19.09 157.5,-29.09 164.5,-29.09"/>
</a>
</g>
</g>
</g>
</svg>
