<?xml version="1.0" encoding="UTF-8" standalone="no"?>
<!DOCTYPE svg PUBLIC "-//W3C//DTD SVG 1.1//EN"
 "http://www.w3.org/Graphics/SVG/1.1/DTD/svg11.dtd">
<!-- Generated by graphviz version 2.43.0 (0)
 -->
<!-- Title: src/common/bytecode.hpp Pages: 1 -->
<svg width="2023pt" height="159pt"
 viewBox="0.00 0.00 2023.00 159.00" xmlns="http://www.w3.org/2000/svg" xmlns:xlink="http://www.w3.org/1999/xlink">
<g id="graph0" class="graph" transform="scale(1 1) rotate(0) translate(4 155)">
<title>src/common/bytecode.hpp</title>
<!-- Node1 -->
<g id="Node000001" class="node">
<title>Node1</title>
<g id="a_Node000001"><a xlink:title=" ">
<polygon fill="#999999" stroke="#666666" points="891.5,-151 745.5,-151 745.5,-132 891.5,-132 891.5,-151"/>
<text text-anchor="middle" x="818.5" y="-139" font-family="Helvetica,sans-Serif" font-size="10.00">src/common/bytecode.hpp</text>
</a>
</g>
</g>
<!-- Node2 -->
<g id="Node000002" class="node">
<title>Node2</title>
<g id="a_Node000002"><a xlink:href="bcdisasm_2main_8cpp.html" target="_top" xlink:title=" ">
<polygon fill="white" stroke="#666666" points="287.5,-90.5 159.5,-90.5 159.5,-71.5 287.5,-71.5 287.5,-90.5"/>
<text text-anchor="middle" x="223.5" y="-78.5" font-family="Helvetica,sans-Serif" font-size="10.00">src/bcdisasm/main.cpp</text>
</a>
</g>
</g>
<!-- Node1&#45;&gt;Node2 -->
<g id="edge1_Node000001_Node000002" class="edge">
<title>Node1&#45;&gt;Node2</title>
<g id="a_edge1_Node000001_Node000002"><a xlink:title=" ">
<path fill="none" stroke="#63b8ff" d="M735.13,-136.08C631.83,-130 450.62,-117.29 296.5,-96 285.89,-94.53 274.49,-92.55 263.92,-90.53"/>
<polygon fill="#63b8ff" stroke="#63b8ff" points="734.99,-139.58 745.18,-136.67 735.4,-132.59 734.99,-139.58"/>
</a>
</g>
</g>
<!-- Node3 -->
<g id="Node000003" class="node">
<title>Node3</title>
<g id="a_Node000003"><a xlink:href="bcdump_2main_8cpp.html" target="_top" xlink:title=" ">
<polygon fill="white" stroke="#666666" points="427,-90.5 306,-90.5 306,-71.5 427,-71.5 427,-90.5"/>
<text text-anchor="middle" x="366.5" y="-78.5" font-family="Helvetica,sans-Serif" font-size="10.00">src/bcdump/main.cpp</text>
</a>
</g>
</g>
<!-- Node1&#45;&gt;Node3 -->
<g id="edge2_Node000001_Node000003" class="edge">
<title>Node1&#45;&gt;Node3</title>
<g id="a_edge2_Node000001_Node000003"><a xlink:title=" ">
<path fill="none" stroke="#63b8ff" d="M734.96,-132.85C657.18,-125.24 538.15,-112.35 435.5,-96 425.84,-94.46 415.48,-92.52 405.8,-90.57"/>
<polygon fill="#63b8ff" stroke="#63b8ff" points="734.89,-136.36 745.18,-133.84 735.57,-129.39 734.89,-136.36"/>
</a>
</g>
</g>
<!-- Node4 -->
<g id="Node000004" class="node">
<title>Node4</title>
<g id="a_Node000004"><a xlink:href="common_2bytecode_8cpp.html" target="_top" xlink:title=" ">
<polygon fill="white" stroke="#666666" points="590,-90.5 445,-90.5 445,-71.5 590,-71.5 590,-90.5"/>
<text text-anchor="middle" x="517.5" y="-78.5" font-family="Helvetica,sans-Serif" font-size="10.00">src/common/bytecode.cpp</text>
</a>
</g>
</g>
<!-- Node1&#45;&gt;Node4 -->
<g id="edge3_Node000001_Node000004" class="edge">
<title>Node1&#45;&gt;Node4</title>
<g id="a_edge3_Node000001_Node000004"><a xlink:title=" ">
<path fill="none" stroke="#63b8ff" d="M764.64,-130.03C706.56,-118.74 615.18,-100.98 561.32,-90.52"/>
<polygon fill="#63b8ff" stroke="#63b8ff" points="764.25,-133.52 774.73,-131.99 765.58,-126.65 764.25,-133.52"/>
</a>
</g>
</g>
<!-- Node5 -->
<g id="Node000005" class="node">
<title>Node5</title>
<g id="a_Node000005"><a xlink:href="bytecode__stream_8cpp.html" target="_top" xlink:title=" ">
<polygon fill="white" stroke="#666666" points="733,-96 608,-96 608,-66 733,-66 733,-96"/>
<text text-anchor="start" x="616" y="-84" font-family="Helvetica,sans-Serif" font-size="10.00">src/common/bytecode</text>
<text text-anchor="middle" x="670.5" y="-73" font-family="Helvetica,sans-Serif" font-size="10.00">_stream.cpp</text>
</a>
</g>
</g>
<!-- Node1&#45;&gt;Node5 -->
<g id="edge4_Node000001_Node000005" class="edge">
<title>Node1&#45;&gt;Node5</title>
<g id="a_edge4_Node000001_Node000005"><a xlink:title=" ">
<path fill="none" stroke="#63b8ff" d="M787.4,-128.21C763.64,-118.82 730.88,-105.87 706.08,-96.06"/>
<polygon fill="#63b8ff" stroke="#63b8ff" points="786.39,-131.57 796.98,-131.99 788.97,-125.06 786.39,-131.57"/>
</a>
</g>
</g>
<!-- Node6 -->
<g id="Node000006" class="node">
<title>Node6</title>
<g id="a_Node000006"><a xlink:href="compiler_2bytecode_8cpp.html" target="_top" xlink:title=" ">
<polygon fill="white" stroke="#666666" points="145,-24.5 0,-24.5 0,-5.5 145,-5.5 145,-24.5"/>
<text text-anchor="middle" x="72.5" y="-12.5" font-family="Helvetica,sans-Serif" font-size="10.00">src/compiler/bytecode.cpp</text>
</a>
</g>
</g>
<!-- Node1&#45;&gt;Node6 -->
<g id="edge5_Node000001_Node000006" class="edge">
<title>Node1&#45;&gt;Node6</title>
<g id="a_edge5_Node000001_Node000006"><a xlink:title=" ">
<path fill="none" stroke="#63b8ff" d="M803.3,-124.66C783.09,-103.8 749.05,-69.33 741.5,-66 621.7,-13.22 283.53,-45.17 153.5,-30 141.45,-28.59 128.47,-26.58 116.51,-24.51"/>
<polygon fill="#63b8ff" stroke="#63b8ff" points="800.82,-127.14 810.28,-131.9 805.86,-122.28 800.82,-127.14"/>
</a>
</g>
</g>
<!-- Node7 -->
<g id="Node000007" class="node">
<title>Node7</title>
<g id="a_Node000007"><a xlink:href="compile_8cpp.html" target="_top" xlink:title=" ">
<polygon fill="white" stroke="#666666" points="302,-24.5 163,-24.5 163,-5.5 302,-5.5 302,-24.5"/>
<text text-anchor="middle" x="232.5" y="-12.5" font-family="Helvetica,sans-Serif" font-size="10.00">src/compiler/compile.cpp</text>
</a>
</g>
</g>
<!-- Node1&#45;&gt;Node7 -->
<g id="edge6_Node000001_Node000007" class="edge">
<title>Node1&#45;&gt;Node7</title>
<g id="a_edge6_Node000001_Node000007"><a xlink:title=" ">
<path fill="none" stroke="#63b8ff" d="M813.31,-121.97C807.31,-104.33 795.59,-78.66 775.5,-66 688.01,-10.86 414.1,-43.04 311.5,-30 300.03,-28.54 287.69,-26.56 276.26,-24.54"/>
<polygon fill="#63b8ff" stroke="#63b8ff" points="810.03,-123.21 816.33,-131.73 816.72,-121.14 810.03,-123.21"/>
</a>
</g>
</g>
<!-- Node8 -->
<g id="Node000008" class="node">
<title>Node8</title>
<g id="a_Node000008"><a xlink:href="compiler_8cpp.html" target="_top" xlink:title=" ">
<polygon fill="white" stroke="#666666" points="462.5,-24.5 320.5,-24.5 320.5,-5.5 462.5,-5.5 462.5,-24.5"/>
<text text-anchor="middle" x="391.5" y="-12.5" font-family="Helvetica,sans-Serif" font-size="10.00">src/compiler/compiler.cpp</text>
</a>
</g>
</g>
<!-- Node1&#45;&gt;Node8 -->
<g id="edge7_Node000001_Node000008" class="edge">
<title>Node1&#45;&gt;Node8</title>
<g id="a_edge7_Node000001_Node000008"><a xlink:title=" ">
<path fill="none" stroke="#63b8ff" d="M823.24,-121.9C826.32,-105 827.51,-80.55 813.5,-66 760.5,-10.95 547.18,-40.59 471.5,-30 460.33,-28.44 448.33,-26.48 437.11,-24.54"/>
<polygon fill="#63b8ff" stroke="#63b8ff" points="819.8,-121.22 821.08,-131.74 826.64,-122.72 819.8,-121.22"/>
</a>
</g>
</g>
<!-- Node9 -->
<g id="Node000009" class="node">
<title>Node9</title>
<g id="a_Node000009"><a xlink:href="compiler_8hpp.html" target="_top" xlink:title=" ">
<polygon fill="white" stroke="#666666" points="1009,-90.5 866,-90.5 866,-71.5 1009,-71.5 1009,-90.5"/>
<text text-anchor="middle" x="937.5" y="-78.5" font-family="Helvetica,sans-Serif" font-size="10.00">src/compiler/compiler.hpp</text>
</a>
</g>
</g>
<!-- Node1&#45;&gt;Node9 -->
<g id="edge8_Node000001_Node000009" class="edge">
<title>Node1&#45;&gt;Node9</title>
<g id="a_edge8_Node000001_Node000009"><a xlink:title=" ">
<path fill="none" stroke="#63b8ff" d="M844.98,-127.48C867.91,-116.21 900.43,-100.23 920.18,-90.52"/>
<polygon fill="#63b8ff" stroke="#63b8ff" points="843.23,-124.44 835.8,-131.99 846.32,-130.72 843.23,-124.44"/>
</a>
</g>
</g>
<!-- Node13 -->
<g id="Node000013" class="node">
<title>Node13</title>
<g id="a_Node000013"><a xlink:href="instruction_8cpp.html" target="_top" xlink:title=" ">
<polygon fill="white" stroke="#666666" points="1676.5,-24.5 1524.5,-24.5 1524.5,-5.5 1676.5,-5.5 1676.5,-24.5"/>
<text text-anchor="middle" x="1600.5" y="-12.5" font-family="Helvetica,sans-Serif" font-size="10.00">src/compiler/instruction.cpp</text>
</a>
</g>
</g>
<!-- Node1&#45;&gt;Node13 -->
<g id="edge20_Node000001_Node000013" class="edge">
<title>Node1&#45;&gt;Node13</title>
<g id="a_edge20_Node000001_Node000013"><a xlink:title=" ">
<path fill="none" stroke="#63b8ff" d="M883.2,-130.37C1006.34,-111.08 1282.86,-67.6 1515.5,-30 1526.28,-28.26 1537.82,-26.37 1548.82,-24.56"/>
<polygon fill="#63b8ff" stroke="#63b8ff" points="882.53,-126.94 873.19,-131.94 883.61,-133.85 882.53,-126.94"/>
</a>
</g>
</g>
<!-- Node18 -->
<g id="Node000018" class="node">
<title>Node18</title>
<g id="a_Node000018"><a xlink:href="VirtualMachine_8hpp.html" target="_top" xlink:title=" ">
<polygon fill="white" stroke="#666666" points="1848,-90.5 1701,-90.5 1701,-71.5 1848,-71.5 1848,-90.5"/>
<text text-anchor="middle" x="1774.5" y="-78.5" font-family="Helvetica,sans-Serif" font-size="10.00">src/vm/VirtualMachine.hpp</text>
</a>
</g>
</g>
<!-- Node1&#45;&gt;Node18 -->
<g id="edge21_Node000001_Node000018" class="edge">
<title>Node1&#45;&gt;Node18</title>
<g id="a_edge21_Node000001_Node000018"><a xlink:title=" ">
<path fill="none" stroke="#63b8ff" d="M901.7,-135.41C1085.9,-124.14 1525.65,-97.23 1700.74,-86.51"/>
<polygon fill="#63b8ff" stroke="#63b8ff" points="901.3,-131.93 891.53,-136.03 901.73,-138.91 901.3,-131.93"/>
</a>
</g>
</g>
<!-- Node20 -->
<g id="Node000020" class="node">
<title>Node20</title>
<g id="a_Node000020"><a xlink:href="vm_2main_8cpp.html" target="_top" xlink:title=" ">
<polygon fill="white" stroke="#666666" points="1792.5,-24.5 1694.5,-24.5 1694.5,-5.5 1792.5,-5.5 1792.5,-24.5"/>
<text text-anchor="middle" x="1743.5" y="-12.5" font-family="Helvetica,sans-Serif" font-size="10.00">src/vm/main.cpp</text>
</a>
</g>
</g>
<!-- Node1&#45;&gt;Node20 -->
<g id="edge25_Node000001_Node000020" class="edge">
<title>Node1&#45;&gt;Node20</title>
<g id="a_edge25_Node000001_Node000020"><a xlink:title=" ">
<path fill="none" stroke="#63b8ff" d="M902.17,-133.29C1057.48,-119.15 1400.46,-84.32 1685.5,-30 1693.64,-28.45 1702.36,-26.5 1710.49,-24.55"/>
<polygon fill="#63b8ff" stroke="#63b8ff" points="901.41,-129.85 891.77,-134.23 902.04,-136.82 901.41,-129.85"/>
</a>
</g>
</g>
<!-- Node21 -->
<g id="Node000021" class="node">
<title>Node21</title>
<g id="a_Node000021"><a xlink:href="vm_8cpp.html" target="_top" xlink:title=" ">
<polygon fill="white" stroke="#666666" points="2015,-24.5 1926,-24.5 1926,-5.5 2015,-5.5 2015,-24.5"/>
<text text-anchor="middle" x="1970.5" y="-12.5" font-family="Helvetica,sans-Serif" font-size="10.00">src/vm/vm.cpp</text>
</a>
</g>
</g>
<!-- Node1&#45;&gt;Node21 -->
<g id="edge26_Node000001_Node000021" class="edge">
<title>Node1&#45;&gt;Node21</title>
<g id="a_edge26_Node000001_Node000021"><a xlink:title=" ">
<path fill="none" stroke="#63b8ff" d="M901.62,-139.64C1132.1,-136.87 1768.23,-126.52 1857.5,-96 1902.08,-80.76 1944.63,-41.96 1962.13,-24.61"/>
<polygon fill="#63b8ff" stroke="#63b8ff" points="901.57,-136.14 891.61,-139.76 901.65,-143.14 901.57,-136.14"/>
</a>
</g>
</g>
<!-- Node9&#45;&gt;Node6 -->
<g id="edge11_Node000009_Node000006" class="edge">
<title>Node9&#45;&gt;Node6</title>
<g id="a_edge11_Node000009_Node000006"><a xlink:title=" ">
<path fill="none" stroke="#63b8ff" d="M855.7,-72.48C830.04,-70.24 801.6,-67.88 775.5,-66 499.31,-46.08 428.59,-61.63 153.5,-30 141.45,-28.61 128.47,-26.61 116.51,-24.54"/>
<polygon fill="#63b8ff" stroke="#63b8ff" points="855.49,-75.97 865.76,-73.36 856.11,-69 855.49,-75.97"/>
</a>
</g>
</g>
<!-- Node9&#45;&gt;Node7 -->
<g id="edge12_Node000009_Node000007" class="edge">
<title>Node9&#45;&gt;Node7</title>
<g id="a_edge12_Node000009_Node000007"><a xlink:title=" ">
<path fill="none" stroke="#63b8ff" d="M856.16,-70.34C841.95,-68.78 827.3,-67.27 813.5,-66 590.76,-45.45 533.48,-57.55 311.5,-30 299.89,-28.56 287.39,-26.56 275.84,-24.52"/>
<polygon fill="#63b8ff" stroke="#63b8ff" points="856.08,-73.85 866.41,-71.47 856.85,-66.89 856.08,-73.85"/>
</a>
</g>
</g>
<!-- Node9&#45;&gt;Node8 -->
<g id="edge13_Node000009_Node000008" class="edge">
<title>Node9&#45;&gt;Node8</title>
<g id="a_edge13_Node000009_Node000008"><a xlink:title=" ">
<path fill="none" stroke="#63b8ff" d="M878.42,-69.85C869.41,-68.46 860.22,-67.12 851.5,-66 683.24,-44.36 639.63,-52.64 471.5,-30 460.18,-28.48 448.02,-26.51 436.67,-24.55"/>
<polygon fill="#63b8ff" stroke="#63b8ff" points="878.04,-73.33 888.47,-71.44 879.14,-66.42 878.04,-73.33"/>
</a>
</g>
</g>
<!-- Node10 -->
<g id="Node000010" class="node">
<title>Node10</title>
<g id="a_Node000010"><a xlink:href="CompilerSyntaxException_8cpp.html" target="_top" xlink:title=" ">
<polygon fill="white" stroke="#666666" points="638.5,-30 480.5,-30 480.5,0 638.5,0 638.5,-30"/>
<text text-anchor="start" x="488.5" y="-18" font-family="Helvetica,sans-Serif" font-size="10.00">src/compiler/CompilerSyntax</text>
<text text-anchor="middle" x="559.5" y="-7" font-family="Helvetica,sans-Serif" font-size="10.00">Exception.cpp</text>
</a>
</g>
</g>
<!-- Node9&#45;&gt;Node10 -->
<g id="edge9_Node000009_Node000010" class="edge">
<title>Node9&#45;&gt;Node10</title>
<g id="a_edge9_Node000009_Node000010"><a xlink:title=" ">
<path fill="none" stroke="#63b8ff" d="M876.88,-69.74C812.28,-58.8 709.73,-41.44 638.76,-29.42"/>
<polygon fill="#63b8ff" stroke="#63b8ff" points="876.47,-73.22 886.91,-71.44 877.64,-66.31 876.47,-73.22"/>
</a>
</g>
</g>
<!-- Node11 -->
<g id="Node000011" class="node">
<title>Node11</title>
<g id="a_Node000011"><a xlink:href="ast_8cpp.html" target="_top" xlink:title=" ">
<polygon fill="white" stroke="#666666" points="771,-24.5 656,-24.5 656,-5.5 771,-5.5 771,-24.5"/>
<text text-anchor="middle" x="713.5" y="-12.5" font-family="Helvetica,sans-Serif" font-size="10.00">src/compiler/ast.cpp</text>
</a>
</g>
</g>
<!-- Node9&#45;&gt;Node11 -->
<g id="edge10_Node000009_Node000011" class="edge">
<title>Node9&#45;&gt;Node11</title>
<g id="a_edge10_Node000009_Node000011"><a xlink:title=" ">
<path fill="none" stroke="#63b8ff" d="M897.47,-68.56C853.33,-55.95 783.3,-35.94 743.59,-24.6"/>
<polygon fill="#63b8ff" stroke="#63b8ff" points="896.71,-71.99 907.29,-71.37 898.64,-65.26 896.71,-71.99"/>
</a>
</g>
</g>
<!-- Node12 -->
<g id="Node000012" class="node">
<title>Node12</title>
<g id="a_Node000012"><a xlink:href="functions_8cpp.html" target="_top" xlink:title=" ">
<polygon fill="white" stroke="#666666" points="934,-24.5 789,-24.5 789,-5.5 934,-5.5 934,-24.5"/>
<text text-anchor="middle" x="861.5" y="-12.5" font-family="Helvetica,sans-Serif" font-size="10.00">src/compiler/functions.cpp</text>
</a>
</g>
</g>
<!-- Node9&#45;&gt;Node12 -->
<g id="edge14_Node000009_Node000012" class="edge">
<title>Node9&#45;&gt;Node12</title>
<g id="a_edge14_Node000009_Node000012"><a xlink:title=" ">
<path fill="none" stroke="#63b8ff" d="M919.31,-64.68C904.56,-52.26 884.28,-35.18 872.07,-24.91"/>
<polygon fill="#63b8ff" stroke="#63b8ff" points="917.35,-67.6 927.25,-71.37 921.86,-62.25 917.35,-67.6"/>
</a>
</g>
</g>
<!-- Node9&#45;&gt;Node13 -->
<g id="edge15_Node000009_Node000013" class="edge">
<title>Node9&#45;&gt;Node13</title>
<g id="a_edge15_Node000009_Node000013"><a xlink:title=" ">
<path fill="none" stroke="#63b8ff" d="M1019.55,-74.9C1131.79,-67.46 1339.36,-52.09 1515.5,-30 1527.52,-28.49 1540.44,-26.54 1552.49,-24.57"/>
<polygon fill="#63b8ff" stroke="#63b8ff" points="1019.07,-71.42 1009.32,-75.57 1019.53,-78.41 1019.07,-71.42"/>
</a>
</g>
</g>
<!-- Node14 -->
<g id="Node000014" class="node">
<title>Node14</title>
<g id="a_Node000014"><a xlink:href="lexer_8cpp.html" target="_top" xlink:title=" ">
<polygon fill="white" stroke="#666666" points="1075,-24.5 952,-24.5 952,-5.5 1075,-5.5 1075,-24.5"/>
<text text-anchor="middle" x="1013.5" y="-12.5" font-family="Helvetica,sans-Serif" font-size="10.00">src/compiler/lexer.cpp</text>
</a>
</g>
</g>
<!-- Node9&#45;&gt;Node14 -->
<g id="edge16_Node000009_Node000014" class="edge">
<title>Node9&#45;&gt;Node14</title>
<g id="a_edge16_Node000009_Node000014"><a xlink:title=" ">
<path fill="none" stroke="#63b8ff" d="M955.69,-64.68C970.44,-52.26 990.72,-35.18 1002.93,-24.91"/>
<polygon fill="#63b8ff" stroke="#63b8ff" points="953.14,-62.25 947.75,-71.37 957.65,-67.6 953.14,-62.25"/>
</a>
</g>
</g>
<!-- Node15 -->
<g id="Node000015" class="node">
<title>Node15</title>
<g id="a_Node000015"><a xlink:href="compiler_2main_8cpp.html" target="_top" xlink:title=" ">
<polygon fill="white" stroke="#666666" points="1218,-24.5 1093,-24.5 1093,-5.5 1218,-5.5 1218,-24.5"/>
<text text-anchor="middle" x="1155.5" y="-12.5" font-family="Helvetica,sans-Serif" font-size="10.00">src/compiler/main.cpp</text>
</a>
</g>
</g>
<!-- Node9&#45;&gt;Node15 -->
<g id="edge17_Node000009_Node000015" class="edge">
<title>Node9&#45;&gt;Node15</title>
<g id="a_edge17_Node000009_Node000015"><a xlink:title=" ">
<path fill="none" stroke="#63b8ff" d="M976.73,-68.48C1019.71,-55.87 1087.65,-35.92 1126.22,-24.6"/>
<polygon fill="#63b8ff" stroke="#63b8ff" points="975.51,-65.19 966.9,-71.37 977.48,-71.91 975.51,-65.19"/>
</a>
</g>
</g>
<!-- Node16 -->
<g id="Node000016" class="node">
<title>Node16</title>
<g id="a_Node000016"><a xlink:href="symbol_8cpp.html" target="_top" xlink:title=" ">
<polygon fill="white" stroke="#666666" points="1372.5,-24.5 1236.5,-24.5 1236.5,-5.5 1372.5,-5.5 1372.5,-24.5"/>
<text text-anchor="middle" x="1304.5" y="-12.5" font-family="Helvetica,sans-Serif" font-size="10.00">src/compiler/symbol.cpp</text>
</a>
</g>
</g>
<!-- Node9&#45;&gt;Node16 -->
<g id="edge18_Node000009_Node000016" class="edge">
<title>Node9&#45;&gt;Node16</title>
<g id="a_edge18_Node000009_Node000016"><a xlink:title=" ">
<path fill="none" stroke="#63b8ff" d="M997.54,-69.72C1056.01,-59.69 1147.38,-43.94 1226.5,-30 1236.39,-28.26 1246.98,-26.37 1257.07,-24.56"/>
<polygon fill="#63b8ff" stroke="#63b8ff" points="996.64,-66.33 987.38,-71.47 997.83,-73.23 996.64,-66.33"/>
</a>
</g>
</g>
<!-- Node17 -->
<g id="Node000017" class="node">
<title>Node17</title>
<g id="a_Node000017"><a xlink:href="symbol__table_8cpp.html" target="_top" xlink:title=" ">
<polygon fill="white" stroke="#666666" points="1506.5,-30 1390.5,-30 1390.5,0 1506.5,0 1506.5,-30"/>
<text text-anchor="start" x="1398.5" y="-18" font-family="Helvetica,sans-Serif" font-size="10.00">src/compiler/symbol</text>
<text text-anchor="middle" x="1448.5" y="-7" font-family="Helvetica,sans-Serif" font-size="10.00">_table.cpp</text>
</a>
</g>
</g>
<!-- Node9&#45;&gt;Node17 -->
<g id="edge19_Node000009_Node000017" class="edge">
<title>Node9&#45;&gt;Node17</title>
<g id="a_edge19_Node000009_Node000017"><a xlink:title=" ">
<path fill="none" stroke="#63b8ff" d="M1019.36,-73.1C1108.69,-65.03 1255.76,-50.17 1381.5,-30 1384.43,-29.53 1387.43,-29.02 1390.46,-28.48"/>
<polygon fill="#63b8ff" stroke="#63b8ff" points="1018.94,-69.62 1009.3,-74 1019.57,-76.6 1018.94,-69.62"/>
</a>
</g>
</g>
<!-- Node19 -->
<g id="Node000019" class="node">
<title>Node19</title>
<g id="a_Node000019"><a xlink:href="heap_8cpp.html" target="_top" xlink:title=" ">
<polygon fill="white" stroke="#666666" points="1908,-24.5 1811,-24.5 1811,-5.5 1908,-5.5 1908,-24.5"/>
<text text-anchor="middle" x="1859.5" y="-12.5" font-family="Helvetica,sans-Serif" font-size="10.00">src/vm/heap.cpp</text>
</a>
</g>
</g>
<!-- Node18&#45;&gt;Node19 -->
<g id="edge22_Node000018_Node000019" class="edge">
<title>Node18&#45;&gt;Node19</title>
<g id="a_edge22_Node000018_Node000019"><a xlink:title=" ">
<path fill="none" stroke="#63b8ff" d="M1793.98,-65.33C1810.65,-52.78 1834.09,-35.13 1847.95,-24.7"/>
<polygon fill="#63b8ff" stroke="#63b8ff" points="1791.85,-62.56 1785.96,-71.37 1796.06,-68.15 1791.85,-62.56"/>
</a>
</g>
</g>
<!-- Node18&#45;&gt;Node20 -->
<g id="edge23_Node000018_Node000020" class="edge">
<title>Node18&#45;&gt;Node20</title>
<g id="a_edge23_Node000018_Node000020"><a xlink:title=" ">
<path fill="none" stroke="#63b8ff" d="M1765.87,-62.18C1759.99,-50.05 1752.47,-34.51 1747.81,-24.91"/>
<polygon fill="#63b8ff" stroke="#63b8ff" points="1762.81,-63.89 1770.32,-71.37 1769.11,-60.84 1762.81,-63.89"/>
</a>
</g>
</g>
<!-- Node18&#45;&gt;Node21 -->
<g id="edge24_Node000018_Node000021" class="edge">
<title>Node18&#45;&gt;Node21</title>
<g id="a_edge24_Node000018_Node000021"><a xlink:title=" ">
<path fill="none" stroke="#63b8ff" d="M1810.75,-68.16C1849.44,-55.53 1909.79,-35.82 1944.17,-24.6"/>
<polygon fill="#63b8ff" stroke="#63b8ff" points="1809.35,-64.94 1800.93,-71.37 1811.53,-71.59 1809.35,-64.94"/>
</a>
</g>
</g>
</g>
</svg>
