<?xml version="1.0" encoding="UTF-8" standalone="no"?>
<!DOCTYPE svg PUBLIC "-//W3C//DTD SVG 1.1//EN"
 "http://www.w3.org/Graphics/SVG/1.1/DTD/svg11.dtd">
<!-- Generated by graphviz version 2.43.0 (0)
 -->
<!-- Title: src/common/bytecode.hpp Pages: 1 -->
<svg width="1454pt" height="159pt"
 viewBox="0.00 0.00 1453.50 159.00" xmlns="http://www.w3.org/2000/svg" xmlns:xlink="http://www.w3.org/1999/xlink">
<g id="graph0" class="graph" transform="scale(1 1) rotate(0) translate(4 155)">
<title>src/common/bytecode.hpp</title>
<!-- Node1 -->
<g id="Node000001" class="node">
<title>Node1</title>
<g id="a_Node000001"><a xlink:title=" ">
<polygon fill="#999999" stroke="#666666" points="482.5,-151 336.5,-151 336.5,-132 482.5,-132 482.5,-151"/>
<text text-anchor="middle" x="409.5" y="-139" font-family="Helvetica,sans-Serif" font-size="10.00">src/common/bytecode.hpp</text>
</a>
</g>
</g>
<!-- Node2 -->
<g id="Node000002" class="node">
<title>Node2</title>
<g id="a_Node000002"><a xlink:href="bcdump_2main_8cpp.html" target="_top" xlink:title=" ">
<polygon fill="white" stroke="#666666" points="121,-90.5 0,-90.5 0,-71.5 121,-71.5 121,-90.5"/>
<text text-anchor="middle" x="60.5" y="-78.5" font-family="Helvetica,sans-Serif" font-size="10.00">src/bcdump/main.cpp</text>
</a>
</g>
</g>
<!-- Node1&#45;&gt;Node2 -->
<g id="edge1_Node000001_Node000002" class="edge">
<title>Node1&#45;&gt;Node2</title>
<g id="a_edge1_Node000001_Node000002"><a xlink:title=" ">
<path fill="none" stroke="#63b8ff" d="M341.26,-130.48C284.48,-121.95 201.58,-109.03 129.5,-96 120.24,-94.33 110.31,-92.39 100.94,-90.51"/>
<polygon fill="#63b8ff" stroke="#63b8ff" points="340.78,-133.95 351.19,-131.97 341.82,-127.03 340.78,-133.95"/>
</a>
</g>
</g>
<!-- Node3 -->
<g id="Node000003" class="node">
<title>Node3</title>
<g id="a_Node000003"><a xlink:href="common_2bytecode_8cpp.html" target="_top" xlink:title=" ">
<polygon fill="white" stroke="#666666" points="284,-90.5 139,-90.5 139,-71.5 284,-71.5 284,-90.5"/>
<text text-anchor="middle" x="211.5" y="-78.5" font-family="Helvetica,sans-Serif" font-size="10.00">src/common/bytecode.cpp</text>
</a>
</g>
</g>
<!-- Node1&#45;&gt;Node3 -->
<g id="edge2_Node000001_Node000003" class="edge">
<title>Node1&#45;&gt;Node3</title>
<g id="a_edge2_Node000001_Node000003"><a xlink:title=" ">
<path fill="none" stroke="#63b8ff" d="M370.94,-129.11C332.65,-117.79 274.8,-100.7 240.33,-90.52"/>
<polygon fill="#63b8ff" stroke="#63b8ff" points="370.13,-132.52 380.71,-131.99 372.11,-125.8 370.13,-132.52"/>
</a>
</g>
</g>
<!-- Node4 -->
<g id="Node000004" class="node">
<title>Node4</title>
<g id="a_Node000004"><a xlink:href="bytecode__stream_8cpp.html" target="_top" xlink:title=" ">
<polygon fill="white" stroke="#666666" points="427,-96 302,-96 302,-66 427,-66 427,-96"/>
<text text-anchor="start" x="310" y="-84" font-family="Helvetica,sans-Serif" font-size="10.00">src/common/bytecode</text>
<text text-anchor="middle" x="364.5" y="-73" font-family="Helvetica,sans-Serif" font-size="10.00">_stream.cpp</text>
</a>
</g>
</g>
<!-- Node1&#45;&gt;Node4 -->
<g id="edge3_Node000001_Node000004" class="edge">
<title>Node1&#45;&gt;Node4</title>
<g id="a_edge3_Node000001_Node000004"><a xlink:title=" ">
<path fill="none" stroke="#63b8ff" d="M396.72,-123.88C389.97,-115.11 381.79,-104.48 375.36,-96.11"/>
<polygon fill="#63b8ff" stroke="#63b8ff" points="393.99,-126.08 402.86,-131.87 399.54,-121.81 393.99,-126.08"/>
</a>
</g>
</g>
<!-- Node5 -->
<g id="Node000005" class="node">
<title>Node5</title>
<g id="a_Node000005"><a xlink:href="compiler_2bytecode_8cpp.html" target="_top" xlink:title=" ">
<polygon fill="white" stroke="#666666" points="404,-24.5 259,-24.5 259,-5.5 404,-5.5 404,-24.5"/>
<text text-anchor="middle" x="331.5" y="-12.5" font-family="Helvetica,sans-Serif" font-size="10.00">src/compiler/bytecode.cpp</text>
</a>
</g>
</g>
<!-- Node1&#45;&gt;Node5 -->
<g id="edge4_Node000001_Node000005" class="edge">
<title>Node1&#45;&gt;Node5</title>
<g id="a_edge4_Node000001_Node000005"><a xlink:title=" ">
<path fill="none" stroke="#63b8ff" d="M423.62,-123.4C434.81,-107.64 446.84,-84.03 435.5,-66 421.74,-44.12 395.44,-31.6 372.73,-24.55"/>
<polygon fill="#63b8ff" stroke="#63b8ff" points="420.59,-121.6 417.31,-131.67 426.16,-125.85 420.59,-121.6"/>
</a>
</g>
</g>
<!-- Node6 -->
<g id="Node000006" class="node">
<title>Node6</title>
<g id="a_Node000006"><a xlink:href="compiler_8cpp.html" target="_top" xlink:title=" ">
<polygon fill="white" stroke="#666666" points="564.5,-24.5 422.5,-24.5 422.5,-5.5 564.5,-5.5 564.5,-24.5"/>
<text text-anchor="middle" x="493.5" y="-12.5" font-family="Helvetica,sans-Serif" font-size="10.00">src/compiler/compiler.cpp</text>
</a>
</g>
</g>
<!-- Node1&#45;&gt;Node6 -->
<g id="edge5_Node000001_Node000006" class="edge">
<title>Node1&#45;&gt;Node6</title>
<g id="a_edge5_Node000001_Node000006"><a xlink:title=" ">
<path fill="none" stroke="#63b8ff" d="M426.72,-124.99C435.13,-116.87 445.02,-106.46 452.5,-96 469.57,-72.14 483.68,-40.18 489.97,-24.88"/>
<polygon fill="#63b8ff" stroke="#63b8ff" points="424.14,-122.61 419.24,-132 428.93,-127.72 424.14,-122.61"/>
</a>
</g>
</g>
<!-- Node7 -->
<g id="Node000007" class="node">
<title>Node7</title>
<g id="a_Node000007"><a xlink:href="compiler_8hpp.html" target="_top" xlink:title=" ">
<polygon fill="white" stroke="#666666" points="887,-90.5 744,-90.5 744,-71.5 887,-71.5 887,-90.5"/>
<text text-anchor="middle" x="815.5" y="-78.5" font-family="Helvetica,sans-Serif" font-size="10.00">src/compiler/compiler.hpp</text>
</a>
</g>
</g>
<!-- Node1&#45;&gt;Node7 -->
<g id="edge6_Node000001_Node000007" class="edge">
<title>Node1&#45;&gt;Node7</title>
<g id="a_edge6_Node000001_Node000007"><a xlink:title=" ">
<path fill="none" stroke="#63b8ff" d="M478.76,-130.52C556.91,-119.26 682.69,-101.14 756.39,-90.52"/>
<polygon fill="#63b8ff" stroke="#63b8ff" points="477.93,-127.1 468.54,-131.99 478.93,-134.03 477.93,-127.1"/>
</a>
</g>
</g>
<!-- Node7&#45;&gt;Node5 -->
<g id="edge9_Node000007_Node000005" class="edge">
<title>Node7&#45;&gt;Node5</title>
<g id="a_edge9_Node000007_Node000005"><a xlink:title=" ">
<path fill="none" stroke="#63b8ff" d="M733.67,-70.92C652.33,-61.64 524.09,-46.31 413.5,-30 402.36,-28.36 390.39,-26.41 379.14,-24.51"/>
<polygon fill="#63b8ff" stroke="#63b8ff" points="733.51,-74.43 743.84,-72.08 734.3,-67.47 733.51,-74.43"/>
</a>
</g>
</g>
<!-- Node7&#45;&gt;Node6 -->
<g id="edge10_Node000007_Node000006" class="edge">
<title>Node7&#45;&gt;Node6</title>
<g id="a_edge10_Node000007_Node000006"><a xlink:title=" ">
<path fill="none" stroke="#63b8ff" d="M762.24,-69.41C698.96,-56.84 594.64,-36.1 536.34,-24.51"/>
<polygon fill="#63b8ff" stroke="#63b8ff" points="761.92,-72.92 772.41,-71.44 763.28,-66.05 761.92,-72.92"/>
</a>
</g>
</g>
<!-- Node8 -->
<g id="Node000008" class="node">
<title>Node8</title>
<g id="a_Node000008"><a xlink:href="CompilerSyntaxException_8cpp.html" target="_top" xlink:title=" ">
<polygon fill="white" stroke="#666666" points="740.5,-30 582.5,-30 582.5,0 740.5,0 740.5,-30"/>
<text text-anchor="start" x="590.5" y="-18" font-family="Helvetica,sans-Serif" font-size="10.00">src/compiler/CompilerSyntax</text>
<text text-anchor="middle" x="661.5" y="-7" font-family="Helvetica,sans-Serif" font-size="10.00">Exception.cpp</text>
</a>
</g>
</g>
<!-- Node7&#45;&gt;Node8 -->
<g id="edge7_Node000007_Node000008" class="edge">
<title>Node7&#45;&gt;Node8</title>
<g id="a_edge7_Node000007_Node000008"><a xlink:title=" ">
<path fill="none" stroke="#63b8ff" d="M785.43,-67.5C759.6,-56.77 722.37,-41.3 695.47,-30.12"/>
<polygon fill="#63b8ff" stroke="#63b8ff" points="784.15,-70.76 794.73,-71.37 786.84,-64.3 784.15,-70.76"/>
</a>
</g>
</g>
<!-- Node9 -->
<g id="Node000009" class="node">
<title>Node9</title>
<g id="a_Node000009"><a xlink:href="ast_8cpp.html" target="_top" xlink:title=" ">
<polygon fill="white" stroke="#666666" points="873,-24.5 758,-24.5 758,-5.5 873,-5.5 873,-24.5"/>
<text text-anchor="middle" x="815.5" y="-12.5" font-family="Helvetica,sans-Serif" font-size="10.00">src/compiler/ast.cpp</text>
</a>
</g>
</g>
<!-- Node7&#45;&gt;Node9 -->
<g id="edge8_Node000007_Node000009" class="edge">
<title>Node7&#45;&gt;Node9</title>
<g id="a_edge8_Node000007_Node000009"><a xlink:title=" ">
<path fill="none" stroke="#63b8ff" d="M815.5,-61.08C815.5,-49.13 815.5,-34.22 815.5,-24.91"/>
<polygon fill="#63b8ff" stroke="#63b8ff" points="812,-61.37 815.5,-71.37 819,-61.37 812,-61.37"/>
</a>
</g>
</g>
<!-- Node10 -->
<g id="Node000010" class="node">
<title>Node10</title>
<g id="a_Node000010"><a xlink:href="lexer_8cpp.html" target="_top" xlink:title=" ">
<polygon fill="white" stroke="#666666" points="1014,-24.5 891,-24.5 891,-5.5 1014,-5.5 1014,-24.5"/>
<text text-anchor="middle" x="952.5" y="-12.5" font-family="Helvetica,sans-Serif" font-size="10.00">src/compiler/lexer.cpp</text>
</a>
</g>
</g>
<!-- Node7&#45;&gt;Node10 -->
<g id="edge11_Node000007_Node000010" class="edge">
<title>Node7&#45;&gt;Node10</title>
<g id="a_edge11_Node000007_Node000010"><a xlink:title=" ">
<path fill="none" stroke="#63b8ff" d="M843.27,-67.03C870.27,-54.42 910.52,-35.61 933.88,-24.7"/>
<polygon fill="#63b8ff" stroke="#63b8ff" points="841.56,-63.97 833.98,-71.37 844.52,-70.31 841.56,-63.97"/>
</a>
</g>
</g>
<!-- Node11 -->
<g id="Node000011" class="node">
<title>Node11</title>
<g id="a_Node000011"><a xlink:href="compiler_2main_8cpp.html" target="_top" xlink:title=" ">
<polygon fill="white" stroke="#666666" points="1157,-24.5 1032,-24.5 1032,-5.5 1157,-5.5 1157,-24.5"/>
<text text-anchor="middle" x="1094.5" y="-12.5" font-family="Helvetica,sans-Serif" font-size="10.00">src/compiler/main.cpp</text>
</a>
</g>
</g>
<!-- Node7&#45;&gt;Node11 -->
<g id="edge12_Node000007_Node000011" class="edge">
<title>Node7&#45;&gt;Node11</title>
<g id="a_edge12_Node000007_Node000011"><a xlink:title=" ">
<path fill="none" stroke="#63b8ff" d="M862.67,-69.18C917.6,-56.58 1007.18,-36.03 1057.38,-24.51"/>
<polygon fill="#63b8ff" stroke="#63b8ff" points="861.8,-65.79 852.84,-71.44 863.37,-72.61 861.8,-65.79"/>
</a>
</g>
</g>
<!-- Node12 -->
<g id="Node000012" class="node">
<title>Node12</title>
<g id="a_Node000012"><a xlink:href="symbol_8cpp.html" target="_top" xlink:title=" ">
<polygon fill="white" stroke="#666666" points="1311.5,-24.5 1175.5,-24.5 1175.5,-5.5 1311.5,-5.5 1311.5,-24.5"/>
<text text-anchor="middle" x="1243.5" y="-12.5" font-family="Helvetica,sans-Serif" font-size="10.00">src/compiler/symbol.cpp</text>
</a>
</g>
</g>
<!-- Node7&#45;&gt;Node12 -->
<g id="edge13_Node000007_Node000012" class="edge">
<title>Node7&#45;&gt;Node12</title>
<g id="a_edge13_Node000007_Node000012"><a xlink:title=" ">
<path fill="none" stroke="#63b8ff" d="M890.84,-70.12C962.01,-60.58 1071.67,-45.37 1166.5,-30 1176.83,-28.33 1187.91,-26.39 1198.36,-24.51"/>
<polygon fill="#63b8ff" stroke="#63b8ff" points="890.08,-66.69 880.63,-71.48 891,-73.63 890.08,-66.69"/>
</a>
</g>
</g>
<!-- Node13 -->
<g id="Node000013" class="node">
<title>Node13</title>
<g id="a_Node000013"><a xlink:href="symbol__table_8cpp.html" target="_top" xlink:title=" ">
<polygon fill="white" stroke="#666666" points="1445.5,-30 1329.5,-30 1329.5,0 1445.5,0 1445.5,-30"/>
<text text-anchor="start" x="1337.5" y="-18" font-family="Helvetica,sans-Serif" font-size="10.00">src/compiler/symbol</text>
<text text-anchor="middle" x="1387.5" y="-7" font-family="Helvetica,sans-Serif" font-size="10.00">_table.cpp</text>
</a>
</g>
</g>
<!-- Node7&#45;&gt;Node13 -->
<g id="edge14_Node000007_Node000013" class="edge">
<title>Node7&#45;&gt;Node13</title>
<g id="a_edge14_Node000007_Node000013"><a xlink:title=" ">
<path fill="none" stroke="#63b8ff" d="M897.36,-74.61C997.53,-67.39 1172.11,-52.78 1320.5,-30 1323.44,-29.55 1326.44,-29.05 1329.46,-28.52"/>
<polygon fill="#63b8ff" stroke="#63b8ff" points="897.03,-71.12 887.31,-75.33 897.53,-78.11 897.03,-71.12"/>
</a>
</g>
</g>
</g>
</svg>
