<?xml version="1.0" encoding="UTF-8" standalone="no"?>
<!DOCTYPE svg PUBLIC "-//W3C//DTD SVG 1.1//EN"
 "http://www.w3.org/Graphics/SVG/1.1/DTD/svg11.dtd">
<!-- Generated by graphviz version 2.43.0 (0)
 -->
<!-- Title: src/common/bytecode.hpp Pages: 1 -->
<svg width="3412pt" height="159pt"
 viewBox="0.00 0.00 3412.00 159.00" xmlns="http://www.w3.org/2000/svg" xmlns:xlink="http://www.w3.org/1999/xlink">
<g id="graph0" class="graph" transform="scale(1 1) rotate(0) translate(4 155)">
<title>src/common/bytecode.hpp</title>
<!-- Node1 -->
<g id="Node000001" class="node">
<title>Node1</title>
<g id="a_Node000001"><a xlink:title=" ">
<polygon fill="#999999" stroke="#666666" points="1768.5,-151 1622.5,-151 1622.5,-132 1768.5,-132 1768.5,-151"/>
<text text-anchor="middle" x="1695.5" y="-139" font-family="Helvetica,sans-Serif" font-size="10.00">src/common/bytecode.hpp</text>
</a>
</g>
</g>
<!-- Node2 -->
<g id="Node000002" class="node">
<title>Node2</title>
<g id="a_Node000002"><a xlink:href="bcdisasm_2main_8cpp.html" target="_top" xlink:title=" ">
<polygon fill="white" stroke="#666666" points="1095.5,-90.5 967.5,-90.5 967.5,-71.5 1095.5,-71.5 1095.5,-90.5"/>
<text text-anchor="middle" x="1031.5" y="-78.5" font-family="Helvetica,sans-Serif" font-size="10.00">src/bcdisasm/main.cpp</text>
</a>
</g>
</g>
<!-- Node1&#45;&gt;Node2 -->
<g id="edge1_Node000001_Node000002" class="edge">
<title>Node1&#45;&gt;Node2</title>
<g id="a_edge1_Node000001_Node000002"><a xlink:title=" ">
<path fill="none" stroke="#63b8ff" d="M1612.32,-137.24C1497.64,-132.06 1284.69,-119.98 1104.5,-96 1093.75,-94.57 1082.2,-92.57 1071.53,-90.53"/>
<polygon fill="#63b8ff" stroke="#63b8ff" points="1612.29,-140.74 1622.43,-137.69 1612.6,-133.75 1612.29,-140.74"/>
</a>
</g>
</g>
<!-- Node3 -->
<g id="Node000003" class="node">
<title>Node3</title>
<g id="a_Node000003"><a xlink:href="bcdump_2main_8cpp.html" target="_top" xlink:title=" ">
<polygon fill="white" stroke="#666666" points="1235,-90.5 1114,-90.5 1114,-71.5 1235,-71.5 1235,-90.5"/>
<text text-anchor="middle" x="1174.5" y="-78.5" font-family="Helvetica,sans-Serif" font-size="10.00">src/bcdump/main.cpp</text>
</a>
</g>
</g>
<!-- Node1&#45;&gt;Node3 -->
<g id="edge2_Node000001_Node000003" class="edge">
<title>Node1&#45;&gt;Node3</title>
<g id="a_edge2_Node000001_Node000003"><a xlink:title=" ">
<path fill="none" stroke="#63b8ff" d="M1612.16,-134.86C1521.23,-128.1 1371.52,-115.24 1243.5,-96 1233.59,-94.51 1222.95,-92.54 1213.06,-90.55"/>
<polygon fill="#63b8ff" stroke="#63b8ff" points="1612.18,-138.37 1622.41,-135.61 1612.7,-131.39 1612.18,-138.37"/>
</a>
</g>
</g>
<!-- Node4 -->
<g id="Node000004" class="node">
<title>Node4</title>
<g id="a_Node000004"><a xlink:href="common_2bytecode_8cpp.html" target="_top" xlink:title=" ">
<polygon fill="white" stroke="#666666" points="1398,-90.5 1253,-90.5 1253,-71.5 1398,-71.5 1398,-90.5"/>
<text text-anchor="middle" x="1325.5" y="-78.5" font-family="Helvetica,sans-Serif" font-size="10.00">src/common/bytecode.cpp</text>
</a>
</g>
</g>
<!-- Node1&#45;&gt;Node4 -->
<g id="edge3_Node000001_Node000004" class="edge">
<title>Node1&#45;&gt;Node4</title>
<g id="a_edge3_Node000001_Node000004"><a xlink:title=" ">
<path fill="none" stroke="#63b8ff" d="M1627.91,-130.45C1569.31,-121.65 1482.24,-108.38 1406.5,-96 1395.94,-94.27 1384.61,-92.36 1373.88,-90.51"/>
<polygon fill="#63b8ff" stroke="#63b8ff" points="1627.74,-133.97 1638.15,-131.99 1628.78,-127.04 1627.74,-133.97"/>
</a>
</g>
</g>
<!-- Node5 -->
<g id="Node000005" class="node">
<title>Node5</title>
<g id="a_Node000005"><a xlink:href="bytecode__stream_8cpp.html" target="_top" xlink:title=" ">
<polygon fill="white" stroke="#666666" points="1541,-96 1416,-96 1416,-66 1541,-66 1541,-96"/>
<text text-anchor="start" x="1424" y="-84" font-family="Helvetica,sans-Serif" font-size="10.00">src/common/bytecode</text>
<text text-anchor="middle" x="1478.5" y="-73" font-family="Helvetica,sans-Serif" font-size="10.00">_stream.cpp</text>
</a>
</g>
</g>
<!-- Node1&#45;&gt;Node5 -->
<g id="edge4_Node000001_Node000005" class="edge">
<title>Node1&#45;&gt;Node5</title>
<g id="a_edge4_Node000001_Node000005"><a xlink:title=" ">
<path fill="none" stroke="#63b8ff" d="M1654.03,-129.32C1618.95,-119.86 1568.49,-106.26 1530.67,-96.06"/>
<polygon fill="#63b8ff" stroke="#63b8ff" points="1653.38,-132.77 1663.95,-131.99 1655.2,-126.01 1653.38,-132.77"/>
</a>
</g>
</g>
<!-- Node6 -->
<g id="Node000006" class="node">
<title>Node6</title>
<g id="a_Node000006"><a xlink:href="compiler_2bytecode_8cpp.html" target="_top" xlink:title=" ">
<polygon fill="white" stroke="#666666" points="145,-24.5 0,-24.5 0,-5.5 145,-5.5 145,-24.5"/>
<text text-anchor="middle" x="72.5" y="-12.5" font-family="Helvetica,sans-Serif" font-size="10.00">src/compiler/bytecode.cpp</text>
</a>
</g>
</g>
<!-- Node1&#45;&gt;Node6 -->
<g id="edge5_Node000001_Node000006" class="edge">
<title>Node1&#45;&gt;Node6</title>
<g id="a_edge5_Node000001_Node000006"><a xlink:title=" ">
<path fill="none" stroke="#63b8ff" d="M1656.34,-128.67C1634.09,-121.05 1606.23,-109.95 1583.5,-96 1566.33,-85.46 1568.26,-73.37 1549.5,-66 1405.08,-9.26 307.91,-45.25 153.5,-30 140.86,-28.75 127.22,-26.68 114.8,-24.51"/>
<polygon fill="#63b8ff" stroke="#63b8ff" points="1655.54,-132.09 1666.13,-131.92 1657.75,-125.44 1655.54,-132.09"/>
</a>
</g>
</g>
<!-- Node7 -->
<g id="Node000007" class="node">
<title>Node7</title>
<g id="a_Node000007"><a xlink:href="compile_8cpp.html" target="_top" xlink:title=" ">
<polygon fill="white" stroke="#666666" points="302,-24.5 163,-24.5 163,-5.5 302,-5.5 302,-24.5"/>
<text text-anchor="middle" x="232.5" y="-12.5" font-family="Helvetica,sans-Serif" font-size="10.00">src/compiler/compile.cpp</text>
</a>
</g>
</g>
<!-- Node1&#45;&gt;Node7 -->
<g id="edge6_Node000001_Node000007" class="edge">
<title>Node1&#45;&gt;Node7</title>
<g id="a_edge6_Node000001_Node000007"><a xlink:title=" ">
<path fill="none" stroke="#63b8ff" d="M1670.89,-126.75C1656.25,-118.32 1637.48,-107.05 1621.5,-96 1603.8,-83.76 1603.73,-73.34 1583.5,-66 1450.6,-17.74 452.16,-44.37 311.5,-30 299.31,-28.75 286.16,-26.71 274.16,-24.56"/>
<polygon fill="#63b8ff" stroke="#63b8ff" points="1669.41,-129.94 1679.84,-131.85 1672.88,-123.86 1669.41,-129.94"/>
</a>
</g>
</g>
<!-- Node8 -->
<g id="Node000008" class="node">
<title>Node8</title>
<g id="a_Node000008"><a xlink:href="compiler_8cpp.html" target="_top" xlink:title=" ">
<polygon fill="white" stroke="#666666" points="462.5,-24.5 320.5,-24.5 320.5,-5.5 462.5,-5.5 462.5,-24.5"/>
<text text-anchor="middle" x="391.5" y="-12.5" font-family="Helvetica,sans-Serif" font-size="10.00">src/compiler/compiler.cpp</text>
</a>
</g>
</g>
<!-- Node1&#45;&gt;Node8 -->
<g id="edge7_Node000001_Node000008" class="edge">
<title>Node1&#45;&gt;Node8</title>
<g id="a_edge7_Node000001_Node000008"><a xlink:title=" ">
<path fill="none" stroke="#63b8ff" d="M1684.6,-123.56C1671.91,-105.54 1649.12,-78.01 1621.5,-66 1504.26,-15.04 598.67,-43.05 471.5,-30 459.16,-28.73 445.85,-26.68 433.69,-24.54"/>
<polygon fill="#63b8ff" stroke="#63b8ff" points="1681.79,-125.66 1690.29,-131.99 1687.59,-121.74 1681.79,-125.66"/>
</a>
</g>
</g>
<!-- Node9 -->
<g id="Node000009" class="node">
<title>Node9</title>
<g id="a_Node000009"><a xlink:href="compiler_8hpp.html" target="_top" xlink:title=" ">
<polygon fill="white" stroke="#666666" points="1817,-90.5 1674,-90.5 1674,-71.5 1817,-71.5 1817,-90.5"/>
<text text-anchor="middle" x="1745.5" y="-78.5" font-family="Helvetica,sans-Serif" font-size="10.00">src/compiler/compiler.hpp</text>
</a>
</g>
</g>
<!-- Node1&#45;&gt;Node9 -->
<g id="edge8_Node000001_Node000009" class="edge">
<title>Node1&#45;&gt;Node9</title>
<g id="a_edge8_Node000001_Node000009"><a xlink:title=" ">
<path fill="none" stroke="#63b8ff" d="M1709.64,-123.95C1718.9,-113.12 1730.62,-99.41 1738.09,-90.67"/>
<polygon fill="#63b8ff" stroke="#63b8ff" points="1706.71,-121.99 1702.88,-131.87 1712.04,-126.54 1706.71,-121.99"/>
</a>
</g>
</g>
<!-- Node17 -->
<g id="Node000017" class="node">
<title>Node17</title>
<g id="a_Node000017"><a xlink:href="functions_8cpp.html" target="_top" xlink:title=" ">
<polygon fill="white" stroke="#666666" points="2703,-24.5 2558,-24.5 2558,-5.5 2703,-5.5 2703,-24.5"/>
<text text-anchor="middle" x="2630.5" y="-12.5" font-family="Helvetica,sans-Serif" font-size="10.00">src/compiler/functions.cpp</text>
</a>
</g>
</g>
<!-- Node1&#45;&gt;Node17 -->
<g id="edge29_Node000001_Node000017" class="edge">
<title>Node1&#45;&gt;Node17</title>
<g id="a_edge29_Node000001_Node000017"><a xlink:title=" ">
<path fill="none" stroke="#63b8ff" d="M1778.91,-130.83C1931.78,-112.84 2267,-72.25 2548.5,-30 2559.5,-28.35 2571.3,-26.43 2582.42,-24.54"/>
<polygon fill="#63b8ff" stroke="#63b8ff" points="1778.19,-127.39 1768.66,-132.03 1779,-134.34 1778.19,-127.39"/>
</a>
</g>
</g>
<!-- Node18 -->
<g id="Node000018" class="node">
<title>Node18</title>
<g id="a_Node000018"><a xlink:href="instruction_8cpp.html" target="_top" xlink:title=" ">
<polygon fill="white" stroke="#666666" points="2873.5,-24.5 2721.5,-24.5 2721.5,-5.5 2873.5,-5.5 2873.5,-24.5"/>
<text text-anchor="middle" x="2797.5" y="-12.5" font-family="Helvetica,sans-Serif" font-size="10.00">src/compiler/instruction.cpp</text>
</a>
</g>
</g>
<!-- Node1&#45;&gt;Node18 -->
<g id="edge30_Node000001_Node000018" class="edge">
<title>Node1&#45;&gt;Node18</title>
<g id="a_edge30_Node000001_Node000018"><a xlink:title=" ">
<path fill="none" stroke="#63b8ff" d="M1778.73,-134.26C1879.26,-126.47 2053.46,-112.2 2202.5,-96 2429.28,-71.36 2485.78,-63 2711.5,-30 2722.88,-28.34 2735.08,-26.43 2746.61,-24.56"/>
<polygon fill="#63b8ff" stroke="#63b8ff" points="1778.34,-130.78 1768.64,-135.04 1778.88,-137.76 1778.34,-130.78"/>
</a>
</g>
</g>
<!-- Node25 -->
<g id="Node000025" class="node">
<title>Node25</title>
<g id="a_Node000025"><a xlink:href="temp__allocator_8cpp.html" target="_top" xlink:title=" ">
<polygon fill="white" stroke="#666666" points="3065,-24.5 2892,-24.5 2892,-5.5 3065,-5.5 3065,-24.5"/>
<text text-anchor="middle" x="2978.5" y="-12.5" font-family="Helvetica,sans-Serif" font-size="10.00">src/compiler/temp_allocator.cpp</text>
</a>
</g>
</g>
<!-- Node1&#45;&gt;Node25 -->
<g id="edge31_Node000001_Node000025" class="edge">
<title>Node1&#45;&gt;Node25</title>
<g id="a_edge31_Node000001_Node000025"><a xlink:title=" ">
<path fill="none" stroke="#63b8ff" d="M1778.75,-136.22C1902.35,-129.55 2141.65,-115.38 2344.5,-96 2584.31,-73.09 2643.74,-62.05 2882.5,-30 2895.19,-28.3 2908.8,-26.37 2921.68,-24.51"/>
<polygon fill="#63b8ff" stroke="#63b8ff" points="1778.4,-132.74 1768.6,-136.77 1778.77,-139.73 1778.4,-132.74"/>
</a>
</g>
</g>
<!-- Node27 -->
<g id="Node000027" class="node">
<title>Node27</title>
<g id="a_Node000027"><a xlink:href="VirtualMachine_8hpp.html" target="_top" xlink:title=" ">
<polygon fill="white" stroke="#666666" points="3237,-90.5 3090,-90.5 3090,-71.5 3237,-71.5 3237,-90.5"/>
<text text-anchor="middle" x="3163.5" y="-78.5" font-family="Helvetica,sans-Serif" font-size="10.00">src/vm/VirtualMachine.hpp</text>
</a>
</g>
</g>
<!-- Node1&#45;&gt;Node27 -->
<g id="edge32_Node000001_Node000027" class="edge">
<title>Node1&#45;&gt;Node27</title>
<g id="a_edge32_Node000001_Node000027"><a xlink:title=" ">
<path fill="none" stroke="#63b8ff" d="M1778.74,-138.65C1982.04,-133.9 2520.06,-119.93 2968.5,-96 3008.66,-93.86 3053.43,-90.7 3089.93,-87.92"/>
<polygon fill="#63b8ff" stroke="#63b8ff" points="1778.65,-135.15 1768.73,-138.88 1778.81,-142.15 1778.65,-135.15"/>
</a>
</g>
</g>
<!-- Node29 -->
<g id="Node000029" class="node">
<title>Node29</title>
<g id="a_Node000029"><a xlink:href="vm_2main_8cpp.html" target="_top" xlink:title=" ">
<polygon fill="white" stroke="#666666" points="3181.5,-24.5 3083.5,-24.5 3083.5,-5.5 3181.5,-5.5 3181.5,-24.5"/>
<text text-anchor="middle" x="3132.5" y="-12.5" font-family="Helvetica,sans-Serif" font-size="10.00">src/vm/main.cpp</text>
</a>
</g>
</g>
<!-- Node1&#45;&gt;Node29 -->
<g id="edge36_Node000001_Node000029" class="edge">
<title>Node1&#45;&gt;Node29</title>
<g id="a_edge36_Node000001_Node000029"><a xlink:title=" ">
<path fill="none" stroke="#63b8ff" d="M1778.85,-139.21C1994.52,-134.71 2587.93,-114.92 3073.5,-30 3082,-28.51 3091.11,-26.54 3099.57,-24.55"/>
<polygon fill="#63b8ff" stroke="#63b8ff" points="1778.49,-135.72 1768.56,-139.42 1778.63,-142.71 1778.49,-135.72"/>
</a>
</g>
</g>
<!-- Node30 -->
<g id="Node000030" class="node">
<title>Node30</title>
<g id="a_Node000030"><a xlink:href="vm_8cpp.html" target="_top" xlink:title=" ">
<polygon fill="white" stroke="#666666" points="3404,-24.5 3315,-24.5 3315,-5.5 3404,-5.5 3404,-24.5"/>
<text text-anchor="middle" x="3359.5" y="-12.5" font-family="Helvetica,sans-Serif" font-size="10.00">src/vm/vm.cpp</text>
</a>
</g>
</g>
<!-- Node1&#45;&gt;Node30 -->
<g id="edge37_Node000001_Node000030" class="edge">
<title>Node1&#45;&gt;Node30</title>
<g id="a_edge37_Node000001_Node000030"><a xlink:title=" ">
<path fill="none" stroke="#63b8ff" d="M1779.02,-140.93C2081.23,-142.08 3107.3,-142.49 3246.5,-96 3291.19,-81.07 3333.68,-42.11 3351.15,-24.66"/>
<polygon fill="#63b8ff" stroke="#63b8ff" points="1778.59,-137.42 1768.58,-140.88 1778.57,-144.42 1778.59,-137.42"/>
</a>
</g>
</g>
<!-- Node9&#45;&gt;Node6 -->
<g id="edge14_Node000009_Node000006" class="edge">
<title>Node9&#45;&gt;Node6</title>
<g id="a_edge14_Node000009_Node000006"><a xlink:title=" ">
<path fill="none" stroke="#63b8ff" d="M1663.73,-71.96C1638.07,-69.69 1609.63,-67.46 1583.5,-66 948.73,-30.61 786.2,-92.31 153.5,-30 140.86,-28.76 127.22,-26.68 114.8,-24.51"/>
<polygon fill="#63b8ff" stroke="#63b8ff" points="1663.52,-75.45 1673.79,-72.86 1664.14,-68.48 1663.52,-75.45"/>
</a>
</g>
</g>
<!-- Node9&#45;&gt;Node7 -->
<g id="edge15_Node000009_Node000007" class="edge">
<title>Node9&#45;&gt;Node7</title>
<g id="a_edge15_Node000009_Node000007"><a xlink:title=" ">
<path fill="none" stroke="#63b8ff" d="M1669.11,-70.34C1653.38,-68.65 1636.92,-67.08 1621.5,-66 1040.48,-25.29 890.95,-88.98 311.5,-30 299.31,-28.76 286.16,-26.72 274.16,-24.57"/>
<polygon fill="#63b8ff" stroke="#63b8ff" points="1668.99,-73.85 1679.31,-71.47 1669.76,-66.89 1668.99,-73.85"/>
</a>
</g>
</g>
<!-- Node9&#45;&gt;Node8 -->
<g id="edge16_Node000009_Node000008" class="edge">
<title>Node9&#45;&gt;Node8</title>
<g id="a_edge16_Node000009_Node000008"><a xlink:title=" ">
<path fill="none" stroke="#63b8ff" d="M1690.12,-69.89C1679.97,-68.35 1669.44,-66.96 1659.5,-66 1133.68,-15.45 997.01,-83.67 471.5,-30 459.16,-28.74 445.85,-26.69 433.69,-24.55"/>
<polygon fill="#63b8ff" stroke="#63b8ff" points="1689.7,-73.37 1700.12,-71.47 1690.79,-66.45 1689.7,-73.37"/>
</a>
</g>
</g>
<!-- Node10 -->
<g id="Node000010" class="node">
<title>Node10</title>
<g id="a_Node000010"><a xlink:href="CompilerSyntaxException_8cpp.html" target="_top" xlink:title=" ">
<polygon fill="white" stroke="#666666" points="796.5,-30 638.5,-30 638.5,0 796.5,0 796.5,-30"/>
<text text-anchor="start" x="646.5" y="-18" font-family="Helvetica,sans-Serif" font-size="10.00">src/compiler/CompilerSyntax</text>
<text text-anchor="middle" x="717.5" y="-7" font-family="Helvetica,sans-Serif" font-size="10.00">Exception.cpp</text>
</a>
</g>
</g>
<!-- Node9&#45;&gt;Node10 -->
<g id="edge9_Node000009_Node000010" class="edge">
<title>Node9&#45;&gt;Node10</title>
<g id="a_edge9_Node000009_Node000010"><a xlink:title=" ">
<path fill="none" stroke="#63b8ff" d="M1689.77,-69.93C1679.72,-68.4 1669.32,-67 1659.5,-66 1281.13,-27.38 1182.91,-68.28 804.5,-30 801.91,-29.74 799.28,-29.45 796.63,-29.14"/>
<polygon fill="#63b8ff" stroke="#63b8ff" points="1689.24,-73.39 1699.66,-71.5 1690.33,-66.48 1689.24,-73.39"/>
</a>
</g>
</g>
<!-- Node11 -->
<g id="Node000011" class="node">
<title>Node11</title>
<g id="a_Node000011"><a xlink:href="ast_8cpp.html" target="_top" xlink:title=" ">
<polygon fill="white" stroke="#666666" points="929,-24.5 814,-24.5 814,-5.5 929,-5.5 929,-24.5"/>
<text text-anchor="middle" x="871.5" y="-12.5" font-family="Helvetica,sans-Serif" font-size="10.00">src/compiler/ast.cpp</text>
</a>
</g>
</g>
<!-- Node9&#45;&gt;Node11 -->
<g id="edge10_Node000009_Node000011" class="edge">
<title>Node9&#45;&gt;Node11</title>
<g id="a_edge10_Node000009_Node000011"><a xlink:title=" ">
<path fill="none" stroke="#63b8ff" d="M1689.1,-69.9C1679.26,-68.4 1669.1,-67.02 1659.5,-66 1340,-32.14 1256.1,-71.47 937.5,-30 927.39,-28.68 916.54,-26.65 906.6,-24.53"/>
<polygon fill="#63b8ff" stroke="#63b8ff" points="1688.79,-73.39 1699.21,-71.49 1689.88,-66.48 1688.79,-73.39"/>
</a>
</g>
</g>
<!-- Node12 -->
<g id="Node000012" class="node">
<title>Node12</title>
<g id="a_Node000012"><a xlink:href="binop_8cpp.html" target="_top" xlink:title=" ">
<polygon fill="white" stroke="#666666" points="1074,-24.5 947,-24.5 947,-5.5 1074,-5.5 1074,-24.5"/>
<text text-anchor="middle" x="1010.5" y="-12.5" font-family="Helvetica,sans-Serif" font-size="10.00">src/compiler/binop.cpp</text>
</a>
</g>
</g>
<!-- Node9&#45;&gt;Node12 -->
<g id="edge11_Node000009_Node000012" class="edge">
<title>Node9&#45;&gt;Node12</title>
<g id="a_edge11_Node000009_Node000012"><a xlink:title=" ">
<path fill="none" stroke="#63b8ff" d="M1688.41,-69.89C1678.78,-68.42 1668.87,-67.05 1659.5,-66 1404.6,-37.36 1337.97,-62.22 1083.5,-30 1072.62,-28.62 1060.91,-26.62 1050.13,-24.55"/>
<polygon fill="#63b8ff" stroke="#63b8ff" points="1687.88,-73.35 1698.3,-71.45 1688.97,-66.44 1687.88,-73.35"/>
</a>
</g>
</g>
<!-- Node13 -->
<g id="Node000013" class="node">
<title>Node13</title>
<g id="a_Node000013"><a xlink:href="block_8cpp.html" target="_top" xlink:title=" ">
<polygon fill="white" stroke="#666666" points="1218.5,-24.5 1092.5,-24.5 1092.5,-5.5 1218.5,-5.5 1218.5,-24.5"/>
<text text-anchor="middle" x="1155.5" y="-12.5" font-family="Helvetica,sans-Serif" font-size="10.00">src/compiler/block.cpp</text>
</a>
</g>
</g>
<!-- Node9&#45;&gt;Node13 -->
<g id="edge12_Node000009_Node000013" class="edge">
<title>Node9&#45;&gt;Node13</title>
<g id="a_edge12_Node000009_Node000013"><a xlink:title=" ">
<path fill="none" stroke="#63b8ff" d="M1687.4,-69.91C1678.09,-68.47 1668.54,-67.11 1659.5,-66 1468.27,-42.5 1418.34,-56.43 1227.5,-30 1217.03,-28.55 1205.78,-26.57 1195.36,-24.55"/>
<polygon fill="#63b8ff" stroke="#63b8ff" points="1686.96,-73.38 1697.38,-71.49 1688.05,-66.47 1686.96,-73.38"/>
</a>
</g>
</g>
<!-- Node14 -->
<g id="Node000014" class="node">
<title>Node14</title>
<g id="a_Node000014"><a xlink:href="builtin_8cpp.html" target="_top" xlink:title=" ">
<polygon fill="white" stroke="#666666" points="1368,-24.5 1237,-24.5 1237,-5.5 1368,-5.5 1368,-24.5"/>
<text text-anchor="middle" x="1302.5" y="-12.5" font-family="Helvetica,sans-Serif" font-size="10.00">src/compiler/builtin.cpp</text>
</a>
</g>
</g>
<!-- Node9&#45;&gt;Node14 -->
<g id="edge13_Node000009_Node000014" class="edge">
<title>Node9&#45;&gt;Node14</title>
<g id="a_edge13_Node000009_Node000014"><a xlink:title=" ">
<path fill="none" stroke="#63b8ff" d="M1685.09,-69.89C1676.51,-68.54 1667.79,-67.2 1659.5,-66 1534.02,-47.81 1501.74,-49.79 1376.5,-30 1366.3,-28.39 1355.34,-26.44 1345.08,-24.51"/>
<polygon fill="#63b8ff" stroke="#63b8ff" points="1684.64,-73.37 1695.07,-71.49 1685.75,-66.45 1684.64,-73.37"/>
</a>
</g>
</g>
<!-- Node15 -->
<g id="Node000015" class="node">
<title>Node15</title>
<g id="a_Node000015"><a xlink:href="expr_8cpp.html" target="_top" xlink:title=" ">
<polygon fill="white" stroke="#666666" points="1507,-24.5 1386,-24.5 1386,-5.5 1507,-5.5 1507,-24.5"/>
<text text-anchor="middle" x="1446.5" y="-12.5" font-family="Helvetica,sans-Serif" font-size="10.00">src/compiler/expr.cpp</text>
</a>
</g>
</g>
<!-- Node9&#45;&gt;Node15 -->
<g id="edge17_Node000009_Node000015" class="edge">
<title>Node9&#45;&gt;Node15</title>
<g id="a_edge17_Node000009_Node000015"><a xlink:title=" ">
<path fill="none" stroke="#63b8ff" d="M1695.68,-69.34C1636.88,-56.75 1540.31,-36.08 1486.28,-24.51"/>
<polygon fill="#63b8ff" stroke="#63b8ff" points="1694.97,-72.76 1705.49,-71.44 1696.44,-65.92 1694.97,-72.76"/>
</a>
</g>
</g>
<!-- Node16 -->
<g id="Node000016" class="node">
<title>Node16</title>
<g id="a_Node000016"><a xlink:href="function_8cpp.html" target="_top" xlink:title=" ">
<polygon fill="white" stroke="#666666" points="1665.5,-24.5 1525.5,-24.5 1525.5,-5.5 1665.5,-5.5 1665.5,-24.5"/>
<text text-anchor="middle" x="1595.5" y="-12.5" font-family="Helvetica,sans-Serif" font-size="10.00">src/compiler/function.cpp</text>
</a>
</g>
</g>
<!-- Node9&#45;&gt;Node16 -->
<g id="edge18_Node000009_Node000016" class="edge">
<title>Node9&#45;&gt;Node16</title>
<g id="a_edge18_Node000009_Node000016"><a xlink:title=" ">
<path fill="none" stroke="#63b8ff" d="M1715.87,-67.36C1686.31,-54.75 1641.69,-35.71 1615.89,-24.7"/>
<polygon fill="#63b8ff" stroke="#63b8ff" points="1714.7,-70.66 1725.27,-71.37 1717.45,-64.23 1714.7,-70.66"/>
</a>
</g>
</g>
<!-- Node9&#45;&gt;Node17 -->
<g id="edge19_Node000009_Node000017" class="edge">
<title>Node9&#45;&gt;Node17</title>
<g id="a_edge19_Node000009_Node000017"><a xlink:title=" ">
<path fill="none" stroke="#63b8ff" d="M1827.35,-77.79C1972.86,-73.23 2285.98,-60.5 2548.5,-30 2560.55,-28.6 2573.52,-26.61 2585.51,-24.57"/>
<polygon fill="#63b8ff" stroke="#63b8ff" points="1827.05,-74.3 1817.16,-78.11 1827.27,-81.3 1827.05,-74.3"/>
</a>
</g>
</g>
<!-- Node9&#45;&gt;Node18 -->
<g id="edge20_Node000009_Node000018" class="edge">
<title>Node9&#45;&gt;Node18</title>
<g id="a_edge20_Node000009_Node000018"><a xlink:title=" ">
<path fill="none" stroke="#63b8ff" d="M1827.39,-78.79C1994.2,-75.65 2385.21,-64.9 2711.5,-30 2724.29,-28.63 2738.06,-26.63 2750.76,-24.56"/>
<polygon fill="#63b8ff" stroke="#63b8ff" points="1827.15,-75.29 1817.21,-78.97 1827.27,-82.29 1827.15,-75.29"/>
</a>
</g>
</g>
<!-- Node19 -->
<g id="Node000019" class="node">
<title>Node19</title>
<g id="a_Node000019"><a xlink:href="lexer_8cpp.html" target="_top" xlink:title=" ">
<polygon fill="white" stroke="#666666" points="1807,-24.5 1684,-24.5 1684,-5.5 1807,-5.5 1807,-24.5"/>
<text text-anchor="middle" x="1745.5" y="-12.5" font-family="Helvetica,sans-Serif" font-size="10.00">src/compiler/lexer.cpp</text>
</a>
</g>
</g>
<!-- Node9&#45;&gt;Node19 -->
<g id="edge21_Node000009_Node000019" class="edge">
<title>Node9&#45;&gt;Node19</title>
<g id="a_edge21_Node000009_Node000019"><a xlink:title=" ">
<path fill="none" stroke="#63b8ff" d="M1745.5,-61.08C1745.5,-49.13 1745.5,-34.22 1745.5,-24.91"/>
<polygon fill="#63b8ff" stroke="#63b8ff" points="1742,-61.37 1745.5,-71.37 1749,-61.37 1742,-61.37"/>
</a>
</g>
</g>
<!-- Node20 -->
<g id="Node000020" class="node">
<title>Node20</title>
<g id="a_Node000020"><a xlink:href="log_8cpp.html" target="_top" xlink:title=" ">
<polygon fill="white" stroke="#666666" points="1940,-24.5 1825,-24.5 1825,-5.5 1940,-5.5 1940,-24.5"/>
<text text-anchor="middle" x="1882.5" y="-12.5" font-family="Helvetica,sans-Serif" font-size="10.00">src/compiler/log.cpp</text>
</a>
</g>
</g>
<!-- Node9&#45;&gt;Node20 -->
<g id="edge22_Node000009_Node000020" class="edge">
<title>Node9&#45;&gt;Node20</title>
<g id="a_edge22_Node000009_Node000020"><a xlink:title=" ">
<path fill="none" stroke="#63b8ff" d="M1773.27,-67.03C1800.27,-54.42 1840.52,-35.61 1863.88,-24.7"/>
<polygon fill="#63b8ff" stroke="#63b8ff" points="1771.56,-63.97 1763.98,-71.37 1774.52,-70.31 1771.56,-63.97"/>
</a>
</g>
</g>
<!-- Node21 -->
<g id="Node000021" class="node">
<title>Node21</title>
<g id="a_Node000021"><a xlink:href="compiler_2main_8cpp.html" target="_top" xlink:title=" ">
<polygon fill="white" stroke="#666666" points="2083,-24.5 1958,-24.5 1958,-5.5 2083,-5.5 2083,-24.5"/>
<text text-anchor="middle" x="2020.5" y="-12.5" font-family="Helvetica,sans-Serif" font-size="10.00">src/compiler/main.cpp</text>
</a>
</g>
</g>
<!-- Node9&#45;&gt;Node21 -->
<g id="edge23_Node000009_Node000021" class="edge">
<title>Node9&#45;&gt;Node21</title>
<g id="a_edge23_Node000009_Node000021"><a xlink:title=" ">
<path fill="none" stroke="#63b8ff" d="M1792.33,-69.1C1846.5,-56.49 1934.53,-36.01 1983.92,-24.51"/>
<polygon fill="#63b8ff" stroke="#63b8ff" points="1791.25,-65.76 1782.3,-71.44 1792.84,-72.58 1791.25,-65.76"/>
</a>
</g>
</g>
<!-- Node22 -->
<g id="Node000022" class="node">
<title>Node22</title>
<g id="a_Node000022"><a xlink:href="statement_8cpp.html" target="_top" xlink:title=" ">
<polygon fill="white" stroke="#666666" points="2251.5,-24.5 2101.5,-24.5 2101.5,-5.5 2251.5,-5.5 2251.5,-24.5"/>
<text text-anchor="middle" x="2176.5" y="-12.5" font-family="Helvetica,sans-Serif" font-size="10.00">src/compiler/statement.cpp</text>
</a>
</g>
</g>
<!-- Node9&#45;&gt;Node22 -->
<g id="edge24_Node000009_Node000022" class="edge">
<title>Node9&#45;&gt;Node22</title>
<g id="a_edge24_Node000009_Node000022"><a xlink:title=" ">
<path fill="none" stroke="#63b8ff" d="M1817.16,-70.07C1887.17,-60.26 1996.74,-44.65 2091.5,-30 2102.59,-28.29 2114.47,-26.38 2125.74,-24.53"/>
<polygon fill="#63b8ff" stroke="#63b8ff" points="1816.54,-66.62 1807.12,-71.47 1817.51,-73.55 1816.54,-66.62"/>
</a>
</g>
</g>
<!-- Node23 -->
<g id="Node000023" class="node">
<title>Node23</title>
<g id="a_Node000023"><a xlink:href="symbol_8cpp.html" target="_top" xlink:title=" ">
<polygon fill="white" stroke="#666666" points="2405.5,-24.5 2269.5,-24.5 2269.5,-5.5 2405.5,-5.5 2405.5,-24.5"/>
<text text-anchor="middle" x="2337.5" y="-12.5" font-family="Helvetica,sans-Serif" font-size="10.00">src/compiler/symbol.cpp</text>
</a>
</g>
</g>
<!-- Node9&#45;&gt;Node23 -->
<g id="edge25_Node000009_Node000023" class="edge">
<title>Node9&#45;&gt;Node23</title>
<g id="a_edge25_Node000009_Node000023"><a xlink:title=" ">
<path fill="none" stroke="#63b8ff" d="M1827.59,-74.15C1929.43,-66.4 2108.25,-51.19 2260.5,-30 2271.4,-28.48 2283.11,-26.52 2294.03,-24.55"/>
<polygon fill="#63b8ff" stroke="#63b8ff" points="1827.08,-70.67 1817.37,-74.92 1827.61,-77.65 1827.08,-70.67"/>
</a>
</g>
</g>
<!-- Node24 -->
<g id="Node000024" class="node">
<title>Node24</title>
<g id="a_Node000024"><a xlink:href="symbol__table_8cpp.html" target="_top" xlink:title=" ">
<polygon fill="white" stroke="#666666" points="2539.5,-30 2423.5,-30 2423.5,0 2539.5,0 2539.5,-30"/>
<text text-anchor="start" x="2431.5" y="-18" font-family="Helvetica,sans-Serif" font-size="10.00">src/compiler/symbol</text>
<text text-anchor="middle" x="2481.5" y="-7" font-family="Helvetica,sans-Serif" font-size="10.00">_table.cpp</text>
</a>
</g>
</g>
<!-- Node9&#45;&gt;Node24 -->
<g id="edge26_Node000009_Node000024" class="edge">
<title>Node9&#45;&gt;Node24</title>
<g id="a_edge26_Node000009_Node000024"><a xlink:title=" ">
<path fill="none" stroke="#63b8ff" d="M1827.49,-77.34C1954,-72.46 2204.18,-59.7 2414.5,-30 2417.44,-29.58 2420.45,-29.12 2423.48,-28.61"/>
<polygon fill="#63b8ff" stroke="#63b8ff" points="1826.98,-73.86 1817.12,-77.74 1827.24,-80.85 1826.98,-73.86"/>
</a>
</g>
</g>
<!-- Node9&#45;&gt;Node25 -->
<g id="edge27_Node000009_Node000025" class="edge">
<title>Node9&#45;&gt;Node25</title>
<g id="a_edge27_Node000009_Node000025"><a xlink:title=" ">
<path fill="none" stroke="#63b8ff" d="M1827.21,-79.23C2014.34,-76.85 2488.23,-67.32 2882.5,-30 2896.92,-28.63 2912.49,-26.61 2926.8,-24.52"/>
<polygon fill="#63b8ff" stroke="#63b8ff" points="1827.13,-75.73 1817.18,-79.35 1827.22,-82.73 1827.13,-75.73"/>
</a>
</g>
</g>
<!-- Node26 -->
<g id="Node000026" class="node">
<title>Node26</title>
<g id="a_Node000026"><a xlink:href="variable_8cpp.html" target="_top" xlink:title=" ">
<polygon fill="white" stroke="#666666" points="620.5,-24.5 480.5,-24.5 480.5,-5.5 620.5,-5.5 620.5,-24.5"/>
<text text-anchor="middle" x="550.5" y="-12.5" font-family="Helvetica,sans-Serif" font-size="10.00">src/compiler/variable.cpp</text>
</a>
</g>
</g>
<!-- Node9&#45;&gt;Node26 -->
<g id="edge28_Node000009_Node000026" class="edge">
<title>Node9&#45;&gt;Node26</title>
<g id="a_edge28_Node000009_Node000026"><a xlink:title=" ">
<path fill="none" stroke="#63b8ff" d="M1689.77,-69.88C1679.73,-68.35 1669.32,-66.97 1659.5,-66 1203.65,-21.11 1085.03,-78.08 629.5,-30 617.31,-28.71 604.17,-26.66 592.16,-24.51"/>
<polygon fill="#63b8ff" stroke="#63b8ff" points="1689.25,-73.34 1699.67,-71.44 1690.34,-66.42 1689.25,-73.34"/>
</a>
</g>
</g>
<!-- Node28 -->
<g id="Node000028" class="node">
<title>Node28</title>
<g id="a_Node000028"><a xlink:href="heap_8cpp.html" target="_top" xlink:title=" ">
<polygon fill="white" stroke="#666666" points="3297,-24.5 3200,-24.5 3200,-5.5 3297,-5.5 3297,-24.5"/>
<text text-anchor="middle" x="3248.5" y="-12.5" font-family="Helvetica,sans-Serif" font-size="10.00">src/vm/heap.cpp</text>
</a>
</g>
</g>
<!-- Node27&#45;&gt;Node28 -->
<g id="edge33_Node000027_Node000028" class="edge">
<title>Node27&#45;&gt;Node28</title>
<g id="a_edge33_Node000027_Node000028"><a xlink:title=" ">
<path fill="none" stroke="#63b8ff" d="M3182.98,-65.33C3199.65,-52.78 3223.09,-35.13 3236.95,-24.7"/>
<polygon fill="#63b8ff" stroke="#63b8ff" points="3180.85,-62.56 3174.96,-71.37 3185.06,-68.15 3180.85,-62.56"/>
</a>
</g>
</g>
<!-- Node27&#45;&gt;Node29 -->
<g id="edge34_Node000027_Node000029" class="edge">
<title>Node27&#45;&gt;Node29</title>
<g id="a_edge34_Node000027_Node000029"><a xlink:title=" ">
<path fill="none" stroke="#63b8ff" d="M3154.87,-62.18C3148.99,-50.05 3141.47,-34.51 3136.81,-24.91"/>
<polygon fill="#63b8ff" stroke="#63b8ff" points="3151.81,-63.89 3159.32,-71.37 3158.11,-60.84 3151.81,-63.89"/>
</a>
</g>
</g>
<!-- Node27&#45;&gt;Node30 -->
<g id="edge35_Node000027_Node000030" class="edge">
<title>Node27&#45;&gt;Node30</title>
<g id="a_edge35_Node000027_Node000030"><a xlink:title=" ">
<path fill="none" stroke="#63b8ff" d="M3199.75,-68.16C3238.44,-55.53 3298.79,-35.82 3333.17,-24.6"/>
<polygon fill="#63b8ff" stroke="#63b8ff" points="3198.35,-64.94 3189.93,-71.37 3200.53,-71.59 3198.35,-64.94"/>
</a>
</g>
</g>
</g>
</svg>
