<?xml version="1.0" encoding="UTF-8" standalone="no"?>
<!DOCTYPE svg PUBLIC "-//W3C//DTD SVG 1.1//EN"
 "http://www.w3.org/Graphics/SVG/1.1/DTD/svg11.dtd">
<!-- Generated by graphviz version 2.43.0 (0)
 -->
<!-- Title: src/common/bytecode.hpp Pages: 1 -->
<svg width="2349pt" height="159pt"
 viewBox="0.00 0.00 2349.00 159.00" xmlns="http://www.w3.org/2000/svg" xmlns:xlink="http://www.w3.org/1999/xlink">
<g id="graph0" class="graph" transform="scale(1 1) rotate(0) translate(4 155)">
<title>src/common/bytecode.hpp</title>
<!-- Node1 -->
<g id="Node000001" class="node">
<title>Node1</title>
<g id="a_Node000001"><a xlink:title=" ">
<polygon fill="#999999" stroke="#666666" points="1033.5,-151 887.5,-151 887.5,-132 1033.5,-132 1033.5,-151"/>
<text text-anchor="middle" x="960.5" y="-139" font-family="Helvetica,sans-Serif" font-size="10.00">src/common/bytecode.hpp</text>
</a>
</g>
</g>
<!-- Node2 -->
<g id="Node000002" class="node">
<title>Node2</title>
<g id="a_Node000002"><a xlink:href="bcdisasm_2main_8cpp.html" target="_top" xlink:title=" ">
<polygon fill="white" stroke="#666666" points="391.5,-90.5 263.5,-90.5 263.5,-71.5 391.5,-71.5 391.5,-90.5"/>
<text text-anchor="middle" x="327.5" y="-78.5" font-family="Helvetica,sans-Serif" font-size="10.00">src/bcdisasm/main.cpp</text>
</a>
</g>
</g>
<!-- Node1&#45;&gt;Node2 -->
<g id="edge1_Node000001_Node000002" class="edge">
<title>Node1&#45;&gt;Node2</title>
<g id="a_edge1_Node000001_Node000002"><a xlink:title=" ">
<path fill="none" stroke="#63b8ff" d="M877.29,-136.76C767.64,-131.17 568.97,-118.78 400.5,-96 389.76,-94.55 378.21,-92.54 367.53,-90.5"/>
<polygon fill="#63b8ff" stroke="#63b8ff" points="877.13,-140.25 887.29,-137.26 877.48,-133.26 877.13,-140.25"/>
</a>
</g>
</g>
<!-- Node3 -->
<g id="Node000003" class="node">
<title>Node3</title>
<g id="a_Node000003"><a xlink:href="bcdump_2main_8cpp.html" target="_top" xlink:title=" ">
<polygon fill="white" stroke="#666666" points="531,-90.5 410,-90.5 410,-71.5 531,-71.5 531,-90.5"/>
<text text-anchor="middle" x="470.5" y="-78.5" font-family="Helvetica,sans-Serif" font-size="10.00">src/bcdump/main.cpp</text>
</a>
</g>
</g>
<!-- Node1&#45;&gt;Node3 -->
<g id="edge2_Node000001_Node000003" class="edge">
<title>Node1&#45;&gt;Node3</title>
<g id="a_edge2_Node000001_Node000003"><a xlink:title=" ">
<path fill="none" stroke="#63b8ff" d="M877.09,-134.03C791.93,-126.88 656.07,-113.95 539.5,-96 529.71,-94.49 519.21,-92.54 509.43,-90.57"/>
<polygon fill="#63b8ff" stroke="#63b8ff" points="876.96,-137.53 887.21,-134.88 877.54,-130.56 876.96,-137.53"/>
</a>
</g>
</g>
<!-- Node4 -->
<g id="Node000004" class="node">
<title>Node4</title>
<g id="a_Node000004"><a xlink:href="common_2bytecode_8cpp.html" target="_top" xlink:title=" ">
<polygon fill="white" stroke="#666666" points="694,-90.5 549,-90.5 549,-71.5 694,-71.5 694,-90.5"/>
<text text-anchor="middle" x="621.5" y="-78.5" font-family="Helvetica,sans-Serif" font-size="10.00">src/common/bytecode.cpp</text>
</a>
</g>
</g>
<!-- Node1&#45;&gt;Node4 -->
<g id="edge3_Node000001_Node000004" class="edge">
<title>Node1&#45;&gt;Node4</title>
<g id="a_edge3_Node000001_Node000004"><a xlink:title=" ">
<path fill="none" stroke="#63b8ff" d="M900.94,-130.23C848.64,-121.22 770.53,-107.75 702.5,-96 692.23,-94.23 681.24,-92.33 670.76,-90.52"/>
<polygon fill="#63b8ff" stroke="#63b8ff" points="900.59,-133.72 911.04,-131.97 901.78,-126.83 900.59,-133.72"/>
</a>
</g>
</g>
<!-- Node5 -->
<g id="Node000005" class="node">
<title>Node5</title>
<g id="a_Node000005"><a xlink:href="bytecode__stream_8cpp.html" target="_top" xlink:title=" ">
<polygon fill="white" stroke="#666666" points="837,-96 712,-96 712,-66 837,-66 837,-96"/>
<text text-anchor="start" x="720" y="-84" font-family="Helvetica,sans-Serif" font-size="10.00">src/common/bytecode</text>
<text text-anchor="middle" x="774.5" y="-73" font-family="Helvetica,sans-Serif" font-size="10.00">_stream.cpp</text>
</a>
</g>
</g>
<!-- Node1&#45;&gt;Node5 -->
<g id="edge4_Node000001_Node000005" class="edge">
<title>Node1&#45;&gt;Node5</title>
<g id="a_edge4_Node000001_Node000005"><a xlink:title=" ">
<path fill="none" stroke="#63b8ff" d="M923.79,-128.95C893.77,-119.51 851.22,-106.13 819.22,-96.06"/>
<polygon fill="#63b8ff" stroke="#63b8ff" points="922.86,-132.33 933.45,-131.99 924.96,-125.65 922.86,-132.33"/>
</a>
</g>
</g>
<!-- Node6 -->
<g id="Node000006" class="node">
<title>Node6</title>
<g id="a_Node000006"><a xlink:href="compiler_2bytecode_8cpp.html" target="_top" xlink:title=" ">
<polygon fill="white" stroke="#666666" points="145,-24.5 0,-24.5 0,-5.5 145,-5.5 145,-24.5"/>
<text text-anchor="middle" x="72.5" y="-12.5" font-family="Helvetica,sans-Serif" font-size="10.00">src/compiler/bytecode.cpp</text>
</a>
</g>
</g>
<!-- Node1&#45;&gt;Node6 -->
<g id="edge5_Node000001_Node000006" class="edge">
<title>Node1&#45;&gt;Node6</title>
<g id="a_edge5_Node000001_Node000006"><a xlink:title=" ">
<path fill="none" stroke="#63b8ff" d="M932.74,-127.18C916.67,-119 896.35,-107.84 879.5,-96 863.01,-84.41 864.16,-73.61 845.5,-66 702.93,-7.82 306.53,-47.14 153.5,-30 141.3,-28.63 128.16,-26.61 116.08,-24.51"/>
<polygon fill="#63b8ff" stroke="#63b8ff" points="931.62,-130.53 942.13,-131.86 934.74,-124.27 931.62,-130.53"/>
</a>
</g>
</g>
<!-- Node7 -->
<g id="Node000007" class="node">
<title>Node7</title>
<g id="a_Node000007"><a xlink:href="compile_8cpp.html" target="_top" xlink:title=" ">
<polygon fill="white" stroke="#666666" points="302,-24.5 163,-24.5 163,-5.5 302,-5.5 302,-24.5"/>
<text text-anchor="middle" x="232.5" y="-12.5" font-family="Helvetica,sans-Serif" font-size="10.00">src/compiler/compile.cpp</text>
</a>
</g>
</g>
<!-- Node1&#45;&gt;Node7 -->
<g id="edge6_Node000001_Node000007" class="edge">
<title>Node1&#45;&gt;Node7</title>
<g id="a_edge6_Node000001_Node000007"><a xlink:title=" ">
<path fill="none" stroke="#63b8ff" d="M945.61,-124.48C926.72,-104.61 894.79,-72.53 879.5,-66 763.18,-16.35 437.08,-45.06 311.5,-30 299.74,-28.59 287.09,-26.57 275.42,-24.51"/>
<polygon fill="#63b8ff" stroke="#63b8ff" points="943.19,-127.02 952.59,-131.9 948.29,-122.22 943.19,-127.02"/>
</a>
</g>
</g>
<!-- Node8 -->
<g id="Node000008" class="node">
<title>Node8</title>
<g id="a_Node000008"><a xlink:href="compiler_8cpp.html" target="_top" xlink:title=" ">
<polygon fill="white" stroke="#666666" points="462.5,-24.5 320.5,-24.5 320.5,-5.5 462.5,-5.5 462.5,-24.5"/>
<text text-anchor="middle" x="391.5" y="-12.5" font-family="Helvetica,sans-Serif" font-size="10.00">src/compiler/compiler.cpp</text>
</a>
</g>
</g>
<!-- Node1&#45;&gt;Node8 -->
<g id="edge7_Node000001_Node000008" class="edge">
<title>Node1&#45;&gt;Node8</title>
<g id="a_edge7_Node000001_Node000008"><a xlink:title=" ">
<path fill="none" stroke="#63b8ff" d="M955.3,-121.98C949.3,-104.36 937.57,-78.69 917.5,-66 833.46,-12.85 570.13,-42.58 471.5,-30 459.89,-28.52 447.4,-26.53 435.82,-24.51"/>
<polygon fill="#63b8ff" stroke="#63b8ff" points="952.02,-123.22 958.32,-131.73 958.71,-121.15 952.02,-123.22"/>
</a>
</g>
</g>
<!-- Node9 -->
<g id="Node000009" class="node">
<title>Node9</title>
<g id="a_Node000009"><a xlink:href="compiler_8hpp.html" target="_top" xlink:title=" ">
<polygon fill="white" stroke="#666666" points="1151,-90.5 1008,-90.5 1008,-71.5 1151,-71.5 1151,-90.5"/>
<text text-anchor="middle" x="1079.5" y="-78.5" font-family="Helvetica,sans-Serif" font-size="10.00">src/compiler/compiler.hpp</text>
</a>
</g>
</g>
<!-- Node1&#45;&gt;Node9 -->
<g id="edge8_Node000001_Node000009" class="edge">
<title>Node1&#45;&gt;Node9</title>
<g id="a_edge8_Node000001_Node000009"><a xlink:title=" ">
<path fill="none" stroke="#63b8ff" d="M986.98,-127.48C1009.91,-116.21 1042.43,-100.23 1062.18,-90.52"/>
<polygon fill="#63b8ff" stroke="#63b8ff" points="985.23,-124.44 977.8,-131.99 988.32,-130.72 985.23,-124.44"/>
</a>
</g>
</g>
<!-- Node12 -->
<g id="Node000012" class="node">
<title>Node12</title>
<g id="a_Node000012"><a xlink:href="functions_8cpp.html" target="_top" xlink:title=" ">
<polygon fill="white" stroke="#666666" points="626,-24.5 481,-24.5 481,-5.5 626,-5.5 626,-24.5"/>
<text text-anchor="middle" x="553.5" y="-12.5" font-family="Helvetica,sans-Serif" font-size="10.00">src/compiler/functions.cpp</text>
</a>
</g>
</g>
<!-- Node1&#45;&gt;Node12 -->
<g id="edge22_Node000001_Node000012" class="edge">
<title>Node1&#45;&gt;Node12</title>
<g id="a_edge22_Node000001_Node000012"><a xlink:title=" ">
<path fill="none" stroke="#63b8ff" d="M965.21,-121.92C968.28,-105.04 969.46,-80.6 955.5,-66 906.05,-14.27 706.35,-40.03 635.5,-30 624.2,-28.4 612.07,-26.46 600.69,-24.53"/>
<polygon fill="#63b8ff" stroke="#63b8ff" points="961.78,-121.23 963.07,-131.75 968.62,-122.72 961.78,-121.23"/>
</a>
</g>
</g>
<!-- Node13 -->
<g id="Node000013" class="node">
<title>Node13</title>
<g id="a_Node000013"><a xlink:href="instruction_8cpp.html" target="_top" xlink:title=" ">
<polygon fill="white" stroke="#666666" points="1810.5,-24.5 1658.5,-24.5 1658.5,-5.5 1810.5,-5.5 1810.5,-24.5"/>
<text text-anchor="middle" x="1734.5" y="-12.5" font-family="Helvetica,sans-Serif" font-size="10.00">src/compiler/instruction.cpp</text>
</a>
</g>
</g>
<!-- Node1&#45;&gt;Node13 -->
<g id="edge23_Node000001_Node000013" class="edge">
<title>Node1&#45;&gt;Node13</title>
<g id="a_edge23_Node000001_Node000013"><a xlink:title=" ">
<path fill="none" stroke="#63b8ff" d="M1024,-130.41C1145.48,-111.08 1419.21,-67.43 1649.5,-30 1660.28,-28.25 1671.82,-26.36 1682.81,-24.55"/>
<polygon fill="#63b8ff" stroke="#63b8ff" points="1023.44,-126.95 1014.12,-131.98 1024.54,-133.87 1023.44,-126.95"/>
</a>
</g>
</g>
<!-- Node19 -->
<g id="Node000019" class="node">
<title>Node19</title>
<g id="a_Node000019"><a xlink:href="temp__allocator_8cpp.html" target="_top" xlink:title=" ">
<polygon fill="white" stroke="#666666" points="2002,-24.5 1829,-24.5 1829,-5.5 2002,-5.5 2002,-24.5"/>
<text text-anchor="middle" x="1915.5" y="-12.5" font-family="Helvetica,sans-Serif" font-size="10.00">src/compiler/temp_allocator.cpp</text>
</a>
</g>
</g>
<!-- Node1&#45;&gt;Node19 -->
<g id="edge24_Node000001_Node000019" class="edge">
<title>Node1&#45;&gt;Node19</title>
<g id="a_edge24_Node000001_Node000019"><a xlink:title=" ">
<path fill="none" stroke="#63b8ff" d="M1043.9,-131.43C1121.93,-122.8 1241.7,-109.22 1345.5,-96 1556.49,-69.12 1608.93,-60.01 1819.5,-30 1831.84,-28.24 1845.07,-26.33 1857.64,-24.5"/>
<polygon fill="#63b8ff" stroke="#63b8ff" points="1043.21,-127.98 1033.65,-132.56 1043.98,-134.94 1043.21,-127.98"/>
</a>
</g>
</g>
<!-- Node20 -->
<g id="Node000020" class="node">
<title>Node20</title>
<g id="a_Node000020"><a xlink:href="VirtualMachine_8hpp.html" target="_top" xlink:title=" ">
<polygon fill="white" stroke="#666666" points="2174,-90.5 2027,-90.5 2027,-71.5 2174,-71.5 2174,-90.5"/>
<text text-anchor="middle" x="2100.5" y="-78.5" font-family="Helvetica,sans-Serif" font-size="10.00">src/vm/VirtualMachine.hpp</text>
</a>
</g>
</g>
<!-- Node1&#45;&gt;Node20 -->
<g id="edge25_Node000001_Node000020" class="edge">
<title>Node1&#45;&gt;Node20</title>
<g id="a_edge25_Node000001_Node000020"><a xlink:title=" ">
<path fill="none" stroke="#63b8ff" d="M1044.07,-137.06C1207.22,-130.21 1579.56,-114 1892.5,-96 1937.12,-93.43 1987.1,-90.08 2026.88,-87.31"/>
<polygon fill="#63b8ff" stroke="#63b8ff" points="1043.47,-133.58 1033.63,-137.49 1043.77,-140.57 1043.47,-133.58"/>
</a>
</g>
</g>
<!-- Node22 -->
<g id="Node000022" class="node">
<title>Node22</title>
<g id="a_Node000022"><a xlink:href="vm_2main_8cpp.html" target="_top" xlink:title=" ">
<polygon fill="white" stroke="#666666" points="2118.5,-24.5 2020.5,-24.5 2020.5,-5.5 2118.5,-5.5 2118.5,-24.5"/>
<text text-anchor="middle" x="2069.5" y="-12.5" font-family="Helvetica,sans-Serif" font-size="10.00">src/vm/main.cpp</text>
</a>
</g>
</g>
<!-- Node1&#45;&gt;Node22 -->
<g id="edge29_Node000001_Node000022" class="edge">
<title>Node1&#45;&gt;Node22</title>
<g id="a_edge29_Node000001_Node000022"><a xlink:title=" ">
<path fill="none" stroke="#63b8ff" d="M1043.67,-135.86C1221.98,-125 1653.87,-93.9 2010.5,-30 2019,-28.48 2028.1,-26.49 2036.56,-24.5"/>
<polygon fill="#63b8ff" stroke="#63b8ff" points="1043.34,-132.37 1033.57,-136.47 1043.76,-139.36 1043.34,-132.37"/>
</a>
</g>
</g>
<!-- Node23 -->
<g id="Node000023" class="node">
<title>Node23</title>
<g id="a_Node000023"><a xlink:href="vm_8cpp.html" target="_top" xlink:title=" ">
<polygon fill="white" stroke="#666666" points="2341,-24.5 2252,-24.5 2252,-5.5 2341,-5.5 2341,-24.5"/>
<text text-anchor="middle" x="2296.5" y="-12.5" font-family="Helvetica,sans-Serif" font-size="10.00">src/vm/vm.cpp</text>
</a>
</g>
</g>
<!-- Node1&#45;&gt;Node23 -->
<g id="edge30_Node000001_Node000023" class="edge">
<title>Node1&#45;&gt;Node23</title>
<g id="a_edge30_Node000001_Node000023"><a xlink:title=" ">
<path fill="none" stroke="#63b8ff" d="M1043.7,-140.22C1301.53,-138.98 2076.38,-132.24 2183.5,-96 2228.13,-80.9 2270.66,-42.03 2288.14,-24.64"/>
<polygon fill="#63b8ff" stroke="#63b8ff" points="1043.62,-136.72 1033.64,-140.27 1043.66,-143.72 1043.62,-136.72"/>
</a>
</g>
</g>
<!-- Node9&#45;&gt;Node6 -->
<g id="edge11_Node000009_Node000006" class="edge">
<title>Node9&#45;&gt;Node6</title>
<g id="a_edge11_Node000009_Node000006"><a xlink:title=" ">
<path fill="none" stroke="#63b8ff" d="M997.76,-73.9C961.54,-71.3 918.41,-68.33 879.5,-66 557.01,-46.72 474.6,-65.58 153.5,-30 141.3,-28.65 128.16,-26.63 116.08,-24.53"/>
<polygon fill="#63b8ff" stroke="#63b8ff" points="997.56,-77.4 1007.78,-74.63 998.06,-70.41 997.56,-77.4"/>
</a>
</g>
</g>
<!-- Node9&#45;&gt;Node7 -->
<g id="edge12_Node000009_Node000007" class="edge">
<title>Node9&#45;&gt;Node7</title>
<g id="a_edge12_Node000009_Node000007"><a xlink:title=" ">
<path fill="none" stroke="#63b8ff" d="M997.7,-72.5C972.04,-70.26 943.6,-67.9 917.5,-66 648.41,-46.38 579.45,-61.59 311.5,-30 299.74,-28.61 287.08,-26.6 275.42,-24.54"/>
<polygon fill="#63b8ff" stroke="#63b8ff" points="997.49,-76 1007.76,-73.38 998.1,-69.02 997.49,-76"/>
</a>
</g>
</g>
<!-- Node9&#45;&gt;Node8 -->
<g id="edge13_Node000009_Node000008" class="edge">
<title>Node9&#45;&gt;Node8</title>
<g id="a_edge13_Node000009_Node000008"><a xlink:title=" ">
<path fill="none" stroke="#63b8ff" d="M997.88,-70.34C983.76,-68.79 969.21,-67.28 955.5,-66 740.73,-45.9 685.56,-56.62 471.5,-30 459.89,-28.56 447.39,-26.58 435.81,-24.56"/>
<polygon fill="#63b8ff" stroke="#63b8ff" points="997.75,-73.84 1008.08,-71.46 998.52,-66.89 997.75,-73.84"/>
</a>
</g>
</g>
<!-- Node10 -->
<g id="Node000010" class="node">
<title>Node10</title>
<g id="a_Node000010"><a xlink:href="CompilerSyntaxException_8cpp.html" target="_top" xlink:title=" ">
<polygon fill="white" stroke="#666666" points="936.5,-30 778.5,-30 778.5,0 936.5,0 936.5,-30"/>
<text text-anchor="start" x="786.5" y="-18" font-family="Helvetica,sans-Serif" font-size="10.00">src/compiler/CompilerSyntax</text>
<text text-anchor="middle" x="857.5" y="-7" font-family="Helvetica,sans-Serif" font-size="10.00">Exception.cpp</text>
</a>
</g>
</g>
<!-- Node9&#45;&gt;Node10 -->
<g id="edge9_Node000009_Node000010" class="edge">
<title>Node9&#45;&gt;Node10</title>
<g id="a_edge9_Node000009_Node000010"><a xlink:title=" ">
<path fill="none" stroke="#63b8ff" d="M1039.55,-68.48C1002.24,-57.73 946.44,-41.64 906.46,-30.12"/>
<polygon fill="#63b8ff" stroke="#63b8ff" points="1038.98,-71.96 1049.56,-71.37 1040.92,-65.24 1038.98,-71.96"/>
</a>
</g>
</g>
<!-- Node11 -->
<g id="Node000011" class="node">
<title>Node11</title>
<g id="a_Node000011"><a xlink:href="ast_8cpp.html" target="_top" xlink:title=" ">
<polygon fill="white" stroke="#666666" points="1069,-24.5 954,-24.5 954,-5.5 1069,-5.5 1069,-24.5"/>
<text text-anchor="middle" x="1011.5" y="-12.5" font-family="Helvetica,sans-Serif" font-size="10.00">src/compiler/ast.cpp</text>
</a>
</g>
</g>
<!-- Node9&#45;&gt;Node11 -->
<g id="edge10_Node000009_Node000011" class="edge">
<title>Node9&#45;&gt;Node11</title>
<g id="a_edge10_Node000009_Node000011"><a xlink:title=" ">
<path fill="none" stroke="#63b8ff" d="M1062.85,-64.33C1049.69,-51.94 1031.78,-35.09 1020.96,-24.91"/>
<polygon fill="#63b8ff" stroke="#63b8ff" points="1060.65,-67.06 1070.33,-71.37 1065.45,-61.97 1060.65,-67.06"/>
</a>
</g>
</g>
<!-- Node9&#45;&gt;Node12 -->
<g id="edge14_Node000009_Node000012" class="edge">
<title>Node9&#45;&gt;Node12</title>
<g id="a_edge14_Node000009_Node000012"><a xlink:title=" ">
<path fill="none" stroke="#63b8ff" d="M1020.41,-69.89C1011.41,-68.49 1002.22,-67.15 993.5,-66 834.95,-45.14 793.97,-51.47 635.5,-30 624.05,-28.45 611.75,-26.5 600.25,-24.55"/>
<polygon fill="#63b8ff" stroke="#63b8ff" points="1020.03,-73.38 1030.46,-71.49 1021.13,-66.46 1020.03,-73.38"/>
</a>
</g>
</g>
<!-- Node9&#45;&gt;Node13 -->
<g id="edge15_Node000009_Node000013" class="edge">
<title>Node9&#45;&gt;Node13</title>
<g id="a_edge15_Node000009_Node000013"><a xlink:title=" ">
<path fill="none" stroke="#63b8ff" d="M1161.33,-74.78C1272.22,-67.25 1476.27,-51.83 1649.5,-30 1661.52,-28.49 1674.44,-26.53 1686.49,-24.56"/>
<polygon fill="#63b8ff" stroke="#63b8ff" points="1160.96,-71.29 1151.22,-75.46 1161.43,-78.28 1160.96,-71.29"/>
</a>
</g>
</g>
<!-- Node14 -->
<g id="Node000014" class="node">
<title>Node14</title>
<g id="a_Node000014"><a xlink:href="lexer_8cpp.html" target="_top" xlink:title=" ">
<polygon fill="white" stroke="#666666" points="1210,-24.5 1087,-24.5 1087,-5.5 1210,-5.5 1210,-24.5"/>
<text text-anchor="middle" x="1148.5" y="-12.5" font-family="Helvetica,sans-Serif" font-size="10.00">src/compiler/lexer.cpp</text>
</a>
</g>
</g>
<!-- Node9&#45;&gt;Node14 -->
<g id="edge16_Node000009_Node000014" class="edge">
<title>Node9&#45;&gt;Node14</title>
<g id="a_edge16_Node000009_Node000014"><a xlink:title=" ">
<path fill="none" stroke="#63b8ff" d="M1096.39,-64.33C1109.75,-51.94 1127.92,-35.09 1138.9,-24.91"/>
<polygon fill="#63b8ff" stroke="#63b8ff" points="1093.76,-62 1088.81,-71.37 1098.52,-67.13 1093.76,-62"/>
</a>
</g>
</g>
<!-- Node15 -->
<g id="Node000015" class="node">
<title>Node15</title>
<g id="a_Node000015"><a xlink:href="log_8cpp.html" target="_top" xlink:title=" ">
<polygon fill="white" stroke="#666666" points="1343,-24.5 1228,-24.5 1228,-5.5 1343,-5.5 1343,-24.5"/>
<text text-anchor="middle" x="1285.5" y="-12.5" font-family="Helvetica,sans-Serif" font-size="10.00">src/compiler/log.cpp</text>
</a>
</g>
</g>
<!-- Node9&#45;&gt;Node15 -->
<g id="edge17_Node000009_Node000015" class="edge">
<title>Node9&#45;&gt;Node15</title>
<g id="a_edge17_Node000009_Node000015"><a xlink:title=" ">
<path fill="none" stroke="#63b8ff" d="M1117.08,-68.32C1157.72,-55.7 1221.54,-35.87 1257.83,-24.6"/>
<polygon fill="#63b8ff" stroke="#63b8ff" points="1115.79,-65.06 1107.28,-71.37 1117.87,-71.74 1115.79,-65.06"/>
</a>
</g>
</g>
<!-- Node16 -->
<g id="Node000016" class="node">
<title>Node16</title>
<g id="a_Node000016"><a xlink:href="compiler_2main_8cpp.html" target="_top" xlink:title=" ">
<polygon fill="white" stroke="#666666" points="1486,-24.5 1361,-24.5 1361,-5.5 1486,-5.5 1486,-24.5"/>
<text text-anchor="middle" x="1423.5" y="-12.5" font-family="Helvetica,sans-Serif" font-size="10.00">src/compiler/main.cpp</text>
</a>
</g>
</g>
<!-- Node9&#45;&gt;Node16 -->
<g id="edge18_Node000009_Node000016" class="edge">
<title>Node9&#45;&gt;Node16</title>
<g id="a_edge18_Node000009_Node000016"><a xlink:title=" ">
<path fill="none" stroke="#63b8ff" d="M1136.62,-69.68C1191.68,-59.68 1277.33,-44.03 1351.5,-30 1360.76,-28.25 1370.68,-26.34 1380.11,-24.51"/>
<polygon fill="#63b8ff" stroke="#63b8ff" points="1135.91,-66.25 1126.7,-71.48 1137.16,-73.13 1135.91,-66.25"/>
</a>
</g>
</g>
<!-- Node17 -->
<g id="Node000017" class="node">
<title>Node17</title>
<g id="a_Node000017"><a xlink:href="symbol_8cpp.html" target="_top" xlink:title=" ">
<polygon fill="white" stroke="#666666" points="1640.5,-24.5 1504.5,-24.5 1504.5,-5.5 1640.5,-5.5 1640.5,-24.5"/>
<text text-anchor="middle" x="1572.5" y="-12.5" font-family="Helvetica,sans-Serif" font-size="10.00">src/compiler/symbol.cpp</text>
</a>
</g>
</g>
<!-- Node9&#45;&gt;Node17 -->
<g id="edge19_Node000009_Node000017" class="edge">
<title>Node9&#45;&gt;Node17</title>
<g id="a_edge19_Node000009_Node000017"><a xlink:title=" ">
<path fill="none" stroke="#63b8ff" d="M1161.24,-71.56C1245.07,-62.57 1379.16,-47.29 1494.5,-30 1505.25,-28.39 1516.79,-26.44 1527.61,-24.51"/>
<polygon fill="#63b8ff" stroke="#63b8ff" points="1160.84,-68.08 1151.27,-72.62 1161.59,-75.04 1160.84,-68.08"/>
</a>
</g>
</g>
<!-- Node18 -->
<g id="Node000018" class="node">
<title>Node18</title>
<g id="a_Node000018"><a xlink:href="symbol__table_8cpp.html" target="_top" xlink:title=" ">
<polygon fill="white" stroke="#666666" points="760.5,-30 644.5,-30 644.5,0 760.5,0 760.5,-30"/>
<text text-anchor="start" x="652.5" y="-18" font-family="Helvetica,sans-Serif" font-size="10.00">src/compiler/symbol</text>
<text text-anchor="middle" x="702.5" y="-7" font-family="Helvetica,sans-Serif" font-size="10.00">_table.cpp</text>
</a>
</g>
</g>
<!-- Node9&#45;&gt;Node18 -->
<g id="edge20_Node000009_Node000018" class="edge">
<title>Node9&#45;&gt;Node18</title>
<g id="a_edge20_Node000009_Node000018"><a xlink:title=" ">
<path fill="none" stroke="#63b8ff" d="M1017.18,-69.84C1009.21,-68.55 1001.16,-67.24 993.5,-66 893.96,-49.9 868.66,-48.32 769.5,-30 766.58,-29.46 763.59,-28.89 760.57,-28.31"/>
<polygon fill="#63b8ff" stroke="#63b8ff" points="1016.77,-73.32 1027.2,-71.47 1017.89,-66.41 1016.77,-73.32"/>
</a>
</g>
</g>
<!-- Node9&#45;&gt;Node19 -->
<g id="edge21_Node000009_Node000019" class="edge">
<title>Node9&#45;&gt;Node19</title>
<g id="a_edge21_Node000009_Node000019"><a xlink:title=" ">
<path fill="none" stroke="#63b8ff" d="M1161.48,-76.54C1298.16,-70.29 1581.15,-55.39 1819.5,-30 1833.4,-28.52 1848.38,-26.53 1862.28,-24.51"/>
<polygon fill="#63b8ff" stroke="#63b8ff" points="1160.93,-73.06 1151.1,-77.01 1161.24,-80.05 1160.93,-73.06"/>
</a>
</g>
</g>
<!-- Node21 -->
<g id="Node000021" class="node">
<title>Node21</title>
<g id="a_Node000021"><a xlink:href="heap_8cpp.html" target="_top" xlink:title=" ">
<polygon fill="white" stroke="#666666" points="2234,-24.5 2137,-24.5 2137,-5.5 2234,-5.5 2234,-24.5"/>
<text text-anchor="middle" x="2185.5" y="-12.5" font-family="Helvetica,sans-Serif" font-size="10.00">src/vm/heap.cpp</text>
</a>
</g>
</g>
<!-- Node20&#45;&gt;Node21 -->
<g id="edge26_Node000020_Node000021" class="edge">
<title>Node20&#45;&gt;Node21</title>
<g id="a_edge26_Node000020_Node000021"><a xlink:title=" ">
<path fill="none" stroke="#63b8ff" d="M2119.98,-65.33C2136.65,-52.78 2160.09,-35.13 2173.95,-24.7"/>
<polygon fill="#63b8ff" stroke="#63b8ff" points="2117.85,-62.56 2111.96,-71.37 2122.06,-68.15 2117.85,-62.56"/>
</a>
</g>
</g>
<!-- Node20&#45;&gt;Node22 -->
<g id="edge27_Node000020_Node000022" class="edge">
<title>Node20&#45;&gt;Node22</title>
<g id="a_edge27_Node000020_Node000022"><a xlink:title=" ">
<path fill="none" stroke="#63b8ff" d="M2091.87,-62.18C2085.99,-50.05 2078.47,-34.51 2073.81,-24.91"/>
<polygon fill="#63b8ff" stroke="#63b8ff" points="2088.81,-63.89 2096.32,-71.37 2095.11,-60.84 2088.81,-63.89"/>
</a>
</g>
</g>
<!-- Node20&#45;&gt;Node23 -->
<g id="edge28_Node000020_Node000023" class="edge">
<title>Node20&#45;&gt;Node23</title>
<g id="a_edge28_Node000020_Node000023"><a xlink:title=" ">
<path fill="none" stroke="#63b8ff" d="M2136.75,-68.16C2175.44,-55.53 2235.79,-35.82 2270.17,-24.6"/>
<polygon fill="#63b8ff" stroke="#63b8ff" points="2135.35,-64.94 2126.93,-71.37 2137.53,-71.59 2135.35,-64.94"/>
</a>
</g>
</g>
</g>
</svg>
