<?xml version="1.0" encoding="UTF-8" standalone="no"?>
<!DOCTYPE svg PUBLIC "-//W3C//DTD SVG 1.1//EN"
 "http://www.w3.org/Graphics/SVG/1.1/DTD/svg11.dtd">
<!-- Generated by graphviz version 2.43.0 (0)
 -->
<!-- Title: src/common/bytecode.hpp Pages: 1 -->
<svg width="1662pt" height="159pt"
 viewBox="0.00 0.00 1661.50 159.00" xmlns="http://www.w3.org/2000/svg" xmlns:xlink="http://www.w3.org/1999/xlink">
<g id="graph0" class="graph" transform="scale(1 1) rotate(0) translate(4 155)">
<title>src/common/bytecode.hpp</title>
<!-- Node1 -->
<g id="Node000001" class="node">
<title>Node1</title>
<g id="a_Node000001"><a xlink:title=" ">
<polygon fill="#999999" stroke="#666666" points="547.5,-151 401.5,-151 401.5,-132 547.5,-132 547.5,-151"/>
<text text-anchor="middle" x="474.5" y="-139" font-family="Helvetica,sans-Serif" font-size="10.00">src/common/bytecode.hpp</text>
</a>
</g>
</g>
<!-- Node2 -->
<g id="Node000002" class="node">
<title>Node2</title>
<g id="a_Node000002"><a xlink:href="bcdump_2main_8cpp.html" target="_top" xlink:title=" ">
<polygon fill="white" stroke="#666666" points="121,-90.5 0,-90.5 0,-71.5 121,-71.5 121,-90.5"/>
<text text-anchor="middle" x="60.5" y="-78.5" font-family="Helvetica,sans-Serif" font-size="10.00">src/bcdump/main.cpp</text>
</a>
</g>
</g>
<!-- Node1&#45;&gt;Node2 -->
<g id="edge1_Node000001_Node000002" class="edge">
<title>Node1&#45;&gt;Node2</title>
<g id="a_edge1_Node000001_Node000002"><a xlink:title=" ">
<path fill="none" stroke="#63b8ff" d="M391.16,-131.45C321.13,-123.44 218.51,-110.75 129.5,-96 119.97,-94.42 109.76,-92.48 100.18,-90.56"/>
<polygon fill="#63b8ff" stroke="#63b8ff" points="390.92,-134.95 401.25,-132.6 391.71,-127.99 390.92,-134.95"/>
</a>
</g>
</g>
<!-- Node3 -->
<g id="Node000003" class="node">
<title>Node3</title>
<g id="a_Node000003"><a xlink:href="common_2bytecode_8cpp.html" target="_top" xlink:title=" ">
<polygon fill="white" stroke="#666666" points="284,-90.5 139,-90.5 139,-71.5 284,-71.5 284,-90.5"/>
<text text-anchor="middle" x="211.5" y="-78.5" font-family="Helvetica,sans-Serif" font-size="10.00">src/common/bytecode.cpp</text>
</a>
</g>
</g>
<!-- Node1&#45;&gt;Node3 -->
<g id="edge2_Node000001_Node000003" class="edge">
<title>Node1&#45;&gt;Node3</title>
<g id="a_edge2_Node000001_Node000003"><a xlink:title=" ">
<path fill="none" stroke="#63b8ff" d="M426.49,-129.82C375.7,-118.52 296.56,-100.92 249.79,-90.52"/>
<polygon fill="#63b8ff" stroke="#63b8ff" points="425.74,-133.24 436.26,-131.99 427.26,-126.41 425.74,-133.24"/>
</a>
</g>
</g>
<!-- Node4 -->
<g id="Node000004" class="node">
<title>Node4</title>
<g id="a_Node000004"><a xlink:href="bytecode__stream_8cpp.html" target="_top" xlink:title=" ">
<polygon fill="white" stroke="#666666" points="427,-96 302,-96 302,-66 427,-66 427,-96"/>
<text text-anchor="start" x="310" y="-84" font-family="Helvetica,sans-Serif" font-size="10.00">src/common/bytecode</text>
<text text-anchor="middle" x="364.5" y="-73" font-family="Helvetica,sans-Serif" font-size="10.00">_stream.cpp</text>
</a>
</g>
</g>
<!-- Node1&#45;&gt;Node4 -->
<g id="edge3_Node000001_Node000004" class="edge">
<title>Node1&#45;&gt;Node4</title>
<g id="a_edge3_Node000001_Node000004"><a xlink:title=" ">
<path fill="none" stroke="#63b8ff" d="M449.25,-127.07C431.84,-117.81 408.73,-105.52 391.04,-96.11"/>
<polygon fill="#63b8ff" stroke="#63b8ff" points="447.8,-130.26 458.27,-131.87 451.08,-124.08 447.8,-130.26"/>
</a>
</g>
</g>
<!-- Node5 -->
<g id="Node000005" class="node">
<title>Node5</title>
<g id="a_Node000005"><a xlink:href="compiler_2bytecode_8cpp.html" target="_top" xlink:title=" ">
<polygon fill="white" stroke="#666666" points="285,-24.5 140,-24.5 140,-5.5 285,-5.5 285,-24.5"/>
<text text-anchor="middle" x="212.5" y="-12.5" font-family="Helvetica,sans-Serif" font-size="10.00">src/compiler/bytecode.cpp</text>
</a>
</g>
</g>
<!-- Node1&#45;&gt;Node5 -->
<g id="edge4_Node000001_Node000005" class="edge">
<title>Node1&#45;&gt;Node5</title>
<g id="a_edge4_Node000001_Node000005"><a xlink:title=" ">
<path fill="none" stroke="#63b8ff" d="M469.64,-121.85C464.19,-104.71 453.65,-79.93 435.5,-66 421.67,-55.39 321.73,-35.78 260.43,-24.53"/>
<polygon fill="#63b8ff" stroke="#63b8ff" points="466.38,-123.18 472.51,-131.81 473.1,-121.24 466.38,-123.18"/>
</a>
</g>
</g>
<!-- Node6 -->
<g id="Node000006" class="node">
<title>Node6</title>
<g id="a_Node000006"><a xlink:href="compile_8cpp.html" target="_top" xlink:title=" ">
<polygon fill="white" stroke="#666666" points="442,-24.5 303,-24.5 303,-5.5 442,-5.5 442,-24.5"/>
<text text-anchor="middle" x="372.5" y="-12.5" font-family="Helvetica,sans-Serif" font-size="10.00">src/compiler/compile.cpp</text>
</a>
</g>
</g>
<!-- Node1&#45;&gt;Node6 -->
<g id="edge5_Node000001_Node000006" class="edge">
<title>Node1&#45;&gt;Node6</title>
<g id="a_edge5_Node000001_Node000006"><a xlink:title=" ">
<path fill="none" stroke="#63b8ff" d="M478.08,-121.53C480.05,-105.43 480.26,-82.39 469.5,-66 455.46,-44.62 429.26,-31.88 407.62,-24.62"/>
<polygon fill="#63b8ff" stroke="#63b8ff" points="474.55,-121.41 476.46,-131.84 481.47,-122.5 474.55,-121.41"/>
</a>
</g>
</g>
<!-- Node7 -->
<g id="Node000007" class="node">
<title>Node7</title>
<g id="a_Node000007"><a xlink:href="compiler_8cpp.html" target="_top" xlink:title=" ">
<polygon fill="white" stroke="#666666" points="602.5,-24.5 460.5,-24.5 460.5,-5.5 602.5,-5.5 602.5,-24.5"/>
<text text-anchor="middle" x="531.5" y="-12.5" font-family="Helvetica,sans-Serif" font-size="10.00">src/compiler/compiler.cpp</text>
</a>
</g>
</g>
<!-- Node1&#45;&gt;Node7 -->
<g id="edge6_Node000001_Node000007" class="edge">
<title>Node1&#45;&gt;Node7</title>
<g id="a_edge6_Node000001_Node000007"><a xlink:title=" ">
<path fill="none" stroke="#63b8ff" d="M488.82,-124.09C495.25,-116.05 502.5,-105.98 507.5,-96 519.72,-71.63 526.93,-39.91 529.91,-24.78"/>
<polygon fill="#63b8ff" stroke="#63b8ff" points="486.02,-121.98 482.31,-131.9 491.4,-126.46 486.02,-121.98"/>
</a>
</g>
</g>
<!-- Node8 -->
<g id="Node000008" class="node">
<title>Node8</title>
<g id="a_Node000008"><a xlink:href="compiler_8hpp.html" target="_top" xlink:title=" ">
<polygon fill="white" stroke="#666666" points="925,-90.5 782,-90.5 782,-71.5 925,-71.5 925,-90.5"/>
<text text-anchor="middle" x="853.5" y="-78.5" font-family="Helvetica,sans-Serif" font-size="10.00">src/compiler/compiler.hpp</text>
</a>
</g>
</g>
<!-- Node1&#45;&gt;Node8 -->
<g id="edge7_Node000001_Node000008" class="edge">
<title>Node1&#45;&gt;Node8</title>
<g id="a_edge7_Node000001_Node000008"><a xlink:title=" ">
<path fill="none" stroke="#63b8ff" d="M539.61,-130.45C612.59,-119.19 729.66,-101.11 798.32,-90.52"/>
<polygon fill="#63b8ff" stroke="#63b8ff" points="538.96,-127.01 529.61,-131.99 540.03,-133.93 538.96,-127.01"/>
</a>
</g>
</g>
<!-- Node11 -->
<g id="Node000011" class="node">
<title>Node11</title>
<g id="a_Node000011"><a xlink:href="instruction_8cpp.html" target="_top" xlink:title=" ">
<polygon fill="white" stroke="#666666" points="1653.5,-24.5 1501.5,-24.5 1501.5,-5.5 1653.5,-5.5 1653.5,-24.5"/>
<text text-anchor="middle" x="1577.5" y="-12.5" font-family="Helvetica,sans-Serif" font-size="10.00">src/compiler/instruction.cpp</text>
</a>
</g>
</g>
<!-- Node1&#45;&gt;Node11 -->
<g id="edge18_Node000001_Node000011" class="edge">
<title>Node1&#45;&gt;Node11</title>
<g id="a_edge18_Node000001_Node000011"><a xlink:title=" ">
<path fill="none" stroke="#63b8ff" d="M557.64,-133.31C731.58,-117.86 1146.46,-78.9 1492.5,-30 1504.05,-28.37 1516.45,-26.43 1528.12,-24.53"/>
<polygon fill="#63b8ff" stroke="#63b8ff" points="557.18,-129.83 547.53,-134.2 557.8,-136.81 557.18,-129.83"/>
</a>
</g>
</g>
<!-- Node8&#45;&gt;Node5 -->
<g id="edge10_Node000008_Node000005" class="edge">
<title>Node8&#45;&gt;Node5</title>
<g id="a_edge10_Node000008_Node000005"><a xlink:title=" ">
<path fill="none" stroke="#63b8ff" d="M771.39,-74.79C662.05,-67.36 462.74,-52.14 293.5,-30 281.9,-28.48 269.42,-26.5 257.81,-24.51"/>
<polygon fill="#63b8ff" stroke="#63b8ff" points="771.48,-78.3 781.69,-75.48 771.95,-71.32 771.48,-78.3"/>
</a>
</g>
</g>
<!-- Node8&#45;&gt;Node6 -->
<g id="edge11_Node000008_Node000006" class="edge">
<title>Node8&#45;&gt;Node6</title>
<g id="a_edge11_Node000008_Node000006"><a xlink:title=" ">
<path fill="none" stroke="#63b8ff" d="M771.64,-71.07C690.29,-61.91 562.04,-46.66 451.5,-30 440.76,-28.38 429.23,-26.45 418.39,-24.54"/>
<polygon fill="#63b8ff" stroke="#63b8ff" points="771.49,-74.58 781.82,-72.22 772.27,-67.62 771.49,-74.58"/>
</a>
</g>
</g>
<!-- Node8&#45;&gt;Node7 -->
<g id="edge12_Node000008_Node000007" class="edge">
<title>Node8&#45;&gt;Node7</title>
<g id="a_edge12_Node000008_Node000007"><a xlink:title=" ">
<path fill="none" stroke="#63b8ff" d="M800.24,-69.41C736.96,-56.84 632.64,-36.1 574.34,-24.51"/>
<polygon fill="#63b8ff" stroke="#63b8ff" points="799.92,-72.92 810.41,-71.44 801.28,-66.05 799.92,-72.92"/>
</a>
</g>
</g>
<!-- Node9 -->
<g id="Node000009" class="node">
<title>Node9</title>
<g id="a_Node000009"><a xlink:href="CompilerSyntaxException_8cpp.html" target="_top" xlink:title=" ">
<polygon fill="white" stroke="#666666" points="778.5,-30 620.5,-30 620.5,0 778.5,0 778.5,-30"/>
<text text-anchor="start" x="628.5" y="-18" font-family="Helvetica,sans-Serif" font-size="10.00">src/compiler/CompilerSyntax</text>
<text text-anchor="middle" x="699.5" y="-7" font-family="Helvetica,sans-Serif" font-size="10.00">Exception.cpp</text>
</a>
</g>
</g>
<!-- Node8&#45;&gt;Node9 -->
<g id="edge8_Node000008_Node000009" class="edge">
<title>Node8&#45;&gt;Node9</title>
<g id="a_edge8_Node000008_Node000009"><a xlink:title=" ">
<path fill="none" stroke="#63b8ff" d="M823.43,-67.5C797.6,-56.77 760.37,-41.3 733.47,-30.12"/>
<polygon fill="#63b8ff" stroke="#63b8ff" points="822.15,-70.76 832.73,-71.37 824.84,-64.3 822.15,-70.76"/>
</a>
</g>
</g>
<!-- Node10 -->
<g id="Node000010" class="node">
<title>Node10</title>
<g id="a_Node000010"><a xlink:href="ast_8cpp.html" target="_top" xlink:title=" ">
<polygon fill="white" stroke="#666666" points="911,-24.5 796,-24.5 796,-5.5 911,-5.5 911,-24.5"/>
<text text-anchor="middle" x="853.5" y="-12.5" font-family="Helvetica,sans-Serif" font-size="10.00">src/compiler/ast.cpp</text>
</a>
</g>
</g>
<!-- Node8&#45;&gt;Node10 -->
<g id="edge9_Node000008_Node000010" class="edge">
<title>Node8&#45;&gt;Node10</title>
<g id="a_edge9_Node000008_Node000010"><a xlink:title=" ">
<path fill="none" stroke="#63b8ff" d="M853.5,-61.08C853.5,-49.13 853.5,-34.22 853.5,-24.91"/>
<polygon fill="#63b8ff" stroke="#63b8ff" points="850,-61.37 853.5,-71.37 857,-61.37 850,-61.37"/>
</a>
</g>
</g>
<!-- Node8&#45;&gt;Node11 -->
<g id="edge13_Node000008_Node000011" class="edge">
<title>Node8&#45;&gt;Node11</title>
<g id="a_edge13_Node000008_Node000011"><a xlink:title=" ">
<path fill="none" stroke="#63b8ff" d="M935.08,-75.85C1056.77,-69.15 1292.92,-54.2 1492.5,-30 1504.67,-28.52 1517.77,-26.56 1529.95,-24.57"/>
<polygon fill="#63b8ff" stroke="#63b8ff" points="934.89,-72.35 925.09,-76.39 935.27,-79.34 934.89,-72.35"/>
</a>
</g>
</g>
<!-- Node12 -->
<g id="Node000012" class="node">
<title>Node12</title>
<g id="a_Node000012"><a xlink:href="lexer_8cpp.html" target="_top" xlink:title=" ">
<polygon fill="white" stroke="#666666" points="1052,-24.5 929,-24.5 929,-5.5 1052,-5.5 1052,-24.5"/>
<text text-anchor="middle" x="990.5" y="-12.5" font-family="Helvetica,sans-Serif" font-size="10.00">src/compiler/lexer.cpp</text>
</a>
</g>
</g>
<!-- Node8&#45;&gt;Node12 -->
<g id="edge14_Node000008_Node000012" class="edge">
<title>Node8&#45;&gt;Node12</title>
<g id="a_edge14_Node000008_Node000012"><a xlink:title=" ">
<path fill="none" stroke="#63b8ff" d="M881.27,-67.03C908.27,-54.42 948.52,-35.61 971.88,-24.7"/>
<polygon fill="#63b8ff" stroke="#63b8ff" points="879.56,-63.97 871.98,-71.37 882.52,-70.31 879.56,-63.97"/>
</a>
</g>
</g>
<!-- Node13 -->
<g id="Node000013" class="node">
<title>Node13</title>
<g id="a_Node000013"><a xlink:href="compiler_2main_8cpp.html" target="_top" xlink:title=" ">
<polygon fill="white" stroke="#666666" points="1195,-24.5 1070,-24.5 1070,-5.5 1195,-5.5 1195,-24.5"/>
<text text-anchor="middle" x="1132.5" y="-12.5" font-family="Helvetica,sans-Serif" font-size="10.00">src/compiler/main.cpp</text>
</a>
</g>
</g>
<!-- Node8&#45;&gt;Node13 -->
<g id="edge15_Node000008_Node000013" class="edge">
<title>Node8&#45;&gt;Node13</title>
<g id="a_edge15_Node000008_Node000013"><a xlink:title=" ">
<path fill="none" stroke="#63b8ff" d="M900.67,-69.18C955.6,-56.58 1045.18,-36.03 1095.38,-24.51"/>
<polygon fill="#63b8ff" stroke="#63b8ff" points="899.8,-65.79 890.84,-71.44 901.37,-72.61 899.8,-65.79"/>
</a>
</g>
</g>
<!-- Node14 -->
<g id="Node000014" class="node">
<title>Node14</title>
<g id="a_Node000014"><a xlink:href="symbol_8cpp.html" target="_top" xlink:title=" ">
<polygon fill="white" stroke="#666666" points="1349.5,-24.5 1213.5,-24.5 1213.5,-5.5 1349.5,-5.5 1349.5,-24.5"/>
<text text-anchor="middle" x="1281.5" y="-12.5" font-family="Helvetica,sans-Serif" font-size="10.00">src/compiler/symbol.cpp</text>
</a>
</g>
</g>
<!-- Node8&#45;&gt;Node14 -->
<g id="edge16_Node000008_Node000014" class="edge">
<title>Node8&#45;&gt;Node14</title>
<g id="a_edge16_Node000008_Node000014"><a xlink:title=" ">
<path fill="none" stroke="#63b8ff" d="M928.84,-70.12C1000.01,-60.58 1109.67,-45.37 1204.5,-30 1214.83,-28.33 1225.91,-26.39 1236.36,-24.51"/>
<polygon fill="#63b8ff" stroke="#63b8ff" points="928.08,-66.69 918.63,-71.48 929,-73.63 928.08,-66.69"/>
</a>
</g>
</g>
<!-- Node15 -->
<g id="Node000015" class="node">
<title>Node15</title>
<g id="a_Node000015"><a xlink:href="symbol__table_8cpp.html" target="_top" xlink:title=" ">
<polygon fill="white" stroke="#666666" points="1483.5,-30 1367.5,-30 1367.5,0 1483.5,0 1483.5,-30"/>
<text text-anchor="start" x="1375.5" y="-18" font-family="Helvetica,sans-Serif" font-size="10.00">src/compiler/symbol</text>
<text text-anchor="middle" x="1425.5" y="-7" font-family="Helvetica,sans-Serif" font-size="10.00">_table.cpp</text>
</a>
</g>
</g>
<!-- Node8&#45;&gt;Node15 -->
<g id="edge17_Node000008_Node000015" class="edge">
<title>Node8&#45;&gt;Node15</title>
<g id="a_edge17_Node000008_Node000015"><a xlink:title=" ">
<path fill="none" stroke="#63b8ff" d="M935.36,-74.61C1035.53,-67.39 1210.11,-52.78 1358.5,-30 1361.44,-29.55 1364.44,-29.05 1367.46,-28.52"/>
<polygon fill="#63b8ff" stroke="#63b8ff" points="935.03,-71.12 925.31,-75.33 935.53,-78.11 935.03,-71.12"/>
</a>
</g>
</g>
</g>
</svg>
