<?xml version="1.0" encoding="UTF-8" standalone="no"?>
<!DOCTYPE svg PUBLIC "-//W3C//DTD SVG 1.1//EN"
 "http://www.w3.org/Graphics/SVG/1.1/DTD/svg11.dtd">
<!-- Generated by graphviz version 2.43.0 (0)
 -->
<!-- Title: src/common/bytecode.hpp Pages: 1 -->
<svg width="1808pt" height="159pt"
 viewBox="0.00 0.00 1808.00 159.00" xmlns="http://www.w3.org/2000/svg" xmlns:xlink="http://www.w3.org/1999/xlink">
<g id="graph0" class="graph" transform="scale(1 1) rotate(0) translate(4 155)">
<title>src/common/bytecode.hpp</title>
<!-- Node1 -->
<g id="Node000001" class="node">
<title>Node1</title>
<g id="a_Node000001"><a xlink:title=" ">
<polygon fill="#999999" stroke="#666666" points="675,-151 529,-151 529,-132 675,-132 675,-151"/>
<text text-anchor="middle" x="602" y="-139" font-family="Helvetica,sans-Serif" font-size="10.00">src/common/bytecode.hpp</text>
</a>
</g>
</g>
<!-- Node2 -->
<g id="Node000002" class="node">
<title>Node2</title>
<g id="a_Node000002"><a xlink:href="bcdisasm_2main_8cpp.html" target="_top" xlink:title=" ">
<polygon fill="white" stroke="#666666" points="128,-90.5 0,-90.5 0,-71.5 128,-71.5 128,-90.5"/>
<text text-anchor="middle" x="64" y="-78.5" font-family="Helvetica,sans-Serif" font-size="10.00">src/bcdisasm/main.cpp</text>
</a>
</g>
</g>
<!-- Node1&#45;&gt;Node2 -->
<g id="edge1_Node000001_Node000002" class="edge">
<title>Node1&#45;&gt;Node2</title>
<g id="a_edge1_Node000001_Node000002"><a xlink:title=" ">
<path fill="none" stroke="#63b8ff" d="M518.64,-134.9C425.36,-128.08 269.89,-115.06 137,-96 126.53,-94.5 115.27,-92.52 104.81,-90.53"/>
<polygon fill="#63b8ff" stroke="#63b8ff" points="518.63,-138.41 528.86,-135.64 519.14,-131.42 518.63,-138.41"/>
</a>
</g>
</g>
<!-- Node3 -->
<g id="Node000003" class="node">
<title>Node3</title>
<g id="a_Node000003"><a xlink:href="bcdump_2main_8cpp.html" target="_top" xlink:title=" ">
<polygon fill="white" stroke="#666666" points="267.5,-90.5 146.5,-90.5 146.5,-71.5 267.5,-71.5 267.5,-90.5"/>
<text text-anchor="middle" x="207" y="-78.5" font-family="Helvetica,sans-Serif" font-size="10.00">src/bcdump/main.cpp</text>
</a>
</g>
</g>
<!-- Node1&#45;&gt;Node3 -->
<g id="edge2_Node000001_Node000003" class="edge">
<title>Node1&#45;&gt;Node3</title>
<g id="a_edge2_Node000001_Node000003"><a xlink:title=" ">
<path fill="none" stroke="#63b8ff" d="M519.67,-130.75C453.63,-122.58 358.63,-110.01 276,-96 266.48,-94.39 256.26,-92.44 246.69,-90.51"/>
<polygon fill="#63b8ff" stroke="#63b8ff" points="519.26,-134.23 529.61,-131.98 520.11,-127.28 519.26,-134.23"/>
</a>
</g>
</g>
<!-- Node4 -->
<g id="Node000004" class="node">
<title>Node4</title>
<g id="a_Node000004"><a xlink:href="common_2bytecode_8cpp.html" target="_top" xlink:title=" ">
<polygon fill="white" stroke="#666666" points="430.5,-90.5 285.5,-90.5 285.5,-71.5 430.5,-71.5 430.5,-90.5"/>
<text text-anchor="middle" x="358" y="-78.5" font-family="Helvetica,sans-Serif" font-size="10.00">src/common/bytecode.cpp</text>
</a>
</g>
</g>
<!-- Node1&#45;&gt;Node4 -->
<g id="edge3_Node000001_Node000004" class="edge">
<title>Node1&#45;&gt;Node4</title>
<g id="a_edge3_Node000001_Node000004"><a xlink:title=" ">
<path fill="none" stroke="#63b8ff" d="M556.58,-129.61C509.42,-118.3 436.64,-100.85 393.52,-90.52"/>
<polygon fill="#63b8ff" stroke="#63b8ff" points="555.98,-133.07 566.52,-131.99 557.61,-126.26 555.98,-133.07"/>
</a>
</g>
</g>
<!-- Node5 -->
<g id="Node000005" class="node">
<title>Node5</title>
<g id="a_Node000005"><a xlink:href="bytecode__stream_8cpp.html" target="_top" xlink:title=" ">
<polygon fill="white" stroke="#666666" points="573.5,-96 448.5,-96 448.5,-66 573.5,-66 573.5,-96"/>
<text text-anchor="start" x="456.5" y="-84" font-family="Helvetica,sans-Serif" font-size="10.00">src/common/bytecode</text>
<text text-anchor="middle" x="511" y="-73" font-family="Helvetica,sans-Serif" font-size="10.00">_stream.cpp</text>
</a>
</g>
</g>
<!-- Node1&#45;&gt;Node5 -->
<g id="edge4_Node000001_Node000005" class="edge">
<title>Node1&#45;&gt;Node5</title>
<g id="a_edge4_Node000001_Node000005"><a xlink:title=" ">
<path fill="none" stroke="#63b8ff" d="M579.9,-126.29C565.65,-117.13 547.18,-105.26 532.96,-96.11"/>
<polygon fill="#63b8ff" stroke="#63b8ff" points="578.27,-129.4 588.57,-131.87 582.05,-123.52 578.27,-129.4"/>
</a>
</g>
</g>
<!-- Node6 -->
<g id="Node000006" class="node">
<title>Node6</title>
<g id="a_Node000006"><a xlink:href="compiler_2bytecode_8cpp.html" target="_top" xlink:title=" ">
<polygon fill="white" stroke="#666666" points="431.5,-24.5 286.5,-24.5 286.5,-5.5 431.5,-5.5 431.5,-24.5"/>
<text text-anchor="middle" x="359" y="-12.5" font-family="Helvetica,sans-Serif" font-size="10.00">src/compiler/bytecode.cpp</text>
</a>
</g>
</g>
<!-- Node1&#45;&gt;Node6 -->
<g id="edge5_Node000001_Node000006" class="edge">
<title>Node1&#45;&gt;Node6</title>
<g id="a_edge5_Node000001_Node000006"><a xlink:title=" ">
<path fill="none" stroke="#63b8ff" d="M602.1,-121.37C601.12,-104.45 596.92,-80.31 582,-66 575.48,-59.74 465.22,-37.05 402.23,-24.5"/>
<polygon fill="#63b8ff" stroke="#63b8ff" points="598.61,-121.8 602.36,-131.71 605.61,-121.63 598.61,-121.8"/>
</a>
</g>
</g>
<!-- Node7 -->
<g id="Node000007" class="node">
<title>Node7</title>
<g id="a_Node000007"><a xlink:href="compile_8cpp.html" target="_top" xlink:title=" ">
<polygon fill="white" stroke="#666666" points="588.5,-24.5 449.5,-24.5 449.5,-5.5 588.5,-5.5 588.5,-24.5"/>
<text text-anchor="middle" x="519" y="-12.5" font-family="Helvetica,sans-Serif" font-size="10.00">src/compiler/compile.cpp</text>
</a>
</g>
</g>
<!-- Node1&#45;&gt;Node7 -->
<g id="edge6_Node000001_Node000007" class="edge">
<title>Node1&#45;&gt;Node7</title>
<g id="a_edge6_Node000001_Node000007"><a xlink:title=" ">
<path fill="none" stroke="#63b8ff" d="M611.89,-122.75C619.32,-106.82 626.56,-83.33 616,-66 602.88,-44.48 577.22,-31.83 555.58,-24.64"/>
<polygon fill="#63b8ff" stroke="#63b8ff" points="608.6,-121.5 607.16,-131.99 614.83,-124.68 608.6,-121.5"/>
</a>
</g>
</g>
<!-- Node8 -->
<g id="Node000008" class="node">
<title>Node8</title>
<g id="a_Node000008"><a xlink:href="compiler_8cpp.html" target="_top" xlink:title=" ">
<polygon fill="white" stroke="#666666" points="749,-24.5 607,-24.5 607,-5.5 749,-5.5 749,-24.5"/>
<text text-anchor="middle" x="678" y="-12.5" font-family="Helvetica,sans-Serif" font-size="10.00">src/compiler/compiler.cpp</text>
</a>
</g>
</g>
<!-- Node1&#45;&gt;Node8 -->
<g id="edge7_Node000001_Node000008" class="edge">
<title>Node1&#45;&gt;Node8</title>
<g id="a_edge7_Node000001_Node000008"><a xlink:title=" ">
<path fill="none" stroke="#63b8ff" d="M624.17,-126.04C634.55,-118.25 646.3,-107.82 654,-96 669.03,-72.91 674.97,-40.03 677.03,-24.61"/>
<polygon fill="#63b8ff" stroke="#63b8ff" points="622.01,-123.28 615.89,-131.93 626.07,-128.98 622.01,-123.28"/>
</a>
</g>
</g>
<!-- Node9 -->
<g id="Node000009" class="node">
<title>Node9</title>
<g id="a_Node000009"><a xlink:href="compiler_8hpp.html" target="_top" xlink:title=" ">
<polygon fill="white" stroke="#666666" points="1071.5,-90.5 928.5,-90.5 928.5,-71.5 1071.5,-71.5 1071.5,-90.5"/>
<text text-anchor="middle" x="1000" y="-78.5" font-family="Helvetica,sans-Serif" font-size="10.00">src/compiler/compiler.hpp</text>
</a>
</g>
</g>
<!-- Node1&#45;&gt;Node9 -->
<g id="edge8_Node000001_Node000009" class="edge">
<title>Node1&#45;&gt;Node9</title>
<g id="a_edge8_Node000001_Node000009"><a xlink:title=" ">
<path fill="none" stroke="#63b8ff" d="M669.9,-130.52C746.51,-119.26 869.81,-101.14 942.06,-90.52"/>
<polygon fill="#63b8ff" stroke="#63b8ff" points="669.26,-127.08 659.87,-131.99 670.28,-134 669.26,-127.08"/>
</a>
</g>
</g>
<!-- Node12 -->
<g id="Node000012" class="node">
<title>Node12</title>
<g id="a_Node000012"><a xlink:href="instruction_8cpp.html" target="_top" xlink:title=" ">
<polygon fill="white" stroke="#666666" points="1800,-24.5 1648,-24.5 1648,-5.5 1800,-5.5 1800,-24.5"/>
<text text-anchor="middle" x="1724" y="-12.5" font-family="Helvetica,sans-Serif" font-size="10.00">src/compiler/instruction.cpp</text>
</a>
</g>
</g>
<!-- Node1&#45;&gt;Node12 -->
<g id="edge19_Node000001_Node000012" class="edge">
<title>Node1&#45;&gt;Node12</title>
<g id="a_edge19_Node000001_Node000012"><a xlink:title=" ">
<path fill="none" stroke="#63b8ff" d="M685.12,-133.59C861.38,-118.51 1285.52,-79.95 1639,-30 1650.55,-28.37 1662.95,-26.43 1674.62,-24.53"/>
<polygon fill="#63b8ff" stroke="#63b8ff" points="684.8,-130.1 675.13,-134.44 685.39,-137.08 684.8,-130.1"/>
</a>
</g>
</g>
<!-- Node9&#45;&gt;Node6 -->
<g id="edge11_Node000009_Node000006" class="edge">
<title>Node9&#45;&gt;Node6</title>
<g id="a_edge11_Node000009_Node000006"><a xlink:title=" ">
<path fill="none" stroke="#63b8ff" d="M917.89,-74.79C808.55,-67.36 609.24,-52.14 440,-30 428.4,-28.48 415.92,-26.5 404.31,-24.51"/>
<polygon fill="#63b8ff" stroke="#63b8ff" points="917.98,-78.3 928.19,-75.48 918.45,-71.32 917.98,-78.3"/>
</a>
</g>
</g>
<!-- Node9&#45;&gt;Node7 -->
<g id="edge12_Node000009_Node000007" class="edge">
<title>Node9&#45;&gt;Node7</title>
<g id="a_edge12_Node000009_Node000007"><a xlink:title=" ">
<path fill="none" stroke="#63b8ff" d="M918.14,-71.07C836.79,-61.91 708.54,-46.66 598,-30 587.26,-28.38 575.73,-26.45 564.89,-24.54"/>
<polygon fill="#63b8ff" stroke="#63b8ff" points="917.99,-74.58 928.32,-72.22 918.77,-67.62 917.99,-74.58"/>
</a>
</g>
</g>
<!-- Node9&#45;&gt;Node8 -->
<g id="edge13_Node000009_Node000008" class="edge">
<title>Node9&#45;&gt;Node8</title>
<g id="a_edge13_Node000009_Node000008"><a xlink:title=" ">
<path fill="none" stroke="#63b8ff" d="M946.74,-69.41C883.46,-56.84 779.14,-36.1 720.84,-24.51"/>
<polygon fill="#63b8ff" stroke="#63b8ff" points="946.42,-72.92 956.91,-71.44 947.78,-66.05 946.42,-72.92"/>
</a>
</g>
</g>
<!-- Node10 -->
<g id="Node000010" class="node">
<title>Node10</title>
<g id="a_Node000010"><a xlink:href="CompilerSyntaxException_8cpp.html" target="_top" xlink:title=" ">
<polygon fill="white" stroke="#666666" points="925,-30 767,-30 767,0 925,0 925,-30"/>
<text text-anchor="start" x="775" y="-18" font-family="Helvetica,sans-Serif" font-size="10.00">src/compiler/CompilerSyntax</text>
<text text-anchor="middle" x="846" y="-7" font-family="Helvetica,sans-Serif" font-size="10.00">Exception.cpp</text>
</a>
</g>
</g>
<!-- Node9&#45;&gt;Node10 -->
<g id="edge9_Node000009_Node000010" class="edge">
<title>Node9&#45;&gt;Node10</title>
<g id="a_edge9_Node000009_Node000010"><a xlink:title=" ">
<path fill="none" stroke="#63b8ff" d="M969.93,-67.5C944.1,-56.77 906.87,-41.3 879.97,-30.12"/>
<polygon fill="#63b8ff" stroke="#63b8ff" points="968.65,-70.76 979.23,-71.37 971.34,-64.3 968.65,-70.76"/>
</a>
</g>
</g>
<!-- Node11 -->
<g id="Node000011" class="node">
<title>Node11</title>
<g id="a_Node000011"><a xlink:href="ast_8cpp.html" target="_top" xlink:title=" ">
<polygon fill="white" stroke="#666666" points="1057.5,-24.5 942.5,-24.5 942.5,-5.5 1057.5,-5.5 1057.5,-24.5"/>
<text text-anchor="middle" x="1000" y="-12.5" font-family="Helvetica,sans-Serif" font-size="10.00">src/compiler/ast.cpp</text>
</a>
</g>
</g>
<!-- Node9&#45;&gt;Node11 -->
<g id="edge10_Node000009_Node000011" class="edge">
<title>Node9&#45;&gt;Node11</title>
<g id="a_edge10_Node000009_Node000011"><a xlink:title=" ">
<path fill="none" stroke="#63b8ff" d="M1000,-61.08C1000,-49.13 1000,-34.22 1000,-24.91"/>
<polygon fill="#63b8ff" stroke="#63b8ff" points="996.5,-61.37 1000,-71.37 1003.5,-61.37 996.5,-61.37"/>
</a>
</g>
</g>
<!-- Node9&#45;&gt;Node12 -->
<g id="edge14_Node000009_Node000012" class="edge">
<title>Node9&#45;&gt;Node12</title>
<g id="a_edge14_Node000009_Node000012"><a xlink:title=" ">
<path fill="none" stroke="#63b8ff" d="M1081.58,-75.85C1203.27,-69.15 1439.42,-54.2 1639,-30 1651.17,-28.52 1664.27,-26.56 1676.45,-24.57"/>
<polygon fill="#63b8ff" stroke="#63b8ff" points="1081.39,-72.35 1071.59,-76.39 1081.77,-79.34 1081.39,-72.35"/>
</a>
</g>
</g>
<!-- Node13 -->
<g id="Node000013" class="node">
<title>Node13</title>
<g id="a_Node000013"><a xlink:href="lexer_8cpp.html" target="_top" xlink:title=" ">
<polygon fill="white" stroke="#666666" points="1198.5,-24.5 1075.5,-24.5 1075.5,-5.5 1198.5,-5.5 1198.5,-24.5"/>
<text text-anchor="middle" x="1137" y="-12.5" font-family="Helvetica,sans-Serif" font-size="10.00">src/compiler/lexer.cpp</text>
</a>
</g>
</g>
<!-- Node9&#45;&gt;Node13 -->
<g id="edge15_Node000009_Node000013" class="edge">
<title>Node9&#45;&gt;Node13</title>
<g id="a_edge15_Node000009_Node000013"><a xlink:title=" ">
<path fill="none" stroke="#63b8ff" d="M1027.77,-67.03C1054.77,-54.42 1095.02,-35.61 1118.38,-24.7"/>
<polygon fill="#63b8ff" stroke="#63b8ff" points="1026.06,-63.97 1018.48,-71.37 1029.02,-70.31 1026.06,-63.97"/>
</a>
</g>
</g>
<!-- Node14 -->
<g id="Node000014" class="node">
<title>Node14</title>
<g id="a_Node000014"><a xlink:href="compiler_2main_8cpp.html" target="_top" xlink:title=" ">
<polygon fill="white" stroke="#666666" points="1341.5,-24.5 1216.5,-24.5 1216.5,-5.5 1341.5,-5.5 1341.5,-24.5"/>
<text text-anchor="middle" x="1279" y="-12.5" font-family="Helvetica,sans-Serif" font-size="10.00">src/compiler/main.cpp</text>
</a>
</g>
</g>
<!-- Node9&#45;&gt;Node14 -->
<g id="edge16_Node000009_Node000014" class="edge">
<title>Node9&#45;&gt;Node14</title>
<g id="a_edge16_Node000009_Node000014"><a xlink:title=" ">
<path fill="none" stroke="#63b8ff" d="M1047.17,-69.18C1102.1,-56.58 1191.68,-36.03 1241.88,-24.51"/>
<polygon fill="#63b8ff" stroke="#63b8ff" points="1046.3,-65.79 1037.34,-71.44 1047.87,-72.61 1046.3,-65.79"/>
</a>
</g>
</g>
<!-- Node15 -->
<g id="Node000015" class="node">
<title>Node15</title>
<g id="a_Node000015"><a xlink:href="symbol_8cpp.html" target="_top" xlink:title=" ">
<polygon fill="white" stroke="#666666" points="1496,-24.5 1360,-24.5 1360,-5.5 1496,-5.5 1496,-24.5"/>
<text text-anchor="middle" x="1428" y="-12.5" font-family="Helvetica,sans-Serif" font-size="10.00">src/compiler/symbol.cpp</text>
</a>
</g>
</g>
<!-- Node9&#45;&gt;Node15 -->
<g id="edge17_Node000009_Node000015" class="edge">
<title>Node9&#45;&gt;Node15</title>
<g id="a_edge17_Node000009_Node000015"><a xlink:title=" ">
<path fill="none" stroke="#63b8ff" d="M1075.34,-70.12C1146.51,-60.58 1256.17,-45.37 1351,-30 1361.33,-28.33 1372.41,-26.39 1382.86,-24.51"/>
<polygon fill="#63b8ff" stroke="#63b8ff" points="1074.58,-66.69 1065.13,-71.48 1075.5,-73.63 1074.58,-66.69"/>
</a>
</g>
</g>
<!-- Node16 -->
<g id="Node000016" class="node">
<title>Node16</title>
<g id="a_Node000016"><a xlink:href="symbol__table_8cpp.html" target="_top" xlink:title=" ">
<polygon fill="white" stroke="#666666" points="1630,-30 1514,-30 1514,0 1630,0 1630,-30"/>
<text text-anchor="start" x="1522" y="-18" font-family="Helvetica,sans-Serif" font-size="10.00">src/compiler/symbol</text>
<text text-anchor="middle" x="1572" y="-7" font-family="Helvetica,sans-Serif" font-size="10.00">_table.cpp</text>
</a>
</g>
</g>
<!-- Node9&#45;&gt;Node16 -->
<g id="edge18_Node000009_Node000016" class="edge">
<title>Node9&#45;&gt;Node16</title>
<g id="a_edge18_Node000009_Node000016"><a xlink:title=" ">
<path fill="none" stroke="#63b8ff" d="M1081.86,-74.61C1182.03,-67.39 1356.61,-52.78 1505,-30 1507.94,-29.55 1510.94,-29.05 1513.96,-28.52"/>
<polygon fill="#63b8ff" stroke="#63b8ff" points="1081.53,-71.12 1071.81,-75.33 1082.03,-78.11 1081.53,-71.12"/>
</a>
</g>
</g>
</g>
</svg>
