<?xml version="1.0" encoding="UTF-8" standalone="no"?>
<!DOCTYPE svg PUBLIC "-//W3C//DTD SVG 1.1//EN"
 "http://www.w3.org/Graphics/SVG/1.1/DTD/svg11.dtd">
<!-- Generated by graphviz version 2.43.0 (0)
 -->
<!-- Title: src/common/bytecode.hpp Pages: 1 -->
<svg width="1861pt" height="159pt"
 viewBox="0.00 0.00 1861.00 159.00" xmlns="http://www.w3.org/2000/svg" xmlns:xlink="http://www.w3.org/1999/xlink">
<g id="graph0" class="graph" transform="scale(1 1) rotate(0) translate(4 155)">
<title>src/common/bytecode.hpp</title>
<!-- Node1 -->
<g id="Node000001" class="node">
<title>Node1</title>
<g id="a_Node000001"><a xlink:title=" ">
<polygon fill="#999999" stroke="#666666" points="790.5,-151 644.5,-151 644.5,-132 790.5,-132 790.5,-151"/>
<text text-anchor="middle" x="717.5" y="-139" font-family="Helvetica,sans-Serif" font-size="10.00">src/common/bytecode.hpp</text>
</a>
</g>
</g>
<!-- Node2 -->
<g id="Node000002" class="node">
<title>Node2</title>
<g id="a_Node000002"><a xlink:href="bcdisasm_2main_8cpp.html" target="_top" xlink:title=" ">
<polygon fill="white" stroke="#666666" points="186.5,-90.5 58.5,-90.5 58.5,-71.5 186.5,-71.5 186.5,-90.5"/>
<text text-anchor="middle" x="122.5" y="-78.5" font-family="Helvetica,sans-Serif" font-size="10.00">src/bcdisasm/main.cpp</text>
</a>
</g>
</g>
<!-- Node1&#45;&gt;Node2 -->
<g id="edge1_Node000001_Node000002" class="edge">
<title>Node1&#45;&gt;Node2</title>
<g id="a_edge1_Node000001_Node000002"><a xlink:title=" ">
<path fill="none" stroke="#63b8ff" d="M634.13,-136.08C530.83,-130 349.62,-117.29 195.5,-96 184.89,-94.53 173.49,-92.55 162.92,-90.53"/>
<polygon fill="#63b8ff" stroke="#63b8ff" points="633.99,-139.58 644.18,-136.67 634.4,-132.59 633.99,-139.58"/>
</a>
</g>
</g>
<!-- Node3 -->
<g id="Node000003" class="node">
<title>Node3</title>
<g id="a_Node000003"><a xlink:href="bcdump_2main_8cpp.html" target="_top" xlink:title=" ">
<polygon fill="white" stroke="#666666" points="326,-90.5 205,-90.5 205,-71.5 326,-71.5 326,-90.5"/>
<text text-anchor="middle" x="265.5" y="-78.5" font-family="Helvetica,sans-Serif" font-size="10.00">src/bcdump/main.cpp</text>
</a>
</g>
</g>
<!-- Node1&#45;&gt;Node3 -->
<g id="edge2_Node000001_Node000003" class="edge">
<title>Node1&#45;&gt;Node3</title>
<g id="a_edge2_Node000001_Node000003"><a xlink:title=" ">
<path fill="none" stroke="#63b8ff" d="M633.96,-132.85C556.18,-125.24 437.15,-112.35 334.5,-96 324.84,-94.46 314.48,-92.52 304.8,-90.57"/>
<polygon fill="#63b8ff" stroke="#63b8ff" points="633.89,-136.36 644.18,-133.84 634.57,-129.39 633.89,-136.36"/>
</a>
</g>
</g>
<!-- Node4 -->
<g id="Node000004" class="node">
<title>Node4</title>
<g id="a_Node000004"><a xlink:href="common_2bytecode_8cpp.html" target="_top" xlink:title=" ">
<polygon fill="white" stroke="#666666" points="489,-90.5 344,-90.5 344,-71.5 489,-71.5 489,-90.5"/>
<text text-anchor="middle" x="416.5" y="-78.5" font-family="Helvetica,sans-Serif" font-size="10.00">src/common/bytecode.cpp</text>
</a>
</g>
</g>
<!-- Node1&#45;&gt;Node4 -->
<g id="edge3_Node000001_Node000004" class="edge">
<title>Node1&#45;&gt;Node4</title>
<g id="a_edge3_Node000001_Node000004"><a xlink:title=" ">
<path fill="none" stroke="#63b8ff" d="M663.64,-130.03C605.56,-118.74 514.18,-100.98 460.32,-90.52"/>
<polygon fill="#63b8ff" stroke="#63b8ff" points="663.25,-133.52 673.73,-131.99 664.58,-126.65 663.25,-133.52"/>
</a>
</g>
</g>
<!-- Node5 -->
<g id="Node000005" class="node">
<title>Node5</title>
<g id="a_Node000005"><a xlink:href="bytecode__stream_8cpp.html" target="_top" xlink:title=" ">
<polygon fill="white" stroke="#666666" points="632,-96 507,-96 507,-66 632,-66 632,-96"/>
<text text-anchor="start" x="515" y="-84" font-family="Helvetica,sans-Serif" font-size="10.00">src/common/bytecode</text>
<text text-anchor="middle" x="569.5" y="-73" font-family="Helvetica,sans-Serif" font-size="10.00">_stream.cpp</text>
</a>
</g>
</g>
<!-- Node1&#45;&gt;Node5 -->
<g id="edge4_Node000001_Node000005" class="edge">
<title>Node1&#45;&gt;Node5</title>
<g id="a_edge4_Node000001_Node000005"><a xlink:title=" ">
<path fill="none" stroke="#63b8ff" d="M686.4,-128.21C662.64,-118.82 629.88,-105.87 605.08,-96.06"/>
<polygon fill="#63b8ff" stroke="#63b8ff" points="685.39,-131.57 695.98,-131.99 687.97,-125.06 685.39,-131.57"/>
</a>
</g>
</g>
<!-- Node6 -->
<g id="Node000006" class="node">
<title>Node6</title>
<g id="a_Node000006"><a xlink:href="compiler_2bytecode_8cpp.html" target="_top" xlink:title=" ">
<polygon fill="white" stroke="#666666" points="145,-24.5 0,-24.5 0,-5.5 145,-5.5 145,-24.5"/>
<text text-anchor="middle" x="72.5" y="-12.5" font-family="Helvetica,sans-Serif" font-size="10.00">src/compiler/bytecode.cpp</text>
</a>
</g>
</g>
<!-- Node1&#45;&gt;Node6 -->
<g id="edge5_Node000001_Node000006" class="edge">
<title>Node1&#45;&gt;Node6</title>
<g id="a_edge5_Node000001_Node000006"><a xlink:title=" ">
<path fill="none" stroke="#63b8ff" d="M702.29,-124.68C682.08,-103.83 648.03,-69.37 640.5,-66 541.47,-21.62 261.2,-43.26 153.5,-30 141.74,-28.55 129.1,-26.57 117.37,-24.56"/>
<polygon fill="#63b8ff" stroke="#63b8ff" points="699.81,-127.15 709.28,-131.91 704.85,-122.29 699.81,-127.15"/>
</a>
</g>
</g>
<!-- Node7 -->
<g id="Node000007" class="node">
<title>Node7</title>
<g id="a_Node000007"><a xlink:href="compile_8cpp.html" target="_top" xlink:title=" ">
<polygon fill="white" stroke="#666666" points="302,-24.5 163,-24.5 163,-5.5 302,-5.5 302,-24.5"/>
<text text-anchor="middle" x="232.5" y="-12.5" font-family="Helvetica,sans-Serif" font-size="10.00">src/compiler/compile.cpp</text>
</a>
</g>
</g>
<!-- Node1&#45;&gt;Node7 -->
<g id="edge6_Node000001_Node000007" class="edge">
<title>Node1&#45;&gt;Node7</title>
<g id="a_edge6_Node000001_Node000007"><a xlink:title=" ">
<path fill="none" stroke="#63b8ff" d="M712.25,-122.06C706.21,-104.5 694.45,-78.88 674.5,-66 606.39,-22.05 391.8,-41.08 311.5,-30 300.32,-28.46 288.31,-26.49 277.11,-24.52"/>
<polygon fill="#63b8ff" stroke="#63b8ff" points="708.96,-123.28 715.3,-131.77 715.64,-121.19 708.96,-123.28"/>
</a>
</g>
</g>
<!-- Node8 -->
<g id="Node000008" class="node">
<title>Node8</title>
<g id="a_Node000008"><a xlink:href="compiler_8cpp.html" target="_top" xlink:title=" ">
<polygon fill="white" stroke="#666666" points="462.5,-24.5 320.5,-24.5 320.5,-5.5 462.5,-5.5 462.5,-24.5"/>
<text text-anchor="middle" x="391.5" y="-12.5" font-family="Helvetica,sans-Serif" font-size="10.00">src/compiler/compiler.cpp</text>
</a>
</g>
</g>
<!-- Node1&#45;&gt;Node8 -->
<g id="edge7_Node000001_Node000008" class="edge">
<title>Node1&#45;&gt;Node8</title>
<g id="a_edge7_Node000001_Node000008"><a xlink:title=" ">
<path fill="none" stroke="#63b8ff" d="M722.17,-121.56C725.09,-104.77 726.06,-80.71 712.5,-66 675.8,-26.19 524.95,-38.67 471.5,-30 461.06,-28.31 449.87,-26.4 439.27,-24.56"/>
<polygon fill="#63b8ff" stroke="#63b8ff" points="718.65,-121.3 720,-131.81 725.5,-122.75 718.65,-121.3"/>
</a>
</g>
</g>
<!-- Node9 -->
<g id="Node000009" class="node">
<title>Node9</title>
<g id="a_Node000009"><a xlink:href="compiler_8hpp.html" target="_top" xlink:title=" ">
<polygon fill="white" stroke="#666666" points="908,-90.5 765,-90.5 765,-71.5 908,-71.5 908,-90.5"/>
<text text-anchor="middle" x="836.5" y="-78.5" font-family="Helvetica,sans-Serif" font-size="10.00">src/compiler/compiler.hpp</text>
</a>
</g>
</g>
<!-- Node1&#45;&gt;Node9 -->
<g id="edge8_Node000001_Node000009" class="edge">
<title>Node1&#45;&gt;Node9</title>
<g id="a_edge8_Node000001_Node000009"><a xlink:title=" ">
<path fill="none" stroke="#63b8ff" d="M743.98,-127.48C766.91,-116.21 799.43,-100.23 819.18,-90.52"/>
<polygon fill="#63b8ff" stroke="#63b8ff" points="742.23,-124.44 734.8,-131.99 745.32,-130.72 742.23,-124.44"/>
</a>
</g>
</g>
<!-- Node12 -->
<g id="Node000012" class="node">
<title>Node12</title>
<g id="a_Node000012"><a xlink:href="instruction_8cpp.html" target="_top" xlink:title=" ">
<polygon fill="white" stroke="#666666" points="1514.5,-24.5 1362.5,-24.5 1362.5,-5.5 1514.5,-5.5 1514.5,-24.5"/>
<text text-anchor="middle" x="1438.5" y="-12.5" font-family="Helvetica,sans-Serif" font-size="10.00">src/compiler/instruction.cpp</text>
</a>
</g>
</g>
<!-- Node1&#45;&gt;Node12 -->
<g id="edge19_Node000001_Node000012" class="edge">
<title>Node1&#45;&gt;Node12</title>
<g id="a_edge19_Node000001_Node000012"><a xlink:title=" ">
<path fill="none" stroke="#63b8ff" d="M776.81,-130.26C915.78,-106.26 1260.38,-46.76 1389.02,-24.54"/>
<polygon fill="#63b8ff" stroke="#63b8ff" points="776.03,-126.84 766.77,-131.99 777.22,-133.74 776.03,-126.84"/>
</a>
</g>
</g>
<!-- Node17 -->
<g id="Node000017" class="node">
<title>Node17</title>
<g id="a_Node000017"><a xlink:href="VirtualMachine_8hpp.html" target="_top" xlink:title=" ">
<polygon fill="white" stroke="#666666" points="1686,-90.5 1539,-90.5 1539,-71.5 1686,-71.5 1686,-90.5"/>
<text text-anchor="middle" x="1612.5" y="-78.5" font-family="Helvetica,sans-Serif" font-size="10.00">src/vm/VirtualMachine.hpp</text>
</a>
</g>
</g>
<!-- Node1&#45;&gt;Node17 -->
<g id="edge20_Node000001_Node000017" class="edge">
<title>Node1&#45;&gt;Node17</title>
<g id="a_edge20_Node000001_Node000017"><a xlink:title=" ">
<path fill="none" stroke="#63b8ff" d="M800.86,-135.05C974.77,-123.68 1373.76,-97.6 1538.88,-86.81"/>
<polygon fill="#63b8ff" stroke="#63b8ff" points="800.49,-131.57 790.74,-135.71 800.95,-138.55 800.49,-131.57"/>
</a>
</g>
</g>
<!-- Node19 -->
<g id="Node000019" class="node">
<title>Node19</title>
<g id="a_Node000019"><a xlink:href="vm_2main_8cpp.html" target="_top" xlink:title=" ">
<polygon fill="white" stroke="#666666" points="1630.5,-24.5 1532.5,-24.5 1532.5,-5.5 1630.5,-5.5 1630.5,-24.5"/>
<text text-anchor="middle" x="1581.5" y="-12.5" font-family="Helvetica,sans-Serif" font-size="10.00">src/vm/main.cpp</text>
</a>
</g>
</g>
<!-- Node1&#45;&gt;Node19 -->
<g id="edge24_Node000001_Node000019" class="edge">
<title>Node1&#45;&gt;Node19</title>
<g id="a_edge24_Node000001_Node000019"><a xlink:title=" ">
<path fill="none" stroke="#63b8ff" d="M801.04,-132.18C947.97,-116.86 1261.88,-81 1523.5,-30 1531.63,-28.41 1540.35,-26.45 1548.49,-24.5"/>
<polygon fill="#63b8ff" stroke="#63b8ff" points="800.34,-128.74 790.75,-133.25 801.06,-135.7 800.34,-128.74"/>
</a>
</g>
</g>
<!-- Node20 -->
<g id="Node000020" class="node">
<title>Node20</title>
<g id="a_Node000020"><a xlink:href="vm_8cpp.html" target="_top" xlink:title=" ">
<polygon fill="white" stroke="#666666" points="1853,-24.5 1764,-24.5 1764,-5.5 1853,-5.5 1853,-24.5"/>
<text text-anchor="middle" x="1808.5" y="-12.5" font-family="Helvetica,sans-Serif" font-size="10.00">src/vm/vm.cpp</text>
</a>
</g>
</g>
<!-- Node1&#45;&gt;Node20 -->
<g id="edge25_Node000001_Node000020" class="edge">
<title>Node1&#45;&gt;Node20</title>
<g id="a_edge25_Node000001_Node000020"><a xlink:title=" ">
<path fill="none" stroke="#63b8ff" d="M801.06,-139.39C1022.31,-136.07 1612.18,-124.61 1695.5,-96 1740.06,-80.7 1782.63,-41.93 1800.13,-24.6"/>
<polygon fill="#63b8ff" stroke="#63b8ff" points="800.75,-135.89 790.81,-139.54 800.86,-142.89 800.75,-135.89"/>
</a>
</g>
</g>
<!-- Node9&#45;&gt;Node6 -->
<g id="edge11_Node000009_Node000006" class="edge">
<title>Node9&#45;&gt;Node6</title>
<g id="a_edge11_Node000009_Node000006"><a xlink:title=" ">
<path fill="none" stroke="#63b8ff" d="M754.69,-72.65C729.02,-70.42 700.59,-68.03 674.5,-66 443.09,-48.01 383.94,-57.8 153.5,-30 141.6,-28.56 128.79,-26.56 116.94,-24.52"/>
<polygon fill="#63b8ff" stroke="#63b8ff" points="754.48,-76.15 764.75,-73.53 755.09,-69.18 754.48,-76.15"/>
</a>
</g>
</g>
<!-- Node9&#45;&gt;Node7 -->
<g id="edge12_Node000009_Node000007" class="edge">
<title>Node9&#45;&gt;Node7</title>
<g id="a_edge12_Node000009_Node000007"><a xlink:title=" ">
<path fill="none" stroke="#63b8ff" d="M754.6,-70.48C740.56,-68.93 726.12,-67.38 712.5,-66 534.47,-47.96 488.87,-53.63 311.5,-30 300.18,-28.49 288,-26.51 276.69,-24.52"/>
<polygon fill="#63b8ff" stroke="#63b8ff" points="754.4,-73.98 764.73,-71.61 755.18,-67.03 754.4,-73.98"/>
</a>
</g>
</g>
<!-- Node9&#45;&gt;Node8 -->
<g id="edge13_Node000009_Node000008" class="edge">
<title>Node9&#45;&gt;Node8</title>
<g id="a_edge13_Node000009_Node000008"><a xlink:title=" ">
<path fill="none" stroke="#63b8ff" d="M775.48,-69.81C767.09,-68.49 758.59,-67.18 750.5,-66 626.78,-47.95 595.11,-48.78 471.5,-30 460.77,-28.37 449.25,-26.45 438.4,-24.57"/>
<polygon fill="#63b8ff" stroke="#63b8ff" points="775.18,-73.31 785.61,-71.43 776.29,-66.4 775.18,-73.31"/>
</a>
</g>
</g>
<!-- Node10 -->
<g id="Node000010" class="node">
<title>Node10</title>
<g id="a_Node000010"><a xlink:href="CompilerSyntaxException_8cpp.html" target="_top" xlink:title=" ">
<polygon fill="white" stroke="#666666" points="1070.5,-30 912.5,-30 912.5,0 1070.5,0 1070.5,-30"/>
<text text-anchor="start" x="920.5" y="-18" font-family="Helvetica,sans-Serif" font-size="10.00">src/compiler/CompilerSyntax</text>
<text text-anchor="middle" x="991.5" y="-7" font-family="Helvetica,sans-Serif" font-size="10.00">Exception.cpp</text>
</a>
</g>
</g>
<!-- Node9&#45;&gt;Node10 -->
<g id="edge9_Node000009_Node000010" class="edge">
<title>Node9&#45;&gt;Node10</title>
<g id="a_edge9_Node000009_Node000010"><a xlink:title=" ">
<path fill="none" stroke="#63b8ff" d="M866.76,-67.5C892.76,-56.77 930.23,-41.3 957.31,-30.12"/>
<polygon fill="#63b8ff" stroke="#63b8ff" points="865.31,-64.32 857.4,-71.37 867.98,-70.79 865.31,-64.32"/>
</a>
</g>
</g>
<!-- Node11 -->
<g id="Node000011" class="node">
<title>Node11</title>
<g id="a_Node000011"><a xlink:href="ast_8cpp.html" target="_top" xlink:title=" ">
<polygon fill="white" stroke="#666666" points="1203,-24.5 1088,-24.5 1088,-5.5 1203,-5.5 1203,-24.5"/>
<text text-anchor="middle" x="1145.5" y="-12.5" font-family="Helvetica,sans-Serif" font-size="10.00">src/compiler/ast.cpp</text>
</a>
</g>
</g>
<!-- Node9&#45;&gt;Node11 -->
<g id="edge10_Node000009_Node000011" class="edge">
<title>Node9&#45;&gt;Node11</title>
<g id="a_edge10_Node000009_Node000011"><a xlink:title=" ">
<path fill="none" stroke="#63b8ff" d="M888.3,-69.44C937.51,-59.38 1013.57,-43.78 1079.5,-30 1087.87,-28.25 1096.83,-26.36 1105.37,-24.55"/>
<polygon fill="#63b8ff" stroke="#63b8ff" points="887.32,-66.06 878.22,-71.5 888.72,-72.92 887.32,-66.06"/>
</a>
</g>
</g>
<!-- Node9&#45;&gt;Node12 -->
<g id="edge14_Node000009_Node000012" class="edge">
<title>Node9&#45;&gt;Node12</title>
<g id="a_edge14_Node000009_Node000012"><a xlink:title=" ">
<path fill="none" stroke="#63b8ff" d="M918.25,-73.72C1020.15,-65.52 1199.55,-49.84 1352.5,-30 1364.5,-28.44 1377.4,-26.49 1389.46,-24.55"/>
<polygon fill="#63b8ff" stroke="#63b8ff" points="917.72,-70.25 908.03,-74.54 918.28,-77.23 917.72,-70.25"/>
</a>
</g>
</g>
<!-- Node13 -->
<g id="Node000013" class="node">
<title>Node13</title>
<g id="a_Node000013"><a xlink:href="lexer_8cpp.html" target="_top" xlink:title=" ">
<polygon fill="white" stroke="#666666" points="1344,-24.5 1221,-24.5 1221,-5.5 1344,-5.5 1344,-24.5"/>
<text text-anchor="middle" x="1282.5" y="-12.5" font-family="Helvetica,sans-Serif" font-size="10.00">src/compiler/lexer.cpp</text>
</a>
</g>
</g>
<!-- Node9&#45;&gt;Node13 -->
<g id="edge15_Node000009_Node000013" class="edge">
<title>Node9&#45;&gt;Node13</title>
<g id="a_edge15_Node000009_Node000013"><a xlink:title=" ">
<path fill="none" stroke="#63b8ff" d="M918.24,-70.59C994.35,-61.47 1110.87,-46.61 1211.5,-30 1221.29,-28.38 1231.8,-26.43 1241.66,-24.5"/>
<polygon fill="#63b8ff" stroke="#63b8ff" points="917.75,-67.12 908.24,-71.78 918.58,-74.07 917.75,-67.12"/>
</a>
</g>
</g>
<!-- Node14 -->
<g id="Node000014" class="node">
<title>Node14</title>
<g id="a_Node000014"><a xlink:href="compiler_2main_8cpp.html" target="_top" xlink:title=" ">
<polygon fill="white" stroke="#666666" points="606,-24.5 481,-24.5 481,-5.5 606,-5.5 606,-24.5"/>
<text text-anchor="middle" x="543.5" y="-12.5" font-family="Helvetica,sans-Serif" font-size="10.00">src/compiler/main.cpp</text>
</a>
</g>
</g>
<!-- Node9&#45;&gt;Node14 -->
<g id="edge16_Node000009_Node000014" class="edge">
<title>Node9&#45;&gt;Node14</title>
<g id="a_edge16_Node000009_Node000014"><a xlink:title=" ">
<path fill="none" stroke="#63b8ff" d="M787.32,-69.26C729.67,-56.67 635.32,-36.06 582.48,-24.51"/>
<polygon fill="#63b8ff" stroke="#63b8ff" points="786.77,-72.72 797.29,-71.44 788.27,-65.88 786.77,-72.72"/>
</a>
</g>
</g>
<!-- Node15 -->
<g id="Node000015" class="node">
<title>Node15</title>
<g id="a_Node000015"><a xlink:href="symbol_8cpp.html" target="_top" xlink:title=" ">
<polygon fill="white" stroke="#666666" points="760.5,-24.5 624.5,-24.5 624.5,-5.5 760.5,-5.5 760.5,-24.5"/>
<text text-anchor="middle" x="692.5" y="-12.5" font-family="Helvetica,sans-Serif" font-size="10.00">src/compiler/symbol.cpp</text>
</a>
</g>
</g>
<!-- Node9&#45;&gt;Node15 -->
<g id="edge17_Node000009_Node000015" class="edge">
<title>Node9&#45;&gt;Node15</title>
<g id="a_edge17_Node000009_Node000015"><a xlink:title=" ">
<path fill="none" stroke="#63b8ff" d="M807.69,-67.19C779.31,-54.58 736.73,-35.66 712.07,-24.7"/>
<polygon fill="#63b8ff" stroke="#63b8ff" points="806.52,-70.51 817.08,-71.37 809.36,-64.11 806.52,-70.51"/>
</a>
</g>
</g>
<!-- Node16 -->
<g id="Node000016" class="node">
<title>Node16</title>
<g id="a_Node000016"><a xlink:href="symbol__table_8cpp.html" target="_top" xlink:title=" ">
<polygon fill="white" stroke="#666666" points="894.5,-30 778.5,-30 778.5,0 894.5,0 894.5,-30"/>
<text text-anchor="start" x="786.5" y="-18" font-family="Helvetica,sans-Serif" font-size="10.00">src/compiler/symbol</text>
<text text-anchor="middle" x="836.5" y="-7" font-family="Helvetica,sans-Serif" font-size="10.00">_table.cpp</text>
</a>
</g>
</g>
<!-- Node9&#45;&gt;Node16 -->
<g id="edge18_Node000009_Node000016" class="edge">
<title>Node9&#45;&gt;Node16</title>
<g id="a_edge18_Node000009_Node000016"><a xlink:title=" ">
<path fill="none" stroke="#63b8ff" d="M836.5,-61.35C836.5,-51.47 836.5,-39.51 836.5,-30.36"/>
<polygon fill="#63b8ff" stroke="#63b8ff" points="833,-61.37 836.5,-71.37 840,-61.37 833,-61.37"/>
</a>
</g>
</g>
<!-- Node18 -->
<g id="Node000018" class="node">
<title>Node18</title>
<g id="a_Node000018"><a xlink:href="heap_8cpp.html" target="_top" xlink:title=" ">
<polygon fill="white" stroke="#666666" points="1746,-24.5 1649,-24.5 1649,-5.5 1746,-5.5 1746,-24.5"/>
<text text-anchor="middle" x="1697.5" y="-12.5" font-family="Helvetica,sans-Serif" font-size="10.00">src/vm/heap.cpp</text>
</a>
</g>
</g>
<!-- Node17&#45;&gt;Node18 -->
<g id="edge21_Node000017_Node000018" class="edge">
<title>Node17&#45;&gt;Node18</title>
<g id="a_edge21_Node000017_Node000018"><a xlink:title=" ">
<path fill="none" stroke="#63b8ff" d="M1631.98,-65.33C1648.65,-52.78 1672.09,-35.13 1685.95,-24.7"/>
<polygon fill="#63b8ff" stroke="#63b8ff" points="1629.85,-62.56 1623.96,-71.37 1634.06,-68.15 1629.85,-62.56"/>
</a>
</g>
</g>
<!-- Node17&#45;&gt;Node19 -->
<g id="edge22_Node000017_Node000019" class="edge">
<title>Node17&#45;&gt;Node19</title>
<g id="a_edge22_Node000017_Node000019"><a xlink:title=" ">
<path fill="none" stroke="#63b8ff" d="M1603.87,-62.18C1597.99,-50.05 1590.47,-34.51 1585.81,-24.91"/>
<polygon fill="#63b8ff" stroke="#63b8ff" points="1600.81,-63.89 1608.32,-71.37 1607.11,-60.84 1600.81,-63.89"/>
</a>
</g>
</g>
<!-- Node17&#45;&gt;Node20 -->
<g id="edge23_Node000017_Node000020" class="edge">
<title>Node17&#45;&gt;Node20</title>
<g id="a_edge23_Node000017_Node000020"><a xlink:title=" ">
<path fill="none" stroke="#63b8ff" d="M1648.75,-68.16C1687.44,-55.53 1747.79,-35.82 1782.17,-24.6"/>
<polygon fill="#63b8ff" stroke="#63b8ff" points="1647.35,-64.94 1638.93,-71.37 1649.53,-71.59 1647.35,-64.94"/>
</a>
</g>
</g>
</g>
</svg>
