<?xml version="1.0" encoding="UTF-8" standalone="no"?>
<!DOCTYPE svg PUBLIC "-//W3C//DTD SVG 1.1//EN"
 "http://www.w3.org/Graphics/SVG/1.1/DTD/svg11.dtd">
<!-- Generated by graphviz version 2.43.0 (0)
 -->
<!-- Title: ULang::SymbolTable::lookup Pages: 1 -->
<svg width="281pt" height="51pt"
 viewBox="0.00 0.00 281.00 50.50" xmlns="http://www.w3.org/2000/svg" xmlns:xlink="http://www.w3.org/1999/xlink">
<g id="graph0" class="graph" transform="scale(1 1) rotate(0) translate(4 46.5)">
<title>ULang::SymbolTable::lookup</title>
<!-- Node1 -->
<g id="Node000001" class="node">
<title>Node1</title>
<g id="a_Node000001"><a xlink:title=" ">
<polygon fill="#999999" stroke="#666666" points="116,-30 0,-30 0,0 116,0 116,-30"/>
<text text-anchor="start" x="8" y="-18" font-family="Helvetica,sans-Serif" font-size="10.00">ULang::SymbolTable</text>
<text text-anchor="middle" x="58" y="-7" font-family="Helvetica,sans-Serif" font-size="10.00">::lookup</text>
</a>
</g>
</g>
<!-- Node2 -->
<g id="Node000002" class="node">
<title>Node2</title>
<g id="a_Node000002"><a xlink:href="structULang_1_1Scope.html#af3efbd04bbca65236e196aadda6c05d0" target="_top" xlink:title=" ">
<polygon fill="white" stroke="#666666" points="273,-24.5 152,-24.5 152,-5.5 273,-5.5 273,-24.5"/>
<text text-anchor="middle" x="212.5" y="-12.5" font-family="Helvetica,sans-Serif" font-size="10.00">ULang::Scope::lookup</text>
</a>
</g>
</g>
<!-- Node1&#45;&gt;Node2 -->
<g id="edge1_Node000001_Node000002" class="edge">
<title>Node1&#45;&gt;Node2</title>
<g id="a_edge1_Node000001_Node000002"><a xlink:title=" ">
<path fill="none" stroke="#63b8ff" d="M116.22,-15C124.6,-15 133.31,-15 141.91,-15"/>
<polygon fill="#63b8ff" stroke="#63b8ff" points="141.92,-18.5 151.92,-15 141.92,-11.5 141.92,-18.5"/>
</a>
</g>
</g>
<!-- Node2&#45;&gt;Node2 -->
<g id="edge2_Node000002_Node000002" class="edge">
<title>Node2&#45;&gt;Node2</title>
<g id="a_edge2_Node000002_Node000002"><a xlink:title=" ">
<path fill="none" stroke="#63b8ff" d="M188.76,-24.58C177.22,-33.23 185.13,-42.5 212.5,-42.5 230.46,-42.5 240.04,-38.51 241.25,-33.32"/>
<polygon fill="#63b8ff" stroke="#63b8ff" points="244.25,-31.52 236.24,-24.58 238.17,-35 244.25,-31.52"/>
</a>
</g>
</g>
</g>
</svg>
