<?xml version="1.0" encoding="UTF-8" standalone="no"?>
<!DOCTYPE svg PUBLIC "-//W3C//DTD SVG 1.1//EN"
 "http://www.w3.org/Graphics/SVG/1.1/DTD/svg11.dtd">
<!-- Generated by graphviz version 2.43.0 (0)
 -->
<!-- Title: ULang::CompilerInstance::compile Pages: 1 -->
<svg width="557pt" height="248pt"
 viewBox="0.00 0.00 557.00 247.50" xmlns="http://www.w3.org/2000/svg" xmlns:xlink="http://www.w3.org/1999/xlink">
<g id="graph0" class="graph" transform="scale(1 1) rotate(0) translate(4 243.5)">
<title>ULang::CompilerInstance::compile</title>
<!-- Node1 -->
<g id="Node000001" class="node">
<title>Node1</title>
<g id="a_Node000001"><a xlink:title="does the compilation">
<polygon fill="#999999" stroke="#666666" points="139,-116 0,-116 0,-86 139,-86 139,-116"/>
<text text-anchor="start" x="8" y="-104" font-family="Helvetica,sans-Serif" font-size="10.00">ULang::CompilerInstance</text>
<text text-anchor="middle" x="69.5" y="-93" font-family="Helvetica,sans-Serif" font-size="10.00">::compile</text>
</a>
</g>
</g>
<!-- Node2 -->
<g id="Node000002" class="node">
<title>Node2</title>
<g id="a_Node000002"><a xlink:href="namespaceULang.html#ae0b1129fa6b35790dbd18cbf3add8eb8" target="_top" xlink:title=" ">
<polygon fill="white" stroke="#666666" points="327.5,-196.5 225.5,-196.5 225.5,-177.5 327.5,-177.5 327.5,-196.5"/>
<text text-anchor="middle" x="276.5" y="-184.5" font-family="Helvetica,sans-Serif" font-size="10.00">ULang::buildMeta</text>
</a>
</g>
</g>
<!-- Node1&#45;&gt;Node2 -->
<g id="edge1_Node000001_Node000002" class="edge">
<title>Node1&#45;&gt;Node2</title>
<g id="a_edge1_Node000001_Node000002"><a xlink:title=" ">
<path fill="none" stroke="#63b8ff" d="M91.53,-116.07C111.95,-130.06 144.3,-150.56 175,-163 187.78,-168.18 201.94,-172.41 215.5,-175.8"/>
<polygon fill="#63b8ff" stroke="#63b8ff" points="214.71,-179.2 225.25,-178.11 216.33,-172.39 214.71,-179.2"/>
</a>
</g>
</g>
<!-- Node5 -->
<g id="Node000005" class="node">
<title>Node5</title>
<g id="a_Node000005"><a xlink:href="classULang_1_1CompilerSyntaxException.html#a39539114f05c2d71321e5eb748da29f6" target="_top" xlink:title="formatted compiler exception output (human readable)">
<polygon fill="white" stroke="#666666" points="378,-153.5 175,-153.5 175,-134.5 378,-134.5 378,-153.5"/>
<text text-anchor="middle" x="276.5" y="-141.5" font-family="Helvetica,sans-Serif" font-size="10.00">ULang::CompilerSyntaxException::fmt</text>
</a>
</g>
</g>
<!-- Node1&#45;&gt;Node5 -->
<g id="edge4_Node000001_Node000005" class="edge">
<title>Node1&#45;&gt;Node5</title>
<g id="a_edge4_Node000001_Node000005"><a xlink:title=" ">
<path fill="none" stroke="#63b8ff" d="M134.24,-116.05C147.68,-119.11 161.79,-122.24 175,-125 187.27,-127.57 200.42,-130.17 213.03,-132.58"/>
<polygon fill="#63b8ff" stroke="#63b8ff" points="212.53,-136.05 223,-134.47 213.83,-129.17 212.53,-136.05"/>
</a>
</g>
</g>
<!-- Node8 -->
<g id="Node000008" class="node">
<title>Node8</title>
<g id="a_Node000008"><a xlink:href="classULang_1_1CompilerSyntaxException.html#a39818372c08ca906d4b50a91012801c6" target="_top" xlink:title=" ">
<polygon fill="white" stroke="#666666" points="366,-116 187,-116 187,-86 366,-86 366,-116"/>
<text text-anchor="start" x="195" y="-104" font-family="Helvetica,sans-Serif" font-size="10.00">ULang::CompilerSyntaxException</text>
<text text-anchor="middle" x="276.5" y="-93" font-family="Helvetica,sans-Serif" font-size="10.00">::getSeverity</text>
</a>
</g>
</g>
<!-- Node1&#45;&gt;Node8 -->
<g id="edge7_Node000001_Node000008" class="edge">
<title>Node1&#45;&gt;Node8</title>
<g id="a_edge7_Node000001_Node000008"><a xlink:title=" ">
<path fill="none" stroke="#63b8ff" d="M139.05,-101C151.17,-101 164.01,-101 176.77,-101"/>
<polygon fill="#63b8ff" stroke="#63b8ff" points="176.97,-104.5 186.97,-101 176.97,-97.5 176.97,-104.5"/>
</a>
</g>
</g>
<!-- Node9 -->
<g id="Node000009" class="node">
<title>Node9</title>
<g id="a_Node000009"><a xlink:href="classULang_1_1Lexer.html#a683839683dfefa9502c5e151222ecb7e" target="_top" xlink:title="converts source code to tokens">
<polygon fill="white" stroke="#666666" points="340,-67.5 213,-67.5 213,-48.5 340,-48.5 340,-67.5"/>
<text text-anchor="middle" x="276.5" y="-55.5" font-family="Helvetica,sans-Serif" font-size="10.00">ULang::Lexer::tokenize</text>
</a>
</g>
</g>
<!-- Node1&#45;&gt;Node9 -->
<g id="edge8_Node000001_Node000009" class="edge">
<title>Node1&#45;&gt;Node9</title>
<g id="a_edge8_Node000001_Node000009"><a xlink:title=" ">
<path fill="none" stroke="#63b8ff" d="M134.24,-85.95C147.68,-82.89 161.79,-79.76 175,-77 187.27,-74.43 200.42,-71.83 213.03,-69.42"/>
<polygon fill="#63b8ff" stroke="#63b8ff" points="213.83,-72.83 223,-67.53 212.53,-65.95 213.83,-72.83"/>
</a>
</g>
</g>
<!-- Node11 -->
<g id="Node000011" class="node">
<title>Node11</title>
<g id="a_Node000011"><a xlink:href="classULang_1_1CompilerSyntaxException.html#a6bac429bee65121a473bad6af7b5edbd" target="_top" xlink:title=" ">
<polygon fill="white" stroke="#666666" points="366,-30 187,-30 187,0 366,0 366,-30"/>
<text text-anchor="start" x="195" y="-18" font-family="Helvetica,sans-Serif" font-size="10.00">ULang::CompilerSyntaxException</text>
<text text-anchor="middle" x="276.5" y="-7" font-family="Helvetica,sans-Serif" font-size="10.00">::what</text>
</a>
</g>
</g>
<!-- Node1&#45;&gt;Node11 -->
<g id="edge10_Node000001_Node000011" class="edge">
<title>Node1&#45;&gt;Node11</title>
<g id="a_edge10_Node000001_Node000011"><a xlink:title=" ">
<path fill="none" stroke="#63b8ff" d="M91.53,-85.93C111.95,-71.94 144.3,-51.44 175,-39 180.33,-36.84 185.89,-34.85 191.55,-33.01"/>
<polygon fill="#63b8ff" stroke="#63b8ff" points="192.62,-36.35 201.15,-30.07 190.57,-29.65 192.62,-36.35"/>
</a>
</g>
</g>
<!-- Node3 -->
<g id="Node000003" class="node">
<title>Node3</title>
<g id="a_Node000003"><a xlink:href="namespaceULang.html#afc471bffb16abe17362183d2a536a9e9" target="_top" xlink:title=" ">
<polygon fill="white" stroke="#666666" points="547,-239.5 416,-239.5 416,-220.5 547,-220.5 547,-239.5"/>
<text text-anchor="middle" x="481.5" y="-227.5" font-family="Helvetica,sans-Serif" font-size="10.00">ULang::addStringToPool</text>
</a>
</g>
</g>
<!-- Node2&#45;&gt;Node3 -->
<g id="edge2_Node000002_Node000003" class="edge">
<title>Node2&#45;&gt;Node3</title>
<g id="a_edge2_Node000002_Node000003"><a xlink:title=" ">
<path fill="none" stroke="#63b8ff" d="M322.55,-196.54C352.91,-202.97 393.14,-211.5 425.4,-218.33"/>
<polygon fill="#63b8ff" stroke="#63b8ff" points="425.07,-221.84 435.57,-220.48 426.52,-214.99 425.07,-221.84"/>
</a>
</g>
</g>
<!-- Node4 -->
<g id="Node000004" class="node">
<title>Node4</title>
<g id="a_Node000004"><a xlink:href="classULang_1_1SymbolTable.html#afccc103d9709d6e3a4beabb5ee291a0e" target="_top" xlink:title=" ">
<polygon fill="white" stroke="#666666" points="539.5,-202 423.5,-202 423.5,-172 539.5,-172 539.5,-202"/>
<text text-anchor="start" x="431.5" y="-190" font-family="Helvetica,sans-Serif" font-size="10.00">ULang::SymbolTable</text>
<text text-anchor="middle" x="481.5" y="-179" font-family="Helvetica,sans-Serif" font-size="10.00">::getGlobalScope</text>
</a>
</g>
</g>
<!-- Node2&#45;&gt;Node4 -->
<g id="edge3_Node000002_Node000004" class="edge">
<title>Node2&#45;&gt;Node4</title>
<g id="a_edge3_Node000002_Node000004"><a xlink:title=" ">
<path fill="none" stroke="#63b8ff" d="M327.68,-187C353.51,-187 385.35,-187 413.28,-187"/>
<polygon fill="#63b8ff" stroke="#63b8ff" points="413.37,-190.5 423.37,-187 413.37,-183.5 413.37,-190.5"/>
</a>
</g>
</g>
<!-- Node6 -->
<g id="Node000006" class="node">
<title>Node6</title>
<g id="a_Node000006"><a xlink:href="namespaceULang.html#a991893b6b9fc7f5f594ad4375bfbe05c" target="_top" xlink:title=" ">
<polygon fill="white" stroke="#666666" points="546.5,-153.5 416.5,-153.5 416.5,-134.5 546.5,-134.5 546.5,-153.5"/>
<text text-anchor="middle" x="481.5" y="-141.5" font-family="Helvetica,sans-Serif" font-size="10.00">ULang::h_severityColor</text>
</a>
</g>
</g>
<!-- Node5&#45;&gt;Node6 -->
<g id="edge5_Node000005_Node000006" class="edge">
<title>Node5&#45;&gt;Node6</title>
<g id="a_edge5_Node000005_Node000006"><a xlink:title=" ">
<path fill="none" stroke="#63b8ff" d="M378.11,-144C387.6,-144 397.1,-144 406.28,-144"/>
<polygon fill="#63b8ff" stroke="#63b8ff" points="406.48,-147.5 416.48,-144 406.48,-140.5 406.48,-147.5"/>
</a>
</g>
</g>
<!-- Node7 -->
<g id="Node000007" class="node">
<title>Node7</title>
<g id="a_Node000007"><a xlink:href="namespaceULang.html#aa872add6618cd1839d302348efd6020b" target="_top" xlink:title=" ">
<polygon fill="white" stroke="#666666" points="540.5,-116.5 422.5,-116.5 422.5,-97.5 540.5,-97.5 540.5,-116.5"/>
<text text-anchor="middle" x="481.5" y="-104.5" font-family="Helvetica,sans-Serif" font-size="10.00">ULang::h_severityStr</text>
</a>
</g>
</g>
<!-- Node5&#45;&gt;Node7 -->
<g id="edge6_Node000005_Node000007" class="edge">
<title>Node5&#45;&gt;Node7</title>
<g id="a_edge6_Node000005_Node000007"><a xlink:title=" ">
<path fill="none" stroke="#63b8ff" d="M329.78,-134.47C356.67,-129.57 389.64,-123.56 417.88,-118.41"/>
<polygon fill="#63b8ff" stroke="#63b8ff" points="418.84,-121.8 428.05,-116.56 417.58,-114.91 418.84,-121.8"/>
</a>
</g>
</g>
<!-- Node10 -->
<g id="Node000010" class="node">
<title>Node10</title>
<g id="a_Node000010"><a xlink:href="namespaceULang.html#a2437ad588ffb8270e6c3c174357638f2" target="_top" xlink:title=" ">
<polygon fill="white" stroke="#666666" points="549,-67.5 414,-67.5 414,-48.5 549,-48.5 549,-67.5"/>
<text text-anchor="middle" x="481.5" y="-55.5" font-family="Helvetica,sans-Serif" font-size="10.00">ULang::resolveDataType</text>
</a>
</g>
</g>
<!-- Node9&#45;&gt;Node10 -->
<g id="edge9_Node000009_Node000010" class="edge">
<title>Node9&#45;&gt;Node10</title>
<g id="a_edge9_Node000009_Node000010"><a xlink:title=" ">
<path fill="none" stroke="#63b8ff" d="M340.06,-58C360.19,-58 382.72,-58 403.74,-58"/>
<polygon fill="#63b8ff" stroke="#63b8ff" points="403.92,-61.5 413.92,-58 403.92,-54.5 403.92,-61.5"/>
</a>
</g>
</g>
</g>
</svg>
