<?xml version="1.0" encoding="UTF-8" standalone="no"?>
<!DOCTYPE svg PUBLIC "-//W3C//DTD SVG 1.1//EN"
 "http://www.w3.org/Graphics/SVG/1.1/DTD/svg11.dtd">
<!-- Generated by graphviz version 2.43.0 (0)
 -->
<!-- Title: ULang::SymbolTable::getGlobalScope Pages: 1 -->
<svg width="551pt" height="81pt"
 viewBox="0.00 0.00 551.00 81.00" xmlns="http://www.w3.org/2000/svg" xmlns:xlink="http://www.w3.org/1999/xlink">
<g id="graph0" class="graph" transform="scale(1 1) rotate(0) translate(4 77)">
<title>ULang::SymbolTable::getGlobalScope</title>
<!-- Node1 -->
<g id="Node000001" class="node">
<title>Node1</title>
<g id="a_Node000001"><a xlink:title=" ">
<polygon fill="#999999" stroke="#666666" points="543,-51 427,-51 427,-21 543,-21 543,-51"/>
<text text-anchor="start" x="435" y="-39" font-family="Helvetica,sans-Serif" font-size="10.00">ULang::SymbolTable</text>
<text text-anchor="middle" x="485" y="-28" font-family="Helvetica,sans-Serif" font-size="10.00">::getGlobalScope</text>
</a>
</g>
</g>
<!-- Node2 -->
<g id="Node000002" class="node">
<title>Node2</title>
<g id="a_Node000002"><a xlink:href="namespaceULang.html#ae0b1129fa6b35790dbd18cbf3add8eb8" target="_top" xlink:title=" ">
<polygon fill="white" stroke="#666666" points="372.5,-67.5 270.5,-67.5 270.5,-48.5 372.5,-48.5 372.5,-67.5"/>
<text text-anchor="middle" x="321.5" y="-55.5" font-family="Helvetica,sans-Serif" font-size="10.00">ULang::buildMeta</text>
</a>
</g>
</g>
<!-- Node1&#45;&gt;Node2 -->
<g id="edge1_Node000001_Node000002" class="edge">
<title>Node1&#45;&gt;Node2</title>
<g id="a_edge1_Node000001_Node000002"><a xlink:title=" ">
<path fill="none" stroke="#63b8ff" d="M416.57,-45.19C401.89,-47.19 386.61,-49.27 372.74,-51.16"/>
<polygon fill="#63b8ff" stroke="#63b8ff" points="417.17,-48.64 426.61,-43.82 416.23,-41.7 417.17,-48.64"/>
</a>
</g>
</g>
<!-- Node5 -->
<g id="Node000005" class="node">
<title>Node5</title>
<g id="a_Node000005"><a xlink:href="classULang_1_1CompilerInstance.html#a1e7c4c8659c9ebd21014068382bd8848" target="_top" xlink:title=" ">
<polygon fill="white" stroke="#666666" points="391,-30 252,-30 252,0 391,0 391,-30"/>
<text text-anchor="start" x="260" y="-18" font-family="Helvetica,sans-Serif" font-size="10.00">ULang::CompilerInstance</text>
<text text-anchor="middle" x="321.5" y="-7" font-family="Helvetica,sans-Serif" font-size="10.00">::CompilerInstance</text>
</a>
</g>
</g>
<!-- Node1&#45;&gt;Node5 -->
<g id="edge4_Node000001_Node000005" class="edge">
<title>Node1&#45;&gt;Node5</title>
<g id="a_edge4_Node000001_Node000005"><a xlink:title=" ">
<path fill="none" stroke="#63b8ff" d="M416.47,-27.22C408.06,-26.13 399.46,-25.01 391.04,-23.91"/>
<polygon fill="#63b8ff" stroke="#63b8ff" points="416.24,-30.72 426.61,-28.54 417.14,-23.78 416.24,-30.72"/>
</a>
</g>
</g>
<!-- Node3 -->
<g id="Node000003" class="node">
<title>Node3</title>
<g id="a_Node000003"><a xlink:href="classULang_1_1CompilerInstance.html#a421fd0510115d58a186435486b9fa7aa" target="_top" xlink:title="does the compilation">
<polygon fill="white" stroke="#666666" points="216,-73 77,-73 77,-43 216,-43 216,-73"/>
<text text-anchor="start" x="85" y="-61" font-family="Helvetica,sans-Serif" font-size="10.00">ULang::CompilerInstance</text>
<text text-anchor="middle" x="146.5" y="-50" font-family="Helvetica,sans-Serif" font-size="10.00">::compile</text>
</a>
</g>
</g>
<!-- Node2&#45;&gt;Node3 -->
<g id="edge2_Node000002_Node000003" class="edge">
<title>Node2&#45;&gt;Node3</title>
<g id="a_edge2_Node000002_Node000003"><a xlink:title=" ">
<path fill="none" stroke="#63b8ff" d="M260.28,-58C246.02,-58 230.7,-58 216.09,-58"/>
<polygon fill="#63b8ff" stroke="#63b8ff" points="260.46,-61.5 270.46,-58 260.46,-54.5 260.46,-61.5"/>
</a>
</g>
</g>
<!-- Node4 -->
<g id="Node000004" class="node">
<title>Node4</title>
<g id="a_Node000004"><a xlink:href="compiler_2main_8cpp.html#a3c04138a5bfe5d72780bb7e82a18e627" target="_top" xlink:title=" ">
<polygon fill="white" stroke="#666666" points="41,-67.5 0,-67.5 0,-48.5 41,-48.5 41,-67.5"/>
<text text-anchor="middle" x="20.5" y="-55.5" font-family="Helvetica,sans-Serif" font-size="10.00">main</text>
</a>
</g>
</g>
<!-- Node3&#45;&gt;Node4 -->
<g id="edge3_Node000003_Node000004" class="edge">
<title>Node3&#45;&gt;Node4</title>
<g id="a_edge3_Node000003_Node000004"><a xlink:title=" ">
<path fill="none" stroke="#63b8ff" d="M66.95,-58C57.49,-58 48.59,-58 41.21,-58"/>
<polygon fill="#63b8ff" stroke="#63b8ff" points="66.97,-61.5 76.97,-58 66.97,-54.5 66.97,-61.5"/>
</a>
</g>
</g>
</g>
</svg>
