<?xml version="1.0" encoding="UTF-8" standalone="no"?>
<!DOCTYPE svg PUBLIC "-//W3C//DTD SVG 1.1//EN"
 "http://www.w3.org/Graphics/SVG/1.1/DTD/svg11.dtd">
<!-- Generated by graphviz version 2.43.0 (0)
 -->
<!-- Title: ULang::CompilerSyntaxException::fmt Pages: 1 -->
<svg width="377pt" height="64pt"
 viewBox="0.00 0.00 377.00 64.00" xmlns="http://www.w3.org/2000/svg" xmlns:xlink="http://www.w3.org/1999/xlink">
<g id="graph0" class="graph" transform="scale(1 1) rotate(0) translate(4 60)">
<title>ULang::CompilerSyntaxException::fmt</title>
<!-- Node1 -->
<g id="Node000001" class="node">
<title>Node1</title>
<g id="a_Node000001"><a xlink:title="formatted compiler exception output (human readable)">
<polygon fill="#999999" stroke="#666666" points="203,-37 0,-37 0,-18 203,-18 203,-37"/>
<text text-anchor="middle" x="101.5" y="-25" font-family="Helvetica,sans-Serif" font-size="10.00">ULang::CompilerSyntaxException::fmt</text>
</a>
</g>
</g>
<!-- Node2 -->
<g id="Node000002" class="node">
<title>Node2</title>
<g id="a_Node000002"><a xlink:href="namespaceULang.html#a991893b6b9fc7f5f594ad4375bfbe05c" target="_top" xlink:title=" ">
<polygon fill="white" stroke="#666666" points="369,-56 239,-56 239,-37 369,-37 369,-56"/>
<text text-anchor="middle" x="304" y="-44" font-family="Helvetica,sans-Serif" font-size="10.00">ULang::h_severityColor</text>
</a>
</g>
</g>
<!-- Node1&#45;&gt;Node2 -->
<g id="edge1_Node000001_Node000002" class="edge">
<title>Node1&#45;&gt;Node2</title>
<g id="a_edge1_Node000001_Node000002"><a xlink:title=" ">
<path fill="none" stroke="#63b8ff" d="M203.04,-37.03C211.73,-37.85 220.41,-38.67 228.82,-39.47"/>
<polygon fill="#63b8ff" stroke="#63b8ff" points="228.66,-42.97 238.94,-40.43 229.32,-36 228.66,-42.97"/>
</a>
</g>
</g>
<!-- Node3 -->
<g id="Node000003" class="node">
<title>Node3</title>
<g id="a_Node000003"><a xlink:href="namespaceULang.html#aa872add6618cd1839d302348efd6020b" target="_top" xlink:title=" ">
<polygon fill="white" stroke="#666666" points="363,-19 245,-19 245,0 363,0 363,-19"/>
<text text-anchor="middle" x="304" y="-7" font-family="Helvetica,sans-Serif" font-size="10.00">ULang::h_severityStr</text>
</a>
</g>
</g>
<!-- Node1&#45;&gt;Node3 -->
<g id="edge2_Node000001_Node000003" class="edge">
<title>Node1&#45;&gt;Node3</title>
<g id="a_edge2_Node000001_Node000003"><a xlink:title=" ">
<path fill="none" stroke="#63b8ff" d="M203.04,-18.47C213.82,-17.51 224.58,-16.54 234.85,-15.62"/>
<polygon fill="#63b8ff" stroke="#63b8ff" points="235.28,-19.09 244.93,-14.71 234.66,-12.12 235.28,-19.09"/>
</a>
</g>
</g>
</g>
</svg>
