<?xml version="1.0" encoding="UTF-8" standalone="no"?>
<!DOCTYPE svg PUBLIC "-//W3C//DTD SVG 1.1//EN"
 "http://www.w3.org/Graphics/SVG/1.1/DTD/svg11.dtd">
<!-- Generated by graphviz version 2.43.0 (0)
 -->
<!-- Title: ULang::CompilerInstance::compile Pages: 1 -->
<svg width="580pt" height="285pt"
 viewBox="0.00 0.00 580.00 285.00" xmlns="http://www.w3.org/2000/svg" xmlns:xlink="http://www.w3.org/1999/xlink">
<g id="graph0" class="graph" transform="scale(1 1) rotate(0) translate(4 281)">
<title>ULang::CompilerInstance::compile</title>
<!-- Node1 -->
<g id="Node000001" class="node">
<title>Node1</title>
<g id="a_Node000001"><a xlink:title="does the compilation">
<polygon fill="#999999" stroke="#666666" points="139,-131.5 0,-131.5 0,-101.5 139,-101.5 139,-131.5"/>
<text text-anchor="start" x="8" y="-119.5" font-family="Helvetica,sans-Serif" font-size="10.00">ULang::CompilerInstance</text>
<text text-anchor="middle" x="69.5" y="-108.5" font-family="Helvetica,sans-Serif" font-size="10.00">::compile</text>
</a>
</g>
</g>
<!-- Node2 -->
<g id="Node000002" class="node">
<title>Node2</title>
<g id="a_Node000002"><a xlink:href="namespaceULang.html#ae0b1129fa6b35790dbd18cbf3add8eb8" target="_top" xlink:title=" ">
<polygon fill="white" stroke="#666666" points="327.5,-234 225.5,-234 225.5,-215 327.5,-215 327.5,-234"/>
<text text-anchor="middle" x="276.5" y="-222" font-family="Helvetica,sans-Serif" font-size="10.00">ULang::buildMeta</text>
</a>
</g>
</g>
<!-- Node1&#45;&gt;Node2 -->
<g id="edge1_Node000001_Node000002" class="edge">
<title>Node1&#45;&gt;Node2</title>
<g id="a_edge1_Node000001_Node000002"><a xlink:title=" ">
<path fill="none" stroke="#63b8ff" d="M84.93,-131.67C103.83,-150.65 138.84,-182.78 175,-200.5 187.57,-206.66 201.82,-211.3 215.56,-214.77"/>
<polygon fill="#63b8ff" stroke="#63b8ff" points="214.9,-218.21 225.43,-217.09 216.5,-211.39 214.9,-218.21"/>
</a>
</g>
</g>
<!-- Node5 -->
<g id="Node000005" class="node">
<title>Node5</title>
<g id="a_Node000005"><a xlink:href="classULang_1_1CompilerSyntaxException.html#a39539114f05c2d71321e5eb748da29f6" target="_top" xlink:title="formatted compiler exception output (human readable)">
<polygon fill="white" stroke="#666666" points="378,-191 175,-191 175,-172 378,-172 378,-191"/>
<text text-anchor="middle" x="276.5" y="-179" font-family="Helvetica,sans-Serif" font-size="10.00">ULang::CompilerSyntaxException::fmt</text>
</a>
</g>
</g>
<!-- Node1&#45;&gt;Node5 -->
<g id="edge4_Node000001_Node000005" class="edge">
<title>Node1&#45;&gt;Node5</title>
<g id="a_edge4_Node000001_Node000005"><a xlink:title=" ">
<path fill="none" stroke="#63b8ff" d="M99.99,-131.64C120.55,-141.66 148.87,-154.4 175,-162.5 184,-165.29 193.59,-167.74 203.13,-169.87"/>
<polygon fill="#63b8ff" stroke="#63b8ff" points="202.53,-173.32 213.04,-171.98 203.98,-166.48 202.53,-173.32"/>
</a>
</g>
</g>
<!-- Node8 -->
<g id="Node000008" class="node">
<title>Node8</title>
<g id="a_Node000008"><a xlink:href="classULang_1_1CompilerSyntaxException.html#a39818372c08ca906d4b50a91012801c6" target="_top" xlink:title=" ">
<polygon fill="white" stroke="#666666" points="366,-153.5 187,-153.5 187,-123.5 366,-123.5 366,-153.5"/>
<text text-anchor="start" x="195" y="-141.5" font-family="Helvetica,sans-Serif" font-size="10.00">ULang::CompilerSyntaxException</text>
<text text-anchor="middle" x="276.5" y="-130.5" font-family="Helvetica,sans-Serif" font-size="10.00">::getSeverity</text>
</a>
</g>
</g>
<!-- Node1&#45;&gt;Node8 -->
<g id="edge7_Node000001_Node000008" class="edge">
<title>Node1&#45;&gt;Node8</title>
<g id="a_edge7_Node000001_Node000008"><a xlink:title=" ">
<path fill="none" stroke="#63b8ff" d="M139.05,-123.86C151.17,-125.16 164.01,-126.54 176.77,-127.9"/>
<polygon fill="#63b8ff" stroke="#63b8ff" points="176.65,-131.41 186.97,-129 177.4,-124.45 176.65,-131.41"/>
</a>
</g>
</g>
<!-- Node9 -->
<g id="Node000009" class="node">
<title>Node9</title>
<g id="a_Node000009"><a xlink:href="classULang_1_1Lexer.html#a683839683dfefa9502c5e151222ecb7e" target="_top" xlink:title="converts source code to tokens">
<polygon fill="white" stroke="#666666" points="340,-105 213,-105 213,-86 340,-86 340,-105"/>
<text text-anchor="middle" x="276.5" y="-93" font-family="Helvetica,sans-Serif" font-size="10.00">ULang::Lexer::tokenize</text>
</a>
</g>
</g>
<!-- Node1&#45;&gt;Node9 -->
<g id="edge8_Node000001_Node000009" class="edge">
<title>Node1&#45;&gt;Node9</title>
<g id="a_edge8_Node000001_Node000009"><a xlink:title=" ">
<path fill="none" stroke="#63b8ff" d="M139.05,-109.48C159.55,-107.38 182.1,-105.07 202.86,-102.94"/>
<polygon fill="#63b8ff" stroke="#63b8ff" points="203.3,-106.41 212.89,-101.91 202.59,-99.45 203.3,-106.41"/>
</a>
</g>
</g>
<!-- Node11 -->
<g id="Node000011" class="node">
<title>Node11</title>
<g id="a_Node000011"><a xlink:href="classULang_1_1CompilerSyntaxException.html#a6bac429bee65121a473bad6af7b5edbd" target="_top" xlink:title=" ">
<polygon fill="white" stroke="#666666" points="366,-67.5 187,-67.5 187,-37.5 366,-37.5 366,-67.5"/>
<text text-anchor="start" x="195" y="-55.5" font-family="Helvetica,sans-Serif" font-size="10.00">ULang::CompilerSyntaxException</text>
<text text-anchor="middle" x="276.5" y="-44.5" font-family="Helvetica,sans-Serif" font-size="10.00">::what</text>
</a>
</g>
</g>
<!-- Node1&#45;&gt;Node11 -->
<g id="edge10_Node000001_Node000011" class="edge">
<title>Node1&#45;&gt;Node11</title>
<g id="a_edge10_Node000001_Node000011"><a xlink:title=" ">
<path fill="none" stroke="#63b8ff" d="M107.87,-101.38C127.64,-93.68 152.43,-84.49 175,-77.5 183.24,-74.95 191.91,-72.47 200.58,-70.14"/>
<polygon fill="#63b8ff" stroke="#63b8ff" points="201.55,-73.5 210.33,-67.57 199.76,-66.73 201.55,-73.5"/>
</a>
</g>
</g>
<!-- Node12 -->
<g id="Node000012" class="node">
<title>Node12</title>
<g id="a_Node000012"><a xlink:href="namespaceULang.html#a223393890930647184159ba3ee750798" target="_top" xlink:title=" ">
<polygon fill="white" stroke="#666666" points="338.5,-19 214.5,-19 214.5,0 338.5,0 338.5,-19"/>
<text text-anchor="middle" x="276.5" y="-7" font-family="Helvetica,sans-Serif" font-size="10.00">ULang::writeBytecode</text>
</a>
</g>
</g>
<!-- Node1&#45;&gt;Node12 -->
<g id="edge11_Node000001_Node000012" class="edge">
<title>Node1&#45;&gt;Node12</title>
<g id="a_edge11_Node000001_Node000012"><a xlink:title=" ">
<path fill="none" stroke="#63b8ff" d="M83.69,-101.34C102.04,-81.29 137.29,-46.41 175,-28.5 184.24,-24.11 194.41,-20.74 204.62,-18.14"/>
<polygon fill="#63b8ff" stroke="#63b8ff" points="205.44,-21.54 214.39,-15.88 203.86,-14.72 205.44,-21.54"/>
</a>
</g>
</g>
<!-- Node3 -->
<g id="Node000003" class="node">
<title>Node3</title>
<g id="a_Node000003"><a xlink:href="namespaceULang.html#afc471bffb16abe17362183d2a536a9e9" target="_top" xlink:title=" ">
<polygon fill="white" stroke="#666666" points="558.5,-277 427.5,-277 427.5,-258 558.5,-258 558.5,-277"/>
<text text-anchor="middle" x="493" y="-265" font-family="Helvetica,sans-Serif" font-size="10.00">ULang::addStringToPool</text>
</a>
</g>
</g>
<!-- Node2&#45;&gt;Node3 -->
<g id="edge2_Node000002_Node000003" class="edge">
<title>Node2&#45;&gt;Node3</title>
<g id="a_edge2_Node000002_Node000003"><a xlink:title=" ">
<path fill="none" stroke="#63b8ff" d="M325.1,-234.04C357.46,-240.53 400.43,-249.14 434.66,-256.01"/>
<polygon fill="#63b8ff" stroke="#63b8ff" points="434.04,-259.45 444.53,-257.98 435.41,-252.59 434.04,-259.45"/>
</a>
</g>
</g>
<!-- Node4 -->
<g id="Node000004" class="node">
<title>Node4</title>
<g id="a_Node000004"><a xlink:href="classULang_1_1SymbolTable.html#afccc103d9709d6e3a4beabb5ee291a0e" target="_top" xlink:title=" ">
<polygon fill="white" stroke="#666666" points="551,-239.5 435,-239.5 435,-209.5 551,-209.5 551,-239.5"/>
<text text-anchor="start" x="443" y="-227.5" font-family="Helvetica,sans-Serif" font-size="10.00">ULang::SymbolTable</text>
<text text-anchor="middle" x="493" y="-216.5" font-family="Helvetica,sans-Serif" font-size="10.00">::getGlobalScope</text>
</a>
</g>
</g>
<!-- Node2&#45;&gt;Node4 -->
<g id="edge3_Node000002_Node000004" class="edge">
<title>Node2&#45;&gt;Node4</title>
<g id="a_edge3_Node000002_Node000004"><a xlink:title=" ">
<path fill="none" stroke="#63b8ff" d="M327.52,-224.5C356.45,-224.5 393.24,-224.5 424.69,-224.5"/>
<polygon fill="#63b8ff" stroke="#63b8ff" points="424.69,-228 434.69,-224.5 424.69,-221 424.69,-228"/>
</a>
</g>
</g>
<!-- Node6 -->
<g id="Node000006" class="node">
<title>Node6</title>
<g id="a_Node000006"><a xlink:href="namespaceULang.html#a991893b6b9fc7f5f594ad4375bfbe05c" target="_top" xlink:title=" ">
<polygon fill="white" stroke="#666666" points="558,-191 428,-191 428,-172 558,-172 558,-191"/>
<text text-anchor="middle" x="493" y="-179" font-family="Helvetica,sans-Serif" font-size="10.00">ULang::h_severityColor</text>
</a>
</g>
</g>
<!-- Node5&#45;&gt;Node6 -->
<g id="edge5_Node000005_Node000006" class="edge">
<title>Node5&#45;&gt;Node6</title>
<g id="a_edge5_Node000005_Node000006"><a xlink:title=" ">
<path fill="none" stroke="#63b8ff" d="M378.16,-181.5C391.47,-181.5 404.92,-181.5 417.68,-181.5"/>
<polygon fill="#63b8ff" stroke="#63b8ff" points="417.75,-185 427.75,-181.5 417.75,-178 417.75,-185"/>
</a>
</g>
</g>
<!-- Node7 -->
<g id="Node000007" class="node">
<title>Node7</title>
<g id="a_Node000007"><a xlink:href="namespaceULang.html#aa872add6618cd1839d302348efd6020b" target="_top" xlink:title=" ">
<polygon fill="white" stroke="#666666" points="552,-154 434,-154 434,-135 552,-135 552,-154"/>
<text text-anchor="middle" x="493" y="-142" font-family="Helvetica,sans-Serif" font-size="10.00">ULang::h_severityStr</text>
</a>
</g>
</g>
<!-- Node5&#45;&gt;Node7 -->
<g id="edge6_Node000005_Node000007" class="edge">
<title>Node5&#45;&gt;Node7</title>
<g id="a_edge6_Node000005_Node000007"><a xlink:title=" ">
<path fill="none" stroke="#63b8ff" d="M332.74,-171.97C361.4,-167.03 396.6,-160.96 426.61,-155.78"/>
<polygon fill="#63b8ff" stroke="#63b8ff" points="427.32,-159.21 436.58,-154.06 426.13,-152.31 427.32,-159.21"/>
</a>
</g>
</g>
<!-- Node10 -->
<g id="Node000010" class="node">
<title>Node10</title>
<g id="a_Node000010"><a xlink:href="namespaceULang.html#a2437ad588ffb8270e6c3c174357638f2" target="_top" xlink:title=" ">
<polygon fill="white" stroke="#666666" points="560.5,-105 425.5,-105 425.5,-86 560.5,-86 560.5,-105"/>
<text text-anchor="middle" x="493" y="-93" font-family="Helvetica,sans-Serif" font-size="10.00">ULang::resolveDataType</text>
</a>
</g>
</g>
<!-- Node9&#45;&gt;Node10 -->
<g id="edge9_Node000009_Node000010" class="edge">
<title>Node9&#45;&gt;Node10</title>
<g id="a_edge9_Node000009_Node000010"><a xlink:title=" ">
<path fill="none" stroke="#63b8ff" d="M340.12,-95.5C363.59,-95.5 390.54,-95.5 415.16,-95.5"/>
<polygon fill="#63b8ff" stroke="#63b8ff" points="415.19,-99 425.19,-95.5 415.19,-92 415.19,-99"/>
</a>
</g>
</g>
<!-- Node13 -->
<g id="Node000013" class="node">
<title>Node13</title>
<g id="a_Node000013"><a xlink:href="namespaceULang.html#a8674adb59a39623d1f715c18a8cede91" target="_top" xlink:title=" ">
<polygon fill="white" stroke="#666666" points="572,-19 414,-19 414,0 572,0 572,-19"/>
<text text-anchor="middle" x="493" y="-7" font-family="Helvetica,sans-Serif" font-size="10.00">ULang::buildBytecodeHeader</text>
</a>
</g>
</g>
<!-- Node12&#45;&gt;Node13 -->
<g id="edge12_Node000012_Node000013" class="edge">
<title>Node12&#45;&gt;Node13</title>
<g id="a_edge12_Node000012_Node000013"><a xlink:title=" ">
<path fill="none" stroke="#63b8ff" d="M338.68,-9.5C358.88,-9.5 381.78,-9.5 403.6,-9.5"/>
<polygon fill="#63b8ff" stroke="#63b8ff" points="403.87,-13 413.87,-9.5 403.87,-6 403.87,-13"/>
</a>
</g>
</g>
</g>
</svg>
