<?xml version="1.0" encoding="UTF-8" standalone="no"?>
<!DOCTYPE svg PUBLIC "-//W3C//DTD SVG 1.1//EN"
 "http://www.w3.org/Graphics/SVG/1.1/DTD/svg11.dtd">
<!-- Generated by graphviz version 2.43.0 (0)
 -->
<!-- Title: ULang::StatUCounterMeter::reset Pages: 1 -->
<svg width="338pt" height="86pt"
 viewBox="0.00 0.00 338.00 86.00" xmlns="http://www.w3.org/2000/svg" xmlns:xlink="http://www.w3.org/1999/xlink">
<g id="graph0" class="graph" transform="scale(1 1) rotate(0) translate(4 82)">
<title>ULang::StatUCounterMeter::reset</title>
<!-- Node1 -->
<g id="Node000001" class="node">
<title>Node1</title>
<g id="a_Node000001"><a xlink:title=" ">
<polygon fill="#999999" stroke="#666666" points="330,-54 183,-54 183,-24 330,-24 330,-54"/>
<text text-anchor="start" x="191" y="-42" font-family="Helvetica,sans-Serif" font-size="10.00">ULang::StatUCounterMeter</text>
<text text-anchor="middle" x="256.5" y="-31" font-family="Helvetica,sans-Serif" font-size="10.00">::reset</text>
</a>
</g>
</g>
<!-- Node2 -->
<g id="Node000002" class="node">
<title>Node2</title>
<g id="a_Node000002"><a xlink:href="classULang_1_1StatUCounterMeter.html#a86c02452c73abe501b3b12f159fc11df" target="_top" xlink:title=" ">
<polygon fill="white" stroke="#666666" points="147,-78 0,-78 0,-48 147,-48 147,-78"/>
<text text-anchor="start" x="8" y="-66" font-family="Helvetica,sans-Serif" font-size="10.00">ULang::StatUCounterMeter</text>
<text text-anchor="middle" x="73.5" y="-55" font-family="Helvetica,sans-Serif" font-size="10.00">::attach</text>
</a>
</g>
</g>
<!-- Node1&#45;&gt;Node2 -->
<g id="edge1_Node000001_Node000002" class="edge">
<title>Node1&#45;&gt;Node2</title>
<g id="a_edge1_Node000001_Node000002"><a xlink:title=" ">
<path fill="none" stroke="#63b8ff" d="M172.88,-49.95C164.28,-51.1 155.58,-52.25 147.09,-53.37"/>
<polygon fill="#63b8ff" stroke="#63b8ff" points="173.47,-53.41 182.92,-48.62 172.55,-46.47 173.47,-53.41"/>
</a>
</g>
</g>
<!-- Node3 -->
<g id="Node000003" class="node">
<title>Node3</title>
<g id="a_Node000003"><a xlink:href="classULang_1_1StatUCounterMeter.html#ae190768117d1af6e0682cf8a68029301" target="_top" xlink:title=" ">
<polygon fill="white" stroke="#666666" points="147,-30 0,-30 0,0 147,0 147,-30"/>
<text text-anchor="start" x="8" y="-18" font-family="Helvetica,sans-Serif" font-size="10.00">ULang::StatUCounterMeter</text>
<text text-anchor="middle" x="73.5" y="-7" font-family="Helvetica,sans-Serif" font-size="10.00">::attach</text>
</a>
</g>
</g>
<!-- Node1&#45;&gt;Node3 -->
<g id="edge2_Node000001_Node000003" class="edge">
<title>Node1&#45;&gt;Node3</title>
<g id="a_edge2_Node000001_Node000003"><a xlink:title=" ">
<path fill="none" stroke="#63b8ff" d="M172.88,-28.05C164.28,-26.9 155.58,-25.75 147.09,-24.63"/>
<polygon fill="#63b8ff" stroke="#63b8ff" points="172.55,-31.53 182.92,-29.38 173.47,-24.59 172.55,-31.53"/>
</a>
</g>
</g>
</g>
</svg>
