<?xml version="1.0" encoding="UTF-8" standalone="no"?>
<!DOCTYPE svg PUBLIC "-//W3C//DTD SVG 1.1//EN"
 "http://www.w3.org/Graphics/SVG/1.1/DTD/svg11.dtd">
<!-- Generated by graphviz version 2.43.0 (0)
 -->
<!-- Title: ULang::StatUCounterMeter::value Pages: 1 -->
<svg width="338pt" height="134pt"
 viewBox="0.00 0.00 338.00 134.00" xmlns="http://www.w3.org/2000/svg" xmlns:xlink="http://www.w3.org/1999/xlink">
<g id="graph0" class="graph" transform="scale(1 1) rotate(0) translate(4 130)">
<title>ULang::StatUCounterMeter::value</title>
<!-- Node1 -->
<g id="Node000001" class="node">
<title>Node1</title>
<g id="a_Node000001"><a xlink:title=" ">
<polygon fill="#999999" stroke="#666666" points="330,-78 183,-78 183,-48 330,-48 330,-78"/>
<text text-anchor="start" x="191" y="-66" font-family="Helvetica,sans-Serif" font-size="10.00">ULang::StatUCounterMeter</text>
<text text-anchor="middle" x="256.5" y="-55" font-family="Helvetica,sans-Serif" font-size="10.00">::value</text>
</a>
</g>
</g>
<!-- Node2 -->
<g id="Node000002" class="node">
<title>Node2</title>
<g id="a_Node000002"><a xlink:href="classULang_1_1StatUCounterMeter.html#a86c02452c73abe501b3b12f159fc11df" target="_top" xlink:title=" ">
<polygon fill="white" stroke="#666666" points="147,-126 0,-126 0,-96 147,-96 147,-126"/>
<text text-anchor="start" x="8" y="-114" font-family="Helvetica,sans-Serif" font-size="10.00">ULang::StatUCounterMeter</text>
<text text-anchor="middle" x="73.5" y="-103" font-family="Helvetica,sans-Serif" font-size="10.00">::attach</text>
</a>
</g>
</g>
<!-- Node1&#45;&gt;Node2 -->
<g id="edge1_Node000001_Node000002" class="edge">
<title>Node1&#45;&gt;Node2</title>
<g id="a_edge1_Node000001_Node000002"><a xlink:title=" ">
<path fill="none" stroke="#63b8ff" d="M188.95,-80.65C169.94,-85.69 149.42,-91.13 131.07,-96"/>
<polygon fill="#63b8ff" stroke="#63b8ff" points="189.96,-84 198.73,-78.06 188.16,-77.24 189.96,-84"/>
</a>
</g>
</g>
<!-- Node3 -->
<g id="Node000003" class="node">
<title>Node3</title>
<g id="a_Node000003"><a xlink:href="classULang_1_1StatUCounterMeter.html#ae190768117d1af6e0682cf8a68029301" target="_top" xlink:title=" ">
<polygon fill="white" stroke="#666666" points="147,-78 0,-78 0,-48 147,-48 147,-78"/>
<text text-anchor="start" x="8" y="-66" font-family="Helvetica,sans-Serif" font-size="10.00">ULang::StatUCounterMeter</text>
<text text-anchor="middle" x="73.5" y="-55" font-family="Helvetica,sans-Serif" font-size="10.00">::attach</text>
</a>
</g>
</g>
<!-- Node1&#45;&gt;Node3 -->
<g id="edge2_Node000001_Node000003" class="edge">
<title>Node1&#45;&gt;Node3</title>
<g id="a_edge2_Node000001_Node000003"><a xlink:title=" ">
<path fill="none" stroke="#63b8ff" d="M172.88,-63C164.28,-63 155.58,-63 147.09,-63"/>
<polygon fill="#63b8ff" stroke="#63b8ff" points="172.92,-66.5 182.92,-63 172.92,-59.5 172.92,-66.5"/>
</a>
</g>
</g>
<!-- Node4 -->
<g id="Node000004" class="node">
<title>Node4</title>
<g id="a_Node000004"><a xlink:href="classULang_1_1StatUCounterMeter.html#abd4049cf98ac653c274412b679a7e13c" target="_top" xlink:title=" ">
<polygon fill="white" stroke="#666666" points="147,-30 0,-30 0,0 147,0 147,-30"/>
<text text-anchor="start" x="8" y="-18" font-family="Helvetica,sans-Serif" font-size="10.00">ULang::StatUCounterMeter</text>
<text text-anchor="middle" x="73.5" y="-7" font-family="Helvetica,sans-Serif" font-size="10.00">::report</text>
</a>
</g>
</g>
<!-- Node1&#45;&gt;Node4 -->
<g id="edge3_Node000001_Node000004" class="edge">
<title>Node1&#45;&gt;Node4</title>
<g id="a_edge3_Node000001_Node000004"><a xlink:title=" ">
<path fill="none" stroke="#63b8ff" d="M188.95,-45.35C169.94,-40.31 149.42,-34.87 131.07,-30"/>
<polygon fill="#63b8ff" stroke="#63b8ff" points="188.16,-48.76 198.73,-47.94 189.96,-42 188.16,-48.76"/>
</a>
</g>
</g>
</g>
</svg>
