<?xml version="1.0" encoding="UTF-8" standalone="no"?>
<!DOCTYPE svg PUBLIC "-//W3C//DTD SVG 1.1//EN"
 "http://www.w3.org/Graphics/SVG/1.1/DTD/svg11.dtd">
<!-- Generated by graphviz version 2.43.0 (0)
 -->
<!-- Title: ULang::SymbolTable::decl_fn Pages: 1 -->
<svg width="588pt" height="38pt"
 viewBox="0.00 0.00 588.00 38.00" xmlns="http://www.w3.org/2000/svg" xmlns:xlink="http://www.w3.org/1999/xlink">
<g id="graph0" class="graph" transform="scale(1 1) rotate(0) translate(4 34)">
<title>ULang::SymbolTable::decl_fn</title>
<!-- Node1 -->
<g id="Node000001" class="node">
<title>Node1</title>
<g id="a_Node000001"><a xlink:title="Declares a function symbol in current scope.">
<polygon fill="#999999" stroke="#666666" points="116,-30 0,-30 0,0 116,0 116,-30"/>
<text text-anchor="start" x="8" y="-18" font-family="Helvetica,sans-Serif" font-size="10.00">ULang::SymbolTable</text>
<text text-anchor="middle" x="58" y="-7" font-family="Helvetica,sans-Serif" font-size="10.00">::decl_fn</text>
</a>
</g>
</g>
<!-- Node2 -->
<g id="Node000002" class="node">
<title>Node2</title>
<g id="a_Node000002"><a xlink:href="structULang_1_1Scope.html#aa61f3baec1d9f9c74f342cb6e34d0f22" target="_top" xlink:title="Declares a function symbol in current scope.">
<polygon fill="white" stroke="#666666" points="276,-24.5 152,-24.5 152,-5.5 276,-5.5 276,-24.5"/>
<text text-anchor="middle" x="214" y="-12.5" font-family="Helvetica,sans-Serif" font-size="10.00">ULang::Scope::decl_fn</text>
</a>
</g>
</g>
<!-- Node1&#45;&gt;Node2 -->
<g id="edge1_Node000001_Node000002" class="edge">
<title>Node1&#45;&gt;Node2</title>
<g id="a_edge1_Node000001_Node000002"><a xlink:title=" ">
<path fill="none" stroke="#63b8ff" d="M116.34,-15C124.7,-15 133.39,-15 141.98,-15"/>
<polygon fill="#63b8ff" stroke="#63b8ff" points="142,-18.5 152,-15 142,-11.5 142,-18.5"/>
</a>
</g>
</g>
<!-- Node3 -->
<g id="Node000003" class="node">
<title>Node3</title>
<g id="a_Node000003"><a xlink:href="classULang_1_1CompilerInstance.html#aaa8966815572b7ad7d45b07fd712d062" target="_top" xlink:title="Check if declaring symbol redeclares builtin symbol, throw exception if so.">
<polygon fill="white" stroke="#666666" points="451,-30 312,-30 312,0 451,0 451,-30"/>
<text text-anchor="start" x="320" y="-18" font-family="Helvetica,sans-Serif" font-size="10.00">ULang::CompilerInstance</text>
<text text-anchor="middle" x="381.5" y="-7" font-family="Helvetica,sans-Serif" font-size="10.00">::checkBuiltinRedecl</text>
</a>
</g>
</g>
<!-- Node2&#45;&gt;Node3 -->
<g id="edge2_Node000002_Node000003" class="edge">
<title>Node2&#45;&gt;Node3</title>
<g id="a_edge2_Node000002_Node000003"><a xlink:title=" ">
<path fill="none" stroke="#63b8ff" d="M276.16,-15C284.49,-15 293.15,-15 301.74,-15"/>
<polygon fill="#63b8ff" stroke="#63b8ff" points="301.79,-18.5 311.79,-15 301.79,-11.5 301.79,-18.5"/>
</a>
</g>
</g>
<!-- Node4 -->
<g id="Node000004" class="node">
<title>Node4</title>
<g id="a_Node000004"><a xlink:href="namespaceULang.html#a225f15e1428e44bc79a8278e653bbd0d" target="_top" xlink:title=" ">
<polygon fill="white" stroke="#666666" points="580,-24.5 487,-24.5 487,-5.5 580,-5.5 580,-24.5"/>
<text text-anchor="middle" x="533.5" y="-12.5" font-family="Helvetica,sans-Serif" font-size="10.00">ULang::isBuiltin</text>
</a>
</g>
</g>
<!-- Node3&#45;&gt;Node4 -->
<g id="edge3_Node000003_Node000004" class="edge">
<title>Node3&#45;&gt;Node4</title>
<g id="a_edge3_Node000003_Node000004"><a xlink:title=" ">
<path fill="none" stroke="#63b8ff" d="M451.35,-15C459.8,-15 468.35,-15 476.58,-15"/>
<polygon fill="#63b8ff" stroke="#63b8ff" points="476.79,-18.5 486.79,-15 476.79,-11.5 476.79,-18.5"/>
</a>
</g>
</g>
</g>
</svg>
