<?xml version="1.0" encoding="UTF-8" standalone="no"?>
<!DOCTYPE svg PUBLIC "-//W3C//DTD SVG 1.1//EN"
 "http://www.w3.org/Graphics/SVG/1.1/DTD/svg11.dtd">
<!-- Generated by graphviz version 2.43.0 (0)
 -->
<!-- Title: ULang::CompilerInstance::compile Pages: 1 -->
<svg width="557pt" height="131pt"
 viewBox="0.00 0.00 557.00 131.00" xmlns="http://www.w3.org/2000/svg" xmlns:xlink="http://www.w3.org/1999/xlink">
<g id="graph0" class="graph" transform="scale(1 1) rotate(0) translate(4 127)">
<title>ULang::CompilerInstance::compile</title>
<!-- Node1 -->
<g id="Node000001" class="node">
<title>Node1</title>
<g id="a_Node000001"><a xlink:title="does the compilation">
<polygon fill="#999999" stroke="#666666" points="139,-67.5 0,-67.5 0,-37.5 139,-37.5 139,-67.5"/>
<text text-anchor="start" x="8" y="-55.5" font-family="Helvetica,sans-Serif" font-size="10.00">ULang::CompilerInstance</text>
<text text-anchor="middle" x="69.5" y="-44.5" font-family="Helvetica,sans-Serif" font-size="10.00">::compile</text>
</a>
</g>
</g>
<!-- Node2 -->
<g id="Node000002" class="node">
<title>Node2</title>
<g id="a_Node000002"><a xlink:href="classULang_1_1CompilerSyntaxException.html#a39539114f05c2d71321e5eb748da29f6" target="_top" xlink:title="formatted compiler exception output (human readable)">
<polygon fill="white" stroke="#666666" points="378,-105 175,-105 175,-86 378,-86 378,-105"/>
<text text-anchor="middle" x="276.5" y="-93" font-family="Helvetica,sans-Serif" font-size="10.00">ULang::CompilerSyntaxException::fmt</text>
</a>
</g>
</g>
<!-- Node1&#45;&gt;Node2 -->
<g id="edge1_Node000001_Node000002" class="edge">
<title>Node1&#45;&gt;Node2</title>
<g id="a_edge1_Node000001_Node000002"><a xlink:title=" ">
<path fill="none" stroke="#63b8ff" d="M134.24,-67.55C147.68,-70.61 161.79,-73.74 175,-76.5 187.27,-79.07 200.42,-81.67 213.03,-84.08"/>
<polygon fill="#63b8ff" stroke="#63b8ff" points="212.53,-87.55 223,-85.97 213.83,-80.67 212.53,-87.55"/>
</a>
</g>
</g>
<!-- Node5 -->
<g id="Node000005" class="node">
<title>Node5</title>
<g id="a_Node000005"><a xlink:href="classULang_1_1CompilerSyntaxException.html#a39818372c08ca906d4b50a91012801c6" target="_top" xlink:title=" ">
<polygon fill="white" stroke="#666666" points="366,-67.5 187,-67.5 187,-37.5 366,-37.5 366,-67.5"/>
<text text-anchor="start" x="195" y="-55.5" font-family="Helvetica,sans-Serif" font-size="10.00">ULang::CompilerSyntaxException</text>
<text text-anchor="middle" x="276.5" y="-44.5" font-family="Helvetica,sans-Serif" font-size="10.00">::getSeverity</text>
</a>
</g>
</g>
<!-- Node1&#45;&gt;Node5 -->
<g id="edge4_Node000001_Node000005" class="edge">
<title>Node1&#45;&gt;Node5</title>
<g id="a_edge4_Node000001_Node000005"><a xlink:title=" ">
<path fill="none" stroke="#63b8ff" d="M139.05,-52.5C151.17,-52.5 164.01,-52.5 176.77,-52.5"/>
<polygon fill="#63b8ff" stroke="#63b8ff" points="176.97,-56 186.97,-52.5 176.97,-49 176.97,-56"/>
</a>
</g>
</g>
<!-- Node6 -->
<g id="Node000006" class="node">
<title>Node6</title>
<g id="a_Node000006"><a xlink:href="classULang_1_1Lexer.html#ae872eb2e23ddedc140f49db092b9462b" target="_top" xlink:title="converts source code to tokens">
<polygon fill="white" stroke="#666666" points="340,-19 213,-19 213,0 340,0 340,-19"/>
<text text-anchor="middle" x="276.5" y="-7" font-family="Helvetica,sans-Serif" font-size="10.00">ULang::Lexer::tokenize</text>
</a>
</g>
</g>
<!-- Node1&#45;&gt;Node6 -->
<g id="edge5_Node000001_Node000006" class="edge">
<title>Node1&#45;&gt;Node6</title>
<g id="a_edge5_Node000001_Node000006"><a xlink:title=" ">
<path fill="none" stroke="#63b8ff" d="M134.24,-37.45C147.68,-34.39 161.79,-31.26 175,-28.5 187.27,-25.93 200.42,-23.33 213.03,-20.92"/>
<polygon fill="#63b8ff" stroke="#63b8ff" points="213.83,-24.33 223,-19.03 212.53,-17.45 213.83,-24.33"/>
</a>
</g>
</g>
<!-- Node3 -->
<g id="Node000003" class="node">
<title>Node3</title>
<g id="a_Node000003"><a xlink:href="namespaceULang.html#a991893b6b9fc7f5f594ad4375bfbe05c" target="_top" xlink:title=" ">
<polygon fill="white" stroke="#666666" points="546.5,-123 416.5,-123 416.5,-104 546.5,-104 546.5,-123"/>
<text text-anchor="middle" x="481.5" y="-111" font-family="Helvetica,sans-Serif" font-size="10.00">ULang::h_severityColor</text>
</a>
</g>
</g>
<!-- Node2&#45;&gt;Node3 -->
<g id="edge2_Node000002_Node000003" class="edge">
<title>Node2&#45;&gt;Node3</title>
<g id="a_edge2_Node000002_Node000003"><a xlink:title=" ">
<path fill="none" stroke="#63b8ff" d="M378.11,-104.42C387.6,-105.26 397.1,-106.1 406.28,-106.92"/>
<polygon fill="#63b8ff" stroke="#63b8ff" points="406.21,-110.43 416.48,-107.82 406.83,-103.45 406.21,-110.43"/>
</a>
</g>
</g>
<!-- Node4 -->
<g id="Node000004" class="node">
<title>Node4</title>
<g id="a_Node000004"><a xlink:href="namespaceULang.html#aa872add6618cd1839d302348efd6020b" target="_top" xlink:title=" ">
<polygon fill="white" stroke="#666666" points="540.5,-86 422.5,-86 422.5,-67 540.5,-67 540.5,-86"/>
<text text-anchor="middle" x="481.5" y="-74" font-family="Helvetica,sans-Serif" font-size="10.00">ULang::h_severityStr</text>
</a>
</g>
</g>
<!-- Node2&#45;&gt;Node4 -->
<g id="edge3_Node000002_Node000004" class="edge">
<title>Node2&#45;&gt;Node4</title>
<g id="a_edge3_Node000002_Node000004"><a xlink:title=" ">
<path fill="none" stroke="#63b8ff" d="M378.11,-86.08C389.59,-85.01 401.09,-83.93 412.02,-82.91"/>
<polygon fill="#63b8ff" stroke="#63b8ff" points="412.67,-86.36 422.3,-81.95 412.02,-79.39 412.67,-86.36"/>
</a>
</g>
</g>
<!-- Node7 -->
<g id="Node000007" class="node">
<title>Node7</title>
<g id="a_Node000007"><a xlink:href="namespaceULang.html#a2437ad588ffb8270e6c3c174357638f2" target="_top" xlink:title=" ">
<polygon fill="white" stroke="#666666" points="549,-19 414,-19 414,0 549,0 549,-19"/>
<text text-anchor="middle" x="481.5" y="-7" font-family="Helvetica,sans-Serif" font-size="10.00">ULang::resolveDataType</text>
</a>
</g>
</g>
<!-- Node6&#45;&gt;Node7 -->
<g id="edge6_Node000006_Node000007" class="edge">
<title>Node6&#45;&gt;Node7</title>
<g id="a_edge6_Node000006_Node000007"><a xlink:title=" ">
<path fill="none" stroke="#63b8ff" d="M340.06,-9.5C360.19,-9.5 382.72,-9.5 403.74,-9.5"/>
<polygon fill="#63b8ff" stroke="#63b8ff" points="403.92,-13 413.92,-9.5 403.92,-6 403.92,-13"/>
</a>
</g>
</g>
</g>
</svg>
