<?xml version="1.0" encoding="UTF-8" standalone="no"?>
<!DOCTYPE svg PUBLIC "-//W3C//DTD SVG 1.1//EN"
 "http://www.w3.org/Graphics/SVG/1.1/DTD/svg11.dtd">
<!-- Generated by graphviz version 2.43.0 (0)
 -->
<!-- Title: ULang::CompilerInstance::compile Pages: 1 -->
<svg width="481pt" height="38pt"
 viewBox="0.00 0.00 481.00 38.00" xmlns="http://www.w3.org/2000/svg" xmlns:xlink="http://www.w3.org/1999/xlink">
<g id="graph0" class="graph" transform="scale(1 1) rotate(0) translate(4 34)">
<title>ULang::CompilerInstance::compile</title>
<!-- Node1 -->
<g id="Node000001" class="node">
<title>Node1</title>
<g id="a_Node000001"><a xlink:title="does the compilation">
<polygon fill="#999999" stroke="#666666" points="139,-30 0,-30 0,0 139,0 139,-30"/>
<text text-anchor="start" x="8" y="-18" font-family="Helvetica,sans-Serif" font-size="10.00">ULang::CompilerInstance</text>
<text text-anchor="middle" x="69.5" y="-7" font-family="Helvetica,sans-Serif" font-size="10.00">::compile</text>
</a>
</g>
</g>
<!-- Node2 -->
<g id="Node000002" class="node">
<title>Node2</title>
<g id="a_Node000002"><a xlink:href="classULang_1_1Lexer.html#ae872eb2e23ddedc140f49db092b9462b" target="_top" xlink:title="converts source code to tokens">
<polygon fill="white" stroke="#666666" points="302,-24.5 175,-24.5 175,-5.5 302,-5.5 302,-24.5"/>
<text text-anchor="middle" x="238.5" y="-12.5" font-family="Helvetica,sans-Serif" font-size="10.00">ULang::Lexer::tokenize</text>
</a>
</g>
</g>
<!-- Node1&#45;&gt;Node2 -->
<g id="edge1_Node000001_Node000002" class="edge">
<title>Node1&#45;&gt;Node2</title>
<g id="a_edge1_Node000001_Node000002"><a xlink:title=" ">
<path fill="none" stroke="#63b8ff" d="M139.39,-15C147.76,-15 156.33,-15 164.75,-15"/>
<polygon fill="#63b8ff" stroke="#63b8ff" points="164.92,-18.5 174.92,-15 164.92,-11.5 164.92,-18.5"/>
</a>
</g>
</g>
<!-- Node3 -->
<g id="Node000003" class="node">
<title>Node3</title>
<g id="a_Node000003"><a xlink:href="namespaceULang.html#a2437ad588ffb8270e6c3c174357638f2" target="_top" xlink:title=" ">
<polygon fill="white" stroke="#666666" points="473,-24.5 338,-24.5 338,-5.5 473,-5.5 473,-24.5"/>
<text text-anchor="middle" x="405.5" y="-12.5" font-family="Helvetica,sans-Serif" font-size="10.00">ULang::resolveDataType</text>
</a>
</g>
</g>
<!-- Node2&#45;&gt;Node3 -->
<g id="edge2_Node000002_Node000003" class="edge">
<title>Node2&#45;&gt;Node3</title>
<g id="a_edge2_Node000002_Node000003"><a xlink:title=" ">
<path fill="none" stroke="#63b8ff" d="M302.35,-15C310.73,-15 319.39,-15 327.97,-15"/>
<polygon fill="#63b8ff" stroke="#63b8ff" points="327.98,-18.5 337.98,-15 327.98,-11.5 327.98,-18.5"/>
</a>
</g>
</g>
</g>
</svg>
