<?xml version="1.0" encoding="UTF-8" standalone="no"?>
<!DOCTYPE svg PUBLIC "-//W3C//DTD SVG 1.1//EN"
 "http://www.w3.org/Graphics/SVG/1.1/DTD/svg11.dtd">
<!-- Generated by graphviz version 2.43.0 (0)
 -->
<!-- Title: src/compiler/compiler.hpp Pages: 1 -->
<svg width="674pt" height="137pt"
 viewBox="0.00 0.00 673.76 137.00" xmlns="http://www.w3.org/2000/svg" xmlns:xlink="http://www.w3.org/1999/xlink">
<g id="graph0" class="graph" transform="scale(1 1) rotate(0) translate(4 133)">
<title>src/compiler/compiler.hpp</title>
<!-- Node1 -->
<g id="Node000001" class="node">
<title>Node1</title>
<g id="a_Node000001"><a xlink:title=" ">
<polygon fill="#999999" stroke="#666666" points="418.26,-129 275.26,-129 275.26,-110 418.26,-110 418.26,-129"/>
<text text-anchor="middle" x="346.76" y="-117" font-family="Helvetica,sans-Serif" font-size="10.00">src/compiler/compiler.hpp</text>
</a>
</g>
</g>
<!-- Node2 -->
<g id="Node000002" class="node">
<title>Node2</title>
<g id="a_Node000002"><a xlink:href="bytecode_8hpp.html" target="_top" xlink:title=" ">
<polygon fill="white" stroke="#666666" points="180.26,-74 97.26,-74 97.26,-55 180.26,-55 180.26,-74"/>
<text text-anchor="middle" x="138.76" y="-62" font-family="Helvetica,sans-Serif" font-size="10.00">bytecode.hpp</text>
</a>
</g>
</g>
<!-- Node1&#45;&gt;Node2 -->
<g id="edge1_Node000001_Node000002" class="edge">
<title>Node1&#45;&gt;Node2</title>
<g id="a_edge1_Node000001_Node000002"><a xlink:title=" ">
<path fill="none" stroke="#63b8ff" d="M313.34,-109.98C277.81,-100.93 221.48,-86.58 182.46,-76.64"/>
<polygon fill="#63b8ff" stroke="#63b8ff" points="182.99,-73.16 172.44,-74.08 181.27,-79.94 182.99,-73.16"/>
</a>
</g>
</g>
<!-- Node3 -->
<g id="Node000003" class="node">
<title>Node3</title>
<g id="a_Node000003"><a xlink:title=" ">
<polygon fill="#e0e0e0" stroke="#999999" points="71.76,-19 21.76,-19 21.76,0 71.76,0 71.76,-19"/>
<text text-anchor="middle" x="46.76" y="-7" font-family="Helvetica,sans-Serif" font-size="10.00">cstdint</text>
</a>
</g>
</g>
<!-- Node1&#45;&gt;Node3 -->
<g id="edge12_Node000001_Node000003" class="edge">
<title>Node1&#45;&gt;Node3</title>
<g id="a_edge12_Node000001_Node000003"><a xlink:title=" ">
<path fill="none" stroke="#63b8ff" d="M274.95,-114.14C179.93,-107.64 22.29,-93.96 4.76,-74 -8.69,-58.69 9.28,-38.8 25.71,-25.39"/>
<polygon fill="#63b8ff" stroke="#63b8ff" points="28.2,-27.9 33.99,-19.03 23.93,-22.35 28.2,-27.9"/>
</a>
</g>
</g>
<!-- Node5 -->
<g id="Node000005" class="node">
<title>Node5</title>
<g id="a_Node000005"><a xlink:title=" ">
<polygon fill="#e0e0e0" stroke="#999999" points="248.76,-19 204.76,-19 204.76,0 248.76,0 248.76,-19"/>
<text text-anchor="middle" x="226.76" y="-7" font-family="Helvetica,sans-Serif" font-size="10.00">string</text>
</a>
</g>
</g>
<!-- Node1&#45;&gt;Node5 -->
<g id="edge14_Node000001_Node000005" class="edge">
<title>Node1&#45;&gt;Node5</title>
<g id="a_edge14_Node000001_Node000005"><a xlink:title=" ">
<path fill="none" stroke="#63b8ff" d="M346.39,-109.59C345.38,-96.17 341.62,-70.7 327.76,-55 309.83,-34.7 280.91,-23.25 258.6,-17.06"/>
<polygon fill="#63b8ff" stroke="#63b8ff" points="259.43,-13.66 248.88,-14.58 257.7,-20.45 259.43,-13.66"/>
</a>
</g>
</g>
<!-- Node6 -->
<g id="Node000006" class="node">
<title>Node6</title>
<g id="a_Node000006"><a xlink:title=" ">
<polygon fill="#e0e0e0" stroke="#999999" points="361.26,-19 314.26,-19 314.26,0 361.26,0 361.26,-19"/>
<text text-anchor="middle" x="337.76" y="-7" font-family="Helvetica,sans-Serif" font-size="10.00">vector</text>
</a>
</g>
</g>
<!-- Node1&#45;&gt;Node6 -->
<g id="edge16_Node000001_Node000006" class="edge">
<title>Node1&#45;&gt;Node6</title>
<g id="a_edge16_Node000001_Node000006"><a xlink:title=" ">
<path fill="none" stroke="#63b8ff" d="M351.19,-109.85C356.88,-97.6 365.51,-74.53 360.76,-55 358.45,-45.51 353.74,-35.78 349.18,-27.85"/>
<polygon fill="#63b8ff" stroke="#63b8ff" points="352.08,-25.89 343.86,-19.2 346.12,-29.55 352.08,-25.89"/>
</a>
</g>
</g>
<!-- Node7 -->
<g id="Node000007" class="node">
<title>Node7</title>
<g id="a_Node000007"><a xlink:href="params_8hpp.html" target="_top" xlink:title=" ">
<polygon fill="white" stroke="#666666" points="318.76,-74 198.76,-74 198.76,-55 318.76,-55 318.76,-74"/>
<text text-anchor="middle" x="258.76" y="-62" font-family="Helvetica,sans-Serif" font-size="10.00">compiler/params.hpp</text>
</a>
</g>
</g>
<!-- Node1&#45;&gt;Node7 -->
<g id="edge6_Node000001_Node000007" class="edge">
<title>Node1&#45;&gt;Node7</title>
<g id="a_edge6_Node000001_Node000007"><a xlink:title=" ">
<path fill="none" stroke="#63b8ff" d="M332.62,-109.98C318.97,-101.77 298.07,-89.18 281.98,-79.49"/>
<polygon fill="#63b8ff" stroke="#63b8ff" points="283.53,-76.33 273.15,-74.17 279.92,-82.33 283.53,-76.33"/>
</a>
</g>
</g>
<!-- Node8 -->
<g id="Node000008" class="node">
<title>Node8</title>
<g id="a_Node000008"><a xlink:href="types_8hpp.html" target="_top" xlink:title=" ">
<polygon fill="white" stroke="#666666" points="79.26,-74 14.26,-74 14.26,-55 79.26,-55 79.26,-74"/>
<text text-anchor="middle" x="46.76" y="-62" font-family="Helvetica,sans-Serif" font-size="10.00">types.hpp</text>
</a>
</g>
</g>
<!-- Node1&#45;&gt;Node8 -->
<g id="edge8_Node000001_Node000008" class="edge">
<title>Node1&#45;&gt;Node8</title>
<g id="a_edge8_Node000001_Node000008"><a xlink:title=" ">
<path fill="none" stroke="#63b8ff" d="M294.08,-109.99C243.93,-101.77 166.08,-88.69 89.69,-74.32"/>
<polygon fill="#63b8ff" stroke="#63b8ff" points="89.89,-70.79 79.41,-72.37 88.59,-77.67 89.89,-70.79"/>
</a>
</g>
</g>
<!-- Node9 -->
<g id="Node000009" class="node">
<title>Node9</title>
<g id="a_Node000009"><a xlink:title=" ">
<polygon fill="#e0e0e0" stroke="#999999" points="478.26,-74 413.26,-74 413.26,-55 478.26,-55 478.26,-74"/>
<text text-anchor="middle" x="445.76" y="-62" font-family="Helvetica,sans-Serif" font-size="10.00">exception</text>
</a>
</g>
</g>
<!-- Node1&#45;&gt;Node9 -->
<g id="edge13_Node000001_Node000009" class="edge">
<title>Node1&#45;&gt;Node9</title>
<g id="a_edge13_Node000001_Node000009"><a xlink:title=" ">
<path fill="none" stroke="#63b8ff" d="M362.66,-109.98C378.3,-101.61 402.41,-88.7 420.64,-78.95"/>
<polygon fill="#63b8ff" stroke="#63b8ff" points="422.4,-81.98 429.56,-74.17 419.1,-75.8 422.4,-81.98"/>
</a>
</g>
</g>
<!-- Node10 -->
<g id="Node000010" class="node">
<title>Node10</title>
<g id="a_Node000010"><a xlink:title=" ">
<polygon fill="#e0e0e0" stroke="#999999" points="589.26,-74 496.26,-74 496.26,-55 589.26,-55 589.26,-74"/>
<text text-anchor="middle" x="542.76" y="-62" font-family="Helvetica,sans-Serif" font-size="10.00">unordered_map</text>
</a>
</g>
</g>
<!-- Node1&#45;&gt;Node10 -->
<g id="edge15_Node000001_Node000010" class="edge">
<title>Node1&#45;&gt;Node10</title>
<g id="a_edge15_Node000001_Node000010"><a xlink:title=" ">
<path fill="none" stroke="#63b8ff" d="M378.25,-109.98C411.58,-100.97 464.35,-86.7 501.11,-76.76"/>
<polygon fill="#63b8ff" stroke="#63b8ff" points="502.28,-80.07 511.02,-74.08 500.45,-73.31 502.28,-80.07"/>
</a>
</g>
</g>
<!-- Node11 -->
<g id="Node000011" class="node">
<title>Node11</title>
<g id="a_Node000011"><a xlink:title=" ">
<polygon fill="#e0e0e0" stroke="#999999" points="665.76,-74 607.76,-74 607.76,-55 665.76,-55 665.76,-74"/>
<text text-anchor="middle" x="636.76" y="-62" font-family="Helvetica,sans-Serif" font-size="10.00">memory</text>
</a>
</g>
</g>
<!-- Node1&#45;&gt;Node11 -->
<g id="edge17_Node000001_Node000011" class="edge">
<title>Node1&#45;&gt;Node11</title>
<g id="a_edge17_Node000001_Node000011"><a xlink:title=" ">
<path fill="none" stroke="#63b8ff" d="M399.01,-109.98C447.87,-101.86 523.12,-88.94 597.7,-74.14"/>
<polygon fill="#63b8ff" stroke="#63b8ff" points="598.62,-77.52 607.74,-72.13 597.25,-70.66 598.62,-77.52"/>
</a>
</g>
</g>
<!-- Node2&#45;&gt;Node3 -->
<g id="edge2_Node000002_Node000003" class="edge">
<title>Node2&#45;&gt;Node3</title>
<g id="a_edge2_Node000002_Node000003"><a xlink:title=" ">
<path fill="none" stroke="#63b8ff" d="M123.98,-54.98C109.58,-46.69 87.45,-33.94 70.57,-24.22"/>
<polygon fill="#63b8ff" stroke="#63b8ff" points="72.22,-21.13 61.81,-19.17 68.73,-27.19 72.22,-21.13"/>
</a>
</g>
</g>
<!-- Node4 -->
<g id="Node000004" class="node">
<title>Node4</title>
<g id="a_Node000004"><a xlink:title=" ">
<polygon fill="#e0e0e0" stroke="#999999" points="154.26,-19 101.26,-19 101.26,0 154.26,0 154.26,-19"/>
<text text-anchor="middle" x="127.76" y="-7" font-family="Helvetica,sans-Serif" font-size="10.00">cstddef</text>
</a>
</g>
</g>
<!-- Node2&#45;&gt;Node4 -->
<g id="edge3_Node000002_Node000004" class="edge">
<title>Node2&#45;&gt;Node4</title>
<g id="a_edge3_Node000002_Node000004"><a xlink:title=" ">
<path fill="none" stroke="#63b8ff" d="M136.94,-54.75C135.5,-47.8 133.43,-37.85 131.63,-29.13"/>
<polygon fill="#63b8ff" stroke="#63b8ff" points="135,-28.17 129.54,-19.09 128.15,-29.59 135,-28.17"/>
</a>
</g>
</g>
<!-- Node2&#45;&gt;Node5 -->
<g id="edge4_Node000002_Node000005" class="edge">
<title>Node2&#45;&gt;Node5</title>
<g id="a_edge4_Node000002_Node000005"><a xlink:title=" ">
<path fill="none" stroke="#63b8ff" d="M152.9,-54.98C166.54,-46.77 187.45,-34.18 203.54,-24.49"/>
<polygon fill="#63b8ff" stroke="#63b8ff" points="205.6,-27.33 212.36,-19.17 201.99,-21.33 205.6,-27.33"/>
</a>
</g>
</g>
<!-- Node2&#45;&gt;Node6 -->
<g id="edge5_Node000002_Node000006" class="edge">
<title>Node2&#45;&gt;Node6</title>
<g id="a_edge5_Node000002_Node000006"><a xlink:title=" ">
<path fill="none" stroke="#63b8ff" d="M170.73,-54.98C207.29,-45.25 266.87,-29.38 304.11,-19.46"/>
<polygon fill="#63b8ff" stroke="#63b8ff" points="305.22,-22.79 313.98,-16.83 303.42,-16.02 305.22,-22.79"/>
</a>
</g>
</g>
<!-- Node7&#45;&gt;Node5 -->
<g id="edge7_Node000007_Node000005" class="edge">
<title>Node7&#45;&gt;Node5</title>
<g id="a_edge7_Node000007_Node000005"><a xlink:title=" ">
<path fill="none" stroke="#63b8ff" d="M253.47,-54.75C249.05,-47.42 242.6,-36.73 237.14,-27.7"/>
<polygon fill="#63b8ff" stroke="#63b8ff" points="240.11,-25.84 231.94,-19.09 234.12,-29.46 240.11,-25.84"/>
</a>
</g>
</g>
<!-- Node8&#45;&gt;Node3 -->
<g id="edge10_Node000008_Node000003" class="edge">
<title>Node8&#45;&gt;Node3</title>
<g id="a_edge10_Node000008_Node000003"><a xlink:title=" ">
<path fill="none" stroke="#63b8ff" d="M46.76,-54.75C46.76,-47.8 46.76,-37.85 46.76,-29.13"/>
<polygon fill="#63b8ff" stroke="#63b8ff" points="50.26,-29.09 46.76,-19.09 43.26,-29.09 50.26,-29.09"/>
</a>
</g>
</g>
<!-- Node8&#45;&gt;Node4 -->
<g id="edge9_Node000008_Node000004" class="edge">
<title>Node8&#45;&gt;Node4</title>
<g id="a_edge9_Node000008_Node000004"><a xlink:title=" ">
<path fill="none" stroke="#63b8ff" d="M59.77,-54.98C72.22,-46.84 91.21,-34.41 105.97,-24.76"/>
<polygon fill="#63b8ff" stroke="#63b8ff" points="108.06,-27.57 114.51,-19.17 104.22,-21.72 108.06,-27.57"/>
</a>
</g>
</g>
<!-- Node8&#45;&gt;Node5 -->
<g id="edge11_Node000008_Node000005" class="edge">
<title>Node8&#45;&gt;Node5</title>
<g id="a_edge11_Node000008_Node000005"><a xlink:title=" ">
<path fill="none" stroke="#63b8ff" d="M75.68,-54.98C108.28,-45.39 161.13,-29.82 194.9,-19.88"/>
<polygon fill="#63b8ff" stroke="#63b8ff" points="196.11,-23.17 204.72,-16.99 194.14,-16.46 196.11,-23.17"/>
</a>
</g>
</g>
</g>
</svg>
