<?xml version="1.0" encoding="UTF-8" standalone="no"?>
<!DOCTYPE svg PUBLIC "-//W3C//DTD SVG 1.1//EN"
 "http://www.w3.org/Graphics/SVG/1.1/DTD/svg11.dtd">
<!-- Generated by graphviz version 2.43.0 (0)
 -->
<!-- Title: src/compiler/compile.cpp Pages: 1 -->
<svg width="881pt" height="192pt"
 viewBox="0.00 0.00 880.57 192.00" xmlns="http://www.w3.org/2000/svg" xmlns:xlink="http://www.w3.org/1999/xlink">
<g id="graph0" class="graph" transform="scale(1 1) rotate(0) translate(4 188)">
<title>src/compiler/compile.cpp</title>
<!-- Node1 -->
<g id="Node000001" class="node">
<title>Node1</title>
<g id="a_Node000001"><a xlink:title=" ">
<polygon fill="#999999" stroke="#666666" points="470.5,-184 331.5,-184 331.5,-165 470.5,-165 470.5,-184"/>
<text text-anchor="middle" x="401" y="-172" font-family="Helvetica,sans-Serif" font-size="10.00">src/compiler/compile.cpp</text>
</a>
</g>
</g>
<!-- Node2 -->
<g id="Node000002" class="node">
<title>Node2</title>
<g id="a_Node000002"><a xlink:href="bytecode_8hpp.html" target="_top" xlink:title=" ">
<polygon fill="white" stroke="#666666" points="408.5,-74 325.5,-74 325.5,-55 408.5,-55 408.5,-74"/>
<text text-anchor="middle" x="367" y="-62" font-family="Helvetica,sans-Serif" font-size="10.00">bytecode.hpp</text>
</a>
</g>
</g>
<!-- Node1&#45;&gt;Node2 -->
<g id="edge1_Node000001_Node000002" class="edge">
<title>Node1&#45;&gt;Node2</title>
<g id="a_edge1_Node000001_Node000002"><a xlink:title=" ">
<path fill="none" stroke="#63b8ff" d="M398.04,-165C394.95,-156.06 390,-141.59 386,-129 381.2,-113.9 376.07,-96.68 372.35,-83.98"/>
<polygon fill="#63b8ff" stroke="#63b8ff" points="375.64,-82.78 369.49,-74.16 368.92,-84.74 375.64,-82.78"/>
</a>
</g>
</g>
<!-- Node3 -->
<g id="Node000003" class="node">
<title>Node3</title>
<g id="a_Node000003"><a xlink:title=" ">
<polygon fill="#e0e0e0" stroke="#999999" points="201,-19 151,-19 151,0 201,0 201,-19"/>
<text text-anchor="middle" x="176" y="-7" font-family="Helvetica,sans-Serif" font-size="10.00">cstdint</text>
</a>
</g>
</g>
<!-- Node1&#45;&gt;Node3 -->
<g id="edge22_Node000001_Node000003" class="edge">
<title>Node1&#45;&gt;Node3</title>
<g id="a_edge22_Node000001_Node000003"><a xlink:title=" ">
<path fill="none" stroke="#63b8ff" d="M355.11,-164.99C326.3,-158.25 289.21,-146.92 260,-129 230.8,-111.09 225.59,-102.1 206,-74 196.1,-59.79 187.95,-41.8 182.66,-28.6"/>
<polygon fill="#63b8ff" stroke="#63b8ff" points="185.9,-27.29 179.04,-19.21 179.36,-29.8 185.9,-27.29"/>
</a>
</g>
</g>
<!-- Node4 -->
<g id="Node000004" class="node">
<title>Node4</title>
<g id="a_Node000004"><a xlink:title=" ">
<polygon fill="#e0e0e0" stroke="#999999" points="301.5,-19 248.5,-19 248.5,0 301.5,0 301.5,-19"/>
<text text-anchor="middle" x="275" y="-7" font-family="Helvetica,sans-Serif" font-size="10.00">cstddef</text>
</a>
</g>
</g>
<!-- Node1&#45;&gt;Node4 -->
<g id="edge21_Node000001_Node000004" class="edge">
<title>Node1&#45;&gt;Node4</title>
<g id="a_edge21_Node000001_Node000004"><a xlink:title=" ">
<path fill="none" stroke="#63b8ff" d="M368.63,-164.97C328.55,-152.48 262.04,-124.95 233,-74 223.23,-56.85 239.15,-38.1 254.11,-25.45"/>
<polygon fill="#63b8ff" stroke="#63b8ff" points="256.48,-28.04 262.16,-19.1 252.14,-22.55 256.48,-28.04"/>
</a>
</g>
</g>
<!-- Node7 -->
<g id="Node000007" class="node">
<title>Node7</title>
<g id="a_Node000007"><a xlink:href="compiler_8hpp.html" target="_top" xlink:title=" ">
<polygon fill="white" stroke="#666666" points="475,-129 395,-129 395,-110 475,-110 475,-129"/>
<text text-anchor="middle" x="435" y="-117" font-family="Helvetica,sans-Serif" font-size="10.00">compiler.hpp</text>
</a>
</g>
</g>
<!-- Node1&#45;&gt;Node7 -->
<g id="edge6_Node000001_Node000007" class="edge">
<title>Node1&#45;&gt;Node7</title>
<g id="a_edge6_Node000001_Node000007"><a xlink:title=" ">
<path fill="none" stroke="#63b8ff" d="M406.61,-164.75C411.32,-157.42 418.17,-146.73 423.97,-137.7"/>
<polygon fill="#63b8ff" stroke="#63b8ff" points="427.04,-139.4 429.49,-129.09 421.14,-135.62 427.04,-139.4"/>
</a>
</g>
</g>
<!-- Node13 -->
<g id="Node000013" class="node">
<title>Node13</title>
<g id="a_Node000013"><a xlink:title=" ">
<polygon fill="#e0e0e0" stroke="#999999" points="590.5,-129 493.5,-129 493.5,-110 590.5,-110 590.5,-129"/>
<text text-anchor="middle" x="542" y="-117" font-family="Helvetica,sans-Serif" font-size="10.00">compiler/errno.h</text>
</a>
</g>
</g>
<!-- Node1&#45;&gt;Node13 -->
<g id="edge20_Node000001_Node000013" class="edge">
<title>Node1&#45;&gt;Node13</title>
<g id="a_edge20_Node000001_Node000013"><a xlink:title=" ">
<path fill="none" stroke="#63b8ff" d="M423.65,-164.98C446.85,-156.27 483.12,-142.63 509.4,-132.75"/>
<polygon fill="#63b8ff" stroke="#63b8ff" points="510.8,-135.97 518.93,-129.17 508.34,-129.41 510.8,-135.97"/>
</a>
</g>
</g>
<!-- Node14 -->
<g id="Node000014" class="node">
<title>Node14</title>
<g id="a_Node000014"><a xlink:title=" ">
<polygon fill="#e0e0e0" stroke="#999999" points="669,-129 609,-129 609,-110 669,-110 669,-129"/>
<text text-anchor="middle" x="639" y="-117" font-family="Helvetica,sans-Serif" font-size="10.00">iostream</text>
</a>
</g>
</g>
<!-- Node1&#45;&gt;Node14 -->
<g id="edge23_Node000001_Node000014" class="edge">
<title>Node1&#45;&gt;Node14</title>
<g id="a_edge23_Node000001_Node000014"><a xlink:title=" ">
<path fill="none" stroke="#63b8ff" d="M439.24,-164.98C483,-155.24 554.36,-139.35 598.89,-129.43"/>
<polygon fill="#63b8ff" stroke="#63b8ff" points="599.78,-132.82 608.78,-127.23 598.26,-125.99 599.78,-132.82"/>
</a>
</g>
</g>
<!-- Node15 -->
<g id="Node000015" class="node">
<title>Node15</title>
<g id="a_Node000015"><a xlink:title=" ">
<polygon fill="#e0e0e0" stroke="#999999" points="752.5,-129 687.5,-129 687.5,-110 752.5,-110 752.5,-129"/>
<text text-anchor="middle" x="720" y="-117" font-family="Helvetica,sans-Serif" font-size="10.00">stdexcept</text>
</a>
</g>
</g>
<!-- Node1&#45;&gt;Node15 -->
<g id="edge24_Node000001_Node000015" class="edge">
<title>Node1&#45;&gt;Node15</title>
<g id="a_edge24_Node000001_Node000015"><a xlink:title=" ">
<path fill="none" stroke="#63b8ff" d="M458.41,-164.97C512.32,-156.8 595.47,-143.8 677.47,-129.03"/>
<polygon fill="#63b8ff" stroke="#63b8ff" points="678.25,-132.45 687.47,-127.22 677,-125.56 678.25,-132.45"/>
</a>
</g>
</g>
<!-- Node16 -->
<g id="Node000016" class="node">
<title>Node16</title>
<g id="a_Node000016"><a xlink:href="vmreg__defines_8hpp.html" target="_top" xlink:title=" ">
<polygon fill="white" stroke="#666666" points="110,-129 0,-129 0,-110 110,-110 110,-129"/>
<text text-anchor="middle" x="55" y="-117" font-family="Helvetica,sans-Serif" font-size="10.00">vmreg_defines.hpp</text>
</a>
</g>
</g>
<!-- Node1&#45;&gt;Node16 -->
<g id="edge25_Node000001_Node000016" class="edge">
<title>Node1&#45;&gt;Node16</title>
<g id="a_edge25_Node000001_Node000016"><a xlink:title=" ">
<path fill="none" stroke="#63b8ff" d="M345.41,-164.98C284.03,-155.58 185.32,-140.46 120.3,-130.5"/>
<polygon fill="#63b8ff" stroke="#63b8ff" points="120.58,-127 110.17,-128.95 119.52,-133.92 120.58,-127"/>
</a>
</g>
</g>
<!-- Node2&#45;&gt;Node3 -->
<g id="edge2_Node000002_Node000003" class="edge">
<title>Node2&#45;&gt;Node3</title>
<g id="a_edge2_Node000002_Node000003"><a xlink:title=" ">
<path fill="none" stroke="#63b8ff" d="M336.31,-54.98C302.14,-45.5 247.02,-30.21 211.15,-20.25"/>
<polygon fill="#63b8ff" stroke="#63b8ff" points="211.7,-16.77 201.12,-17.47 209.82,-23.52 211.7,-16.77"/>
</a>
</g>
</g>
<!-- Node2&#45;&gt;Node4 -->
<g id="edge3_Node000002_Node000004" class="edge">
<title>Node2&#45;&gt;Node4</title>
<g id="a_edge3_Node000002_Node000004"><a xlink:title=" ">
<path fill="none" stroke="#63b8ff" d="M352.22,-54.98C337.82,-46.69 315.69,-33.94 298.81,-24.22"/>
<polygon fill="#63b8ff" stroke="#63b8ff" points="300.46,-21.13 290.05,-19.17 296.97,-27.19 300.46,-21.13"/>
</a>
</g>
</g>
<!-- Node5 -->
<g id="Node000005" class="node">
<title>Node5</title>
<g id="a_Node000005"><a xlink:title=" ">
<polygon fill="#e0e0e0" stroke="#999999" points="462,-19 418,-19 418,0 462,0 462,-19"/>
<text text-anchor="middle" x="440" y="-7" font-family="Helvetica,sans-Serif" font-size="10.00">string</text>
</a>
</g>
</g>
<!-- Node2&#45;&gt;Node5 -->
<g id="edge4_Node000002_Node000005" class="edge">
<title>Node2&#45;&gt;Node5</title>
<g id="a_edge4_Node000002_Node000005"><a xlink:title=" ">
<path fill="none" stroke="#63b8ff" d="M378.73,-54.98C389.73,-47 406.42,-34.88 419.6,-25.31"/>
<polygon fill="#63b8ff" stroke="#63b8ff" points="422.02,-27.88 428.06,-19.17 417.91,-22.21 422.02,-27.88"/>
</a>
</g>
</g>
<!-- Node6 -->
<g id="Node000006" class="node">
<title>Node6</title>
<g id="a_Node000006"><a xlink:title=" ">
<polygon fill="#e0e0e0" stroke="#999999" points="753.5,-19 706.5,-19 706.5,0 753.5,0 753.5,-19"/>
<text text-anchor="middle" x="730" y="-7" font-family="Helvetica,sans-Serif" font-size="10.00">vector</text>
</a>
</g>
</g>
<!-- Node2&#45;&gt;Node6 -->
<g id="edge5_Node000002_Node000006" class="edge">
<title>Node2&#45;&gt;Node6</title>
<g id="a_edge5_Node000002_Node000006"><a xlink:title=" ">
<path fill="none" stroke="#63b8ff" d="M408.74,-56.46C411.87,-55.96 414.98,-55.47 418,-55 519.3,-39.34 639.42,-22.77 696.57,-15.01"/>
<polygon fill="#63b8ff" stroke="#63b8ff" points="697.05,-18.47 706.49,-13.66 696.11,-11.54 697.05,-18.47"/>
</a>
</g>
</g>
<!-- Node7&#45;&gt;Node2 -->
<g id="edge7_Node000007_Node000002" class="edge">
<title>Node7&#45;&gt;Node2</title>
<g id="a_edge7_Node000007_Node000002"><a xlink:title=" ">
<path fill="none" stroke="#63b8ff" d="M424.07,-109.98C413.92,-102.07 398.58,-90.11 386.35,-80.58"/>
<polygon fill="#63b8ff" stroke="#63b8ff" points="388.16,-77.56 378.12,-74.17 383.86,-83.08 388.16,-77.56"/>
</a>
</g>
</g>
<!-- Node7&#45;&gt;Node3 -->
<g id="edge14_Node000007_Node000003" class="edge">
<title>Node7&#45;&gt;Node3</title>
<g id="a_edge14_Node000007_Node000003"><a xlink:title=" ">
<path fill="none" stroke="#63b8ff" d="M394.8,-116.86C352.05,-113.53 283.72,-103.58 233,-74 213.48,-62.61 196.98,-42.24 186.83,-27.64"/>
<polygon fill="#63b8ff" stroke="#63b8ff" points="189.56,-25.43 181.12,-19.03 183.73,-29.3 189.56,-25.43"/>
</a>
</g>
</g>
<!-- Node7&#45;&gt;Node5 -->
<g id="edge16_Node000007_Node000005" class="edge">
<title>Node7&#45;&gt;Node5</title>
<g id="a_edge16_Node000007_Node000005"><a xlink:title=" ">
<path fill="none" stroke="#63b8ff" d="M454.27,-109.9C468.12,-102.55 485.76,-90.54 494,-74 503.6,-54.74 483.83,-36.44 465.58,-24.47"/>
<polygon fill="#63b8ff" stroke="#63b8ff" points="467.22,-21.38 456.87,-19.13 463.56,-27.34 467.22,-21.38"/>
</a>
</g>
</g>
<!-- Node7&#45;&gt;Node6 -->
<g id="edge18_Node000007_Node000006" class="edge">
<title>Node7&#45;&gt;Node6</title>
<g id="a_edge18_Node000007_Node000006"><a xlink:title=" ">
<path fill="none" stroke="#63b8ff" d="M475.08,-111.42C478.43,-110.91 481.77,-110.43 485,-110 527.05,-104.44 836.46,-105.37 865,-74 897.06,-38.76 813.37,-21.38 763.71,-14.39"/>
<polygon fill="#63b8ff" stroke="#63b8ff" points="764.05,-10.9 753.68,-13.05 763.13,-17.84 764.05,-10.9"/>
</a>
</g>
</g>
<!-- Node8 -->
<g id="Node000008" class="node">
<title>Node8</title>
<g id="a_Node000008"><a xlink:href="params_8hpp.html" target="_top" xlink:title=" ">
<polygon fill="white" stroke="#666666" points="661,-74 541,-74 541,-55 661,-55 661,-74"/>
<text text-anchor="middle" x="601" y="-62" font-family="Helvetica,sans-Serif" font-size="10.00">compiler/params.hpp</text>
</a>
</g>
</g>
<!-- Node7&#45;&gt;Node8 -->
<g id="edge8_Node000007_Node000008" class="edge">
<title>Node7&#45;&gt;Node8</title>
<g id="a_edge8_Node000007_Node000008"><a xlink:title=" ">
<path fill="none" stroke="#63b8ff" d="M461.67,-109.98C489.54,-101.09 533.45,-87.07 564.52,-77.15"/>
<polygon fill="#63b8ff" stroke="#63b8ff" points="565.66,-80.46 574.12,-74.08 563.53,-73.79 565.66,-80.46"/>
</a>
</g>
</g>
<!-- Node9 -->
<g id="Node000009" class="node">
<title>Node9</title>
<g id="a_Node000009"><a xlink:href="types_8hpp.html" target="_top" xlink:title=" ">
<polygon fill="white" stroke="#666666" points="307.5,-74 242.5,-74 242.5,-55 307.5,-55 307.5,-74"/>
<text text-anchor="middle" x="275" y="-62" font-family="Helvetica,sans-Serif" font-size="10.00">types.hpp</text>
</a>
</g>
</g>
<!-- Node7&#45;&gt;Node9 -->
<g id="edge10_Node000007_Node000009" class="edge">
<title>Node7&#45;&gt;Node9</title>
<g id="a_edge10_Node000007_Node000009"><a xlink:title=" ">
<path fill="none" stroke="#63b8ff" d="M409.29,-109.98C382.55,-101.13 340.47,-87.19 310.55,-77.28"/>
<polygon fill="#63b8ff" stroke="#63b8ff" points="311.5,-73.9 300.91,-74.08 309.3,-80.55 311.5,-73.9"/>
</a>
</g>
</g>
<!-- Node10 -->
<g id="Node000010" class="node">
<title>Node10</title>
<g id="a_Node000010"><a xlink:title=" ">
<polygon fill="#e0e0e0" stroke="#999999" points="744.5,-74 679.5,-74 679.5,-55 744.5,-55 744.5,-74"/>
<text text-anchor="middle" x="712" y="-62" font-family="Helvetica,sans-Serif" font-size="10.00">exception</text>
</a>
</g>
</g>
<!-- Node7&#45;&gt;Node10 -->
<g id="edge15_Node000007_Node000010" class="edge">
<title>Node7&#45;&gt;Node10</title>
<g id="a_edge15_Node000007_Node000010"><a xlink:title=" ">
<path fill="none" stroke="#63b8ff" d="M475.37,-111.02C520.19,-102.67 594.97,-88.64 669.42,-74.09"/>
<polygon fill="#63b8ff" stroke="#63b8ff" points="670.31,-77.49 679.45,-72.13 668.96,-70.62 670.31,-77.49"/>
</a>
</g>
</g>
<!-- Node11 -->
<g id="Node000011" class="node">
<title>Node11</title>
<g id="a_Node000011"><a xlink:title=" ">
<polygon fill="#e0e0e0" stroke="#999999" points="855.5,-74 762.5,-74 762.5,-55 855.5,-55 855.5,-74"/>
<text text-anchor="middle" x="809" y="-62" font-family="Helvetica,sans-Serif" font-size="10.00">unordered_map</text>
</a>
</g>
</g>
<!-- Node7&#45;&gt;Node11 -->
<g id="edge17_Node000007_Node000011" class="edge">
<title>Node7&#45;&gt;Node11</title>
<g id="a_edge17_Node000007_Node000011"><a xlink:title=" ">
<path fill="none" stroke="#63b8ff" d="M475.1,-111.56C478.44,-111.01 481.78,-110.49 485,-110 601.11,-92.37 632.95,-91.26 752.58,-74.18"/>
<polygon fill="#63b8ff" stroke="#63b8ff" points="753.1,-77.64 762.5,-72.75 752.1,-70.71 753.1,-77.64"/>
</a>
</g>
</g>
<!-- Node12 -->
<g id="Node000012" class="node">
<title>Node12</title>
<g id="a_Node000012"><a xlink:title=" ">
<polygon fill="#e0e0e0" stroke="#999999" points="485,-74 427,-74 427,-55 485,-55 485,-74"/>
<text text-anchor="middle" x="456" y="-62" font-family="Helvetica,sans-Serif" font-size="10.00">memory</text>
</a>
</g>
</g>
<!-- Node7&#45;&gt;Node12 -->
<g id="edge19_Node000007_Node000012" class="edge">
<title>Node7&#45;&gt;Node12</title>
<g id="a_edge19_Node000007_Node000012"><a xlink:title=" ">
<path fill="none" stroke="#63b8ff" d="M438.47,-109.75C441.28,-102.65 445.34,-92.4 448.85,-83.56"/>
<polygon fill="#63b8ff" stroke="#63b8ff" points="452.17,-84.68 452.6,-74.09 445.66,-82.1 452.17,-84.68"/>
</a>
</g>
</g>
<!-- Node8&#45;&gt;Node5 -->
<g id="edge9_Node000008_Node000005" class="edge">
<title>Node8&#45;&gt;Node5</title>
<g id="a_edge9_Node000008_Node000005"><a xlink:title=" ">
<path fill="none" stroke="#63b8ff" d="M575.13,-54.98C547.02,-45.73 502.08,-30.94 471.83,-20.98"/>
<polygon fill="#63b8ff" stroke="#63b8ff" points="472.77,-17.6 462.18,-17.8 470.58,-24.25 472.77,-17.6"/>
</a>
</g>
</g>
<!-- Node9&#45;&gt;Node3 -->
<g id="edge12_Node000009_Node000003" class="edge">
<title>Node9&#45;&gt;Node3</title>
<g id="a_edge12_Node000009_Node000003"><a xlink:title=" ">
<path fill="none" stroke="#63b8ff" d="M259.09,-54.98C243.45,-46.61 219.34,-33.7 201.12,-23.95"/>
<polygon fill="#63b8ff" stroke="#63b8ff" points="202.66,-20.8 192.2,-19.17 199.36,-26.98 202.66,-20.8"/>
</a>
</g>
</g>
<!-- Node9&#45;&gt;Node4 -->
<g id="edge11_Node000009_Node000004" class="edge">
<title>Node9&#45;&gt;Node4</title>
<g id="a_edge11_Node000009_Node000004"><a xlink:title=" ">
<path fill="none" stroke="#63b8ff" d="M275,-54.75C275,-47.8 275,-37.85 275,-29.13"/>
<polygon fill="#63b8ff" stroke="#63b8ff" points="278.5,-29.09 275,-19.09 271.5,-29.09 278.5,-29.09"/>
</a>
</g>
</g>
<!-- Node9&#45;&gt;Node5 -->
<g id="edge13_Node000009_Node000005" class="edge">
<title>Node9&#45;&gt;Node5</title>
<g id="a_edge13_Node000009_Node000005"><a xlink:title=" ">
<path fill="none" stroke="#63b8ff" d="M301.51,-54.98C330.48,-45.68 376.9,-30.77 407.91,-20.81"/>
<polygon fill="#63b8ff" stroke="#63b8ff" points="409.34,-24.03 417.79,-17.63 407.2,-17.36 409.34,-24.03"/>
</a>
</g>
</g>
<!-- Node16&#45;&gt;Node3 -->
<g id="edge26_Node000016_Node000003" class="edge">
<title>Node16&#45;&gt;Node3</title>
<g id="a_edge26_Node000016_Node000003"><a xlink:title=" ">
<path fill="none" stroke="#63b8ff" d="M64.28,-109.76C77.43,-97.42 102.33,-74.24 124,-55 135.11,-45.14 147.77,-34.3 157.81,-25.79"/>
<polygon fill="#63b8ff" stroke="#63b8ff" points="160.16,-28.38 165.55,-19.26 155.65,-23.03 160.16,-28.38"/>
</a>
</g>
</g>
</g>
</svg>
