<?xml version="1.0" encoding="UTF-8" standalone="no"?>
<!DOCTYPE svg PUBLIC "-//W3C//DTD SVG 1.1//EN"
 "http://www.w3.org/Graphics/SVG/1.1/DTD/svg11.dtd">
<!-- Generated by graphviz version 2.43.0 (0)
 -->
<!-- Title: src/compiler/compiler.hpp Pages: 1 -->
<svg width="351pt" height="137pt"
 viewBox="0.00 0.00 350.50 137.00" xmlns="http://www.w3.org/2000/svg" xmlns:xlink="http://www.w3.org/1999/xlink">
<g id="graph0" class="graph" transform="scale(1 1) rotate(0) translate(4 133)">
<title>src/compiler/compiler.hpp</title>
<!-- Node1 -->
<g id="Node000001" class="node">
<title>Node1</title>
<g id="a_Node000001"><a xlink:title=" ">
<polygon fill="#999999" stroke="#666666" points="227.5,-129 84.5,-129 84.5,-110 227.5,-110 227.5,-129"/>
<text text-anchor="middle" x="156" y="-117" font-family="Helvetica,sans-Serif" font-size="10.00">src/compiler/compiler.hpp</text>
</a>
</g>
</g>
<!-- Node2 -->
<g id="Node000002" class="node">
<title>Node2</title>
<g id="a_Node000002"><a xlink:href="types_8hpp.html" target="_top" xlink:title=" ">
<polygon fill="white" stroke="#666666" points="127.5,-74 62.5,-74 62.5,-55 127.5,-55 127.5,-74"/>
<text text-anchor="middle" x="95" y="-62" font-family="Helvetica,sans-Serif" font-size="10.00">types.hpp</text>
</a>
</g>
</g>
<!-- Node1&#45;&gt;Node2 -->
<g id="edge1_Node000001_Node000002" class="edge">
<title>Node1&#45;&gt;Node2</title>
<g id="a_edge1_Node000001_Node000002"><a xlink:title=" ">
<path fill="none" stroke="#63b8ff" d="M146.2,-109.98C137.18,-102.15 123.59,-90.34 112.68,-80.86"/>
<polygon fill="#63b8ff" stroke="#63b8ff" points="114.82,-78.09 104.98,-74.17 110.23,-83.37 114.82,-78.09"/>
</a>
</g>
</g>
<!-- Node4 -->
<g id="Node000004" class="node">
<title>Node4</title>
<g id="a_Node000004"><a xlink:title=" ">
<polygon fill="#e0e0e0" stroke="#999999" points="50,-19 0,-19 0,0 50,0 50,-19"/>
<text text-anchor="middle" x="25" y="-7" font-family="Helvetica,sans-Serif" font-size="10.00">cstdint</text>
</a>
</g>
</g>
<!-- Node1&#45;&gt;Node4 -->
<g id="edge5_Node000001_Node000004" class="edge">
<title>Node1&#45;&gt;Node4</title>
<g id="a_edge5_Node000001_Node000004"><a xlink:title=" ">
<path fill="none" stroke="#63b8ff" d="M120.19,-109.88C98.74,-103.15 72.19,-91.88 54,-74 41.45,-61.66 33.81,-42.9 29.54,-28.96"/>
<polygon fill="#63b8ff" stroke="#63b8ff" points="32.84,-27.75 26.82,-19.03 26.09,-29.6 32.84,-27.75"/>
</a>
</g>
</g>
<!-- Node5 -->
<g id="Node000005" class="node">
<title>Node5</title>
<g id="a_Node000005"><a xlink:title=" ">
<polygon fill="#e0e0e0" stroke="#999999" points="184,-19 140,-19 140,0 184,0 184,-19"/>
<text text-anchor="middle" x="162" y="-7" font-family="Helvetica,sans-Serif" font-size="10.00">string</text>
</a>
</g>
</g>
<!-- Node1&#45;&gt;Node5 -->
<g id="edge6_Node000001_Node000005" class="edge">
<title>Node1&#45;&gt;Node5</title>
<g id="a_edge6_Node000001_Node000005"><a xlink:title=" ">
<path fill="none" stroke="#63b8ff" d="M156.49,-109.66C157.46,-92.17 159.65,-52.8 160.96,-29.27"/>
<polygon fill="#63b8ff" stroke="#63b8ff" points="164.46,-29.34 161.52,-19.16 157.47,-28.95 164.46,-29.34"/>
</a>
</g>
</g>
<!-- Node6 -->
<g id="Node000006" class="node">
<title>Node6</title>
<g id="a_Node000006"><a xlink:title=" ">
<polygon fill="#e0e0e0" stroke="#999999" points="277.5,-74 184.5,-74 184.5,-55 277.5,-55 277.5,-74"/>
<text text-anchor="middle" x="231" y="-62" font-family="Helvetica,sans-Serif" font-size="10.00">unordered_map</text>
</a>
</g>
</g>
<!-- Node1&#45;&gt;Node6 -->
<g id="edge7_Node000001_Node000006" class="edge">
<title>Node1&#45;&gt;Node6</title>
<g id="a_edge7_Node000001_Node000006"><a xlink:title=" ">
<path fill="none" stroke="#63b8ff" d="M168.05,-109.98C179.46,-101.92 196.83,-89.65 210.43,-80.03"/>
<polygon fill="#63b8ff" stroke="#63b8ff" points="212.58,-82.8 218.73,-74.17 208.54,-77.08 212.58,-82.8"/>
</a>
</g>
</g>
<!-- Node7 -->
<g id="Node000007" class="node">
<title>Node7</title>
<g id="a_Node000007"><a xlink:title=" ">
<polygon fill="#e0e0e0" stroke="#999999" points="342.5,-74 295.5,-74 295.5,-55 342.5,-55 342.5,-74"/>
<text text-anchor="middle" x="319" y="-62" font-family="Helvetica,sans-Serif" font-size="10.00">vector</text>
</a>
</g>
</g>
<!-- Node1&#45;&gt;Node7 -->
<g id="edge8_Node000001_Node000007" class="edge">
<title>Node1&#45;&gt;Node7</title>
<g id="a_edge8_Node000001_Node000007"><a xlink:title=" ">
<path fill="none" stroke="#63b8ff" d="M182.19,-109.98C210.24,-100.86 254.86,-86.36 285.46,-76.4"/>
<polygon fill="#63b8ff" stroke="#63b8ff" points="286.83,-79.64 295.26,-73.22 284.67,-72.98 286.83,-79.64"/>
</a>
</g>
</g>
<!-- Node3 -->
<g id="Node000003" class="node">
<title>Node3</title>
<g id="a_Node000003"><a xlink:title=" ">
<polygon fill="#e0e0e0" stroke="#999999" points="121.5,-19 68.5,-19 68.5,0 121.5,0 121.5,-19"/>
<text text-anchor="middle" x="95" y="-7" font-family="Helvetica,sans-Serif" font-size="10.00">cstddef</text>
</a>
</g>
</g>
<!-- Node2&#45;&gt;Node3 -->
<g id="edge2_Node000002_Node000003" class="edge">
<title>Node2&#45;&gt;Node3</title>
<g id="a_edge2_Node000002_Node000003"><a xlink:title=" ">
<path fill="none" stroke="#63b8ff" d="M95,-54.75C95,-47.8 95,-37.85 95,-29.13"/>
<polygon fill="#63b8ff" stroke="#63b8ff" points="98.5,-29.09 95,-19.09 91.5,-29.09 98.5,-29.09"/>
</a>
</g>
</g>
<!-- Node2&#45;&gt;Node4 -->
<g id="edge3_Node000002_Node000004" class="edge">
<title>Node2&#45;&gt;Node4</title>
<g id="a_edge3_Node000002_Node000004"><a xlink:title=" ">
<path fill="none" stroke="#63b8ff" d="M83.75,-54.98C73.2,-47 57.2,-34.88 44.56,-25.31"/>
<polygon fill="#63b8ff" stroke="#63b8ff" points="46.54,-22.42 36.45,-19.17 42.31,-28 46.54,-22.42"/>
</a>
</g>
</g>
<!-- Node2&#45;&gt;Node5 -->
<g id="edge4_Node000002_Node000005" class="edge">
<title>Node2&#45;&gt;Node5</title>
<g id="a_edge4_Node000002_Node000005"><a xlink:title=" ">
<path fill="none" stroke="#63b8ff" d="M105.76,-54.98C115.77,-47.07 130.89,-35.11 142.93,-25.58"/>
<polygon fill="#63b8ff" stroke="#63b8ff" points="145.37,-28.12 151.04,-19.17 141.03,-22.63 145.37,-28.12"/>
</a>
</g>
</g>
</g>
</svg>
