<?xml version="1.0" encoding="UTF-8" standalone="no"?>
<!DOCTYPE svg PUBLIC "-//W3C//DTD SVG 1.1//EN"
 "http://www.w3.org/Graphics/SVG/1.1/DTD/svg11.dtd">
<!-- Generated by graphviz version 2.43.0 (0)
 -->
<!-- Title: src/compiler/compiler.cpp Pages: 1 -->
<svg width="1169pt" height="192pt"
 viewBox="0.00 0.00 1169.30 192.00" xmlns="http://www.w3.org/2000/svg" xmlns:xlink="http://www.w3.org/1999/xlink">
<g id="graph0" class="graph" transform="scale(1 1) rotate(0) translate(4 188)">
<title>src/compiler/compiler.cpp</title>
<!-- Node1 -->
<g id="Node000001" class="node">
<title>Node1</title>
<g id="a_Node000001"><a xlink:title=" ">
<polygon fill="#999999" stroke="#666666" points="788.8,-184 646.8,-184 646.8,-165 788.8,-165 788.8,-184"/>
<text text-anchor="middle" x="717.8" y="-172" font-family="Helvetica,sans-Serif" font-size="10.00">src/compiler/compiler.cpp</text>
</a>
</g>
</g>
<!-- Node2 -->
<g id="Node000002" class="node">
<title>Node2</title>
<g id="a_Node000002"><a xlink:href="compiler_8hpp.html" target="_top" xlink:title=" ">
<polygon fill="white" stroke="#666666" points="369.8,-129 289.8,-129 289.8,-110 369.8,-110 369.8,-129"/>
<text text-anchor="middle" x="329.8" y="-117" font-family="Helvetica,sans-Serif" font-size="10.00">compiler.hpp</text>
</a>
</g>
</g>
<!-- Node1&#45;&gt;Node2 -->
<g id="edge1_Node000001_Node000002" class="edge">
<title>Node1&#45;&gt;Node2</title>
<g id="a_edge1_Node000001_Node000002"><a xlink:title=" ">
<path fill="none" stroke="#63b8ff" d="M655.46,-164.98C578.9,-154.53 450.53,-136.99 379.99,-127.36"/>
<polygon fill="#63b8ff" stroke="#63b8ff" points="380.4,-123.88 370.02,-125.99 379.46,-130.81 380.4,-123.88"/>
</a>
</g>
</g>
<!-- Node3 -->
<g id="Node000003" class="node">
<title>Node3</title>
<g id="a_Node000003"><a xlink:href="bytecode_8hpp.html" target="_top" xlink:title=" ">
<polygon fill="white" stroke="#666666" points="187.3,-74 104.3,-74 104.3,-55 187.3,-55 187.3,-74"/>
<text text-anchor="middle" x="145.8" y="-62" font-family="Helvetica,sans-Serif" font-size="10.00">bytecode.hpp</text>
</a>
</g>
</g>
<!-- Node1&#45;&gt;Node3 -->
<g id="edge19_Node000001_Node000003" class="edge">
<title>Node1&#45;&gt;Node3</title>
<g id="a_edge19_Node000001_Node000003"><a xlink:title=" ">
<path fill="none" stroke="#63b8ff" d="M646.44,-173.56C558.79,-171.98 406.28,-163.8 280.8,-129 239.24,-117.47 194.62,-94.07 168.51,-79.12"/>
<polygon fill="#63b8ff" stroke="#63b8ff" points="170.17,-76.04 159.77,-74.03 166.65,-82.09 170.17,-76.04"/>
</a>
</g>
</g>
<!-- Node4 -->
<g id="Node000004" class="node">
<title>Node4</title>
<g id="a_Node000004"><a xlink:title=" ">
<polygon fill="#e0e0e0" stroke="#999999" points="159.8,-19 109.8,-19 109.8,0 159.8,0 159.8,-19"/>
<text text-anchor="middle" x="134.8" y="-7" font-family="Helvetica,sans-Serif" font-size="10.00">cstdint</text>
</a>
</g>
</g>
<!-- Node1&#45;&gt;Node4 -->
<g id="edge23_Node000001_Node000004" class="edge">
<title>Node1&#45;&gt;Node4</title>
<g id="a_edge23_Node000001_Node000004"><a xlink:title=" ">
<path fill="none" stroke="#63b8ff" d="M646.55,-174C539.72,-173.36 332.29,-166.75 160.8,-129 91.86,-113.82 52.16,-131.92 11.8,-74 6.98,-67.07 6.95,-61.91 11.8,-55 22.16,-40.24 67,-26.67 99.56,-18.49"/>
<polygon fill="#63b8ff" stroke="#63b8ff" points="100.75,-21.8 109.64,-16.03 99.09,-15 100.75,-21.8"/>
</a>
</g>
</g>
<!-- Node5 -->
<g id="Node000005" class="node">
<title>Node5</title>
<g id="a_Node000005"><a xlink:title=" ">
<polygon fill="#e0e0e0" stroke="#999999" points="80.3,-19 27.3,-19 27.3,0 80.3,0 80.3,-19"/>
<text text-anchor="middle" x="53.8" y="-7" font-family="Helvetica,sans-Serif" font-size="10.00">cstddef</text>
</a>
</g>
</g>
<!-- Node1&#45;&gt;Node5 -->
<g id="edge22_Node000001_Node000005" class="edge">
<title>Node1&#45;&gt;Node5</title>
<g id="a_edge22_Node000001_Node000005"><a xlink:title=" ">
<path fill="none" stroke="#63b8ff" d="M646.52,-171.99C484.93,-168.11 100.75,-156.13 48.8,-129 14.89,-111.29 -10.69,-89.99 4.8,-55 10.13,-42.97 20.49,-32.8 30.32,-25.24"/>
<polygon fill="#63b8ff" stroke="#63b8ff" points="32.57,-27.93 38.67,-19.27 28.5,-22.23 32.57,-27.93"/>
</a>
</g>
</g>
<!-- Node6 -->
<g id="Node000006" class="node">
<title>Node6</title>
<g id="a_Node000006"><a xlink:title=" ">
<polygon fill="#e0e0e0" stroke="#999999" points="262.8,-19 218.8,-19 218.8,0 262.8,0 262.8,-19"/>
<text text-anchor="middle" x="240.8" y="-7" font-family="Helvetica,sans-Serif" font-size="10.00">string</text>
</a>
</g>
</g>
<!-- Node1&#45;&gt;Node6 -->
<g id="edge29_Node000001_Node000006" class="edge">
<title>Node1&#45;&gt;Node6</title>
<g id="a_edge29_Node000001_Node000006"><a xlink:title=" ">
<path fill="none" stroke="#63b8ff" d="M721.52,-164.96C730.28,-143.34 749.42,-86 720.8,-55 688.45,-19.95 354.66,-26.87 273.17,-18.49"/>
<polygon fill="#63b8ff" stroke="#63b8ff" points="273.42,-14.99 263.04,-17.13 272.49,-21.93 273.42,-14.99"/>
</a>
</g>
</g>
<!-- Node7 -->
<g id="Node000007" class="node">
<title>Node7</title>
<g id="a_Node000007"><a xlink:title=" ">
<polygon fill="#e0e0e0" stroke="#999999" points="328.3,-19 281.3,-19 281.3,0 328.3,0 328.3,-19"/>
<text text-anchor="middle" x="304.8" y="-7" font-family="Helvetica,sans-Serif" font-size="10.00">vector</text>
</a>
</g>
</g>
<!-- Node1&#45;&gt;Node7 -->
<g id="edge30_Node000001_Node000007" class="edge">
<title>Node1&#45;&gt;Node7</title>
<g id="a_edge30_Node000001_Node000007"><a xlink:title=" ">
<path fill="none" stroke="#63b8ff" d="M727.96,-164.81C736.71,-156.6 748.7,-143.43 753.8,-129 764.77,-97.99 775.88,-79.38 753.8,-55 726.02,-24.33 438.21,-13.97 338.55,-11.29"/>
<polygon fill="#63b8ff" stroke="#63b8ff" points="338.51,-7.79 328.43,-11.03 338.33,-14.79 338.51,-7.79"/>
</a>
</g>
</g>
<!-- Node8 -->
<g id="Node000008" class="node">
<title>Node8</title>
<g id="a_Node000008"><a xlink:href="params_8hpp.html" target="_top" xlink:title=" ">
<polygon fill="white" stroke="#666666" points="711.8,-74 591.8,-74 591.8,-55 711.8,-55 711.8,-74"/>
<text text-anchor="middle" x="651.8" y="-62" font-family="Helvetica,sans-Serif" font-size="10.00">compiler/params.hpp</text>
</a>
</g>
</g>
<!-- Node1&#45;&gt;Node8 -->
<g id="edge20_Node000001_Node000008" class="edge">
<title>Node1&#45;&gt;Node8</title>
<g id="a_edge20_Node000001_Node000008"><a xlink:title=" ">
<path fill="none" stroke="#63b8ff" d="M712.4,-164.66C701.47,-146.77 676.56,-106 662.31,-82.69"/>
<polygon fill="#63b8ff" stroke="#63b8ff" points="665.3,-80.87 657.09,-74.16 659.32,-84.52 665.3,-80.87"/>
</a>
</g>
</g>
<!-- Node9 -->
<g id="Node000009" class="node">
<title>Node9</title>
<g id="a_Node000009"><a xlink:href="types_8hpp.html" target="_top" xlink:title=" ">
<polygon fill="white" stroke="#666666" points="86.3,-74 21.3,-74 21.3,-55 86.3,-55 86.3,-74"/>
<text text-anchor="middle" x="53.8" y="-62" font-family="Helvetica,sans-Serif" font-size="10.00">types.hpp</text>
</a>
</g>
</g>
<!-- Node1&#45;&gt;Node9 -->
<g id="edge21_Node000001_Node000009" class="edge">
<title>Node1&#45;&gt;Node9</title>
<g id="a_edge21_Node000001_Node000009"><a xlink:title=" ">
<path fill="none" stroke="#63b8ff" d="M646.73,-172.79C550.6,-170.54 374.3,-161.8 227.8,-129 174.54,-117.07 115.41,-93.05 81.61,-78.21"/>
<polygon fill="#63b8ff" stroke="#63b8ff" points="82.93,-74.96 72.37,-74.1 80.09,-81.36 82.93,-74.96"/>
</a>
</g>
</g>
<!-- Node10 -->
<g id="Node000010" class="node">
<title>Node10</title>
<g id="a_Node000010"><a xlink:title=" ">
<polygon fill="#e0e0e0" stroke="#999999" points="573.3,-74 508.3,-74 508.3,-55 573.3,-55 573.3,-74"/>
<text text-anchor="middle" x="540.8" y="-62" font-family="Helvetica,sans-Serif" font-size="10.00">exception</text>
</a>
</g>
</g>
<!-- Node1&#45;&gt;Node10 -->
<g id="edge25_Node000001_Node000010" class="edge">
<title>Node1&#45;&gt;Node10</title>
<g id="a_edge25_Node000001_Node000010"><a xlink:title=" ">
<path fill="none" stroke="#63b8ff" d="M703.62,-164.84C673.07,-146.2 600.81,-102.11 563.69,-79.46"/>
<polygon fill="#63b8ff" stroke="#63b8ff" points="565.42,-76.42 555.06,-74.2 561.77,-82.39 565.42,-76.42"/>
</a>
</g>
</g>
<!-- Node13 -->
<g id="Node000013" class="node">
<title>Node13</title>
<g id="a_Node000013"><a xlink:title=" ">
<polygon fill="#e0e0e0" stroke="#999999" points="855.3,-129 806.3,-129 806.3,-110 855.3,-110 855.3,-129"/>
<text text-anchor="middle" x="830.8" y="-117" font-family="Helvetica,sans-Serif" font-size="10.00">cstdlib</text>
</a>
</g>
</g>
<!-- Node1&#45;&gt;Node13 -->
<g id="edge24_Node000001_Node000013" class="edge">
<title>Node1&#45;&gt;Node13</title>
<g id="a_edge24_Node000001_Node000013"><a xlink:title=" ">
<path fill="none" stroke="#63b8ff" d="M735.96,-164.98C754.06,-156.5 782.09,-143.35 802.99,-133.54"/>
<polygon fill="#63b8ff" stroke="#63b8ff" points="804.75,-136.59 812.32,-129.17 801.78,-130.25 804.75,-136.59"/>
</a>
</g>
</g>
<!-- Node14 -->
<g id="Node000014" class="node">
<title>Node14</title>
<g id="a_Node000014"><a xlink:title=" ">
<polygon fill="#e0e0e0" stroke="#999999" points="933.8,-129 873.8,-129 873.8,-110 933.8,-110 933.8,-129"/>
<text text-anchor="middle" x="903.8" y="-117" font-family="Helvetica,sans-Serif" font-size="10.00">iostream</text>
</a>
</g>
</g>
<!-- Node1&#45;&gt;Node14 -->
<g id="edge26_Node000001_Node000014" class="edge">
<title>Node1&#45;&gt;Node14</title>
<g id="a_edge26_Node000001_Node000014"><a xlink:title=" ">
<path fill="none" stroke="#63b8ff" d="M747.69,-164.98C779.19,-156.01 828.97,-141.82 863.83,-131.89"/>
<polygon fill="#63b8ff" stroke="#63b8ff" points="865.03,-135.19 873.69,-129.08 863.11,-128.46 865.03,-135.19"/>
</a>
</g>
</g>
<!-- Node15 -->
<g id="Node000015" class="node">
<title>Node15</title>
<g id="a_Node000015"><a xlink:title=" ">
<polygon fill="#e0e0e0" stroke="#999999" points="1009.3,-129 952.3,-129 952.3,-110 1009.3,-110 1009.3,-129"/>
<text text-anchor="middle" x="980.8" y="-117" font-family="Helvetica,sans-Serif" font-size="10.00">ostream</text>
</a>
</g>
</g>
<!-- Node1&#45;&gt;Node15 -->
<g id="edge27_Node000001_Node000015" class="edge">
<title>Node1&#45;&gt;Node15</title>
<g id="a_edge27_Node000001_Node000015"><a xlink:title=" ">
<path fill="none" stroke="#63b8ff" d="M762.69,-164.96C806.03,-156.64 873.74,-143.45 942.1,-129.1"/>
<polygon fill="#63b8ff" stroke="#63b8ff" points="943.12,-132.47 952.19,-126.98 941.68,-125.62 943.12,-132.47"/>
</a>
</g>
</g>
<!-- Node16 -->
<g id="Node000016" class="node">
<title>Node16</title>
<g id="a_Node000016"><a xlink:title=" ">
<polygon fill="#e0e0e0" stroke="#999999" points="1092.3,-129 1027.3,-129 1027.3,-110 1092.3,-110 1092.3,-129"/>
<text text-anchor="middle" x="1059.8" y="-117" font-family="Helvetica,sans-Serif" font-size="10.00">stdexcept</text>
</a>
</g>
</g>
<!-- Node1&#45;&gt;Node16 -->
<g id="edge28_Node000001_Node000016" class="edge">
<title>Node1&#45;&gt;Node16</title>
<g id="a_edge28_Node000001_Node000016"><a xlink:title=" ">
<path fill="none" stroke="#63b8ff" d="M782.86,-164.98C841.68,-157.04 930.87,-144.36 1017.2,-129.21"/>
<polygon fill="#63b8ff" stroke="#63b8ff" points="1017.92,-132.63 1027.16,-127.44 1016.71,-125.74 1017.92,-132.63"/>
</a>
</g>
</g>
<!-- Node17 -->
<g id="Node000017" class="node">
<title>Node17</title>
<g id="a_Node000017"><a xlink:title=" ">
<polygon fill="#e0e0e0" stroke="#999999" points="1161.3,-129 1110.3,-129 1110.3,-110 1161.3,-110 1161.3,-129"/>
<text text-anchor="middle" x="1135.8" y="-117" font-family="Helvetica,sans-Serif" font-size="10.00">errno.h</text>
</a>
</g>
</g>
<!-- Node1&#45;&gt;Node17 -->
<g id="edge31_Node000001_Node000017" class="edge">
<title>Node1&#45;&gt;Node17</title>
<g id="a_edge31_Node000001_Node000017"><a xlink:title=" ">
<path fill="none" stroke="#63b8ff" d="M788.98,-168.03C864.19,-161.63 986.36,-149.44 1100.32,-129.07"/>
<polygon fill="#63b8ff" stroke="#63b8ff" points="1101.05,-132.49 1110.26,-127.26 1099.8,-125.6 1101.05,-132.49"/>
</a>
</g>
</g>
<!-- Node2&#45;&gt;Node3 -->
<g id="edge2_Node000002_Node000003" class="edge">
<title>Node2&#45;&gt;Node3</title>
<g id="a_edge2_Node000002_Node000003"><a xlink:title=" ">
<path fill="none" stroke="#63b8ff" d="M300.24,-109.98C269.08,-101.01 219.83,-86.82 185.35,-76.89"/>
<polygon fill="#63b8ff" stroke="#63b8ff" points="186.18,-73.49 175.6,-74.08 184.24,-80.21 186.18,-73.49"/>
</a>
</g>
</g>
<!-- Node2&#45;&gt;Node4 -->
<g id="edge13_Node000002_Node000004" class="edge">
<title>Node2&#45;&gt;Node4</title>
<g id="a_edge13_Node000002_Node000004"><a xlink:title=" ">
<path fill="none" stroke="#63b8ff" d="M314.18,-109.84C280.29,-91.08 199.84,-46.52 159.2,-24.01"/>
<polygon fill="#63b8ff" stroke="#63b8ff" points="160.68,-20.83 150.24,-19.05 157.29,-26.95 160.68,-20.83"/>
</a>
</g>
</g>
<!-- Node2&#45;&gt;Node6 -->
<g id="edge15_Node000002_Node000006" class="edge">
<title>Node2&#45;&gt;Node6</title>
<g id="a_edge15_Node000002_Node000006"><a xlink:title=" ">
<path fill="none" stroke="#63b8ff" d="M322.52,-109.66C307.65,-91.61 273.58,-50.28 254.46,-27.08"/>
<polygon fill="#63b8ff" stroke="#63b8ff" points="257,-24.65 247.94,-19.16 251.6,-29.1 257,-24.65"/>
</a>
</g>
</g>
<!-- Node2&#45;&gt;Node7 -->
<g id="edge17_Node000002_Node000007" class="edge">
<title>Node2&#45;&gt;Node7</title>
<g id="a_edge17_Node000002_Node000007"><a xlink:title=" ">
<path fill="none" stroke="#63b8ff" d="M325.19,-109.92C320.71,-101.15 314.11,-87.03 310.8,-74 307.09,-59.37 305.63,-42.32 305.07,-29.58"/>
<polygon fill="#63b8ff" stroke="#63b8ff" points="308.56,-29.17 304.78,-19.27 301.57,-29.37 308.56,-29.17"/>
</a>
</g>
</g>
<!-- Node2&#45;&gt;Node8 -->
<g id="edge7_Node000002_Node000008" class="edge">
<title>Node2&#45;&gt;Node8</title>
<g id="a_edge7_Node000002_Node000008"><a xlink:title=" ">
<path fill="none" stroke="#63b8ff" d="M369.93,-111.89C425.14,-102.81 525.04,-86.36 589.87,-75.69"/>
<polygon fill="#63b8ff" stroke="#63b8ff" points="590.67,-79.11 599.97,-74.03 589.53,-72.2 590.67,-79.11"/>
</a>
</g>
</g>
<!-- Node2&#45;&gt;Node9 -->
<g id="edge9_Node000002_Node000009" class="edge">
<title>Node2&#45;&gt;Node9</title>
<g id="a_edge9_Node000002_Node000009"><a xlink:title=" ">
<path fill="none" stroke="#63b8ff" d="M289.43,-111.07C244.59,-102.78 169.8,-88.8 96.35,-74.28"/>
<polygon fill="#63b8ff" stroke="#63b8ff" points="96.96,-70.83 86.47,-72.32 95.6,-77.7 96.96,-70.83"/>
</a>
</g>
</g>
<!-- Node2&#45;&gt;Node10 -->
<g id="edge14_Node000002_Node000010" class="edge">
<title>Node2&#45;&gt;Node10</title>
<g id="a_edge14_Node000002_Node000010"><a xlink:title=" ">
<path fill="none" stroke="#63b8ff" d="M363.7,-109.98C400.25,-100.81 458.49,-86.18 498.13,-76.22"/>
<polygon fill="#63b8ff" stroke="#63b8ff" points="499.18,-79.56 508.03,-73.73 497.48,-72.77 499.18,-79.56"/>
</a>
</g>
</g>
<!-- Node11 -->
<g id="Node000011" class="node">
<title>Node11</title>
<g id="a_Node000011"><a xlink:title=" ">
<polygon fill="#e0e0e0" stroke="#999999" points="413.3,-74 320.3,-74 320.3,-55 413.3,-55 413.3,-74"/>
<text text-anchor="middle" x="366.8" y="-62" font-family="Helvetica,sans-Serif" font-size="10.00">unordered_map</text>
</a>
</g>
</g>
<!-- Node2&#45;&gt;Node11 -->
<g id="edge16_Node000002_Node000011" class="edge">
<title>Node2&#45;&gt;Node11</title>
<g id="a_edge16_Node000002_Node000011"><a xlink:title=" ">
<path fill="none" stroke="#63b8ff" d="M335.91,-109.75C341.09,-102.34 348.65,-91.5 355,-82.41"/>
<polygon fill="#63b8ff" stroke="#63b8ff" points="357.95,-84.29 360.81,-74.09 352.21,-80.29 357.95,-84.29"/>
</a>
</g>
</g>
<!-- Node12 -->
<g id="Node000012" class="node">
<title>Node12</title>
<g id="a_Node000012"><a xlink:title=" ">
<polygon fill="#e0e0e0" stroke="#999999" points="489.8,-74 431.8,-74 431.8,-55 489.8,-55 489.8,-74"/>
<text text-anchor="middle" x="460.8" y="-62" font-family="Helvetica,sans-Serif" font-size="10.00">memory</text>
</a>
</g>
</g>
<!-- Node2&#45;&gt;Node12 -->
<g id="edge18_Node000002_Node000012" class="edge">
<title>Node2&#45;&gt;Node12</title>
<g id="a_edge18_Node000002_Node000012"><a xlink:title=" ">
<path fill="none" stroke="#63b8ff" d="M350.85,-109.98C372.21,-101.34 405.51,-87.87 429.87,-78.02"/>
<polygon fill="#63b8ff" stroke="#63b8ff" points="431.42,-81.17 439.37,-74.17 428.79,-74.68 431.42,-81.17"/>
</a>
</g>
</g>
<!-- Node3&#45;&gt;Node4 -->
<g id="edge3_Node000003_Node000004" class="edge">
<title>Node3&#45;&gt;Node4</title>
<g id="a_edge3_Node000003_Node000004"><a xlink:title=" ">
<path fill="none" stroke="#63b8ff" d="M143.99,-54.75C142.55,-47.8 140.48,-37.85 138.67,-29.13"/>
<polygon fill="#63b8ff" stroke="#63b8ff" points="142.05,-28.17 136.59,-19.09 135.19,-29.59 142.05,-28.17"/>
</a>
</g>
</g>
<!-- Node3&#45;&gt;Node5 -->
<g id="edge4_Node000003_Node000005" class="edge">
<title>Node3&#45;&gt;Node5</title>
<g id="a_edge4_Node000003_Node000005"><a xlink:title=" ">
<path fill="none" stroke="#63b8ff" d="M131.02,-54.98C116.62,-46.69 94.49,-33.94 77.61,-24.22"/>
<polygon fill="#63b8ff" stroke="#63b8ff" points="79.27,-21.13 68.85,-19.17 75.77,-27.19 79.27,-21.13"/>
</a>
</g>
</g>
<!-- Node3&#45;&gt;Node6 -->
<g id="edge5_Node000003_Node000006" class="edge">
<title>Node3&#45;&gt;Node6</title>
<g id="a_edge5_Node000003_Node000006"><a xlink:title=" ">
<path fill="none" stroke="#63b8ff" d="M161.07,-54.98C175.94,-46.69 198.79,-33.94 216.22,-24.22"/>
<polygon fill="#63b8ff" stroke="#63b8ff" points="218.23,-27.1 225.26,-19.17 214.82,-20.99 218.23,-27.1"/>
</a>
</g>
</g>
<!-- Node3&#45;&gt;Node7 -->
<g id="edge6_Node000003_Node000007" class="edge">
<title>Node3&#45;&gt;Node7</title>
<g id="a_edge6_Node000003_Node000007"><a xlink:title=" ">
<path fill="none" stroke="#63b8ff" d="M171.35,-54.98C198.56,-45.91 241.73,-31.52 271.57,-21.58"/>
<polygon fill="#63b8ff" stroke="#63b8ff" points="272.76,-24.87 281.14,-18.39 270.54,-18.23 272.76,-24.87"/>
</a>
</g>
</g>
<!-- Node8&#45;&gt;Node6 -->
<g id="edge8_Node000008_Node000006" class="edge">
<title>Node8&#45;&gt;Node6</title>
<g id="a_edge8_Node000008_Node000006"><a xlink:title=" ">
<path fill="none" stroke="#63b8ff" d="M591.6,-56.06C588.62,-55.7 585.68,-55.34 582.8,-55 447.88,-38.88 410.16,-45.16 273.1,-18.98"/>
<polygon fill="#63b8ff" stroke="#63b8ff" points="273.54,-15.5 263.06,-17.04 272.21,-22.37 273.54,-15.5"/>
</a>
</g>
</g>
<!-- Node9&#45;&gt;Node4 -->
<g id="edge11_Node000009_Node000004" class="edge">
<title>Node9&#45;&gt;Node4</title>
<g id="a_edge11_Node000009_Node000004"><a xlink:title=" ">
<path fill="none" stroke="#63b8ff" d="M66.82,-54.98C79.26,-46.84 98.26,-34.41 113.01,-24.76"/>
<polygon fill="#63b8ff" stroke="#63b8ff" points="115.1,-27.57 121.55,-19.17 111.27,-21.72 115.1,-27.57"/>
</a>
</g>
</g>
<!-- Node9&#45;&gt;Node5 -->
<g id="edge10_Node000009_Node000005" class="edge">
<title>Node9&#45;&gt;Node5</title>
<g id="a_edge10_Node000009_Node000005"><a xlink:title=" ">
<path fill="none" stroke="#63b8ff" d="M53.8,-54.75C53.8,-47.8 53.8,-37.85 53.8,-29.13"/>
<polygon fill="#63b8ff" stroke="#63b8ff" points="57.3,-29.09 53.8,-19.09 50.3,-29.09 57.3,-29.09"/>
</a>
</g>
</g>
<!-- Node9&#45;&gt;Node6 -->
<g id="edge12_Node000009_Node000006" class="edge">
<title>Node9&#45;&gt;Node6</title>
<g id="a_edge12_Node000009_Node000006"><a xlink:title=" ">
<path fill="none" stroke="#63b8ff" d="M83.85,-54.98C118.15,-45.26 174.01,-29.43 209.02,-19.51"/>
<polygon fill="#63b8ff" stroke="#63b8ff" points="210.07,-22.85 218.74,-16.75 208.16,-16.11 210.07,-22.85"/>
</a>
</g>
</g>
</g>
</svg>
