<?xml version="1.0" encoding="UTF-8" standalone="no"?>
<!DOCTYPE svg PUBLIC "-//W3C//DTD SVG 1.1//EN"
 "http://www.w3.org/Graphics/SVG/1.1/DTD/svg11.dtd">
<!-- Generated by graphviz version 2.43.0 (0)
 -->
<!-- Title: src/compiler/main.cpp Pages: 1 -->
<svg width="1322pt" height="203pt"
 viewBox="0.00 0.00 1322.08 203.00" xmlns="http://www.w3.org/2000/svg" xmlns:xlink="http://www.w3.org/1999/xlink">
<g id="graph0" class="graph" transform="scale(1 1) rotate(0) translate(4 199)">
<title>src/compiler/main.cpp</title>
<!-- Node1 -->
<g id="Node000001" class="node">
<title>Node1</title>
<g id="a_Node000001"><a xlink:title=" ">
<polygon fill="#999999" stroke="#666666" points="950.58,-195 825.58,-195 825.58,-176 950.58,-176 950.58,-195"/>
<text text-anchor="middle" x="888.08" y="-183" font-family="Helvetica,sans-Serif" font-size="10.00">src/compiler/main.cpp</text>
</a>
</g>
</g>
<!-- Node2 -->
<g id="Node000002" class="node">
<title>Node2</title>
<g id="a_Node000002"><a xlink:href="compiler_8hpp.html" target="_top" xlink:title=" ">
<polygon fill="white" stroke="#666666" points="536.08,-134.5 456.08,-134.5 456.08,-115.5 536.08,-115.5 536.08,-134.5"/>
<text text-anchor="middle" x="496.08" y="-122.5" font-family="Helvetica,sans-Serif" font-size="10.00">compiler.hpp</text>
</a>
</g>
</g>
<!-- Node1&#45;&gt;Node2 -->
<g id="edge1_Node000001_Node000002" class="edge">
<title>Node1&#45;&gt;Node2</title>
<g id="a_edge1_Node000001_Node000002"><a xlink:title=" ">
<path fill="none" stroke="#63b8ff" d="M831.08,-175.99C754.47,-164.56 619.5,-144.42 546.45,-133.52"/>
<polygon fill="#63b8ff" stroke="#63b8ff" points="546.54,-129.99 536.13,-131.98 545.51,-136.92 546.54,-129.99"/>
</a>
</g>
</g>
<!-- Node4 -->
<g id="Node000004" class="node">
<title>Node4</title>
<g id="a_Node000004"><a xlink:title=" ">
<polygon fill="#e0e0e0" stroke="#999999" points="556.08,-19 506.08,-19 506.08,0 556.08,0 556.08,-19"/>
<text text-anchor="middle" x="531.08" y="-7" font-family="Helvetica,sans-Serif" font-size="10.00">cstdint</text>
</a>
</g>
</g>
<!-- Node1&#45;&gt;Node4 -->
<g id="edge24_Node000001_Node000004" class="edge">
<title>Node1&#45;&gt;Node4</title>
<g id="a_edge24_Node000001_Node000004"><a xlink:title=" ">
<path fill="none" stroke="#63b8ff" d="M881.4,-175.82C859.99,-148.07 793.62,-62.87 780.08,-55 744.26,-34.19 625.99,-19.88 566.25,-13.8"/>
<polygon fill="#63b8ff" stroke="#63b8ff" points="566.46,-10.3 556.16,-12.79 565.76,-17.27 566.46,-10.3"/>
</a>
</g>
</g>
<!-- Node6 -->
<g id="Node000006" class="node">
<title>Node6</title>
<g id="a_Node000006"><a xlink:title=" ">
<polygon fill="#e0e0e0" stroke="#999999" points="343.08,-19 299.08,-19 299.08,0 343.08,0 343.08,-19"/>
<text text-anchor="middle" x="321.08" y="-7" font-family="Helvetica,sans-Serif" font-size="10.00">string</text>
</a>
</g>
</g>
<!-- Node1&#45;&gt;Node6 -->
<g id="edge27_Node000001_Node000006" class="edge">
<title>Node1&#45;&gt;Node6</title>
<g id="a_edge27_Node000001_Node000006"><a xlink:title=" ">
<path fill="none" stroke="#63b8ff" d="M825.45,-183.28C714.65,-180.37 477.06,-170.78 279.08,-140 154.88,-120.69 81.9,-172.71 4.08,-74 -1.15,-67.37 -1.46,-61.37 4.08,-55 13.39,-44.29 209.9,-22.31 288.75,-13.89"/>
<polygon fill="#63b8ff" stroke="#63b8ff" points="289.49,-17.33 299.07,-12.79 288.75,-10.37 289.49,-17.33"/>
</a>
</g>
</g>
<!-- Node10 -->
<g id="Node000010" class="node">
<title>Node10</title>
<g id="a_Node000010"><a xlink:href="params_8hpp.html" target="_top" xlink:title=" ">
<polygon fill="white" stroke="#666666" points="133.08,-74 13.08,-74 13.08,-55 133.08,-55 133.08,-74"/>
<text text-anchor="middle" x="73.08" y="-62" font-family="Helvetica,sans-Serif" font-size="10.00">compiler/params.hpp</text>
</a>
</g>
</g>
<!-- Node1&#45;&gt;Node10 -->
<g id="edge28_Node000001_Node000010" class="edge">
<title>Node1&#45;&gt;Node10</title>
<g id="a_edge28_Node000001_Node000010"><a xlink:title=" ">
<path fill="none" stroke="#63b8ff" d="M825.4,-180.08C739.68,-173.6 581.21,-160.08 447.08,-140 328.35,-122.23 190.17,-92.25 119.67,-76.28"/>
<polygon fill="#63b8ff" stroke="#63b8ff" points="120.29,-72.83 109.77,-74.03 118.74,-79.66 120.29,-72.83"/>
</a>
</g>
</g>
<!-- Node15 -->
<g id="Node000015" class="node">
<title>Node15</title>
<g id="a_Node000015"><a xlink:title=" ">
<polygon fill="#e0e0e0" stroke="#999999" points="1015.08,-134.5 865.08,-134.5 865.08,-115.5 1015.08,-115.5 1015.08,-134.5"/>
<text text-anchor="middle" x="940.08" y="-122.5" font-family="Helvetica,sans-Serif" font-size="10.00">boost/program_options.hpp</text>
</a>
</g>
</g>
<!-- Node1&#45;&gt;Node15 -->
<g id="edge22_Node000001_Node000015" class="edge">
<title>Node1&#45;&gt;Node15</title>
<g id="a_edge22_Node000001_Node000015"><a xlink:title=" ">
<path fill="none" stroke="#63b8ff" d="M895.75,-175.87C903.58,-167.05 915.94,-153.16 925.61,-142.27"/>
<polygon fill="#63b8ff" stroke="#63b8ff" points="928.35,-144.47 932.37,-134.67 923.11,-139.82 928.35,-144.47"/>
</a>
</g>
</g>
<!-- Node16 -->
<g id="Node000016" class="node">
<title>Node16</title>
<g id="a_Node000016"><a xlink:title=" ">
<polygon fill="#e0e0e0" stroke="#999999" points="1162.58,-140 1033.58,-140 1033.58,-110 1162.58,-110 1162.58,-140"/>
<text text-anchor="start" x="1041.58" y="-128" font-family="Helvetica,sans-Serif" font-size="10.00">boost/program_options</text>
<text text-anchor="middle" x="1098.08" y="-117" font-family="Helvetica,sans-Serif" font-size="10.00">/value_semantic.hpp</text>
</a>
</g>
</g>
<!-- Node1&#45;&gt;Node16 -->
<g id="edge23_Node000001_Node000016" class="edge">
<title>Node1&#45;&gt;Node16</title>
<g id="a_edge23_Node000001_Node000016"><a xlink:title=" ">
<path fill="none" stroke="#63b8ff" d="M918.61,-175.99C949.76,-167.32 998.91,-153.62 1037.91,-142.76"/>
<polygon fill="#63b8ff" stroke="#63b8ff" points="1038.9,-146.12 1047.59,-140.06 1037.02,-139.38 1038.9,-146.12"/>
</a>
</g>
</g>
<!-- Node17 -->
<g id="Node000017" class="node">
<title>Node17</title>
<g id="a_Node000017"><a xlink:title=" ">
<polygon fill="#e0e0e0" stroke="#999999" points="1235.58,-134.5 1180.58,-134.5 1180.58,-115.5 1235.58,-115.5 1235.58,-134.5"/>
<text text-anchor="middle" x="1208.08" y="-122.5" font-family="Helvetica,sans-Serif" font-size="10.00">fstream</text>
</a>
</g>
</g>
<!-- Node1&#45;&gt;Node17 -->
<g id="edge25_Node000001_Node000017" class="edge">
<title>Node1&#45;&gt;Node17</title>
<g id="a_edge25_Node000001_Node000017"><a xlink:title=" ">
<path fill="none" stroke="#63b8ff" d="M950.65,-178.61C1008.74,-172.23 1097.26,-160.16 1172.08,-140 1174.23,-139.42 1176.44,-138.75 1178.64,-138.03"/>
<polygon fill="#63b8ff" stroke="#63b8ff" points="1179.92,-141.29 1188.15,-134.63 1177.56,-134.7 1179.92,-141.29"/>
</a>
</g>
</g>
<!-- Node18 -->
<g id="Node000018" class="node">
<title>Node18</title>
<g id="a_Node000018"><a xlink:title=" ">
<polygon fill="#e0e0e0" stroke="#999999" points="1314.08,-134.5 1254.08,-134.5 1254.08,-115.5 1314.08,-115.5 1314.08,-134.5"/>
<text text-anchor="middle" x="1284.08" y="-122.5" font-family="Helvetica,sans-Serif" font-size="10.00">iostream</text>
</a>
</g>
</g>
<!-- Node1&#45;&gt;Node18 -->
<g id="edge26_Node000001_Node000018" class="edge">
<title>Node1&#45;&gt;Node18</title>
<g id="a_edge26_Node000001_Node000018"><a xlink:title=" ">
<path fill="none" stroke="#63b8ff" d="M950.73,-180.89C1022.61,-175.78 1143.62,-164.22 1245.08,-140 1247.74,-139.36 1250.47,-138.61 1253.2,-137.78"/>
<polygon fill="#63b8ff" stroke="#63b8ff" points="1254.49,-141.04 1262.88,-134.57 1252.29,-134.4 1254.49,-141.04"/>
</a>
</g>
</g>
<!-- Node3 -->
<g id="Node000003" class="node">
<title>Node3</title>
<g id="a_Node000003"><a xlink:href="bytecode_8hpp.html" target="_top" xlink:title=" ">
<polygon fill="white" stroke="#666666" points="537.58,-74 454.58,-74 454.58,-55 537.58,-55 537.58,-74"/>
<text text-anchor="middle" x="496.08" y="-62" font-family="Helvetica,sans-Serif" font-size="10.00">bytecode.hpp</text>
</a>
</g>
</g>
<!-- Node2&#45;&gt;Node3 -->
<g id="edge2_Node000002_Node000003" class="edge">
<title>Node2&#45;&gt;Node3</title>
<g id="a_edge2_Node000002_Node000003"><a xlink:title=" ">
<path fill="none" stroke="#63b8ff" d="M496.08,-115.37C496.08,-107.25 496.08,-94.81 496.08,-84.39"/>
<polygon fill="#63b8ff" stroke="#63b8ff" points="499.58,-84.17 496.08,-74.17 492.58,-84.17 499.58,-84.17"/>
</a>
</g>
</g>
<!-- Node2&#45;&gt;Node4 -->
<g id="edge16_Node000002_Node000004" class="edge">
<title>Node2&#45;&gt;Node4</title>
<g id="a_edge16_Node000002_Node000004"><a xlink:title=" ">
<path fill="none" stroke="#63b8ff" d="M509.91,-115.24C522.29,-106.5 539.59,-91.83 547.08,-74 553.32,-59.13 547.73,-41.25 541.51,-28.25"/>
<polygon fill="#63b8ff" stroke="#63b8ff" points="544.59,-26.59 536.81,-19.4 538.41,-29.87 544.59,-26.59"/>
</a>
</g>
</g>
<!-- Node2&#45;&gt;Node6 -->
<g id="edge18_Node000002_Node000006" class="edge">
<title>Node2&#45;&gt;Node6</title>
<g id="a_edge18_Node000002_Node000006"><a xlink:title=" ">
<path fill="none" stroke="#63b8ff" d="M456.07,-116.15C427.51,-108.97 389.46,-96.02 362.08,-74 346.94,-61.82 335.59,-42.49 328.72,-28.35"/>
<polygon fill="#63b8ff" stroke="#63b8ff" points="331.86,-26.79 324.52,-19.15 325.49,-29.7 331.86,-26.79"/>
</a>
</g>
</g>
<!-- Node7 -->
<g id="Node000007" class="node">
<title>Node7</title>
<g id="a_Node000007"><a xlink:title=" ">
<polygon fill="#e0e0e0" stroke="#999999" points="739.58,-19 692.58,-19 692.58,0 739.58,0 739.58,-19"/>
<text text-anchor="middle" x="716.08" y="-7" font-family="Helvetica,sans-Serif" font-size="10.00">vector</text>
</a>
</g>
</g>
<!-- Node2&#45;&gt;Node7 -->
<g id="edge20_Node000002_Node000007" class="edge">
<title>Node2&#45;&gt;Node7</title>
<g id="a_edge20_Node000002_Node000007"><a xlink:title=" ">
<path fill="none" stroke="#63b8ff" d="M536.32,-123.03C607.13,-120.38 749.42,-110.53 780.08,-74 795.71,-55.37 768.79,-35.96 745.21,-23.59"/>
<polygon fill="#63b8ff" stroke="#63b8ff" points="746.62,-20.38 736.11,-19.05 743.5,-26.64 746.62,-20.38"/>
</a>
</g>
</g>
<!-- Node8 -->
<g id="Node000008" class="node">
<title>Node8</title>
<g id="a_Node000008"><a xlink:href="essentials_8hpp.html" target="_top" xlink:title=" ">
<polygon fill="white" stroke="#666666" points="238.58,-74 151.58,-74 151.58,-55 238.58,-55 238.58,-74"/>
<text text-anchor="middle" x="195.08" y="-62" font-family="Helvetica,sans-Serif" font-size="10.00">essentials.hpp</text>
</a>
</g>
</g>
<!-- Node2&#45;&gt;Node8 -->
<g id="edge7_Node000002_Node000008" class="edge">
<title>Node2&#45;&gt;Node8</title>
<g id="a_edge7_Node000002_Node000008"><a xlink:title=" ">
<path fill="none" stroke="#63b8ff" d="M455.8,-116.17C402.49,-105.81 308.35,-87.52 248.97,-75.97"/>
<polygon fill="#63b8ff" stroke="#63b8ff" points="249.51,-72.51 239.03,-74.04 248.18,-79.39 249.51,-72.51"/>
</a>
</g>
</g>
<!-- Node2&#45;&gt;Node10 -->
<g id="edge10_Node000002_Node000010" class="edge">
<title>Node2&#45;&gt;Node10</title>
<g id="a_edge10_Node000002_Node000010"><a xlink:title=" ">
<path fill="none" stroke="#63b8ff" d="M455.9,-118.44C384.02,-108.5 232.58,-87.56 143.22,-75.2"/>
<polygon fill="#63b8ff" stroke="#63b8ff" points="143.56,-71.71 133.18,-73.81 142.6,-78.65 143.56,-71.71"/>
</a>
</g>
</g>
<!-- Node11 -->
<g id="Node000011" class="node">
<title>Node11</title>
<g id="a_Node000011"><a xlink:href="types_8hpp.html" target="_top" xlink:title=" ">
<polygon fill="white" stroke="#666666" points="436.58,-74 371.58,-74 371.58,-55 436.58,-55 436.58,-74"/>
<text text-anchor="middle" x="404.08" y="-62" font-family="Helvetica,sans-Serif" font-size="10.00">types.hpp</text>
</a>
</g>
</g>
<!-- Node2&#45;&gt;Node11 -->
<g id="edge12_Node000002_Node000011" class="edge">
<title>Node2&#45;&gt;Node11</title>
<g id="a_edge12_Node000002_Node000011"><a xlink:title=" ">
<path fill="none" stroke="#63b8ff" d="M482.5,-115.37C467.69,-105.95 443.75,-90.73 426.21,-79.58"/>
<polygon fill="#63b8ff" stroke="#63b8ff" points="428.02,-76.58 417.71,-74.17 424.27,-82.49 428.02,-76.58"/>
</a>
</g>
</g>
<!-- Node12 -->
<g id="Node000012" class="node">
<title>Node12</title>
<g id="a_Node000012"><a xlink:title=" ">
<polygon fill="#e0e0e0" stroke="#999999" points="659.58,-74 594.58,-74 594.58,-55 659.58,-55 659.58,-74"/>
<text text-anchor="middle" x="627.08" y="-62" font-family="Helvetica,sans-Serif" font-size="10.00">exception</text>
</a>
</g>
</g>
<!-- Node2&#45;&gt;Node12 -->
<g id="edge17_Node000002_Node000012" class="edge">
<title>Node2&#45;&gt;Node12</title>
<g id="a_edge17_Node000002_Node000012"><a xlink:title=" ">
<path fill="none" stroke="#63b8ff" d="M515.13,-115.49C537.05,-105.7 573.29,-89.52 598.57,-78.23"/>
<polygon fill="#63b8ff" stroke="#63b8ff" points="600.3,-81.29 608.01,-74.02 597.45,-74.9 600.3,-81.29"/>
</a>
</g>
</g>
<!-- Node13 -->
<g id="Node000013" class="node">
<title>Node13</title>
<g id="a_Node000013"><a xlink:title=" ">
<polygon fill="#e0e0e0" stroke="#999999" points="770.58,-74 677.58,-74 677.58,-55 770.58,-55 770.58,-74"/>
<text text-anchor="middle" x="724.08" y="-62" font-family="Helvetica,sans-Serif" font-size="10.00">unordered_map</text>
</a>
</g>
</g>
<!-- Node2&#45;&gt;Node13 -->
<g id="edge19_Node000002_Node000013" class="edge">
<title>Node2&#45;&gt;Node13</title>
<g id="a_edge19_Node000002_Node000013"><a xlink:title=" ">
<path fill="none" stroke="#63b8ff" d="M529.23,-115.49C569.33,-105.2 636.94,-87.86 681.03,-76.54"/>
<polygon fill="#63b8ff" stroke="#63b8ff" points="682.07,-79.89 690.88,-74.02 680.33,-73.11 682.07,-79.89"/>
</a>
</g>
</g>
<!-- Node14 -->
<g id="Node000014" class="node">
<title>Node14</title>
<g id="a_Node000014"><a xlink:title=" ">
<polygon fill="#e0e0e0" stroke="#999999" points="315.08,-74 257.08,-74 257.08,-55 315.08,-55 315.08,-74"/>
<text text-anchor="middle" x="286.08" y="-62" font-family="Helvetica,sans-Serif" font-size="10.00">memory</text>
</a>
</g>
</g>
<!-- Node2&#45;&gt;Node14 -->
<g id="edge21_Node000002_Node000014" class="edge">
<title>Node2&#45;&gt;Node14</title>
<g id="a_edge21_Node000002_Node000014"><a xlink:title=" ">
<path fill="none" stroke="#63b8ff" d="M465.54,-115.49C428.42,-105.15 365.71,-87.68 325.11,-76.37"/>
<polygon fill="#63b8ff" stroke="#63b8ff" points="325.87,-72.95 315.3,-73.64 323.99,-79.69 325.87,-72.95"/>
</a>
</g>
</g>
<!-- Node3&#45;&gt;Node4 -->
<g id="edge3_Node000003_Node000004" class="edge">
<title>Node3&#45;&gt;Node4</title>
<g id="a_edge3_Node000003_Node000004"><a xlink:title=" ">
<path fill="none" stroke="#63b8ff" d="M501.86,-54.75C506.7,-47.42 513.76,-36.73 519.72,-27.7"/>
<polygon fill="#63b8ff" stroke="#63b8ff" points="522.82,-29.36 525.41,-19.09 516.97,-25.5 522.82,-29.36"/>
</a>
</g>
</g>
<!-- Node5 -->
<g id="Node000005" class="node">
<title>Node5</title>
<g id="a_Node000005"><a xlink:title=" ">
<polygon fill="#e0e0e0" stroke="#999999" points="452.58,-19 399.58,-19 399.58,0 452.58,0 452.58,-19"/>
<text text-anchor="middle" x="426.08" y="-7" font-family="Helvetica,sans-Serif" font-size="10.00">cstddef</text>
</a>
</g>
</g>
<!-- Node3&#45;&gt;Node5 -->
<g id="edge4_Node000003_Node000005" class="edge">
<title>Node3&#45;&gt;Node5</title>
<g id="a_edge4_Node000003_Node000005"><a xlink:title=" ">
<path fill="none" stroke="#63b8ff" d="M484.83,-54.98C474.28,-47 458.28,-34.88 445.64,-25.31"/>
<polygon fill="#63b8ff" stroke="#63b8ff" points="447.61,-22.42 437.53,-19.17 443.39,-28 447.61,-22.42"/>
</a>
</g>
</g>
<!-- Node3&#45;&gt;Node6 -->
<g id="edge5_Node000003_Node000006" class="edge">
<title>Node3&#45;&gt;Node6</title>
<g id="a_edge5_Node000003_Node000006"><a xlink:title=" ">
<path fill="none" stroke="#63b8ff" d="M467.96,-54.98C436.53,-45.46 385.73,-30.08 352.88,-20.13"/>
<polygon fill="#63b8ff" stroke="#63b8ff" points="353.88,-16.78 343.3,-17.23 351.85,-23.48 353.88,-16.78"/>
</a>
</g>
</g>
<!-- Node3&#45;&gt;Node7 -->
<g id="edge6_Node000003_Node000007" class="edge">
<title>Node3&#45;&gt;Node7</title>
<g id="a_edge6_Node000003_Node000007"><a xlink:title=" ">
<path fill="none" stroke="#63b8ff" d="M531.42,-54.98C573.08,-44.95 641.77,-28.4 682.6,-18.57"/>
<polygon fill="#63b8ff" stroke="#63b8ff" points="683.44,-21.96 692.34,-16.22 681.8,-15.16 683.44,-21.96"/>
</a>
</g>
</g>
<!-- Node8&#45;&gt;Node6 -->
<g id="edge9_Node000008_Node000006" class="edge">
<title>Node8&#45;&gt;Node6</title>
<g id="a_edge9_Node000008_Node000006"><a xlink:title=" ">
<path fill="none" stroke="#63b8ff" d="M215.32,-54.98C235.77,-46.38 267.61,-32.99 291.01,-23.15"/>
<polygon fill="#63b8ff" stroke="#63b8ff" points="292.6,-26.27 300.46,-19.17 289.89,-19.82 292.6,-26.27"/>
</a>
</g>
</g>
<!-- Node9 -->
<g id="Node000009" class="node">
<title>Node9</title>
<g id="a_Node000009"><a xlink:title=" ">
<polygon fill="#e0e0e0" stroke="#999999" points="220.58,-19 169.58,-19 169.58,0 220.58,0 220.58,-19"/>
<text text-anchor="middle" x="195.08" y="-7" font-family="Helvetica,sans-Serif" font-size="10.00">errno.h</text>
</a>
</g>
</g>
<!-- Node8&#45;&gt;Node9 -->
<g id="edge8_Node000008_Node000009" class="edge">
<title>Node8&#45;&gt;Node9</title>
<g id="a_edge8_Node000008_Node000009"><a xlink:title=" ">
<path fill="none" stroke="#63b8ff" d="M195.08,-54.75C195.08,-47.8 195.08,-37.85 195.08,-29.13"/>
<polygon fill="#63b8ff" stroke="#63b8ff" points="198.58,-29.09 195.08,-19.09 191.58,-29.09 198.58,-29.09"/>
</a>
</g>
</g>
<!-- Node10&#45;&gt;Node6 -->
<g id="edge11_Node000010_Node000006" class="edge">
<title>Node10&#45;&gt;Node6</title>
<g id="a_edge11_Node000010_Node000006"><a xlink:title=" ">
<path fill="none" stroke="#63b8ff" d="M112.92,-54.98C161.96,-44.51 244.23,-26.92 289.25,-17.3"/>
<polygon fill="#63b8ff" stroke="#63b8ff" points="290.02,-20.72 299.07,-15.2 288.55,-13.87 290.02,-20.72"/>
</a>
</g>
</g>
<!-- Node11&#45;&gt;Node4 -->
<g id="edge14_Node000011_Node000004" class="edge">
<title>Node11&#45;&gt;Node4</title>
<g id="a_edge14_Node000011_Node000004"><a xlink:title=" ">
<path fill="none" stroke="#63b8ff" d="M424.48,-54.98C445.1,-46.38 477.18,-32.99 500.77,-23.15"/>
<polygon fill="#63b8ff" stroke="#63b8ff" points="502.42,-26.25 510.3,-19.17 499.72,-19.79 502.42,-26.25"/>
</a>
</g>
</g>
<!-- Node11&#45;&gt;Node5 -->
<g id="edge13_Node000011_Node000005" class="edge">
<title>Node11&#45;&gt;Node5</title>
<g id="a_edge13_Node000011_Node000005"><a xlink:title=" ">
<path fill="none" stroke="#63b8ff" d="M407.71,-54.75C410.66,-47.65 414.91,-37.4 418.58,-28.56"/>
<polygon fill="#63b8ff" stroke="#63b8ff" points="421.91,-29.67 422.51,-19.09 415.45,-26.98 421.91,-29.67"/>
</a>
</g>
</g>
<!-- Node11&#45;&gt;Node6 -->
<g id="edge15_Node000011_Node000006" class="edge">
<title>Node11&#45;&gt;Node6</title>
<g id="a_edge15_Node000011_Node000006"><a xlink:title=" ">
<path fill="none" stroke="#63b8ff" d="M390.74,-54.98C377.99,-46.84 358.52,-34.41 343.41,-24.76"/>
<polygon fill="#63b8ff" stroke="#63b8ff" points="344.97,-21.6 334.66,-19.17 341.2,-27.5 344.97,-21.6"/>
</a>
</g>
</g>
</g>
</svg>
