<?xml version="1.0" encoding="UTF-8" standalone="no"?>
<!DOCTYPE svg PUBLIC "-//W3C//DTD SVG 1.1//EN"
 "http://www.w3.org/Graphics/SVG/1.1/DTD/svg11.dtd">
<!-- Generated by graphviz version 2.43.0 (0)
 -->
<!-- Title: main Pages: 1 -->
<svg width="634pt" height="247pt"
 viewBox="0.00 0.00 634.00 247.00" xmlns="http://www.w3.org/2000/svg" xmlns:xlink="http://www.w3.org/1999/xlink">
<g id="graph0" class="graph" transform="scale(1 1) rotate(0) translate(4 243)">
<title>main</title>
<!-- Node1 -->
<g id="Node000001" class="node">
<title>Node1</title>
<g id="a_Node000001"><a xlink:title=" ">
<polygon fill="#999999" stroke="#666666" points="41,-64 0,-64 0,-45 41,-45 41,-64"/>
<text text-anchor="middle" x="20.5" y="-52" font-family="Helvetica,sans-Serif" font-size="10.00">main</text>
</a>
</g>
</g>
<!-- Node2 -->
<g id="Node000002" class="node">
<title>Node2</title>
<g id="a_Node000002"><a xlink:href="classULang_1_1CompilerInstance.html#a421fd0510115d58a186435486b9fa7aa" target="_top" xlink:title="does the compilation">
<polygon fill="white" stroke="#666666" points="216,-91.5 77,-91.5 77,-61.5 216,-61.5 216,-91.5"/>
<text text-anchor="start" x="85" y="-79.5" font-family="Helvetica,sans-Serif" font-size="10.00">ULang::CompilerInstance</text>
<text text-anchor="middle" x="146.5" y="-68.5" font-family="Helvetica,sans-Serif" font-size="10.00">::compile</text>
</a>
</g>
</g>
<!-- Node1&#45;&gt;Node2 -->
<g id="edge1_Node000001_Node000002" class="edge">
<title>Node1&#45;&gt;Node2</title>
<g id="a_edge1_Node000001_Node000002"><a xlink:title=" ">
<path fill="none" stroke="#63b8ff" d="M41.15,-57.99C48.5,-59.29 57.37,-60.86 66.79,-62.54"/>
<polygon fill="#63b8ff" stroke="#63b8ff" points="66.32,-66.01 76.78,-64.31 67.54,-59.11 66.32,-66.01"/>
</a>
</g>
</g>
<!-- Node10 -->
<g id="Node000010" class="node">
<title>Node10</title>
<g id="a_Node000010"><a xlink:href="classULang_1_1Lexer.html#a683839683dfefa9502c5e151222ecb7e" target="_top" xlink:title="converts source code to tokens">
<polygon fill="white" stroke="#666666" points="417,-19 290,-19 290,0 417,0 417,-19"/>
<text text-anchor="middle" x="353.5" y="-7" font-family="Helvetica,sans-Serif" font-size="10.00">ULang::Lexer::tokenize</text>
</a>
</g>
</g>
<!-- Node1&#45;&gt;Node10 -->
<g id="edge12_Node000001_Node000010" class="edge">
<title>Node1&#45;&gt;Node10</title>
<g id="a_edge12_Node000001_Node000010"><a xlink:title=" ">
<path fill="none" stroke="#63b8ff" d="M41.21,-51.82C87.1,-45.58 202.97,-29.83 279.66,-19.4"/>
<polygon fill="#63b8ff" stroke="#63b8ff" points="280.31,-22.85 289.75,-18.03 279.37,-15.91 280.31,-22.85"/>
</a>
</g>
</g>
<!-- Node3 -->
<g id="Node000003" class="node">
<title>Node3</title>
<g id="a_Node000003"><a xlink:href="namespaceULang.html#ae0b1129fa6b35790dbd18cbf3add8eb8" target="_top" xlink:title=" ">
<polygon fill="white" stroke="#666666" points="404.5,-196 302.5,-196 302.5,-177 404.5,-177 404.5,-196"/>
<text text-anchor="middle" x="353.5" y="-184" font-family="Helvetica,sans-Serif" font-size="10.00">ULang::buildMeta</text>
</a>
</g>
</g>
<!-- Node2&#45;&gt;Node3 -->
<g id="edge2_Node000002_Node000003" class="edge">
<title>Node2&#45;&gt;Node3</title>
<g id="a_edge2_Node000002_Node000003"><a xlink:title=" ">
<path fill="none" stroke="#63b8ff" d="M161.53,-91.71C180.27,-111.11 215.39,-144.29 252,-162.5 264.54,-168.73 278.77,-173.4 292.5,-176.87"/>
<polygon fill="#63b8ff" stroke="#63b8ff" points="291.85,-180.31 302.38,-179.19 293.45,-173.5 291.85,-180.31"/>
</a>
</g>
</g>
<!-- Node6 -->
<g id="Node000006" class="node">
<title>Node6</title>
<g id="a_Node000006"><a xlink:href="classULang_1_1CompilerSyntaxException.html#a39539114f05c2d71321e5eb748da29f6" target="_top" xlink:title="formatted compiler exception output (human readable)">
<polygon fill="white" stroke="#666666" points="455,-153 252,-153 252,-134 455,-134 455,-153"/>
<text text-anchor="middle" x="353.5" y="-141" font-family="Helvetica,sans-Serif" font-size="10.00">ULang::CompilerSyntaxException::fmt</text>
</a>
</g>
</g>
<!-- Node2&#45;&gt;Node6 -->
<g id="edge5_Node000002_Node000006" class="edge">
<title>Node2&#45;&gt;Node6</title>
<g id="a_edge5_Node000002_Node000006"><a xlink:title=" ">
<path fill="none" stroke="#63b8ff" d="M175.58,-91.68C196.2,-102.25 225.18,-115.95 252,-124.5 260.7,-127.27 269.95,-129.7 279.19,-131.81"/>
<polygon fill="#63b8ff" stroke="#63b8ff" points="278.67,-135.27 289.19,-133.97 280.15,-128.43 278.67,-135.27"/>
</a>
</g>
</g>
<!-- Node9 -->
<g id="Node000009" class="node">
<title>Node9</title>
<g id="a_Node000009"><a xlink:href="classULang_1_1CompilerSyntaxException.html#a39818372c08ca906d4b50a91012801c6" target="_top" xlink:title=" ">
<polygon fill="white" stroke="#666666" points="443,-115.5 264,-115.5 264,-85.5 443,-85.5 443,-115.5"/>
<text text-anchor="start" x="272" y="-103.5" font-family="Helvetica,sans-Serif" font-size="10.00">ULang::CompilerSyntaxException</text>
<text text-anchor="middle" x="353.5" y="-92.5" font-family="Helvetica,sans-Serif" font-size="10.00">::getSeverity</text>
</a>
</g>
</g>
<!-- Node2&#45;&gt;Node9 -->
<g id="edge8_Node000002_Node000009" class="edge">
<title>Node2&#45;&gt;Node9</title>
<g id="a_edge8_Node000002_Node000009"><a xlink:title=" ">
<path fill="none" stroke="#63b8ff" d="M216.05,-84.53C228.17,-85.94 241.01,-87.45 253.77,-88.94"/>
<polygon fill="#63b8ff" stroke="#63b8ff" points="253.63,-92.45 263.97,-90.14 254.44,-85.5 253.63,-92.45"/>
</a>
</g>
</g>
<!-- Node2&#45;&gt;Node10 -->
<g id="edge9_Node000002_Node000010" class="edge">
<title>Node2&#45;&gt;Node10</title>
<g id="a_edge9_Node000002_Node000010"><a xlink:title=" ">
<path fill="none" stroke="#63b8ff" d="M184.73,-61.42C194.94,-57.1 205.97,-52.26 216,-47.5 232.34,-39.74 234.92,-34.47 252,-28.5 260.9,-25.39 270.42,-22.75 279.93,-20.53"/>
<polygon fill="#63b8ff" stroke="#63b8ff" points="280.8,-23.92 289.82,-18.35 279.3,-17.08 280.8,-23.92"/>
</a>
</g>
</g>
<!-- Node12 -->
<g id="Node000012" class="node">
<title>Node12</title>
<g id="a_Node000012"><a xlink:href="classULang_1_1CompilerSyntaxException.html#a6bac429bee65121a473bad6af7b5edbd" target="_top" xlink:title=" ">
<polygon fill="white" stroke="#666666" points="443,-67.5 264,-67.5 264,-37.5 443,-37.5 443,-67.5"/>
<text text-anchor="start" x="272" y="-55.5" font-family="Helvetica,sans-Serif" font-size="10.00">ULang::CompilerSyntaxException</text>
<text text-anchor="middle" x="353.5" y="-44.5" font-family="Helvetica,sans-Serif" font-size="10.00">::what</text>
</a>
</g>
</g>
<!-- Node2&#45;&gt;Node12 -->
<g id="edge11_Node000002_Node000012" class="edge">
<title>Node2&#45;&gt;Node12</title>
<g id="a_edge11_Node000002_Node000012"><a xlink:title=" ">
<path fill="none" stroke="#63b8ff" d="M216.05,-68.47C228.17,-67.06 241.01,-65.55 253.77,-64.06"/>
<polygon fill="#63b8ff" stroke="#63b8ff" points="254.44,-67.5 263.97,-62.86 253.63,-60.55 254.44,-67.5"/>
</a>
</g>
</g>
<!-- Node4 -->
<g id="Node000004" class="node">
<title>Node4</title>
<g id="a_Node000004"><a xlink:href="namespaceULang.html#afc471bffb16abe17362183d2a536a9e9" target="_top" xlink:title=" ">
<polygon fill="white" stroke="#666666" points="624,-239 493,-239 493,-220 624,-220 624,-239"/>
<text text-anchor="middle" x="558.5" y="-227" font-family="Helvetica,sans-Serif" font-size="10.00">ULang::addStringToPool</text>
</a>
</g>
</g>
<!-- Node3&#45;&gt;Node4 -->
<g id="edge3_Node000003_Node000004" class="edge">
<title>Node3&#45;&gt;Node4</title>
<g id="a_edge3_Node000003_Node000004"><a xlink:title=" ">
<path fill="none" stroke="#63b8ff" d="M399.55,-196.04C429.91,-202.47 470.14,-211 502.4,-217.83"/>
<polygon fill="#63b8ff" stroke="#63b8ff" points="502.07,-221.34 512.57,-219.98 503.52,-214.49 502.07,-221.34"/>
</a>
</g>
</g>
<!-- Node5 -->
<g id="Node000005" class="node">
<title>Node5</title>
<g id="a_Node000005"><a xlink:href="classULang_1_1SymbolTable.html#afccc103d9709d6e3a4beabb5ee291a0e" target="_top" xlink:title=" ">
<polygon fill="white" stroke="#666666" points="616.5,-201.5 500.5,-201.5 500.5,-171.5 616.5,-171.5 616.5,-201.5"/>
<text text-anchor="start" x="508.5" y="-189.5" font-family="Helvetica,sans-Serif" font-size="10.00">ULang::SymbolTable</text>
<text text-anchor="middle" x="558.5" y="-178.5" font-family="Helvetica,sans-Serif" font-size="10.00">::getGlobalScope</text>
</a>
</g>
</g>
<!-- Node3&#45;&gt;Node5 -->
<g id="edge4_Node000003_Node000005" class="edge">
<title>Node3&#45;&gt;Node5</title>
<g id="a_edge4_Node000003_Node000005"><a xlink:title=" ">
<path fill="none" stroke="#63b8ff" d="M404.68,-186.5C430.51,-186.5 462.35,-186.5 490.28,-186.5"/>
<polygon fill="#63b8ff" stroke="#63b8ff" points="490.37,-190 500.37,-186.5 490.37,-183 490.37,-190"/>
</a>
</g>
</g>
<!-- Node7 -->
<g id="Node000007" class="node">
<title>Node7</title>
<g id="a_Node000007"><a xlink:href="namespaceULang.html#a991893b6b9fc7f5f594ad4375bfbe05c" target="_top" xlink:title=" ">
<polygon fill="white" stroke="#666666" points="623.5,-153 493.5,-153 493.5,-134 623.5,-134 623.5,-153"/>
<text text-anchor="middle" x="558.5" y="-141" font-family="Helvetica,sans-Serif" font-size="10.00">ULang::h_severityColor</text>
</a>
</g>
</g>
<!-- Node6&#45;&gt;Node7 -->
<g id="edge6_Node000006_Node000007" class="edge">
<title>Node6&#45;&gt;Node7</title>
<g id="a_edge6_Node000006_Node000007"><a xlink:title=" ">
<path fill="none" stroke="#63b8ff" d="M455.11,-143.5C464.6,-143.5 474.1,-143.5 483.28,-143.5"/>
<polygon fill="#63b8ff" stroke="#63b8ff" points="483.48,-147 493.48,-143.5 483.48,-140 483.48,-147"/>
</a>
</g>
</g>
<!-- Node8 -->
<g id="Node000008" class="node">
<title>Node8</title>
<g id="a_Node000008"><a xlink:href="namespaceULang.html#aa872add6618cd1839d302348efd6020b" target="_top" xlink:title=" ">
<polygon fill="white" stroke="#666666" points="617.5,-116 499.5,-116 499.5,-97 617.5,-97 617.5,-116"/>
<text text-anchor="middle" x="558.5" y="-104" font-family="Helvetica,sans-Serif" font-size="10.00">ULang::h_severityStr</text>
</a>
</g>
</g>
<!-- Node6&#45;&gt;Node8 -->
<g id="edge7_Node000006_Node000008" class="edge">
<title>Node6&#45;&gt;Node8</title>
<g id="a_edge7_Node000006_Node000008"><a xlink:title=" ">
<path fill="none" stroke="#63b8ff" d="M406.78,-133.97C433.67,-129.07 466.64,-123.06 494.88,-117.91"/>
<polygon fill="#63b8ff" stroke="#63b8ff" points="495.84,-121.3 505.05,-116.06 494.58,-114.41 495.84,-121.3"/>
</a>
</g>
</g>
<!-- Node11 -->
<g id="Node000011" class="node">
<title>Node11</title>
<g id="a_Node000011"><a xlink:href="namespaceULang.html#a2437ad588ffb8270e6c3c174357638f2" target="_top" xlink:title=" ">
<polygon fill="white" stroke="#666666" points="626,-19 491,-19 491,0 626,0 626,-19"/>
<text text-anchor="middle" x="558.5" y="-7" font-family="Helvetica,sans-Serif" font-size="10.00">ULang::resolveDataType</text>
</a>
</g>
</g>
<!-- Node10&#45;&gt;Node11 -->
<g id="edge10_Node000010_Node000011" class="edge">
<title>Node10&#45;&gt;Node11</title>
<g id="a_edge10_Node000010_Node000011"><a xlink:title=" ">
<path fill="none" stroke="#63b8ff" d="M417.06,-9.5C437.19,-9.5 459.72,-9.5 480.74,-9.5"/>
<polygon fill="#63b8ff" stroke="#63b8ff" points="480.92,-13 490.92,-9.5 480.92,-6 480.92,-13"/>
</a>
</g>
</g>
</g>
</svg>
