<?xml version="1.0" encoding="UTF-8" standalone="no"?>
<!DOCTYPE svg PUBLIC "-//W3C//DTD SVG 1.1//EN"
 "http://www.w3.org/Graphics/SVG/1.1/DTD/svg11.dtd">
<!-- Generated by graphviz version 2.43.0 (0)
 -->
<!-- Title: src/compiler/compiler.cpp Pages: 1 -->
<svg width="1094pt" height="192pt"
 viewBox="0.00 0.00 1094.26 192.00" xmlns="http://www.w3.org/2000/svg" xmlns:xlink="http://www.w3.org/1999/xlink">
<g id="graph0" class="graph" transform="scale(1 1) rotate(0) translate(4 188)">
<title>src/compiler/compiler.cpp</title>
<!-- Node1 -->
<g id="Node000001" class="node">
<title>Node1</title>
<g id="a_Node000001"><a xlink:title=" ">
<polygon fill="#999999" stroke="#666666" points="749.76,-184 607.76,-184 607.76,-165 749.76,-165 749.76,-184"/>
<text text-anchor="middle" x="678.76" y="-172" font-family="Helvetica,sans-Serif" font-size="10.00">src/compiler/compiler.cpp</text>
</a>
</g>
</g>
<!-- Node2 -->
<g id="Node000002" class="node">
<title>Node2</title>
<g id="a_Node000002"><a xlink:href="compiler_8hpp.html" target="_top" xlink:title=" ">
<polygon fill="white" stroke="#666666" points="407.76,-129 327.76,-129 327.76,-110 407.76,-110 407.76,-129"/>
<text text-anchor="middle" x="367.76" y="-117" font-family="Helvetica,sans-Serif" font-size="10.00">compiler.hpp</text>
</a>
</g>
</g>
<!-- Node1&#45;&gt;Node2 -->
<g id="edge1_Node000001_Node000002" class="edge">
<title>Node1&#45;&gt;Node2</title>
<g id="a_edge1_Node000001_Node000002"><a xlink:title=" ">
<path fill="none" stroke="#63b8ff" d="M628.79,-164.98C570.96,-155.13 476.27,-138.99 418.23,-129.1"/>
<polygon fill="#63b8ff" stroke="#63b8ff" points="418.63,-125.62 408.19,-127.39 417.46,-132.52 418.63,-125.62"/>
</a>
</g>
</g>
<!-- Node3 -->
<g id="Node000003" class="node">
<title>Node3</title>
<g id="a_Node000003"><a xlink:href="bytecode_8hpp.html" target="_top" xlink:title=" ">
<polygon fill="white" stroke="#666666" points="187.26,-74 104.26,-74 104.26,-55 187.26,-55 187.26,-74"/>
<text text-anchor="middle" x="145.76" y="-62" font-family="Helvetica,sans-Serif" font-size="10.00">bytecode.hpp</text>
</a>
</g>
</g>
<!-- Node1&#45;&gt;Node3 -->
<g id="edge19_Node000001_Node000003" class="edge">
<title>Node1&#45;&gt;Node3</title>
<g id="a_edge19_Node000001_Node000003"><a xlink:title=" ">
<path fill="none" stroke="#63b8ff" d="M607.54,-169.51C534.29,-164.3 417.31,-152.84 318.76,-129 266.11,-116.26 207.44,-92.6 173.74,-78.04"/>
<polygon fill="#63b8ff" stroke="#63b8ff" points="175.08,-74.8 164.51,-74.01 172.28,-81.22 175.08,-74.8"/>
</a>
</g>
</g>
<!-- Node4 -->
<g id="Node000004" class="node">
<title>Node4</title>
<g id="a_Node000004"><a xlink:title=" ">
<polygon fill="#e0e0e0" stroke="#999999" points="159.76,-19 109.76,-19 109.76,0 159.76,0 159.76,-19"/>
<text text-anchor="middle" x="134.76" y="-7" font-family="Helvetica,sans-Serif" font-size="10.00">cstdint</text>
</a>
</g>
</g>
<!-- Node1&#45;&gt;Node4 -->
<g id="edge23_Node000001_Node000004" class="edge">
<title>Node1&#45;&gt;Node4</title>
<g id="a_edge23_Node000001_Node000004"><a xlink:title=" ">
<path fill="none" stroke="#63b8ff" d="M607.75,-172.4C509.8,-169.71 328.16,-160.49 176.76,-129 101.08,-113.26 56.96,-136.71 11.76,-74 6.82,-67.15 6.91,-61.91 11.76,-55 22.11,-40.24 66.96,-26.67 99.51,-18.49"/>
<polygon fill="#63b8ff" stroke="#63b8ff" points="100.71,-21.8 109.59,-16.03 99.05,-15 100.71,-21.8"/>
</a>
</g>
</g>
<!-- Node5 -->
<g id="Node000005" class="node">
<title>Node5</title>
<g id="a_Node000005"><a xlink:title=" ">
<polygon fill="#e0e0e0" stroke="#999999" points="80.26,-19 27.26,-19 27.26,0 80.26,0 80.26,-19"/>
<text text-anchor="middle" x="53.76" y="-7" font-family="Helvetica,sans-Serif" font-size="10.00">cstddef</text>
</a>
</g>
</g>
<!-- Node1&#45;&gt;Node5 -->
<g id="edge22_Node000001_Node000005" class="edge">
<title>Node1&#45;&gt;Node5</title>
<g id="a_edge22_Node000001_Node000005"><a xlink:title=" ">
<path fill="none" stroke="#63b8ff" d="M607.74,-171.63C453.6,-167.12 98.27,-154.12 49.76,-129 15.58,-111.3 -10.82,-90.2 4.76,-55 10.08,-42.97 20.44,-32.8 30.27,-25.24"/>
<polygon fill="#63b8ff" stroke="#63b8ff" points="32.52,-27.93 38.63,-19.27 28.46,-22.23 32.52,-27.93"/>
</a>
</g>
</g>
<!-- Node6 -->
<g id="Node000006" class="node">
<title>Node6</title>
<g id="a_Node000006"><a xlink:title=" ">
<polygon fill="#e0e0e0" stroke="#999999" points="351.76,-19 307.76,-19 307.76,0 351.76,0 351.76,-19"/>
<text text-anchor="middle" x="329.76" y="-7" font-family="Helvetica,sans-Serif" font-size="10.00">string</text>
</a>
</g>
</g>
<!-- Node1&#45;&gt;Node6 -->
<g id="edge28_Node000001_Node000006" class="edge">
<title>Node1&#45;&gt;Node6</title>
<g id="a_edge28_Node000001_Node000006"><a xlink:title=" ">
<path fill="none" stroke="#63b8ff" d="M686.92,-164.93C706.13,-143.74 750.41,-88.22 720.76,-55 708.82,-41.62 453.51,-20.26 362.02,-13"/>
<polygon fill="#63b8ff" stroke="#63b8ff" points="362.19,-9.51 351.95,-12.21 361.64,-16.49 362.19,-9.51"/>
</a>
</g>
</g>
<!-- Node7 -->
<g id="Node000007" class="node">
<title>Node7</title>
<g id="a_Node000007"><a xlink:title=" ">
<polygon fill="#e0e0e0" stroke="#999999" points="503.26,-19 456.26,-19 456.26,0 503.26,0 503.26,-19"/>
<text text-anchor="middle" x="479.76" y="-7" font-family="Helvetica,sans-Serif" font-size="10.00">vector</text>
</a>
</g>
</g>
<!-- Node1&#45;&gt;Node7 -->
<g id="edge29_Node000001_Node000007" class="edge">
<title>Node1&#45;&gt;Node7</title>
<g id="a_edge29_Node000001_Node000007"><a xlink:title=" ">
<path fill="none" stroke="#63b8ff" d="M706.41,-164.98C723.34,-158.17 743.64,-146.76 753.76,-129 770.03,-100.42 775.07,-80.05 753.76,-55 723.29,-19.19 580.07,-12.11 513.69,-10.78"/>
<polygon fill="#63b8ff" stroke="#63b8ff" points="513.41,-7.27 503.35,-10.6 513.29,-14.27 513.41,-7.27"/>
</a>
</g>
</g>
<!-- Node8 -->
<g id="Node000008" class="node">
<title>Node8</title>
<g id="a_Node000008"><a xlink:href="params_8hpp.html" target="_top" xlink:title=" ">
<polygon fill="white" stroke="#666666" points="627.76,-74 507.76,-74 507.76,-55 627.76,-55 627.76,-74"/>
<text text-anchor="middle" x="567.76" y="-62" font-family="Helvetica,sans-Serif" font-size="10.00">compiler/params.hpp</text>
</a>
</g>
</g>
<!-- Node1&#45;&gt;Node8 -->
<g id="edge20_Node000001_Node000008" class="edge">
<title>Node1&#45;&gt;Node8</title>
<g id="a_edge20_Node000001_Node000008"><a xlink:title=" ">
<path fill="none" stroke="#63b8ff" d="M669.67,-164.66C650.88,-146.38 607.51,-104.18 583.86,-81.17"/>
<polygon fill="#63b8ff" stroke="#63b8ff" points="586.26,-78.62 576.66,-74.16 581.38,-83.64 586.26,-78.62"/>
</a>
</g>
</g>
<!-- Node9 -->
<g id="Node000009" class="node">
<title>Node9</title>
<g id="a_Node000009"><a xlink:href="types_8hpp.html" target="_top" xlink:title=" ">
<polygon fill="white" stroke="#666666" points="86.26,-74 21.26,-74 21.26,-55 86.26,-55 86.26,-74"/>
<text text-anchor="middle" x="53.76" y="-62" font-family="Helvetica,sans-Serif" font-size="10.00">types.hpp</text>
</a>
</g>
</g>
<!-- Node1&#45;&gt;Node9 -->
<g id="edge21_Node000001_Node000009" class="edge">
<title>Node1&#45;&gt;Node9</title>
<g id="a_edge21_Node000001_Node000009"><a xlink:title=" ">
<path fill="none" stroke="#63b8ff" d="M607.42,-170.57C522.07,-166.03 375.21,-154.94 251.76,-129 191.44,-116.33 123.5,-92.31 84.94,-77.72"/>
<polygon fill="#63b8ff" stroke="#63b8ff" points="85.93,-74.35 75.33,-74.05 83.43,-80.89 85.93,-74.35"/>
</a>
</g>
</g>
<!-- Node10 -->
<g id="Node000010" class="node">
<title>Node10</title>
<g id="a_Node000010"><a xlink:title=" ">
<polygon fill="#e0e0e0" stroke="#999999" points="711.26,-74 646.26,-74 646.26,-55 711.26,-55 711.26,-74"/>
<text text-anchor="middle" x="678.76" y="-62" font-family="Helvetica,sans-Serif" font-size="10.00">exception</text>
</a>
</g>
</g>
<!-- Node1&#45;&gt;Node10 -->
<g id="edge25_Node000001_Node000010" class="edge">
<title>Node1&#45;&gt;Node10</title>
<g id="a_edge25_Node000001_Node000010"><a xlink:title=" ">
<path fill="none" stroke="#63b8ff" d="M678.76,-164.66C678.76,-147.17 678.76,-107.8 678.76,-84.27"/>
<polygon fill="#63b8ff" stroke="#63b8ff" points="682.26,-84.16 678.76,-74.16 675.26,-84.16 682.26,-84.16"/>
</a>
</g>
</g>
<!-- Node13 -->
<g id="Node000013" class="node">
<title>Node13</title>
<g id="a_Node000013"><a xlink:title=" ">
<polygon fill="#e0e0e0" stroke="#999999" points="855.26,-129 806.26,-129 806.26,-110 855.26,-110 855.26,-129"/>
<text text-anchor="middle" x="830.76" y="-117" font-family="Helvetica,sans-Serif" font-size="10.00">cstdlib</text>
</a>
</g>
</g>
<!-- Node1&#45;&gt;Node13 -->
<g id="edge24_Node000001_Node000013" class="edge">
<title>Node1&#45;&gt;Node13</title>
<g id="a_edge24_Node000001_Node000013"><a xlink:title=" ">
<path fill="none" stroke="#63b8ff" d="M703.18,-164.98C728.48,-156.16 768.21,-142.31 796.61,-132.41"/>
<polygon fill="#63b8ff" stroke="#63b8ff" points="797.85,-135.68 806.14,-129.08 795.55,-129.07 797.85,-135.68"/>
</a>
</g>
</g>
<!-- Node14 -->
<g id="Node000014" class="node">
<title>Node14</title>
<g id="a_Node000014"><a xlink:title=" ">
<polygon fill="#e0e0e0" stroke="#999999" points="933.76,-129 873.76,-129 873.76,-110 933.76,-110 933.76,-129"/>
<text text-anchor="middle" x="903.76" y="-117" font-family="Helvetica,sans-Serif" font-size="10.00">iostream</text>
</a>
</g>
</g>
<!-- Node1&#45;&gt;Node14 -->
<g id="edge26_Node000001_Node000014" class="edge">
<title>Node1&#45;&gt;Node14</title>
<g id="a_edge26_Node000001_Node000014"><a xlink:title=" ">
<path fill="none" stroke="#63b8ff" d="M714.91,-164.98C755.53,-155.42 821.31,-139.92 863.53,-129.98"/>
<polygon fill="#63b8ff" stroke="#63b8ff" points="864.54,-133.33 873.47,-127.63 862.93,-126.52 864.54,-133.33"/>
</a>
</g>
</g>
<!-- Node15 -->
<g id="Node000015" class="node">
<title>Node15</title>
<g id="a_Node000015"><a xlink:title=" ">
<polygon fill="#e0e0e0" stroke="#999999" points="1017.26,-129 952.26,-129 952.26,-110 1017.26,-110 1017.26,-129"/>
<text text-anchor="middle" x="984.76" y="-117" font-family="Helvetica,sans-Serif" font-size="10.00">stdexcept</text>
</a>
</g>
</g>
<!-- Node1&#45;&gt;Node15 -->
<g id="edge27_Node000001_Node000015" class="edge">
<title>Node1&#45;&gt;Node15</title>
<g id="a_edge27_Node000001_Node000015"><a xlink:title=" ">
<path fill="none" stroke="#63b8ff" d="M732.44,-164.98C783.66,-156.73 863.23,-143.6 942.11,-129.07"/>
<polygon fill="#63b8ff" stroke="#63b8ff" points="943.02,-132.46 952.22,-127.19 941.75,-125.57 943.02,-132.46"/>
</a>
</g>
</g>
<!-- Node16 -->
<g id="Node000016" class="node">
<title>Node16</title>
<g id="a_Node000016"><a xlink:title=" ">
<polygon fill="#e0e0e0" stroke="#999999" points="1086.26,-129 1035.26,-129 1035.26,-110 1086.26,-110 1086.26,-129"/>
<text text-anchor="middle" x="1060.76" y="-117" font-family="Helvetica,sans-Serif" font-size="10.00">errno.h</text>
</a>
</g>
</g>
<!-- Node1&#45;&gt;Node16 -->
<g id="edge30_Node000001_Node000016" class="edge">
<title>Node1&#45;&gt;Node16</title>
<g id="a_edge30_Node000001_Node000016"><a xlink:title=" ">
<path fill="none" stroke="#63b8ff" d="M749.79,-166.89C818.12,-159.97 924.46,-147.74 1025.17,-129.11"/>
<polygon fill="#63b8ff" stroke="#63b8ff" points="1026.03,-132.51 1035.21,-127.23 1024.74,-125.63 1026.03,-132.51"/>
</a>
</g>
</g>
<!-- Node2&#45;&gt;Node3 -->
<g id="edge2_Node000002_Node000003" class="edge">
<title>Node2&#45;&gt;Node3</title>
<g id="a_edge2_Node000002_Node000003"><a xlink:title=" ">
<path fill="none" stroke="#63b8ff" d="M332.09,-109.98C293.93,-100.87 233.28,-86.4 191.6,-76.45"/>
<polygon fill="#63b8ff" stroke="#63b8ff" points="192.24,-73 181.71,-74.08 190.62,-79.81 192.24,-73"/>
</a>
</g>
</g>
<!-- Node2&#45;&gt;Node4 -->
<g id="edge13_Node000002_Node000004" class="edge">
<title>Node2&#45;&gt;Node4</title>
<g id="a_edge13_Node000002_Node000004"><a xlink:title=" ">
<path fill="none" stroke="#63b8ff" d="M334.92,-109.93C307.46,-102.19 267.62,-89.65 234.76,-74 205.29,-59.97 173.93,-38.93 154.35,-24.97"/>
<polygon fill="#63b8ff" stroke="#63b8ff" points="156.38,-22.12 146.23,-19.1 152.28,-27.79 156.38,-22.12"/>
</a>
</g>
</g>
<!-- Node2&#45;&gt;Node6 -->
<g id="edge15_Node000002_Node000006" class="edge">
<title>Node2&#45;&gt;Node6</title>
<g id="a_edge15_Node000002_Node000006"><a xlink:title=" ">
<path fill="none" stroke="#63b8ff" d="M363.68,-109.75C359.61,-100.86 353.33,-86.64 348.76,-74 343.37,-59.1 338.28,-41.86 334.73,-29.11"/>
<polygon fill="#63b8ff" stroke="#63b8ff" points="338.04,-27.96 332.03,-19.23 331.29,-29.8 338.04,-27.96"/>
</a>
</g>
</g>
<!-- Node2&#45;&gt;Node7 -->
<g id="edge17_Node000002_Node000007" class="edge">
<title>Node2&#45;&gt;Node7</title>
<g id="a_edge17_Node000002_Node000007"><a xlink:title=" ">
<path fill="none" stroke="#63b8ff" d="M400.38,-109.92C420.1,-103.17 444.33,-91.85 459.76,-74 470.5,-61.57 475.48,-43.35 477.79,-29.62"/>
<polygon fill="#63b8ff" stroke="#63b8ff" points="481.3,-29.74 479.16,-19.36 474.36,-28.81 481.3,-29.74"/>
</a>
</g>
</g>
<!-- Node2&#45;&gt;Node8 -->
<g id="edge7_Node000002_Node000008" class="edge">
<title>Node2&#45;&gt;Node8</title>
<g id="a_edge7_Node000002_Node000008"><a xlink:title=" ">
<path fill="none" stroke="#63b8ff" d="M399.89,-109.98C433.91,-100.97 487.75,-86.7 525.26,-76.76"/>
<polygon fill="#63b8ff" stroke="#63b8ff" points="526.6,-80.03 535.37,-74.08 524.81,-73.26 526.6,-80.03"/>
</a>
</g>
</g>
<!-- Node2&#45;&gt;Node9 -->
<g id="edge9_Node000002_Node000009" class="edge">
<title>Node2&#45;&gt;Node9</title>
<g id="a_edge9_Node000002_Node000009"><a xlink:title=" ">
<path fill="none" stroke="#63b8ff" d="M327.42,-112.48C276,-104.68 184.1,-90.33 96.27,-74.22"/>
<polygon fill="#63b8ff" stroke="#63b8ff" points="96.88,-70.77 86.41,-72.4 95.61,-77.66 96.88,-70.77"/>
</a>
</g>
</g>
<!-- Node2&#45;&gt;Node10 -->
<g id="edge14_Node000002_Node000010" class="edge">
<title>Node2&#45;&gt;Node10</title>
<g id="a_edge14_Node000002_Node000010"><a xlink:title=" ">
<path fill="none" stroke="#63b8ff" d="M407.94,-112.31C458.64,-104.4 548.75,-90.01 636.13,-74.06"/>
<polygon fill="#63b8ff" stroke="#63b8ff" points="637.02,-77.45 646.22,-72.2 635.75,-70.57 637.02,-77.45"/>
</a>
</g>
</g>
<!-- Node11 -->
<g id="Node000011" class="node">
<title>Node11</title>
<g id="a_Node000011"><a xlink:title=" ">
<polygon fill="#e0e0e0" stroke="#999999" points="451.26,-74 358.26,-74 358.26,-55 451.26,-55 451.26,-74"/>
<text text-anchor="middle" x="404.76" y="-62" font-family="Helvetica,sans-Serif" font-size="10.00">unordered_map</text>
</a>
</g>
</g>
<!-- Node2&#45;&gt;Node11 -->
<g id="edge16_Node000002_Node000011" class="edge">
<title>Node2&#45;&gt;Node11</title>
<g id="a_edge16_Node000002_Node000011"><a xlink:title=" ">
<path fill="none" stroke="#63b8ff" d="M373.87,-109.75C379.04,-102.34 386.6,-91.5 392.95,-82.41"/>
<polygon fill="#63b8ff" stroke="#63b8ff" points="395.91,-84.29 398.76,-74.09 390.17,-80.29 395.91,-84.29"/>
</a>
</g>
</g>
<!-- Node12 -->
<g id="Node000012" class="node">
<title>Node12</title>
<g id="a_Node000012"><a xlink:title=" ">
<polygon fill="#e0e0e0" stroke="#999999" points="301.76,-74 243.76,-74 243.76,-55 301.76,-55 301.76,-74"/>
<text text-anchor="middle" x="272.76" y="-62" font-family="Helvetica,sans-Serif" font-size="10.00">memory</text>
</a>
</g>
</g>
<!-- Node2&#45;&gt;Node12 -->
<g id="edge18_Node000002_Node000012" class="edge">
<title>Node2&#45;&gt;Node12</title>
<g id="a_edge18_Node000002_Node000012"><a xlink:title=" ">
<path fill="none" stroke="#63b8ff" d="M352.49,-109.98C337.62,-101.69 314.78,-88.94 297.34,-79.22"/>
<polygon fill="#63b8ff" stroke="#63b8ff" points="298.74,-75.99 288.3,-74.17 295.33,-82.1 298.74,-75.99"/>
</a>
</g>
</g>
<!-- Node3&#45;&gt;Node4 -->
<g id="edge3_Node000003_Node000004" class="edge">
<title>Node3&#45;&gt;Node4</title>
<g id="a_edge3_Node000003_Node000004"><a xlink:title=" ">
<path fill="none" stroke="#63b8ff" d="M143.94,-54.75C142.5,-47.8 140.43,-37.85 138.63,-29.13"/>
<polygon fill="#63b8ff" stroke="#63b8ff" points="142,-28.17 136.54,-19.09 135.15,-29.59 142,-28.17"/>
</a>
</g>
</g>
<!-- Node3&#45;&gt;Node5 -->
<g id="edge4_Node000003_Node000005" class="edge">
<title>Node3&#45;&gt;Node5</title>
<g id="a_edge4_Node000003_Node000005"><a xlink:title=" ">
<path fill="none" stroke="#63b8ff" d="M130.98,-54.98C116.58,-46.69 94.45,-33.94 77.57,-24.22"/>
<polygon fill="#63b8ff" stroke="#63b8ff" points="79.22,-21.13 68.81,-19.17 75.73,-27.19 79.22,-21.13"/>
</a>
</g>
</g>
<!-- Node3&#45;&gt;Node6 -->
<g id="edge5_Node000003_Node000006" class="edge">
<title>Node3&#45;&gt;Node6</title>
<g id="a_edge5_Node000003_Node000006"><a xlink:title=" ">
<path fill="none" stroke="#63b8ff" d="M175.32,-54.98C208.74,-45.36 262.97,-29.74 297.47,-19.8"/>
<polygon fill="#63b8ff" stroke="#63b8ff" points="298.86,-23.04 307.5,-16.91 296.92,-16.32 298.86,-23.04"/>
</a>
</g>
</g>
<!-- Node3&#45;&gt;Node7 -->
<g id="edge6_Node000003_Node000007" class="edge">
<title>Node3&#45;&gt;Node7</title>
<g id="a_edge6_Node000003_Node000007"><a xlink:title=" ">
<path fill="none" stroke="#63b8ff" d="M187.38,-56.89C254.33,-46.27 384.64,-25.59 446.11,-15.84"/>
<polygon fill="#63b8ff" stroke="#63b8ff" points="446.74,-19.28 456.07,-14.26 445.64,-12.37 446.74,-19.28"/>
</a>
</g>
</g>
<!-- Node8&#45;&gt;Node6 -->
<g id="edge8_Node000008_Node000006" class="edge">
<title>Node8&#45;&gt;Node6</title>
<g id="a_edge8_Node000008_Node000006"><a xlink:title=" ">
<path fill="none" stroke="#63b8ff" d="M529.52,-54.98C483.03,-44.63 405.39,-27.34 361.86,-17.65"/>
<polygon fill="#63b8ff" stroke="#63b8ff" points="362.35,-14.17 351.83,-15.41 360.83,-21 362.35,-14.17"/>
</a>
</g>
</g>
<!-- Node9&#45;&gt;Node4 -->
<g id="edge11_Node000009_Node000004" class="edge">
<title>Node9&#45;&gt;Node4</title>
<g id="a_edge11_Node000009_Node000004"><a xlink:title=" ">
<path fill="none" stroke="#63b8ff" d="M66.77,-54.98C79.22,-46.84 98.21,-34.41 112.97,-24.76"/>
<polygon fill="#63b8ff" stroke="#63b8ff" points="115.06,-27.57 121.51,-19.17 111.22,-21.72 115.06,-27.57"/>
</a>
</g>
</g>
<!-- Node9&#45;&gt;Node5 -->
<g id="edge10_Node000009_Node000005" class="edge">
<title>Node9&#45;&gt;Node5</title>
<g id="a_edge10_Node000009_Node000005"><a xlink:title=" ">
<path fill="none" stroke="#63b8ff" d="M53.76,-54.75C53.76,-47.8 53.76,-37.85 53.76,-29.13"/>
<polygon fill="#63b8ff" stroke="#63b8ff" points="57.26,-29.09 53.76,-19.09 50.26,-29.09 57.26,-29.09"/>
</a>
</g>
</g>
<!-- Node9&#45;&gt;Node6 -->
<g id="edge12_Node000009_Node000006" class="edge">
<title>Node9&#45;&gt;Node6</title>
<g id="a_edge12_Node000009_Node000006"><a xlink:title=" ">
<path fill="none" stroke="#63b8ff" d="M86.42,-56.68C89.24,-56.1 92.05,-55.54 94.76,-55 167.16,-40.64 252.31,-24.77 297.6,-16.41"/>
<polygon fill="#63b8ff" stroke="#63b8ff" points="298.5,-19.8 307.7,-14.55 297.23,-12.92 298.5,-19.8"/>
</a>
</g>
</g>
</g>
</svg>
