<?xml version="1.0" encoding="UTF-8" standalone="no"?>
<!DOCTYPE svg PUBLIC "-//W3C//DTD SVG 1.1//EN"
 "http://www.w3.org/Graphics/SVG/1.1/DTD/svg11.dtd">
<!-- Generated by graphviz version 2.43.0 (0)
 -->
<!-- Title: src/compiler/bytecode.cpp Pages: 1 -->
<svg width="792pt" height="192pt"
 viewBox="0.00 0.00 792.00 192.00" xmlns="http://www.w3.org/2000/svg" xmlns:xlink="http://www.w3.org/1999/xlink">
<g id="graph0" class="graph" transform="scale(1 1) rotate(0) translate(4 188)">
<title>src/compiler/bytecode.cpp</title>
<!-- Node1 -->
<g id="Node000001" class="node">
<title>Node1</title>
<g id="a_Node000001"><a xlink:title=" ">
<polygon fill="#999999" stroke="#666666" points="335.5,-184 190.5,-184 190.5,-165 335.5,-165 335.5,-184"/>
<text text-anchor="middle" x="263" y="-172" font-family="Helvetica,sans-Serif" font-size="10.00">src/compiler/bytecode.cpp</text>
</a>
</g>
</g>
<!-- Node2 -->
<g id="Node000002" class="node">
<title>Node2</title>
<g id="a_Node000002"><a xlink:href="bytecode_8hpp.html" target="_top" xlink:title=" ">
<polygon fill="white" stroke="#666666" points="193.5,-74 110.5,-74 110.5,-55 193.5,-55 193.5,-74"/>
<text text-anchor="middle" x="152" y="-62" font-family="Helvetica,sans-Serif" font-size="10.00">bytecode.hpp</text>
</a>
</g>
</g>
<!-- Node1&#45;&gt;Node2 -->
<g id="edge1_Node000001_Node000002" class="edge">
<title>Node1&#45;&gt;Node2</title>
<g id="a_edge1_Node000001_Node000002"><a xlink:title=" ">
<path fill="none" stroke="#63b8ff" d="M232.03,-164.98C212.62,-158.16 188.44,-146.76 173,-129 162.17,-116.54 156.89,-98.33 154.34,-84.6"/>
<polygon fill="#63b8ff" stroke="#63b8ff" points="157.74,-83.71 152.77,-74.35 150.82,-84.77 157.74,-83.71"/>
</a>
</g>
</g>
<!-- Node3 -->
<g id="Node000003" class="node">
<title>Node3</title>
<g id="a_Node000003"><a xlink:title=" ">
<polygon fill="#e0e0e0" stroke="#999999" points="50,-19 0,-19 0,0 50,0 50,-19"/>
<text text-anchor="middle" x="25" y="-7" font-family="Helvetica,sans-Serif" font-size="10.00">cstdint</text>
</a>
</g>
</g>
<!-- Node1&#45;&gt;Node3 -->
<g id="edge24_Node000001_Node000003" class="edge">
<title>Node1&#45;&gt;Node3</title>
<g id="a_edge24_Node000001_Node000003"><a xlink:title=" ">
<path fill="none" stroke="#63b8ff" d="M190.26,-167.91C129.38,-158.86 46.47,-135.28 8,-74 -0.79,-60 5.81,-41.51 13.2,-28.1"/>
<polygon fill="#63b8ff" stroke="#63b8ff" points="16.3,-29.73 18.51,-19.37 10.32,-26.09 16.3,-29.73"/>
</a>
</g>
</g>
<!-- Node7 -->
<g id="Node000007" class="node">
<title>Node7</title>
<g id="a_Node000007"><a xlink:href="compiler_8hpp.html" target="_top" xlink:title=" ">
<polygon fill="white" stroke="#666666" points="262,-129 182,-129 182,-110 262,-110 262,-129"/>
<text text-anchor="middle" x="222" y="-117" font-family="Helvetica,sans-Serif" font-size="10.00">compiler.hpp</text>
</a>
</g>
</g>
<!-- Node1&#45;&gt;Node7 -->
<g id="edge6_Node000001_Node000007" class="edge">
<title>Node1&#45;&gt;Node7</title>
<g id="a_edge6_Node000001_Node000007"><a xlink:title=" ">
<path fill="none" stroke="#63b8ff" d="M256.23,-164.75C250.44,-157.26 241.94,-146.28 234.86,-137.13"/>
<polygon fill="#63b8ff" stroke="#63b8ff" points="237.53,-134.86 228.64,-129.09 231.99,-139.14 237.53,-134.86"/>
</a>
</g>
</g>
<!-- Node11 -->
<g id="Node000011" class="node">
<title>Node11</title>
<g id="a_Node000011"><a xlink:href="types_8hpp.html" target="_top" xlink:title=" ">
<polygon fill="white" stroke="#666666" points="92.5,-74 27.5,-74 27.5,-55 92.5,-55 92.5,-74"/>
<text text-anchor="middle" x="60" y="-62" font-family="Helvetica,sans-Serif" font-size="10.00">types.hpp</text>
</a>
</g>
</g>
<!-- Node1&#45;&gt;Node11 -->
<g id="edge23_Node000001_Node000011" class="edge">
<title>Node1&#45;&gt;Node11</title>
<g id="a_edge23_Node000001_Node000011"><a xlink:title=" ">
<path fill="none" stroke="#63b8ff" d="M239.28,-164.97C217.41,-156.77 184.32,-143.52 157,-129 129.08,-114.16 98.89,-93.61 79.74,-79.96"/>
<polygon fill="#63b8ff" stroke="#63b8ff" points="81.68,-77.05 71.52,-74.04 77.59,-82.73 81.68,-77.05"/>
</a>
</g>
</g>
<!-- Node15 -->
<g id="Node000015" class="node">
<title>Node15</title>
<g id="a_Node000015"><a xlink:title=" ">
<polygon fill="#e0e0e0" stroke="#999999" points="330,-129 280,-129 280,-110 330,-110 330,-129"/>
<text text-anchor="middle" x="305" y="-117" font-family="Helvetica,sans-Serif" font-size="10.00">cstring</text>
</a>
</g>
</g>
<!-- Node1&#45;&gt;Node15 -->
<g id="edge25_Node000001_Node000015" class="edge">
<title>Node1&#45;&gt;Node15</title>
<g id="a_edge25_Node000001_Node000015"><a xlink:title=" ">
<path fill="none" stroke="#63b8ff" d="M269.94,-164.75C275.87,-157.26 284.57,-146.28 291.82,-137.13"/>
<polygon fill="#63b8ff" stroke="#63b8ff" points="294.73,-139.1 298.19,-129.09 289.24,-134.75 294.73,-139.1"/>
</a>
</g>
</g>
<!-- Node16 -->
<g id="Node000016" class="node">
<title>Node16</title>
<g id="a_Node000016"><a xlink:title=" ">
<polygon fill="#e0e0e0" stroke="#999999" points="412,-129 348,-129 348,-110 412,-110 412,-129"/>
<text text-anchor="middle" x="380" y="-117" font-family="Helvetica,sans-Serif" font-size="10.00">algorithm</text>
</a>
</g>
</g>
<!-- Node1&#45;&gt;Node16 -->
<g id="edge26_Node000001_Node000016" class="edge">
<title>Node1&#45;&gt;Node16</title>
<g id="a_edge26_Node000001_Node000016"><a xlink:title=" ">
<path fill="none" stroke="#63b8ff" d="M281.8,-164.98C300.62,-156.46 329.82,-143.23 351.5,-133.41"/>
<polygon fill="#63b8ff" stroke="#63b8ff" points="353.2,-136.48 360.86,-129.17 350.31,-130.11 353.2,-136.48"/>
</a>
</g>
</g>
<!-- Node17 -->
<g id="Node000017" class="node">
<title>Node17</title>
<g id="a_Node000017"><a xlink:title=" ">
<polygon fill="#e0e0e0" stroke="#999999" points="485.5,-129 430.5,-129 430.5,-110 485.5,-110 485.5,-129"/>
<text text-anchor="middle" x="458" y="-117" font-family="Helvetica,sans-Serif" font-size="10.00">fstream</text>
</a>
</g>
</g>
<!-- Node1&#45;&gt;Node17 -->
<g id="edge27_Node000001_Node000017" class="edge">
<title>Node1&#45;&gt;Node17</title>
<g id="a_edge27_Node000001_Node000017"><a xlink:title=" ">
<path fill="none" stroke="#63b8ff" d="M294.33,-164.98C328.67,-155.65 383.76,-140.68 420.41,-130.72"/>
<polygon fill="#63b8ff" stroke="#63b8ff" points="421.49,-134.05 430.22,-128.05 419.65,-127.3 421.49,-134.05"/>
</a>
</g>
</g>
<!-- Node18 -->
<g id="Node000018" class="node">
<title>Node18</title>
<g id="a_Node000018"><a xlink:title=" ">
<polygon fill="#e0e0e0" stroke="#999999" points="564,-129 504,-129 504,-110 564,-110 564,-129"/>
<text text-anchor="middle" x="534" y="-117" font-family="Helvetica,sans-Serif" font-size="10.00">iostream</text>
</a>
</g>
</g>
<!-- Node1&#45;&gt;Node18 -->
<g id="edge28_Node000001_Node000018" class="edge">
<title>Node1&#45;&gt;Node18</title>
<g id="a_edge28_Node000001_Node000018"><a xlink:title=" ">
<path fill="none" stroke="#63b8ff" d="M309.29,-164.98C354.06,-156.65 424.07,-143.42 493.93,-129.18"/>
<polygon fill="#63b8ff" stroke="#63b8ff" points="494.69,-132.6 503.78,-127.16 493.28,-125.74 494.69,-132.6"/>
</a>
</g>
</g>
<!-- Node2&#45;&gt;Node3 -->
<g id="edge2_Node000002_Node000003" class="edge">
<title>Node2&#45;&gt;Node3</title>
<g id="a_edge2_Node000002_Node000003"><a xlink:title=" ">
<path fill="none" stroke="#63b8ff" d="M131.6,-54.98C110.98,-46.38 78.89,-32.99 55.31,-23.15"/>
<polygon fill="#63b8ff" stroke="#63b8ff" points="56.35,-19.79 45.78,-19.17 53.66,-26.25 56.35,-19.79"/>
</a>
</g>
</g>
<!-- Node4 -->
<g id="Node000004" class="node">
<title>Node4</title>
<g id="a_Node000004"><a xlink:title=" ">
<polygon fill="#e0e0e0" stroke="#999999" points="128.5,-19 75.5,-19 75.5,0 128.5,0 128.5,-19"/>
<text text-anchor="middle" x="102" y="-7" font-family="Helvetica,sans-Serif" font-size="10.00">cstddef</text>
</a>
</g>
</g>
<!-- Node2&#45;&gt;Node4 -->
<g id="edge3_Node000002_Node000004" class="edge">
<title>Node2&#45;&gt;Node4</title>
<g id="a_edge3_Node000002_Node000004"><a xlink:title=" ">
<path fill="none" stroke="#63b8ff" d="M143.74,-54.75C136.54,-47.11 125.89,-35.82 117.15,-26.56"/>
<polygon fill="#63b8ff" stroke="#63b8ff" points="119.51,-23.96 110.1,-19.09 114.42,-28.76 119.51,-23.96"/>
</a>
</g>
</g>
<!-- Node5 -->
<g id="Node000005" class="node">
<title>Node5</title>
<g id="a_Node000005"><a xlink:title=" ">
<polygon fill="#e0e0e0" stroke="#999999" points="282,-19 238,-19 238,0 282,0 282,-19"/>
<text text-anchor="middle" x="260" y="-7" font-family="Helvetica,sans-Serif" font-size="10.00">string</text>
</a>
</g>
</g>
<!-- Node2&#45;&gt;Node5 -->
<g id="edge4_Node000002_Node000005" class="edge">
<title>Node2&#45;&gt;Node5</title>
<g id="a_edge4_Node000002_Node000005"><a xlink:title=" ">
<path fill="none" stroke="#63b8ff" d="M169.35,-54.98C186.57,-46.54 213.2,-33.47 233.15,-23.68"/>
<polygon fill="#63b8ff" stroke="#63b8ff" points="234.9,-26.72 242.33,-19.17 231.81,-20.43 234.9,-26.72"/>
</a>
</g>
</g>
<!-- Node6 -->
<g id="Node000006" class="node">
<title>Node6</title>
<g id="a_Node000006"><a xlink:title=" ">
<polygon fill="#e0e0e0" stroke="#999999" points="197.5,-19 150.5,-19 150.5,0 197.5,0 197.5,-19"/>
<text text-anchor="middle" x="174" y="-7" font-family="Helvetica,sans-Serif" font-size="10.00">vector</text>
</a>
</g>
</g>
<!-- Node2&#45;&gt;Node6 -->
<g id="edge5_Node000002_Node000006" class="edge">
<title>Node2&#45;&gt;Node6</title>
<g id="a_edge5_Node000002_Node000006"><a xlink:title=" ">
<path fill="none" stroke="#63b8ff" d="M155.63,-54.75C158.58,-47.65 162.83,-37.4 166.51,-28.56"/>
<polygon fill="#63b8ff" stroke="#63b8ff" points="169.83,-29.67 170.43,-19.09 163.37,-26.98 169.83,-29.67"/>
</a>
</g>
</g>
<!-- Node7&#45;&gt;Node2 -->
<g id="edge7_Node000007_Node000002" class="edge">
<title>Node7&#45;&gt;Node2</title>
<g id="a_edge7_Node000007_Node000002"><a xlink:title=" ">
<path fill="none" stroke="#63b8ff" d="M210.75,-109.98C200.2,-102 184.2,-89.88 171.56,-80.31"/>
<polygon fill="#63b8ff" stroke="#63b8ff" points="173.54,-77.42 163.45,-74.17 169.31,-83 173.54,-77.42"/>
</a>
</g>
</g>
<!-- Node7&#45;&gt;Node3 -->
<g id="edge17_Node000007_Node000003" class="edge">
<title>Node7&#45;&gt;Node3</title>
<g id="a_edge17_Node000007_Node000003"><a xlink:title=" ">
<path fill="none" stroke="#63b8ff" d="M181.91,-115.58C128.45,-110.76 38.18,-99.06 18,-74 7.91,-61.47 11.5,-42.76 16.51,-28.89"/>
<polygon fill="#63b8ff" stroke="#63b8ff" points="19.84,-29.99 20.41,-19.41 13.37,-27.32 19.84,-29.99"/>
</a>
</g>
</g>
<!-- Node7&#45;&gt;Node5 -->
<g id="edge19_Node000007_Node000005" class="edge">
<title>Node7&#45;&gt;Node5</title>
<g id="a_edge19_Node000007_Node000005"><a xlink:title=" ">
<path fill="none" stroke="#63b8ff" d="M225.11,-109.66C231.32,-92.01 245.37,-52.09 253.62,-28.64"/>
<polygon fill="#63b8ff" stroke="#63b8ff" points="256.94,-29.75 256.95,-19.16 250.33,-27.43 256.94,-29.75"/>
</a>
</g>
</g>
<!-- Node7&#45;&gt;Node6 -->
<g id="edge21_Node000007_Node000006" class="edge">
<title>Node7&#45;&gt;Node6</title>
<g id="a_edge21_Node000007_Node000006"><a xlink:title=" ">
<path fill="none" stroke="#63b8ff" d="M220.18,-109.58C217.44,-97.02 211.62,-73.58 203,-55 198.55,-45.4 192.26,-35.46 186.67,-27.41"/>
<polygon fill="#63b8ff" stroke="#63b8ff" points="189.48,-25.33 180.8,-19.26 183.8,-29.42 189.48,-25.33"/>
</a>
</g>
</g>
<!-- Node8 -->
<g id="Node000008" class="node">
<title>Node8</title>
<g id="a_Node000008"><a xlink:href="essentials_8hpp.html" target="_top" xlink:title=" ">
<polygon fill="white" stroke="#666666" points="596.5,-74 509.5,-74 509.5,-55 596.5,-55 596.5,-74"/>
<text text-anchor="middle" x="553" y="-62" font-family="Helvetica,sans-Serif" font-size="10.00">essentials.hpp</text>
</a>
</g>
</g>
<!-- Node7&#45;&gt;Node8 -->
<g id="edge8_Node000007_Node000008" class="edge">
<title>Node7&#45;&gt;Node8</title>
<g id="a_edge8_Node000007_Node000008"><a xlink:title=" ">
<path fill="none" stroke="#63b8ff" d="M262.1,-111.49C265.11,-110.98 268.1,-110.48 271,-110 369.9,-93.68 397.15,-90.54 499.2,-74.28"/>
<polygon fill="#63b8ff" stroke="#63b8ff" points="499.99,-77.7 509.31,-72.66 498.88,-70.78 499.99,-77.7"/>
</a>
</g>
</g>
<!-- Node10 -->
<g id="Node000010" class="node">
<title>Node10</title>
<g id="a_Node000010"><a xlink:href="params_8hpp.html" target="_top" xlink:title=" ">
<polygon fill="white" stroke="#666666" points="408,-74 288,-74 288,-55 408,-55 408,-74"/>
<text text-anchor="middle" x="348" y="-62" font-family="Helvetica,sans-Serif" font-size="10.00">compiler/params.hpp</text>
</a>
</g>
</g>
<!-- Node7&#45;&gt;Node10 -->
<g id="edge11_Node000007_Node000010" class="edge">
<title>Node7&#45;&gt;Node10</title>
<g id="a_edge11_Node000007_Node000010"><a xlink:title=" ">
<path fill="none" stroke="#63b8ff" d="M242.24,-109.98C262.7,-101.38 294.53,-87.99 317.93,-78.15"/>
<polygon fill="#63b8ff" stroke="#63b8ff" points="319.53,-81.27 327.39,-74.17 316.81,-74.82 319.53,-81.27"/>
</a>
</g>
</g>
<!-- Node7&#45;&gt;Node11 -->
<g id="edge13_Node000007_Node000011" class="edge">
<title>Node7&#45;&gt;Node11</title>
<g id="a_edge13_Node000007_Node000011"><a xlink:title=" ">
<path fill="none" stroke="#63b8ff" d="M195.97,-109.98C168.89,-101.13 126.29,-87.19 95.99,-77.28"/>
<polygon fill="#63b8ff" stroke="#63b8ff" points="96.82,-73.87 86.23,-74.08 94.65,-80.52 96.82,-73.87"/>
</a>
</g>
</g>
<!-- Node12 -->
<g id="Node000012" class="node">
<title>Node12</title>
<g id="a_Node000012"><a xlink:title=" ">
<polygon fill="#e0e0e0" stroke="#999999" points="491.5,-74 426.5,-74 426.5,-55 491.5,-55 491.5,-74"/>
<text text-anchor="middle" x="459" y="-62" font-family="Helvetica,sans-Serif" font-size="10.00">exception</text>
</a>
</g>
</g>
<!-- Node7&#45;&gt;Node12 -->
<g id="edge18_Node000007_Node000012" class="edge">
<title>Node7&#45;&gt;Node12</title>
<g id="a_edge18_Node000007_Node000012"><a xlink:title=" ">
<path fill="none" stroke="#63b8ff" d="M260.08,-109.98C302.81,-100.43 371.95,-84.97 416.44,-75.02"/>
<polygon fill="#63b8ff" stroke="#63b8ff" points="417.36,-78.4 426.36,-72.8 415.83,-71.57 417.36,-78.4"/>
</a>
</g>
</g>
<!-- Node13 -->
<g id="Node000013" class="node">
<title>Node13</title>
<g id="a_Node000013"><a xlink:title=" ">
<polygon fill="#e0e0e0" stroke="#999999" points="707.5,-74 614.5,-74 614.5,-55 707.5,-55 707.5,-74"/>
<text text-anchor="middle" x="661" y="-62" font-family="Helvetica,sans-Serif" font-size="10.00">unordered_map</text>
</a>
</g>
</g>
<!-- Node7&#45;&gt;Node13 -->
<g id="edge20_Node000007_Node000013" class="edge">
<title>Node7&#45;&gt;Node13</title>
<g id="a_edge20_Node000007_Node000013"><a xlink:title=" ">
<path fill="none" stroke="#63b8ff" d="M262.08,-111.33C265.09,-110.86 268.09,-110.41 271,-110 416.11,-89.64 455.83,-93.27 604.28,-74.17"/>
<polygon fill="#63b8ff" stroke="#63b8ff" points="604.75,-77.64 614.21,-72.88 603.85,-70.7 604.75,-77.64"/>
</a>
</g>
</g>
<!-- Node14 -->
<g id="Node000014" class="node">
<title>Node14</title>
<g id="a_Node000014"><a xlink:title=" ">
<polygon fill="#e0e0e0" stroke="#999999" points="784,-74 726,-74 726,-55 784,-55 784,-74"/>
<text text-anchor="middle" x="755" y="-62" font-family="Helvetica,sans-Serif" font-size="10.00">memory</text>
</a>
</g>
</g>
<!-- Node7&#45;&gt;Node14 -->
<g id="edge22_Node000007_Node000014" class="edge">
<title>Node7&#45;&gt;Node14</title>
<g id="a_edge22_Node000007_Node000014"><a xlink:title=" ">
<path fill="none" stroke="#63b8ff" d="M262.07,-111.24C265.08,-110.79 268.09,-110.37 271,-110 465.01,-85.39 518.61,-103.17 715.52,-74.01"/>
<polygon fill="#63b8ff" stroke="#63b8ff" points="716.25,-77.44 725.62,-72.5 715.21,-70.52 716.25,-77.44"/>
</a>
</g>
</g>
<!-- Node8&#45;&gt;Node5 -->
<g id="edge10_Node000008_Node000005" class="edge">
<title>Node8&#45;&gt;Node5</title>
<g id="a_edge10_Node000008_Node000005"><a xlink:title=" ">
<path fill="none" stroke="#63b8ff" d="M509.45,-55.62C450.09,-44.89 345.14,-25.9 292.3,-16.34"/>
<polygon fill="#63b8ff" stroke="#63b8ff" points="292.62,-12.84 282.16,-14.51 291.37,-19.73 292.62,-12.84"/>
</a>
</g>
</g>
<!-- Node9 -->
<g id="Node000009" class="node">
<title>Node9</title>
<g id="a_Node000009"><a xlink:title=" ">
<polygon fill="#e0e0e0" stroke="#999999" points="578.5,-19 527.5,-19 527.5,0 578.5,0 578.5,-19"/>
<text text-anchor="middle" x="553" y="-7" font-family="Helvetica,sans-Serif" font-size="10.00">errno.h</text>
</a>
</g>
</g>
<!-- Node8&#45;&gt;Node9 -->
<g id="edge9_Node000008_Node000009" class="edge">
<title>Node8&#45;&gt;Node9</title>
<g id="a_edge9_Node000008_Node000009"><a xlink:title=" ">
<path fill="none" stroke="#63b8ff" d="M553,-54.75C553,-47.8 553,-37.85 553,-29.13"/>
<polygon fill="#63b8ff" stroke="#63b8ff" points="556.5,-29.09 553,-19.09 549.5,-29.09 556.5,-29.09"/>
</a>
</g>
</g>
<!-- Node10&#45;&gt;Node5 -->
<g id="edge12_Node000010_Node000005" class="edge">
<title>Node10&#45;&gt;Node5</title>
<g id="a_edge12_Node000010_Node000005"><a xlink:title=" ">
<path fill="none" stroke="#63b8ff" d="M333.86,-54.98C320.21,-46.77 299.31,-34.18 283.22,-24.49"/>
<polygon fill="#63b8ff" stroke="#63b8ff" points="284.77,-21.33 274.4,-19.17 281.16,-27.33 284.77,-21.33"/>
</a>
</g>
</g>
<!-- Node11&#45;&gt;Node3 -->
<g id="edge15_Node000011_Node000003" class="edge">
<title>Node11&#45;&gt;Node3</title>
<g id="a_edge15_Node000011_Node000003"><a xlink:title=" ">
<path fill="none" stroke="#63b8ff" d="M54.22,-54.75C49.38,-47.42 42.32,-36.73 36.36,-27.7"/>
<polygon fill="#63b8ff" stroke="#63b8ff" points="39.1,-25.5 30.67,-19.09 33.26,-29.36 39.1,-25.5"/>
</a>
</g>
</g>
<!-- Node11&#45;&gt;Node4 -->
<g id="edge14_Node000011_Node000004" class="edge">
<title>Node11&#45;&gt;Node4</title>
<g id="a_edge14_Node000011_Node000004"><a xlink:title=" ">
<path fill="none" stroke="#63b8ff" d="M66.94,-54.75C72.87,-47.26 81.57,-36.28 88.82,-27.13"/>
<polygon fill="#63b8ff" stroke="#63b8ff" points="91.73,-29.1 95.19,-19.09 86.24,-24.75 91.73,-29.1"/>
</a>
</g>
</g>
<!-- Node11&#45;&gt;Node5 -->
<g id="edge16_Node000011_Node000005" class="edge">
<title>Node11&#45;&gt;Node5</title>
<g id="a_edge16_Node000011_Node000005"><a xlink:title=" ">
<path fill="none" stroke="#63b8ff" d="M92.13,-54.98C129.48,-45.09 190.73,-28.86 228.01,-18.98"/>
<polygon fill="#63b8ff" stroke="#63b8ff" points="229.08,-22.31 237.85,-16.37 227.29,-15.55 229.08,-22.31"/>
</a>
</g>
</g>
</g>
</svg>
