<?xml version="1.0" encoding="UTF-8" standalone="no"?>
<!DOCTYPE svg PUBLIC "-//W3C//DTD SVG 1.1//EN"
 "http://www.w3.org/Graphics/SVG/1.1/DTD/svg11.dtd">
<!-- Generated by graphviz version 2.43.0 (0)
 -->
<!-- Title: src/compiler/compiler.cpp Pages: 1 -->
<svg width="878pt" height="192pt"
 viewBox="0.00 0.00 878.00 192.00" xmlns="http://www.w3.org/2000/svg" xmlns:xlink="http://www.w3.org/1999/xlink">
<g id="graph0" class="graph" transform="scale(1 1) rotate(0) translate(4 188)">
<title>src/compiler/compiler.cpp</title>
<!-- Node1 -->
<g id="Node000001" class="node">
<title>Node1</title>
<g id="a_Node000001"><a xlink:title=" ">
<polygon fill="#999999" stroke="#666666" points="594.5,-184 452.5,-184 452.5,-165 594.5,-165 594.5,-184"/>
<text text-anchor="middle" x="523.5" y="-172" font-family="Helvetica,sans-Serif" font-size="10.00">src/compiler/compiler.cpp</text>
</a>
</g>
</g>
<!-- Node2 -->
<g id="Node000002" class="node">
<title>Node2</title>
<g id="a_Node000002"><a xlink:href="compiler_8hpp.html" target="_top" xlink:title=" ">
<polygon fill="white" stroke="#666666" points="389.5,-129 309.5,-129 309.5,-110 389.5,-110 389.5,-129"/>
<text text-anchor="middle" x="349.5" y="-117" font-family="Helvetica,sans-Serif" font-size="10.00">compiler.hpp</text>
</a>
</g>
</g>
<!-- Node1&#45;&gt;Node2 -->
<g id="edge1_Node000001_Node000002" class="edge">
<title>Node1&#45;&gt;Node2</title>
<g id="a_edge1_Node000001_Node000002"><a xlink:title=" ">
<path fill="none" stroke="#63b8ff" d="M495.54,-164.98C466.2,-156.05 419.9,-141.94 387.31,-132.02"/>
<polygon fill="#63b8ff" stroke="#63b8ff" points="388.26,-128.65 377.68,-129.08 386.22,-135.34 388.26,-128.65"/>
</a>
</g>
</g>
<!-- Node3 -->
<g id="Node000003" class="node">
<title>Node3</title>
<g id="a_Node000003"><a xlink:href="types_8hpp.html" target="_top" xlink:title=" ">
<polygon fill="white" stroke="#666666" points="143,-74 78,-74 78,-55 143,-55 143,-74"/>
<text text-anchor="middle" x="110.5" y="-62" font-family="Helvetica,sans-Serif" font-size="10.00">types.hpp</text>
</a>
</g>
</g>
<!-- Node1&#45;&gt;Node3 -->
<g id="edge12_Node000001_Node000003" class="edge">
<title>Node1&#45;&gt;Node3</title>
<g id="a_edge12_Node000001_Node000003"><a xlink:title=" ">
<path fill="none" stroke="#63b8ff" d="M471.26,-164.99C425.79,-157.13 358.3,-144.36 300.5,-129 244.27,-114.06 180.41,-91.53 142.89,-77.71"/>
<polygon fill="#63b8ff" stroke="#63b8ff" points="143.63,-74.25 133.03,-74.06 141.19,-80.82 143.63,-74.25"/>
</a>
</g>
</g>
<!-- Node4 -->
<g id="Node000004" class="node">
<title>Node4</title>
<g id="a_Node000004"><a xlink:title=" ">
<polygon fill="#e0e0e0" stroke="#999999" points="53,-19 0,-19 0,0 53,0 53,-19"/>
<text text-anchor="middle" x="26.5" y="-7" font-family="Helvetica,sans-Serif" font-size="10.00">cstddef</text>
</a>
</g>
</g>
<!-- Node1&#45;&gt;Node4 -->
<g id="edge13_Node000001_Node000004" class="edge">
<title>Node1&#45;&gt;Node4</title>
<g id="a_edge13_Node000001_Node000004"><a xlink:title=" ">
<path fill="none" stroke="#63b8ff" d="M452.22,-170.91C352.95,-166.41 178.81,-155.01 121.5,-129 77.22,-108.9 47.43,-56.25 34.24,-28.39"/>
<polygon fill="#63b8ff" stroke="#63b8ff" points="37.32,-26.71 30,-19.04 30.94,-29.6 37.32,-26.71"/>
</a>
</g>
</g>
<!-- Node5 -->
<g id="Node000005" class="node">
<title>Node5</title>
<g id="a_Node000005"><a xlink:title=" ">
<polygon fill="#e0e0e0" stroke="#999999" points="135.5,-19 85.5,-19 85.5,0 135.5,0 135.5,-19"/>
<text text-anchor="middle" x="110.5" y="-7" font-family="Helvetica,sans-Serif" font-size="10.00">cstdint</text>
</a>
</g>
</g>
<!-- Node1&#45;&gt;Node5 -->
<g id="edge14_Node000001_Node000005" class="edge">
<title>Node1&#45;&gt;Node5</title>
<g id="a_edge14_Node000001_Node000005"><a xlink:title=" ">
<path fill="none" stroke="#63b8ff" d="M452.26,-169.11C335.71,-160.22 112.77,-135.42 68.5,-74 56.72,-57.66 73.86,-38.26 89.65,-25.25"/>
<polygon fill="#63b8ff" stroke="#63b8ff" points="91.87,-27.96 97.63,-19.07 87.58,-22.42 91.87,-27.96"/>
</a>
</g>
</g>
<!-- Node6 -->
<g id="Node000006" class="node">
<title>Node6</title>
<g id="a_Node000006"><a xlink:title=" ">
<polygon fill="#e0e0e0" stroke="#999999" points="343.5,-19 299.5,-19 299.5,0 343.5,0 343.5,-19"/>
<text text-anchor="middle" x="321.5" y="-7" font-family="Helvetica,sans-Serif" font-size="10.00">string</text>
</a>
</g>
</g>
<!-- Node1&#45;&gt;Node6 -->
<g id="edge19_Node000001_Node000006" class="edge">
<title>Node1&#45;&gt;Node6</title>
<g id="a_edge19_Node000001_Node000006"><a xlink:title=" ">
<path fill="none" stroke="#63b8ff" d="M531.8,-164.74C550.84,-143.6 593.88,-89.03 565.5,-55 538.9,-23.1 413.82,-14.01 353.8,-11.46"/>
<polygon fill="#63b8ff" stroke="#63b8ff" points="353.86,-7.96 343.73,-11.07 353.58,-14.96 353.86,-7.96"/>
</a>
</g>
</g>
<!-- Node7 -->
<g id="Node000007" class="node">
<title>Node7</title>
<g id="a_Node000007"><a xlink:title=" ">
<polygon fill="#e0e0e0" stroke="#999999" points="491,-74 426,-74 426,-55 491,-55 491,-74"/>
<text text-anchor="middle" x="458.5" y="-62" font-family="Helvetica,sans-Serif" font-size="10.00">exception</text>
</a>
</g>
</g>
<!-- Node1&#45;&gt;Node7 -->
<g id="edge16_Node000001_Node000007" class="edge">
<title>Node1&#45;&gt;Node7</title>
<g id="a_edge16_Node000001_Node000007"><a xlink:title=" ">
<path fill="none" stroke="#63b8ff" d="M518.18,-164.66C507.46,-146.85 483.1,-106.37 469.04,-83.01"/>
<polygon fill="#63b8ff" stroke="#63b8ff" points="471.87,-80.92 463.71,-74.16 465.87,-84.53 471.87,-80.92"/>
</a>
</g>
</g>
<!-- Node9 -->
<g id="Node000009" class="node">
<title>Node9</title>
<g id="a_Node000009"><a xlink:title=" ">
<polygon fill="#e0e0e0" stroke="#999999" points="556,-74 509,-74 509,-55 556,-55 556,-74"/>
<text text-anchor="middle" x="532.5" y="-62" font-family="Helvetica,sans-Serif" font-size="10.00">vector</text>
</a>
</g>
</g>
<!-- Node1&#45;&gt;Node9 -->
<g id="edge20_Node000001_Node000009" class="edge">
<title>Node1&#45;&gt;Node9</title>
<g id="a_edge20_Node000001_Node000009"><a xlink:title=" ">
<path fill="none" stroke="#63b8ff" d="M524.24,-164.66C525.69,-147.17 528.97,-107.8 530.94,-84.27"/>
<polygon fill="#63b8ff" stroke="#63b8ff" points="534.44,-84.41 531.78,-74.16 527.46,-83.83 534.44,-84.41"/>
</a>
</g>
</g>
<!-- Node11 -->
<g id="Node000011" class="node">
<title>Node11</title>
<g id="a_Node000011"><a xlink:title=" ">
<polygon fill="#e0e0e0" stroke="#999999" points="639,-129 590,-129 590,-110 639,-110 639,-129"/>
<text text-anchor="middle" x="614.5" y="-117" font-family="Helvetica,sans-Serif" font-size="10.00">cstdlib</text>
</a>
</g>
</g>
<!-- Node1&#45;&gt;Node11 -->
<g id="edge15_Node000001_Node000011" class="edge">
<title>Node1&#45;&gt;Node11</title>
<g id="a_edge15_Node000001_Node000011"><a xlink:title=" ">
<path fill="none" stroke="#63b8ff" d="M538.12,-164.98C552.36,-156.69 574.25,-143.94 590.95,-134.22"/>
<polygon fill="#63b8ff" stroke="#63b8ff" points="592.73,-137.23 599.61,-129.17 589.21,-131.18 592.73,-137.23"/>
</a>
</g>
</g>
<!-- Node12 -->
<g id="Node000012" class="node">
<title>Node12</title>
<g id="a_Node000012"><a xlink:title=" ">
<polygon fill="#e0e0e0" stroke="#999999" points="717.5,-129 657.5,-129 657.5,-110 717.5,-110 717.5,-129"/>
<text text-anchor="middle" x="687.5" y="-117" font-family="Helvetica,sans-Serif" font-size="10.00">iostream</text>
</a>
</g>
</g>
<!-- Node1&#45;&gt;Node12 -->
<g id="edge17_Node000001_Node000012" class="edge">
<title>Node1&#45;&gt;Node12</title>
<g id="a_edge17_Node000001_Node000012"><a xlink:title=" ">
<path fill="none" stroke="#63b8ff" d="M549.85,-164.98C577.26,-156.13 620.39,-142.19 651.06,-132.28"/>
<polygon fill="#63b8ff" stroke="#63b8ff" points="652.5,-135.49 660.94,-129.08 650.35,-128.83 652.5,-135.49"/>
</a>
</g>
</g>
<!-- Node13 -->
<g id="Node000013" class="node">
<title>Node13</title>
<g id="a_Node000013"><a xlink:title=" ">
<polygon fill="#e0e0e0" stroke="#999999" points="801,-129 736,-129 736,-110 801,-110 801,-129"/>
<text text-anchor="middle" x="768.5" y="-117" font-family="Helvetica,sans-Serif" font-size="10.00">stdexcept</text>
</a>
</g>
</g>
<!-- Node1&#45;&gt;Node13 -->
<g id="edge18_Node000001_Node000013" class="edge">
<title>Node1&#45;&gt;Node13</title>
<g id="a_edge18_Node000001_Node000013"><a xlink:title=" ">
<path fill="none" stroke="#63b8ff" d="M562.86,-164.98C607.51,-155.33 680.04,-139.64 725.96,-129.7"/>
<polygon fill="#63b8ff" stroke="#63b8ff" points="726.86,-133.09 735.9,-127.55 725.38,-126.25 726.86,-133.09"/>
</a>
</g>
</g>
<!-- Node14 -->
<g id="Node000014" class="node">
<title>Node14</title>
<g id="a_Node000014"><a xlink:title=" ">
<polygon fill="#e0e0e0" stroke="#999999" points="870,-129 819,-129 819,-110 870,-110 870,-129"/>
<text text-anchor="middle" x="844.5" y="-117" font-family="Helvetica,sans-Serif" font-size="10.00">errno.h</text>
</a>
</g>
</g>
<!-- Node1&#45;&gt;Node14 -->
<g id="edge21_Node000001_Node000014" class="edge">
<title>Node1&#45;&gt;Node14</title>
<g id="a_edge21_Node000001_Node000014"><a xlink:title=" ">
<path fill="none" stroke="#63b8ff" d="M589.63,-164.99C645.72,-157.37 728.48,-145.2 809.12,-129.13"/>
<polygon fill="#63b8ff" stroke="#63b8ff" points="809.83,-132.56 818.94,-127.16 808.44,-125.7 809.83,-132.56"/>
</a>
</g>
</g>
<!-- Node2&#45;&gt;Node3 -->
<g id="edge2_Node000002_Node000003" class="edge">
<title>Node2&#45;&gt;Node3</title>
<g id="a_edge2_Node000002_Node000003"><a xlink:title=" ">
<path fill="none" stroke="#63b8ff" d="M311.1,-109.98C267.89,-100.4 197.88,-84.88 153.04,-74.93"/>
<polygon fill="#63b8ff" stroke="#63b8ff" points="153.57,-71.47 143.05,-72.72 152.05,-78.3 153.57,-71.47"/>
</a>
</g>
</g>
<!-- Node2&#45;&gt;Node5 -->
<g id="edge6_Node000002_Node000005" class="edge">
<title>Node2&#45;&gt;Node5</title>
<g id="a_edge6_Node000002_Node000005"><a xlink:title=" ">
<path fill="none" stroke="#63b8ff" d="M309.33,-111.85C276.16,-105.31 228.54,-93.42 190.5,-74 165.98,-61.49 141.78,-40.8 126.53,-26.45"/>
<polygon fill="#63b8ff" stroke="#63b8ff" points="128.66,-23.64 119.03,-19.22 123.8,-28.68 128.66,-23.64"/>
</a>
</g>
</g>
<!-- Node2&#45;&gt;Node6 -->
<g id="edge8_Node000002_Node000006" class="edge">
<title>Node2&#45;&gt;Node6</title>
<g id="a_edge8_Node000002_Node000006"><a xlink:title=" ">
<path fill="none" stroke="#63b8ff" d="M347.21,-109.66C342.65,-92.09 332.38,-52.45 326.28,-28.95"/>
<polygon fill="#63b8ff" stroke="#63b8ff" points="329.64,-27.96 323.74,-19.16 322.87,-29.72 329.64,-27.96"/>
</a>
</g>
</g>
<!-- Node2&#45;&gt;Node7 -->
<g id="edge7_Node000002_Node000007" class="edge">
<title>Node2&#45;&gt;Node7</title>
<g id="a_edge7_Node000002_Node000007"><a xlink:title=" ">
<path fill="none" stroke="#63b8ff" d="M367.01,-109.98C384.47,-101.5 411.51,-88.35 431.67,-78.54"/>
<polygon fill="#63b8ff" stroke="#63b8ff" points="433.21,-81.69 440.67,-74.17 430.14,-75.4 433.21,-81.69"/>
</a>
</g>
</g>
<!-- Node8 -->
<g id="Node000008" class="node">
<title>Node8</title>
<g id="a_Node000008"><a xlink:title=" ">
<polygon fill="#e0e0e0" stroke="#999999" points="293,-74 200,-74 200,-55 293,-55 293,-74"/>
<text text-anchor="middle" x="246.5" y="-62" font-family="Helvetica,sans-Serif" font-size="10.00">unordered_map</text>
</a>
</g>
</g>
<!-- Node2&#45;&gt;Node8 -->
<g id="edge9_Node000002_Node000008" class="edge">
<title>Node2&#45;&gt;Node8</title>
<g id="a_edge9_Node000002_Node000008"><a xlink:title=" ">
<path fill="none" stroke="#63b8ff" d="M332.95,-109.98C316.61,-101.57 291.37,-88.59 272.37,-78.81"/>
<polygon fill="#63b8ff" stroke="#63b8ff" points="273.84,-75.63 263.35,-74.17 270.64,-81.86 273.84,-75.63"/>
</a>
</g>
</g>
<!-- Node2&#45;&gt;Node9 -->
<g id="edge10_Node000002_Node000009" class="edge">
<title>Node2&#45;&gt;Node9</title>
<g id="a_edge10_Node000002_Node000009"><a xlink:title=" ">
<path fill="none" stroke="#63b8ff" d="M378.9,-109.98C411.68,-100.49 464.59,-85.17 498.96,-75.21"/>
<polygon fill="#63b8ff" stroke="#63b8ff" points="500.36,-78.45 508.99,-72.31 498.41,-71.73 500.36,-78.45"/>
</a>
</g>
</g>
<!-- Node10 -->
<g id="Node000010" class="node">
<title>Node10</title>
<g id="a_Node000010"><a xlink:title=" ">
<polygon fill="#e0e0e0" stroke="#999999" points="407.5,-74 349.5,-74 349.5,-55 407.5,-55 407.5,-74"/>
<text text-anchor="middle" x="378.5" y="-62" font-family="Helvetica,sans-Serif" font-size="10.00">memory</text>
</a>
</g>
</g>
<!-- Node2&#45;&gt;Node10 -->
<g id="edge11_Node000002_Node000010" class="edge">
<title>Node2&#45;&gt;Node10</title>
<g id="a_edge11_Node000002_Node000010"><a xlink:title=" ">
<path fill="none" stroke="#63b8ff" d="M354.29,-109.75C358.26,-102.49 364.03,-91.95 368.93,-82.98"/>
<polygon fill="#63b8ff" stroke="#63b8ff" points="372.07,-84.54 373.8,-74.09 365.93,-81.18 372.07,-84.54"/>
</a>
</g>
</g>
<!-- Node3&#45;&gt;Node4 -->
<g id="edge3_Node000003_Node000004" class="edge">
<title>Node3&#45;&gt;Node4</title>
<g id="a_edge3_Node000003_Node000004"><a xlink:title=" ">
<path fill="none" stroke="#63b8ff" d="M97,-54.98C84.1,-46.84 64.4,-34.41 49.1,-24.76"/>
<polygon fill="#63b8ff" stroke="#63b8ff" points="50.57,-21.55 40.24,-19.17 46.83,-27.47 50.57,-21.55"/>
</a>
</g>
</g>
<!-- Node3&#45;&gt;Node5 -->
<g id="edge4_Node000003_Node000005" class="edge">
<title>Node3&#45;&gt;Node5</title>
<g id="a_edge4_Node000003_Node000005"><a xlink:title=" ">
<path fill="none" stroke="#63b8ff" d="M110.5,-54.75C110.5,-47.8 110.5,-37.85 110.5,-29.13"/>
<polygon fill="#63b8ff" stroke="#63b8ff" points="114,-29.09 110.5,-19.09 107,-29.09 114,-29.09"/>
</a>
</g>
</g>
<!-- Node3&#45;&gt;Node6 -->
<g id="edge5_Node000003_Node000006" class="edge">
<title>Node3&#45;&gt;Node6</title>
<g id="a_edge5_Node000003_Node000006"><a xlink:title=" ">
<path fill="none" stroke="#63b8ff" d="M143.01,-55.33C182.8,-45.34 249.77,-28.52 289.39,-18.57"/>
<polygon fill="#63b8ff" stroke="#63b8ff" points="290.47,-21.9 299.31,-16.07 288.76,-15.12 290.47,-21.9"/>
</a>
</g>
</g>
</g>
</svg>
