<?xml version="1.0" encoding="UTF-8" standalone="no"?>
<!DOCTYPE svg PUBLIC "-//W3C//DTD SVG 1.1//EN"
 "http://www.w3.org/Graphics/SVG/1.1/DTD/svg11.dtd">
<!-- Generated by graphviz version 2.43.0 (0)
 -->
<!-- Title: src/compiler/CompilerSyntaxException.cpp Pages: 1 -->
<svg width="554pt" height="203pt"
 viewBox="0.00 0.00 553.64 203.00" xmlns="http://www.w3.org/2000/svg" xmlns:xlink="http://www.w3.org/1999/xlink">
<g id="graph0" class="graph" transform="scale(1 1) rotate(0) translate(4 199)">
<title>src/compiler/CompilerSyntaxException.cpp</title>
<!-- Node1 -->
<g id="Node000001" class="node">
<title>Node1</title>
<g id="a_Node000001"><a xlink:title=" ">
<polygon fill="#999999" stroke="#666666" points="172.14,-195 14.14,-195 14.14,-165 172.14,-165 172.14,-195"/>
<text text-anchor="start" x="22.14" y="-183" font-family="Helvetica,sans-Serif" font-size="10.00">src/compiler/CompilerSyntax</text>
<text text-anchor="middle" x="93.14" y="-172" font-family="Helvetica,sans-Serif" font-size="10.00">Exception.cpp</text>
</a>
</g>
</g>
<!-- Node2 -->
<g id="Node000002" class="node">
<title>Node2</title>
<g id="a_Node000002"><a xlink:href="compiler_8hpp.html" target="_top" xlink:title=" ">
<polygon fill="white" stroke="#666666" points="273.14,-129 193.14,-129 193.14,-110 273.14,-110 273.14,-129"/>
<text text-anchor="middle" x="233.14" y="-117" font-family="Helvetica,sans-Serif" font-size="10.00">compiler.hpp</text>
</a>
</g>
</g>
<!-- Node1&#45;&gt;Node2 -->
<g id="edge1_Node000001_Node000002" class="edge">
<title>Node1&#45;&gt;Node2</title>
<g id="a_edge1_Node000001_Node000002"><a xlink:title=" ">
<path fill="none" stroke="#63b8ff" d="M126.67,-164.99C149.92,-155.27 180.63,-142.44 203.08,-133.06"/>
<polygon fill="#63b8ff" stroke="#63b8ff" points="204.58,-136.22 212.46,-129.14 201.89,-129.77 204.58,-136.22"/>
</a>
</g>
</g>
<!-- Node6 -->
<g id="Node000006" class="node">
<title>Node6</title>
<g id="a_Node000006"><a xlink:title=" ">
<polygon fill="#e0e0e0" stroke="#999999" points="45.14,-19 1.14,-19 1.14,0 45.14,0 45.14,-19"/>
<text text-anchor="middle" x="23.14" y="-7" font-family="Helvetica,sans-Serif" font-size="10.00">string</text>
</a>
</g>
</g>
<!-- Node1&#45;&gt;Node6 -->
<g id="edge18_Node000001_Node000006" class="edge">
<title>Node1&#45;&gt;Node6</title>
<g id="a_edge18_Node000001_Node000006"><a xlink:title=" ">
<path fill="none" stroke="#63b8ff" d="M74.47,-164.74C52.31,-146.51 16.55,-112.65 2.14,-74 -3.62,-58.57 3.45,-40.74 10.9,-27.91"/>
<polygon fill="#63b8ff" stroke="#63b8ff" points="14.03,-29.51 16.46,-19.2 8.13,-25.74 14.03,-29.51"/>
</a>
</g>
</g>
<!-- Node3 -->
<g id="Node000003" class="node">
<title>Node3</title>
<g id="a_Node000003"><a xlink:href="bytecode_8hpp.html" target="_top" xlink:title=" ">
<polygon fill="white" stroke="#666666" points="495.64,-74 412.64,-74 412.64,-55 495.64,-55 495.64,-74"/>
<text text-anchor="middle" x="454.14" y="-62" font-family="Helvetica,sans-Serif" font-size="10.00">bytecode.hpp</text>
</a>
</g>
</g>
<!-- Node2&#45;&gt;Node3 -->
<g id="edge2_Node000002_Node000003" class="edge">
<title>Node2&#45;&gt;Node3</title>
<g id="a_edge2_Node000002_Node000003"><a xlink:title=" ">
<path fill="none" stroke="#63b8ff" d="M268.64,-109.98C306.63,-100.87 367.01,-86.4 408.5,-76.45"/>
<polygon fill="#63b8ff" stroke="#63b8ff" points="409.44,-79.82 418.35,-74.08 407.81,-73.01 409.44,-79.82"/>
</a>
</g>
</g>
<!-- Node4 -->
<g id="Node000004" class="node">
<title>Node4</title>
<g id="a_Node000004"><a xlink:title=" ">
<polygon fill="#e0e0e0" stroke="#999999" points="345.14,-19 295.14,-19 295.14,0 345.14,0 345.14,-19"/>
<text text-anchor="middle" x="320.14" y="-7" font-family="Helvetica,sans-Serif" font-size="10.00">cstdint</text>
</a>
</g>
</g>
<!-- Node2&#45;&gt;Node4 -->
<g id="edge12_Node000002_Node000004" class="edge">
<title>Node2&#45;&gt;Node4</title>
<g id="a_edge12_Node000002_Node000004"><a xlink:title=" ">
<path fill="none" stroke="#63b8ff" d="M273.27,-116.87C303.95,-113.26 344.4,-102.88 365.14,-74 377.08,-57.36 359.11,-38.17 342.45,-25.27"/>
<polygon fill="#63b8ff" stroke="#63b8ff" points="344.18,-22.2 334.03,-19.15 340.06,-27.86 344.18,-22.2"/>
</a>
</g>
</g>
<!-- Node2&#45;&gt;Node6 -->
<g id="edge14_Node000002_Node000006" class="edge">
<title>Node2&#45;&gt;Node6</title>
<g id="a_edge14_Node000002_Node000006"><a xlink:title=" ">
<path fill="none" stroke="#63b8ff" d="M192.94,-116.36C135.33,-112.37 33.68,-101.52 11.14,-74 0.72,-61.29 6.15,-42.34 12.7,-28.45"/>
<polygon fill="#63b8ff" stroke="#63b8ff" points="15.91,-29.87 17.46,-19.39 9.71,-26.62 15.91,-29.87"/>
</a>
</g>
</g>
<!-- Node7 -->
<g id="Node000007" class="node">
<title>Node7</title>
<g id="a_Node000007"><a xlink:title=" ">
<polygon fill="#e0e0e0" stroke="#999999" points="545.64,-19 498.64,-19 498.64,0 545.64,0 545.64,-19"/>
<text text-anchor="middle" x="522.14" y="-7" font-family="Helvetica,sans-Serif" font-size="10.00">vector</text>
</a>
</g>
</g>
<!-- Node2&#45;&gt;Node7 -->
<g id="edge16_Node000002_Node000007" class="edge">
<title>Node2&#45;&gt;Node7</title>
<g id="a_edge16_Node000002_Node000007"><a xlink:title=" ">
<path fill="none" stroke="#63b8ff" d="M273.19,-117.15C340.38,-114.06 471.75,-104.23 505.14,-74 517.42,-62.88 521.24,-43.95 522.24,-29.64"/>
<polygon fill="#63b8ff" stroke="#63b8ff" points="525.75,-29.5 522.55,-19.4 518.75,-29.29 525.75,-29.5"/>
</a>
</g>
</g>
<!-- Node9 -->
<g id="Node000009" class="node">
<title>Node9</title>
<g id="a_Node000009"><a xlink:href="types_8hpp.html" target="_top" xlink:title=" ">
<polygon fill="white" stroke="#666666" points="85.64,-74 20.64,-74 20.64,-55 85.64,-55 85.64,-74"/>
<text text-anchor="middle" x="53.14" y="-62" font-family="Helvetica,sans-Serif" font-size="10.00">types.hpp</text>
</a>
</g>
</g>
<!-- Node2&#45;&gt;Node9 -->
<g id="edge8_Node000002_Node000009" class="edge">
<title>Node2&#45;&gt;Node9</title>
<g id="a_edge8_Node000002_Node000009"><a xlink:title=" ">
<path fill="none" stroke="#63b8ff" d="M204.22,-109.98C173.87,-101.05 125.97,-86.94 92.26,-77.02"/>
<polygon fill="#63b8ff" stroke="#63b8ff" points="92.87,-73.55 82.28,-74.08 90.89,-80.26 92.87,-73.55"/>
</a>
</g>
</g>
<!-- Node10 -->
<g id="Node000010" class="node">
<title>Node10</title>
<g id="a_Node000010"><a xlink:title=" ">
<polygon fill="#e0e0e0" stroke="#999999" points="168.64,-74 103.64,-74 103.64,-55 168.64,-55 168.64,-74"/>
<text text-anchor="middle" x="136.14" y="-62" font-family="Helvetica,sans-Serif" font-size="10.00">exception</text>
</a>
</g>
</g>
<!-- Node2&#45;&gt;Node10 -->
<g id="edge13_Node000002_Node000010" class="edge">
<title>Node2&#45;&gt;Node10</title>
<g id="a_edge13_Node000002_Node000010"><a xlink:title=" ">
<path fill="none" stroke="#63b8ff" d="M217.55,-109.98C202.37,-101.69 179.04,-88.94 161.24,-79.22"/>
<polygon fill="#63b8ff" stroke="#63b8ff" points="162.46,-75.89 152.01,-74.17 159.1,-82.04 162.46,-75.89"/>
</a>
</g>
</g>
<!-- Node11 -->
<g id="Node000011" class="node">
<title>Node11</title>
<g id="a_Node000011"><a xlink:title=" ">
<polygon fill="#e0e0e0" stroke="#999999" points="279.64,-74 186.64,-74 186.64,-55 279.64,-55 279.64,-74"/>
<text text-anchor="middle" x="233.14" y="-62" font-family="Helvetica,sans-Serif" font-size="10.00">unordered_map</text>
</a>
</g>
</g>
<!-- Node2&#45;&gt;Node11 -->
<g id="edge15_Node000002_Node000011" class="edge">
<title>Node2&#45;&gt;Node11</title>
<g id="a_edge15_Node000002_Node000011"><a xlink:title=" ">
<path fill="none" stroke="#63b8ff" d="M233.14,-109.75C233.14,-102.8 233.14,-92.85 233.14,-84.13"/>
<polygon fill="#63b8ff" stroke="#63b8ff" points="236.64,-84.09 233.14,-74.09 229.64,-84.09 236.64,-84.09"/>
</a>
</g>
</g>
<!-- Node12 -->
<g id="Node000012" class="node">
<title>Node12</title>
<g id="a_Node000012"><a xlink:title=" ">
<polygon fill="#e0e0e0" stroke="#999999" points="356.14,-74 298.14,-74 298.14,-55 356.14,-55 356.14,-74"/>
<text text-anchor="middle" x="327.14" y="-62" font-family="Helvetica,sans-Serif" font-size="10.00">memory</text>
</a>
</g>
</g>
<!-- Node2&#45;&gt;Node12 -->
<g id="edge17_Node000002_Node000012" class="edge">
<title>Node2&#45;&gt;Node12</title>
<g id="a_edge17_Node000002_Node000012"><a xlink:title=" ">
<path fill="none" stroke="#63b8ff" d="M248.24,-109.98C262.95,-101.69 285.56,-88.94 302.81,-79.22"/>
<polygon fill="#63b8ff" stroke="#63b8ff" points="304.77,-82.13 311.76,-74.17 301.33,-76.03 304.77,-82.13"/>
</a>
</g>
</g>
<!-- Node3&#45;&gt;Node4 -->
<g id="edge3_Node000003_Node000004" class="edge">
<title>Node3&#45;&gt;Node4</title>
<g id="a_edge3_Node000003_Node000004"><a xlink:title=" ">
<path fill="none" stroke="#63b8ff" d="M432.61,-54.98C410.66,-46.3 376.4,-32.75 351.45,-22.88"/>
<polygon fill="#63b8ff" stroke="#63b8ff" points="352.64,-19.59 342.06,-19.17 350.07,-26.1 352.64,-19.59"/>
</a>
</g>
</g>
<!-- Node5 -->
<g id="Node000005" class="node">
<title>Node5</title>
<g id="a_Node000005"><a xlink:title=" ">
<polygon fill="#e0e0e0" stroke="#999999" points="416.64,-19 363.64,-19 363.64,0 416.64,0 416.64,-19"/>
<text text-anchor="middle" x="390.14" y="-7" font-family="Helvetica,sans-Serif" font-size="10.00">cstddef</text>
</a>
</g>
</g>
<!-- Node3&#45;&gt;Node5 -->
<g id="edge4_Node000003_Node000005" class="edge">
<title>Node3&#45;&gt;Node5</title>
<g id="a_edge4_Node000003_Node000005"><a xlink:title=" ">
<path fill="none" stroke="#63b8ff" d="M443.85,-54.98C434.3,-47.07 419.86,-35.11 408.35,-25.58"/>
<polygon fill="#63b8ff" stroke="#63b8ff" points="410.54,-22.85 400.61,-19.17 406.08,-28.24 410.54,-22.85"/>
</a>
</g>
</g>
<!-- Node3&#45;&gt;Node6 -->
<g id="edge5_Node000003_Node000006" class="edge">
<title>Node3&#45;&gt;Node6</title>
<g id="a_edge5_Node000003_Node000006"><a xlink:title=" ">
<path fill="none" stroke="#63b8ff" d="M412.42,-58.37C326.67,-47.83 132.21,-23.91 55.31,-14.46"/>
<polygon fill="#63b8ff" stroke="#63b8ff" points="55.61,-10.97 45.26,-13.22 54.76,-17.91 55.61,-10.97"/>
</a>
</g>
</g>
<!-- Node3&#45;&gt;Node7 -->
<g id="edge6_Node000003_Node000007" class="edge">
<title>Node3&#45;&gt;Node7</title>
<g id="a_edge6_Node000003_Node000007"><a xlink:title=" ">
<path fill="none" stroke="#63b8ff" d="M465.06,-54.98C475.21,-47.07 490.56,-35.11 502.78,-25.58"/>
<polygon fill="#63b8ff" stroke="#63b8ff" points="505.28,-28.08 511.01,-19.17 500.97,-22.56 505.28,-28.08"/>
</a>
</g>
</g>
<!-- Node8 -->
<g id="Node000008" class="node">
<title>Node8</title>
<g id="a_Node000008"><a xlink:title=" ">
<polygon fill="#e0e0e0" stroke="#999999" points="477.14,-19 435.14,-19 435.14,0 477.14,0 477.14,-19"/>
<text text-anchor="middle" x="456.14" y="-7" font-family="Helvetica,sans-Serif" font-size="10.00">array</text>
</a>
</g>
</g>
<!-- Node3&#45;&gt;Node8 -->
<g id="edge7_Node000003_Node000008" class="edge">
<title>Node3&#45;&gt;Node8</title>
<g id="a_edge7_Node000003_Node000008"><a xlink:title=" ">
<path fill="none" stroke="#63b8ff" d="M454.47,-54.75C454.73,-47.8 455.11,-37.85 455.43,-29.13"/>
<polygon fill="#63b8ff" stroke="#63b8ff" points="458.93,-29.21 455.81,-19.09 451.94,-28.95 458.93,-29.21"/>
</a>
</g>
</g>
<!-- Node9&#45;&gt;Node4 -->
<g id="edge10_Node000009_Node000004" class="edge">
<title>Node9&#45;&gt;Node4</title>
<g id="a_edge10_Node000009_Node000004"><a xlink:title=" ">
<path fill="none" stroke="#63b8ff" d="M85.8,-56.7C88.62,-56.12 91.43,-55.55 94.14,-55 161.63,-41.36 240.58,-25.94 285.04,-17.3"/>
<polygon fill="#63b8ff" stroke="#63b8ff" points="285.89,-20.7 295.04,-15.36 284.55,-13.83 285.89,-20.7"/>
</a>
</g>
</g>
<!-- Node9&#45;&gt;Node5 -->
<g id="edge9_Node000009_Node000005" class="edge">
<title>Node9&#45;&gt;Node5</title>
<g id="a_edge9_Node000009_Node000005"><a xlink:title=" ">
<path fill="none" stroke="#63b8ff" d="M85.77,-56.53C88.6,-55.99 91.42,-55.47 94.14,-55 205.95,-35.69 237.74,-40.16 353.5,-18.95"/>
<polygon fill="#63b8ff" stroke="#63b8ff" points="354.27,-22.36 363.46,-17.09 352.99,-15.48 354.27,-22.36"/>
</a>
</g>
</g>
<!-- Node9&#45;&gt;Node6 -->
<g id="edge11_Node000009_Node000006" class="edge">
<title>Node9&#45;&gt;Node6</title>
<g id="a_edge11_Node000009_Node000006"><a xlink:title=" ">
<path fill="none" stroke="#63b8ff" d="M48.18,-54.75C44.08,-47.49 38.11,-36.95 33.03,-27.98"/>
<polygon fill="#63b8ff" stroke="#63b8ff" points="35.97,-26.07 28,-19.09 29.88,-29.52 35.97,-26.07"/>
</a>
</g>
</g>
</g>
</svg>
