<?xml version="1.0" encoding="UTF-8" standalone="no"?>
<!DOCTYPE svg PUBLIC "-//W3C//DTD SVG 1.1//EN"
 "http://www.w3.org/Graphics/SVG/1.1/DTD/svg11.dtd">
<!-- Generated by graphviz version 2.43.0 (0)
 -->
<!-- Title: src/compiler/compiler.cpp Pages: 1 -->
<svg width="1243pt" height="192pt"
 viewBox="0.00 0.00 1243.31 192.00" xmlns="http://www.w3.org/2000/svg" xmlns:xlink="http://www.w3.org/1999/xlink">
<g id="graph0" class="graph" transform="scale(1 1) rotate(0) translate(4 188)">
<title>src/compiler/compiler.cpp</title>
<!-- Node1 -->
<g id="Node000001" class="node">
<title>Node1</title>
<g id="a_Node000001"><a xlink:title=" ">
<polygon fill="#999999" stroke="#666666" points="895.81,-184 753.81,-184 753.81,-165 895.81,-165 895.81,-184"/>
<text text-anchor="middle" x="824.81" y="-172" font-family="Helvetica,sans-Serif" font-size="10.00">src/compiler/compiler.cpp</text>
</a>
</g>
</g>
<!-- Node2 -->
<g id="Node000002" class="node">
<title>Node2</title>
<g id="a_Node000002"><a xlink:href="compiler_8hpp.html" target="_top" xlink:title=" ">
<polygon fill="white" stroke="#666666" points="403.81,-129 323.81,-129 323.81,-110 403.81,-110 403.81,-129"/>
<text text-anchor="middle" x="363.81" y="-117" font-family="Helvetica,sans-Serif" font-size="10.00">compiler.hpp</text>
</a>
</g>
</g>
<!-- Node1&#45;&gt;Node2 -->
<g id="edge1_Node000001_Node000002" class="edge">
<title>Node1&#45;&gt;Node2</title>
<g id="a_edge1_Node000001_Node000002"><a xlink:title=" ">
<path fill="none" stroke="#63b8ff" d="M753.79,-165.33C659.81,-154.53 496.47,-135.75 414.21,-126.29"/>
<polygon fill="#63b8ff" stroke="#63b8ff" points="414.44,-122.8 404.11,-125.13 413.65,-129.75 414.44,-122.8"/>
</a>
</g>
</g>
<!-- Node3 -->
<g id="Node000003" class="node">
<title>Node3</title>
<g id="a_Node000003"><a xlink:href="bytecode_8hpp.html" target="_top" xlink:title=" ">
<polygon fill="white" stroke="#666666" points="187.31,-74 104.31,-74 104.31,-55 187.31,-55 187.31,-74"/>
<text text-anchor="middle" x="145.81" y="-62" font-family="Helvetica,sans-Serif" font-size="10.00">bytecode.hpp</text>
</a>
</g>
</g>
<!-- Node1&#45;&gt;Node3 -->
<g id="edge22_Node000001_Node000003" class="edge">
<title>Node1&#45;&gt;Node3</title>
<g id="a_edge22_Node000001_Node000003"><a xlink:title=" ">
<path fill="none" stroke="#63b8ff" d="M753.75,-173.36C654.34,-171.81 468.66,-163.92 314.81,-129 263.01,-117.24 205.73,-93.22 172.93,-78.33"/>
<polygon fill="#63b8ff" stroke="#63b8ff" points="174.12,-75.02 163.57,-74.02 171.19,-81.38 174.12,-75.02"/>
</a>
</g>
</g>
<!-- Node4 -->
<g id="Node000004" class="node">
<title>Node4</title>
<g id="a_Node000004"><a xlink:title=" ">
<polygon fill="#e0e0e0" stroke="#999999" points="159.81,-19 109.81,-19 109.81,0 159.81,0 159.81,-19"/>
<text text-anchor="middle" x="134.81" y="-7" font-family="Helvetica,sans-Serif" font-size="10.00">cstdint</text>
</a>
</g>
</g>
<!-- Node1&#45;&gt;Node4 -->
<g id="edge26_Node000001_Node000004" class="edge">
<title>Node1&#45;&gt;Node4</title>
<g id="a_edge26_Node000001_Node000004"><a xlink:title=" ">
<path fill="none" stroke="#63b8ff" d="M753.73,-170.94C608.85,-165.34 283.87,-150.75 174.81,-129 99.83,-114.04 56.4,-136.11 11.81,-74 6.89,-67.14 6.96,-61.91 11.81,-55 22.17,-40.24 67.01,-26.67 99.57,-18.49"/>
<polygon fill="#63b8ff" stroke="#63b8ff" points="100.76,-21.8 109.65,-16.03 99.1,-15 100.76,-21.8"/>
</a>
</g>
</g>
<!-- Node5 -->
<g id="Node000005" class="node">
<title>Node5</title>
<g id="a_Node000005"><a xlink:title=" ">
<polygon fill="#e0e0e0" stroke="#999999" points="80.31,-19 27.31,-19 27.31,0 80.31,0 80.31,-19"/>
<text text-anchor="middle" x="53.81" y="-7" font-family="Helvetica,sans-Serif" font-size="10.00">cstddef</text>
</a>
</g>
</g>
<!-- Node1&#45;&gt;Node5 -->
<g id="edge25_Node000001_Node000005" class="edge">
<title>Node1&#45;&gt;Node5</title>
<g id="a_edge25_Node000001_Node000005"><a xlink:title=" ">
<path fill="none" stroke="#63b8ff" d="M753.65,-172.71C573.72,-170.24 110.45,-160.83 48.81,-129 14.81,-111.44 -10.68,-89.99 4.81,-55 10.14,-42.97 20.5,-32.8 30.32,-25.24"/>
<polygon fill="#63b8ff" stroke="#63b8ff" points="32.57,-27.93 38.68,-19.27 28.51,-22.23 32.57,-27.93"/>
</a>
</g>
</g>
<!-- Node6 -->
<g id="Node000006" class="node">
<title>Node6</title>
<g id="a_Node000006"><a xlink:title=" ">
<polygon fill="#e0e0e0" stroke="#999999" points="275.81,-19 231.81,-19 231.81,0 275.81,0 275.81,-19"/>
<text text-anchor="middle" x="253.81" y="-7" font-family="Helvetica,sans-Serif" font-size="10.00">string</text>
</a>
</g>
</g>
<!-- Node1&#45;&gt;Node6 -->
<g id="edge32_Node000001_Node000006" class="edge">
<title>Node1&#45;&gt;Node6</title>
<g id="a_edge32_Node000001_Node000006"><a xlink:title=" ">
<path fill="none" stroke="#63b8ff" d="M828.35,-164.93C836.65,-143.26 854.63,-85.8 825.81,-55 786.3,-12.77 378.85,-27.67 285.97,-18.46"/>
<polygon fill="#63b8ff" stroke="#63b8ff" points="286.41,-14.98 276.04,-17.17 285.51,-21.93 286.41,-14.98"/>
</a>
</g>
</g>
<!-- Node7 -->
<g id="Node000007" class="node">
<title>Node7</title>
<g id="a_Node000007"><a xlink:title=" ">
<polygon fill="#e0e0e0" stroke="#999999" points="341.31,-19 294.31,-19 294.31,0 341.31,0 341.31,-19"/>
<text text-anchor="middle" x="317.81" y="-7" font-family="Helvetica,sans-Serif" font-size="10.00">vector</text>
</a>
</g>
</g>
<!-- Node1&#45;&gt;Node7 -->
<g id="edge33_Node000001_Node000007" class="edge">
<title>Node1&#45;&gt;Node7</title>
<g id="a_edge33_Node000001_Node000007"><a xlink:title=" ">
<path fill="none" stroke="#63b8ff" d="M834.42,-164.69C842.68,-156.41 854.01,-143.18 858.81,-129 869.35,-97.85 881.09,-79.19 858.81,-55 841.55,-36.26 467.42,-17.43 351.64,-12.03"/>
<polygon fill="#63b8ff" stroke="#63b8ff" points="351.73,-8.53 341.58,-11.56 351.4,-15.52 351.73,-8.53"/>
</a>
</g>
</g>
<!-- Node9 -->
<g id="Node000009" class="node">
<title>Node9</title>
<g id="a_Node000009"><a xlink:title=" ">
<polygon fill="#e0e0e0" stroke="#999999" points="678.31,-19 627.31,-19 627.31,0 678.31,0 678.31,-19"/>
<text text-anchor="middle" x="652.81" y="-7" font-family="Helvetica,sans-Serif" font-size="10.00">errno.h</text>
</a>
</g>
</g>
<!-- Node1&#45;&gt;Node9 -->
<g id="edge34_Node000001_Node000009" class="edge">
<title>Node1&#45;&gt;Node9</title>
<g id="a_edge34_Node000001_Node000009"><a xlink:title=" ">
<path fill="none" stroke="#63b8ff" d="M850.67,-164.99C867.08,-158.09 887.01,-146.58 896.81,-129 912.83,-100.27 917.88,-80.26 896.81,-55 870.73,-23.73 749.99,-14.37 688.71,-11.62"/>
<polygon fill="#63b8ff" stroke="#63b8ff" points="688.48,-8.11 678.34,-11.19 688.19,-15.1 688.48,-8.11"/>
</a>
</g>
</g>
<!-- Node10 -->
<g id="Node000010" class="node">
<title>Node10</title>
<g id="a_Node000010"><a xlink:href="params_8hpp.html" target="_top" xlink:title=" ">
<polygon fill="white" stroke="#666666" points="732.81,-74 612.81,-74 612.81,-55 732.81,-55 732.81,-74"/>
<text text-anchor="middle" x="672.81" y="-62" font-family="Helvetica,sans-Serif" font-size="10.00">compiler/params.hpp</text>
</a>
</g>
</g>
<!-- Node1&#45;&gt;Node10 -->
<g id="edge23_Node000001_Node000010" class="edge">
<title>Node1&#45;&gt;Node10</title>
<g id="a_edge23_Node000001_Node000010"><a xlink:title=" ">
<path fill="none" stroke="#63b8ff" d="M812.63,-164.84C786.61,-146.36 725.39,-102.86 693.28,-80.05"/>
<polygon fill="#63b8ff" stroke="#63b8ff" points="695.23,-77.14 685.05,-74.2 691.18,-82.84 695.23,-77.14"/>
</a>
</g>
</g>
<!-- Node11 -->
<g id="Node000011" class="node">
<title>Node11</title>
<g id="a_Node000011"><a xlink:href="types_8hpp.html" target="_top" xlink:title=" ">
<polygon fill="white" stroke="#666666" points="86.31,-74 21.31,-74 21.31,-55 86.31,-55 86.31,-74"/>
<text text-anchor="middle" x="53.81" y="-62" font-family="Helvetica,sans-Serif" font-size="10.00">types.hpp</text>
</a>
</g>
</g>
<!-- Node1&#45;&gt;Node11 -->
<g id="edge24_Node000001_Node000011" class="edge">
<title>Node1&#45;&gt;Node11</title>
<g id="a_edge24_Node000001_Node000011"><a xlink:title=" ">
<path fill="none" stroke="#63b8ff" d="M753.71,-173.36C644.37,-171.95 428.82,-164.41 249.81,-129 189.58,-117.09 121.99,-92.6 84,-77.76"/>
<polygon fill="#63b8ff" stroke="#63b8ff" points="85.14,-74.44 74.55,-74.02 82.57,-80.95 85.14,-74.44"/>
</a>
</g>
</g>
<!-- Node12 -->
<g id="Node000012" class="node">
<title>Node12</title>
<g id="a_Node000012"><a xlink:title=" ">
<polygon fill="#e0e0e0" stroke="#999999" points="816.31,-74 751.31,-74 751.31,-55 816.31,-55 816.31,-74"/>
<text text-anchor="middle" x="783.81" y="-62" font-family="Helvetica,sans-Serif" font-size="10.00">exception</text>
</a>
</g>
</g>
<!-- Node1&#45;&gt;Node12 -->
<g id="edge28_Node000001_Node000012" class="edge">
<title>Node1&#45;&gt;Node12</title>
<g id="a_edge28_Node000001_Node000012"><a xlink:title=" ">
<path fill="none" stroke="#63b8ff" d="M821.46,-164.66C814.76,-147.01 799.6,-107.09 790.7,-83.64"/>
<polygon fill="#63b8ff" stroke="#63b8ff" points="793.92,-82.27 787.1,-74.16 787.38,-84.75 793.92,-82.27"/>
</a>
</g>
</g>
<!-- Node15 -->
<g id="Node000015" class="node">
<title>Node15</title>
<g id="a_Node000015"><a xlink:title=" ">
<polygon fill="#e0e0e0" stroke="#999999" points="998.31,-129 949.31,-129 949.31,-110 998.31,-110 998.31,-129"/>
<text text-anchor="middle" x="973.81" y="-117" font-family="Helvetica,sans-Serif" font-size="10.00">cstdlib</text>
</a>
</g>
</g>
<!-- Node1&#45;&gt;Node15 -->
<g id="edge27_Node000001_Node000015" class="edge">
<title>Node1&#45;&gt;Node15</title>
<g id="a_edge27_Node000001_Node000015"><a xlink:title=" ">
<path fill="none" stroke="#63b8ff" d="M848.75,-164.98C873.37,-156.23 911.93,-142.51 939.73,-132.62"/>
<polygon fill="#63b8ff" stroke="#63b8ff" points="941.19,-135.82 949.44,-129.17 938.84,-129.22 941.19,-135.82"/>
</a>
</g>
</g>
<!-- Node16 -->
<g id="Node000016" class="node">
<title>Node16</title>
<g id="a_Node000016"><a xlink:title=" ">
<polygon fill="#e0e0e0" stroke="#999999" points="1076.81,-129 1016.81,-129 1016.81,-110 1076.81,-110 1076.81,-129"/>
<text text-anchor="middle" x="1046.81" y="-117" font-family="Helvetica,sans-Serif" font-size="10.00">iostream</text>
</a>
</g>
</g>
<!-- Node1&#45;&gt;Node16 -->
<g id="edge29_Node000001_Node000016" class="edge">
<title>Node1&#45;&gt;Node16</title>
<g id="a_edge29_Node000001_Node000016"><a xlink:title=" ">
<path fill="none" stroke="#63b8ff" d="M860.48,-164.98C900.45,-155.44 965.1,-140.01 1006.77,-130.06"/>
<polygon fill="#63b8ff" stroke="#63b8ff" points="1007.67,-133.44 1016.58,-127.72 1006.04,-126.64 1007.67,-133.44"/>
</a>
</g>
</g>
<!-- Node17 -->
<g id="Node000017" class="node">
<title>Node17</title>
<g id="a_Node000017"><a xlink:title=" ">
<polygon fill="#e0e0e0" stroke="#999999" points="1152.31,-129 1095.31,-129 1095.31,-110 1152.31,-110 1152.31,-129"/>
<text text-anchor="middle" x="1123.81" y="-117" font-family="Helvetica,sans-Serif" font-size="10.00">ostream</text>
</a>
</g>
</g>
<!-- Node1&#45;&gt;Node17 -->
<g id="edge30_Node000001_Node000017" class="edge">
<title>Node1&#45;&gt;Node17</title>
<g id="a_edge30_Node000001_Node000017"><a xlink:title=" ">
<path fill="none" stroke="#63b8ff" d="M879.7,-164.98C930.45,-156.91 1008.19,-144.07 1085.32,-129.01"/>
<polygon fill="#63b8ff" stroke="#63b8ff" points="1086.07,-132.43 1095.21,-127.06 1084.72,-125.56 1086.07,-132.43"/>
</a>
</g>
</g>
<!-- Node18 -->
<g id="Node000018" class="node">
<title>Node18</title>
<g id="a_Node000018"><a xlink:title=" ">
<polygon fill="#e0e0e0" stroke="#999999" points="1235.31,-129 1170.31,-129 1170.31,-110 1235.31,-110 1235.31,-129"/>
<text text-anchor="middle" x="1202.81" y="-117" font-family="Helvetica,sans-Serif" font-size="10.00">stdexcept</text>
</a>
</g>
</g>
<!-- Node1&#45;&gt;Node18 -->
<g id="edge31_Node000001_Node000018" class="edge">
<title>Node1&#45;&gt;Node18</title>
<g id="a_edge31_Node000001_Node000018"><a xlink:title=" ">
<path fill="none" stroke="#63b8ff" d="M896.04,-165.63C962.14,-157.97 1063.46,-145.35 1160.23,-129.17"/>
<polygon fill="#63b8ff" stroke="#63b8ff" points="1160.9,-132.61 1170.18,-127.49 1159.74,-125.7 1160.9,-132.61"/>
</a>
</g>
</g>
<!-- Node2&#45;&gt;Node3 -->
<g id="edge2_Node000002_Node000003" class="edge">
<title>Node2&#45;&gt;Node3</title>
<g id="a_edge2_Node000002_Node000003"><a xlink:title=" ">
<path fill="none" stroke="#63b8ff" d="M328.79,-109.98C291.31,-100.87 231.76,-86.4 190.83,-76.45"/>
<polygon fill="#63b8ff" stroke="#63b8ff" points="191.66,-73.04 181.11,-74.08 190,-79.85 191.66,-73.04"/>
</a>
</g>
</g>
<!-- Node2&#45;&gt;Node4 -->
<g id="edge16_Node000002_Node000004" class="edge">
<title>Node2&#45;&gt;Node4</title>
<g id="a_edge16_Node000002_Node000004"><a xlink:title=" ">
<path fill="none" stroke="#63b8ff" d="M345.46,-109.84C305.33,-90.92 209.59,-45.77 162.26,-23.45"/>
<polygon fill="#63b8ff" stroke="#63b8ff" points="163.47,-20.15 152.93,-19.05 160.49,-26.48 163.47,-20.15"/>
</a>
</g>
</g>
<!-- Node2&#45;&gt;Node6 -->
<g id="edge18_Node000002_Node000006" class="edge">
<title>Node2&#45;&gt;Node6</title>
<g id="a_edge18_Node000002_Node000006"><a xlink:title=" ">
<path fill="none" stroke="#63b8ff" d="M350.14,-109.89C337.43,-101.54 318.32,-88.1 303.81,-74 289.09,-59.7 274.87,-41.01 265.39,-27.62"/>
<polygon fill="#63b8ff" stroke="#63b8ff" points="268.2,-25.54 259.63,-19.31 262.45,-29.53 268.2,-25.54"/>
</a>
</g>
</g>
<!-- Node2&#45;&gt;Node7 -->
<g id="edge20_Node000002_Node000007" class="edge">
<title>Node2&#45;&gt;Node7</title>
<g id="a_edge20_Node000002_Node000007"><a xlink:title=" ">
<path fill="none" stroke="#63b8ff" d="M347.23,-109.87C334.64,-102.3 318.27,-90.01 310.81,-74 304.22,-59.86 306.98,-42.1 310.81,-28.95"/>
<polygon fill="#63b8ff" stroke="#63b8ff" points="314.23,-29.78 314.1,-19.18 307.59,-27.55 314.23,-29.78"/>
</a>
</g>
</g>
<!-- Node8 -->
<g id="Node000008" class="node">
<title>Node8</title>
<g id="a_Node000008"><a xlink:href="essentials_8hpp.html" target="_top" xlink:title=" ">
<polygon fill="white" stroke="#666666" points="407.31,-74 320.31,-74 320.31,-55 407.31,-55 407.31,-74"/>
<text text-anchor="middle" x="363.81" y="-62" font-family="Helvetica,sans-Serif" font-size="10.00">essentials.hpp</text>
</a>
</g>
</g>
<!-- Node2&#45;&gt;Node8 -->
<g id="edge7_Node000002_Node000008" class="edge">
<title>Node2&#45;&gt;Node8</title>
<g id="a_edge7_Node000002_Node000008"><a xlink:title=" ">
<path fill="none" stroke="#63b8ff" d="M363.81,-109.75C363.81,-102.8 363.81,-92.85 363.81,-84.13"/>
<polygon fill="#63b8ff" stroke="#63b8ff" points="367.31,-84.09 363.81,-74.09 360.31,-84.09 367.31,-84.09"/>
</a>
</g>
</g>
<!-- Node2&#45;&gt;Node10 -->
<g id="edge10_Node000002_Node000010" class="edge">
<title>Node2&#45;&gt;Node10</title>
<g id="a_edge10_Node000002_Node000010"><a xlink:title=" ">
<path fill="none" stroke="#63b8ff" d="M403.89,-111.63C457.1,-102.5 551.51,-86.31 613.12,-75.74"/>
<polygon fill="#63b8ff" stroke="#63b8ff" points="613.83,-79.17 623.1,-74.03 612.65,-72.27 613.83,-79.17"/>
</a>
</g>
</g>
<!-- Node2&#45;&gt;Node11 -->
<g id="edge12_Node000002_Node000011" class="edge">
<title>Node2&#45;&gt;Node11</title>
<g id="a_edge12_Node000002_Node000011"><a xlink:title=" ">
<path fill="none" stroke="#63b8ff" d="M323.62,-112.37C272.91,-104.52 182.79,-90.2 96.43,-74.24"/>
<polygon fill="#63b8ff" stroke="#63b8ff" points="96.93,-70.78 86.46,-72.39 95.65,-77.66 96.93,-70.78"/>
</a>
</g>
</g>
<!-- Node2&#45;&gt;Node12 -->
<g id="edge17_Node000002_Node000012" class="edge">
<title>Node2&#45;&gt;Node12</title>
<g id="a_edge17_Node000002_Node000012"><a xlink:title=" ">
<path fill="none" stroke="#63b8ff" d="M403.96,-114.87C471.42,-108.54 611.93,-94.32 741.22,-73.96"/>
<polygon fill="#63b8ff" stroke="#63b8ff" points="741.97,-77.38 751.3,-72.36 740.87,-70.47 741.97,-77.38"/>
</a>
</g>
</g>
<!-- Node13 -->
<g id="Node000013" class="node">
<title>Node13</title>
<g id="a_Node000013"><a xlink:title=" ">
<polygon fill="#e0e0e0" stroke="#999999" points="518.31,-74 425.31,-74 425.31,-55 518.31,-55 518.31,-74"/>
<text text-anchor="middle" x="471.81" y="-62" font-family="Helvetica,sans-Serif" font-size="10.00">unordered_map</text>
</a>
</g>
</g>
<!-- Node2&#45;&gt;Node13 -->
<g id="edge19_Node000002_Node000013" class="edge">
<title>Node2&#45;&gt;Node13</title>
<g id="a_edge19_Node000002_Node000013"><a xlink:title=" ">
<path fill="none" stroke="#63b8ff" d="M381.16,-109.98C398.38,-101.54 425.01,-88.47 444.96,-78.68"/>
<polygon fill="#63b8ff" stroke="#63b8ff" points="446.71,-81.72 454.14,-74.17 443.62,-75.43 446.71,-81.72"/>
</a>
</g>
</g>
<!-- Node14 -->
<g id="Node000014" class="node">
<title>Node14</title>
<g id="a_Node000014"><a xlink:title=" ">
<polygon fill="#e0e0e0" stroke="#999999" points="594.81,-74 536.81,-74 536.81,-55 594.81,-55 594.81,-74"/>
<text text-anchor="middle" x="565.81" y="-62" font-family="Helvetica,sans-Serif" font-size="10.00">memory</text>
</a>
</g>
</g>
<!-- Node2&#45;&gt;Node14 -->
<g id="edge21_Node000002_Node000014" class="edge">
<title>Node2&#45;&gt;Node14</title>
<g id="a_edge21_Node000002_Node000014"><a xlink:title=" ">
<path fill="none" stroke="#63b8ff" d="M396.27,-109.98C431.89,-100.64 489.07,-85.64 527.03,-75.68"/>
<polygon fill="#63b8ff" stroke="#63b8ff" points="527.93,-79.06 536.72,-73.13 526.15,-72.29 527.93,-79.06"/>
</a>
</g>
</g>
<!-- Node3&#45;&gt;Node4 -->
<g id="edge3_Node000003_Node000004" class="edge">
<title>Node3&#45;&gt;Node4</title>
<g id="a_edge3_Node000003_Node000004"><a xlink:title=" ">
<path fill="none" stroke="#63b8ff" d="M144,-54.75C142.55,-47.8 140.49,-37.85 138.68,-29.13"/>
<polygon fill="#63b8ff" stroke="#63b8ff" points="142.05,-28.17 136.59,-19.09 135.2,-29.59 142.05,-28.17"/>
</a>
</g>
</g>
<!-- Node3&#45;&gt;Node5 -->
<g id="edge4_Node000003_Node000005" class="edge">
<title>Node3&#45;&gt;Node5</title>
<g id="a_edge4_Node000003_Node000005"><a xlink:title=" ">
<path fill="none" stroke="#63b8ff" d="M131.03,-54.98C116.63,-46.69 94.5,-33.94 77.62,-24.22"/>
<polygon fill="#63b8ff" stroke="#63b8ff" points="79.27,-21.13 68.86,-19.17 75.78,-27.19 79.27,-21.13"/>
</a>
</g>
</g>
<!-- Node3&#45;&gt;Node6 -->
<g id="edge5_Node000003_Node000006" class="edge">
<title>Node3&#45;&gt;Node6</title>
<g id="a_edge5_Node000003_Node000006"><a xlink:title=" ">
<path fill="none" stroke="#63b8ff" d="M163.16,-54.98C180.38,-46.54 207.01,-33.47 226.96,-23.68"/>
<polygon fill="#63b8ff" stroke="#63b8ff" points="228.71,-26.72 236.14,-19.17 225.62,-20.43 228.71,-26.72"/>
</a>
</g>
</g>
<!-- Node3&#45;&gt;Node7 -->
<g id="edge6_Node000003_Node000007" class="edge">
<title>Node3&#45;&gt;Node7</title>
<g id="a_edge6_Node000003_Node000007"><a xlink:title=" ">
<path fill="none" stroke="#63b8ff" d="M173.45,-54.98C203.61,-45.69 251.91,-30.81 284.23,-20.85"/>
<polygon fill="#63b8ff" stroke="#63b8ff" points="285.6,-24.09 294.12,-17.8 283.53,-17.4 285.6,-24.09"/>
</a>
</g>
</g>
<!-- Node8&#45;&gt;Node6 -->
<g id="edge9_Node000008_Node000006" class="edge">
<title>Node8&#45;&gt;Node6</title>
<g id="a_edge9_Node000008_Node000006"><a xlink:title=" ">
<path fill="none" stroke="#63b8ff" d="M346.14,-54.98C328.52,-46.5 301.23,-33.35 280.89,-23.54"/>
<polygon fill="#63b8ff" stroke="#63b8ff" points="282.33,-20.36 271.81,-19.17 279.3,-26.66 282.33,-20.36"/>
</a>
</g>
</g>
<!-- Node8&#45;&gt;Node9 -->
<g id="edge8_Node000008_Node000009" class="edge">
<title>Node8&#45;&gt;Node9</title>
<g id="a_edge8_Node000008_Node000009"><a xlink:title=" ">
<path fill="none" stroke="#63b8ff" d="M407.39,-55.51C464.6,-45.02 563.97,-26.79 617.02,-17.06"/>
<polygon fill="#63b8ff" stroke="#63b8ff" points="617.78,-20.48 626.98,-15.24 616.51,-13.6 617.78,-20.48"/>
</a>
</g>
</g>
<!-- Node10&#45;&gt;Node6 -->
<g id="edge11_Node000010_Node000006" class="edge">
<title>Node10&#45;&gt;Node6</title>
<g id="a_edge11_Node000010_Node000006"><a xlink:title=" ">
<path fill="none" stroke="#63b8ff" d="M612.61,-56.05C609.63,-55.69 606.69,-55.34 603.81,-55 465.3,-38.65 426.65,-45.61 285.93,-18.94"/>
<polygon fill="#63b8ff" stroke="#63b8ff" points="286.55,-15.49 276.07,-17.05 285.23,-22.37 286.55,-15.49"/>
</a>
</g>
</g>
<!-- Node11&#45;&gt;Node4 -->
<g id="edge14_Node000011_Node000004" class="edge">
<title>Node11&#45;&gt;Node4</title>
<g id="a_edge14_Node000011_Node000004"><a xlink:title=" ">
<path fill="none" stroke="#63b8ff" d="M66.83,-54.98C79.27,-46.84 98.27,-34.41 113.02,-24.76"/>
<polygon fill="#63b8ff" stroke="#63b8ff" points="115.11,-27.57 121.56,-19.17 111.28,-21.72 115.11,-27.57"/>
</a>
</g>
</g>
<!-- Node11&#45;&gt;Node5 -->
<g id="edge13_Node000011_Node000005" class="edge">
<title>Node11&#45;&gt;Node5</title>
<g id="a_edge13_Node000011_Node000005"><a xlink:title=" ">
<path fill="none" stroke="#63b8ff" d="M53.81,-54.75C53.81,-47.8 53.81,-37.85 53.81,-29.13"/>
<polygon fill="#63b8ff" stroke="#63b8ff" points="57.31,-29.09 53.81,-19.09 50.31,-29.09 57.31,-29.09"/>
</a>
</g>
</g>
<!-- Node11&#45;&gt;Node6 -->
<g id="edge15_Node000011_Node000006" class="edge">
<title>Node11&#45;&gt;Node6</title>
<g id="a_edge15_Node000011_Node000006"><a xlink:title=" ">
<path fill="none" stroke="#63b8ff" d="M85.95,-54.98C123.29,-45.09 184.54,-28.86 221.83,-18.98"/>
<polygon fill="#63b8ff" stroke="#63b8ff" points="222.9,-22.31 231.67,-16.37 221.1,-15.55 222.9,-22.31"/>
</a>
</g>
</g>
</g>
</svg>
