<?xml version="1.0" encoding="UTF-8" standalone="no"?>
<!DOCTYPE svg PUBLIC "-//W3C//DTD SVG 1.1//EN"
 "http://www.w3.org/Graphics/SVG/1.1/DTD/svg11.dtd">
<!-- Generated by graphviz version 2.43.0 (0)
 -->
<!-- Title: src/compiler/bytecode.cpp Pages: 1 -->
<svg width="580pt" height="192pt"
 viewBox="0.00 0.00 580.02 192.00" xmlns="http://www.w3.org/2000/svg" xmlns:xlink="http://www.w3.org/1999/xlink">
<g id="graph0" class="graph" transform="scale(1 1) rotate(0) translate(4 188)">
<title>src/compiler/bytecode.cpp</title>
<!-- Node1 -->
<g id="Node000001" class="node">
<title>Node1</title>
<g id="a_Node000001"><a xlink:title=" ">
<polygon fill="#999999" stroke="#666666" points="358.52,-184 213.52,-184 213.52,-165 358.52,-165 358.52,-184"/>
<text text-anchor="middle" x="286.02" y="-172" font-family="Helvetica,sans-Serif" font-size="10.00">src/compiler/bytecode.cpp</text>
</a>
</g>
</g>
<!-- Node2 -->
<g id="Node000002" class="node">
<title>Node2</title>
<g id="a_Node000002"><a xlink:href="bytecode_8hpp.html" target="_top" xlink:title=" ">
<polygon fill="white" stroke="#666666" points="497.52,-74 414.52,-74 414.52,-55 497.52,-55 497.52,-74"/>
<text text-anchor="middle" x="456.02" y="-62" font-family="Helvetica,sans-Serif" font-size="10.00">bytecode.hpp</text>
</a>
</g>
</g>
<!-- Node1&#45;&gt;Node2 -->
<g id="edge1_Node000001_Node000002" class="edge">
<title>Node1&#45;&gt;Node2</title>
<g id="a_edge1_Node000001_Node000002"><a xlink:title=" ">
<path fill="none" stroke="#63b8ff" d="M281.5,-164.64C275.39,-151.3 266.61,-125.92 279.02,-110 286.88,-99.92 355.17,-84.86 404.58,-75.11"/>
<polygon fill="#63b8ff" stroke="#63b8ff" points="405.35,-78.53 414.5,-73.18 404.01,-71.66 405.35,-78.53"/>
</a>
</g>
</g>
<!-- Node3 -->
<g id="Node000003" class="node">
<title>Node3</title>
<g id="a_Node000003"><a xlink:title=" ">
<polygon fill="#e0e0e0" stroke="#999999" points="50.02,-19 0.02,-19 0.02,0 50.02,0 50.02,-19"/>
<text text-anchor="middle" x="25.02" y="-7" font-family="Helvetica,sans-Serif" font-size="10.00">cstdint</text>
</a>
</g>
</g>
<!-- Node1&#45;&gt;Node3 -->
<g id="edge20_Node000001_Node000003" class="edge">
<title>Node1&#45;&gt;Node3</title>
<g id="a_edge20_Node000001_Node000003"><a xlink:title=" ">
<path fill="none" stroke="#63b8ff" d="M213.33,-171.86C144.88,-165.84 46.69,-144.51 4.02,-74 -4.77,-59.47 3.34,-40.82 11.91,-27.49"/>
<polygon fill="#63b8ff" stroke="#63b8ff" points="14.82,-29.43 17.71,-19.24 9.1,-25.41 14.82,-29.43"/>
</a>
</g>
</g>
<!-- Node8 -->
<g id="Node000008" class="node">
<title>Node8</title>
<g id="a_Node000008"><a xlink:href="compiler_8hpp.html" target="_top" xlink:title=" ">
<polygon fill="white" stroke="#666666" points="232.02,-129 152.02,-129 152.02,-110 232.02,-110 232.02,-129"/>
<text text-anchor="middle" x="192.02" y="-117" font-family="Helvetica,sans-Serif" font-size="10.00">compiler.hpp</text>
</a>
</g>
</g>
<!-- Node1&#45;&gt;Node8 -->
<g id="edge7_Node000001_Node000008" class="edge">
<title>Node1&#45;&gt;Node8</title>
<g id="a_edge7_Node000001_Node000008"><a xlink:title=" ">
<path fill="none" stroke="#63b8ff" d="M270.92,-164.98C256.21,-156.69 233.6,-143.94 216.35,-134.22"/>
<polygon fill="#63b8ff" stroke="#63b8ff" points="217.83,-131.03 207.4,-129.17 214.39,-137.13 217.83,-131.03"/>
</a>
</g>
</g>
<!-- Node9 -->
<g id="Node000009" class="node">
<title>Node9</title>
<g id="a_Node000009"><a xlink:href="types_8hpp.html" target="_top" xlink:title=" ">
<polygon fill="white" stroke="#666666" points="87.52,-74 22.52,-74 22.52,-55 87.52,-55 87.52,-74"/>
<text text-anchor="middle" x="55.02" y="-62" font-family="Helvetica,sans-Serif" font-size="10.00">types.hpp</text>
</a>
</g>
</g>
<!-- Node1&#45;&gt;Node9 -->
<g id="edge19_Node000001_Node000009" class="edge">
<title>Node1&#45;&gt;Node9</title>
<g id="a_edge19_Node000001_Node000009"><a xlink:title=" ">
<path fill="none" stroke="#63b8ff" d="M246.78,-164.93C217.29,-157.64 176.4,-145.68 143.02,-129 116.62,-115.81 89.57,-94.97 72.56,-80.8"/>
<polygon fill="#63b8ff" stroke="#63b8ff" points="74.52,-77.87 64.63,-74.07 69.99,-83.21 74.52,-77.87"/>
</a>
</g>
</g>
<!-- Node13 -->
<g id="Node000013" class="node">
<title>Node13</title>
<g id="a_Node000013"><a xlink:title=" ">
<polygon fill="#e0e0e0" stroke="#999999" points="338.02,-129 288.02,-129 288.02,-110 338.02,-110 338.02,-129"/>
<text text-anchor="middle" x="313.02" y="-117" font-family="Helvetica,sans-Serif" font-size="10.00">cstring</text>
</a>
</g>
</g>
<!-- Node1&#45;&gt;Node13 -->
<g id="edge21_Node000001_Node000013" class="edge">
<title>Node1&#45;&gt;Node13</title>
<g id="a_edge21_Node000001_Node000013"><a xlink:title=" ">
<path fill="none" stroke="#63b8ff" d="M290.48,-164.75C294.14,-157.57 299.43,-147.18 303.97,-138.27"/>
<polygon fill="#63b8ff" stroke="#63b8ff" points="307.23,-139.59 308.65,-129.09 300.99,-136.41 307.23,-139.59"/>
</a>
</g>
</g>
<!-- Node14 -->
<g id="Node000014" class="node">
<title>Node14</title>
<g id="a_Node000014"><a xlink:title=" ">
<polygon fill="#e0e0e0" stroke="#999999" points="420.02,-129 356.02,-129 356.02,-110 420.02,-110 420.02,-129"/>
<text text-anchor="middle" x="388.02" y="-117" font-family="Helvetica,sans-Serif" font-size="10.00">algorithm</text>
</a>
</g>
</g>
<!-- Node1&#45;&gt;Node14 -->
<g id="edge22_Node000001_Node000014" class="edge">
<title>Node1&#45;&gt;Node14</title>
<g id="a_edge22_Node000001_Node000014"><a xlink:title=" ">
<path fill="none" stroke="#63b8ff" d="M302.41,-164.98C318.6,-156.57 343.59,-143.59 362.41,-133.81"/>
<polygon fill="#63b8ff" stroke="#63b8ff" points="364.08,-136.89 371.34,-129.17 360.85,-130.68 364.08,-136.89"/>
</a>
</g>
</g>
<!-- Node15 -->
<g id="Node000015" class="node">
<title>Node15</title>
<g id="a_Node000015"><a xlink:title=" ">
<polygon fill="#e0e0e0" stroke="#999999" points="493.52,-129 438.52,-129 438.52,-110 493.52,-110 493.52,-129"/>
<text text-anchor="middle" x="466.02" y="-117" font-family="Helvetica,sans-Serif" font-size="10.00">fstream</text>
</a>
</g>
</g>
<!-- Node1&#45;&gt;Node15 -->
<g id="edge23_Node000001_Node000015" class="edge">
<title>Node1&#45;&gt;Node15</title>
<g id="a_edge23_Node000001_Node000015"><a xlink:title=" ">
<path fill="none" stroke="#63b8ff" d="M314.94,-164.98C345.75,-155.92 394.62,-141.53 428.4,-131.58"/>
<polygon fill="#63b8ff" stroke="#63b8ff" points="429.75,-134.83 438.36,-128.65 427.78,-128.11 429.75,-134.83"/>
</a>
</g>
</g>
<!-- Node16 -->
<g id="Node000016" class="node">
<title>Node16</title>
<g id="a_Node000016"><a xlink:title=" ">
<polygon fill="#e0e0e0" stroke="#999999" points="572.02,-129 512.02,-129 512.02,-110 572.02,-110 572.02,-129"/>
<text text-anchor="middle" x="542.02" y="-117" font-family="Helvetica,sans-Serif" font-size="10.00">iostream</text>
</a>
</g>
</g>
<!-- Node1&#45;&gt;Node16 -->
<g id="edge24_Node000001_Node000016" class="edge">
<title>Node1&#45;&gt;Node16</title>
<g id="a_edge24_Node000001_Node000016"><a xlink:title=" ">
<path fill="none" stroke="#63b8ff" d="M328.47,-164.96C370.1,-156.54 435.65,-143.2 501.64,-129.27"/>
<polygon fill="#63b8ff" stroke="#63b8ff" points="502.74,-132.62 511.8,-127.13 501.29,-125.77 502.74,-132.62"/>
</a>
</g>
</g>
<!-- Node2&#45;&gt;Node3 -->
<g id="edge2_Node000002_Node000003" class="edge">
<title>Node2&#45;&gt;Node3</title>
<g id="a_edge2_Node000002_Node000003"><a xlink:title=" ">
<path fill="none" stroke="#63b8ff" d="M414.31,-56.22C411.51,-55.79 408.73,-55.38 406.02,-55 259.02,-34.55 220.99,-39.69 74.02,-19 69.53,-18.37 64.81,-17.63 60.15,-16.87"/>
<polygon fill="#63b8ff" stroke="#63b8ff" points="60.6,-13.4 50.16,-15.18 59.43,-20.3 60.6,-13.4"/>
</a>
</g>
</g>
<!-- Node4 -->
<g id="Node000004" class="node">
<title>Node4</title>
<g id="a_Node000004"><a xlink:title=" ">
<polygon fill="#e0e0e0" stroke="#999999" points="136.52,-19 83.52,-19 83.52,0 136.52,0 136.52,-19"/>
<text text-anchor="middle" x="110.02" y="-7" font-family="Helvetica,sans-Serif" font-size="10.00">cstddef</text>
</a>
</g>
</g>
<!-- Node2&#45;&gt;Node4 -->
<g id="edge3_Node000002_Node000004" class="edge">
<title>Node2&#45;&gt;Node4</title>
<g id="a_edge3_Node000002_Node000004"><a xlink:title=" ">
<path fill="none" stroke="#63b8ff" d="M414.29,-56.33C411.5,-55.88 408.72,-55.43 406.02,-55 297.32,-37.78 269.75,-36.05 161.02,-19 156.46,-18.28 151.67,-17.51 146.93,-16.74"/>
<polygon fill="#63b8ff" stroke="#63b8ff" points="147.18,-13.23 136.74,-15.05 146.04,-20.14 147.18,-13.23"/>
</a>
</g>
</g>
<!-- Node5 -->
<g id="Node000005" class="node">
<title>Node5</title>
<g id="a_Node000005"><a xlink:title=" ">
<polygon fill="#e0e0e0" stroke="#999999" points="214.02,-19 170.02,-19 170.02,0 214.02,0 214.02,-19"/>
<text text-anchor="middle" x="192.02" y="-7" font-family="Helvetica,sans-Serif" font-size="10.00">string</text>
</a>
</g>
</g>
<!-- Node2&#45;&gt;Node5 -->
<g id="edge4_Node000002_Node000005" class="edge">
<title>Node2&#45;&gt;Node5</title>
<g id="a_edge4_Node000002_Node000005"><a xlink:title=" ">
<path fill="none" stroke="#63b8ff" d="M414.48,-55.16C361.83,-44.59 272.19,-26.59 224.35,-16.99"/>
<polygon fill="#63b8ff" stroke="#63b8ff" points="224.74,-13.5 214.25,-14.96 223.37,-20.36 224.74,-13.5"/>
</a>
</g>
</g>
<!-- Node6 -->
<g id="Node000006" class="node">
<title>Node6</title>
<g id="a_Node000006"><a xlink:title=" ">
<polygon fill="#e0e0e0" stroke="#999999" points="545.52,-19 498.52,-19 498.52,0 545.52,0 545.52,-19"/>
<text text-anchor="middle" x="522.02" y="-7" font-family="Helvetica,sans-Serif" font-size="10.00">vector</text>
</a>
</g>
</g>
<!-- Node2&#45;&gt;Node6 -->
<g id="edge5_Node000002_Node000006" class="edge">
<title>Node2&#45;&gt;Node6</title>
<g id="a_edge5_Node000002_Node000006"><a xlink:title=" ">
<path fill="none" stroke="#63b8ff" d="M466.63,-54.98C476.48,-47.07 491.38,-35.11 503.24,-25.58"/>
<polygon fill="#63b8ff" stroke="#63b8ff" points="505.62,-28.16 511.23,-19.17 501.24,-22.7 505.62,-28.16"/>
</a>
</g>
</g>
<!-- Node7 -->
<g id="Node000007" class="node">
<title>Node7</title>
<g id="a_Node000007"><a xlink:title=" ">
<polygon fill="#e0e0e0" stroke="#999999" points="477.02,-19 435.02,-19 435.02,0 477.02,0 477.02,-19"/>
<text text-anchor="middle" x="456.02" y="-7" font-family="Helvetica,sans-Serif" font-size="10.00">array</text>
</a>
</g>
</g>
<!-- Node2&#45;&gt;Node7 -->
<g id="edge6_Node000002_Node000007" class="edge">
<title>Node2&#45;&gt;Node7</title>
<g id="a_edge6_Node000002_Node000007"><a xlink:title=" ">
<path fill="none" stroke="#63b8ff" d="M456.02,-54.75C456.02,-47.8 456.02,-37.85 456.02,-29.13"/>
<polygon fill="#63b8ff" stroke="#63b8ff" points="459.52,-29.09 456.02,-19.09 452.52,-29.09 459.52,-29.09"/>
</a>
</g>
</g>
<!-- Node8&#45;&gt;Node2 -->
<g id="edge8_Node000008_Node000002" class="edge">
<title>Node8&#45;&gt;Node2</title>
<g id="a_edge8_Node000008_Node000002"><a xlink:title=" ">
<path fill="none" stroke="#63b8ff" d="M232.12,-110.45C278.14,-101.21 353.74,-86.03 404.19,-75.91"/>
<polygon fill="#63b8ff" stroke="#63b8ff" points="405.12,-79.29 414.24,-73.89 403.75,-72.43 405.12,-79.29"/>
</a>
</g>
</g>
<!-- Node8&#45;&gt;Node3 -->
<g id="edge13_Node000008_Node000003" class="edge">
<title>Node8&#45;&gt;Node3</title>
<g id="a_edge13_Node000008_Node000003"><a xlink:title=" ">
<path fill="none" stroke="#63b8ff" d="M151.92,-114.23C104.52,-108.25 29.94,-95.63 13.02,-74 2.9,-61.06 8.29,-42.14 14.75,-28.32"/>
<polygon fill="#63b8ff" stroke="#63b8ff" points="17.93,-29.8 19.44,-19.32 11.72,-26.57 17.93,-29.8"/>
</a>
</g>
</g>
<!-- Node8&#45;&gt;Node5 -->
<g id="edge15_Node000008_Node000005" class="edge">
<title>Node8&#45;&gt;Node5</title>
<g id="a_edge15_Node000008_Node000005"><a xlink:title=" ">
<path fill="none" stroke="#63b8ff" d="M192.02,-109.66C192.02,-92.17 192.02,-52.8 192.02,-29.27"/>
<polygon fill="#63b8ff" stroke="#63b8ff" points="195.52,-29.16 192.02,-19.16 188.52,-29.16 195.52,-29.16"/>
</a>
</g>
</g>
<!-- Node8&#45;&gt;Node6 -->
<g id="edge17_Node000008_Node000006" class="edge">
<title>Node8&#45;&gt;Node6</title>
<g id="a_edge17_Node000008_Node000006"><a xlink:title=" ">
<path fill="none" stroke="#63b8ff" d="M232.28,-114.03C314.94,-104.69 496.95,-83.19 507.02,-74 519.17,-62.92 522.37,-43.98 522.86,-29.66"/>
<polygon fill="#63b8ff" stroke="#63b8ff" points="526.35,-29.39 522.79,-19.41 519.35,-29.43 526.35,-29.39"/>
</a>
</g>
</g>
<!-- Node8&#45;&gt;Node9 -->
<g id="edge9_Node000008_Node000009" class="edge">
<title>Node8&#45;&gt;Node9</title>
<g id="a_edge9_Node000008_Node000009"><a xlink:title=" ">
<path fill="none" stroke="#63b8ff" d="M170.01,-109.98C147.58,-101.3 112.54,-87.75 87.04,-77.88"/>
<polygon fill="#63b8ff" stroke="#63b8ff" points="88.03,-74.51 77.44,-74.17 85.5,-81.04 88.03,-74.51"/>
</a>
</g>
</g>
<!-- Node10 -->
<g id="Node000010" class="node">
<title>Node10</title>
<g id="a_Node000010"><a xlink:title=" ">
<polygon fill="#e0e0e0" stroke="#999999" points="285.52,-74 220.52,-74 220.52,-55 285.52,-55 285.52,-74"/>
<text text-anchor="middle" x="253.02" y="-62" font-family="Helvetica,sans-Serif" font-size="10.00">exception</text>
</a>
</g>
</g>
<!-- Node8&#45;&gt;Node10 -->
<g id="edge14_Node000008_Node000010" class="edge">
<title>Node8&#45;&gt;Node10</title>
<g id="a_edge14_Node000008_Node000010"><a xlink:title=" ">
<path fill="none" stroke="#63b8ff" d="M201.82,-109.98C210.84,-102.15 224.43,-90.34 235.34,-80.86"/>
<polygon fill="#63b8ff" stroke="#63b8ff" points="237.79,-83.37 243.05,-74.17 233.2,-78.09 237.79,-83.37"/>
</a>
</g>
</g>
<!-- Node11 -->
<g id="Node000011" class="node">
<title>Node11</title>
<g id="a_Node000011"><a xlink:title=" ">
<polygon fill="#e0e0e0" stroke="#999999" points="396.52,-74 303.52,-74 303.52,-55 396.52,-55 396.52,-74"/>
<text text-anchor="middle" x="350.02" y="-62" font-family="Helvetica,sans-Serif" font-size="10.00">unordered_map</text>
</a>
</g>
</g>
<!-- Node8&#45;&gt;Node11 -->
<g id="edge16_Node000008_Node000011" class="edge">
<title>Node8&#45;&gt;Node11</title>
<g id="a_edge16_Node000008_Node000011"><a xlink:title=" ">
<path fill="none" stroke="#63b8ff" d="M217.41,-109.98C243.82,-101.13 285.37,-87.19 314.92,-77.28"/>
<polygon fill="#63b8ff" stroke="#63b8ff" points="316.07,-80.58 324.44,-74.08 313.85,-73.94 316.07,-80.58"/>
</a>
</g>
</g>
<!-- Node12 -->
<g id="Node000012" class="node">
<title>Node12</title>
<g id="a_Node000012"><a xlink:title=" ">
<polygon fill="#e0e0e0" stroke="#999999" points="164.02,-74 106.02,-74 106.02,-55 164.02,-55 164.02,-74"/>
<text text-anchor="middle" x="135.02" y="-62" font-family="Helvetica,sans-Serif" font-size="10.00">memory</text>
</a>
</g>
</g>
<!-- Node8&#45;&gt;Node12 -->
<g id="edge18_Node000008_Node000012" class="edge">
<title>Node8&#45;&gt;Node12</title>
<g id="a_edge18_Node000008_Node000012"><a xlink:title=" ">
<path fill="none" stroke="#63b8ff" d="M182.87,-109.98C174.52,-102.23 161.99,-90.58 151.85,-81.14"/>
<polygon fill="#63b8ff" stroke="#63b8ff" points="154.06,-78.42 144.35,-74.17 149.29,-83.54 154.06,-78.42"/>
</a>
</g>
</g>
<!-- Node9&#45;&gt;Node3 -->
<g id="edge11_Node000009_Node000003" class="edge">
<title>Node9&#45;&gt;Node3</title>
<g id="a_edge11_Node000009_Node000003"><a xlink:title=" ">
<path fill="none" stroke="#63b8ff" d="M50.07,-54.75C45.96,-47.49 40,-36.95 34.92,-27.98"/>
<polygon fill="#63b8ff" stroke="#63b8ff" points="37.86,-26.07 29.89,-19.09 31.77,-29.52 37.86,-26.07"/>
</a>
</g>
</g>
<!-- Node9&#45;&gt;Node4 -->
<g id="edge10_Node000009_Node000004" class="edge">
<title>Node9&#45;&gt;Node4</title>
<g id="a_edge10_Node000009_Node000004"><a xlink:title=" ">
<path fill="none" stroke="#63b8ff" d="M64.11,-54.75C72.12,-47.03 83.98,-35.6 93.65,-26.28"/>
<polygon fill="#63b8ff" stroke="#63b8ff" points="96.34,-28.55 101.11,-19.09 91.48,-23.51 96.34,-28.55"/>
</a>
</g>
</g>
<!-- Node9&#45;&gt;Node5 -->
<g id="edge12_Node000009_Node000005" class="edge">
<title>Node9&#45;&gt;Node5</title>
<g id="a_edge12_Node000009_Node000005"><a xlink:title=" ">
<path fill="none" stroke="#63b8ff" d="M77.04,-54.98C99.47,-46.3 134.51,-32.75 160.01,-22.88"/>
<polygon fill="#63b8ff" stroke="#63b8ff" points="161.55,-26.04 169.61,-19.17 159.02,-19.51 161.55,-26.04"/>
</a>
</g>
</g>
</g>
</svg>
