<?xml version="1.0" encoding="UTF-8" standalone="no"?>
<!DOCTYPE svg PUBLIC "-//W3C//DTD SVG 1.1//EN"
 "http://www.w3.org/Graphics/SVG/1.1/DTD/svg11.dtd">
<!-- Generated by graphviz version 2.43.0 (0)
 -->
<!-- Title: src/compiler/compile.cpp Pages: 1 -->
<svg width="1045pt" height="192pt"
 viewBox="0.00 0.00 1045.00 192.00" xmlns="http://www.w3.org/2000/svg" xmlns:xlink="http://www.w3.org/1999/xlink">
<g id="graph0" class="graph" transform="scale(1 1) rotate(0) translate(4 188)">
<title>src/compiler/compile.cpp</title>
<!-- Node1 -->
<g id="Node000001" class="node">
<title>Node1</title>
<g id="a_Node000001"><a xlink:title=" ">
<polygon fill="#999999" stroke="#666666" points="819,-184 680,-184 680,-165 819,-165 819,-184"/>
<text text-anchor="middle" x="749.5" y="-172" font-family="Helvetica,sans-Serif" font-size="10.00">src/compiler/compile.cpp</text>
</a>
</g>
</g>
<!-- Node2 -->
<g id="Node000002" class="node">
<title>Node2</title>
<g id="a_Node000002"><a xlink:href="bytecode_8hpp.html" target="_top" xlink:title=" ">
<polygon fill="white" stroke="#666666" points="153,-74 70,-74 70,-55 153,-55 153,-74"/>
<text text-anchor="middle" x="111.5" y="-62" font-family="Helvetica,sans-Serif" font-size="10.00">bytecode.hpp</text>
</a>
</g>
</g>
<!-- Node1&#45;&gt;Node2 -->
<g id="edge1_Node000001_Node000002" class="edge">
<title>Node1&#45;&gt;Node2</title>
<g id="a_edge1_Node000001_Node000002"><a xlink:title=" ">
<path fill="none" stroke="#63b8ff" d="M679.73,-167.19C606.22,-160.02 487.22,-146.95 385.5,-129 302.38,-114.33 206.58,-90.52 153.13,-76.6"/>
<polygon fill="#63b8ff" stroke="#63b8ff" points="153.89,-73.18 143.33,-74.04 152.12,-79.96 153.89,-73.18"/>
</a>
</g>
</g>
<!-- Node3 -->
<g id="Node000003" class="node">
<title>Node3</title>
<g id="a_Node000003"><a xlink:title=" ">
<polygon fill="#e0e0e0" stroke="#999999" points="680.5,-19 630.5,-19 630.5,0 680.5,0 680.5,-19"/>
<text text-anchor="middle" x="655.5" y="-7" font-family="Helvetica,sans-Serif" font-size="10.00">cstdint</text>
</a>
</g>
</g>
<!-- Node1&#45;&gt;Node3 -->
<g id="edge22_Node000001_Node000003" class="edge">
<title>Node1&#45;&gt;Node3</title>
<g id="a_edge22_Node000001_Node000003"><a xlink:title=" ">
<path fill="none" stroke="#63b8ff" d="M748.12,-164.74C744.54,-144.06 733.43,-91.23 708.5,-55 700.41,-43.25 688.42,-32.82 677.89,-25.02"/>
<polygon fill="#63b8ff" stroke="#63b8ff" points="679.7,-22.01 669.51,-19.12 675.67,-27.74 679.7,-22.01"/>
</a>
</g>
</g>
<!-- Node4 -->
<g id="Node000004" class="node">
<title>Node4</title>
<g id="a_Node000004"><a xlink:title=" ">
<polygon fill="#e0e0e0" stroke="#999999" points="138,-19 85,-19 85,0 138,0 138,-19"/>
<text text-anchor="middle" x="111.5" y="-7" font-family="Helvetica,sans-Serif" font-size="10.00">cstddef</text>
</a>
</g>
</g>
<!-- Node1&#45;&gt;Node4 -->
<g id="edge21_Node000001_Node000004" class="edge">
<title>Node1&#45;&gt;Node4</title>
<g id="a_edge21_Node000001_Node000004"><a xlink:title=" ">
<path fill="none" stroke="#63b8ff" d="M679.97,-168.79C512.85,-156.74 99.56,-122.28 61.5,-74 48.15,-57.07 68.84,-37.58 87.52,-24.71"/>
<polygon fill="#63b8ff" stroke="#63b8ff" points="89.62,-27.52 96.1,-19.13 85.81,-21.65 89.62,-27.52"/>
</a>
</g>
</g>
<!-- Node7 -->
<g id="Node000007" class="node">
<title>Node7</title>
<g id="a_Node000007"><a xlink:href="compiler_8hpp.html" target="_top" xlink:title=" ">
<polygon fill="white" stroke="#666666" points="474.5,-129 394.5,-129 394.5,-110 474.5,-110 474.5,-129"/>
<text text-anchor="middle" x="434.5" y="-117" font-family="Helvetica,sans-Serif" font-size="10.00">compiler.hpp</text>
</a>
</g>
</g>
<!-- Node1&#45;&gt;Node7 -->
<g id="edge6_Node000001_Node000007" class="edge">
<title>Node1&#45;&gt;Node7</title>
<g id="a_edge6_Node000001_Node000007"><a xlink:title=" ">
<path fill="none" stroke="#63b8ff" d="M698.89,-164.98C640.16,-155.1 543.87,-138.9 485.13,-129.02"/>
<polygon fill="#63b8ff" stroke="#63b8ff" points="485.41,-125.52 474.97,-127.31 484.25,-132.42 485.41,-125.52"/>
</a>
</g>
</g>
<!-- Node13 -->
<g id="Node000013" class="node">
<title>Node13</title>
<g id="a_Node000013"><a xlink:title=" ">
<polygon fill="#e0e0e0" stroke="#999999" points="875,-129 778,-129 778,-110 875,-110 875,-129"/>
<text text-anchor="middle" x="826.5" y="-117" font-family="Helvetica,sans-Serif" font-size="10.00">compiler/errno.h</text>
</a>
</g>
</g>
<!-- Node1&#45;&gt;Node13 -->
<g id="edge20_Node000001_Node000013" class="edge">
<title>Node1&#45;&gt;Node13</title>
<g id="a_edge20_Node000001_Node000013"><a xlink:title=" ">
<path fill="none" stroke="#63b8ff" d="M761.87,-164.98C773.59,-156.92 791.42,-144.65 805.39,-135.03"/>
<polygon fill="#63b8ff" stroke="#63b8ff" points="807.65,-137.72 813.9,-129.17 803.68,-131.96 807.65,-137.72"/>
</a>
</g>
</g>
<!-- Node14 -->
<g id="Node000014" class="node">
<title>Node14</title>
<g id="a_Node000014"><a xlink:title=" ">
<polygon fill="#e0e0e0" stroke="#999999" points="953.5,-129 893.5,-129 893.5,-110 953.5,-110 953.5,-129"/>
<text text-anchor="middle" x="923.5" y="-117" font-family="Helvetica,sans-Serif" font-size="10.00">iostream</text>
</a>
</g>
</g>
<!-- Node1&#45;&gt;Node14 -->
<g id="edge23_Node000001_Node000014" class="edge">
<title>Node1&#45;&gt;Node14</title>
<g id="a_edge23_Node000001_Node000014"><a xlink:title=" ">
<path fill="none" stroke="#63b8ff" d="M777.46,-164.98C806.8,-156.05 853.1,-141.94 885.69,-132.02"/>
<polygon fill="#63b8ff" stroke="#63b8ff" points="886.78,-135.34 895.32,-129.08 884.74,-128.65 886.78,-135.34"/>
</a>
</g>
</g>
<!-- Node15 -->
<g id="Node000015" class="node">
<title>Node15</title>
<g id="a_Node000015"><a xlink:title=" ">
<polygon fill="#e0e0e0" stroke="#999999" points="1037,-129 972,-129 972,-110 1037,-110 1037,-129"/>
<text text-anchor="middle" x="1004.5" y="-117" font-family="Helvetica,sans-Serif" font-size="10.00">stdexcept</text>
</a>
</g>
</g>
<!-- Node1&#45;&gt;Node15 -->
<g id="edge24_Node000001_Node000015" class="edge">
<title>Node1&#45;&gt;Node15</title>
<g id="a_edge24_Node000001_Node000015"><a xlink:title=" ">
<path fill="none" stroke="#63b8ff" d="M790.47,-164.98C837.43,-155.23 914.03,-139.3 961.73,-129.39"/>
<polygon fill="#63b8ff" stroke="#63b8ff" points="962.66,-132.77 971.74,-127.31 961.24,-125.92 962.66,-132.77"/>
</a>
</g>
</g>
<!-- Node2&#45;&gt;Node3 -->
<g id="edge2_Node000002_Node000003" class="edge">
<title>Node2&#45;&gt;Node3</title>
<g id="a_edge2_Node000002_Node000003"><a xlink:title=" ">
<path fill="none" stroke="#63b8ff" d="M153.21,-56.29C156.35,-55.82 159.47,-55.39 162.5,-55 251.34,-43.6 522.33,-21.27 619.97,-13.36"/>
<polygon fill="#63b8ff" stroke="#63b8ff" points="620.51,-16.82 630.2,-12.53 619.95,-9.85 620.51,-16.82"/>
</a>
</g>
</g>
<!-- Node2&#45;&gt;Node4 -->
<g id="edge3_Node000002_Node000004" class="edge">
<title>Node2&#45;&gt;Node4</title>
<g id="a_edge3_Node000002_Node000004"><a xlink:title=" ">
<path fill="none" stroke="#63b8ff" d="M111.5,-54.75C111.5,-47.8 111.5,-37.85 111.5,-29.13"/>
<polygon fill="#63b8ff" stroke="#63b8ff" points="115,-29.09 111.5,-19.09 108,-29.09 115,-29.09"/>
</a>
</g>
</g>
<!-- Node5 -->
<g id="Node000005" class="node">
<title>Node5</title>
<g id="a_Node000005"><a xlink:title=" ">
<polygon fill="#e0e0e0" stroke="#999999" points="526.5,-19 482.5,-19 482.5,0 526.5,0 526.5,-19"/>
<text text-anchor="middle" x="504.5" y="-7" font-family="Helvetica,sans-Serif" font-size="10.00">string</text>
</a>
</g>
</g>
<!-- Node2&#45;&gt;Node5 -->
<g id="edge4_Node000002_Node000005" class="edge">
<title>Node2&#45;&gt;Node5</title>
<g id="a_edge4_Node000002_Node000005"><a xlink:title=" ">
<path fill="none" stroke="#63b8ff" d="M153.23,-56.42C156.36,-55.93 159.48,-55.45 162.5,-55 276.2,-38.13 411.7,-21.54 472.36,-14.29"/>
<polygon fill="#63b8ff" stroke="#63b8ff" points="472.94,-17.75 482.46,-13.09 472.11,-10.8 472.94,-17.75"/>
</a>
</g>
</g>
<!-- Node6 -->
<g id="Node000006" class="node">
<title>Node6</title>
<g id="a_Node000006"><a xlink:title=" ">
<polygon fill="#e0e0e0" stroke="#999999" points="47,-19 0,-19 0,0 47,0 47,-19"/>
<text text-anchor="middle" x="23.5" y="-7" font-family="Helvetica,sans-Serif" font-size="10.00">vector</text>
</a>
</g>
</g>
<!-- Node2&#45;&gt;Node6 -->
<g id="edge5_Node000002_Node000006" class="edge">
<title>Node2&#45;&gt;Node6</title>
<g id="a_edge5_Node000002_Node000006"><a xlink:title=" ">
<path fill="none" stroke="#63b8ff" d="M97.36,-54.98C83.71,-46.77 62.81,-34.18 46.72,-24.49"/>
<polygon fill="#63b8ff" stroke="#63b8ff" points="48.27,-21.33 37.9,-19.17 44.66,-27.33 48.27,-21.33"/>
</a>
</g>
</g>
<!-- Node7&#45;&gt;Node2 -->
<g id="edge7_Node000007_Node000002" class="edge">
<title>Node7&#45;&gt;Node2</title>
<g id="a_edge7_Node000007_Node000002"><a xlink:title=" ">
<path fill="none" stroke="#63b8ff" d="M394.4,-111.98C343.25,-103.65 251.8,-88.73 163.2,-74.11"/>
<polygon fill="#63b8ff" stroke="#63b8ff" points="163.68,-70.64 153.25,-72.47 162.54,-77.55 163.68,-70.64"/>
</a>
</g>
</g>
<!-- Node7&#45;&gt;Node3 -->
<g id="edge14_Node000007_Node000003" class="edge">
<title>Node7&#45;&gt;Node3</title>
<g id="a_edge14_Node000007_Node000003"><a xlink:title=" ">
<path fill="none" stroke="#63b8ff" d="M474.66,-117.63C540.08,-115.27 665.12,-106.5 692.5,-74 705.05,-59.1 689.46,-39.38 674.84,-25.89"/>
<polygon fill="#63b8ff" stroke="#63b8ff" points="676.85,-23 667,-19.11 672.27,-28.3 676.85,-23"/>
</a>
</g>
</g>
<!-- Node7&#45;&gt;Node5 -->
<g id="edge16_Node000007_Node000005" class="edge">
<title>Node7&#45;&gt;Node5</title>
<g id="a_edge16_Node000007_Node000005"><a xlink:title=" ">
<path fill="none" stroke="#63b8ff" d="M466.71,-109.92C484.75,-103.29 505.73,-92.09 516.5,-74 524.73,-60.17 519.97,-41.9 514.19,-28.51"/>
<polygon fill="#63b8ff" stroke="#63b8ff" points="517.28,-26.86 509.78,-19.38 510.98,-29.9 517.28,-26.86"/>
</a>
</g>
</g>
<!-- Node7&#45;&gt;Node6 -->
<g id="edge18_Node000007_Node000006" class="edge">
<title>Node7&#45;&gt;Node6</title>
<g id="a_edge18_Node000007_Node000006"><a xlink:title=" ">
<path fill="none" stroke="#63b8ff" d="M394.4,-118.1C309.67,-116.55 115.75,-109.16 61.5,-74 45.36,-63.54 35.11,-43.61 29.37,-28.85"/>
<polygon fill="#63b8ff" stroke="#63b8ff" points="32.6,-27.49 25.97,-19.23 26,-29.83 32.6,-27.49"/>
</a>
</g>
</g>
<!-- Node8 -->
<g id="Node000008" class="node">
<title>Node8</title>
<g id="a_Node000008"><a xlink:href="params_8hpp.html" target="_top" xlink:title=" ">
<polygon fill="white" stroke="#666666" points="683.5,-74 563.5,-74 563.5,-55 683.5,-55 683.5,-74"/>
<text text-anchor="middle" x="623.5" y="-62" font-family="Helvetica,sans-Serif" font-size="10.00">compiler/params.hpp</text>
</a>
</g>
</g>
<!-- Node7&#45;&gt;Node8 -->
<g id="edge8_Node000007_Node000008" class="edge">
<title>Node7&#45;&gt;Node8</title>
<g id="a_edge8_Node000007_Node000008"><a xlink:title=" ">
<path fill="none" stroke="#63b8ff" d="M464.87,-109.98C496.87,-101.01 547.46,-86.82 582.88,-76.89"/>
<polygon fill="#63b8ff" stroke="#63b8ff" points="584.21,-80.15 592.9,-74.08 582.32,-73.41 584.21,-80.15"/>
</a>
</g>
</g>
<!-- Node9 -->
<g id="Node000009" class="node">
<title>Node9</title>
<g id="a_Node000009"><a xlink:href="types_8hpp.html" target="_top" xlink:title=" ">
<polygon fill="white" stroke="#666666" points="507,-74 442,-74 442,-55 507,-55 507,-74"/>
<text text-anchor="middle" x="474.5" y="-62" font-family="Helvetica,sans-Serif" font-size="10.00">types.hpp</text>
</a>
</g>
</g>
<!-- Node7&#45;&gt;Node9 -->
<g id="edge10_Node000007_Node000009" class="edge">
<title>Node7&#45;&gt;Node9</title>
<g id="a_edge10_Node000007_Node000009"><a xlink:title=" ">
<path fill="none" stroke="#63b8ff" d="M441.11,-109.75C446.76,-102.26 455.04,-91.28 461.95,-82.13"/>
<polygon fill="#63b8ff" stroke="#63b8ff" points="464.79,-84.18 468.02,-74.09 459.2,-79.96 464.79,-84.18"/>
</a>
</g>
</g>
<!-- Node10 -->
<g id="Node000010" class="node">
<title>Node10</title>
<g id="a_Node000010"><a xlink:title=" ">
<polygon fill="#e0e0e0" stroke="#999999" points="236,-74 171,-74 171,-55 236,-55 236,-74"/>
<text text-anchor="middle" x="203.5" y="-62" font-family="Helvetica,sans-Serif" font-size="10.00">exception</text>
</a>
</g>
</g>
<!-- Node7&#45;&gt;Node10 -->
<g id="edge15_Node000007_Node000010" class="edge">
<title>Node7&#45;&gt;Node10</title>
<g id="a_edge15_Node000007_Node000010"><a xlink:title=" ">
<path fill="none" stroke="#63b8ff" d="M397.39,-109.98C356.06,-100.5 289.39,-85.21 246,-75.25"/>
<polygon fill="#63b8ff" stroke="#63b8ff" points="246.57,-71.79 236.04,-72.97 245.01,-78.61 246.57,-71.79"/>
</a>
</g>
</g>
<!-- Node11 -->
<g id="Node000011" class="node">
<title>Node11</title>
<g id="a_Node000011"><a xlink:title=" ">
<polygon fill="#e0e0e0" stroke="#999999" points="347,-74 254,-74 254,-55 347,-55 347,-74"/>
<text text-anchor="middle" x="300.5" y="-62" font-family="Helvetica,sans-Serif" font-size="10.00">unordered_map</text>
</a>
</g>
</g>
<!-- Node7&#45;&gt;Node11 -->
<g id="edge17_Node000007_Node000011" class="edge">
<title>Node7&#45;&gt;Node11</title>
<g id="a_edge17_Node000007_Node000011"><a xlink:title=" ">
<path fill="none" stroke="#63b8ff" d="M412.97,-109.98C391.03,-101.3 356.76,-87.75 331.81,-77.88"/>
<polygon fill="#63b8ff" stroke="#63b8ff" points="333.01,-74.59 322.42,-74.17 330.43,-81.1 333.01,-74.59"/>
</a>
</g>
</g>
<!-- Node12 -->
<g id="Node000012" class="node">
<title>Node12</title>
<g id="a_Node000012"><a xlink:title=" ">
<polygon fill="#e0e0e0" stroke="#999999" points="423.5,-74 365.5,-74 365.5,-55 423.5,-55 423.5,-74"/>
<text text-anchor="middle" x="394.5" y="-62" font-family="Helvetica,sans-Serif" font-size="10.00">memory</text>
</a>
</g>
</g>
<!-- Node7&#45;&gt;Node12 -->
<g id="edge19_Node000007_Node000012" class="edge">
<title>Node7&#45;&gt;Node12</title>
<g id="a_edge19_Node000007_Node000012"><a xlink:title=" ">
<path fill="none" stroke="#63b8ff" d="M427.89,-109.75C422.24,-102.26 413.96,-91.28 407.05,-82.13"/>
<polygon fill="#63b8ff" stroke="#63b8ff" points="409.8,-79.96 400.98,-74.09 404.21,-84.18 409.8,-79.96"/>
</a>
</g>
</g>
<!-- Node8&#45;&gt;Node5 -->
<g id="edge9_Node000008_Node000005" class="edge">
<title>Node8&#45;&gt;Node5</title>
<g id="a_edge9_Node000008_Node000005"><a xlink:title=" ">
<path fill="none" stroke="#63b8ff" d="M604.38,-54.98C585.15,-46.42 555.27,-33.11 533.19,-23.28"/>
<polygon fill="#63b8ff" stroke="#63b8ff" points="534.53,-20.04 523.97,-19.17 531.68,-26.44 534.53,-20.04"/>
</a>
</g>
</g>
<!-- Node9&#45;&gt;Node3 -->
<g id="edge12_Node000009_Node000003" class="edge">
<title>Node9&#45;&gt;Node3</title>
<g id="a_edge12_Node000009_Node000003"><a xlink:title=" ">
<path fill="none" stroke="#63b8ff" d="M503.58,-54.98C535.37,-45.68 586.3,-30.76 620.31,-20.8"/>
<polygon fill="#63b8ff" stroke="#63b8ff" points="621.67,-24.05 630.29,-17.88 619.71,-17.33 621.67,-24.05"/>
</a>
</g>
</g>
<!-- Node9&#45;&gt;Node4 -->
<g id="edge11_Node000009_Node000004" class="edge">
<title>Node9&#45;&gt;Node4</title>
<g id="a_edge11_Node000009_Node000004"><a xlink:title=" ">
<path fill="none" stroke="#63b8ff" d="M441.98,-56.71C438.78,-56.11 435.58,-55.52 432.5,-55 329.95,-37.53 208.08,-22.08 148.3,-14.85"/>
<polygon fill="#63b8ff" stroke="#63b8ff" points="148.57,-11.36 138.22,-13.64 147.73,-18.31 148.57,-11.36"/>
</a>
</g>
</g>
<!-- Node9&#45;&gt;Node5 -->
<g id="edge13_Node000009_Node000005" class="edge">
<title>Node9&#45;&gt;Node5</title>
<g id="a_edge13_Node000009_Node000005"><a xlink:title=" ">
<path fill="none" stroke="#63b8ff" d="M479.45,-54.75C483.56,-47.49 489.53,-36.95 494.6,-27.98"/>
<polygon fill="#63b8ff" stroke="#63b8ff" points="497.76,-29.52 499.64,-19.09 491.67,-26.07 497.76,-29.52"/>
</a>
</g>
</g>
</g>
</svg>
