<?xml version="1.0" encoding="UTF-8" standalone="no"?>
<!DOCTYPE svg PUBLIC "-//W3C//DTD SVG 1.1//EN"
 "http://www.w3.org/Graphics/SVG/1.1/DTD/svg11.dtd">
<!-- Generated by graphviz version 2.43.0 (0)
 -->
<!-- Title: src/compiler/compile.cpp Pages: 1 -->
<svg width="889pt" height="192pt"
 viewBox="0.00 0.00 889.00 192.00" xmlns="http://www.w3.org/2000/svg" xmlns:xlink="http://www.w3.org/1999/xlink">
<g id="graph0" class="graph" transform="scale(1 1) rotate(0) translate(4 188)">
<title>src/compiler/compile.cpp</title>
<!-- Node1 -->
<g id="Node000001" class="node">
<title>Node1</title>
<g id="a_Node000001"><a xlink:title=" ">
<polygon fill="#999999" stroke="#666666" points="663,-184 524,-184 524,-165 663,-165 663,-184"/>
<text text-anchor="middle" x="593.5" y="-172" font-family="Helvetica,sans-Serif" font-size="10.00">src/compiler/compile.cpp</text>
</a>
</g>
</g>
<!-- Node2 -->
<g id="Node000002" class="node">
<title>Node2</title>
<g id="a_Node000002"><a xlink:href="bytecode_8hpp.html" target="_top" xlink:title=" ">
<polygon fill="white" stroke="#666666" points="134,-74 51,-74 51,-55 134,-55 134,-74"/>
<text text-anchor="middle" x="92.5" y="-62" font-family="Helvetica,sans-Serif" font-size="10.00">bytecode.hpp</text>
</a>
</g>
</g>
<!-- Node1&#45;&gt;Node2 -->
<g id="edge1_Node000001_Node000002" class="edge">
<title>Node1&#45;&gt;Node2</title>
<g id="a_edge1_Node000001_Node000002"><a xlink:title=" ">
<path fill="none" stroke="#63b8ff" d="M530.13,-164.97C475.19,-157.13 393.69,-144.39 323.5,-129 254.38,-113.85 175.11,-90.79 129.7,-77.03"/>
<polygon fill="#63b8ff" stroke="#63b8ff" points="130.59,-73.64 120,-74.07 128.55,-80.33 130.59,-73.64"/>
</a>
</g>
</g>
<!-- Node3 -->
<g id="Node000003" class="node">
<title>Node3</title>
<g id="a_Node000003"><a xlink:title=" ">
<polygon fill="#e0e0e0" stroke="#999999" points="479.5,-19 429.5,-19 429.5,0 479.5,0 479.5,-19"/>
<text text-anchor="middle" x="454.5" y="-7" font-family="Helvetica,sans-Serif" font-size="10.00">cstdint</text>
</a>
</g>
</g>
<!-- Node1&#45;&gt;Node3 -->
<g id="edge20_Node000001_Node000003" class="edge">
<title>Node1&#45;&gt;Node3</title>
<g id="a_edge20_Node000001_Node000003"><a xlink:title=" ">
<path fill="none" stroke="#63b8ff" d="M594.8,-164.89C597.52,-143.6 601.47,-87.85 574.5,-55 553.75,-29.72 517.19,-18.8 489.86,-14.08"/>
<polygon fill="#63b8ff" stroke="#63b8ff" points="490.3,-10.61 479.89,-12.56 489.25,-17.53 490.3,-10.61"/>
</a>
</g>
</g>
<!-- Node4 -->
<g id="Node000004" class="node">
<title>Node4</title>
<g id="a_Node000004"><a xlink:title=" ">
<polygon fill="#e0e0e0" stroke="#999999" points="119,-19 66,-19 66,0 119,0 119,-19"/>
<text text-anchor="middle" x="92.5" y="-7" font-family="Helvetica,sans-Serif" font-size="10.00">cstddef</text>
</a>
</g>
</g>
<!-- Node1&#45;&gt;Node4 -->
<g id="edge19_Node000001_Node000004" class="edge">
<title>Node1&#45;&gt;Node4</title>
<g id="a_edge19_Node000001_Node000004"><a xlink:title=" ">
<path fill="none" stroke="#63b8ff" d="M523.96,-172.09C388.86,-167.68 99.06,-149.43 41.5,-74 28.32,-56.73 49.34,-37.31 68.25,-24.55"/>
<polygon fill="#63b8ff" stroke="#63b8ff" points="70.37,-27.34 76.93,-19.02 66.61,-21.44 70.37,-27.34"/>
</a>
</g>
</g>
<!-- Node7 -->
<g id="Node000007" class="node">
<title>Node7</title>
<g id="a_Node000007"><a xlink:href="compiler_8hpp.html" target="_top" xlink:title=" ">
<polygon fill="white" stroke="#666666" points="412.5,-129 332.5,-129 332.5,-110 412.5,-110 412.5,-129"/>
<text text-anchor="middle" x="372.5" y="-117" font-family="Helvetica,sans-Serif" font-size="10.00">compiler.hpp</text>
</a>
</g>
</g>
<!-- Node1&#45;&gt;Node7 -->
<g id="edge6_Node000001_Node000007" class="edge">
<title>Node1&#45;&gt;Node7</title>
<g id="a_edge6_Node000001_Node000007"><a xlink:title=" ">
<path fill="none" stroke="#63b8ff" d="M557.99,-164.98C520.01,-155.87 459.63,-141.4 418.14,-131.45"/>
<polygon fill="#63b8ff" stroke="#63b8ff" points="418.83,-128.01 408.29,-129.08 417.19,-134.82 418.83,-128.01"/>
</a>
</g>
</g>
<!-- Node12 -->
<g id="Node000012" class="node">
<title>Node12</title>
<g id="a_Node000012"><a xlink:title=" ">
<polygon fill="#e0e0e0" stroke="#999999" points="719,-129 622,-129 622,-110 719,-110 719,-129"/>
<text text-anchor="middle" x="670.5" y="-117" font-family="Helvetica,sans-Serif" font-size="10.00">compiler/errno.h</text>
</a>
</g>
</g>
<!-- Node1&#45;&gt;Node12 -->
<g id="edge18_Node000001_Node000012" class="edge">
<title>Node1&#45;&gt;Node12</title>
<g id="a_edge18_Node000001_Node000012"><a xlink:title=" ">
<path fill="none" stroke="#63b8ff" d="M605.87,-164.98C617.59,-156.92 635.42,-144.65 649.39,-135.03"/>
<polygon fill="#63b8ff" stroke="#63b8ff" points="651.65,-137.72 657.9,-129.17 647.68,-131.96 651.65,-137.72"/>
</a>
</g>
</g>
<!-- Node13 -->
<g id="Node000013" class="node">
<title>Node13</title>
<g id="a_Node000013"><a xlink:title=" ">
<polygon fill="#e0e0e0" stroke="#999999" points="797.5,-129 737.5,-129 737.5,-110 797.5,-110 797.5,-129"/>
<text text-anchor="middle" x="767.5" y="-117" font-family="Helvetica,sans-Serif" font-size="10.00">iostream</text>
</a>
</g>
</g>
<!-- Node1&#45;&gt;Node13 -->
<g id="edge21_Node000001_Node000013" class="edge">
<title>Node1&#45;&gt;Node13</title>
<g id="a_edge21_Node000001_Node000013"><a xlink:title=" ">
<path fill="none" stroke="#63b8ff" d="M621.46,-164.98C650.8,-156.05 697.1,-141.94 729.69,-132.02"/>
<polygon fill="#63b8ff" stroke="#63b8ff" points="730.78,-135.34 739.32,-129.08 728.74,-128.65 730.78,-135.34"/>
</a>
</g>
</g>
<!-- Node14 -->
<g id="Node000014" class="node">
<title>Node14</title>
<g id="a_Node000014"><a xlink:title=" ">
<polygon fill="#e0e0e0" stroke="#999999" points="881,-129 816,-129 816,-110 881,-110 881,-129"/>
<text text-anchor="middle" x="848.5" y="-117" font-family="Helvetica,sans-Serif" font-size="10.00">stdexcept</text>
</a>
</g>
</g>
<!-- Node1&#45;&gt;Node14 -->
<g id="edge22_Node000001_Node000014" class="edge">
<title>Node1&#45;&gt;Node14</title>
<g id="a_edge22_Node000001_Node000014"><a xlink:title=" ">
<path fill="none" stroke="#63b8ff" d="M634.47,-164.98C681.43,-155.23 758.03,-139.3 805.73,-129.39"/>
<polygon fill="#63b8ff" stroke="#63b8ff" points="806.66,-132.77 815.74,-127.31 805.24,-125.92 806.66,-132.77"/>
</a>
</g>
</g>
<!-- Node2&#45;&gt;Node3 -->
<g id="edge2_Node000002_Node000003" class="edge">
<title>Node2&#45;&gt;Node3</title>
<g id="a_edge2_Node000002_Node000003"><a xlink:title=" ">
<path fill="none" stroke="#63b8ff" d="M134.23,-56.45C137.37,-55.95 140.48,-55.46 143.5,-55 258.82,-37.41 288.18,-36.59 403.5,-19 408.64,-18.22 414.06,-17.35 419.37,-16.48"/>
<polygon fill="#63b8ff" stroke="#63b8ff" points="420.07,-19.92 429.36,-14.83 418.92,-13.01 420.07,-19.92"/>
</a>
</g>
</g>
<!-- Node2&#45;&gt;Node4 -->
<g id="edge3_Node000002_Node000004" class="edge">
<title>Node2&#45;&gt;Node4</title>
<g id="a_edge3_Node000002_Node000004"><a xlink:title=" ">
<path fill="none" stroke="#63b8ff" d="M92.5,-54.75C92.5,-47.8 92.5,-37.85 92.5,-29.13"/>
<polygon fill="#63b8ff" stroke="#63b8ff" points="96,-29.09 92.5,-19.09 89,-29.09 96,-29.09"/>
</a>
</g>
</g>
<!-- Node5 -->
<g id="Node000005" class="node">
<title>Node5</title>
<g id="a_Node000005"><a xlink:title=" ">
<polygon fill="#e0e0e0" stroke="#999999" points="394.5,-19 350.5,-19 350.5,0 394.5,0 394.5,-19"/>
<text text-anchor="middle" x="372.5" y="-7" font-family="Helvetica,sans-Serif" font-size="10.00">string</text>
</a>
</g>
</g>
<!-- Node2&#45;&gt;Node5 -->
<g id="edge4_Node000002_Node000005" class="edge">
<title>Node2&#45;&gt;Node5</title>
<g id="a_edge4_Node000002_Node000005"><a xlink:title=" ">
<path fill="none" stroke="#63b8ff" d="M134.12,-55.62C190.3,-44.99 289.21,-26.26 340.16,-16.62"/>
<polygon fill="#63b8ff" stroke="#63b8ff" points="341.1,-20.01 350.27,-14.71 339.79,-13.13 341.1,-20.01"/>
</a>
</g>
</g>
<!-- Node6 -->
<g id="Node000006" class="node">
<title>Node6</title>
<g id="a_Node000006"><a xlink:title=" ">
<polygon fill="#e0e0e0" stroke="#999999" points="47,-19 0,-19 0,0 47,0 47,-19"/>
<text text-anchor="middle" x="23.5" y="-7" font-family="Helvetica,sans-Serif" font-size="10.00">vector</text>
</a>
</g>
</g>
<!-- Node2&#45;&gt;Node6 -->
<g id="edge5_Node000002_Node000006" class="edge">
<title>Node2&#45;&gt;Node6</title>
<g id="a_edge5_Node000002_Node000006"><a xlink:title=" ">
<path fill="none" stroke="#63b8ff" d="M81.41,-54.98C71.01,-47 55.24,-34.88 42.78,-25.31"/>
<polygon fill="#63b8ff" stroke="#63b8ff" points="44.85,-22.49 34.79,-19.17 40.59,-28.04 44.85,-22.49"/>
</a>
</g>
</g>
<!-- Node7&#45;&gt;Node2 -->
<g id="edge7_Node000007_Node000002" class="edge">
<title>Node7&#45;&gt;Node2</title>
<g id="a_edge7_Node000007_Node000002"><a xlink:title=" ">
<path fill="none" stroke="#63b8ff" d="M332.38,-110.91C282.95,-101.55 198.84,-85.63 144.49,-75.34"/>
<polygon fill="#63b8ff" stroke="#63b8ff" points="144.85,-71.85 134.37,-73.43 143.55,-78.72 144.85,-71.85"/>
</a>
</g>
</g>
<!-- Node7&#45;&gt;Node3 -->
<g id="edge12_Node000007_Node000003" class="edge">
<title>Node7&#45;&gt;Node3</title>
<g id="a_edge12_Node000007_Node000003"><a xlink:title=" ">
<path fill="none" stroke="#63b8ff" d="M387.11,-109.91C399.55,-101.95 417.17,-89.09 428.5,-74 438.67,-60.45 445.56,-42.37 449.68,-28.96"/>
<polygon fill="#63b8ff" stroke="#63b8ff" points="453.14,-29.58 452.5,-19 446.41,-27.67 453.14,-29.58"/>
</a>
</g>
</g>
<!-- Node7&#45;&gt;Node5 -->
<g id="edge14_Node000007_Node000005" class="edge">
<title>Node7&#45;&gt;Node5</title>
<g id="a_edge14_Node000007_Node000005"><a xlink:title=" ">
<path fill="none" stroke="#63b8ff" d="M384.71,-109.86C394.85,-101.88 408.54,-89.01 414.5,-74 421.64,-56.03 406.91,-37.86 392.96,-25.59"/>
<polygon fill="#63b8ff" stroke="#63b8ff" points="394.98,-22.71 385.02,-19.09 390.54,-28.13 394.98,-22.71"/>
</a>
</g>
</g>
<!-- Node7&#45;&gt;Node6 -->
<g id="edge16_Node000007_Node000006" class="edge">
<title>Node7&#45;&gt;Node6</title>
<g id="a_edge16_Node000007_Node000006"><a xlink:title=" ">
<path fill="none" stroke="#63b8ff" d="M332.35,-118.43C253.91,-117.46 84.22,-111.03 41.5,-74 28.79,-62.99 24.74,-43.73 23.59,-29.3"/>
<polygon fill="#63b8ff" stroke="#63b8ff" points="27.08,-28.87 23.19,-19.02 20.08,-29.15 27.08,-28.87"/>
</a>
</g>
</g>
<!-- Node8 -->
<g id="Node000008" class="node">
<title>Node8</title>
<g id="a_Node000008"><a xlink:href="types_8hpp.html" target="_top" xlink:title=" ">
<polygon fill="white" stroke="#666666" points="405,-74 340,-74 340,-55 405,-55 405,-74"/>
<text text-anchor="middle" x="372.5" y="-62" font-family="Helvetica,sans-Serif" font-size="10.00">types.hpp</text>
</a>
</g>
</g>
<!-- Node7&#45;&gt;Node8 -->
<g id="edge8_Node000007_Node000008" class="edge">
<title>Node7&#45;&gt;Node8</title>
<g id="a_edge8_Node000007_Node000008"><a xlink:title=" ">
<path fill="none" stroke="#63b8ff" d="M372.5,-109.75C372.5,-102.8 372.5,-92.85 372.5,-84.13"/>
<polygon fill="#63b8ff" stroke="#63b8ff" points="376,-84.09 372.5,-74.09 369,-84.09 376,-84.09"/>
</a>
</g>
</g>
<!-- Node9 -->
<g id="Node000009" class="node">
<title>Node9</title>
<g id="a_Node000009"><a xlink:title=" ">
<polygon fill="#e0e0e0" stroke="#999999" points="565,-74 500,-74 500,-55 565,-55 565,-74"/>
<text text-anchor="middle" x="532.5" y="-62" font-family="Helvetica,sans-Serif" font-size="10.00">exception</text>
</a>
</g>
</g>
<!-- Node7&#45;&gt;Node9 -->
<g id="edge13_Node000007_Node000009" class="edge">
<title>Node7&#45;&gt;Node9</title>
<g id="a_edge13_Node000007_Node000009"><a xlink:title=" ">
<path fill="none" stroke="#63b8ff" d="M398.21,-109.98C424.95,-101.13 467.03,-87.19 496.95,-77.28"/>
<polygon fill="#63b8ff" stroke="#63b8ff" points="498.2,-80.55 506.59,-74.08 496,-73.9 498.2,-80.55"/>
</a>
</g>
</g>
<!-- Node10 -->
<g id="Node000010" class="node">
<title>Node10</title>
<g id="a_Node000010"><a xlink:title=" ">
<polygon fill="#e0e0e0" stroke="#999999" points="245,-74 152,-74 152,-55 245,-55 245,-74"/>
<text text-anchor="middle" x="198.5" y="-62" font-family="Helvetica,sans-Serif" font-size="10.00">unordered_map</text>
</a>
</g>
</g>
<!-- Node7&#45;&gt;Node10 -->
<g id="edge15_Node000007_Node000010" class="edge">
<title>Node7&#45;&gt;Node10</title>
<g id="a_edge15_Node000007_Node000010"><a xlink:title=" ">
<path fill="none" stroke="#63b8ff" d="M344.54,-109.98C315.2,-101.05 268.9,-86.94 236.31,-77.02"/>
<polygon fill="#63b8ff" stroke="#63b8ff" points="237.26,-73.65 226.68,-74.08 235.22,-80.34 237.26,-73.65"/>
</a>
</g>
</g>
<!-- Node11 -->
<g id="Node000011" class="node">
<title>Node11</title>
<g id="a_Node000011"><a xlink:title=" ">
<polygon fill="#e0e0e0" stroke="#999999" points="321.5,-74 263.5,-74 263.5,-55 321.5,-55 321.5,-74"/>
<text text-anchor="middle" x="292.5" y="-62" font-family="Helvetica,sans-Serif" font-size="10.00">memory</text>
</a>
</g>
</g>
<!-- Node7&#45;&gt;Node11 -->
<g id="edge17_Node000007_Node000011" class="edge">
<title>Node7&#45;&gt;Node11</title>
<g id="a_edge17_Node000007_Node000011"><a xlink:title=" ">
<path fill="none" stroke="#63b8ff" d="M359.65,-109.98C347.36,-101.84 328.59,-89.41 314.02,-79.76"/>
<polygon fill="#63b8ff" stroke="#63b8ff" points="315.86,-76.78 305.59,-74.17 311.99,-82.61 315.86,-76.78"/>
</a>
</g>
</g>
<!-- Node8&#45;&gt;Node3 -->
<g id="edge10_Node000008_Node000003" class="edge">
<title>Node8&#45;&gt;Node3</title>
<g id="a_edge10_Node000008_Node000003"><a xlink:title=" ">
<path fill="none" stroke="#63b8ff" d="M385.67,-54.98C398.27,-46.84 417.5,-34.41 432.44,-24.76"/>
<polygon fill="#63b8ff" stroke="#63b8ff" points="434.59,-27.54 441.09,-19.17 430.79,-21.66 434.59,-27.54"/>
</a>
</g>
</g>
<!-- Node8&#45;&gt;Node4 -->
<g id="edge9_Node000008_Node000004" class="edge">
<title>Node8&#45;&gt;Node4</title>
<g id="a_edge9_Node000008_Node000004"><a xlink:title=" ">
<path fill="none" stroke="#63b8ff" d="M339.95,-56.86C336.76,-56.23 333.57,-55.6 330.5,-55 259.34,-41.15 176.05,-25.76 129.26,-17.2"/>
<polygon fill="#63b8ff" stroke="#63b8ff" points="129.76,-13.73 119.29,-15.38 128.5,-20.62 129.76,-13.73"/>
</a>
</g>
</g>
<!-- Node8&#45;&gt;Node5 -->
<g id="edge11_Node000008_Node000005" class="edge">
<title>Node8&#45;&gt;Node5</title>
<g id="a_edge11_Node000008_Node000005"><a xlink:title=" ">
<path fill="none" stroke="#63b8ff" d="M372.5,-54.75C372.5,-47.8 372.5,-37.85 372.5,-29.13"/>
<polygon fill="#63b8ff" stroke="#63b8ff" points="376,-29.09 372.5,-19.09 369,-29.09 376,-29.09"/>
</a>
</g>
</g>
</g>
</svg>
