<?xml version="1.0" encoding="UTF-8" standalone="no"?>
<!DOCTYPE svg PUBLIC "-//W3C//DTD SVG 1.1//EN"
 "http://www.w3.org/Graphics/SVG/1.1/DTD/svg11.dtd">
<!-- Generated by graphviz version 2.43.0 (0)
 -->
<!-- Title: src/compiler/compiler.hpp Pages: 1 -->
<svg width="1686pt" height="93pt"
 viewBox="0.00 0.00 1686.00 93.00" xmlns="http://www.w3.org/2000/svg" xmlns:xlink="http://www.w3.org/1999/xlink">
<g id="graph0" class="graph" transform="scale(1 1) rotate(0) translate(4 89)">
<title>src/compiler/compiler.hpp</title>
<!-- Node1 -->
<g id="Node000001" class="node">
<title>Node1</title>
<g id="a_Node000001"><a xlink:title=" ">
<polygon fill="#999999" stroke="#666666" points="933.5,-85 790.5,-85 790.5,-66 933.5,-66 933.5,-85"/>
<text text-anchor="middle" x="862" y="-73" font-family="Helvetica,sans-Serif" font-size="10.00">src/compiler/compiler.hpp</text>
</a>
</g>
</g>
<!-- Node2 -->
<g id="Node000002" class="node">
<title>Node2</title>
<g id="a_Node000002"><a xlink:href="CompilerSyntaxException_8cpp.html" target="_top" xlink:title=" ">
<polygon fill="white" stroke="#666666" points="158,-30 0,-30 0,0 158,0 158,-30"/>
<text text-anchor="start" x="8" y="-18" font-family="Helvetica,sans-Serif" font-size="10.00">src/compiler/CompilerSyntax</text>
<text text-anchor="middle" x="79" y="-7" font-family="Helvetica,sans-Serif" font-size="10.00">Exception.cpp</text>
</a>
</g>
</g>
<!-- Node1&#45;&gt;Node2 -->
<g id="edge1_Node000001_Node000002" class="edge">
<title>Node1&#45;&gt;Node2</title>
<g id="a_edge1_Node000001_Node000002"><a xlink:title=" ">
<path fill="none" stroke="#63b8ff" d="M780.12,-71.8C649.79,-66.94 387.27,-54.82 166,-30 163.42,-29.71 160.79,-29.4 158.14,-29.06"/>
<polygon fill="#63b8ff" stroke="#63b8ff" points="780.29,-75.31 790.41,-72.18 780.55,-68.32 780.29,-75.31"/>
</a>
</g>
</g>
<!-- Node3 -->
<g id="Node000003" class="node">
<title>Node3</title>
<g id="a_Node000003"><a xlink:href="ast_8cpp.html" target="_top" xlink:title=" ">
<polygon fill="white" stroke="#666666" points="290.5,-24.5 175.5,-24.5 175.5,-5.5 290.5,-5.5 290.5,-24.5"/>
<text text-anchor="middle" x="233" y="-12.5" font-family="Helvetica,sans-Serif" font-size="10.00">src/compiler/ast.cpp</text>
</a>
</g>
</g>
<!-- Node1&#45;&gt;Node3 -->
<g id="edge2_Node000001_Node000003" class="edge">
<title>Node1&#45;&gt;Node3</title>
<g id="a_edge2_Node000001_Node000003"><a xlink:title=" ">
<path fill="none" stroke="#63b8ff" d="M780.1,-71.37C670.19,-66.41 469.08,-54.65 299,-30 289.26,-28.59 278.81,-26.6 269.16,-24.56"/>
<polygon fill="#63b8ff" stroke="#63b8ff" points="779.98,-74.87 790.12,-71.82 780.29,-67.88 779.98,-74.87"/>
</a>
</g>
</g>
<!-- Node4 -->
<g id="Node000004" class="node">
<title>Node4</title>
<g id="a_Node000004"><a xlink:href="compiler_2bytecode_8cpp.html" target="_top" xlink:title=" ">
<polygon fill="white" stroke="#666666" points="453.5,-24.5 308.5,-24.5 308.5,-5.5 453.5,-5.5 453.5,-24.5"/>
<text text-anchor="middle" x="381" y="-12.5" font-family="Helvetica,sans-Serif" font-size="10.00">src/compiler/bytecode.cpp</text>
</a>
</g>
</g>
<!-- Node1&#45;&gt;Node4 -->
<g id="edge3_Node000001_Node000004" class="edge">
<title>Node1&#45;&gt;Node4</title>
<g id="a_edge3_Node000001_Node000004"><a xlink:title=" ">
<path fill="none" stroke="#63b8ff" d="M780.17,-66.86C699.2,-58.95 571.8,-45.58 462,-30 450.84,-28.42 438.85,-26.48 427.61,-24.55"/>
<polygon fill="#63b8ff" stroke="#63b8ff" points="780.01,-70.36 790.3,-67.84 780.69,-63.39 780.01,-70.36"/>
</a>
</g>
</g>
<!-- Node5 -->
<g id="Node000005" class="node">
<title>Node5</title>
<g id="a_Node000005"><a xlink:href="compile_8cpp.html" target="_top" xlink:title=" ">
<polygon fill="white" stroke="#666666" points="610.5,-24.5 471.5,-24.5 471.5,-5.5 610.5,-5.5 610.5,-24.5"/>
<text text-anchor="middle" x="541" y="-12.5" font-family="Helvetica,sans-Serif" font-size="10.00">src/compiler/compile.cpp</text>
</a>
</g>
</g>
<!-- Node1&#45;&gt;Node5 -->
<g id="edge4_Node000001_Node000005" class="edge">
<title>Node1&#45;&gt;Node5</title>
<g id="a_edge4_Node000001_Node000005"><a xlink:title=" ">
<path fill="none" stroke="#63b8ff" d="M805.33,-64.17C743.43,-52.89 645.41,-35.03 587.73,-24.52"/>
<polygon fill="#63b8ff" stroke="#63b8ff" points="804.86,-67.64 815.32,-65.99 806.11,-60.76 804.86,-67.64"/>
</a>
</g>
</g>
<!-- Node6 -->
<g id="Node000006" class="node">
<title>Node6</title>
<g id="a_Node000006"><a xlink:href="compiler_8cpp.html" target="_top" xlink:title=" ">
<polygon fill="white" stroke="#666666" points="771,-24.5 629,-24.5 629,-5.5 771,-5.5 771,-24.5"/>
<text text-anchor="middle" x="700" y="-12.5" font-family="Helvetica,sans-Serif" font-size="10.00">src/compiler/compiler.cpp</text>
</a>
</g>
</g>
<!-- Node1&#45;&gt;Node6 -->
<g id="edge5_Node000001_Node000006" class="edge">
<title>Node1&#45;&gt;Node6</title>
<g id="a_edge5_Node000001_Node000006"><a xlink:title=" ">
<path fill="none" stroke="#63b8ff" d="M828.84,-62.52C797.51,-51.21 751.31,-34.53 723.58,-24.52"/>
<polygon fill="#63b8ff" stroke="#63b8ff" points="827.85,-65.89 838.44,-65.99 830.23,-59.31 827.85,-65.89"/>
</a>
</g>
</g>
<!-- Node7 -->
<g id="Node000007" class="node">
<title>Node7</title>
<g id="a_Node000007"><a xlink:href="functions_8cpp.html" target="_top" xlink:title=" ">
<polygon fill="white" stroke="#666666" points="934.5,-24.5 789.5,-24.5 789.5,-5.5 934.5,-5.5 934.5,-24.5"/>
<text text-anchor="middle" x="862" y="-12.5" font-family="Helvetica,sans-Serif" font-size="10.00">src/compiler/functions.cpp</text>
</a>
</g>
</g>
<!-- Node1&#45;&gt;Node7 -->
<g id="edge6_Node000001_Node000007" class="edge">
<title>Node1&#45;&gt;Node7</title>
<g id="a_edge6_Node000001_Node000007"><a xlink:title=" ">
<path fill="none" stroke="#63b8ff" d="M862,-55.66C862,-45.24 862,-32.8 862,-24.67"/>
<polygon fill="#63b8ff" stroke="#63b8ff" points="858.5,-55.87 862,-65.87 865.5,-55.87 858.5,-55.87"/>
</a>
</g>
</g>
<!-- Node8 -->
<g id="Node000008" class="node">
<title>Node8</title>
<g id="a_Node000008"><a xlink:href="instruction_8cpp.html" target="_top" xlink:title=" ">
<polygon fill="white" stroke="#666666" points="1105,-24.5 953,-24.5 953,-5.5 1105,-5.5 1105,-24.5"/>
<text text-anchor="middle" x="1029" y="-12.5" font-family="Helvetica,sans-Serif" font-size="10.00">src/compiler/instruction.cpp</text>
</a>
</g>
</g>
<!-- Node1&#45;&gt;Node8 -->
<g id="edge7_Node000001_Node000008" class="edge">
<title>Node1&#45;&gt;Node8</title>
<g id="a_edge7_Node000001_Node000008"><a xlink:title=" ">
<path fill="none" stroke="#63b8ff" d="M895.77,-62.67C928.06,-51.36 975.98,-34.57 1004.69,-24.52"/>
<polygon fill="#63b8ff" stroke="#63b8ff" points="894.56,-59.38 886.28,-65.99 896.88,-65.99 894.56,-59.38"/>
</a>
</g>
</g>
<!-- Node9 -->
<g id="Node000009" class="node">
<title>Node9</title>
<g id="a_Node000009"><a xlink:href="lexer_8cpp.html" target="_top" xlink:title=" ">
<polygon fill="white" stroke="#666666" points="1246.5,-24.5 1123.5,-24.5 1123.5,-5.5 1246.5,-5.5 1246.5,-24.5"/>
<text text-anchor="middle" x="1185" y="-12.5" font-family="Helvetica,sans-Serif" font-size="10.00">src/compiler/lexer.cpp</text>
</a>
</g>
</g>
<!-- Node1&#45;&gt;Node9 -->
<g id="edge8_Node000001_Node000009" class="edge">
<title>Node1&#45;&gt;Node9</title>
<g id="a_edge8_Node000001_Node000009"><a xlink:title=" ">
<path fill="none" stroke="#63b8ff" d="M922.14,-64.23C973.24,-55.41 1048.49,-42.24 1114,-30 1123.26,-28.27 1133.19,-26.35 1142.6,-24.5"/>
<polygon fill="#63b8ff" stroke="#63b8ff" points="921.52,-60.78 912.26,-65.93 922.71,-67.68 921.52,-60.78"/>
</a>
</g>
</g>
<!-- Node10 -->
<g id="Node000010" class="node">
<title>Node10</title>
<g id="a_Node000010"><a xlink:href="compiler_2main_8cpp.html" target="_top" xlink:title=" ">
<polygon fill="white" stroke="#666666" points="1389.5,-24.5 1264.5,-24.5 1264.5,-5.5 1389.5,-5.5 1389.5,-24.5"/>
<text text-anchor="middle" x="1327" y="-12.5" font-family="Helvetica,sans-Serif" font-size="10.00">src/compiler/main.cpp</text>
</a>
</g>
</g>
<!-- Node1&#45;&gt;Node10 -->
<g id="edge9_Node000001_Node000010" class="edge">
<title>Node1&#45;&gt;Node10</title>
<g id="a_edge9_Node000001_Node000010"><a xlink:title=" ">
<path fill="none" stroke="#63b8ff" d="M943.77,-67.24C1023.64,-59.69 1148.52,-46.64 1256,-30 1265.93,-28.46 1276.59,-26.52 1286.55,-24.57"/>
<polygon fill="#63b8ff" stroke="#63b8ff" points="943.4,-63.76 933.77,-68.18 944.06,-70.73 943.4,-63.76"/>
</a>
</g>
</g>
<!-- Node11 -->
<g id="Node000011" class="node">
<title>Node11</title>
<g id="a_Node000011"><a xlink:href="symbol_8cpp.html" target="_top" xlink:title=" ">
<polygon fill="white" stroke="#666666" points="1544,-24.5 1408,-24.5 1408,-5.5 1544,-5.5 1544,-24.5"/>
<text text-anchor="middle" x="1476" y="-12.5" font-family="Helvetica,sans-Serif" font-size="10.00">src/compiler/symbol.cpp</text>
</a>
</g>
</g>
<!-- Node1&#45;&gt;Node11 -->
<g id="edge10_Node000001_Node000011" class="edge">
<title>Node1&#45;&gt;Node11</title>
<g id="a_edge10_Node000001_Node000011"><a xlink:title=" ">
<path fill="none" stroke="#63b8ff" d="M944.16,-70.18C1049.75,-64.06 1238.56,-51.18 1399,-30 1410.18,-28.52 1422.21,-26.53 1433.35,-24.52"/>
<polygon fill="#63b8ff" stroke="#63b8ff" points="943.68,-66.7 933.9,-70.77 944.08,-73.69 943.68,-66.7"/>
</a>
</g>
</g>
<!-- Node12 -->
<g id="Node000012" class="node">
<title>Node12</title>
<g id="a_Node000012"><a xlink:href="symbol__table_8cpp.html" target="_top" xlink:title=" ">
<polygon fill="white" stroke="#666666" points="1678,-30 1562,-30 1562,0 1678,0 1678,-30"/>
<text text-anchor="start" x="1570" y="-18" font-family="Helvetica,sans-Serif" font-size="10.00">src/compiler/symbol</text>
<text text-anchor="middle" x="1620" y="-7" font-family="Helvetica,sans-Serif" font-size="10.00">_table.cpp</text>
</a>
</g>
</g>
<!-- Node1&#45;&gt;Node12 -->
<g id="edge11_Node000001_Node000012" class="edge">
<title>Node1&#45;&gt;Node12</title>
<g id="a_edge11_Node000001_Node000012"><a xlink:title=" ">
<path fill="none" stroke="#63b8ff" d="M943.96,-72.97C1073.73,-69.72 1334.24,-59.75 1553,-30 1555.94,-29.6 1558.95,-29.14 1561.98,-28.65"/>
<polygon fill="#63b8ff" stroke="#63b8ff" points="943.62,-69.48 933.71,-73.22 943.79,-76.48 943.62,-69.48"/>
</a>
</g>
</g>
</g>
</svg>
