<?xml version="1.0" encoding="UTF-8" standalone="no"?>
<!DOCTYPE svg PUBLIC "-//W3C//DTD SVG 1.1//EN"
 "http://www.w3.org/Graphics/SVG/1.1/DTD/svg11.dtd">
<!-- Generated by graphviz version 2.43.0 (0)
 -->
<!-- Title: src/compiler/bytecode.cpp Pages: 1 -->
<svg width="624pt" height="192pt"
 viewBox="0.00 0.00 623.52 192.00" xmlns="http://www.w3.org/2000/svg" xmlns:xlink="http://www.w3.org/1999/xlink">
<g id="graph0" class="graph" transform="scale(1 1) rotate(0) translate(4 188)">
<title>src/compiler/bytecode.cpp</title>
<!-- Node1 -->
<g id="Node000001" class="node">
<title>Node1</title>
<g id="a_Node000001"><a xlink:title=" ">
<polygon fill="#999999" stroke="#666666" points="402.02,-184 257.02,-184 257.02,-165 402.02,-165 402.02,-184"/>
<text text-anchor="middle" x="329.52" y="-172" font-family="Helvetica,sans-Serif" font-size="10.00">src/compiler/bytecode.cpp</text>
</a>
</g>
</g>
<!-- Node2 -->
<g id="Node000002" class="node">
<title>Node2</title>
<g id="a_Node000002"><a xlink:href="bytecode_8hpp.html" target="_top" xlink:title=" ">
<polygon fill="white" stroke="#666666" points="498.02,-74 415.02,-74 415.02,-55 498.02,-55 498.02,-74"/>
<text text-anchor="middle" x="456.52" y="-62" font-family="Helvetica,sans-Serif" font-size="10.00">bytecode.hpp</text>
</a>
</g>
</g>
<!-- Node1&#45;&gt;Node2 -->
<g id="edge1_Node000001_Node000002" class="edge">
<title>Node1&#45;&gt;Node2</title>
<g id="a_edge1_Node000001_Node000002"><a xlink:title=" ">
<path fill="none" stroke="#63b8ff" d="M325.14,-164.75C319.23,-151.56 310.71,-126.37 322.52,-110 332.53,-96.13 371.45,-84.16 404.79,-76.13"/>
<polygon fill="#63b8ff" stroke="#63b8ff" points="405.97,-79.45 414.91,-73.77 404.38,-72.64 405.97,-79.45"/>
</a>
</g>
</g>
<!-- Node3 -->
<g id="Node000003" class="node">
<title>Node3</title>
<g id="a_Node000003"><a xlink:title=" ">
<polygon fill="#e0e0e0" stroke="#999999" points="50.52,-19 0.52,-19 0.52,0 50.52,0 50.52,-19"/>
<text text-anchor="middle" x="25.52" y="-7" font-family="Helvetica,sans-Serif" font-size="10.00">cstdint</text>
</a>
</g>
</g>
<!-- Node1&#45;&gt;Node3 -->
<g id="edge19_Node000001_Node000003" class="edge">
<title>Node1&#45;&gt;Node3</title>
<g id="a_edge19_Node000001_Node000003"><a xlink:title=" ">
<path fill="none" stroke="#63b8ff" d="M274.09,-164.98C189.55,-150.68 34.98,-118.94 4.52,-74 -5.01,-59.94 3.2,-41.22 12,-27.76"/>
<polygon fill="#63b8ff" stroke="#63b8ff" points="15.01,-29.57 17.97,-19.39 9.31,-25.5 15.01,-29.57"/>
</a>
</g>
</g>
<!-- Node7 -->
<g id="Node000007" class="node">
<title>Node7</title>
<g id="a_Node000007"><a xlink:href="compiler_8hpp.html" target="_top" xlink:title=" ">
<polygon fill="white" stroke="#666666" points="275.52,-129 195.52,-129 195.52,-110 275.52,-110 275.52,-129"/>
<text text-anchor="middle" x="235.52" y="-117" font-family="Helvetica,sans-Serif" font-size="10.00">compiler.hpp</text>
</a>
</g>
</g>
<!-- Node1&#45;&gt;Node7 -->
<g id="edge6_Node000001_Node000007" class="edge">
<title>Node1&#45;&gt;Node7</title>
<g id="a_edge6_Node000001_Node000007"><a xlink:title=" ">
<path fill="none" stroke="#63b8ff" d="M314.42,-164.98C299.71,-156.69 277.1,-143.94 259.85,-134.22"/>
<polygon fill="#63b8ff" stroke="#63b8ff" points="261.33,-131.03 250.9,-129.17 257.89,-137.13 261.33,-131.03"/>
</a>
</g>
</g>
<!-- Node8 -->
<g id="Node000008" class="node">
<title>Node8</title>
<g id="a_Node000008"><a xlink:href="types_8hpp.html" target="_top" xlink:title=" ">
<polygon fill="white" stroke="#666666" points="88.02,-74 23.02,-74 23.02,-55 88.02,-55 88.02,-74"/>
<text text-anchor="middle" x="55.52" y="-62" font-family="Helvetica,sans-Serif" font-size="10.00">types.hpp</text>
</a>
</g>
</g>
<!-- Node1&#45;&gt;Node8 -->
<g id="edge18_Node000001_Node000008" class="edge">
<title>Node1&#45;&gt;Node8</title>
<g id="a_edge18_Node000001_Node000008"><a xlink:title=" ">
<path fill="none" stroke="#63b8ff" d="M297.24,-164.95C267.94,-156.84 223.76,-143.72 186.52,-129 148.59,-114 106.42,-92.68 80.43,-78.96"/>
<polygon fill="#63b8ff" stroke="#63b8ff" points="81.78,-75.72 71.31,-74.11 78.49,-81.9 81.78,-75.72"/>
</a>
</g>
</g>
<!-- Node12 -->
<g id="Node000012" class="node">
<title>Node12</title>
<g id="a_Node000012"><a xlink:title=" ">
<polygon fill="#e0e0e0" stroke="#999999" points="381.52,-129 331.52,-129 331.52,-110 381.52,-110 381.52,-129"/>
<text text-anchor="middle" x="356.52" y="-117" font-family="Helvetica,sans-Serif" font-size="10.00">cstring</text>
</a>
</g>
</g>
<!-- Node1&#45;&gt;Node12 -->
<g id="edge20_Node000001_Node000012" class="edge">
<title>Node1&#45;&gt;Node12</title>
<g id="a_edge20_Node000001_Node000012"><a xlink:title=" ">
<path fill="none" stroke="#63b8ff" d="M333.98,-164.75C337.64,-157.57 342.93,-147.18 347.47,-138.27"/>
<polygon fill="#63b8ff" stroke="#63b8ff" points="350.73,-139.59 352.15,-129.09 344.49,-136.41 350.73,-139.59"/>
</a>
</g>
</g>
<!-- Node13 -->
<g id="Node000013" class="node">
<title>Node13</title>
<g id="a_Node000013"><a xlink:title=" ">
<polygon fill="#e0e0e0" stroke="#999999" points="463.52,-129 399.52,-129 399.52,-110 463.52,-110 463.52,-129"/>
<text text-anchor="middle" x="431.52" y="-117" font-family="Helvetica,sans-Serif" font-size="10.00">algorithm</text>
</a>
</g>
</g>
<!-- Node1&#45;&gt;Node13 -->
<g id="edge21_Node000001_Node000013" class="edge">
<title>Node1&#45;&gt;Node13</title>
<g id="a_edge21_Node000001_Node000013"><a xlink:title=" ">
<path fill="none" stroke="#63b8ff" d="M345.91,-164.98C362.1,-156.57 387.09,-143.59 405.9,-133.81"/>
<polygon fill="#63b8ff" stroke="#63b8ff" points="407.58,-136.89 414.84,-129.17 404.35,-130.68 407.58,-136.89"/>
</a>
</g>
</g>
<!-- Node14 -->
<g id="Node000014" class="node">
<title>Node14</title>
<g id="a_Node000014"><a xlink:title=" ">
<polygon fill="#e0e0e0" stroke="#999999" points="537.02,-129 482.02,-129 482.02,-110 537.02,-110 537.02,-129"/>
<text text-anchor="middle" x="509.52" y="-117" font-family="Helvetica,sans-Serif" font-size="10.00">fstream</text>
</a>
</g>
</g>
<!-- Node1&#45;&gt;Node14 -->
<g id="edge22_Node000001_Node000014" class="edge">
<title>Node1&#45;&gt;Node14</title>
<g id="a_edge22_Node000001_Node000014"><a xlink:title=" ">
<path fill="none" stroke="#63b8ff" d="M358.44,-164.98C389.24,-155.92 438.12,-141.53 471.89,-131.58"/>
<polygon fill="#63b8ff" stroke="#63b8ff" points="473.25,-134.83 481.86,-128.65 471.27,-128.11 473.25,-134.83"/>
</a>
</g>
</g>
<!-- Node15 -->
<g id="Node000015" class="node">
<title>Node15</title>
<g id="a_Node000015"><a xlink:title=" ">
<polygon fill="#e0e0e0" stroke="#999999" points="615.52,-129 555.52,-129 555.52,-110 615.52,-110 615.52,-129"/>
<text text-anchor="middle" x="585.52" y="-117" font-family="Helvetica,sans-Serif" font-size="10.00">iostream</text>
</a>
</g>
</g>
<!-- Node1&#45;&gt;Node15 -->
<g id="edge23_Node000001_Node000015" class="edge">
<title>Node1&#45;&gt;Node15</title>
<g id="a_edge23_Node000001_Node000015"><a xlink:title=" ">
<path fill="none" stroke="#63b8ff" d="M371.97,-164.96C413.6,-156.54 479.15,-143.2 545.13,-129.27"/>
<polygon fill="#63b8ff" stroke="#63b8ff" points="546.24,-132.62 555.3,-127.13 544.79,-125.77 546.24,-132.62"/>
</a>
</g>
</g>
<!-- Node2&#45;&gt;Node3 -->
<g id="edge2_Node000002_Node000003" class="edge">
<title>Node2&#45;&gt;Node3</title>
<g id="a_edge2_Node000002_Node000003"><a xlink:title=" ">
<path fill="none" stroke="#63b8ff" d="M414.8,-58.37C330.26,-47.97 140.07,-24.59 61.02,-14.87"/>
<polygon fill="#63b8ff" stroke="#63b8ff" points="60.98,-11.33 50.63,-13.59 60.12,-18.28 60.98,-11.33"/>
</a>
</g>
</g>
<!-- Node4 -->
<g id="Node000004" class="node">
<title>Node4</title>
<g id="a_Node000004"><a xlink:title=" ">
<polygon fill="#e0e0e0" stroke="#999999" points="481.02,-19 428.02,-19 428.02,0 481.02,0 481.02,-19"/>
<text text-anchor="middle" x="454.52" y="-7" font-family="Helvetica,sans-Serif" font-size="10.00">cstddef</text>
</a>
</g>
</g>
<!-- Node2&#45;&gt;Node4 -->
<g id="edge3_Node000002_Node000004" class="edge">
<title>Node2&#45;&gt;Node4</title>
<g id="a_edge3_Node000002_Node000004"><a xlink:title=" ">
<path fill="none" stroke="#63b8ff" d="M456.19,-54.75C455.93,-47.8 455.55,-37.85 455.22,-29.13"/>
<polygon fill="#63b8ff" stroke="#63b8ff" points="458.72,-28.95 454.85,-19.09 451.73,-29.21 458.72,-28.95"/>
</a>
</g>
</g>
<!-- Node5 -->
<g id="Node000005" class="node">
<title>Node5</title>
<g id="a_Node000005"><a xlink:title=" ">
<polygon fill="#e0e0e0" stroke="#999999" points="408.52,-19 364.52,-19 364.52,0 408.52,0 408.52,-19"/>
<text text-anchor="middle" x="386.52" y="-7" font-family="Helvetica,sans-Serif" font-size="10.00">string</text>
</a>
</g>
</g>
<!-- Node2&#45;&gt;Node5 -->
<g id="edge4_Node000002_Node000005" class="edge">
<title>Node2&#45;&gt;Node5</title>
<g id="a_edge4_Node000002_Node000005"><a xlink:title=" ">
<path fill="none" stroke="#63b8ff" d="M445.27,-54.98C434.72,-47 418.72,-34.88 406.08,-25.31"/>
<polygon fill="#63b8ff" stroke="#63b8ff" points="408.06,-22.42 397.97,-19.17 403.83,-28 408.06,-22.42"/>
</a>
</g>
</g>
<!-- Node6 -->
<g id="Node000006" class="node">
<title>Node6</title>
<g id="a_Node000006"><a xlink:title=" ">
<polygon fill="#e0e0e0" stroke="#999999" points="548.02,-19 501.02,-19 501.02,0 548.02,0 548.02,-19"/>
<text text-anchor="middle" x="524.52" y="-7" font-family="Helvetica,sans-Serif" font-size="10.00">vector</text>
</a>
</g>
</g>
<!-- Node2&#45;&gt;Node6 -->
<g id="edge5_Node000002_Node000006" class="edge">
<title>Node2&#45;&gt;Node6</title>
<g id="a_edge5_Node000002_Node000006"><a xlink:title=" ">
<path fill="none" stroke="#63b8ff" d="M467.45,-54.98C477.6,-47.07 492.94,-35.11 505.17,-25.58"/>
<polygon fill="#63b8ff" stroke="#63b8ff" points="507.66,-28.08 513.4,-19.17 503.36,-22.56 507.66,-28.08"/>
</a>
</g>
</g>
<!-- Node7&#45;&gt;Node2 -->
<g id="edge7_Node000007_Node000002" class="edge">
<title>Node7&#45;&gt;Node2</title>
<g id="a_edge7_Node000007_Node000002"><a xlink:title=" ">
<path fill="none" stroke="#63b8ff" d="M271.03,-109.98C309.02,-100.87 369.39,-86.4 410.88,-76.45"/>
<polygon fill="#63b8ff" stroke="#63b8ff" points="411.83,-79.82 420.74,-74.08 410.2,-73.01 411.83,-79.82"/>
</a>
</g>
</g>
<!-- Node7&#45;&gt;Node3 -->
<g id="edge12_Node000007_Node000003" class="edge">
<title>Node7&#45;&gt;Node3</title>
<g id="a_edge12_Node000007_Node000003"><a xlink:title=" ">
<path fill="none" stroke="#63b8ff" d="M195.33,-116.36C137.71,-112.37 36.07,-101.52 13.52,-74 3.11,-61.29 8.54,-42.34 15.09,-28.45"/>
<polygon fill="#63b8ff" stroke="#63b8ff" points="18.3,-29.87 19.85,-19.39 12.1,-26.62 18.3,-29.87"/>
</a>
</g>
</g>
<!-- Node7&#45;&gt;Node5 -->
<g id="edge14_Node000007_Node000005" class="edge">
<title>Node7&#45;&gt;Node5</title>
<g id="a_edge14_Node000007_Node000005"><a xlink:title=" ">
<path fill="none" stroke="#63b8ff" d="M275.62,-114.73C304.85,-109.92 343.41,-98.96 367.52,-74 379.13,-61.98 383.68,-43.17 385.45,-29.14"/>
<polygon fill="#63b8ff" stroke="#63b8ff" points="388.94,-29.4 386.35,-19.13 381.97,-28.78 388.94,-29.4"/>
</a>
</g>
</g>
<!-- Node7&#45;&gt;Node6 -->
<g id="edge16_Node000007_Node000006" class="edge">
<title>Node7&#45;&gt;Node6</title>
<g id="a_edge16_Node000007_Node000006"><a xlink:title=" ">
<path fill="none" stroke="#63b8ff" d="M275.67,-114.35C347.13,-106.6 490.56,-89.35 507.52,-74 519.81,-62.88 523.62,-43.95 524.63,-29.64"/>
<polygon fill="#63b8ff" stroke="#63b8ff" points="528.13,-29.5 524.94,-19.4 521.14,-29.29 528.13,-29.5"/>
</a>
</g>
</g>
<!-- Node7&#45;&gt;Node8 -->
<g id="edge8_Node000007_Node000008" class="edge">
<title>Node7&#45;&gt;Node8</title>
<g id="a_edge8_Node000007_Node000008"><a xlink:title=" ">
<path fill="none" stroke="#63b8ff" d="M206.6,-109.98C176.25,-101.05 128.35,-86.94 94.64,-77.02"/>
<polygon fill="#63b8ff" stroke="#63b8ff" points="95.25,-73.55 84.67,-74.08 93.27,-80.26 95.25,-73.55"/>
</a>
</g>
</g>
<!-- Node9 -->
<g id="Node000009" class="node">
<title>Node9</title>
<g id="a_Node000009"><a xlink:title=" ">
<polygon fill="#e0e0e0" stroke="#999999" points="171.02,-74 106.02,-74 106.02,-55 171.02,-55 171.02,-74"/>
<text text-anchor="middle" x="138.52" y="-62" font-family="Helvetica,sans-Serif" font-size="10.00">exception</text>
</a>
</g>
</g>
<!-- Node7&#45;&gt;Node9 -->
<g id="edge13_Node000007_Node000009" class="edge">
<title>Node7&#45;&gt;Node9</title>
<g id="a_edge13_Node000007_Node000009"><a xlink:title=" ">
<path fill="none" stroke="#63b8ff" d="M219.94,-109.98C204.75,-101.69 181.42,-88.94 163.62,-79.22"/>
<polygon fill="#63b8ff" stroke="#63b8ff" points="164.84,-75.89 154.39,-74.17 161.49,-82.04 164.84,-75.89"/>
</a>
</g>
</g>
<!-- Node10 -->
<g id="Node000010" class="node">
<title>Node10</title>
<g id="a_Node000010"><a xlink:title=" ">
<polygon fill="#e0e0e0" stroke="#999999" points="282.02,-74 189.02,-74 189.02,-55 282.02,-55 282.02,-74"/>
<text text-anchor="middle" x="235.52" y="-62" font-family="Helvetica,sans-Serif" font-size="10.00">unordered_map</text>
</a>
</g>
</g>
<!-- Node7&#45;&gt;Node10 -->
<g id="edge15_Node000007_Node000010" class="edge">
<title>Node7&#45;&gt;Node10</title>
<g id="a_edge15_Node000007_Node000010"><a xlink:title=" ">
<path fill="none" stroke="#63b8ff" d="M235.52,-109.75C235.52,-102.8 235.52,-92.85 235.52,-84.13"/>
<polygon fill="#63b8ff" stroke="#63b8ff" points="239.02,-84.09 235.52,-74.09 232.02,-84.09 239.02,-84.09"/>
</a>
</g>
</g>
<!-- Node11 -->
<g id="Node000011" class="node">
<title>Node11</title>
<g id="a_Node000011"><a xlink:title=" ">
<polygon fill="#e0e0e0" stroke="#999999" points="358.52,-74 300.52,-74 300.52,-55 358.52,-55 358.52,-74"/>
<text text-anchor="middle" x="329.52" y="-62" font-family="Helvetica,sans-Serif" font-size="10.00">memory</text>
</a>
</g>
</g>
<!-- Node7&#45;&gt;Node11 -->
<g id="edge17_Node000007_Node000011" class="edge">
<title>Node7&#45;&gt;Node11</title>
<g id="a_edge17_Node000007_Node000011"><a xlink:title=" ">
<path fill="none" stroke="#63b8ff" d="M250.62,-109.98C265.34,-101.69 287.95,-88.94 305.2,-79.22"/>
<polygon fill="#63b8ff" stroke="#63b8ff" points="307.15,-82.13 314.14,-74.17 303.71,-76.03 307.15,-82.13"/>
</a>
</g>
</g>
<!-- Node8&#45;&gt;Node3 -->
<g id="edge10_Node000008_Node000003" class="edge">
<title>Node8&#45;&gt;Node3</title>
<g id="a_edge10_Node000008_Node000003"><a xlink:title=" ">
<path fill="none" stroke="#63b8ff" d="M50.57,-54.75C46.46,-47.49 40.5,-36.95 35.42,-27.98"/>
<polygon fill="#63b8ff" stroke="#63b8ff" points="38.35,-26.07 30.38,-19.09 32.26,-29.52 38.35,-26.07"/>
</a>
</g>
</g>
<!-- Node8&#45;&gt;Node4 -->
<g id="edge9_Node000008_Node000004" class="edge">
<title>Node8&#45;&gt;Node4</title>
<g id="a_edge9_Node000008_Node000004"><a xlink:title=" ">
<path fill="none" stroke="#63b8ff" d="M88.14,-56.45C90.97,-55.93 93.79,-55.43 96.52,-55 238.29,-32.4 276,-43.11 417.52,-19 417.63,-18.98 417.73,-18.96 417.84,-18.95"/>
<polygon fill="#63b8ff" stroke="#63b8ff" points="418.77,-22.33 427.92,-16.99 417.43,-15.46 418.77,-22.33"/>
</a>
</g>
</g>
<!-- Node8&#45;&gt;Node5 -->
<g id="edge11_Node000008_Node000005" class="edge">
<title>Node8&#45;&gt;Node5</title>
<g id="a_edge11_Node000008_Node000005"><a xlink:title=" ">
<path fill="none" stroke="#63b8ff" d="M88.17,-56.57C90.99,-56.02 93.8,-55.49 96.52,-55 189.81,-38.18 300.71,-22.3 354.33,-14.88"/>
<polygon fill="#63b8ff" stroke="#63b8ff" points="354.83,-18.34 364.26,-13.51 353.88,-11.41 354.83,-18.34"/>
</a>
</g>
</g>
</g>
</svg>
