<?xml version="1.0" encoding="UTF-8" standalone="no"?>
<!DOCTYPE svg PUBLIC "-//W3C//DTD SVG 1.1//EN"
 "http://www.w3.org/Graphics/SVG/1.1/DTD/svg11.dtd">
<!-- Generated by graphviz version 2.43.0 (0)
 -->
<!-- Title: src/compiler/main.cpp Pages: 1 -->
<svg width="1187pt" height="203pt"
 viewBox="0.00 0.00 1186.58 203.00" xmlns="http://www.w3.org/2000/svg" xmlns:xlink="http://www.w3.org/1999/xlink">
<g id="graph0" class="graph" transform="scale(1 1) rotate(0) translate(4 199)">
<title>src/compiler/main.cpp</title>
<!-- Node1 -->
<g id="Node000001" class="node">
<title>Node1</title>
<g id="a_Node000001"><a xlink:title=" ">
<polygon fill="#999999" stroke="#666666" points="815.08,-195 690.08,-195 690.08,-176 815.08,-176 815.08,-195"/>
<text text-anchor="middle" x="752.58" y="-183" font-family="Helvetica,sans-Serif" font-size="10.00">src/compiler/main.cpp</text>
</a>
</g>
</g>
<!-- Node2 -->
<g id="Node000002" class="node">
<title>Node2</title>
<g id="a_Node000002"><a xlink:href="compiler_8hpp.html" target="_top" xlink:title=" ">
<polygon fill="white" stroke="#666666" points="362.58,-134.5 282.58,-134.5 282.58,-115.5 362.58,-115.5 362.58,-134.5"/>
<text text-anchor="middle" x="322.58" y="-122.5" font-family="Helvetica,sans-Serif" font-size="10.00">compiler.hpp</text>
</a>
</g>
</g>
<!-- Node1&#45;&gt;Node2 -->
<g id="edge1_Node000001_Node000002" class="edge">
<title>Node1&#45;&gt;Node2</title>
<g id="a_edge1_Node000001_Node000002"><a xlink:title=" ">
<path fill="none" stroke="#63b8ff" d="M690.06,-175.99C604.23,-164.32 451.62,-143.56 372.8,-132.83"/>
<polygon fill="#63b8ff" stroke="#63b8ff" points="373.02,-129.33 362.64,-131.45 372.08,-136.27 373.02,-129.33"/>
</a>
</g>
</g>
<!-- Node4 -->
<g id="Node000004" class="node">
<title>Node4</title>
<g id="a_Node000004"><a xlink:title=" ">
<polygon fill="#e0e0e0" stroke="#999999" points="81.58,-19 31.58,-19 31.58,0 81.58,0 81.58,-19"/>
<text text-anchor="middle" x="56.58" y="-7" font-family="Helvetica,sans-Serif" font-size="10.00">cstdint</text>
</a>
</g>
</g>
<!-- Node1&#45;&gt;Node4 -->
<g id="edge21_Node000001_Node000004" class="edge">
<title>Node1&#45;&gt;Node4</title>
<g id="a_edge21_Node000001_Node000004"><a xlink:title=" ">
<path fill="none" stroke="#63b8ff" d="M689.81,-181.63C597.93,-176.77 421.63,-164.9 273.58,-140 152.19,-119.58 80.55,-170.86 4.58,-74 -8.99,-56.69 12.71,-37.17 32.08,-24.4"/>
<polygon fill="#63b8ff" stroke="#63b8ff" points="34.05,-27.29 40.68,-19.03 30.34,-21.35 34.05,-27.29"/>
</a>
</g>
</g>
<!-- Node6 -->
<g id="Node000006" class="node">
<title>Node6</title>
<g id="a_Node000006"><a xlink:title=" ">
<polygon fill="#e0e0e0" stroke="#999999" points="547.58,-19 503.58,-19 503.58,0 547.58,0 547.58,-19"/>
<text text-anchor="middle" x="525.58" y="-7" font-family="Helvetica,sans-Serif" font-size="10.00">string</text>
</a>
</g>
</g>
<!-- Node1&#45;&gt;Node6 -->
<g id="edge24_Node000001_Node000006" class="edge">
<title>Node1&#45;&gt;Node6</title>
<g id="a_edge24_Node000001_Node000006"><a xlink:title=" ">
<path fill="none" stroke="#63b8ff" d="M745.66,-175.99C738.78,-167.28 728.17,-153.2 720.58,-140 699.95,-104.13 713.88,-82.08 682.58,-55 647.34,-24.51 592.57,-14.83 557.92,-11.8"/>
<polygon fill="#63b8ff" stroke="#63b8ff" points="558.08,-8.31 547.85,-11.06 557.57,-15.29 558.08,-8.31"/>
</a>
</g>
</g>
<!-- Node8 -->
<g id="Node000008" class="node">
<title>Node8</title>
<g id="a_Node000008"><a xlink:href="params_8hpp.html" target="_top" xlink:title=" ">
<polygon fill="white" stroke="#666666" points="673.58,-74 553.58,-74 553.58,-55 673.58,-55 673.58,-74"/>
<text text-anchor="middle" x="613.58" y="-62" font-family="Helvetica,sans-Serif" font-size="10.00">compiler/params.hpp</text>
</a>
</g>
</g>
<!-- Node1&#45;&gt;Node8 -->
<g id="edge25_Node000001_Node000008" class="edge">
<title>Node1&#45;&gt;Node8</title>
<g id="a_edge25_Node000001_Node000008"><a xlink:title=" ">
<path fill="none" stroke="#63b8ff" d="M738.34,-175.85C724.79,-167.37 704.08,-153.74 687.58,-140 665.6,-121.69 642.76,-97.83 628.37,-82.11"/>
<polygon fill="#63b8ff" stroke="#63b8ff" points="630.61,-79.37 621.31,-74.3 625.42,-84.06 630.61,-79.37"/>
</a>
</g>
</g>
<!-- Node13 -->
<g id="Node000013" class="node">
<title>Node13</title>
<g id="a_Node000013"><a xlink:title=" ">
<polygon fill="#e0e0e0" stroke="#999999" points="879.58,-134.5 729.58,-134.5 729.58,-115.5 879.58,-115.5 879.58,-134.5"/>
<text text-anchor="middle" x="804.58" y="-122.5" font-family="Helvetica,sans-Serif" font-size="10.00">boost/program_options.hpp</text>
</a>
</g>
</g>
<!-- Node1&#45;&gt;Node13 -->
<g id="edge19_Node000001_Node000013" class="edge">
<title>Node1&#45;&gt;Node13</title>
<g id="a_edge19_Node000001_Node000013"><a xlink:title=" ">
<path fill="none" stroke="#63b8ff" d="M760.26,-175.87C768.09,-167.05 780.44,-153.16 790.12,-142.27"/>
<polygon fill="#63b8ff" stroke="#63b8ff" points="792.85,-144.47 796.88,-134.67 787.62,-139.82 792.85,-144.47"/>
</a>
</g>
</g>
<!-- Node14 -->
<g id="Node000014" class="node">
<title>Node14</title>
<g id="a_Node000014"><a xlink:title=" ">
<polygon fill="#e0e0e0" stroke="#999999" points="1027.08,-140 898.08,-140 898.08,-110 1027.08,-110 1027.08,-140"/>
<text text-anchor="start" x="906.08" y="-128" font-family="Helvetica,sans-Serif" font-size="10.00">boost/program_options</text>
<text text-anchor="middle" x="962.58" y="-117" font-family="Helvetica,sans-Serif" font-size="10.00">/value_semantic.hpp</text>
</a>
</g>
</g>
<!-- Node1&#45;&gt;Node14 -->
<g id="edge20_Node000001_Node000014" class="edge">
<title>Node1&#45;&gt;Node14</title>
<g id="a_edge20_Node000001_Node000014"><a xlink:title=" ">
<path fill="none" stroke="#63b8ff" d="M783.12,-175.99C814.26,-167.32 863.42,-153.62 902.42,-142.76"/>
<polygon fill="#63b8ff" stroke="#63b8ff" points="903.4,-146.12 912.1,-140.06 901.52,-139.38 903.4,-146.12"/>
</a>
</g>
</g>
<!-- Node15 -->
<g id="Node000015" class="node">
<title>Node15</title>
<g id="a_Node000015"><a xlink:title=" ">
<polygon fill="#e0e0e0" stroke="#999999" points="1100.08,-134.5 1045.08,-134.5 1045.08,-115.5 1100.08,-115.5 1100.08,-134.5"/>
<text text-anchor="middle" x="1072.58" y="-122.5" font-family="Helvetica,sans-Serif" font-size="10.00">fstream</text>
</a>
</g>
</g>
<!-- Node1&#45;&gt;Node15 -->
<g id="edge22_Node000001_Node000015" class="edge">
<title>Node1&#45;&gt;Node15</title>
<g id="a_edge22_Node000001_Node000015"><a xlink:title=" ">
<path fill="none" stroke="#63b8ff" d="M815.16,-178.61C873.25,-172.23 961.77,-160.16 1036.58,-140 1038.74,-139.42 1040.94,-138.75 1043.15,-138.03"/>
<polygon fill="#63b8ff" stroke="#63b8ff" points="1044.42,-141.29 1052.66,-134.63 1042.06,-134.7 1044.42,-141.29"/>
</a>
</g>
</g>
<!-- Node16 -->
<g id="Node000016" class="node">
<title>Node16</title>
<g id="a_Node000016"><a xlink:title=" ">
<polygon fill="#e0e0e0" stroke="#999999" points="1178.58,-134.5 1118.58,-134.5 1118.58,-115.5 1178.58,-115.5 1178.58,-134.5"/>
<text text-anchor="middle" x="1148.58" y="-122.5" font-family="Helvetica,sans-Serif" font-size="10.00">iostream</text>
</a>
</g>
</g>
<!-- Node1&#45;&gt;Node16 -->
<g id="edge23_Node000001_Node000016" class="edge">
<title>Node1&#45;&gt;Node16</title>
<g id="a_edge23_Node000001_Node000016"><a xlink:title=" ">
<path fill="none" stroke="#63b8ff" d="M815.24,-180.89C887.12,-175.78 1008.13,-164.22 1109.58,-140 1112.25,-139.36 1114.98,-138.61 1117.7,-137.78"/>
<polygon fill="#63b8ff" stroke="#63b8ff" points="1119,-141.04 1127.38,-134.57 1116.79,-134.4 1119,-141.04"/>
</a>
</g>
</g>
<!-- Node3 -->
<g id="Node000003" class="node">
<title>Node3</title>
<g id="a_Node000003"><a xlink:href="bytecode_8hpp.html" target="_top" xlink:title=" ">
<polygon fill="white" stroke="#666666" points="264.08,-74 181.08,-74 181.08,-55 264.08,-55 264.08,-74"/>
<text text-anchor="middle" x="222.58" y="-62" font-family="Helvetica,sans-Serif" font-size="10.00">bytecode.hpp</text>
</a>
</g>
</g>
<!-- Node2&#45;&gt;Node3 -->
<g id="edge2_Node000002_Node000003" class="edge">
<title>Node2&#45;&gt;Node3</title>
<g id="a_edge2_Node000002_Node000003"><a xlink:title=" ">
<path fill="none" stroke="#63b8ff" d="M307.83,-115.37C291.58,-105.86 265.23,-90.45 246.12,-79.27"/>
<polygon fill="#63b8ff" stroke="#63b8ff" points="247.8,-76.2 237.4,-74.17 244.26,-82.24 247.8,-76.2"/>
</a>
</g>
</g>
<!-- Node2&#45;&gt;Node4 -->
<g id="edge13_Node000002_Node000004" class="edge">
<title>Node2&#45;&gt;Node4</title>
<g id="a_edge13_Node000002_Node000004"><a xlink:title=" ">
<path fill="none" stroke="#63b8ff" d="M282.58,-123.7C206.8,-122.19 46.82,-114.21 12.58,-74 -0.87,-58.2 18,-38.31 35.04,-25.04"/>
<polygon fill="#63b8ff" stroke="#63b8ff" points="37.13,-27.85 43.11,-19.11 32.98,-22.21 37.13,-27.85"/>
</a>
</g>
</g>
<!-- Node2&#45;&gt;Node6 -->
<g id="edge15_Node000002_Node000006" class="edge">
<title>Node2&#45;&gt;Node6</title>
<g id="a_edge15_Node000002_Node000006"><a xlink:title=" ">
<path fill="none" stroke="#63b8ff" d="M362.87,-123.89C404.31,-121.58 468.07,-111.55 506.58,-74 518.54,-62.34 523.05,-43.48 524.71,-29.34"/>
<polygon fill="#63b8ff" stroke="#63b8ff" points="528.21,-29.48 525.52,-19.24 521.23,-28.93 528.21,-29.48"/>
</a>
</g>
</g>
<!-- Node7 -->
<g id="Node000007" class="node">
<title>Node7</title>
<g id="a_Node000007"><a xlink:title=" ">
<polygon fill="#e0e0e0" stroke="#999999" points="281.08,-19 234.08,-19 234.08,0 281.08,0 281.08,-19"/>
<text text-anchor="middle" x="257.58" y="-7" font-family="Helvetica,sans-Serif" font-size="10.00">vector</text>
</a>
</g>
</g>
<!-- Node2&#45;&gt;Node7 -->
<g id="edge17_Node000002_Node000007" class="edge">
<title>Node2&#45;&gt;Node7</title>
<g id="a_edge17_Node000002_Node000007"><a xlink:title=" ">
<path fill="none" stroke="#63b8ff" d="M317.7,-115.47C307.06,-96.9 281.64,-52.51 267.5,-27.82"/>
<polygon fill="#63b8ff" stroke="#63b8ff" points="270.53,-26.07 262.52,-19.13 264.46,-29.55 270.53,-26.07"/>
</a>
</g>
</g>
<!-- Node2&#45;&gt;Node8 -->
<g id="edge7_Node000002_Node000008" class="edge">
<title>Node2&#45;&gt;Node8</title>
<g id="a_edge7_Node000002_Node000008"><a xlink:title=" ">
<path fill="none" stroke="#63b8ff" d="M362.74,-115.93C414.37,-105.55 504.13,-87.5 561.11,-76.05"/>
<polygon fill="#63b8ff" stroke="#63b8ff" points="561.89,-79.46 571,-74.06 560.51,-72.6 561.89,-79.46"/>
</a>
</g>
</g>
<!-- Node9 -->
<g id="Node000009" class="node">
<title>Node9</title>
<g id="a_Node000009"><a xlink:href="types_8hpp.html" target="_top" xlink:title=" ">
<polygon fill="white" stroke="#666666" points="163.08,-74 98.08,-74 98.08,-55 163.08,-55 163.08,-74"/>
<text text-anchor="middle" x="130.58" y="-62" font-family="Helvetica,sans-Serif" font-size="10.00">types.hpp</text>
</a>
</g>
</g>
<!-- Node2&#45;&gt;Node9 -->
<g id="edge9_Node000002_Node000009" class="edge">
<title>Node2&#45;&gt;Node9</title>
<g id="a_edge9_Node000002_Node000009"><a xlink:title=" ">
<path fill="none" stroke="#63b8ff" d="M294.66,-115.49C261.39,-105.36 205.64,-88.37 168.49,-77.05"/>
<polygon fill="#63b8ff" stroke="#63b8ff" points="169.12,-73.58 158.53,-74.02 167.08,-80.28 169.12,-73.58"/>
</a>
</g>
</g>
<!-- Node10 -->
<g id="Node000010" class="node">
<title>Node10</title>
<g id="a_Node000010"><a xlink:title=" ">
<polygon fill="#e0e0e0" stroke="#999999" points="386.08,-74 321.08,-74 321.08,-55 386.08,-55 386.08,-74"/>
<text text-anchor="middle" x="353.58" y="-62" font-family="Helvetica,sans-Serif" font-size="10.00">exception</text>
</a>
</g>
</g>
<!-- Node2&#45;&gt;Node10 -->
<g id="edge14_Node000002_Node000010" class="edge">
<title>Node2&#45;&gt;Node10</title>
<g id="a_edge14_Node000002_Node000010"><a xlink:title=" ">
<path fill="none" stroke="#63b8ff" d="M327.16,-115.37C331.64,-106.9 338.62,-93.74 344.27,-83.07"/>
<polygon fill="#63b8ff" stroke="#63b8ff" points="347.4,-84.64 348.99,-74.17 341.21,-81.36 347.4,-84.64"/>
</a>
</g>
</g>
<!-- Node11 -->
<g id="Node000011" class="node">
<title>Node11</title>
<g id="a_Node000011"><a xlink:title=" ">
<polygon fill="#e0e0e0" stroke="#999999" points="497.08,-74 404.08,-74 404.08,-55 497.08,-55 497.08,-74"/>
<text text-anchor="middle" x="450.58" y="-62" font-family="Helvetica,sans-Serif" font-size="10.00">unordered_map</text>
</a>
</g>
</g>
<!-- Node2&#45;&gt;Node11 -->
<g id="edge16_Node000002_Node000011" class="edge">
<title>Node2&#45;&gt;Node11</title>
<g id="a_edge16_Node000002_Node000011"><a xlink:title=" ">
<path fill="none" stroke="#63b8ff" d="M341.19,-115.49C362.62,-105.7 398.02,-89.52 422.73,-78.23"/>
<polygon fill="#63b8ff" stroke="#63b8ff" points="424.31,-81.36 431.95,-74.02 421.4,-74.99 424.31,-81.36"/>
</a>
</g>
</g>
<!-- Node12 -->
<g id="Node000012" class="node">
<title>Node12</title>
<g id="a_Node000012"><a xlink:title=" ">
<polygon fill="#e0e0e0" stroke="#999999" points="79.58,-74 21.58,-74 21.58,-55 79.58,-55 79.58,-74"/>
<text text-anchor="middle" x="50.58" y="-62" font-family="Helvetica,sans-Serif" font-size="10.00">memory</text>
</a>
</g>
</g>
<!-- Node2&#45;&gt;Node12 -->
<g id="edge18_Node000002_Node000012" class="edge">
<title>Node2&#45;&gt;Node12</title>
<g id="a_edge18_Node000002_Node000012"><a xlink:title=" ">
<path fill="none" stroke="#63b8ff" d="M282.39,-115.53C237.76,-106.11 163.3,-90.3 89.55,-74.2"/>
<polygon fill="#63b8ff" stroke="#63b8ff" points="90.14,-70.74 79.62,-72.03 88.64,-77.58 90.14,-70.74"/>
</a>
</g>
</g>
<!-- Node3&#45;&gt;Node4 -->
<g id="edge3_Node000003_Node000004" class="edge">
<title>Node3&#45;&gt;Node4</title>
<g id="a_edge3_Node000003_Node000004"><a xlink:title=" ">
<path fill="none" stroke="#63b8ff" d="M195.91,-54.98C167.55,-45.93 122.56,-31.57 91.41,-21.62"/>
<polygon fill="#63b8ff" stroke="#63b8ff" points="92.42,-18.27 81.83,-18.56 90.29,-24.94 92.42,-18.27"/>
</a>
</g>
</g>
<!-- Node5 -->
<g id="Node000005" class="node">
<title>Node5</title>
<g id="a_Node000005"><a xlink:title=" ">
<polygon fill="#e0e0e0" stroke="#999999" points="186.08,-19 133.08,-19 133.08,0 186.08,0 186.08,-19"/>
<text text-anchor="middle" x="159.58" y="-7" font-family="Helvetica,sans-Serif" font-size="10.00">cstddef</text>
</a>
</g>
</g>
<!-- Node3&#45;&gt;Node5 -->
<g id="edge4_Node000003_Node000005" class="edge">
<title>Node3&#45;&gt;Node5</title>
<g id="a_edge4_Node000003_Node000005"><a xlink:title=" ">
<path fill="none" stroke="#63b8ff" d="M212.46,-54.98C203.15,-47.15 189.11,-35.34 177.84,-25.86"/>
<polygon fill="#63b8ff" stroke="#63b8ff" points="179.79,-22.93 169.89,-19.17 175.29,-28.29 179.79,-22.93"/>
</a>
</g>
</g>
<!-- Node3&#45;&gt;Node6 -->
<g id="edge5_Node000003_Node000006" class="edge">
<title>Node3&#45;&gt;Node6</title>
<g id="a_edge5_Node000003_Node000006"><a xlink:title=" ">
<path fill="none" stroke="#63b8ff" d="M264.39,-56.19C325.55,-45.49 438.11,-25.8 493.33,-16.14"/>
<polygon fill="#63b8ff" stroke="#63b8ff" points="494.01,-19.58 503.26,-14.41 492.8,-12.68 494.01,-19.58"/>
</a>
</g>
</g>
<!-- Node3&#45;&gt;Node7 -->
<g id="edge6_Node000003_Node000007" class="edge">
<title>Node3&#45;&gt;Node7</title>
<g id="a_edge6_Node000003_Node000007"><a xlink:title=" ">
<path fill="none" stroke="#63b8ff" d="M228.36,-54.75C233.2,-47.42 240.26,-36.73 246.23,-27.7"/>
<polygon fill="#63b8ff" stroke="#63b8ff" points="249.32,-29.36 251.91,-19.09 243.48,-25.5 249.32,-29.36"/>
</a>
</g>
</g>
<!-- Node8&#45;&gt;Node6 -->
<g id="edge8_Node000008_Node000006" class="edge">
<title>Node8&#45;&gt;Node6</title>
<g id="a_edge8_Node000008_Node000006"><a xlink:title=" ">
<path fill="none" stroke="#63b8ff" d="M599.44,-54.98C585.8,-46.77 564.9,-34.18 548.8,-24.49"/>
<polygon fill="#63b8ff" stroke="#63b8ff" points="550.35,-21.33 539.98,-19.17 546.74,-27.33 550.35,-21.33"/>
</a>
</g>
</g>
<!-- Node9&#45;&gt;Node4 -->
<g id="edge11_Node000009_Node000004" class="edge">
<title>Node9&#45;&gt;Node4</title>
<g id="a_edge11_Node000009_Node000004"><a xlink:title=" ">
<path fill="none" stroke="#63b8ff" d="M118.69,-54.98C107.43,-46.92 90.3,-34.65 76.87,-25.03"/>
<polygon fill="#63b8ff" stroke="#63b8ff" points="78.86,-22.15 68.69,-19.17 74.78,-27.84 78.86,-22.15"/>
</a>
</g>
</g>
<!-- Node9&#45;&gt;Node5 -->
<g id="edge10_Node000009_Node000005" class="edge">
<title>Node9&#45;&gt;Node5</title>
<g id="a_edge10_Node000009_Node000005"><a xlink:title=" ">
<path fill="none" stroke="#63b8ff" d="M135.37,-54.75C139.34,-47.49 145.11,-36.95 150.02,-27.98"/>
<polygon fill="#63b8ff" stroke="#63b8ff" points="153.15,-29.54 154.88,-19.09 147.01,-26.18 153.15,-29.54"/>
</a>
</g>
</g>
<!-- Node9&#45;&gt;Node6 -->
<g id="edge12_Node000009_Node000006" class="edge">
<title>Node9&#45;&gt;Node6</title>
<g id="a_edge12_Node000009_Node000006"><a xlink:title=" ">
<path fill="none" stroke="#63b8ff" d="M163.21,-56.49C166.04,-55.96 168.86,-55.45 171.58,-55 289.71,-35.36 431.29,-20.01 493.55,-13.67"/>
<polygon fill="#63b8ff" stroke="#63b8ff" points="493.94,-17.14 503.54,-12.66 493.24,-10.18 493.94,-17.14"/>
</a>
</g>
</g>
</g>
</svg>
