<?xml version="1.0" encoding="UTF-8" standalone="no"?>
<!DOCTYPE svg PUBLIC "-//W3C//DTD SVG 1.1//EN"
 "http://www.w3.org/Graphics/SVG/1.1/DTD/svg11.dtd">
<!-- Generated by graphviz version 2.43.0 (0)
 -->
<!-- Title: src/compiler/main.cpp Pages: 1 -->
<svg width="1078pt" height="203pt"
 viewBox="0.00 0.00 1078.07 203.00" xmlns="http://www.w3.org/2000/svg" xmlns:xlink="http://www.w3.org/1999/xlink">
<g id="graph0" class="graph" transform="scale(1 1) rotate(0) translate(4 199)">
<title>src/compiler/main.cpp</title>
<!-- Node1 -->
<g id="Node000001" class="node">
<title>Node1</title>
<g id="a_Node000001"><a xlink:title=" ">
<polygon fill="#999999" stroke="#666666" points="758.57,-195 633.57,-195 633.57,-176 758.57,-176 758.57,-195"/>
<text text-anchor="middle" x="696.07" y="-183" font-family="Helvetica,sans-Serif" font-size="10.00">src/compiler/main.cpp</text>
</a>
</g>
</g>
<!-- Node2 -->
<g id="Node000002" class="node">
<title>Node2</title>
<g id="a_Node000002"><a xlink:href="compiler_8hpp.html" target="_top" xlink:title=" ">
<polygon fill="white" stroke="#666666" points="395.07,-134.5 315.07,-134.5 315.07,-115.5 395.07,-115.5 395.07,-134.5"/>
<text text-anchor="middle" x="355.07" y="-122.5" font-family="Helvetica,sans-Serif" font-size="10.00">compiler.hpp</text>
</a>
</g>
</g>
<!-- Node1&#45;&gt;Node2 -->
<g id="edge1_Node000001_Node000002" class="edge">
<title>Node1&#45;&gt;Node2</title>
<g id="a_edge1_Node000001_Node000002"><a xlink:title=" ">
<path fill="none" stroke="#63b8ff" d="M646.49,-175.99C581.97,-164.92 469.84,-145.69 405.1,-134.58"/>
<polygon fill="#63b8ff" stroke="#63b8ff" points="405.58,-131.11 395.13,-132.87 404.39,-138.01 405.58,-131.11"/>
</a>
</g>
</g>
<!-- Node4 -->
<g id="Node000004" class="node">
<title>Node4</title>
<g id="a_Node000004"><a xlink:title=" ">
<polygon fill="#e0e0e0" stroke="#999999" points="582.07,-19 532.07,-19 532.07,0 582.07,0 582.07,-19"/>
<text text-anchor="middle" x="557.07" y="-7" font-family="Helvetica,sans-Serif" font-size="10.00">cstdint</text>
</a>
</g>
</g>
<!-- Node1&#45;&gt;Node4 -->
<g id="edge20_Node000001_Node000004" class="edge">
<title>Node1&#45;&gt;Node4</title>
<g id="a_edge20_Node000001_Node000004"><a xlink:title=" ">
<path fill="none" stroke="#63b8ff" d="M669.59,-175.85C651.35,-168.73 627.7,-157.02 612.07,-140 582.3,-107.56 567.19,-56.6 560.85,-29.29"/>
<polygon fill="#63b8ff" stroke="#63b8ff" points="564.19,-28.18 558.65,-19.15 557.35,-29.66 564.19,-28.18"/>
</a>
</g>
</g>
<!-- Node6 -->
<g id="Node000006" class="node">
<title>Node6</title>
<g id="a_Node000006"><a xlink:title=" ">
<polygon fill="#e0e0e0" stroke="#999999" points="316.07,-19 272.07,-19 272.07,0 316.07,0 316.07,-19"/>
<text text-anchor="middle" x="294.07" y="-7" font-family="Helvetica,sans-Serif" font-size="10.00">string</text>
</a>
</g>
</g>
<!-- Node1&#45;&gt;Node6 -->
<g id="edge23_Node000001_Node000006" class="edge">
<title>Node1&#45;&gt;Node6</title>
<g id="a_edge23_Node000001_Node000006"><a xlink:title=" ">
<path fill="none" stroke="#63b8ff" d="M633.37,-184.65C478.01,-183.53 82.18,-171.02 4.07,-74 -1.22,-67.42 -1.43,-61.41 4.07,-55 36.98,-16.66 193.04,-11.02 261.62,-10.42"/>
<polygon fill="#63b8ff" stroke="#63b8ff" points="261.86,-13.92 271.84,-10.36 261.82,-6.92 261.86,-13.92"/>
</a>
</g>
</g>
<!-- Node13 -->
<g id="Node000013" class="node">
<title>Node13</title>
<g id="a_Node000013"><a xlink:title=" ">
<polygon fill="#e0e0e0" stroke="#999999" points="771.07,-134.5 621.07,-134.5 621.07,-115.5 771.07,-115.5 771.07,-134.5"/>
<text text-anchor="middle" x="696.07" y="-122.5" font-family="Helvetica,sans-Serif" font-size="10.00">boost/program_options.hpp</text>
</a>
</g>
</g>
<!-- Node1&#45;&gt;Node13 -->
<g id="edge18_Node000001_Node000013" class="edge">
<title>Node1&#45;&gt;Node13</title>
<g id="a_edge18_Node000001_Node000013"><a xlink:title=" ">
<path fill="none" stroke="#63b8ff" d="M696.07,-175.87C696.07,-167.75 696.07,-155.31 696.07,-144.89"/>
<polygon fill="#63b8ff" stroke="#63b8ff" points="699.57,-144.67 696.07,-134.67 692.57,-144.67 699.57,-144.67"/>
</a>
</g>
</g>
<!-- Node14 -->
<g id="Node000014" class="node">
<title>Node14</title>
<g id="a_Node000014"><a xlink:title=" ">
<polygon fill="#e0e0e0" stroke="#999999" points="918.57,-140 789.57,-140 789.57,-110 918.57,-110 918.57,-140"/>
<text text-anchor="start" x="797.57" y="-128" font-family="Helvetica,sans-Serif" font-size="10.00">boost/program_options</text>
<text text-anchor="middle" x="854.07" y="-117" font-family="Helvetica,sans-Serif" font-size="10.00">/value_semantic.hpp</text>
</a>
</g>
</g>
<!-- Node1&#45;&gt;Node14 -->
<g id="edge19_Node000001_Node000014" class="edge">
<title>Node1&#45;&gt;Node14</title>
<g id="a_edge19_Node000001_Node000014"><a xlink:title=" ">
<path fill="none" stroke="#63b8ff" d="M719.05,-175.99C741.89,-167.54 777.59,-154.32 806.55,-143.59"/>
<polygon fill="#63b8ff" stroke="#63b8ff" points="807.93,-146.82 816.09,-140.06 805.5,-140.25 807.93,-146.82"/>
</a>
</g>
</g>
<!-- Node15 -->
<g id="Node000015" class="node">
<title>Node15</title>
<g id="a_Node000015"><a xlink:title=" ">
<polygon fill="#e0e0e0" stroke="#999999" points="991.57,-134.5 936.57,-134.5 936.57,-115.5 991.57,-115.5 991.57,-134.5"/>
<text text-anchor="middle" x="964.07" y="-122.5" font-family="Helvetica,sans-Serif" font-size="10.00">fstream</text>
</a>
</g>
</g>
<!-- Node1&#45;&gt;Node15 -->
<g id="edge21_Node000001_Node000015" class="edge">
<title>Node1&#45;&gt;Node15</title>
<g id="a_edge21_Node000001_Node000015"><a xlink:title=" ">
<path fill="none" stroke="#63b8ff" d="M756.87,-175.93C804.09,-168.54 870.93,-156.45 928.07,-140 930.22,-139.38 932.42,-138.69 934.62,-137.95"/>
<polygon fill="#63b8ff" stroke="#63b8ff" points="935.91,-141.2 944.11,-134.5 933.52,-134.62 935.91,-141.2"/>
</a>
</g>
</g>
<!-- Node16 -->
<g id="Node000016" class="node">
<title>Node16</title>
<g id="a_Node000016"><a xlink:title=" ">
<polygon fill="#e0e0e0" stroke="#999999" points="1070.07,-134.5 1010.07,-134.5 1010.07,-115.5 1070.07,-115.5 1070.07,-134.5"/>
<text text-anchor="middle" x="1040.07" y="-122.5" font-family="Helvetica,sans-Serif" font-size="10.00">iostream</text>
</a>
</g>
</g>
<!-- Node1&#45;&gt;Node16 -->
<g id="edge22_Node000001_Node000016" class="edge">
<title>Node1&#45;&gt;Node16</title>
<g id="a_edge22_Node000001_Node000016"><a xlink:title=" ">
<path fill="none" stroke="#63b8ff" d="M758.7,-179.06C820.86,-172.79 918.53,-160.62 1001.07,-140 1003.58,-139.37 1006.15,-138.65 1008.71,-137.87"/>
<polygon fill="#63b8ff" stroke="#63b8ff" points="1010.06,-141.1 1018.45,-134.63 1007.85,-134.46 1010.06,-141.1"/>
</a>
</g>
</g>
<!-- Node3 -->
<g id="Node000003" class="node">
<title>Node3</title>
<g id="a_Node000003"><a xlink:href="bytecode_8hpp.html" target="_top" xlink:title=" ">
<polygon fill="white" stroke="#666666" points="488.57,-74 405.57,-74 405.57,-55 488.57,-55 488.57,-74"/>
<text text-anchor="middle" x="447.07" y="-62" font-family="Helvetica,sans-Serif" font-size="10.00">bytecode.hpp</text>
</a>
</g>
</g>
<!-- Node2&#45;&gt;Node3 -->
<g id="edge2_Node000002_Node000003" class="edge">
<title>Node2&#45;&gt;Node3</title>
<g id="a_edge2_Node000002_Node000003"><a xlink:title=" ">
<path fill="none" stroke="#63b8ff" d="M368.65,-115.37C383.46,-105.95 407.4,-90.73 424.94,-79.58"/>
<polygon fill="#63b8ff" stroke="#63b8ff" points="426.88,-82.49 433.44,-74.17 423.13,-76.58 426.88,-82.49"/>
</a>
</g>
</g>
<!-- Node2&#45;&gt;Node4 -->
<g id="edge12_Node000002_Node000004" class="edge">
<title>Node2&#45;&gt;Node4</title>
<g id="a_edge12_Node000002_Node000004"><a xlink:title=" ">
<path fill="none" stroke="#63b8ff" d="M395.35,-118.9C429.68,-112.89 478.91,-100.18 514.07,-74 529.88,-62.23 541.79,-42.83 549.02,-28.57"/>
<polygon fill="#63b8ff" stroke="#63b8ff" points="552.31,-29.8 553.45,-19.27 545.99,-26.8 552.31,-29.8"/>
</a>
</g>
</g>
<!-- Node2&#45;&gt;Node6 -->
<g id="edge14_Node000002_Node000006" class="edge">
<title>Node2&#45;&gt;Node6</title>
<g id="a_edge14_Node000002_Node000006"><a xlink:title=" ">
<path fill="none" stroke="#63b8ff" d="M346.05,-115.2C336.85,-105.77 322.73,-89.99 314.07,-74 306.42,-59.85 301.17,-42.31 297.98,-29.25"/>
<polygon fill="#63b8ff" stroke="#63b8ff" points="301.31,-28.11 295.7,-19.13 294.48,-29.65 301.31,-28.11"/>
</a>
</g>
</g>
<!-- Node7 -->
<g id="Node000007" class="node">
<title>Node7</title>
<g id="a_Node000007"><a xlink:title=" ">
<polygon fill="#e0e0e0" stroke="#999999" points="513.57,-19 466.57,-19 466.57,0 513.57,0 513.57,-19"/>
<text text-anchor="middle" x="490.07" y="-7" font-family="Helvetica,sans-Serif" font-size="10.00">vector</text>
</a>
</g>
</g>
<!-- Node2&#45;&gt;Node7 -->
<g id="edge16_Node000002_Node000007" class="edge">
<title>Node2&#45;&gt;Node7</title>
<g id="a_edge16_Node000002_Node000007"><a xlink:title=" ">
<path fill="none" stroke="#63b8ff" d="M395.24,-122.09C428.86,-118.11 474.94,-106.6 498.07,-74 507.4,-60.86 503.59,-42.23 498.54,-28.54"/>
<polygon fill="#63b8ff" stroke="#63b8ff" points="501.72,-27.08 494.63,-19.22 495.27,-29.79 501.72,-27.08"/>
</a>
</g>
</g>
<!-- Node9 -->
<g id="Node000009" class="node">
<title>Node9</title>
<g id="a_Node000009"><a xlink:href="types_8hpp.html" target="_top" xlink:title=" ">
<polygon fill="white" stroke="#666666" points="387.57,-74 322.57,-74 322.57,-55 387.57,-55 387.57,-74"/>
<text text-anchor="middle" x="355.07" y="-62" font-family="Helvetica,sans-Serif" font-size="10.00">types.hpp</text>
</a>
</g>
</g>
<!-- Node2&#45;&gt;Node9 -->
<g id="edge8_Node000002_Node000009" class="edge">
<title>Node2&#45;&gt;Node9</title>
<g id="a_edge8_Node000002_Node000009"><a xlink:title=" ">
<path fill="none" stroke="#63b8ff" d="M355.07,-115.37C355.07,-107.25 355.07,-94.81 355.07,-84.39"/>
<polygon fill="#63b8ff" stroke="#63b8ff" points="358.57,-84.17 355.07,-74.17 351.57,-84.17 358.57,-84.17"/>
</a>
</g>
</g>
<!-- Node10 -->
<g id="Node000010" class="node">
<title>Node10</title>
<g id="a_Node000010"><a xlink:title=" ">
<polygon fill="#e0e0e0" stroke="#999999" points="78.57,-74 13.57,-74 13.57,-55 78.57,-55 78.57,-74"/>
<text text-anchor="middle" x="46.07" y="-62" font-family="Helvetica,sans-Serif" font-size="10.00">exception</text>
</a>
</g>
</g>
<!-- Node2&#45;&gt;Node10 -->
<g id="edge13_Node000002_Node000010" class="edge">
<title>Node2&#45;&gt;Node10</title>
<g id="a_edge13_Node000002_Node000010"><a xlink:title=" ">
<path fill="none" stroke="#63b8ff" d="M315.07,-116.79C264.59,-107.64 174.85,-91.19 88.68,-74.29"/>
<polygon fill="#63b8ff" stroke="#63b8ff" points="89.22,-70.83 78.74,-72.33 87.87,-77.7 89.22,-70.83"/>
</a>
</g>
</g>
<!-- Node11 -->
<g id="Node000011" class="node">
<title>Node11</title>
<g id="a_Node000011"><a xlink:title=" ">
<polygon fill="#e0e0e0" stroke="#999999" points="189.57,-74 96.57,-74 96.57,-55 189.57,-55 189.57,-74"/>
<text text-anchor="middle" x="143.07" y="-62" font-family="Helvetica,sans-Serif" font-size="10.00">unordered_map</text>
</a>
</g>
</g>
<!-- Node2&#45;&gt;Node11 -->
<g id="edge15_Node000002_Node000011" class="edge">
<title>Node2&#45;&gt;Node11</title>
<g id="a_edge15_Node000002_Node000011"><a xlink:title=" ">
<path fill="none" stroke="#63b8ff" d="M324.25,-115.49C287.11,-105.25 224.63,-88 183.62,-76.69"/>
<polygon fill="#63b8ff" stroke="#63b8ff" points="184.51,-73.3 173.94,-74.02 182.65,-80.05 184.51,-73.3"/>
</a>
</g>
</g>
<!-- Node12 -->
<g id="Node000012" class="node">
<title>Node12</title>
<g id="a_Node000012"><a xlink:title=" ">
<polygon fill="#e0e0e0" stroke="#999999" points="266.07,-74 208.07,-74 208.07,-55 266.07,-55 266.07,-74"/>
<text text-anchor="middle" x="237.07" y="-62" font-family="Helvetica,sans-Serif" font-size="10.00">memory</text>
</a>
</g>
</g>
<!-- Node2&#45;&gt;Node12 -->
<g id="edge17_Node000002_Node000012" class="edge">
<title>Node2&#45;&gt;Node12</title>
<g id="a_edge17_Node000002_Node000012"><a xlink:title=" ">
<path fill="none" stroke="#63b8ff" d="M337.92,-115.49C318.34,-105.79 286.1,-89.81 263.36,-78.53"/>
<polygon fill="#63b8ff" stroke="#63b8ff" points="264.77,-75.32 254.25,-74.02 261.66,-81.59 264.77,-75.32"/>
</a>
</g>
</g>
<!-- Node3&#45;&gt;Node4 -->
<g id="edge3_Node000003_Node000004" class="edge">
<title>Node3&#45;&gt;Node4</title>
<g id="a_edge3_Node000003_Node000004"><a xlink:title=" ">
<path fill="none" stroke="#63b8ff" d="M464.75,-54.98C482.36,-46.5 509.65,-33.35 530,-23.54"/>
<polygon fill="#63b8ff" stroke="#63b8ff" points="531.59,-26.66 539.08,-19.17 528.55,-20.36 531.59,-26.66"/>
</a>
</g>
</g>
<!-- Node5 -->
<g id="Node000005" class="node">
<title>Node5</title>
<g id="a_Node000005"><a xlink:title=" ">
<polygon fill="#e0e0e0" stroke="#999999" points="387.57,-19 334.57,-19 334.57,0 387.57,0 387.57,-19"/>
<text text-anchor="middle" x="361.07" y="-7" font-family="Helvetica,sans-Serif" font-size="10.00">cstddef</text>
</a>
</g>
</g>
<!-- Node3&#45;&gt;Node5 -->
<g id="edge4_Node000003_Node000005" class="edge">
<title>Node3&#45;&gt;Node5</title>
<g id="a_edge4_Node000003_Node000005"><a xlink:title=" ">
<path fill="none" stroke="#63b8ff" d="M433.26,-54.98C419.92,-46.77 399.49,-34.18 383.77,-24.49"/>
<polygon fill="#63b8ff" stroke="#63b8ff" points="385.49,-21.44 375.14,-19.17 381.82,-27.4 385.49,-21.44"/>
</a>
</g>
</g>
<!-- Node3&#45;&gt;Node6 -->
<g id="edge5_Node000003_Node000006" class="edge">
<title>Node3&#45;&gt;Node6</title>
<g id="a_edge5_Node000003_Node000006"><a xlink:title=" ">
<path fill="none" stroke="#63b8ff" d="M422.49,-54.98C396.2,-45.88 354.4,-31.4 325.68,-21.45"/>
<polygon fill="#63b8ff" stroke="#63b8ff" points="326.71,-18.1 316.11,-18.13 324.42,-24.71 326.71,-18.1"/>
</a>
</g>
</g>
<!-- Node3&#45;&gt;Node7 -->
<g id="edge6_Node000003_Node000007" class="edge">
<title>Node3&#45;&gt;Node7</title>
<g id="a_edge6_Node000003_Node000007"><a xlink:title=" ">
<path fill="none" stroke="#63b8ff" d="M454.17,-54.75C460.25,-47.26 469.16,-36.28 476.58,-27.13"/>
<polygon fill="#63b8ff" stroke="#63b8ff" points="479.52,-29.06 483.11,-19.09 474.09,-24.65 479.52,-29.06"/>
</a>
</g>
</g>
<!-- Node8 -->
<g id="Node000008" class="node">
<title>Node8</title>
<g id="a_Node000008"><a xlink:title=" ">
<polygon fill="#e0e0e0" stroke="#999999" points="448.07,-19 406.07,-19 406.07,0 448.07,0 448.07,-19"/>
<text text-anchor="middle" x="427.07" y="-7" font-family="Helvetica,sans-Serif" font-size="10.00">array</text>
</a>
</g>
</g>
<!-- Node3&#45;&gt;Node8 -->
<g id="edge7_Node000003_Node000008" class="edge">
<title>Node3&#45;&gt;Node8</title>
<g id="a_edge7_Node000003_Node000008"><a xlink:title=" ">
<path fill="none" stroke="#63b8ff" d="M443.77,-54.75C441.09,-47.65 437.23,-37.4 433.89,-28.56"/>
<polygon fill="#63b8ff" stroke="#63b8ff" points="437.12,-27.21 430.31,-19.09 430.57,-29.68 437.12,-27.21"/>
</a>
</g>
</g>
<!-- Node9&#45;&gt;Node4 -->
<g id="edge10_Node000009_Node000004" class="edge">
<title>Node9&#45;&gt;Node4</title>
<g id="a_edge10_Node000009_Node000004"><a xlink:title=" ">
<path fill="none" stroke="#63b8ff" d="M387.53,-54.98C424.33,-45.33 484.12,-29.64 521.98,-19.71"/>
<polygon fill="#63b8ff" stroke="#63b8ff" points="523.25,-22.99 532.04,-17.07 521.48,-16.22 523.25,-22.99"/>
</a>
</g>
</g>
<!-- Node9&#45;&gt;Node5 -->
<g id="edge9_Node000009_Node000005" class="edge">
<title>Node9&#45;&gt;Node5</title>
<g id="a_edge9_Node000009_Node000005"><a xlink:title=" ">
<path fill="none" stroke="#63b8ff" d="M356.06,-54.75C356.85,-47.8 357.98,-37.85 358.96,-29.13"/>
<polygon fill="#63b8ff" stroke="#63b8ff" points="362.45,-29.42 360.1,-19.09 355.5,-28.63 362.45,-29.42"/>
</a>
</g>
</g>
<!-- Node9&#45;&gt;Node6 -->
<g id="edge11_Node000009_Node000006" class="edge">
<title>Node9&#45;&gt;Node6</title>
<g id="a_edge11_Node000009_Node000006"><a xlink:title=" ">
<path fill="none" stroke="#63b8ff" d="M345.27,-54.98C336.26,-47.15 322.67,-35.34 311.76,-25.86"/>
<polygon fill="#63b8ff" stroke="#63b8ff" points="313.9,-23.09 304.05,-19.17 309.31,-28.37 313.9,-23.09"/>
</a>
</g>
</g>
</g>
</svg>
