<?xml version="1.0" encoding="UTF-8" standalone="no"?>
<!DOCTYPE svg PUBLIC "-//W3C//DTD SVG 1.1//EN"
 "http://www.w3.org/Graphics/SVG/1.1/DTD/svg11.dtd">
<!-- Generated by graphviz version 2.43.0 (0)
 -->
<!-- Title: src/compiler/main.cpp Pages: 1 -->
<svg width="1079pt" height="203pt"
 viewBox="0.00 0.00 1079.20 203.00" xmlns="http://www.w3.org/2000/svg" xmlns:xlink="http://www.w3.org/1999/xlink">
<g id="graph0" class="graph" transform="scale(1 1) rotate(0) translate(4 199)">
<title>src/compiler/main.cpp</title>
<!-- Node1 -->
<g id="Node000001" class="node">
<title>Node1</title>
<g id="a_Node000001"><a xlink:title=" ">
<polygon fill="#999999" stroke="#666666" points="759.7,-195 634.7,-195 634.7,-176 759.7,-176 759.7,-195"/>
<text text-anchor="middle" x="697.2" y="-183" font-family="Helvetica,sans-Serif" font-size="10.00">src/compiler/main.cpp</text>
</a>
</g>
</g>
<!-- Node2 -->
<g id="Node000002" class="node">
<title>Node2</title>
<g id="a_Node000002"><a xlink:href="compiler_8hpp.html" target="_top" xlink:title=" ">
<polygon fill="white" stroke="#666666" points="373.2,-134.5 293.2,-134.5 293.2,-115.5 373.2,-115.5 373.2,-134.5"/>
<text text-anchor="middle" x="333.2" y="-122.5" font-family="Helvetica,sans-Serif" font-size="10.00">compiler.hpp</text>
</a>
</g>
</g>
<!-- Node1&#45;&gt;Node2 -->
<g id="edge1_Node000001_Node000002" class="edge">
<title>Node1&#45;&gt;Node2</title>
<g id="a_edge1_Node000001_Node000002"><a xlink:title=" ">
<path fill="none" stroke="#63b8ff" d="M644.27,-175.99C574.32,-164.75 451.94,-145.08 383.39,-134.07"/>
<polygon fill="#63b8ff" stroke="#63b8ff" points="383.7,-130.57 373.27,-132.44 382.59,-137.48 383.7,-130.57"/>
</a>
</g>
</g>
<!-- Node4 -->
<g id="Node000004" class="node">
<title>Node4</title>
<g id="a_Node000004"><a xlink:title=" ">
<polygon fill="#e0e0e0" stroke="#999999" points="574.2,-19 524.2,-19 524.2,0 574.2,0 574.2,-19"/>
<text text-anchor="middle" x="549.2" y="-7" font-family="Helvetica,sans-Serif" font-size="10.00">cstdint</text>
</a>
</g>
</g>
<!-- Node1&#45;&gt;Node4 -->
<g id="edge19_Node000001_Node000004" class="edge">
<title>Node1&#45;&gt;Node4</title>
<g id="a_edge19_Node000001_Node000004"><a xlink:title=" ">
<path fill="none" stroke="#63b8ff" d="M671.78,-175.88C653.6,-168.66 629.54,-156.8 613.2,-140 581.55,-107.44 562.66,-56.16 554.31,-28.93"/>
<polygon fill="#63b8ff" stroke="#63b8ff" points="557.62,-27.77 551.45,-19.15 550.9,-29.73 557.62,-27.77"/>
</a>
</g>
</g>
<!-- Node6 -->
<g id="Node000006" class="node">
<title>Node6</title>
<g id="a_Node000006"><a xlink:title=" ">
<polygon fill="#e0e0e0" stroke="#999999" points="414.2,-19 370.2,-19 370.2,0 414.2,0 414.2,-19"/>
<text text-anchor="middle" x="392.2" y="-7" font-family="Helvetica,sans-Serif" font-size="10.00">string</text>
</a>
</g>
</g>
<!-- Node1&#45;&gt;Node6 -->
<g id="edge22_Node000001_Node000006" class="edge">
<title>Node1&#45;&gt;Node6</title>
<g id="a_edge22_Node000001_Node000006"><a xlink:title=" ">
<path fill="none" stroke="#63b8ff" d="M634.68,-184.73C479.29,-183.81 82.52,-171.74 5.2,-74 -42.83,-13.28 272.65,-30.55 349.2,-19 352.69,-18.47 356.33,-17.86 359.95,-17.2"/>
<polygon fill="#63b8ff" stroke="#63b8ff" points="360.78,-20.61 369.95,-15.3 359.47,-13.73 360.78,-20.61"/>
</a>
</g>
</g>
<!-- Node12 -->
<g id="Node000012" class="node">
<title>Node12</title>
<g id="a_Node000012"><a xlink:title=" ">
<polygon fill="#e0e0e0" stroke="#999999" points="772.2,-134.5 622.2,-134.5 622.2,-115.5 772.2,-115.5 772.2,-134.5"/>
<text text-anchor="middle" x="697.2" y="-122.5" font-family="Helvetica,sans-Serif" font-size="10.00">boost/program_options.hpp</text>
</a>
</g>
</g>
<!-- Node1&#45;&gt;Node12 -->
<g id="edge17_Node000001_Node000012" class="edge">
<title>Node1&#45;&gt;Node12</title>
<g id="a_edge17_Node000001_Node000012"><a xlink:title=" ">
<path fill="none" stroke="#63b8ff" d="M697.2,-175.87C697.2,-167.75 697.2,-155.31 697.2,-144.89"/>
<polygon fill="#63b8ff" stroke="#63b8ff" points="700.7,-144.67 697.2,-134.67 693.7,-144.67 700.7,-144.67"/>
</a>
</g>
</g>
<!-- Node13 -->
<g id="Node000013" class="node">
<title>Node13</title>
<g id="a_Node000013"><a xlink:title=" ">
<polygon fill="#e0e0e0" stroke="#999999" points="919.7,-140 790.7,-140 790.7,-110 919.7,-110 919.7,-140"/>
<text text-anchor="start" x="798.7" y="-128" font-family="Helvetica,sans-Serif" font-size="10.00">boost/program_options</text>
<text text-anchor="middle" x="855.2" y="-117" font-family="Helvetica,sans-Serif" font-size="10.00">/value_semantic.hpp</text>
</a>
</g>
</g>
<!-- Node1&#45;&gt;Node13 -->
<g id="edge18_Node000001_Node000013" class="edge">
<title>Node1&#45;&gt;Node13</title>
<g id="a_edge18_Node000001_Node000013"><a xlink:title=" ">
<path fill="none" stroke="#63b8ff" d="M720.18,-175.99C743.01,-167.54 778.72,-154.32 807.68,-143.59"/>
<polygon fill="#63b8ff" stroke="#63b8ff" points="809.05,-146.82 817.22,-140.06 806.62,-140.25 809.05,-146.82"/>
</a>
</g>
</g>
<!-- Node14 -->
<g id="Node000014" class="node">
<title>Node14</title>
<g id="a_Node000014"><a xlink:title=" ">
<polygon fill="#e0e0e0" stroke="#999999" points="992.7,-134.5 937.7,-134.5 937.7,-115.5 992.7,-115.5 992.7,-134.5"/>
<text text-anchor="middle" x="965.2" y="-122.5" font-family="Helvetica,sans-Serif" font-size="10.00">fstream</text>
</a>
</g>
</g>
<!-- Node1&#45;&gt;Node14 -->
<g id="edge20_Node000001_Node000014" class="edge">
<title>Node1&#45;&gt;Node14</title>
<g id="a_edge20_Node000001_Node000014"><a xlink:title=" ">
<path fill="none" stroke="#63b8ff" d="M758,-175.93C805.21,-168.54 872.05,-156.45 929.2,-140 931.35,-139.38 933.55,-138.69 935.74,-137.95"/>
<polygon fill="#63b8ff" stroke="#63b8ff" points="937.03,-141.2 945.24,-134.5 934.65,-134.62 937.03,-141.2"/>
</a>
</g>
</g>
<!-- Node15 -->
<g id="Node000015" class="node">
<title>Node15</title>
<g id="a_Node000015"><a xlink:title=" ">
<polygon fill="#e0e0e0" stroke="#999999" points="1071.2,-134.5 1011.2,-134.5 1011.2,-115.5 1071.2,-115.5 1071.2,-134.5"/>
<text text-anchor="middle" x="1041.2" y="-122.5" font-family="Helvetica,sans-Serif" font-size="10.00">iostream</text>
</a>
</g>
</g>
<!-- Node1&#45;&gt;Node15 -->
<g id="edge21_Node000001_Node000015" class="edge">
<title>Node1&#45;&gt;Node15</title>
<g id="a_edge21_Node000001_Node000015"><a xlink:title=" ">
<path fill="none" stroke="#63b8ff" d="M759.83,-179.06C821.99,-172.79 919.65,-160.62 1002.2,-140 1004.71,-139.37 1007.27,-138.65 1009.84,-137.87"/>
<polygon fill="#63b8ff" stroke="#63b8ff" points="1011.19,-141.1 1019.57,-134.63 1008.98,-134.46 1011.19,-141.1"/>
</a>
</g>
</g>
<!-- Node3 -->
<g id="Node000003" class="node">
<title>Node3</title>
<g id="a_Node000003"><a xlink:href="bytecode_8hpp.html" target="_top" xlink:title=" ">
<polygon fill="white" stroke="#666666" points="444.7,-74 361.7,-74 361.7,-55 444.7,-55 444.7,-74"/>
<text text-anchor="middle" x="403.2" y="-62" font-family="Helvetica,sans-Serif" font-size="10.00">bytecode.hpp</text>
</a>
</g>
</g>
<!-- Node2&#45;&gt;Node3 -->
<g id="edge2_Node000002_Node000003" class="edge">
<title>Node2&#45;&gt;Node3</title>
<g id="a_edge2_Node000002_Node000003"><a xlink:title=" ">
<path fill="none" stroke="#63b8ff" d="M343.53,-115.37C354.39,-106.3 371.69,-91.84 384.87,-80.82"/>
<polygon fill="#63b8ff" stroke="#63b8ff" points="387.4,-83.27 392.83,-74.17 382.91,-77.89 387.4,-83.27"/>
</a>
</g>
</g>
<!-- Node2&#45;&gt;Node4 -->
<g id="edge11_Node000002_Node000004" class="edge">
<title>Node2&#45;&gt;Node4</title>
<g id="a_edge11_Node000002_Node000004"><a xlink:title=" ">
<path fill="none" stroke="#63b8ff" d="M373.6,-119.29C426.48,-112.27 515.06,-97.36 537.2,-74 548.41,-62.18 550.76,-43.34 550.7,-29.25"/>
<polygon fill="#63b8ff" stroke="#63b8ff" points="554.2,-29.02 550.26,-19.19 547.2,-29.33 554.2,-29.02"/>
</a>
</g>
</g>
<!-- Node2&#45;&gt;Node6 -->
<g id="edge13_Node000002_Node000006" class="edge">
<title>Node2&#45;&gt;Node6</title>
<g id="a_edge13_Node000002_Node000006"><a xlink:title=" ">
<path fill="none" stroke="#63b8ff" d="M334.26,-115.46C336.22,-101.93 341.23,-75.06 352.2,-55 358.03,-44.34 366.89,-34.13 374.79,-26.18"/>
<polygon fill="#63b8ff" stroke="#63b8ff" points="377.42,-28.5 382.22,-19.06 372.58,-23.45 377.42,-28.5"/>
</a>
</g>
</g>
<!-- Node7 -->
<g id="Node000007" class="node">
<title>Node7</title>
<g id="a_Node000007"><a xlink:title=" ">
<polygon fill="#e0e0e0" stroke="#999999" points="340.7,-19 293.7,-19 293.7,0 340.7,0 340.7,-19"/>
<text text-anchor="middle" x="317.2" y="-7" font-family="Helvetica,sans-Serif" font-size="10.00">vector</text>
</a>
</g>
</g>
<!-- Node2&#45;&gt;Node7 -->
<g id="edge15_Node000002_Node000007" class="edge">
<title>Node2&#45;&gt;Node7</title>
<g id="a_edge15_Node000002_Node000007"><a xlink:title=" ">
<path fill="none" stroke="#63b8ff" d="M330.07,-115.29C326.68,-105.42 321.47,-88.79 319.2,-74 316.92,-59.14 316.5,-42.11 316.61,-29.43"/>
<polygon fill="#63b8ff" stroke="#63b8ff" points="320.11,-29.26 316.82,-19.19 313.11,-29.12 320.11,-29.26"/>
</a>
</g>
</g>
<!-- Node8 -->
<g id="Node000008" class="node">
<title>Node8</title>
<g id="a_Node000008"><a xlink:href="types_8hpp.html" target="_top" xlink:title=" ">
<polygon fill="white" stroke="#666666" points="527.7,-74 462.7,-74 462.7,-55 527.7,-55 527.7,-74"/>
<text text-anchor="middle" x="495.2" y="-62" font-family="Helvetica,sans-Serif" font-size="10.00">types.hpp</text>
</a>
</g>
</g>
<!-- Node2&#45;&gt;Node8 -->
<g id="edge7_Node000002_Node000008" class="edge">
<title>Node2&#45;&gt;Node8</title>
<g id="a_edge7_Node000002_Node000008"><a xlink:title=" ">
<path fill="none" stroke="#63b8ff" d="M356.76,-115.49C384.47,-105.49 430.67,-88.8 462.01,-77.49"/>
<polygon fill="#63b8ff" stroke="#63b8ff" points="463.4,-80.71 471.62,-74.02 461.02,-74.12 463.4,-80.71"/>
</a>
</g>
</g>
<!-- Node9 -->
<g id="Node000009" class="node">
<title>Node9</title>
<g id="a_Node000009"><a xlink:title=" ">
<polygon fill="#e0e0e0" stroke="#999999" points="79.7,-74 14.7,-74 14.7,-55 79.7,-55 79.7,-74"/>
<text text-anchor="middle" x="47.2" y="-62" font-family="Helvetica,sans-Serif" font-size="10.00">exception</text>
</a>
</g>
</g>
<!-- Node2&#45;&gt;Node9 -->
<g id="edge12_Node000002_Node000009" class="edge">
<title>Node2&#45;&gt;Node9</title>
<g id="a_edge12_Node000002_Node000009"><a xlink:title=" ">
<path fill="none" stroke="#63b8ff" d="M292.88,-115.81C246.3,-106.34 167.11,-90.22 89.78,-74.32"/>
<polygon fill="#63b8ff" stroke="#63b8ff" points="90.37,-70.87 79.87,-72.28 88.96,-77.73 90.37,-70.87"/>
</a>
</g>
</g>
<!-- Node10 -->
<g id="Node000010" class="node">
<title>Node10</title>
<g id="a_Node000010"><a xlink:title=" ">
<polygon fill="#e0e0e0" stroke="#999999" points="190.7,-74 97.7,-74 97.7,-55 190.7,-55 190.7,-74"/>
<text text-anchor="middle" x="144.2" y="-62" font-family="Helvetica,sans-Serif" font-size="10.00">unordered_map</text>
</a>
</g>
</g>
<!-- Node2&#45;&gt;Node10 -->
<g id="edge14_Node000002_Node000010" class="edge">
<title>Node2&#45;&gt;Node10</title>
<g id="a_edge14_Node000002_Node000010"><a xlink:title=" ">
<path fill="none" stroke="#63b8ff" d="M305.72,-115.49C272.97,-105.36 218.08,-88.37 181.51,-77.05"/>
<polygon fill="#63b8ff" stroke="#63b8ff" points="182.3,-73.63 171.72,-74.02 180.23,-80.32 182.3,-73.63"/>
</a>
</g>
</g>
<!-- Node11 -->
<g id="Node000011" class="node">
<title>Node11</title>
<g id="a_Node000011"><a xlink:title=" ">
<polygon fill="#e0e0e0" stroke="#999999" points="267.2,-74 209.2,-74 209.2,-55 267.2,-55 267.2,-74"/>
<text text-anchor="middle" x="238.2" y="-62" font-family="Helvetica,sans-Serif" font-size="10.00">memory</text>
</a>
</g>
</g>
<!-- Node2&#45;&gt;Node11 -->
<g id="edge16_Node000002_Node000011" class="edge">
<title>Node2&#45;&gt;Node11</title>
<g id="a_edge16_Node000002_Node000011"><a xlink:title=" ">
<path fill="none" stroke="#63b8ff" d="M319.18,-115.37C303.89,-105.95 279.17,-90.73 261.06,-79.58"/>
<polygon fill="#63b8ff" stroke="#63b8ff" points="262.63,-76.43 252.28,-74.17 258.96,-82.39 262.63,-76.43"/>
</a>
</g>
</g>
<!-- Node3&#45;&gt;Node4 -->
<g id="edge3_Node000003_Node000004" class="edge">
<title>Node3&#45;&gt;Node4</title>
<g id="a_edge3_Node000003_Node000004"><a xlink:title=" ">
<path fill="none" stroke="#63b8ff" d="M426.66,-54.98C450.78,-46.23 488.57,-32.51 515.8,-22.62"/>
<polygon fill="#63b8ff" stroke="#63b8ff" points="517.11,-25.87 525.32,-19.17 514.72,-19.29 517.11,-25.87"/>
</a>
</g>
</g>
<!-- Node5 -->
<g id="Node000005" class="node">
<title>Node5</title>
<g id="a_Node000005"><a xlink:title=" ">
<polygon fill="#e0e0e0" stroke="#999999" points="498.7,-19 445.7,-19 445.7,0 498.7,0 498.7,-19"/>
<text text-anchor="middle" x="472.2" y="-7" font-family="Helvetica,sans-Serif" font-size="10.00">cstddef</text>
</a>
</g>
</g>
<!-- Node3&#45;&gt;Node5 -->
<g id="edge4_Node000003_Node000005" class="edge">
<title>Node3&#45;&gt;Node5</title>
<g id="a_edge4_Node000003_Node000005"><a xlink:title=" ">
<path fill="none" stroke="#63b8ff" d="M414.29,-54.98C424.69,-47 440.46,-34.88 452.92,-25.31"/>
<polygon fill="#63b8ff" stroke="#63b8ff" points="455.12,-28.04 460.91,-19.17 450.85,-22.49 455.12,-28.04"/>
</a>
</g>
</g>
<!-- Node3&#45;&gt;Node6 -->
<g id="edge5_Node000003_Node000006" class="edge">
<title>Node3&#45;&gt;Node6</title>
<g id="a_edge5_Node000003_Node000006"><a xlink:title=" ">
<path fill="none" stroke="#63b8ff" d="M401.39,-54.75C399.94,-47.8 397.88,-37.85 396.07,-29.13"/>
<polygon fill="#63b8ff" stroke="#63b8ff" points="399.44,-28.17 393.98,-19.09 392.59,-29.59 399.44,-28.17"/>
</a>
</g>
</g>
<!-- Node3&#45;&gt;Node7 -->
<g id="edge6_Node000003_Node000007" class="edge">
<title>Node3&#45;&gt;Node7</title>
<g id="a_edge6_Node000003_Node000007"><a xlink:title=" ">
<path fill="none" stroke="#63b8ff" d="M389.38,-54.98C376.05,-46.77 355.62,-34.18 339.9,-24.49"/>
<polygon fill="#63b8ff" stroke="#63b8ff" points="341.62,-21.44 331.27,-19.17 337.95,-27.4 341.62,-21.44"/>
</a>
</g>
</g>
<!-- Node8&#45;&gt;Node4 -->
<g id="edge9_Node000008_Node000004" class="edge">
<title>Node8&#45;&gt;Node4</title>
<g id="a_edge9_Node000008_Node000004"><a xlink:title=" ">
<path fill="none" stroke="#63b8ff" d="M504.12,-54.75C511.98,-47.03 523.63,-35.6 533.12,-26.28"/>
<polygon fill="#63b8ff" stroke="#63b8ff" points="535.77,-28.59 540.45,-19.09 530.86,-23.6 535.77,-28.59"/>
</a>
</g>
</g>
<!-- Node8&#45;&gt;Node5 -->
<g id="edge8_Node000008_Node000005" class="edge">
<title>Node8&#45;&gt;Node5</title>
<g id="a_edge8_Node000008_Node000005"><a xlink:title=" ">
<path fill="none" stroke="#63b8ff" d="M491.4,-54.75C488.29,-47.57 483.78,-37.18 479.91,-28.27"/>
<polygon fill="#63b8ff" stroke="#63b8ff" points="483.12,-26.87 475.93,-19.09 476.7,-29.66 483.12,-26.87"/>
</a>
</g>
</g>
<!-- Node8&#45;&gt;Node6 -->
<g id="edge10_Node000008_Node000006" class="edge">
<title>Node8&#45;&gt;Node6</title>
<g id="a_edge10_Node000008_Node000006"><a xlink:title=" ">
<path fill="none" stroke="#63b8ff" d="M478.65,-54.98C462.31,-46.57 437.07,-33.59 418.07,-23.81"/>
<polygon fill="#63b8ff" stroke="#63b8ff" points="419.54,-20.63 409.05,-19.17 416.34,-26.86 419.54,-20.63"/>
</a>
</g>
</g>
</g>
</svg>
