<?xml version="1.0" encoding="UTF-8" standalone="no"?>
<!DOCTYPE svg PUBLIC "-//W3C//DTD SVG 1.1//EN"
 "http://www.w3.org/Graphics/SVG/1.1/DTD/svg11.dtd">
<!-- Generated by graphviz version 2.43.0 (0)
 -->
<!-- Title: src/compiler/compile.cpp Pages: 1 -->
<svg width="903pt" height="192pt"
 viewBox="0.00 0.00 902.50 192.00" xmlns="http://www.w3.org/2000/svg" xmlns:xlink="http://www.w3.org/1999/xlink">
<g id="graph0" class="graph" transform="scale(1 1) rotate(0) translate(4 188)">
<title>src/compiler/compile.cpp</title>
<!-- Node1 -->
<g id="Node000001" class="node">
<title>Node1</title>
<g id="a_Node000001"><a xlink:title=" ">
<polygon fill="#999999" stroke="#666666" points="470.5,-184 331.5,-184 331.5,-165 470.5,-165 470.5,-184"/>
<text text-anchor="middle" x="401" y="-172" font-family="Helvetica,sans-Serif" font-size="10.00">src/compiler/compile.cpp</text>
</a>
</g>
</g>
<!-- Node2 -->
<g id="Node000002" class="node">
<title>Node2</title>
<g id="a_Node000002"><a xlink:href="bytecode_8hpp.html" target="_top" xlink:title=" ">
<polygon fill="white" stroke="#666666" points="408.5,-74 325.5,-74 325.5,-55 408.5,-55 408.5,-74"/>
<text text-anchor="middle" x="367" y="-62" font-family="Helvetica,sans-Serif" font-size="10.00">bytecode.hpp</text>
</a>
</g>
</g>
<!-- Node1&#45;&gt;Node2 -->
<g id="edge1_Node000001_Node000002" class="edge">
<title>Node1&#45;&gt;Node2</title>
<g id="a_edge1_Node000001_Node000002"><a xlink:title=" ">
<path fill="none" stroke="#63b8ff" d="M398.04,-165C394.95,-156.06 390,-141.59 386,-129 381.2,-113.9 376.07,-96.68 372.35,-83.98"/>
<polygon fill="#63b8ff" stroke="#63b8ff" points="375.64,-82.78 369.49,-74.16 368.92,-84.74 375.64,-82.78"/>
</a>
</g>
</g>
<!-- Node3 -->
<g id="Node000003" class="node">
<title>Node3</title>
<g id="a_Node000003"><a xlink:title=" ">
<polygon fill="#e0e0e0" stroke="#999999" points="234,-19 184,-19 184,0 234,0 234,-19"/>
<text text-anchor="middle" x="209" y="-7" font-family="Helvetica,sans-Serif" font-size="10.00">cstdint</text>
</a>
</g>
</g>
<!-- Node1&#45;&gt;Node3 -->
<g id="edge22_Node000001_Node000003" class="edge">
<title>Node1&#45;&gt;Node3</title>
<g id="a_edge22_Node000001_Node000003"><a xlink:title=" ">
<path fill="none" stroke="#63b8ff" d="M344.19,-164.94C316.86,-158.59 284.93,-147.67 261,-129 229.07,-104.09 216.32,-55.51 211.58,-28.94"/>
<polygon fill="#63b8ff" stroke="#63b8ff" points="215.03,-28.36 210,-19.04 208.12,-29.46 215.03,-28.36"/>
</a>
</g>
</g>
<!-- Node4 -->
<g id="Node000004" class="node">
<title>Node4</title>
<g id="a_Node000004"><a xlink:title=" ">
<polygon fill="#e0e0e0" stroke="#999999" points="305.5,-19 252.5,-19 252.5,0 305.5,0 305.5,-19"/>
<text text-anchor="middle" x="279" y="-7" font-family="Helvetica,sans-Serif" font-size="10.00">cstddef</text>
</a>
</g>
</g>
<!-- Node1&#45;&gt;Node4 -->
<g id="edge21_Node000001_Node000004" class="edge">
<title>Node1&#45;&gt;Node4</title>
<g id="a_edge21_Node000001_Node000004"><a xlink:title=" ">
<path fill="none" stroke="#63b8ff" d="M368.63,-164.97C328.55,-152.48 262.04,-124.95 233,-74 222.9,-56.27 240.39,-37.54 256.63,-25.05"/>
<polygon fill="#63b8ff" stroke="#63b8ff" points="258.78,-27.81 264.86,-19.13 254.69,-22.13 258.78,-27.81"/>
</a>
</g>
</g>
<!-- Node7 -->
<g id="Node000007" class="node">
<title>Node7</title>
<g id="a_Node000007"><a xlink:href="compiler_8hpp.html" target="_top" xlink:title=" ">
<polygon fill="white" stroke="#666666" points="475,-129 395,-129 395,-110 475,-110 475,-129"/>
<text text-anchor="middle" x="435" y="-117" font-family="Helvetica,sans-Serif" font-size="10.00">compiler.hpp</text>
</a>
</g>
</g>
<!-- Node1&#45;&gt;Node7 -->
<g id="edge6_Node000001_Node000007" class="edge">
<title>Node1&#45;&gt;Node7</title>
<g id="a_edge6_Node000001_Node000007"><a xlink:title=" ">
<path fill="none" stroke="#63b8ff" d="M406.61,-164.75C411.32,-157.42 418.17,-146.73 423.97,-137.7"/>
<polygon fill="#63b8ff" stroke="#63b8ff" points="427.04,-139.4 429.49,-129.09 421.14,-135.62 427.04,-139.4"/>
</a>
</g>
</g>
<!-- Node9 -->
<g id="Node000009" class="node">
<title>Node9</title>
<g id="a_Node000009"><a xlink:href="types_8hpp.html" target="_top" xlink:title=" ">
<polygon fill="white" stroke="#666666" points="307.5,-74 242.5,-74 242.5,-55 307.5,-55 307.5,-74"/>
<text text-anchor="middle" x="275" y="-62" font-family="Helvetica,sans-Serif" font-size="10.00">types.hpp</text>
</a>
</g>
</g>
<!-- Node1&#45;&gt;Node9 -->
<g id="edge26_Node000001_Node000009" class="edge">
<title>Node1&#45;&gt;Node9</title>
<g id="a_edge26_Node000001_Node000009"><a xlink:title=" ">
<path fill="none" stroke="#63b8ff" d="M390.69,-164.66C369.26,-146.3 319.7,-103.81 292.93,-80.87"/>
<polygon fill="#63b8ff" stroke="#63b8ff" points="294.97,-78.01 285.1,-74.16 290.42,-83.32 294.97,-78.01"/>
</a>
</g>
</g>
<!-- Node10 -->
<g id="Node000010" class="node">
<title>Node10</title>
<g id="a_Node000010"><a xlink:title=" ">
<polygon fill="#e0e0e0" stroke="#999999" points="894.5,-74 829.5,-74 829.5,-55 894.5,-55 894.5,-74"/>
<text text-anchor="middle" x="862" y="-62" font-family="Helvetica,sans-Serif" font-size="10.00">exception</text>
</a>
</g>
</g>
<!-- Node1&#45;&gt;Node10 -->
<g id="edge23_Node000001_Node000010" class="edge">
<title>Node1&#45;&gt;Node10</title>
<g id="a_edge23_Node000001_Node000010"><a xlink:title=" ">
<path fill="none" stroke="#63b8ff" d="M417.04,-164.96C448.87,-148.05 517.42,-111.76 523,-110 640.57,-72.98 675.79,-90.11 798,-74 804.87,-73.09 812.15,-72.13 819.25,-71.19"/>
<polygon fill="#63b8ff" stroke="#63b8ff" points="819.99,-74.62 829.44,-69.84 819.07,-67.68 819.99,-74.62"/>
</a>
</g>
</g>
<!-- Node13 -->
<g id="Node000013" class="node">
<title>Node13</title>
<g id="a_Node000013"><a xlink:title=" ">
<polygon fill="#e0e0e0" stroke="#999999" points="628.5,-129 531.5,-129 531.5,-110 628.5,-110 628.5,-129"/>
<text text-anchor="middle" x="580" y="-117" font-family="Helvetica,sans-Serif" font-size="10.00">compiler/errno.h</text>
</a>
</g>
</g>
<!-- Node1&#45;&gt;Node13 -->
<g id="edge20_Node000001_Node000013" class="edge">
<title>Node1&#45;&gt;Node13</title>
<g id="a_edge20_Node000001_Node000013"><a xlink:title=" ">
<path fill="none" stroke="#63b8ff" d="M429.76,-164.98C459.94,-156.05 507.57,-141.94 541.1,-132.02"/>
<polygon fill="#63b8ff" stroke="#63b8ff" points="542.42,-135.28 551.02,-129.08 540.43,-128.57 542.42,-135.28"/>
</a>
</g>
</g>
<!-- Node14 -->
<g id="Node000014" class="node">
<title>Node14</title>
<g id="a_Node000014"><a xlink:title=" ">
<polygon fill="#e0e0e0" stroke="#999999" points="707,-129 647,-129 647,-110 707,-110 707,-129"/>
<text text-anchor="middle" x="677" y="-117" font-family="Helvetica,sans-Serif" font-size="10.00">iostream</text>
</a>
</g>
</g>
<!-- Node1&#45;&gt;Node14 -->
<g id="edge24_Node000001_Node000014" class="edge">
<title>Node1&#45;&gt;Node14</title>
<g id="a_edge24_Node000001_Node000014"><a xlink:title=" ">
<path fill="none" stroke="#63b8ff" d="M448.74,-164.96C494.51,-156.67 565.8,-143.52 636.77,-129.2"/>
<polygon fill="#63b8ff" stroke="#63b8ff" points="637.68,-132.59 646.78,-127.18 636.29,-125.73 637.68,-132.59"/>
</a>
</g>
</g>
<!-- Node15 -->
<g id="Node000015" class="node">
<title>Node15</title>
<g id="a_Node000015"><a xlink:title=" ">
<polygon fill="#e0e0e0" stroke="#999999" points="790.5,-129 725.5,-129 725.5,-110 790.5,-110 790.5,-129"/>
<text text-anchor="middle" x="758" y="-117" font-family="Helvetica,sans-Serif" font-size="10.00">stdexcept</text>
</a>
</g>
</g>
<!-- Node1&#45;&gt;Node15 -->
<g id="edge25_Node000001_Node000015" class="edge">
<title>Node1&#45;&gt;Node15</title>
<g id="a_edge25_Node000001_Node000015"><a xlink:title=" ">
<path fill="none" stroke="#63b8ff" d="M469.7,-164.99C531.38,-157.07 624.65,-144.43 715.55,-128.98"/>
<polygon fill="#63b8ff" stroke="#63b8ff" points="716.21,-132.42 725.48,-127.28 715.03,-125.52 716.21,-132.42"/>
</a>
</g>
</g>
<!-- Node16 -->
<g id="Node000016" class="node">
<title>Node16</title>
<g id="a_Node000016"><a xlink:href="vmreg__defines_8hpp.html" target="_top" xlink:title=" ">
<polygon fill="white" stroke="#666666" points="110,-129 0,-129 0,-110 110,-110 110,-129"/>
<text text-anchor="middle" x="55" y="-117" font-family="Helvetica,sans-Serif" font-size="10.00">vmreg_defines.hpp</text>
</a>
</g>
</g>
<!-- Node1&#45;&gt;Node16 -->
<g id="edge27_Node000001_Node000016" class="edge">
<title>Node1&#45;&gt;Node16</title>
<g id="a_edge27_Node000001_Node000016"><a xlink:title=" ">
<path fill="none" stroke="#63b8ff" d="M345.41,-164.98C284.03,-155.58 185.32,-140.46 120.3,-130.5"/>
<polygon fill="#63b8ff" stroke="#63b8ff" points="120.58,-127 110.17,-128.95 119.52,-133.92 120.58,-127"/>
</a>
</g>
</g>
<!-- Node2&#45;&gt;Node3 -->
<g id="edge2_Node000002_Node000003" class="edge">
<title>Node2&#45;&gt;Node3</title>
<g id="a_edge2_Node000002_Node000003"><a xlink:title=" ">
<path fill="none" stroke="#63b8ff" d="M341.61,-54.98C315.05,-46.07 273.16,-32.02 243.58,-22.1"/>
<polygon fill="#63b8ff" stroke="#63b8ff" points="244.66,-18.77 234.06,-18.91 242.43,-25.41 244.66,-18.77"/>
</a>
</g>
</g>
<!-- Node2&#45;&gt;Node4 -->
<g id="edge3_Node000002_Node000004" class="edge">
<title>Node2&#45;&gt;Node4</title>
<g id="a_edge3_Node000002_Node000004"><a xlink:title=" ">
<path fill="none" stroke="#63b8ff" d="M352.86,-54.98C339.21,-46.77 318.31,-34.18 302.22,-24.49"/>
<polygon fill="#63b8ff" stroke="#63b8ff" points="303.77,-21.33 293.4,-19.17 300.16,-27.33 303.77,-21.33"/>
</a>
</g>
</g>
<!-- Node5 -->
<g id="Node000005" class="node">
<title>Node5</title>
<g id="a_Node000005"><a xlink:title=" ">
<polygon fill="#e0e0e0" stroke="#999999" points="462,-19 418,-19 418,0 462,0 462,-19"/>
<text text-anchor="middle" x="440" y="-7" font-family="Helvetica,sans-Serif" font-size="10.00">string</text>
</a>
</g>
</g>
<!-- Node2&#45;&gt;Node5 -->
<g id="edge4_Node000002_Node000005" class="edge">
<title>Node2&#45;&gt;Node5</title>
<g id="a_edge4_Node000002_Node000005"><a xlink:title=" ">
<path fill="none" stroke="#63b8ff" d="M378.73,-54.98C389.73,-47 406.42,-34.88 419.6,-25.31"/>
<polygon fill="#63b8ff" stroke="#63b8ff" points="422.02,-27.88 428.06,-19.17 417.91,-22.21 422.02,-27.88"/>
</a>
</g>
</g>
<!-- Node6 -->
<g id="Node000006" class="node">
<title>Node6</title>
<g id="a_Node000006"><a xlink:title=" ">
<polygon fill="#e0e0e0" stroke="#999999" points="712.5,-19 665.5,-19 665.5,0 712.5,0 712.5,-19"/>
<text text-anchor="middle" x="689" y="-7" font-family="Helvetica,sans-Serif" font-size="10.00">vector</text>
</a>
</g>
</g>
<!-- Node2&#45;&gt;Node6 -->
<g id="edge5_Node000002_Node000006" class="edge">
<title>Node2&#45;&gt;Node6</title>
<g id="a_edge5_Node000002_Node000006"><a xlink:title=" ">
<path fill="none" stroke="#63b8ff" d="M408.75,-56.53C411.88,-56.01 414.99,-55.5 418,-55 503.42,-40.87 604.01,-24.4 655.27,-16.01"/>
<polygon fill="#63b8ff" stroke="#63b8ff" points="656.13,-19.42 665.43,-14.35 655,-12.51 656.13,-19.42"/>
</a>
</g>
</g>
<!-- Node7&#45;&gt;Node2 -->
<g id="edge7_Node000007_Node000002" class="edge">
<title>Node7&#45;&gt;Node2</title>
<g id="a_edge7_Node000007_Node000002"><a xlink:title=" ">
<path fill="none" stroke="#63b8ff" d="M424.07,-109.98C413.92,-102.07 398.58,-90.11 386.35,-80.58"/>
<polygon fill="#63b8ff" stroke="#63b8ff" points="388.16,-77.56 378.12,-74.17 383.86,-83.08 388.16,-77.56"/>
</a>
</g>
</g>
<!-- Node7&#45;&gt;Node3 -->
<g id="edge14_Node000007_Node000003" class="edge">
<title>Node7&#45;&gt;Node3</title>
<g id="a_edge14_Node000007_Node000003"><a xlink:title=" ">
<path fill="none" stroke="#63b8ff" d="M394.71,-114.18C342.92,-107.88 256.83,-94.61 233,-74 220.06,-62.81 214.08,-43.88 211.32,-29.6"/>
<polygon fill="#63b8ff" stroke="#63b8ff" points="214.73,-28.72 209.74,-19.38 207.81,-29.8 214.73,-28.72"/>
</a>
</g>
</g>
<!-- Node7&#45;&gt;Node5 -->
<g id="edge16_Node000007_Node000005" class="edge">
<title>Node7&#45;&gt;Node5</title>
<g id="a_edge16_Node000007_Node000005"><a xlink:title=" ">
<path fill="none" stroke="#63b8ff" d="M454.27,-109.9C468.12,-102.55 485.76,-90.54 494,-74 503.6,-54.74 483.83,-36.44 465.58,-24.47"/>
<polygon fill="#63b8ff" stroke="#63b8ff" points="467.22,-21.38 456.87,-19.13 463.56,-27.34 467.22,-21.38"/>
</a>
</g>
</g>
<!-- Node7&#45;&gt;Node6 -->
<g id="edge18_Node000007_Node000006" class="edge">
<title>Node7&#45;&gt;Node6</title>
<g id="a_edge18_Node000007_Node000006"><a xlink:title=" ">
<path fill="none" stroke="#63b8ff" d="M475.08,-112.04C479.77,-111.33 484.49,-110.63 489,-110 553.97,-100.9 738.53,-123.13 782,-74 803.69,-49.48 757.21,-29.86 722.46,-19.23"/>
<polygon fill="#63b8ff" stroke="#63b8ff" points="723.17,-15.79 712.59,-16.35 721.21,-22.51 723.17,-15.79"/>
</a>
</g>
</g>
<!-- Node8 -->
<g id="Node000008" class="node">
<title>Node8</title>
<g id="a_Node000008"><a xlink:href="params_8hpp.html" target="_top" xlink:title=" ">
<polygon fill="white" stroke="#666666" points="661,-74 541,-74 541,-55 661,-55 661,-74"/>
<text text-anchor="middle" x="601" y="-62" font-family="Helvetica,sans-Serif" font-size="10.00">compiler/params.hpp</text>
</a>
</g>
</g>
<!-- Node7&#45;&gt;Node8 -->
<g id="edge8_Node000007_Node000008" class="edge">
<title>Node7&#45;&gt;Node8</title>
<g id="a_edge8_Node000007_Node000008"><a xlink:title=" ">
<path fill="none" stroke="#63b8ff" d="M461.67,-109.98C489.54,-101.09 533.45,-87.07 564.52,-77.15"/>
<polygon fill="#63b8ff" stroke="#63b8ff" points="565.66,-80.46 574.12,-74.08 563.53,-73.79 565.66,-80.46"/>
</a>
</g>
</g>
<!-- Node7&#45;&gt;Node9 -->
<g id="edge10_Node000007_Node000009" class="edge">
<title>Node7&#45;&gt;Node9</title>
<g id="a_edge10_Node000007_Node000009"><a xlink:title=" ">
<path fill="none" stroke="#63b8ff" d="M409.29,-109.98C382.55,-101.13 340.47,-87.19 310.55,-77.28"/>
<polygon fill="#63b8ff" stroke="#63b8ff" points="311.5,-73.9 300.91,-74.08 309.3,-80.55 311.5,-73.9"/>
</a>
</g>
</g>
<!-- Node7&#45;&gt;Node10 -->
<g id="edge15_Node000007_Node000010" class="edge">
<title>Node7&#45;&gt;Node10</title>
<g id="a_edge15_Node000007_Node000010"><a xlink:title=" ">
<path fill="none" stroke="#63b8ff" d="M475.07,-111.98C479.76,-111.28 484.48,-110.6 489,-110 633.48,-90.66 670.75,-94.98 815,-74 816.46,-73.79 817.95,-73.56 819.45,-73.33"/>
<polygon fill="#63b8ff" stroke="#63b8ff" points="820.13,-76.76 829.43,-71.69 819,-69.86 820.13,-76.76"/>
</a>
</g>
</g>
<!-- Node11 -->
<g id="Node000011" class="node">
<title>Node11</title>
<g id="a_Node000011"><a xlink:title=" ">
<polygon fill="#e0e0e0" stroke="#999999" points="772.5,-74 679.5,-74 679.5,-55 772.5,-55 772.5,-74"/>
<text text-anchor="middle" x="726" y="-62" font-family="Helvetica,sans-Serif" font-size="10.00">unordered_map</text>
</a>
</g>
</g>
<!-- Node7&#45;&gt;Node11 -->
<g id="edge17_Node000007_Node000011" class="edge">
<title>Node7&#45;&gt;Node11</title>
<g id="a_edge17_Node000007_Node000011"><a xlink:title=" ">
<path fill="none" stroke="#63b8ff" d="M475.16,-111.19C525.46,-102.02 611.97,-86.27 669.08,-75.87"/>
<polygon fill="#63b8ff" stroke="#63b8ff" points="669.83,-79.29 679.04,-74.05 668.57,-72.4 669.83,-79.29"/>
</a>
</g>
</g>
<!-- Node12 -->
<g id="Node000012" class="node">
<title>Node12</title>
<g id="a_Node000012"><a xlink:title=" ">
<polygon fill="#e0e0e0" stroke="#999999" points="485,-74 427,-74 427,-55 485,-55 485,-74"/>
<text text-anchor="middle" x="456" y="-62" font-family="Helvetica,sans-Serif" font-size="10.00">memory</text>
</a>
</g>
</g>
<!-- Node7&#45;&gt;Node12 -->
<g id="edge19_Node000007_Node000012" class="edge">
<title>Node7&#45;&gt;Node12</title>
<g id="a_edge19_Node000007_Node000012"><a xlink:title=" ">
<path fill="none" stroke="#63b8ff" d="M438.47,-109.75C441.28,-102.65 445.34,-92.4 448.85,-83.56"/>
<polygon fill="#63b8ff" stroke="#63b8ff" points="452.17,-84.68 452.6,-74.09 445.66,-82.1 452.17,-84.68"/>
</a>
</g>
</g>
<!-- Node8&#45;&gt;Node5 -->
<g id="edge9_Node000008_Node000005" class="edge">
<title>Node8&#45;&gt;Node5</title>
<g id="a_edge9_Node000008_Node000005"><a xlink:title=" ">
<path fill="none" stroke="#63b8ff" d="M575.13,-54.98C547.02,-45.73 502.08,-30.94 471.83,-20.98"/>
<polygon fill="#63b8ff" stroke="#63b8ff" points="472.77,-17.6 462.18,-17.8 470.58,-24.25 472.77,-17.6"/>
</a>
</g>
</g>
<!-- Node9&#45;&gt;Node3 -->
<g id="edge12_Node000009_Node000003" class="edge">
<title>Node9&#45;&gt;Node3</title>
<g id="a_edge12_Node000009_Node000003"><a xlink:title=" ">
<path fill="none" stroke="#63b8ff" d="M264.4,-54.98C254.54,-47.07 239.65,-35.11 227.78,-25.58"/>
<polygon fill="#63b8ff" stroke="#63b8ff" points="229.79,-22.7 219.8,-19.17 225.4,-28.16 229.79,-22.7"/>
</a>
</g>
</g>
<!-- Node9&#45;&gt;Node4 -->
<g id="edge11_Node000009_Node000004" class="edge">
<title>Node9&#45;&gt;Node4</title>
<g id="a_edge11_Node000009_Node000004"><a xlink:title=" ">
<path fill="none" stroke="#63b8ff" d="M275.66,-54.75C276.18,-47.8 276.94,-37.85 277.59,-29.13"/>
<polygon fill="#63b8ff" stroke="#63b8ff" points="281.09,-29.32 278.35,-19.09 274.11,-28.8 281.09,-29.32"/>
</a>
</g>
</g>
<!-- Node9&#45;&gt;Node5 -->
<g id="edge13_Node000009_Node000005" class="edge">
<title>Node9&#45;&gt;Node5</title>
<g id="a_edge13_Node000009_Node000005"><a xlink:title=" ">
<path fill="none" stroke="#63b8ff" d="M301.51,-54.98C330.48,-45.68 376.9,-30.77 407.91,-20.81"/>
<polygon fill="#63b8ff" stroke="#63b8ff" points="409.34,-24.03 417.79,-17.63 407.2,-17.36 409.34,-24.03"/>
</a>
</g>
</g>
<!-- Node16&#45;&gt;Node3 -->
<g id="edge28_Node000016_Node000003" class="edge">
<title>Node16&#45;&gt;Node3</title>
<g id="a_edge28_Node000016_Node000003"><a xlink:title=" ">
<path fill="none" stroke="#63b8ff" d="M62.89,-109.92C75.12,-96.95 99.77,-72.05 124,-55 141.54,-42.66 162.93,-31.48 179.87,-23.41"/>
<polygon fill="#63b8ff" stroke="#63b8ff" points="181.68,-26.43 189.26,-19.03 178.72,-20.08 181.68,-26.43"/>
</a>
</g>
</g>
</g>
</svg>
