<?xml version="1.0" encoding="UTF-8" standalone="no"?>
<!DOCTYPE svg PUBLIC "-//W3C//DTD SVG 1.1//EN"
 "http://www.w3.org/Graphics/SVG/1.1/DTD/svg11.dtd">
<!-- Generated by graphviz version 2.43.0 (0)
 -->
<!-- Title: src/compiler/CompilerSyntaxException.cpp Pages: 1 -->
<svg width="672pt" height="203pt"
 viewBox="0.00 0.00 671.78 203.00" xmlns="http://www.w3.org/2000/svg" xmlns:xlink="http://www.w3.org/1999/xlink">
<g id="graph0" class="graph" transform="scale(1 1) rotate(0) translate(4 199)">
<title>src/compiler/CompilerSyntaxException.cpp</title>
<!-- Node1 -->
<g id="Node000001" class="node">
<title>Node1</title>
<g id="a_Node000001"><a xlink:title=" ">
<polygon fill="#999999" stroke="#666666" points="192.28,-195 34.28,-195 34.28,-165 192.28,-165 192.28,-195"/>
<text text-anchor="start" x="42.28" y="-183" font-family="Helvetica,sans-Serif" font-size="10.00">src/compiler/CompilerSyntax</text>
<text text-anchor="middle" x="113.28" y="-172" font-family="Helvetica,sans-Serif" font-size="10.00">Exception.cpp</text>
</a>
</g>
</g>
<!-- Node2 -->
<g id="Node000002" class="node">
<title>Node2</title>
<g id="a_Node000002"><a xlink:href="compiler_8hpp.html" target="_top" xlink:title=" ">
<polygon fill="white" stroke="#666666" points="361.28,-129 281.28,-129 281.28,-110 361.28,-110 361.28,-129"/>
<text text-anchor="middle" x="321.28" y="-117" font-family="Helvetica,sans-Serif" font-size="10.00">compiler.hpp</text>
</a>
</g>
</g>
<!-- Node1&#45;&gt;Node2 -->
<g id="edge1_Node000001_Node000002" class="edge">
<title>Node1&#45;&gt;Node2</title>
<g id="a_edge1_Node000001_Node000002"><a xlink:title=" ">
<path fill="none" stroke="#63b8ff" d="M163.1,-164.99C199.16,-154.85 247.26,-141.32 280.92,-131.85"/>
<polygon fill="#63b8ff" stroke="#63b8ff" points="282.19,-135.13 290.87,-129.05 280.3,-128.39 282.19,-135.13"/>
</a>
</g>
</g>
<!-- Node6 -->
<g id="Node000006" class="node">
<title>Node6</title>
<g id="a_Node000006"><a xlink:title=" ">
<polygon fill="#e0e0e0" stroke="#999999" points="101.28,-19 57.28,-19 57.28,0 101.28,0 101.28,-19"/>
<text text-anchor="middle" x="79.28" y="-7" font-family="Helvetica,sans-Serif" font-size="10.00">string</text>
</a>
</g>
</g>
<!-- Node1&#45;&gt;Node6 -->
<g id="edge19_Node000001_Node000006" class="edge">
<title>Node1&#45;&gt;Node6</title>
<g id="a_edge19_Node000001_Node000006"><a xlink:title=" ">
<path fill="none" stroke="#63b8ff" d="M89.2,-164.82C62.2,-147.36 19.91,-114.93 2.28,-74 -8.29,-49.45 21.85,-31.42 47.47,-20.98"/>
<polygon fill="#63b8ff" stroke="#63b8ff" points="48.88,-24.19 56.97,-17.35 46.38,-17.65 48.88,-24.19"/>
</a>
</g>
</g>
<!-- Node3 -->
<g id="Node000003" class="node">
<title>Node3</title>
<g id="a_Node000003"><a xlink:href="bytecode_8hpp.html" target="_top" xlink:title=" ">
<polygon fill="white" stroke="#666666" points="594.78,-74 511.78,-74 511.78,-55 594.78,-55 594.78,-74"/>
<text text-anchor="middle" x="553.28" y="-62" font-family="Helvetica,sans-Serif" font-size="10.00">bytecode.hpp</text>
</a>
</g>
</g>
<!-- Node2&#45;&gt;Node3 -->
<g id="edge2_Node000002_Node000003" class="edge">
<title>Node2&#45;&gt;Node3</title>
<g id="a_edge2_Node000002_Node000003"><a xlink:title=" ">
<path fill="none" stroke="#63b8ff" d="M358.56,-109.98C398.6,-100.84 462.35,-86.27 505.92,-76.32"/>
<polygon fill="#63b8ff" stroke="#63b8ff" points="506.75,-79.72 515.72,-74.08 505.19,-72.9 506.75,-79.72"/>
</a>
</g>
</g>
<!-- Node4 -->
<g id="Node000004" class="node">
<title>Node4</title>
<g id="a_Node000004"><a xlink:title=" ">
<polygon fill="#e0e0e0" stroke="#999999" points="578.28,-19 528.28,-19 528.28,0 578.28,0 578.28,-19"/>
<text text-anchor="middle" x="553.28" y="-7" font-family="Helvetica,sans-Serif" font-size="10.00">cstdint</text>
</a>
</g>
</g>
<!-- Node2&#45;&gt;Node4 -->
<g id="edge13_Node000002_Node000004" class="edge">
<title>Node2&#45;&gt;Node4</title>
<g id="a_edge13_Node000002_Node000004"><a xlink:title=" ">
<path fill="none" stroke="#63b8ff" d="M361.33,-118.32C431.82,-117.07 573.5,-110.01 604.28,-74 618.55,-57.32 596.76,-37.52 577.4,-24.52"/>
<polygon fill="#63b8ff" stroke="#63b8ff" points="579.13,-21.47 568.81,-19.06 575.37,-27.38 579.13,-21.47"/>
</a>
</g>
</g>
<!-- Node2&#45;&gt;Node6 -->
<g id="edge15_Node000002_Node000006" class="edge">
<title>Node2&#45;&gt;Node6</title>
<g id="a_edge15_Node000002_Node000006"><a xlink:title=" ">
<path fill="none" stroke="#63b8ff" d="M281.2,-118.97C205.26,-118.9 44.9,-113.92 10.28,-74 -6.27,-54.91 22.6,-35.63 47.9,-23.41"/>
<polygon fill="#63b8ff" stroke="#63b8ff" points="49.7,-26.44 57.32,-19.08 46.78,-20.07 49.7,-26.44"/>
</a>
</g>
</g>
<!-- Node7 -->
<g id="Node000007" class="node">
<title>Node7</title>
<g id="a_Node000007"><a xlink:title=" ">
<polygon fill="#e0e0e0" stroke="#999999" points="663.78,-19 616.78,-19 616.78,0 663.78,0 663.78,-19"/>
<text text-anchor="middle" x="640.28" y="-7" font-family="Helvetica,sans-Serif" font-size="10.00">vector</text>
</a>
</g>
</g>
<!-- Node2&#45;&gt;Node7 -->
<g id="edge17_Node000002_Node000007" class="edge">
<title>Node2&#45;&gt;Node7</title>
<g id="a_edge17_Node000002_Node000007"><a xlink:title=" ">
<path fill="none" stroke="#63b8ff" d="M361.38,-117.66C433.71,-115.34 582.07,-106.63 620.28,-74 633.18,-62.99 637.87,-43.73 639.51,-29.3"/>
<polygon fill="#63b8ff" stroke="#63b8ff" points="643.03,-29.25 640.28,-19.02 636.05,-28.73 643.03,-29.25"/>
</a>
</g>
</g>
<!-- Node8 -->
<g id="Node000008" class="node">
<title>Node8</title>
<g id="a_Node000008"><a xlink:href="params_8hpp.html" target="_top" xlink:title=" ">
<polygon fill="white" stroke="#666666" points="139.28,-74 19.28,-74 19.28,-55 139.28,-55 139.28,-74"/>
<text text-anchor="middle" x="79.28" y="-62" font-family="Helvetica,sans-Serif" font-size="10.00">compiler/params.hpp</text>
</a>
</g>
</g>
<!-- Node2&#45;&gt;Node8 -->
<g id="edge7_Node000002_Node000008" class="edge">
<title>Node2&#45;&gt;Node8</title>
<g id="a_edge7_Node000002_Node000008"><a xlink:title=" ">
<path fill="none" stroke="#63b8ff" d="M282.4,-109.98C240.54,-100.82 173.85,-86.21 128.4,-76.26"/>
<polygon fill="#63b8ff" stroke="#63b8ff" points="128.99,-72.8 118.47,-74.08 127.49,-79.64 128.99,-72.8"/>
</a>
</g>
</g>
<!-- Node9 -->
<g id="Node000009" class="node">
<title>Node9</title>
<g id="a_Node000009"><a xlink:href="types_8hpp.html" target="_top" xlink:title=" ">
<polygon fill="white" stroke="#666666" points="222.78,-74 157.78,-74 157.78,-55 222.78,-55 222.78,-74"/>
<text text-anchor="middle" x="190.28" y="-62" font-family="Helvetica,sans-Serif" font-size="10.00">types.hpp</text>
</a>
</g>
</g>
<!-- Node2&#45;&gt;Node9 -->
<g id="edge9_Node000002_Node000009" class="edge">
<title>Node2&#45;&gt;Node9</title>
<g id="a_edge9_Node000002_Node000009"><a xlink:title=" ">
<path fill="none" stroke="#63b8ff" d="M300.23,-109.98C278.88,-101.34 245.58,-87.87 221.22,-78.02"/>
<polygon fill="#63b8ff" stroke="#63b8ff" points="222.3,-74.68 211.71,-74.17 219.67,-81.17 222.3,-74.68"/>
</a>
</g>
</g>
<!-- Node10 -->
<g id="Node000010" class="node">
<title>Node10</title>
<g id="a_Node000010"><a xlink:title=" ">
<polygon fill="#e0e0e0" stroke="#999999" points="305.78,-74 240.78,-74 240.78,-55 305.78,-55 305.78,-74"/>
<text text-anchor="middle" x="273.28" y="-62" font-family="Helvetica,sans-Serif" font-size="10.00">exception</text>
</a>
</g>
</g>
<!-- Node2&#45;&gt;Node10 -->
<g id="edge14_Node000002_Node000010" class="edge">
<title>Node2&#45;&gt;Node10</title>
<g id="a_edge14_Node000002_Node000010"><a xlink:title=" ">
<path fill="none" stroke="#63b8ff" d="M313.36,-109.75C306.44,-102.11 296.22,-90.82 287.83,-81.56"/>
<polygon fill="#63b8ff" stroke="#63b8ff" points="290.37,-79.15 281.06,-74.09 285.18,-83.85 290.37,-79.15"/>
</a>
</g>
</g>
<!-- Node11 -->
<g id="Node000011" class="node">
<title>Node11</title>
<g id="a_Node000011"><a xlink:title=" ">
<polygon fill="#e0e0e0" stroke="#999999" points="416.78,-74 323.78,-74 323.78,-55 416.78,-55 416.78,-74"/>
<text text-anchor="middle" x="370.28" y="-62" font-family="Helvetica,sans-Serif" font-size="10.00">unordered_map</text>
</a>
</g>
</g>
<!-- Node2&#45;&gt;Node11 -->
<g id="edge16_Node000002_Node000011" class="edge">
<title>Node2&#45;&gt;Node11</title>
<g id="a_edge16_Node000002_Node000011"><a xlink:title=" ">
<path fill="none" stroke="#63b8ff" d="M329.37,-109.75C336.44,-102.11 346.87,-90.82 355.43,-81.56"/>
<polygon fill="#63b8ff" stroke="#63b8ff" points="358.12,-83.81 362.34,-74.09 352.98,-79.06 358.12,-83.81"/>
</a>
</g>
</g>
<!-- Node12 -->
<g id="Node000012" class="node">
<title>Node12</title>
<g id="a_Node000012"><a xlink:title=" ">
<polygon fill="#e0e0e0" stroke="#999999" points="493.28,-74 435.28,-74 435.28,-55 493.28,-55 493.28,-74"/>
<text text-anchor="middle" x="464.28" y="-62" font-family="Helvetica,sans-Serif" font-size="10.00">memory</text>
</a>
</g>
</g>
<!-- Node2&#45;&gt;Node12 -->
<g id="edge18_Node000002_Node000012" class="edge">
<title>Node2&#45;&gt;Node12</title>
<g id="a_edge18_Node000002_Node000012"><a xlink:title=" ">
<path fill="none" stroke="#63b8ff" d="M344.26,-109.98C367.78,-101.27 404.57,-87.63 431.22,-77.75"/>
<polygon fill="#63b8ff" stroke="#63b8ff" points="432.73,-80.93 440.89,-74.17 430.3,-74.36 432.73,-80.93"/>
</a>
</g>
</g>
<!-- Node3&#45;&gt;Node4 -->
<g id="edge3_Node000003_Node000004" class="edge">
<title>Node3&#45;&gt;Node4</title>
<g id="a_edge3_Node000003_Node000004"><a xlink:title=" ">
<path fill="none" stroke="#63b8ff" d="M553.28,-54.75C553.28,-47.8 553.28,-37.85 553.28,-29.13"/>
<polygon fill="#63b8ff" stroke="#63b8ff" points="556.78,-29.09 553.28,-19.09 549.78,-29.09 556.78,-29.09"/>
</a>
</g>
</g>
<!-- Node5 -->
<g id="Node000005" class="node">
<title>Node5</title>
<g id="a_Node000005"><a xlink:title=" ">
<polygon fill="#e0e0e0" stroke="#999999" points="362.78,-19 309.78,-19 309.78,0 362.78,0 362.78,-19"/>
<text text-anchor="middle" x="336.28" y="-7" font-family="Helvetica,sans-Serif" font-size="10.00">cstddef</text>
</a>
</g>
</g>
<!-- Node3&#45;&gt;Node5 -->
<g id="edge4_Node000003_Node000005" class="edge">
<title>Node3&#45;&gt;Node5</title>
<g id="a_edge4_Node000003_Node000005"><a xlink:title=" ">
<path fill="none" stroke="#63b8ff" d="M518.42,-54.98C478.44,-45.22 413.2,-29.29 372.61,-19.37"/>
<polygon fill="#63b8ff" stroke="#63b8ff" points="373.4,-15.96 362.85,-16.99 371.74,-22.76 373.4,-15.96"/>
</a>
</g>
</g>
<!-- Node3&#45;&gt;Node6 -->
<g id="edge5_Node000003_Node000006" class="edge">
<title>Node3&#45;&gt;Node6</title>
<g id="a_edge5_Node000003_Node000006"><a xlink:title=" ">
<path fill="none" stroke="#63b8ff" d="M511.56,-56.34C508.43,-55.86 505.31,-55.41 502.28,-55 356.82,-35.25 182.2,-19.34 111.42,-13.21"/>
<polygon fill="#63b8ff" stroke="#63b8ff" points="111.62,-9.72 101.36,-12.35 111.02,-16.69 111.62,-9.72"/>
</a>
</g>
</g>
<!-- Node3&#45;&gt;Node7 -->
<g id="edge6_Node000003_Node000007" class="edge">
<title>Node3&#45;&gt;Node7</title>
<g id="a_edge6_Node000003_Node000007"><a xlink:title=" ">
<path fill="none" stroke="#63b8ff" d="M567.26,-54.98C580.75,-46.77 601.42,-34.18 617.32,-24.49"/>
<polygon fill="#63b8ff" stroke="#63b8ff" points="619.33,-27.36 626.05,-19.17 615.69,-21.38 619.33,-27.36"/>
</a>
</g>
</g>
<!-- Node8&#45;&gt;Node6 -->
<g id="edge8_Node000008_Node000006" class="edge">
<title>Node8&#45;&gt;Node6</title>
<g id="a_edge8_Node000008_Node000006"><a xlink:title=" ">
<path fill="none" stroke="#63b8ff" d="M79.28,-54.75C79.28,-47.8 79.28,-37.85 79.28,-29.13"/>
<polygon fill="#63b8ff" stroke="#63b8ff" points="82.78,-29.09 79.28,-19.09 75.78,-29.09 82.78,-29.09"/>
</a>
</g>
</g>
<!-- Node9&#45;&gt;Node4 -->
<g id="edge11_Node000009_Node000004" class="edge">
<title>Node9&#45;&gt;Node4</title>
<g id="a_edge11_Node000009_Node000004"><a xlink:title=" ">
<path fill="none" stroke="#63b8ff" d="M222.92,-56.53C225.74,-55.99 228.56,-55.47 231.28,-55 335.16,-37.08 458.87,-21.62 518.18,-14.57"/>
<polygon fill="#63b8ff" stroke="#63b8ff" points="518.62,-18.04 528.14,-13.39 517.8,-11.09 518.62,-18.04"/>
</a>
</g>
</g>
<!-- Node9&#45;&gt;Node5 -->
<g id="edge10_Node000009_Node000005" class="edge">
<title>Node9&#45;&gt;Node5</title>
<g id="a_edge10_Node000009_Node000005"><a xlink:title=" ">
<path fill="none" stroke="#63b8ff" d="M213.74,-54.98C237.86,-46.23 275.65,-32.51 302.89,-22.62"/>
<polygon fill="#63b8ff" stroke="#63b8ff" points="304.19,-25.87 312.4,-19.17 301.8,-19.29 304.19,-25.87"/>
</a>
</g>
</g>
<!-- Node9&#45;&gt;Node6 -->
<g id="edge12_Node000009_Node000006" class="edge">
<title>Node9&#45;&gt;Node6</title>
<g id="a_edge12_Node000009_Node000006"><a xlink:title=" ">
<path fill="none" stroke="#63b8ff" d="M172.45,-54.98C154.67,-46.5 127.14,-33.35 106.6,-23.54"/>
<polygon fill="#63b8ff" stroke="#63b8ff" points="107.97,-20.32 97.44,-19.17 104.96,-26.64 107.97,-20.32"/>
</a>
</g>
</g>
</g>
</svg>
