<?xml version="1.0" encoding="UTF-8" standalone="no"?>
<!DOCTYPE svg PUBLIC "-//W3C//DTD SVG 1.1//EN"
 "http://www.w3.org/Graphics/SVG/1.1/DTD/svg11.dtd">
<!-- Generated by graphviz version 2.43.0 (0)
 -->
<!-- Title: src/compiler/compile.cpp Pages: 1 -->
<svg width="942pt" height="192pt"
 viewBox="0.00 0.00 942.50 192.00" xmlns="http://www.w3.org/2000/svg" xmlns:xlink="http://www.w3.org/1999/xlink">
<g id="graph0" class="graph" transform="scale(1 1) rotate(0) translate(4 188)">
<title>src/compiler/compile.cpp</title>
<!-- Node1 -->
<g id="Node000001" class="node">
<title>Node1</title>
<g id="a_Node000001"><a xlink:title=" ">
<polygon fill="#999999" stroke="#666666" points="468.5,-184 329.5,-184 329.5,-165 468.5,-165 468.5,-184"/>
<text text-anchor="middle" x="399" y="-172" font-family="Helvetica,sans-Serif" font-size="10.00">src/compiler/compile.cpp</text>
</a>
</g>
</g>
<!-- Node2 -->
<g id="Node000002" class="node">
<title>Node2</title>
<g id="a_Node000002"><a xlink:href="bytecode_8hpp.html" target="_top" xlink:title=" ">
<polygon fill="white" stroke="#666666" points="344.5,-74 261.5,-74 261.5,-55 344.5,-55 344.5,-74"/>
<text text-anchor="middle" x="303" y="-62" font-family="Helvetica,sans-Serif" font-size="10.00">bytecode.hpp</text>
</a>
</g>
</g>
<!-- Node1&#45;&gt;Node2 -->
<g id="edge1_Node000001_Node000002" class="edge">
<title>Node1&#45;&gt;Node2</title>
<g id="a_edge1_Node000001_Node000002"><a xlink:title=" ">
<path fill="none" stroke="#63b8ff" d="M388.31,-164.85C377.99,-156.26 362.18,-142.47 350,-129 336.67,-114.27 323.38,-95.88 314.35,-82.69"/>
<polygon fill="#63b8ff" stroke="#63b8ff" points="317.07,-80.47 308.58,-74.13 311.27,-84.38 317.07,-80.47"/>
</a>
</g>
</g>
<!-- Node3 -->
<g id="Node000003" class="node">
<title>Node3</title>
<g id="a_Node000003"><a xlink:title=" ">
<polygon fill="#e0e0e0" stroke="#999999" points="170,-19 120,-19 120,0 170,0 170,-19"/>
<text text-anchor="middle" x="145" y="-7" font-family="Helvetica,sans-Serif" font-size="10.00">cstdint</text>
</a>
</g>
</g>
<!-- Node1&#45;&gt;Node3 -->
<g id="edge25_Node000001_Node000003" class="edge">
<title>Node1&#45;&gt;Node3</title>
<g id="a_edge25_Node000001_Node000003"><a xlink:title=" ">
<path fill="none" stroke="#63b8ff" d="M329.37,-170.48C223.18,-165.15 30.84,-152.36 10,-129 -28.52,-85.82 59.71,-42.98 111.19,-22.68"/>
<polygon fill="#63b8ff" stroke="#63b8ff" points="112.57,-25.9 120.65,-19.04 110.06,-19.36 112.57,-25.9"/>
</a>
</g>
</g>
<!-- Node4 -->
<g id="Node000004" class="node">
<title>Node4</title>
<g id="a_Node000004"><a xlink:title=" ">
<polygon fill="#e0e0e0" stroke="#999999" points="241.5,-19 188.5,-19 188.5,0 241.5,0 241.5,-19"/>
<text text-anchor="middle" x="215" y="-7" font-family="Helvetica,sans-Serif" font-size="10.00">cstddef</text>
</a>
</g>
</g>
<!-- Node1&#45;&gt;Node4 -->
<g id="edge24_Node000001_Node000004" class="edge">
<title>Node1&#45;&gt;Node4</title>
<g id="a_edge24_Node000001_Node000004"><a xlink:title=" ">
<path fill="none" stroke="#63b8ff" d="M333.36,-164.95C279.08,-154.02 205.38,-129.33 170,-74 159.02,-56.84 176.57,-37.88 192.86,-25.18"/>
<polygon fill="#63b8ff" stroke="#63b8ff" points="195.1,-27.88 201.1,-19.15 190.97,-22.23 195.1,-27.88"/>
</a>
</g>
</g>
<!-- Node7 -->
<g id="Node000007" class="node">
<title>Node7</title>
<g id="a_Node000007"><a xlink:href="compiler_8hpp.html" target="_top" xlink:title=" ">
<polygon fill="white" stroke="#666666" points="439,-129 359,-129 359,-110 439,-110 439,-129"/>
<text text-anchor="middle" x="399" y="-117" font-family="Helvetica,sans-Serif" font-size="10.00">compiler.hpp</text>
</a>
</g>
</g>
<!-- Node1&#45;&gt;Node7 -->
<g id="edge6_Node000001_Node000007" class="edge">
<title>Node1&#45;&gt;Node7</title>
<g id="a_edge6_Node000001_Node000007"><a xlink:title=" ">
<path fill="none" stroke="#63b8ff" d="M399,-164.75C399,-157.8 399,-147.85 399,-139.13"/>
<polygon fill="#63b8ff" stroke="#63b8ff" points="402.5,-139.09 399,-129.09 395.5,-139.09 402.5,-139.09"/>
</a>
</g>
</g>
<!-- Node11 -->
<g id="Node000011" class="node">
<title>Node11</title>
<g id="a_Node000011"><a xlink:href="types_8hpp.html" target="_top" xlink:title=" ">
<polygon fill="white" stroke="#666666" points="243.5,-74 178.5,-74 178.5,-55 243.5,-55 243.5,-74"/>
<text text-anchor="middle" x="211" y="-62" font-family="Helvetica,sans-Serif" font-size="10.00">types.hpp</text>
</a>
</g>
</g>
<!-- Node1&#45;&gt;Node11 -->
<g id="edge30_Node000001_Node000011" class="edge">
<title>Node1&#45;&gt;Node11</title>
<g id="a_edge30_Node000001_Node000011"><a xlink:title=" ">
<path fill="none" stroke="#63b8ff" d="M383.93,-164.84C351.4,-146.16 274.35,-101.9 235.01,-79.3"/>
<polygon fill="#63b8ff" stroke="#63b8ff" points="236.29,-75.99 225.87,-74.05 232.8,-82.06 236.29,-75.99"/>
</a>
</g>
</g>
<!-- Node12 -->
<g id="Node000012" class="node">
<title>Node12</title>
<g id="a_Node000012"><a xlink:title=" ">
<polygon fill="#e0e0e0" stroke="#999999" points="934.5,-74 869.5,-74 869.5,-55 934.5,-55 934.5,-74"/>
<text text-anchor="middle" x="902" y="-62" font-family="Helvetica,sans-Serif" font-size="10.00">exception</text>
</a>
</g>
</g>
<!-- Node1&#45;&gt;Node12 -->
<g id="edge26_Node000001_Node000012" class="edge">
<title>Node1&#45;&gt;Node12</title>
<g id="a_edge26_Node000001_Node000012"><a xlink:title=" ">
<path fill="none" stroke="#63b8ff" d="M407.78,-164.63C422.61,-150.28 454.21,-122.36 487,-110 640.2,-52.24 693.79,-97.16 859.35,-74.06"/>
<polygon fill="#63b8ff" stroke="#63b8ff" points="859.99,-77.5 869.38,-72.59 858.98,-70.57 859.99,-77.5"/>
</a>
</g>
</g>
<!-- Node15 -->
<g id="Node000015" class="node">
<title>Node15</title>
<g id="a_Node000015"><a xlink:title=" ">
<polygon fill="#e0e0e0" stroke="#999999" points="592.5,-129 495.5,-129 495.5,-110 592.5,-110 592.5,-129"/>
<text text-anchor="middle" x="544" y="-117" font-family="Helvetica,sans-Serif" font-size="10.00">compiler/errno.h</text>
</a>
</g>
</g>
<!-- Node1&#45;&gt;Node15 -->
<g id="edge23_Node000001_Node000015" class="edge">
<title>Node1&#45;&gt;Node15</title>
<g id="a_edge23_Node000001_Node000015"><a xlink:title=" ">
<path fill="none" stroke="#63b8ff" d="M422.29,-164.98C446.25,-156.23 483.78,-142.51 510.83,-132.62"/>
<polygon fill="#63b8ff" stroke="#63b8ff" points="512.08,-135.89 520.28,-129.17 509.68,-129.32 512.08,-135.89"/>
</a>
</g>
</g>
<!-- Node16 -->
<g id="Node000016" class="node">
<title>Node16</title>
<g id="a_Node000016"><a xlink:title=" ">
<polygon fill="#e0e0e0" stroke="#999999" points="671,-129 611,-129 611,-110 671,-110 671,-129"/>
<text text-anchor="middle" x="641" y="-117" font-family="Helvetica,sans-Serif" font-size="10.00">iostream</text>
</a>
</g>
</g>
<!-- Node1&#45;&gt;Node16 -->
<g id="edge27_Node000001_Node000016" class="edge">
<title>Node1&#45;&gt;Node16</title>
<g id="a_edge27_Node000001_Node000016"><a xlink:title=" ">
<path fill="none" stroke="#63b8ff" d="M437.88,-164.98C482.5,-155.21 555.34,-139.26 600.59,-129.35"/>
<polygon fill="#63b8ff" stroke="#63b8ff" points="601.62,-132.71 610.64,-127.15 600.12,-125.87 601.62,-132.71"/>
</a>
</g>
</g>
<!-- Node17 -->
<g id="Node000017" class="node">
<title>Node17</title>
<g id="a_Node000017"><a xlink:title=" ">
<polygon fill="#e0e0e0" stroke="#999999" points="746.5,-129 689.5,-129 689.5,-110 746.5,-110 746.5,-129"/>
<text text-anchor="middle" x="718" y="-117" font-family="Helvetica,sans-Serif" font-size="10.00">ostream</text>
</a>
</g>
</g>
<!-- Node1&#45;&gt;Node17 -->
<g id="edge28_Node000001_Node000017" class="edge">
<title>Node1&#45;&gt;Node17</title>
<g id="a_edge28_Node000001_Node000017"><a xlink:title=" ">
<path fill="none" stroke="#63b8ff" d="M460.03,-164.97C514.85,-157.04 597.76,-144.43 679.45,-128.99"/>
<polygon fill="#63b8ff" stroke="#63b8ff" points="680.23,-132.41 689.4,-127.1 678.92,-125.53 680.23,-132.41"/>
</a>
</g>
</g>
<!-- Node18 -->
<g id="Node000018" class="node">
<title>Node18</title>
<g id="a_Node000018"><a xlink:title=" ">
<polygon fill="#e0e0e0" stroke="#999999" points="829.5,-129 764.5,-129 764.5,-110 829.5,-110 829.5,-129"/>
<text text-anchor="middle" x="797" y="-117" font-family="Helvetica,sans-Serif" font-size="10.00">stdexcept</text>
</a>
</g>
</g>
<!-- Node1&#45;&gt;Node18 -->
<g id="edge29_Node000001_Node000018" class="edge">
<title>Node1&#45;&gt;Node18</title>
<g id="a_edge29_Node000001_Node000018"><a xlink:title=" ">
<path fill="none" stroke="#63b8ff" d="M468.68,-166.49C538.55,-159.08 649.44,-146.3 754.24,-129.18"/>
<polygon fill="#63b8ff" stroke="#63b8ff" points="755.07,-132.59 764.37,-127.51 753.93,-125.69 755.07,-132.59"/>
</a>
</g>
</g>
<!-- Node19 -->
<g id="Node000019" class="node">
<title>Node19</title>
<g id="a_Node000019"><a xlink:href="vmreg__defines_8hpp.html" target="_top" xlink:title=" ">
<polygon fill="white" stroke="#666666" points="129,-129 19,-129 19,-110 129,-110 129,-129"/>
<text text-anchor="middle" x="74" y="-117" font-family="Helvetica,sans-Serif" font-size="10.00">vmreg_defines.hpp</text>
</a>
</g>
</g>
<!-- Node1&#45;&gt;Node19 -->
<g id="edge31_Node000001_Node000019" class="edge">
<title>Node1&#45;&gt;Node19</title>
<g id="a_edge31_Node000001_Node000019"><a xlink:title=" ">
<path fill="none" stroke="#63b8ff" d="M346.78,-164.98C289.41,-155.63 197.33,-140.61 136.25,-130.65"/>
<polygon fill="#63b8ff" stroke="#63b8ff" points="136.79,-127.19 126.35,-129.04 135.66,-134.1 136.79,-127.19"/>
</a>
</g>
</g>
<!-- Node2&#45;&gt;Node3 -->
<g id="edge2_Node000002_Node000003" class="edge">
<title>Node2&#45;&gt;Node3</title>
<g id="a_edge2_Node000002_Node000003"><a xlink:title=" ">
<path fill="none" stroke="#63b8ff" d="M277.61,-54.98C251.04,-46.07 209.16,-32.02 179.58,-22.1"/>
<polygon fill="#63b8ff" stroke="#63b8ff" points="180.65,-18.77 170.06,-18.91 178.43,-25.41 180.65,-18.77"/>
</a>
</g>
</g>
<!-- Node2&#45;&gt;Node4 -->
<g id="edge3_Node000002_Node000004" class="edge">
<title>Node2&#45;&gt;Node4</title>
<g id="a_edge3_Node000002_Node000004"><a xlink:title=" ">
<path fill="none" stroke="#63b8ff" d="M288.86,-54.98C275.21,-46.77 254.31,-34.18 238.22,-24.49"/>
<polygon fill="#63b8ff" stroke="#63b8ff" points="239.76,-21.33 229.39,-19.17 236.15,-27.33 239.76,-21.33"/>
</a>
</g>
</g>
<!-- Node5 -->
<g id="Node000005" class="node">
<title>Node5</title>
<g id="a_Node000005"><a xlink:title=" ">
<polygon fill="#e0e0e0" stroke="#999999" points="670,-19 626,-19 626,0 670,0 670,-19"/>
<text text-anchor="middle" x="648" y="-7" font-family="Helvetica,sans-Serif" font-size="10.00">string</text>
</a>
</g>
</g>
<!-- Node2&#45;&gt;Node5 -->
<g id="edge4_Node000002_Node000005" class="edge">
<title>Node2&#45;&gt;Node5</title>
<g id="a_edge4_Node000002_Node000005"><a xlink:title=" ">
<path fill="none" stroke="#63b8ff" d="M344.74,-56.49C347.87,-55.98 350.98,-55.48 354,-55 449.11,-39.88 561.73,-23.16 615.83,-15.21"/>
<polygon fill="#63b8ff" stroke="#63b8ff" points="616.46,-18.65 625.85,-13.74 615.45,-11.73 616.46,-18.65"/>
</a>
</g>
</g>
<!-- Node6 -->
<g id="Node000006" class="node">
<title>Node6</title>
<g id="a_Node000006"><a xlink:title=" ">
<polygon fill="#e0e0e0" stroke="#999999" points="454.5,-19 407.5,-19 407.5,0 454.5,0 454.5,-19"/>
<text text-anchor="middle" x="431" y="-7" font-family="Helvetica,sans-Serif" font-size="10.00">vector</text>
</a>
</g>
</g>
<!-- Node2&#45;&gt;Node6 -->
<g id="edge5_Node000002_Node000006" class="edge">
<title>Node2&#45;&gt;Node6</title>
<g id="a_edge5_Node000002_Node000006"><a xlink:title=" ">
<path fill="none" stroke="#63b8ff" d="M323.56,-54.98C344.43,-46.34 376.97,-32.87 400.77,-23.02"/>
<polygon fill="#63b8ff" stroke="#63b8ff" points="402.16,-26.23 410.06,-19.17 399.48,-19.76 402.16,-26.23"/>
</a>
</g>
</g>
<!-- Node7&#45;&gt;Node2 -->
<g id="edge7_Node000007_Node000002" class="edge">
<title>Node7&#45;&gt;Node2</title>
<g id="a_edge7_Node000007_Node000002"><a xlink:title=" ">
<path fill="none" stroke="#63b8ff" d="M383.57,-109.98C368.55,-101.69 345.46,-88.94 327.84,-79.22"/>
<polygon fill="#63b8ff" stroke="#63b8ff" points="329.15,-75.94 318.7,-74.17 325.76,-82.07 329.15,-75.94"/>
</a>
</g>
</g>
<!-- Node7&#45;&gt;Node3 -->
<g id="edge17_Node000007_Node000003" class="edge">
<title>Node7&#45;&gt;Node3</title>
<g id="a_edge17_Node000007_Node000003"><a xlink:title=" ">
<path fill="none" stroke="#63b8ff" d="M358.8,-115.31C300.98,-109.98 198.18,-97.44 170,-74 156.77,-63 150.51,-44.05 147.56,-29.71"/>
<polygon fill="#63b8ff" stroke="#63b8ff" points="150.94,-28.72 145.84,-19.44 144.04,-29.88 150.94,-28.72"/>
</a>
</g>
</g>
<!-- Node7&#45;&gt;Node5 -->
<g id="edge19_Node000007_Node000005" class="edge">
<title>Node7&#45;&gt;Node5</title>
<g id="a_edge19_Node000007_Node000005"><a xlink:title=" ">
<path fill="none" stroke="#63b8ff" d="M439.09,-112.1C443.77,-111.37 448.49,-110.66 453,-110 511.58,-101.4 678.06,-118.61 717,-74 733.68,-54.88 704.47,-35.51 679.07,-23.27"/>
<polygon fill="#63b8ff" stroke="#63b8ff" points="680.52,-20.09 669.98,-19.1 677.61,-26.45 680.52,-20.09"/>
</a>
</g>
</g>
<!-- Node7&#45;&gt;Node6 -->
<g id="edge21_Node000007_Node000006" class="edge">
<title>Node7&#45;&gt;Node6</title>
<g id="a_edge21_Node000007_Node000006"><a xlink:title=" ">
<path fill="none" stroke="#63b8ff" d="M439.12,-111.38C476.68,-103.79 528.8,-90.6 541,-74 563.69,-43.1 504.82,-24.88 464.71,-16.37"/>
<polygon fill="#63b8ff" stroke="#63b8ff" points="465.22,-12.91 454.73,-14.37 463.84,-19.77 465.22,-12.91"/>
</a>
</g>
</g>
<!-- Node8 -->
<g id="Node000008" class="node">
<title>Node8</title>
<g id="a_Node000008"><a xlink:href="essentials_8hpp.html" target="_top" xlink:title=" ">
<polygon fill="white" stroke="#666666" points="851.5,-74 764.5,-74 764.5,-55 851.5,-55 851.5,-74"/>
<text text-anchor="middle" x="808" y="-62" font-family="Helvetica,sans-Serif" font-size="10.00">essentials.hpp</text>
</a>
</g>
</g>
<!-- Node7&#45;&gt;Node8 -->
<g id="edge8_Node000007_Node000008" class="edge">
<title>Node7&#45;&gt;Node8</title>
<g id="a_edge8_Node000007_Node000008"><a xlink:title=" ">
<path fill="none" stroke="#63b8ff" d="M439.08,-112.03C443.77,-111.32 448.48,-110.63 453,-110 584.69,-91.66 618.21,-91.64 750,-74 751.45,-73.81 752.92,-73.61 754.4,-73.4"/>
<polygon fill="#63b8ff" stroke="#63b8ff" points="754.89,-76.87 764.31,-72.02 753.92,-69.94 754.89,-76.87"/>
</a>
</g>
</g>
<!-- Node10 -->
<g id="Node000010" class="node">
<title>Node10</title>
<g id="a_Node000010"><a xlink:href="params_8hpp.html" target="_top" xlink:title=" ">
<polygon fill="white" stroke="#666666" points="708,-74 588,-74 588,-55 708,-55 708,-74"/>
<text text-anchor="middle" x="648" y="-62" font-family="Helvetica,sans-Serif" font-size="10.00">compiler/params.hpp</text>
</a>
</g>
</g>
<!-- Node7&#45;&gt;Node10 -->
<g id="edge11_Node000007_Node000010" class="edge">
<title>Node7&#45;&gt;Node10</title>
<g id="a_edge11_Node000007_Node000010"><a xlink:title=" ">
<path fill="none" stroke="#63b8ff" d="M439,-109.98C482.16,-100.8 550.98,-86.15 597.75,-76.19"/>
<polygon fill="#63b8ff" stroke="#63b8ff" points="598.62,-79.59 607.68,-74.08 597.17,-72.74 598.62,-79.59"/>
</a>
</g>
</g>
<!-- Node7&#45;&gt;Node11 -->
<g id="edge13_Node000007_Node000011" class="edge">
<title>Node7&#45;&gt;Node11</title>
<g id="a_edge13_Node000007_Node000011"><a xlink:title=" ">
<path fill="none" stroke="#63b8ff" d="M368.79,-109.98C336.95,-101.01 286.63,-86.82 251.4,-76.89"/>
<polygon fill="#63b8ff" stroke="#63b8ff" points="252.01,-73.43 241.44,-74.08 250.11,-80.16 252.01,-73.43"/>
</a>
</g>
</g>
<!-- Node7&#45;&gt;Node12 -->
<g id="edge18_Node000007_Node000012" class="edge">
<title>Node7&#45;&gt;Node12</title>
<g id="a_edge18_Node000007_Node000012"><a xlink:title=" ">
<path fill="none" stroke="#63b8ff" d="M439.06,-111.88C443.75,-111.2 448.47,-110.55 453,-110 630.42,-88.23 679.15,-100.07 859.3,-74.09"/>
<polygon fill="#63b8ff" stroke="#63b8ff" points="859.99,-77.53 869.38,-72.62 858.98,-70.6 859.99,-77.53"/>
</a>
</g>
</g>
<!-- Node13 -->
<g id="Node000013" class="node">
<title>Node13</title>
<g id="a_Node000013"><a xlink:title=" ">
<polygon fill="#e0e0e0" stroke="#999999" points="455.5,-74 362.5,-74 362.5,-55 455.5,-55 455.5,-74"/>
<text text-anchor="middle" x="409" y="-62" font-family="Helvetica,sans-Serif" font-size="10.00">unordered_map</text>
</a>
</g>
</g>
<!-- Node7&#45;&gt;Node13 -->
<g id="edge20_Node000007_Node000013" class="edge">
<title>Node7&#45;&gt;Node13</title>
<g id="a_edge20_Node000007_Node000013"><a xlink:title=" ">
<path fill="none" stroke="#63b8ff" d="M400.65,-109.75C401.96,-102.8 403.84,-92.85 405.48,-84.13"/>
<polygon fill="#63b8ff" stroke="#63b8ff" points="408.96,-84.56 407.38,-74.09 402.08,-83.27 408.96,-84.56"/>
</a>
</g>
</g>
<!-- Node14 -->
<g id="Node000014" class="node">
<title>Node14</title>
<g id="a_Node000014"><a xlink:title=" ">
<polygon fill="#e0e0e0" stroke="#999999" points="532,-74 474,-74 474,-55 532,-55 532,-74"/>
<text text-anchor="middle" x="503" y="-62" font-family="Helvetica,sans-Serif" font-size="10.00">memory</text>
</a>
</g>
</g>
<!-- Node7&#45;&gt;Node14 -->
<g id="edge22_Node000007_Node000014" class="edge">
<title>Node7&#45;&gt;Node14</title>
<g id="a_edge22_Node000007_Node000014"><a xlink:title=" ">
<path fill="none" stroke="#63b8ff" d="M415.71,-109.98C432.21,-101.57 457.69,-88.59 476.87,-78.81"/>
<polygon fill="#63b8ff" stroke="#63b8ff" points="478.66,-81.83 485.98,-74.17 475.48,-75.59 478.66,-81.83"/>
</a>
</g>
</g>
<!-- Node8&#45;&gt;Node5 -->
<g id="edge10_Node000008_Node000005" class="edge">
<title>Node8&#45;&gt;Node5</title>
<g id="a_edge10_Node000008_Node000005"><a xlink:title=" ">
<path fill="none" stroke="#63b8ff" d="M782.29,-54.98C754.35,-45.73 709.69,-30.94 679.63,-20.98"/>
<polygon fill="#63b8ff" stroke="#63b8ff" points="680.63,-17.62 670.03,-17.8 678.43,-24.27 680.63,-17.62"/>
</a>
</g>
</g>
<!-- Node9 -->
<g id="Node000009" class="node">
<title>Node9</title>
<g id="a_Node000009"><a xlink:title=" ">
<polygon fill="#e0e0e0" stroke="#999999" points="833.5,-19 782.5,-19 782.5,0 833.5,0 833.5,-19"/>
<text text-anchor="middle" x="808" y="-7" font-family="Helvetica,sans-Serif" font-size="10.00">errno.h</text>
</a>
</g>
</g>
<!-- Node8&#45;&gt;Node9 -->
<g id="edge9_Node000008_Node000009" class="edge">
<title>Node8&#45;&gt;Node9</title>
<g id="a_edge9_Node000008_Node000009"><a xlink:title=" ">
<path fill="none" stroke="#63b8ff" d="M808,-54.75C808,-47.8 808,-37.85 808,-29.13"/>
<polygon fill="#63b8ff" stroke="#63b8ff" points="811.5,-29.09 808,-19.09 804.5,-29.09 811.5,-29.09"/>
</a>
</g>
</g>
<!-- Node10&#45;&gt;Node5 -->
<g id="edge12_Node000010_Node000005" class="edge">
<title>Node10&#45;&gt;Node5</title>
<g id="a_edge12_Node000010_Node000005"><a xlink:title=" ">
<path fill="none" stroke="#63b8ff" d="M648,-54.75C648,-47.8 648,-37.85 648,-29.13"/>
<polygon fill="#63b8ff" stroke="#63b8ff" points="651.5,-29.09 648,-19.09 644.5,-29.09 651.5,-29.09"/>
</a>
</g>
</g>
<!-- Node11&#45;&gt;Node3 -->
<g id="edge15_Node000011_Node000003" class="edge">
<title>Node11&#45;&gt;Node3</title>
<g id="a_edge15_Node000011_Node000003"><a xlink:title=" ">
<path fill="none" stroke="#63b8ff" d="M200.39,-54.98C190.54,-47.07 175.65,-35.11 163.78,-25.58"/>
<polygon fill="#63b8ff" stroke="#63b8ff" points="165.78,-22.7 155.79,-19.17 161.4,-28.16 165.78,-22.7"/>
</a>
</g>
</g>
<!-- Node11&#45;&gt;Node4 -->
<g id="edge14_Node000011_Node000004" class="edge">
<title>Node11&#45;&gt;Node4</title>
<g id="a_edge14_Node000011_Node000004"><a xlink:title=" ">
<path fill="none" stroke="#63b8ff" d="M211.66,-54.75C212.18,-47.8 212.93,-37.85 213.59,-29.13"/>
<polygon fill="#63b8ff" stroke="#63b8ff" points="217.09,-29.32 214.35,-19.09 210.11,-28.8 217.09,-29.32"/>
</a>
</g>
</g>
<!-- Node11&#45;&gt;Node5 -->
<g id="edge16_Node000011_Node000005" class="edge">
<title>Node11&#45;&gt;Node5</title>
<g id="a_edge16_Node000011_Node000005"><a xlink:title=" ">
<path fill="none" stroke="#63b8ff" d="M243.5,-56.63C246.71,-56.04 249.91,-55.49 253,-55 386.95,-33.94 547.97,-18.99 615.6,-13.18"/>
<polygon fill="#63b8ff" stroke="#63b8ff" points="615.96,-16.66 625.63,-12.33 615.37,-9.69 615.96,-16.66"/>
</a>
</g>
</g>
<!-- Node19&#45;&gt;Node3 -->
<g id="edge32_Node000019_Node000003" class="edge">
<title>Node19&#45;&gt;Node3</title>
<g id="a_edge32_Node000019_Node000003"><a xlink:title=" ">
<path fill="none" stroke="#63b8ff" d="M75.98,-109.7C79.15,-96.88 86.25,-72.66 98,-55 105.33,-43.97 115.88,-33.66 125.13,-25.75"/>
<polygon fill="#63b8ff" stroke="#63b8ff" points="127.6,-28.25 133.12,-19.2 123.17,-22.83 127.6,-28.25"/>
</a>
</g>
</g>
</g>
</svg>
