<?xml version="1.0" encoding="UTF-8" standalone="no"?>
<!DOCTYPE svg PUBLIC "-//W3C//DTD SVG 1.1//EN"
 "http://www.w3.org/Graphics/SVG/1.1/DTD/svg11.dtd">
<!-- Generated by graphviz version 2.43.0 (0)
 -->
<!-- Title: main Pages: 1 -->
<svg width="657pt" height="284pt"
 viewBox="0.00 0.00 657.00 284.00" xmlns="http://www.w3.org/2000/svg" xmlns:xlink="http://www.w3.org/1999/xlink">
<g id="graph0" class="graph" transform="scale(1 1) rotate(0) translate(4 280)">
<title>main</title>
<!-- Node1 -->
<g id="Node000001" class="node">
<title>Node1</title>
<g id="a_Node000001"><a xlink:title=" ">
<polygon fill="#999999" stroke="#666666" points="41,-64 0,-64 0,-45 41,-45 41,-64"/>
<text text-anchor="middle" x="20.5" y="-52" font-family="Helvetica,sans-Serif" font-size="10.00">main</text>
</a>
</g>
</g>
<!-- Node2 -->
<g id="Node000002" class="node">
<title>Node2</title>
<g id="a_Node000002"><a xlink:href="classULang_1_1CompilerInstance.html#a421fd0510115d58a186435486b9fa7aa" target="_top" xlink:title="does the compilation">
<polygon fill="white" stroke="#666666" points="216,-115.5 77,-115.5 77,-85.5 216,-85.5 216,-115.5"/>
<text text-anchor="start" x="85" y="-103.5" font-family="Helvetica,sans-Serif" font-size="10.00">ULang::CompilerInstance</text>
<text text-anchor="middle" x="146.5" y="-92.5" font-family="Helvetica,sans-Serif" font-size="10.00">::compile</text>
</a>
</g>
</g>
<!-- Node1&#45;&gt;Node2 -->
<g id="edge1_Node000001_Node000002" class="edge">
<title>Node1&#45;&gt;Node2</title>
<g id="a_edge1_Node000001_Node000002"><a xlink:title=" ">
<path fill="none" stroke="#63b8ff" d="M41.15,-61.79C55.75,-67.21 76.36,-74.85 95.42,-81.92"/>
<polygon fill="#63b8ff" stroke="#63b8ff" points="94.31,-85.24 104.9,-85.44 96.74,-78.68 94.31,-85.24"/>
</a>
</g>
</g>
<!-- Node10 -->
<g id="Node000010" class="node">
<title>Node10</title>
<g id="a_Node000010"><a xlink:href="classULang_1_1Lexer.html#a683839683dfefa9502c5e151222ecb7e" target="_top" xlink:title="converts source code to tokens">
<polygon fill="white" stroke="#666666" points="417,-19 290,-19 290,0 417,0 417,-19"/>
<text text-anchor="middle" x="353.5" y="-7" font-family="Helvetica,sans-Serif" font-size="10.00">ULang::Lexer::tokenize</text>
</a>
</g>
</g>
<!-- Node1&#45;&gt;Node10 -->
<g id="edge14_Node000001_Node000010" class="edge">
<title>Node1&#45;&gt;Node10</title>
<g id="a_edge14_Node000001_Node000010"><a xlink:title=" ">
<path fill="none" stroke="#63b8ff" d="M41.21,-51.82C87.1,-45.58 202.97,-29.83 279.66,-19.4"/>
<polygon fill="#63b8ff" stroke="#63b8ff" points="280.31,-22.85 289.75,-18.03 279.37,-15.91 280.31,-22.85"/>
</a>
</g>
</g>
<!-- Node3 -->
<g id="Node000003" class="node">
<title>Node3</title>
<g id="a_Node000003"><a xlink:href="namespaceULang.html#ae0b1129fa6b35790dbd18cbf3add8eb8" target="_top" xlink:title=" ">
<polygon fill="white" stroke="#666666" points="404.5,-190 302.5,-190 302.5,-171 404.5,-171 404.5,-190"/>
<text text-anchor="middle" x="353.5" y="-178" font-family="Helvetica,sans-Serif" font-size="10.00">ULang::buildMeta</text>
</a>
</g>
</g>
<!-- Node2&#45;&gt;Node3 -->
<g id="edge2_Node000002_Node000003" class="edge">
<title>Node2&#45;&gt;Node3</title>
<g id="a_edge2_Node000002_Node000003"><a xlink:title=" ">
<path fill="none" stroke="#63b8ff" d="M167.98,-115.69C188.28,-129.98 220.76,-150.87 252,-162.5 264.71,-167.23 278.8,-170.74 292.3,-173.34"/>
<polygon fill="#63b8ff" stroke="#63b8ff" points="292.03,-176.84 302.49,-175.15 293.26,-169.95 292.03,-176.84"/>
</a>
</g>
</g>
<!-- Node6 -->
<g id="Node000006" class="node">
<title>Node6</title>
<g id="a_Node000006"><a xlink:href="classULang_1_1CompilerSyntaxException.html#a39539114f05c2d71321e5eb748da29f6" target="_top" xlink:title="formatted compiler exception output (human readable)">
<polygon fill="white" stroke="#666666" points="455,-153 252,-153 252,-134 455,-134 455,-153"/>
<text text-anchor="middle" x="353.5" y="-141" font-family="Helvetica,sans-Serif" font-size="10.00">ULang::CompilerSyntaxException::fmt</text>
</a>
</g>
</g>
<!-- Node2&#45;&gt;Node6 -->
<g id="edge5_Node000002_Node000006" class="edge">
<title>Node2&#45;&gt;Node6</title>
<g id="a_edge5_Node000002_Node000006"><a xlink:title=" ">
<path fill="none" stroke="#63b8ff" d="M211.24,-115.55C224.68,-118.61 238.79,-121.74 252,-124.5 264.27,-127.07 277.42,-129.67 290.03,-132.08"/>
<polygon fill="#63b8ff" stroke="#63b8ff" points="289.53,-135.55 300,-133.97 290.83,-128.67 289.53,-135.55"/>
</a>
</g>
</g>
<!-- Node9 -->
<g id="Node000009" class="node">
<title>Node9</title>
<g id="a_Node000009"><a xlink:href="classULang_1_1CompilerSyntaxException.html#a39818372c08ca906d4b50a91012801c6" target="_top" xlink:title=" ">
<polygon fill="white" stroke="#666666" points="443,-115.5 264,-115.5 264,-85.5 443,-85.5 443,-115.5"/>
<text text-anchor="start" x="272" y="-103.5" font-family="Helvetica,sans-Serif" font-size="10.00">ULang::CompilerSyntaxException</text>
<text text-anchor="middle" x="353.5" y="-92.5" font-family="Helvetica,sans-Serif" font-size="10.00">::getSeverity</text>
</a>
</g>
</g>
<!-- Node2&#45;&gt;Node9 -->
<g id="edge8_Node000002_Node000009" class="edge">
<title>Node2&#45;&gt;Node9</title>
<g id="a_edge8_Node000002_Node000009"><a xlink:title=" ">
<path fill="none" stroke="#63b8ff" d="M216.05,-100.5C228.17,-100.5 241.01,-100.5 253.77,-100.5"/>
<polygon fill="#63b8ff" stroke="#63b8ff" points="253.97,-104 263.97,-100.5 253.97,-97 253.97,-104"/>
</a>
</g>
</g>
<!-- Node2&#45;&gt;Node10 -->
<g id="edge9_Node000002_Node000010" class="edge">
<title>Node2&#45;&gt;Node10</title>
<g id="a_edge9_Node000002_Node000010"><a xlink:title=" ">
<path fill="none" stroke="#63b8ff" d="M167.35,-85.34C192.39,-66.49 234.31,-35.88 252,-28.5 260.82,-24.82 270.37,-21.85 279.96,-19.45"/>
<polygon fill="#63b8ff" stroke="#63b8ff" points="280.97,-22.81 289.93,-17.15 279.4,-15.99 280.97,-22.81"/>
</a>
</g>
</g>
<!-- Node12 -->
<g id="Node000012" class="node">
<title>Node12</title>
<g id="a_Node000012"><a xlink:href="classULang_1_1CompilerSyntaxException.html#a6bac429bee65121a473bad6af7b5edbd" target="_top" xlink:title=" ">
<polygon fill="white" stroke="#666666" points="443,-67.5 264,-67.5 264,-37.5 443,-37.5 443,-67.5"/>
<text text-anchor="start" x="272" y="-55.5" font-family="Helvetica,sans-Serif" font-size="10.00">ULang::CompilerSyntaxException</text>
<text text-anchor="middle" x="353.5" y="-44.5" font-family="Helvetica,sans-Serif" font-size="10.00">::what</text>
</a>
</g>
</g>
<!-- Node2&#45;&gt;Node12 -->
<g id="edge11_Node000002_Node000012" class="edge">
<title>Node2&#45;&gt;Node12</title>
<g id="a_edge11_Node000002_Node000012"><a xlink:title=" ">
<path fill="none" stroke="#63b8ff" d="M211.8,-85.44C232.98,-80.49 256.7,-74.93 278.54,-69.82"/>
<polygon fill="#63b8ff" stroke="#63b8ff" points="279.49,-73.19 288.43,-67.5 277.89,-66.37 279.49,-73.19"/>
</a>
</g>
</g>
<!-- Node13 -->
<g id="Node000013" class="node">
<title>Node13</title>
<g id="a_Node000013"><a xlink:href="namespaceULang.html#a223393890930647184159ba3ee750798" target="_top" xlink:title=" ">
<polygon fill="white" stroke="#666666" points="415.5,-252 291.5,-252 291.5,-233 415.5,-233 415.5,-252"/>
<text text-anchor="middle" x="353.5" y="-240" font-family="Helvetica,sans-Serif" font-size="10.00">ULang::writeBytecode</text>
</a>
</g>
</g>
<!-- Node2&#45;&gt;Node13 -->
<g id="edge12_Node000002_Node000013" class="edge">
<title>Node2&#45;&gt;Node13</title>
<g id="a_edge12_Node000002_Node000013"><a xlink:title=" ">
<path fill="none" stroke="#63b8ff" d="M160.34,-115.67C178.82,-136.75 214.82,-175.07 252,-199.5 270.86,-211.89 293.88,-222.05 313.13,-229.37"/>
<polygon fill="#63b8ff" stroke="#63b8ff" points="311.93,-232.66 322.53,-232.84 314.36,-226.1 311.93,-232.66"/>
</a>
</g>
</g>
<!-- Node4 -->
<g id="Node000004" class="node">
<title>Node4</title>
<g id="a_Node000004"><a xlink:href="namespaceULang.html#afc471bffb16abe17362183d2a536a9e9" target="_top" xlink:title=" ">
<polygon fill="white" stroke="#666666" points="635.5,-190 504.5,-190 504.5,-171 635.5,-171 635.5,-190"/>
<text text-anchor="middle" x="570" y="-178" font-family="Helvetica,sans-Serif" font-size="10.00">ULang::addStringToPool</text>
</a>
</g>
</g>
<!-- Node3&#45;&gt;Node4 -->
<g id="edge3_Node000003_Node000004" class="edge">
<title>Node3&#45;&gt;Node4</title>
<g id="a_edge3_Node000003_Node000004"><a xlink:title=" ">
<path fill="none" stroke="#63b8ff" d="M404.52,-180.5C431.1,-180.5 464.31,-180.5 493.91,-180.5"/>
<polygon fill="#63b8ff" stroke="#63b8ff" points="494.22,-184 504.22,-180.5 494.22,-177 494.22,-184"/>
</a>
</g>
</g>
<!-- Node5 -->
<g id="Node000005" class="node">
<title>Node5</title>
<g id="a_Node000005"><a xlink:href="classULang_1_1SymbolTable.html#afccc103d9709d6e3a4beabb5ee291a0e" target="_top" xlink:title=" ">
<polygon fill="white" stroke="#666666" points="628,-238.5 512,-238.5 512,-208.5 628,-208.5 628,-238.5"/>
<text text-anchor="start" x="520" y="-226.5" font-family="Helvetica,sans-Serif" font-size="10.00">ULang::SymbolTable</text>
<text text-anchor="middle" x="570" y="-215.5" font-family="Helvetica,sans-Serif" font-size="10.00">::getGlobalScope</text>
</a>
</g>
</g>
<!-- Node3&#45;&gt;Node5 -->
<g id="edge4_Node000003_Node000005" class="edge">
<title>Node3&#45;&gt;Node5</title>
<g id="a_edge4_Node000003_Node000005"><a xlink:title=" ">
<path fill="none" stroke="#63b8ff" d="M402.1,-190.04C431.41,-195.92 469.43,-203.54 501.77,-210.02"/>
<polygon fill="#63b8ff" stroke="#63b8ff" points="501.12,-213.46 511.61,-212 502.5,-206.6 501.12,-213.46"/>
</a>
</g>
</g>
<!-- Node7 -->
<g id="Node000007" class="node">
<title>Node7</title>
<g id="a_Node000007"><a xlink:href="namespaceULang.html#a991893b6b9fc7f5f594ad4375bfbe05c" target="_top" xlink:title=" ">
<polygon fill="white" stroke="#666666" points="635,-116 505,-116 505,-97 635,-97 635,-116"/>
<text text-anchor="middle" x="570" y="-104" font-family="Helvetica,sans-Serif" font-size="10.00">ULang::h_severityColor</text>
</a>
</g>
</g>
<!-- Node6&#45;&gt;Node7 -->
<g id="edge6_Node000006_Node000007" class="edge">
<title>Node6&#45;&gt;Node7</title>
<g id="a_edge6_Node000006_Node000007"><a xlink:title=" ">
<path fill="none" stroke="#63b8ff" d="M409.74,-133.97C438.4,-129.03 473.6,-122.96 503.61,-117.78"/>
<polygon fill="#63b8ff" stroke="#63b8ff" points="504.32,-121.21 513.58,-116.06 503.13,-114.31 504.32,-121.21"/>
</a>
</g>
</g>
<!-- Node8 -->
<g id="Node000008" class="node">
<title>Node8</title>
<g id="a_Node000008"><a xlink:href="namespaceULang.html#aa872add6618cd1839d302348efd6020b" target="_top" xlink:title=" ">
<polygon fill="white" stroke="#666666" points="629,-153 511,-153 511,-134 629,-134 629,-153"/>
<text text-anchor="middle" x="570" y="-141" font-family="Helvetica,sans-Serif" font-size="10.00">ULang::h_severityStr</text>
</a>
</g>
</g>
<!-- Node6&#45;&gt;Node8 -->
<g id="edge7_Node000006_Node000008" class="edge">
<title>Node6&#45;&gt;Node8</title>
<g id="a_edge7_Node000006_Node000008"><a xlink:title=" ">
<path fill="none" stroke="#63b8ff" d="M455.16,-143.5C470.48,-143.5 485.99,-143.5 500.42,-143.5"/>
<polygon fill="#63b8ff" stroke="#63b8ff" points="500.72,-147 510.72,-143.5 500.72,-140 500.72,-147"/>
</a>
</g>
</g>
<!-- Node11 -->
<g id="Node000011" class="node">
<title>Node11</title>
<g id="a_Node000011"><a xlink:href="namespaceULang.html#a2437ad588ffb8270e6c3c174357638f2" target="_top" xlink:title=" ">
<polygon fill="white" stroke="#666666" points="637.5,-19 502.5,-19 502.5,0 637.5,0 637.5,-19"/>
<text text-anchor="middle" x="570" y="-7" font-family="Helvetica,sans-Serif" font-size="10.00">ULang::resolveDataType</text>
</a>
</g>
</g>
<!-- Node10&#45;&gt;Node11 -->
<g id="edge10_Node000010_Node000011" class="edge">
<title>Node10&#45;&gt;Node11</title>
<g id="a_edge10_Node000010_Node000011"><a xlink:title=" ">
<path fill="none" stroke="#63b8ff" d="M417.12,-9.5C440.59,-9.5 467.54,-9.5 492.16,-9.5"/>
<polygon fill="#63b8ff" stroke="#63b8ff" points="492.19,-13 502.19,-9.5 492.19,-6 492.19,-13"/>
</a>
</g>
</g>
<!-- Node14 -->
<g id="Node000014" class="node">
<title>Node14</title>
<g id="a_Node000014"><a xlink:href="namespaceULang.html#a8674adb59a39623d1f715c18a8cede91" target="_top" xlink:title=" ">
<polygon fill="white" stroke="#666666" points="649,-276 491,-276 491,-257 649,-257 649,-276"/>
<text text-anchor="middle" x="570" y="-264" font-family="Helvetica,sans-Serif" font-size="10.00">ULang::buildBytecodeHeader</text>
</a>
</g>
</g>
<!-- Node13&#45;&gt;Node14 -->
<g id="edge13_Node000013_Node000014" class="edge">
<title>Node13&#45;&gt;Node14</title>
<g id="a_edge13_Node000013_Node000014"><a xlink:title=" ">
<path fill="none" stroke="#63b8ff" d="M415.68,-249.35C435.98,-251.62 458.99,-254.19 480.9,-256.64"/>
<polygon fill="#63b8ff" stroke="#63b8ff" points="480.55,-260.12 490.87,-257.76 481.33,-253.17 480.55,-260.12"/>
</a>
</g>
</g>
</g>
</svg>
