<?xml version="1.0" encoding="UTF-8" standalone="no"?>
<!DOCTYPE svg PUBLIC "-//W3C//DTD SVG 1.1//EN"
 "http://www.w3.org/Graphics/SVG/1.1/DTD/svg11.dtd">
<!-- Generated by graphviz version 2.43.0 (0)
 -->
<!-- Title: src/compiler/compiler.hpp Pages: 1 -->
<svg width="2011pt" height="93pt"
 viewBox="0.00 0.00 2010.50 93.00" xmlns="http://www.w3.org/2000/svg" xmlns:xlink="http://www.w3.org/1999/xlink">
<g id="graph0" class="graph" transform="scale(1 1) rotate(0) translate(4 89)">
<title>src/compiler/compiler.hpp</title>
<!-- Node1 -->
<g id="Node000001" class="node">
<title>Node1</title>
<g id="a_Node000001"><a xlink:title=" ">
<polygon fill="#999999" stroke="#666666" points="1100.5,-85 957.5,-85 957.5,-66 1100.5,-66 1100.5,-85"/>
<text text-anchor="middle" x="1029" y="-73" font-family="Helvetica,sans-Serif" font-size="10.00">src/compiler/compiler.hpp</text>
</a>
</g>
</g>
<!-- Node2 -->
<g id="Node000002" class="node">
<title>Node2</title>
<g id="a_Node000002"><a xlink:href="CompilerSyntaxException_8cpp.html" target="_top" xlink:title=" ">
<polygon fill="white" stroke="#666666" points="158,-30 0,-30 0,0 158,0 158,-30"/>
<text text-anchor="start" x="8" y="-18" font-family="Helvetica,sans-Serif" font-size="10.00">src/compiler/CompilerSyntax</text>
<text text-anchor="middle" x="79" y="-7" font-family="Helvetica,sans-Serif" font-size="10.00">Exception.cpp</text>
</a>
</g>
</g>
<!-- Node1&#45;&gt;Node2 -->
<g id="edge1_Node000001_Node000002" class="edge">
<title>Node1&#45;&gt;Node2</title>
<g id="a_edge1_Node000001_Node000002"><a xlink:title=" ">
<path fill="none" stroke="#63b8ff" d="M947.19,-73.22C793.66,-70.17 452.03,-60.3 166,-30 163.41,-29.73 160.79,-29.43 158.14,-29.11"/>
<polygon fill="#63b8ff" stroke="#63b8ff" points="947.41,-76.73 957.48,-73.42 947.55,-69.73 947.41,-76.73"/>
</a>
</g>
</g>
<!-- Node3 -->
<g id="Node000003" class="node">
<title>Node3</title>
<g id="a_Node000003"><a xlink:href="ast_8cpp.html" target="_top" xlink:title=" ">
<polygon fill="white" stroke="#666666" points="290.5,-24.5 175.5,-24.5 175.5,-5.5 290.5,-5.5 290.5,-24.5"/>
<text text-anchor="middle" x="233" y="-12.5" font-family="Helvetica,sans-Serif" font-size="10.00">src/compiler/ast.cpp</text>
</a>
</g>
</g>
<!-- Node1&#45;&gt;Node3 -->
<g id="edge2_Node000001_Node000003" class="edge">
<title>Node1&#45;&gt;Node3</title>
<g id="a_edge2_Node000001_Node000003"><a xlink:title=" ">
<path fill="none" stroke="#63b8ff" d="M947.13,-73.46C811.7,-70.85 532.75,-61.74 299,-30 289.02,-28.64 278.29,-26.62 268.45,-24.53"/>
<polygon fill="#63b8ff" stroke="#63b8ff" points="947.35,-76.96 957.42,-73.65 947.48,-69.96 947.35,-76.96"/>
</a>
</g>
</g>
<!-- Node4 -->
<g id="Node000004" class="node">
<title>Node4</title>
<g id="a_Node000004"><a xlink:href="compiler_2bytecode_8cpp.html" target="_top" xlink:title=" ">
<polygon fill="white" stroke="#666666" points="453.5,-24.5 308.5,-24.5 308.5,-5.5 453.5,-5.5 453.5,-24.5"/>
<text text-anchor="middle" x="381" y="-12.5" font-family="Helvetica,sans-Serif" font-size="10.00">src/compiler/bytecode.cpp</text>
</a>
</g>
</g>
<!-- Node1&#45;&gt;Node4 -->
<g id="edge3_Node000001_Node000004" class="edge">
<title>Node1&#45;&gt;Node4</title>
<g id="a_edge3_Node000001_Node000004"><a xlink:title=" ">
<path fill="none" stroke="#63b8ff" d="M947.11,-70.46C836.66,-64.48 633.96,-51.56 462,-30 450.25,-28.53 437.6,-26.54 425.88,-24.52"/>
<polygon fill="#63b8ff" stroke="#63b8ff" points="947.01,-73.96 957.18,-71 947.38,-66.97 947.01,-73.96"/>
</a>
</g>
</g>
<!-- Node5 -->
<g id="Node000005" class="node">
<title>Node5</title>
<g id="a_Node000005"><a xlink:href="compile_8cpp.html" target="_top" xlink:title=" ">
<polygon fill="white" stroke="#666666" points="610.5,-24.5 471.5,-24.5 471.5,-5.5 610.5,-5.5 610.5,-24.5"/>
<text text-anchor="middle" x="541" y="-12.5" font-family="Helvetica,sans-Serif" font-size="10.00">src/compiler/compile.cpp</text>
</a>
</g>
</g>
<!-- Node1&#45;&gt;Node5 -->
<g id="edge4_Node000001_Node000005" class="edge">
<title>Node1&#45;&gt;Node5</title>
<g id="a_edge4_Node000001_Node000005"><a xlink:title=" ">
<path fill="none" stroke="#63b8ff" d="M947.06,-67.21C864.34,-59.48 733.02,-46.14 620,-30 608.97,-28.42 597.12,-26.47 586.04,-24.52"/>
<polygon fill="#63b8ff" stroke="#63b8ff" points="946.87,-70.71 957.15,-68.15 947.52,-63.74 946.87,-70.71"/>
</a>
</g>
</g>
<!-- Node6 -->
<g id="Node000006" class="node">
<title>Node6</title>
<g id="a_Node000006"><a xlink:href="compiler_8cpp.html" target="_top" xlink:title=" ">
<polygon fill="white" stroke="#666666" points="771,-24.5 629,-24.5 629,-5.5 771,-5.5 771,-24.5"/>
<text text-anchor="middle" x="700" y="-12.5" font-family="Helvetica,sans-Serif" font-size="10.00">src/compiler/compiler.cpp</text>
</a>
</g>
</g>
<!-- Node1&#45;&gt;Node6 -->
<g id="edge5_Node000001_Node000006" class="edge">
<title>Node1&#45;&gt;Node6</title>
<g id="a_edge5_Node000001_Node000006"><a xlink:title=" ">
<path fill="none" stroke="#63b8ff" d="M971.31,-64.24C907.89,-52.96 807.13,-35.05 747.9,-24.52"/>
<polygon fill="#63b8ff" stroke="#63b8ff" points="970.7,-67.69 981.16,-65.99 971.93,-60.8 970.7,-67.69"/>
</a>
</g>
</g>
<!-- Node7 -->
<g id="Node000007" class="node">
<title>Node7</title>
<g id="a_Node000007"><a xlink:href="functions_8cpp.html" target="_top" xlink:title=" ">
<polygon fill="white" stroke="#666666" points="934.5,-24.5 789.5,-24.5 789.5,-5.5 934.5,-5.5 934.5,-24.5"/>
<text text-anchor="middle" x="862" y="-12.5" font-family="Helvetica,sans-Serif" font-size="10.00">src/compiler/functions.cpp</text>
</a>
</g>
</g>
<!-- Node1&#45;&gt;Node7 -->
<g id="edge6_Node000001_Node000007" class="edge">
<title>Node1&#45;&gt;Node7</title>
<g id="a_edge6_Node000001_Node000007"><a xlink:title=" ">
<path fill="none" stroke="#63b8ff" d="M995.23,-62.67C962.94,-51.36 915.02,-34.57 886.31,-24.52"/>
<polygon fill="#63b8ff" stroke="#63b8ff" points="994.12,-65.99 1004.72,-65.99 996.44,-59.38 994.12,-65.99"/>
</a>
</g>
</g>
<!-- Node8 -->
<g id="Node000008" class="node">
<title>Node8</title>
<g id="a_Node000008"><a xlink:href="instruction_8cpp.html" target="_top" xlink:title=" ">
<polygon fill="white" stroke="#666666" points="1105,-24.5 953,-24.5 953,-5.5 1105,-5.5 1105,-24.5"/>
<text text-anchor="middle" x="1029" y="-12.5" font-family="Helvetica,sans-Serif" font-size="10.00">src/compiler/instruction.cpp</text>
</a>
</g>
</g>
<!-- Node1&#45;&gt;Node8 -->
<g id="edge7_Node000001_Node000008" class="edge">
<title>Node1&#45;&gt;Node8</title>
<g id="a_edge7_Node000001_Node000008"><a xlink:title=" ">
<path fill="none" stroke="#63b8ff" d="M1029,-55.66C1029,-45.24 1029,-32.8 1029,-24.67"/>
<polygon fill="#63b8ff" stroke="#63b8ff" points="1025.5,-55.87 1029,-65.87 1032.5,-55.87 1025.5,-55.87"/>
</a>
</g>
</g>
<!-- Node9 -->
<g id="Node000009" class="node">
<title>Node9</title>
<g id="a_Node000009"><a xlink:href="lexer_8cpp.html" target="_top" xlink:title=" ">
<polygon fill="white" stroke="#666666" points="1246.5,-24.5 1123.5,-24.5 1123.5,-5.5 1246.5,-5.5 1246.5,-24.5"/>
<text text-anchor="middle" x="1185" y="-12.5" font-family="Helvetica,sans-Serif" font-size="10.00">src/compiler/lexer.cpp</text>
</a>
</g>
</g>
<!-- Node1&#45;&gt;Node9 -->
<g id="edge8_Node000001_Node000009" class="edge">
<title>Node1&#45;&gt;Node9</title>
<g id="a_edge8_Node000001_Node000009"><a xlink:title=" ">
<path fill="none" stroke="#63b8ff" d="M1061.33,-62.38C1091.48,-51.07 1135.7,-34.49 1162.29,-24.52"/>
<polygon fill="#63b8ff" stroke="#63b8ff" points="1059.82,-59.21 1051.68,-65.99 1062.28,-65.76 1059.82,-59.21"/>
</a>
</g>
</g>
<!-- Node10 -->
<g id="Node000010" class="node">
<title>Node10</title>
<g id="a_Node000010"><a xlink:href="log_8cpp.html" target="_top" xlink:title=" ">
<polygon fill="white" stroke="#666666" points="1379.5,-24.5 1264.5,-24.5 1264.5,-5.5 1379.5,-5.5 1379.5,-24.5"/>
<text text-anchor="middle" x="1322" y="-12.5" font-family="Helvetica,sans-Serif" font-size="10.00">src/compiler/log.cpp</text>
</a>
</g>
</g>
<!-- Node1&#45;&gt;Node10 -->
<g id="edge9_Node000001_Node000010" class="edge">
<title>Node1&#45;&gt;Node10</title>
<g id="a_edge9_Node000001_Node000010"><a xlink:title=" ">
<path fill="none" stroke="#63b8ff" d="M1083.89,-63.99C1129.9,-55.11 1197.29,-41.98 1256,-30 1264.49,-28.27 1273.59,-26.37 1282.23,-24.54"/>
<polygon fill="#63b8ff" stroke="#63b8ff" points="1082.99,-60.59 1073.83,-65.92 1084.32,-67.47 1082.99,-60.59"/>
</a>
</g>
</g>
<!-- Node11 -->
<g id="Node000011" class="node">
<title>Node11</title>
<g id="a_Node000011"><a xlink:href="compiler_2main_8cpp.html" target="_top" xlink:title=" ">
<polygon fill="white" stroke="#666666" points="1522.5,-24.5 1397.5,-24.5 1397.5,-5.5 1522.5,-5.5 1522.5,-24.5"/>
<text text-anchor="middle" x="1460" y="-12.5" font-family="Helvetica,sans-Serif" font-size="10.00">src/compiler/main.cpp</text>
</a>
</g>
</g>
<!-- Node1&#45;&gt;Node11 -->
<g id="edge10_Node000001_Node000011" class="edge">
<title>Node1&#45;&gt;Node11</title>
<g id="a_edge10_Node000001_Node000011"><a xlink:title=" ">
<path fill="none" stroke="#63b8ff" d="M1110.66,-66.09C1183.78,-58.17 1293.83,-45.25 1389,-30 1398.8,-28.43 1409.31,-26.5 1419.17,-24.57"/>
<polygon fill="#63b8ff" stroke="#63b8ff" points="1110.16,-62.63 1100.59,-67.18 1110.91,-69.59 1110.16,-62.63"/>
</a>
</g>
</g>
<!-- Node12 -->
<g id="Node000012" class="node">
<title>Node12</title>
<g id="a_Node000012"><a xlink:href="symbol_8cpp.html" target="_top" xlink:title=" ">
<polygon fill="white" stroke="#666666" points="1677,-24.5 1541,-24.5 1541,-5.5 1677,-5.5 1677,-24.5"/>
<text text-anchor="middle" x="1609" y="-12.5" font-family="Helvetica,sans-Serif" font-size="10.00">src/compiler/symbol.cpp</text>
</a>
</g>
</g>
<!-- Node1&#45;&gt;Node12 -->
<g id="edge11_Node000001_Node000012" class="edge">
<title>Node1&#45;&gt;Node12</title>
<g id="a_edge11_Node000001_Node000012"><a xlink:title=" ">
<path fill="none" stroke="#63b8ff" d="M1110.88,-69.57C1210.63,-63.03 1384.17,-49.94 1532,-30 1543.04,-28.51 1554.91,-26.54 1565.94,-24.55"/>
<polygon fill="#63b8ff" stroke="#63b8ff" points="1110.62,-66.08 1100.86,-70.22 1111.07,-73.06 1110.62,-66.08"/>
</a>
</g>
</g>
<!-- Node13 -->
<g id="Node000013" class="node">
<title>Node13</title>
<g id="a_Node000013"><a xlink:href="symbol__table_8cpp.html" target="_top" xlink:title=" ">
<polygon fill="white" stroke="#666666" points="1811,-30 1695,-30 1695,0 1811,0 1811,-30"/>
<text text-anchor="start" x="1703" y="-18" font-family="Helvetica,sans-Serif" font-size="10.00">src/compiler/symbol</text>
<text text-anchor="middle" x="1753" y="-7" font-family="Helvetica,sans-Serif" font-size="10.00">_table.cpp</text>
</a>
</g>
</g>
<!-- Node1&#45;&gt;Node13 -->
<g id="edge12_Node000001_Node000013" class="edge">
<title>Node1&#45;&gt;Node13</title>
<g id="a_edge12_Node000001_Node000013"><a xlink:title=" ">
<path fill="none" stroke="#63b8ff" d="M1111.02,-72.59C1235.72,-68.86 1480.28,-58.32 1686,-30 1688.94,-29.59 1691.95,-29.14 1694.98,-28.64"/>
<polygon fill="#63b8ff" stroke="#63b8ff" points="1110.68,-69.09 1100.79,-72.88 1110.88,-76.09 1110.68,-69.09"/>
</a>
</g>
</g>
<!-- Node14 -->
<g id="Node000014" class="node">
<title>Node14</title>
<g id="a_Node000014"><a xlink:href="temp__allocator_8cpp.html" target="_top" xlink:title=" ">
<polygon fill="white" stroke="#666666" points="2002.5,-24.5 1829.5,-24.5 1829.5,-5.5 2002.5,-5.5 2002.5,-24.5"/>
<text text-anchor="middle" x="1916" y="-12.5" font-family="Helvetica,sans-Serif" font-size="10.00">src/compiler/temp_allocator.cpp</text>
</a>
</g>
</g>
<!-- Node1&#45;&gt;Node14 -->
<g id="edge13_Node000001_Node000014" class="edge">
<title>Node1&#45;&gt;Node14</title>
<g id="a_edge13_Node000001_Node000014"><a xlink:title=" ">
<path fill="none" stroke="#63b8ff" d="M1110.67,-72.29C1254.38,-67.87 1561.74,-56.04 1820,-30 1834.08,-28.58 1849.25,-26.59 1863.29,-24.54"/>
<polygon fill="#63b8ff" stroke="#63b8ff" points="1110.5,-68.79 1100.61,-72.6 1110.71,-75.79 1110.5,-68.79"/>
</a>
</g>
</g>
</g>
</svg>
