<?xml version="1.0" encoding="UTF-8" standalone="no"?>
<!DOCTYPE svg PUBLIC "-//W3C//DTD SVG 1.1//EN"
 "http://www.w3.org/Graphics/SVG/1.1/DTD/svg11.dtd">
<!-- Generated by graphviz version 2.43.0 (0)
 -->
<!-- Title: src/compiler/compiler.hpp Pages: 1 -->
<svg width="3074pt" height="93pt"
 viewBox="0.00 0.00 3074.00 93.00" xmlns="http://www.w3.org/2000/svg" xmlns:xlink="http://www.w3.org/1999/xlink">
<g id="graph0" class="graph" transform="scale(1 1) rotate(0) translate(4 89)">
<title>src/compiler/compiler.hpp</title>
<!-- Node1 -->
<g id="Node000001" class="node">
<title>Node1</title>
<g id="a_Node000001"><a xlink:title=" ">
<polygon fill="#999999" stroke="#666666" points="1589.5,-85 1446.5,-85 1446.5,-66 1589.5,-66 1589.5,-85"/>
<text text-anchor="middle" x="1518" y="-73" font-family="Helvetica,sans-Serif" font-size="10.00">src/compiler/compiler.hpp</text>
</a>
</g>
</g>
<!-- Node2 -->
<g id="Node000002" class="node">
<title>Node2</title>
<g id="a_Node000002"><a xlink:href="CompilerSyntaxException_8cpp.html" target="_top" xlink:title=" ">
<polygon fill="white" stroke="#666666" points="158,-30 0,-30 0,0 158,0 158,-30"/>
<text text-anchor="start" x="8" y="-18" font-family="Helvetica,sans-Serif" font-size="10.00">src/compiler/CompilerSyntax</text>
<text text-anchor="middle" x="79" y="-7" font-family="Helvetica,sans-Serif" font-size="10.00">Exception.cpp</text>
</a>
</g>
</g>
<!-- Node1&#45;&gt;Node2 -->
<g id="edge1_Node000001_Node000002" class="edge">
<title>Node1&#45;&gt;Node2</title>
<g id="a_edge1_Node000001_Node000002"><a xlink:title=" ">
<path fill="none" stroke="#63b8ff" d="M1435.86,-73.16C1182.36,-68.82 414.44,-53.98 166,-30 163.41,-29.75 160.78,-29.47 158.13,-29.17"/>
<polygon fill="#63b8ff" stroke="#63b8ff" points="1436.05,-76.67 1446.1,-73.34 1436.17,-69.67 1436.05,-76.67"/>
</a>
</g>
</g>
<!-- Node3 -->
<g id="Node000003" class="node">
<title>Node3</title>
<g id="a_Node000003"><a xlink:href="ast_8cpp.html" target="_top" xlink:title=" ">
<polygon fill="white" stroke="#666666" points="290.5,-24.5 175.5,-24.5 175.5,-5.5 290.5,-5.5 290.5,-24.5"/>
<text text-anchor="middle" x="233" y="-12.5" font-family="Helvetica,sans-Serif" font-size="10.00">src/compiler/ast.cpp</text>
</a>
</g>
</g>
<!-- Node1&#45;&gt;Node3 -->
<g id="edge2_Node000001_Node000003" class="edge">
<title>Node1&#45;&gt;Node3</title>
<g id="a_edge2_Node000001_Node000003"><a xlink:title=" ">
<path fill="none" stroke="#63b8ff" d="M1435.87,-73.35C1199.41,-69.74 519.82,-57.24 299,-30 288.77,-28.74 277.77,-26.69 267.75,-24.54"/>
<polygon fill="#63b8ff" stroke="#63b8ff" points="1436.07,-76.85 1446.12,-73.5 1436.18,-69.85 1436.07,-76.85"/>
</a>
</g>
</g>
<!-- Node4 -->
<g id="Node000004" class="node">
<title>Node4</title>
<g id="a_Node000004"><a xlink:href="binop_8cpp.html" target="_top" xlink:title=" ">
<polygon fill="white" stroke="#666666" points="435.5,-24.5 308.5,-24.5 308.5,-5.5 435.5,-5.5 435.5,-24.5"/>
<text text-anchor="middle" x="372" y="-12.5" font-family="Helvetica,sans-Serif" font-size="10.00">src/compiler/binop.cpp</text>
</a>
</g>
</g>
<!-- Node1&#45;&gt;Node4 -->
<g id="edge3_Node000001_Node000004" class="edge">
<title>Node1&#45;&gt;Node4</title>
<g id="a_edge3_Node000001_Node000004"><a xlink:title=" ">
<path fill="none" stroke="#63b8ff" d="M1436.29,-75.22C1256.45,-75.92 813.12,-72.69 445,-30 433.85,-28.71 421.84,-26.68 410.86,-24.56"/>
<polygon fill="#63b8ff" stroke="#63b8ff" points="1436.47,-78.72 1446.46,-75.18 1436.44,-71.72 1436.47,-78.72"/>
</a>
</g>
</g>
<!-- Node5 -->
<g id="Node000005" class="node">
<title>Node5</title>
<g id="a_Node000005"><a xlink:href="block_8cpp.html" target="_top" xlink:title=" ">
<polygon fill="white" stroke="#666666" points="580,-24.5 454,-24.5 454,-5.5 580,-5.5 580,-24.5"/>
<text text-anchor="middle" x="517" y="-12.5" font-family="Helvetica,sans-Serif" font-size="10.00">src/compiler/block.cpp</text>
</a>
</g>
</g>
<!-- Node1&#45;&gt;Node5 -->
<g id="edge4_Node000001_Node000005" class="edge">
<title>Node1&#45;&gt;Node5</title>
<g id="a_edge4_Node000001_Node000005"><a xlink:title=" ">
<path fill="none" stroke="#63b8ff" d="M1435.93,-74.53C1273.58,-73.72 900.18,-67.51 589,-30 578,-28.67 566.16,-26.63 555.32,-24.51"/>
<polygon fill="#63b8ff" stroke="#63b8ff" points="1436.3,-78.03 1446.32,-74.58 1436.33,-71.03 1436.3,-78.03"/>
</a>
</g>
</g>
<!-- Node6 -->
<g id="Node000006" class="node">
<title>Node6</title>
<g id="a_Node000006"><a xlink:href="builtin_8cpp.html" target="_top" xlink:title=" ">
<polygon fill="white" stroke="#666666" points="729.5,-24.5 598.5,-24.5 598.5,-5.5 729.5,-5.5 729.5,-24.5"/>
<text text-anchor="middle" x="664" y="-12.5" font-family="Helvetica,sans-Serif" font-size="10.00">src/compiler/builtin.cpp</text>
</a>
</g>
</g>
<!-- Node1&#45;&gt;Node6 -->
<g id="edge5_Node000001_Node000006" class="edge">
<title>Node1&#45;&gt;Node6</title>
<g id="a_edge5_Node000001_Node000006"><a xlink:title=" ">
<path fill="none" stroke="#63b8ff" d="M1436.09,-73.32C1293.65,-70.5 991.33,-61.06 738,-30 726.84,-28.63 714.83,-26.6 703.79,-24.51"/>
<polygon fill="#63b8ff" stroke="#63b8ff" points="1436.41,-76.83 1446.48,-73.52 1436.54,-69.83 1436.41,-76.83"/>
</a>
</g>
</g>
<!-- Node7 -->
<g id="Node000007" class="node">
<title>Node7</title>
<g id="a_Node000007"><a xlink:href="compiler_2bytecode_8cpp.html" target="_top" xlink:title=" ">
<polygon fill="white" stroke="#666666" points="892.5,-24.5 747.5,-24.5 747.5,-5.5 892.5,-5.5 892.5,-24.5"/>
<text text-anchor="middle" x="820" y="-12.5" font-family="Helvetica,sans-Serif" font-size="10.00">src/compiler/bytecode.cpp</text>
</a>
</g>
</g>
<!-- Node1&#45;&gt;Node7 -->
<g id="edge6_Node000001_Node000007" class="edge">
<title>Node1&#45;&gt;Node7</title>
<g id="a_edge6_Node000001_Node000007"><a xlink:title=" ">
<path fill="none" stroke="#63b8ff" d="M1435.97,-71.17C1317.53,-65.79 1091.85,-53.32 901,-30 889.24,-28.56 876.59,-26.59 864.87,-24.57"/>
<polygon fill="#63b8ff" stroke="#63b8ff" points="1435.91,-74.67 1446.05,-71.63 1436.22,-67.68 1435.91,-74.67"/>
</a>
</g>
</g>
<!-- Node8 -->
<g id="Node000008" class="node">
<title>Node8</title>
<g id="a_Node000008"><a xlink:href="compile_8cpp.html" target="_top" xlink:title=" ">
<polygon fill="white" stroke="#666666" points="1049.5,-24.5 910.5,-24.5 910.5,-5.5 1049.5,-5.5 1049.5,-24.5"/>
<text text-anchor="middle" x="980" y="-12.5" font-family="Helvetica,sans-Serif" font-size="10.00">src/compiler/compile.cpp</text>
</a>
</g>
</g>
<!-- Node1&#45;&gt;Node8 -->
<g id="edge7_Node000001_Node000008" class="edge">
<title>Node1&#45;&gt;Node8</title>
<g id="a_edge7_Node000001_Node000008"><a xlink:title=" ">
<path fill="none" stroke="#63b8ff" d="M1436.16,-68.52C1344.18,-61.35 1190.5,-48 1059,-30 1047.82,-28.47 1035.81,-26.51 1024.61,-24.54"/>
<polygon fill="#63b8ff" stroke="#63b8ff" points="1436,-72.02 1446.24,-69.3 1436.54,-65.04 1436,-72.02"/>
</a>
</g>
</g>
<!-- Node9 -->
<g id="Node000009" class="node">
<title>Node9</title>
<g id="a_Node000009"><a xlink:href="compiler_8cpp.html" target="_top" xlink:title=" ">
<polygon fill="white" stroke="#666666" points="1210,-24.5 1068,-24.5 1068,-5.5 1210,-5.5 1210,-24.5"/>
<text text-anchor="middle" x="1139" y="-12.5" font-family="Helvetica,sans-Serif" font-size="10.00">src/compiler/compiler.cpp</text>
</a>
</g>
</g>
<!-- Node1&#45;&gt;Node9 -->
<g id="edge8_Node000001_Node000009" class="edge">
<title>Node1&#45;&gt;Node9</title>
<g id="a_edge8_Node000001_Node000009"><a xlink:title=" ">
<path fill="none" stroke="#63b8ff" d="M1447.57,-64.54C1386.93,-55.83 1297.11,-42.65 1219,-30 1208.56,-28.31 1197.37,-26.41 1186.77,-24.56"/>
<polygon fill="#63b8ff" stroke="#63b8ff" points="1447.4,-68.05 1457.8,-66 1448.39,-61.12 1447.4,-68.05"/>
</a>
</g>
</g>
<!-- Node10 -->
<g id="Node000010" class="node">
<title>Node10</title>
<g id="a_Node000010"><a xlink:href="expr_8cpp.html" target="_top" xlink:title=" ">
<polygon fill="white" stroke="#666666" points="1349.5,-24.5 1228.5,-24.5 1228.5,-5.5 1349.5,-5.5 1349.5,-24.5"/>
<text text-anchor="middle" x="1289" y="-12.5" font-family="Helvetica,sans-Serif" font-size="10.00">src/compiler/expr.cpp</text>
</a>
</g>
</g>
<!-- Node1&#45;&gt;Node10 -->
<g id="edge9_Node000001_Node000010" class="edge">
<title>Node1&#45;&gt;Node10</title>
<g id="a_edge9_Node000001_Node000010"><a xlink:title=" ">
<path fill="none" stroke="#63b8ff" d="M1474.81,-63.47C1430.54,-52.16 1362.64,-34.81 1322.34,-24.52"/>
<polygon fill="#63b8ff" stroke="#63b8ff" points="1474.15,-66.91 1484.7,-65.99 1475.88,-60.13 1474.15,-66.91"/>
</a>
</g>
</g>
<!-- Node11 -->
<g id="Node000011" class="node">
<title>Node11</title>
<g id="a_Node000011"><a xlink:href="function_8cpp.html" target="_top" xlink:title=" ">
<polygon fill="white" stroke="#666666" points="1508,-24.5 1368,-24.5 1368,-5.5 1508,-5.5 1508,-24.5"/>
<text text-anchor="middle" x="1438" y="-12.5" font-family="Helvetica,sans-Serif" font-size="10.00">src/compiler/function.cpp</text>
</a>
</g>
</g>
<!-- Node1&#45;&gt;Node11 -->
<g id="edge10_Node000001_Node000011" class="edge">
<title>Node1&#45;&gt;Node11</title>
<g id="a_edge10_Node000001_Node000011"><a xlink:title=" ">
<path fill="none" stroke="#63b8ff" d="M1497.96,-59.85C1482.81,-48.77 1462.52,-33.93 1449.85,-24.67"/>
<polygon fill="#63b8ff" stroke="#63b8ff" points="1496.06,-62.79 1506.2,-65.87 1500.19,-57.14 1496.06,-62.79"/>
</a>
</g>
</g>
<!-- Node12 -->
<g id="Node000012" class="node">
<title>Node12</title>
<g id="a_Node000012"><a xlink:href="functions_8cpp.html" target="_top" xlink:title=" ">
<polygon fill="white" stroke="#666666" points="1671.5,-24.5 1526.5,-24.5 1526.5,-5.5 1671.5,-5.5 1671.5,-24.5"/>
<text text-anchor="middle" x="1599" y="-12.5" font-family="Helvetica,sans-Serif" font-size="10.00">src/compiler/functions.cpp</text>
</a>
</g>
</g>
<!-- Node1&#45;&gt;Node12 -->
<g id="edge11_Node000001_Node000012" class="edge">
<title>Node1&#45;&gt;Node12</title>
<g id="a_edge11_Node000001_Node000012"><a xlink:title=" ">
<path fill="none" stroke="#63b8ff" d="M1538.29,-59.85C1553.63,-48.77 1574.18,-33.93 1587,-24.67"/>
<polygon fill="#63b8ff" stroke="#63b8ff" points="1536.01,-57.18 1529.95,-65.87 1540.11,-62.85 1536.01,-57.18"/>
</a>
</g>
</g>
<!-- Node13 -->
<g id="Node000013" class="node">
<title>Node13</title>
<g id="a_Node000013"><a xlink:href="instruction_8cpp.html" target="_top" xlink:title=" ">
<polygon fill="white" stroke="#666666" points="1842,-24.5 1690,-24.5 1690,-5.5 1842,-5.5 1842,-24.5"/>
<text text-anchor="middle" x="1766" y="-12.5" font-family="Helvetica,sans-Serif" font-size="10.00">src/compiler/instruction.cpp</text>
</a>
</g>
</g>
<!-- Node1&#45;&gt;Node13 -->
<g id="edge12_Node000001_Node000013" class="edge">
<title>Node1&#45;&gt;Node13</title>
<g id="a_edge12_Node000001_Node000013"><a xlink:title=" ">
<path fill="none" stroke="#63b8ff" d="M1563.87,-63.68C1611.79,-52.38 1685.98,-34.88 1729.9,-24.52"/>
<polygon fill="#63b8ff" stroke="#63b8ff" points="1562.99,-60.29 1554.06,-65.99 1564.6,-67.1 1562.99,-60.29"/>
</a>
</g>
</g>
<!-- Node14 -->
<g id="Node000014" class="node">
<title>Node14</title>
<g id="a_Node000014"><a xlink:href="lexer_8cpp.html" target="_top" xlink:title=" ">
<polygon fill="white" stroke="#666666" points="1983.5,-24.5 1860.5,-24.5 1860.5,-5.5 1983.5,-5.5 1983.5,-24.5"/>
<text text-anchor="middle" x="1922" y="-12.5" font-family="Helvetica,sans-Serif" font-size="10.00">src/compiler/lexer.cpp</text>
</a>
</g>
</g>
<!-- Node1&#45;&gt;Node14 -->
<g id="edge13_Node000001_Node000014" class="edge">
<title>Node1&#45;&gt;Node14</title>
<g id="a_edge13_Node000001_Node000014"><a xlink:title=" ">
<path fill="none" stroke="#63b8ff" d="M1599.8,-65C1667.33,-56.81 1765.61,-44.11 1851,-30 1860.79,-28.38 1871.3,-26.43 1881.15,-24.5"/>
<polygon fill="#63b8ff" stroke="#63b8ff" points="1599.15,-61.55 1589.64,-66.22 1599.99,-68.5 1599.15,-61.55"/>
</a>
</g>
</g>
<!-- Node15 -->
<g id="Node000015" class="node">
<title>Node15</title>
<g id="a_Node000015"><a xlink:href="log_8cpp.html" target="_top" xlink:title=" ">
<polygon fill="white" stroke="#666666" points="2116.5,-24.5 2001.5,-24.5 2001.5,-5.5 2116.5,-5.5 2116.5,-24.5"/>
<text text-anchor="middle" x="2059" y="-12.5" font-family="Helvetica,sans-Serif" font-size="10.00">src/compiler/log.cpp</text>
</a>
</g>
</g>
<!-- Node1&#45;&gt;Node15 -->
<g id="edge14_Node000001_Node000015" class="edge">
<title>Node1&#45;&gt;Node15</title>
<g id="a_edge14_Node000001_Node000015"><a xlink:title=" ">
<path fill="none" stroke="#63b8ff" d="M1599.64,-69.73C1694.55,-63.52 1855.73,-50.92 1993,-30 2002.61,-28.54 2012.93,-26.55 2022.48,-24.53"/>
<polygon fill="#63b8ff" stroke="#63b8ff" points="1599.29,-66.25 1589.53,-70.38 1599.74,-73.23 1599.29,-66.25"/>
</a>
</g>
</g>
<!-- Node16 -->
<g id="Node000016" class="node">
<title>Node16</title>
<g id="a_Node000016"><a xlink:href="compiler_2main_8cpp.html" target="_top" xlink:title=" ">
<polygon fill="white" stroke="#666666" points="2259.5,-24.5 2134.5,-24.5 2134.5,-5.5 2259.5,-5.5 2259.5,-24.5"/>
<text text-anchor="middle" x="2197" y="-12.5" font-family="Helvetica,sans-Serif" font-size="10.00">src/compiler/main.cpp</text>
</a>
</g>
</g>
<!-- Node1&#45;&gt;Node16 -->
<g id="edge15_Node000001_Node000016" class="edge">
<title>Node1&#45;&gt;Node16</title>
<g id="a_edge15_Node000001_Node000016"><a xlink:title=" ">
<path fill="none" stroke="#63b8ff" d="M1600.21,-71.66C1717.37,-66.88 1938.91,-55.2 2126,-30 2136.46,-28.59 2147.7,-26.6 2158.08,-24.56"/>
<polygon fill="#63b8ff" stroke="#63b8ff" points="1599.75,-68.17 1589.89,-72.07 1600.03,-75.17 1599.75,-68.17"/>
</a>
</g>
</g>
<!-- Node17 -->
<g id="Node000017" class="node">
<title>Node17</title>
<g id="a_Node000017"><a xlink:href="statement_8cpp.html" target="_top" xlink:title=" ">
<polygon fill="white" stroke="#666666" points="2428,-24.5 2278,-24.5 2278,-5.5 2428,-5.5 2428,-24.5"/>
<text text-anchor="middle" x="2353" y="-12.5" font-family="Helvetica,sans-Serif" font-size="10.00">src/compiler/statement.cpp</text>
</a>
</g>
</g>
<!-- Node1&#45;&gt;Node17 -->
<g id="edge16_Node000001_Node000017" class="edge">
<title>Node1&#45;&gt;Node17</title>
<g id="a_edge16_Node000001_Node000017"><a xlink:title=" ">
<path fill="none" stroke="#63b8ff" d="M1599.76,-72.49C1737.99,-68.46 2026.52,-57.31 2269,-30 2281.49,-28.59 2294.94,-26.58 2307.35,-24.51"/>
<polygon fill="#63b8ff" stroke="#63b8ff" points="1599.56,-69 1589.66,-72.78 1599.76,-75.99 1599.56,-69"/>
</a>
</g>
</g>
<!-- Node18 -->
<g id="Node000018" class="node">
<title>Node18</title>
<g id="a_Node000018"><a xlink:href="symbol_8cpp.html" target="_top" xlink:title=" ">
<polygon fill="white" stroke="#666666" points="2582,-24.5 2446,-24.5 2446,-5.5 2582,-5.5 2582,-24.5"/>
<text text-anchor="middle" x="2514" y="-12.5" font-family="Helvetica,sans-Serif" font-size="10.00">src/compiler/symbol.cpp</text>
</a>
</g>
</g>
<!-- Node1&#45;&gt;Node18 -->
<g id="edge17_Node000001_Node000018" class="edge">
<title>Node1&#45;&gt;Node18</title>
<g id="a_edge17_Node000001_Node000018"><a xlink:title=" ">
<path fill="none" stroke="#63b8ff" d="M1600.06,-74.14C1761.08,-72.63 2129.53,-65.24 2437,-30 2448.61,-28.67 2461.11,-26.65 2472.59,-24.56"/>
<polygon fill="#63b8ff" stroke="#63b8ff" points="1599.72,-70.64 1589.76,-74.23 1599.79,-77.64 1599.72,-70.64"/>
</a>
</g>
</g>
<!-- Node19 -->
<g id="Node000019" class="node">
<title>Node19</title>
<g id="a_Node000019"><a xlink:href="symbol__table_8cpp.html" target="_top" xlink:title=" ">
<polygon fill="white" stroke="#666666" points="2716,-30 2600,-30 2600,0 2716,0 2716,-30"/>
<text text-anchor="start" x="2608" y="-18" font-family="Helvetica,sans-Serif" font-size="10.00">src/compiler/symbol</text>
<text text-anchor="middle" x="2658" y="-7" font-family="Helvetica,sans-Serif" font-size="10.00">_table.cpp</text>
</a>
</g>
</g>
<!-- Node1&#45;&gt;Node19 -->
<g id="edge18_Node000001_Node000019" class="edge">
<title>Node1&#45;&gt;Node19</title>
<g id="a_edge18_Node000001_Node000019"><a xlink:title=" ">
<path fill="none" stroke="#63b8ff" d="M1599.56,-72.86C1815.64,-68.22 2399.42,-53.82 2591,-30 2593.95,-29.63 2596.96,-29.2 2599.99,-28.73"/>
<polygon fill="#63b8ff" stroke="#63b8ff" points="1599.48,-69.36 1589.55,-73.07 1599.62,-76.36 1599.48,-69.36"/>
</a>
</g>
</g>
<!-- Node20 -->
<g id="Node000020" class="node">
<title>Node20</title>
<g id="a_Node000020"><a xlink:href="temp__allocator_8cpp.html" target="_top" xlink:title=" ">
<polygon fill="white" stroke="#666666" points="2907.5,-24.5 2734.5,-24.5 2734.5,-5.5 2907.5,-5.5 2907.5,-24.5"/>
<text text-anchor="middle" x="2821" y="-12.5" font-family="Helvetica,sans-Serif" font-size="10.00">src/compiler/temp_allocator.cpp</text>
</a>
</g>
</g>
<!-- Node1&#45;&gt;Node20 -->
<g id="edge19_Node000001_Node000020" class="edge">
<title>Node1&#45;&gt;Node20</title>
<g id="a_edge19_Node000001_Node000020"><a xlink:title=" ">
<path fill="none" stroke="#63b8ff" d="M1599.76,-74.53C1794.87,-73.92 2302.89,-68.45 2725,-30 2739.59,-28.67 2755.35,-26.63 2769.81,-24.51"/>
<polygon fill="#63b8ff" stroke="#63b8ff" points="1599.58,-71.03 1589.59,-74.55 1599.6,-78.03 1599.58,-71.03"/>
</a>
</g>
</g>
<!-- Node21 -->
<g id="Node000021" class="node">
<title>Node21</title>
<g id="a_Node000021"><a xlink:href="variable_8cpp.html" target="_top" xlink:title=" ">
<polygon fill="white" stroke="#666666" points="3066,-24.5 2926,-24.5 2926,-5.5 3066,-5.5 3066,-24.5"/>
<text text-anchor="middle" x="2996" y="-12.5" font-family="Helvetica,sans-Serif" font-size="10.00">src/compiler/variable.cpp</text>
</a>
</g>
</g>
<!-- Node1&#45;&gt;Node21 -->
<g id="edge20_Node000001_Node000021" class="edge">
<title>Node1&#45;&gt;Node21</title>
<g id="a_edge20_Node000001_Node000021"><a xlink:title=" ">
<path fill="none" stroke="#63b8ff" d="M1599.91,-73.44C1859.04,-69.85 2659.11,-56.81 2917,-30 2929.19,-28.73 2942.34,-26.68 2954.34,-24.54"/>
<polygon fill="#63b8ff" stroke="#63b8ff" points="1599.76,-69.94 1589.81,-73.58 1599.86,-76.94 1599.76,-69.94"/>
</a>
</g>
</g>
</g>
</svg>
