<?xml version="1.0" encoding="UTF-8" standalone="no"?>
<!DOCTYPE svg PUBLIC "-//W3C//DTD SVG 1.1//EN"
 "http://www.w3.org/Graphics/SVG/1.1/DTD/svg11.dtd">
<!-- Generated by graphviz version 2.43.0 (0)
 -->
<!-- Title: src/compiler/bytecode.cpp Pages: 1 -->
<svg width="682pt" height="192pt"
 viewBox="0.00 0.00 682.14 192.00" xmlns="http://www.w3.org/2000/svg" xmlns:xlink="http://www.w3.org/1999/xlink">
<g id="graph0" class="graph" transform="scale(1 1) rotate(0) translate(4 188)">
<title>src/compiler/bytecode.cpp</title>
<!-- Node1 -->
<g id="Node000001" class="node">
<title>Node1</title>
<g id="a_Node000001"><a xlink:title=" ">
<polygon fill="#999999" stroke="#666666" points="329.64,-184 184.64,-184 184.64,-165 329.64,-165 329.64,-184"/>
<text text-anchor="middle" x="257.14" y="-172" font-family="Helvetica,sans-Serif" font-size="10.00">src/compiler/bytecode.cpp</text>
</a>
</g>
</g>
<!-- Node2 -->
<g id="Node000002" class="node">
<title>Node2</title>
<g id="a_Node000002"><a xlink:href="bytecode_8hpp.html" target="_top" xlink:title=" ">
<polygon fill="white" stroke="#666666" points="188.64,-74 105.64,-74 105.64,-55 188.64,-55 188.64,-74"/>
<text text-anchor="middle" x="147.14" y="-62" font-family="Helvetica,sans-Serif" font-size="10.00">bytecode.hpp</text>
</a>
</g>
</g>
<!-- Node1&#45;&gt;Node2 -->
<g id="edge1_Node000001_Node000002" class="edge">
<title>Node1&#45;&gt;Node2</title>
<g id="a_edge1_Node000001_Node000002"><a xlink:title=" ">
<path fill="none" stroke="#63b8ff" d="M225.66,-164.9C206.28,-158.1 182.34,-146.74 167.14,-129 156.45,-116.52 151.46,-98.31 149.14,-84.59"/>
<polygon fill="#63b8ff" stroke="#63b8ff" points="152.57,-83.79 147.76,-74.35 145.63,-84.72 152.57,-83.79"/>
</a>
</g>
</g>
<!-- Node3 -->
<g id="Node000003" class="node">
<title>Node3</title>
<g id="a_Node000003"><a xlink:title=" ">
<polygon fill="#e0e0e0" stroke="#999999" points="51.14,-19 1.14,-19 1.14,0 51.14,0 51.14,-19"/>
<text text-anchor="middle" x="26.14" y="-7" font-family="Helvetica,sans-Serif" font-size="10.00">cstdint</text>
</a>
</g>
</g>
<!-- Node1&#45;&gt;Node3 -->
<g id="edge21_Node000001_Node000003" class="edge">
<title>Node1&#45;&gt;Node3</title>
<g id="a_edge21_Node000001_Node000003"><a xlink:title=" ">
<path fill="none" stroke="#63b8ff" d="M184.44,-167.58C124.14,-158.31 42.33,-134.59 4.14,-74 -4.96,-59.56 3.52,-40.9 12.46,-27.55"/>
<polygon fill="#63b8ff" stroke="#63b8ff" points="15.44,-29.41 18.51,-19.27 9.79,-25.27 15.44,-29.41"/>
</a>
</g>
</g>
<!-- Node7 -->
<g id="Node000007" class="node">
<title>Node7</title>
<g id="a_Node000007"><a xlink:href="compiler_8hpp.html" target="_top" xlink:title=" ">
<polygon fill="white" stroke="#666666" points="256.14,-129 176.14,-129 176.14,-110 256.14,-110 256.14,-129"/>
<text text-anchor="middle" x="216.14" y="-117" font-family="Helvetica,sans-Serif" font-size="10.00">compiler.hpp</text>
</a>
</g>
</g>
<!-- Node1&#45;&gt;Node7 -->
<g id="edge6_Node000001_Node000007" class="edge">
<title>Node1&#45;&gt;Node7</title>
<g id="a_edge6_Node000001_Node000007"><a xlink:title=" ">
<path fill="none" stroke="#63b8ff" d="M250.37,-164.75C244.58,-157.26 236.08,-146.28 229,-137.13"/>
<polygon fill="#63b8ff" stroke="#63b8ff" points="231.67,-134.86 222.78,-129.09 226.13,-139.14 231.67,-134.86"/>
</a>
</g>
</g>
<!-- Node9 -->
<g id="Node000009" class="node">
<title>Node9</title>
<g id="a_Node000009"><a xlink:href="types_8hpp.html" target="_top" xlink:title=" ">
<polygon fill="white" stroke="#666666" points="87.64,-74 22.64,-74 22.64,-55 87.64,-55 87.64,-74"/>
<text text-anchor="middle" x="55.14" y="-62" font-family="Helvetica,sans-Serif" font-size="10.00">types.hpp</text>
</a>
</g>
</g>
<!-- Node1&#45;&gt;Node9 -->
<g id="edge20_Node000001_Node000009" class="edge">
<title>Node1&#45;&gt;Node9</title>
<g id="a_edge20_Node000001_Node000009"><a xlink:title=" ">
<path fill="none" stroke="#63b8ff" d="M233.89,-164.87C212.46,-156.61 180,-143.32 153.14,-129 125.03,-114.02 94.51,-93.51 75.13,-79.9"/>
<polygon fill="#63b8ff" stroke="#63b8ff" points="76.99,-76.93 66.81,-74 72.94,-82.64 76.99,-76.93"/>
</a>
</g>
</g>
<!-- Node13 -->
<g id="Node000013" class="node">
<title>Node13</title>
<g id="a_Node000013"><a xlink:title=" ">
<polygon fill="#e0e0e0" stroke="#999999" points="324.14,-129 274.14,-129 274.14,-110 324.14,-110 324.14,-129"/>
<text text-anchor="middle" x="299.14" y="-117" font-family="Helvetica,sans-Serif" font-size="10.00">cstring</text>
</a>
</g>
</g>
<!-- Node1&#45;&gt;Node13 -->
<g id="edge22_Node000001_Node000013" class="edge">
<title>Node1&#45;&gt;Node13</title>
<g id="a_edge22_Node000001_Node000013"><a xlink:title=" ">
<path fill="none" stroke="#63b8ff" d="M264.08,-164.75C270.01,-157.26 278.71,-146.28 285.96,-137.13"/>
<polygon fill="#63b8ff" stroke="#63b8ff" points="288.87,-139.1 292.33,-129.09 283.38,-134.75 288.87,-139.1"/>
</a>
</g>
</g>
<!-- Node14 -->
<g id="Node000014" class="node">
<title>Node14</title>
<g id="a_Node000014"><a xlink:title=" ">
<polygon fill="#e0e0e0" stroke="#999999" points="406.14,-129 342.14,-129 342.14,-110 406.14,-110 406.14,-129"/>
<text text-anchor="middle" x="374.14" y="-117" font-family="Helvetica,sans-Serif" font-size="10.00">algorithm</text>
</a>
</g>
</g>
<!-- Node1&#45;&gt;Node14 -->
<g id="edge23_Node000001_Node000014" class="edge">
<title>Node1&#45;&gt;Node14</title>
<g id="a_edge23_Node000001_Node000014"><a xlink:title=" ">
<path fill="none" stroke="#63b8ff" d="M275.94,-164.98C294.76,-156.46 323.96,-143.23 345.64,-133.41"/>
<polygon fill="#63b8ff" stroke="#63b8ff" points="347.34,-136.48 355,-129.17 344.45,-130.11 347.34,-136.48"/>
</a>
</g>
</g>
<!-- Node15 -->
<g id="Node000015" class="node">
<title>Node15</title>
<g id="a_Node000015"><a xlink:title=" ">
<polygon fill="#e0e0e0" stroke="#999999" points="479.64,-129 424.64,-129 424.64,-110 479.64,-110 479.64,-129"/>
<text text-anchor="middle" x="452.14" y="-117" font-family="Helvetica,sans-Serif" font-size="10.00">fstream</text>
</a>
</g>
</g>
<!-- Node1&#45;&gt;Node15 -->
<g id="edge24_Node000001_Node000015" class="edge">
<title>Node1&#45;&gt;Node15</title>
<g id="a_edge24_Node000001_Node000015"><a xlink:title=" ">
<path fill="none" stroke="#63b8ff" d="M288.47,-164.98C322.81,-155.65 377.9,-140.68 414.55,-130.72"/>
<polygon fill="#63b8ff" stroke="#63b8ff" points="415.63,-134.05 424.36,-128.05 413.79,-127.3 415.63,-134.05"/>
</a>
</g>
</g>
<!-- Node16 -->
<g id="Node000016" class="node">
<title>Node16</title>
<g id="a_Node000016"><a xlink:title=" ">
<polygon fill="#e0e0e0" stroke="#999999" points="558.14,-129 498.14,-129 498.14,-110 558.14,-110 558.14,-129"/>
<text text-anchor="middle" x="528.14" y="-117" font-family="Helvetica,sans-Serif" font-size="10.00">iostream</text>
</a>
</g>
</g>
<!-- Node1&#45;&gt;Node16 -->
<g id="edge25_Node000001_Node000016" class="edge">
<title>Node1&#45;&gt;Node16</title>
<g id="a_edge25_Node000001_Node000016"><a xlink:title=" ">
<path fill="none" stroke="#63b8ff" d="M303.43,-164.98C348.2,-156.65 418.21,-143.42 488.07,-129.18"/>
<polygon fill="#63b8ff" stroke="#63b8ff" points="488.83,-132.6 497.92,-127.16 487.42,-125.74 488.83,-132.6"/>
</a>
</g>
</g>
<!-- Node2&#45;&gt;Node3 -->
<g id="edge2_Node000002_Node000003" class="edge">
<title>Node2&#45;&gt;Node3</title>
<g id="a_edge2_Node000002_Node000003"><a xlink:title=" ">
<path fill="none" stroke="#63b8ff" d="M127.7,-54.98C108.15,-46.42 77.76,-33.11 55.32,-23.28"/>
<polygon fill="#63b8ff" stroke="#63b8ff" points="56.5,-19.98 45.93,-19.17 53.69,-26.39 56.5,-19.98"/>
</a>
</g>
</g>
<!-- Node4 -->
<g id="Node000004" class="node">
<title>Node4</title>
<g id="a_Node000004"><a xlink:title=" ">
<polygon fill="#e0e0e0" stroke="#999999" points="130.64,-19 77.64,-19 77.64,0 130.64,0 130.64,-19"/>
<text text-anchor="middle" x="104.14" y="-7" font-family="Helvetica,sans-Serif" font-size="10.00">cstddef</text>
</a>
</g>
</g>
<!-- Node2&#45;&gt;Node4 -->
<g id="edge3_Node000002_Node000004" class="edge">
<title>Node2&#45;&gt;Node4</title>
<g id="a_edge3_Node000002_Node000004"><a xlink:title=" ">
<path fill="none" stroke="#63b8ff" d="M140.04,-54.75C133.97,-47.26 125.05,-36.28 117.63,-27.13"/>
<polygon fill="#63b8ff" stroke="#63b8ff" points="120.13,-24.65 111.11,-19.09 114.69,-29.06 120.13,-24.65"/>
</a>
</g>
</g>
<!-- Node5 -->
<g id="Node000005" class="node">
<title>Node5</title>
<g id="a_Node000005"><a xlink:title=" ">
<polygon fill="#e0e0e0" stroke="#999999" points="197.14,-19 153.14,-19 153.14,0 197.14,0 197.14,-19"/>
<text text-anchor="middle" x="175.14" y="-7" font-family="Helvetica,sans-Serif" font-size="10.00">string</text>
</a>
</g>
</g>
<!-- Node2&#45;&gt;Node5 -->
<g id="edge4_Node000002_Node000005" class="edge">
<title>Node2&#45;&gt;Node5</title>
<g id="a_edge4_Node000002_Node000005"><a xlink:title=" ">
<path fill="none" stroke="#63b8ff" d="M151.76,-54.75C155.6,-47.49 161.16,-36.95 165.9,-27.98"/>
<polygon fill="#63b8ff" stroke="#63b8ff" points="169.03,-29.57 170.6,-19.09 162.84,-26.3 169.03,-29.57"/>
</a>
</g>
</g>
<!-- Node6 -->
<g id="Node000006" class="node">
<title>Node6</title>
<g id="a_Node000006"><a xlink:title=" ">
<polygon fill="#e0e0e0" stroke="#999999" points="353.64,-19 306.64,-19 306.64,0 353.64,0 353.64,-19"/>
<text text-anchor="middle" x="330.14" y="-7" font-family="Helvetica,sans-Serif" font-size="10.00">vector</text>
</a>
</g>
</g>
<!-- Node2&#45;&gt;Node6 -->
<g id="edge5_Node000002_Node000006" class="edge">
<title>Node2&#45;&gt;Node6</title>
<g id="a_edge5_Node000002_Node000006"><a xlink:title=" ">
<path fill="none" stroke="#63b8ff" d="M176.54,-54.98C209.32,-45.49 262.23,-30.17 296.6,-20.21"/>
<polygon fill="#63b8ff" stroke="#63b8ff" points="298,-23.45 306.63,-17.31 296.05,-16.73 298,-23.45"/>
</a>
</g>
</g>
<!-- Node7&#45;&gt;Node2 -->
<g id="edge7_Node000007_Node000002" class="edge">
<title>Node7&#45;&gt;Node2</title>
<g id="a_edge7_Node000007_Node000002"><a xlink:title=" ">
<path fill="none" stroke="#63b8ff" d="M205.05,-109.98C194.65,-102 178.88,-89.88 166.42,-80.31"/>
<polygon fill="#63b8ff" stroke="#63b8ff" points="168.49,-77.49 158.43,-74.17 164.23,-83.04 168.49,-77.49"/>
</a>
</g>
</g>
<!-- Node7&#45;&gt;Node3 -->
<g id="edge14_Node000007_Node000003" class="edge">
<title>Node7&#45;&gt;Node3</title>
<g id="a_edge14_Node000007_Node000003"><a xlink:title=" ">
<path fill="none" stroke="#63b8ff" d="M175.79,-115.51C122.54,-110.63 33.16,-98.88 13.14,-74 2.81,-61.16 8.55,-42.23 15.36,-28.38"/>
<polygon fill="#63b8ff" stroke="#63b8ff" points="18.57,-29.8 20.29,-19.35 12.43,-26.45 18.57,-29.8"/>
</a>
</g>
</g>
<!-- Node7&#45;&gt;Node5 -->
<g id="edge16_Node000007_Node000005" class="edge">
<title>Node7&#45;&gt;Node5</title>
<g id="a_edge16_Node000007_Node000005"><a xlink:title=" ">
<path fill="none" stroke="#63b8ff" d="M214.23,-109.69C211.41,-97.26 205.64,-73.97 198.14,-55 194.5,-45.8 189.56,-35.99 185.18,-27.93"/>
<polygon fill="#63b8ff" stroke="#63b8ff" points="188.19,-26.14 180.26,-19.12 182.08,-29.56 188.19,-26.14"/>
</a>
</g>
</g>
<!-- Node7&#45;&gt;Node6 -->
<g id="edge18_Node000007_Node000006" class="edge">
<title>Node7&#45;&gt;Node6</title>
<g id="a_edge18_Node000007_Node000006"><a xlink:title=" ">
<path fill="none" stroke="#63b8ff" d="M255.57,-109.99C299.95,-100.01 366.85,-83.63 374.14,-74 386.48,-57.7 368.53,-38.3 351.98,-25.27"/>
<polygon fill="#63b8ff" stroke="#63b8ff" points="353.74,-22.22 343.62,-19.08 349.58,-27.85 353.74,-22.22"/>
</a>
</g>
</g>
<!-- Node8 -->
<g id="Node000008" class="node">
<title>Node8</title>
<g id="a_Node000008"><a xlink:href="params_8hpp.html" target="_top" xlink:title=" ">
<polygon fill="white" stroke="#666666" points="365.14,-74 245.14,-74 245.14,-55 365.14,-55 365.14,-74"/>
<text text-anchor="middle" x="305.14" y="-62" font-family="Helvetica,sans-Serif" font-size="10.00">compiler/params.hpp</text>
</a>
</g>
</g>
<!-- Node7&#45;&gt;Node8 -->
<g id="edge8_Node000007_Node000008" class="edge">
<title>Node7&#45;&gt;Node8</title>
<g id="a_edge8_Node000007_Node000008"><a xlink:title=" ">
<path fill="none" stroke="#63b8ff" d="M230.44,-109.98C244.24,-101.77 265.38,-89.18 281.65,-79.49"/>
<polygon fill="#63b8ff" stroke="#63b8ff" points="283.78,-82.29 290.58,-74.17 280.2,-76.28 283.78,-82.29"/>
</a>
</g>
</g>
<!-- Node7&#45;&gt;Node9 -->
<g id="edge10_Node000007_Node000009" class="edge">
<title>Node7&#45;&gt;Node9</title>
<g id="a_edge10_Node000007_Node000009"><a xlink:title=" ">
<path fill="none" stroke="#63b8ff" d="M190.27,-109.98C163.36,-101.13 121.02,-87.19 90.91,-77.28"/>
<polygon fill="#63b8ff" stroke="#63b8ff" points="91.8,-73.88 81.21,-74.08 89.61,-80.53 91.8,-73.88"/>
</a>
</g>
</g>
<!-- Node10 -->
<g id="Node000010" class="node">
<title>Node10</title>
<g id="a_Node000010"><a xlink:title=" ">
<polygon fill="#e0e0e0" stroke="#999999" points="486.64,-74 421.64,-74 421.64,-55 486.64,-55 486.64,-74"/>
<text text-anchor="middle" x="454.14" y="-62" font-family="Helvetica,sans-Serif" font-size="10.00">exception</text>
</a>
</g>
</g>
<!-- Node7&#45;&gt;Node10 -->
<g id="edge15_Node000007_Node000010" class="edge">
<title>Node7&#45;&gt;Node10</title>
<g id="a_edge15_Node000007_Node000010"><a xlink:title=" ">
<path fill="none" stroke="#63b8ff" d="M254.38,-109.98C297.29,-100.43 366.73,-84.97 411.4,-75.02"/>
<polygon fill="#63b8ff" stroke="#63b8ff" points="412.36,-78.39 421.36,-72.8 410.84,-71.56 412.36,-78.39"/>
</a>
</g>
</g>
<!-- Node11 -->
<g id="Node000011" class="node">
<title>Node11</title>
<g id="a_Node000011"><a xlink:title=" ">
<polygon fill="#e0e0e0" stroke="#999999" points="597.64,-74 504.64,-74 504.64,-55 597.64,-55 597.64,-74"/>
<text text-anchor="middle" x="551.14" y="-62" font-family="Helvetica,sans-Serif" font-size="10.00">unordered_map</text>
</a>
</g>
</g>
<!-- Node7&#45;&gt;Node11 -->
<g id="edge17_Node000007_Node000011" class="edge">
<title>Node7&#45;&gt;Node11</title>
<g id="a_edge17_Node000007_Node000011"><a xlink:title=" ">
<path fill="none" stroke="#63b8ff" d="M256.24,-111.49C259.25,-110.98 262.24,-110.48 265.14,-110 287.27,-106.36 417.56,-86.16 494.44,-74.27"/>
<polygon fill="#63b8ff" stroke="#63b8ff" points="495.11,-77.71 504.46,-72.72 494.04,-70.79 495.11,-77.71"/>
</a>
</g>
</g>
<!-- Node12 -->
<g id="Node000012" class="node">
<title>Node12</title>
<g id="a_Node000012"><a xlink:title=" ">
<polygon fill="#e0e0e0" stroke="#999999" points="674.14,-74 616.14,-74 616.14,-55 674.14,-55 674.14,-74"/>
<text text-anchor="middle" x="645.14" y="-62" font-family="Helvetica,sans-Serif" font-size="10.00">memory</text>
</a>
</g>
</g>
<!-- Node7&#45;&gt;Node12 -->
<g id="edge19_Node000007_Node000012" class="edge">
<title>Node7&#45;&gt;Node12</title>
<g id="a_edge19_Node000007_Node000012"><a xlink:title=" ">
<path fill="none" stroke="#63b8ff" d="M256.22,-111.32C259.23,-110.85 262.23,-110.4 265.14,-110 413.27,-89.38 454.55,-98.32 605.63,-74.07"/>
<polygon fill="#63b8ff" stroke="#63b8ff" points="606.44,-77.49 615.75,-72.43 605.31,-70.58 606.44,-77.49"/>
</a>
</g>
</g>
<!-- Node8&#45;&gt;Node5 -->
<g id="edge9_Node000008_Node000005" class="edge">
<title>Node8&#45;&gt;Node5</title>
<g id="a_edge9_Node000008_Node000005"><a xlink:title=" ">
<path fill="none" stroke="#63b8ff" d="M284.25,-54.98C263.06,-46.34 230.01,-32.87 205.84,-23.02"/>
<polygon fill="#63b8ff" stroke="#63b8ff" points="206.99,-19.7 196.41,-19.17 204.35,-26.19 206.99,-19.7"/>
</a>
</g>
</g>
<!-- Node9&#45;&gt;Node3 -->
<g id="edge12_Node000009_Node000003" class="edge">
<title>Node9&#45;&gt;Node3</title>
<g id="a_edge12_Node000009_Node000003"><a xlink:title=" ">
<path fill="none" stroke="#63b8ff" d="M50.35,-54.75C46.38,-47.49 40.62,-36.95 35.71,-27.98"/>
<polygon fill="#63b8ff" stroke="#63b8ff" points="38.71,-26.18 30.84,-19.09 32.57,-29.54 38.71,-26.18"/>
</a>
</g>
</g>
<!-- Node9&#45;&gt;Node4 -->
<g id="edge11_Node000009_Node000004" class="edge">
<title>Node9&#45;&gt;Node4</title>
<g id="a_edge11_Node000009_Node000004"><a xlink:title=" ">
<path fill="none" stroke="#63b8ff" d="M63.23,-54.75C70.3,-47.11 80.73,-35.82 89.29,-26.56"/>
<polygon fill="#63b8ff" stroke="#63b8ff" points="91.98,-28.81 96.2,-19.09 86.84,-24.06 91.98,-28.81"/>
</a>
</g>
</g>
<!-- Node9&#45;&gt;Node5 -->
<g id="edge13_Node000009_Node000005" class="edge">
<title>Node9&#45;&gt;Node5</title>
<g id="a_edge13_Node000009_Node000005"><a xlink:title=" ">
<path fill="none" stroke="#63b8ff" d="M74.42,-54.98C93.81,-46.42 123.95,-33.11 146.21,-23.28"/>
<polygon fill="#63b8ff" stroke="#63b8ff" points="147.78,-26.41 155.51,-19.17 144.95,-20.01 147.78,-26.41"/>
</a>
</g>
</g>
</g>
</svg>
