<?xml version="1.0" encoding="UTF-8" standalone="no"?>
<!DOCTYPE svg PUBLIC "-//W3C//DTD SVG 1.1//EN"
 "http://www.w3.org/Graphics/SVG/1.1/DTD/svg11.dtd">
<!-- Generated by graphviz version 2.43.0 (0)
 -->
<!-- Title: src/compiler/compile.cpp Pages: 1 -->
<svg width="557pt" height="192pt"
 viewBox="0.00 0.00 557.06 192.00" xmlns="http://www.w3.org/2000/svg" xmlns:xlink="http://www.w3.org/1999/xlink">
<g id="graph0" class="graph" transform="scale(1 1) rotate(0) translate(4 188)">
<title>src/compiler/compile.cpp</title>
<!-- Node1 -->
<g id="Node000001" class="node">
<title>Node1</title>
<g id="a_Node000001"><a xlink:title=" ">
<polygon fill="#999999" stroke="#666666" points="410.06,-184 271.06,-184 271.06,-165 410.06,-165 410.06,-184"/>
<text text-anchor="middle" x="340.56" y="-172" font-family="Helvetica,sans-Serif" font-size="10.00">src/compiler/compile.cpp</text>
</a>
</g>
</g>
<!-- Node2 -->
<g id="Node000002" class="node">
<title>Node2</title>
<g id="a_Node000002"><a xlink:href="bytecode_8hpp.html" target="_top" xlink:title=" ">
<polygon fill="white" stroke="#666666" points="498.06,-74 415.06,-74 415.06,-55 498.06,-55 498.06,-74"/>
<text text-anchor="middle" x="456.56" y="-62" font-family="Helvetica,sans-Serif" font-size="10.00">bytecode.hpp</text>
</a>
</g>
</g>
<!-- Node1&#45;&gt;Node2 -->
<g id="edge1_Node000001_Node000002" class="edge">
<title>Node1&#45;&gt;Node2</title>
<g id="a_edge1_Node000001_Node000002"><a xlink:title=" ">
<path fill="none" stroke="#63b8ff" d="M341.13,-164.61C342.43,-151.23 346.68,-125.8 360.56,-110 374.03,-94.68 393.87,-84.27 412.03,-77.41"/>
<polygon fill="#63b8ff" stroke="#63b8ff" points="413.34,-80.66 421.61,-74.04 411.02,-74.05 413.34,-80.66"/>
</a>
</g>
</g>
<!-- Node3 -->
<g id="Node000003" class="node">
<title>Node3</title>
<g id="a_Node000003"><a xlink:title=" ">
<polygon fill="#e0e0e0" stroke="#999999" points="108.56,-19 58.56,-19 58.56,0 108.56,0 108.56,-19"/>
<text text-anchor="middle" x="83.56" y="-7" font-family="Helvetica,sans-Serif" font-size="10.00">cstdint</text>
</a>
</g>
</g>
<!-- Node1&#45;&gt;Node3 -->
<g id="edge20_Node000001_Node000003" class="edge">
<title>Node1&#45;&gt;Node3</title>
<g id="a_edge20_Node000001_Node000003"><a xlink:title=" ">
<path fill="none" stroke="#63b8ff" d="M283.73,-164.96C196.98,-150.63 38.05,-118.85 4.56,-74 -11.78,-52.12 20.73,-33.43 48.86,-22.1"/>
<polygon fill="#63b8ff" stroke="#63b8ff" points="50.45,-25.25 58.54,-18.41 47.95,-18.71 50.45,-25.25"/>
</a>
</g>
</g>
<!-- Node8 -->
<g id="Node000008" class="node">
<title>Node8</title>
<g id="a_Node000008"><a xlink:href="compiler_8hpp.html" target="_top" xlink:title=" ">
<polygon fill="white" stroke="#666666" points="312.56,-129 232.56,-129 232.56,-110 312.56,-110 312.56,-129"/>
<text text-anchor="middle" x="272.56" y="-117" font-family="Helvetica,sans-Serif" font-size="10.00">compiler.hpp</text>
</a>
</g>
</g>
<!-- Node1&#45;&gt;Node8 -->
<g id="edge7_Node000001_Node000008" class="edge">
<title>Node1&#45;&gt;Node8</title>
<g id="a_edge7_Node000001_Node000008"><a xlink:title=" ">
<path fill="none" stroke="#63b8ff" d="M329.64,-164.98C319.49,-157.07 304.14,-145.11 291.92,-135.58"/>
<polygon fill="#63b8ff" stroke="#63b8ff" points="293.73,-132.56 283.69,-129.17 289.42,-138.08 293.73,-132.56"/>
</a>
</g>
</g>
<!-- Node13 -->
<g id="Node000013" class="node">
<title>Node13</title>
<g id="a_Node000013"><a xlink:title=" ">
<polygon fill="#e0e0e0" stroke="#999999" points="466.06,-129 369.06,-129 369.06,-110 466.06,-110 466.06,-129"/>
<text text-anchor="middle" x="417.56" y="-117" font-family="Helvetica,sans-Serif" font-size="10.00">compiler/errno.h</text>
</a>
</g>
</g>
<!-- Node1&#45;&gt;Node13 -->
<g id="edge19_Node000001_Node000013" class="edge">
<title>Node1&#45;&gt;Node13</title>
<g id="a_edge19_Node000001_Node000013"><a xlink:title=" ">
<path fill="none" stroke="#63b8ff" d="M352.93,-164.98C364.65,-156.92 382.48,-144.65 396.45,-135.03"/>
<polygon fill="#63b8ff" stroke="#63b8ff" points="398.71,-137.72 404.97,-129.17 394.74,-131.96 398.71,-137.72"/>
</a>
</g>
</g>
<!-- Node14 -->
<g id="Node000014" class="node">
<title>Node14</title>
<g id="a_Node000014"><a xlink:title=" ">
<polygon fill="#e0e0e0" stroke="#999999" points="549.06,-129 484.06,-129 484.06,-110 549.06,-110 549.06,-129"/>
<text text-anchor="middle" x="516.56" y="-117" font-family="Helvetica,sans-Serif" font-size="10.00">stdexcept</text>
</a>
</g>
</g>
<!-- Node1&#45;&gt;Node14 -->
<g id="edge21_Node000001_Node000014" class="edge">
<title>Node1&#45;&gt;Node14</title>
<g id="a_edge21_Node000001_Node000014"><a xlink:title=" ">
<path fill="none" stroke="#63b8ff" d="M368.84,-164.98C398.52,-156.05 445.35,-141.94 478.31,-132.02"/>
<polygon fill="#63b8ff" stroke="#63b8ff" points="479.5,-135.32 488.06,-129.08 477.48,-128.61 479.5,-135.32"/>
</a>
</g>
</g>
<!-- Node2&#45;&gt;Node3 -->
<g id="edge2_Node000002_Node000003" class="edge">
<title>Node2&#45;&gt;Node3</title>
<g id="a_edge2_Node000002_Node000003"><a xlink:title=" ">
<path fill="none" stroke="#63b8ff" d="M414.84,-56.31C412.04,-55.85 409.26,-55.42 406.56,-55 302.06,-38.92 178.1,-22.62 118.71,-14.97"/>
<polygon fill="#63b8ff" stroke="#63b8ff" points="119.09,-11.49 108.73,-13.69 118.2,-18.44 119.09,-11.49"/>
</a>
</g>
</g>
<!-- Node4 -->
<g id="Node000004" class="node">
<title>Node4</title>
<g id="a_Node000004"><a xlink:title=" ">
<polygon fill="#e0e0e0" stroke="#999999" points="269.06,-19 216.06,-19 216.06,0 269.06,0 269.06,-19"/>
<text text-anchor="middle" x="242.56" y="-7" font-family="Helvetica,sans-Serif" font-size="10.00">cstddef</text>
</a>
</g>
</g>
<!-- Node2&#45;&gt;Node4 -->
<g id="edge3_Node000002_Node000004" class="edge">
<title>Node2&#45;&gt;Node4</title>
<g id="a_edge3_Node000002_Node000004"><a xlink:title=" ">
<path fill="none" stroke="#63b8ff" d="M422.18,-54.98C382.94,-45.27 319.04,-29.44 278.98,-19.52"/>
<polygon fill="#63b8ff" stroke="#63b8ff" points="279.63,-16.08 269.09,-17.07 277.95,-22.87 279.63,-16.08"/>
</a>
</g>
</g>
<!-- Node5 -->
<g id="Node000005" class="node">
<title>Node5</title>
<g id="a_Node000005"><a xlink:title=" ">
<polygon fill="#e0e0e0" stroke="#999999" points="331.56,-19 287.56,-19 287.56,0 331.56,0 331.56,-19"/>
<text text-anchor="middle" x="309.56" y="-7" font-family="Helvetica,sans-Serif" font-size="10.00">string</text>
</a>
</g>
</g>
<!-- Node2&#45;&gt;Node5 -->
<g id="edge4_Node000002_Node000005" class="edge">
<title>Node2&#45;&gt;Node5</title>
<g id="a_edge4_Node000002_Node000005"><a xlink:title=" ">
<path fill="none" stroke="#63b8ff" d="M432.94,-54.98C408.08,-46.02 368.79,-31.86 341.25,-21.92"/>
<polygon fill="#63b8ff" stroke="#63b8ff" points="342.27,-18.57 331.68,-18.47 339.9,-25.16 342.27,-18.57"/>
</a>
</g>
</g>
<!-- Node6 -->
<g id="Node000006" class="node">
<title>Node6</title>
<g id="a_Node000006"><a xlink:title=" ">
<polygon fill="#e0e0e0" stroke="#999999" points="546.06,-19 499.06,-19 499.06,0 546.06,0 546.06,-19"/>
<text text-anchor="middle" x="522.56" y="-7" font-family="Helvetica,sans-Serif" font-size="10.00">vector</text>
</a>
</g>
</g>
<!-- Node2&#45;&gt;Node6 -->
<g id="edge5_Node000002_Node000006" class="edge">
<title>Node2&#45;&gt;Node6</title>
<g id="a_edge5_Node000002_Node000006"><a xlink:title=" ">
<path fill="none" stroke="#63b8ff" d="M467.17,-54.98C477.02,-47.07 491.91,-35.11 503.78,-25.58"/>
<polygon fill="#63b8ff" stroke="#63b8ff" points="506.16,-28.16 511.77,-19.17 501.78,-22.7 506.16,-28.16"/>
</a>
</g>
</g>
<!-- Node7 -->
<g id="Node000007" class="node">
<title>Node7</title>
<g id="a_Node000007"><a xlink:title=" ">
<polygon fill="#e0e0e0" stroke="#999999" points="477.56,-19 435.56,-19 435.56,0 477.56,0 477.56,-19"/>
<text text-anchor="middle" x="456.56" y="-7" font-family="Helvetica,sans-Serif" font-size="10.00">array</text>
</a>
</g>
</g>
<!-- Node2&#45;&gt;Node7 -->
<g id="edge6_Node000002_Node000007" class="edge">
<title>Node2&#45;&gt;Node7</title>
<g id="a_edge6_Node000002_Node000007"><a xlink:title=" ">
<path fill="none" stroke="#63b8ff" d="M456.56,-54.75C456.56,-47.8 456.56,-37.85 456.56,-29.13"/>
<polygon fill="#63b8ff" stroke="#63b8ff" points="460.06,-29.09 456.56,-19.09 453.06,-29.09 460.06,-29.09"/>
</a>
</g>
</g>
<!-- Node8&#45;&gt;Node2 -->
<g id="edge8_Node000008_Node000002" class="edge">
<title>Node8&#45;&gt;Node2</title>
<g id="a_edge8_Node000008_Node000002"><a xlink:title=" ">
<path fill="none" stroke="#63b8ff" d="M302.12,-109.98C333.28,-101.01 382.53,-86.82 417.02,-76.89"/>
<polygon fill="#63b8ff" stroke="#63b8ff" points="418.13,-80.21 426.77,-74.08 416.19,-73.49 418.13,-80.21"/>
</a>
</g>
</g>
<!-- Node8&#45;&gt;Node3 -->
<g id="edge13_Node000008_Node000003" class="edge">
<title>Node8&#45;&gt;Node3</title>
<g id="a_edge13_Node000008_Node000003"><a xlink:title=" ">
<path fill="none" stroke="#63b8ff" d="M232.36,-117.69C166.51,-115.41 40.2,-106.78 12.56,-74 -3.96,-54.41 25.54,-35.27 51.4,-23.21"/>
<polygon fill="#63b8ff" stroke="#63b8ff" points="52.94,-26.35 60.66,-19.1 50.1,-19.95 52.94,-26.35"/>
</a>
</g>
</g>
<!-- Node8&#45;&gt;Node5 -->
<g id="edge15_Node000008_Node000005" class="edge">
<title>Node8&#45;&gt;Node5</title>
<g id="a_edge15_Node000008_Node000005"><a xlink:title=" ">
<path fill="none" stroke="#63b8ff" d="M275.59,-109.66C281.64,-92.01 295.31,-52.09 303.35,-28.64"/>
<polygon fill="#63b8ff" stroke="#63b8ff" points="306.67,-29.75 306.6,-19.16 300.04,-27.48 306.67,-29.75"/>
</a>
</g>
</g>
<!-- Node8&#45;&gt;Node6 -->
<g id="edge17_Node000008_Node000006" class="edge">
<title>Node8&#45;&gt;Node6</title>
<g id="a_edge17_Node000008_Node000006"><a xlink:title=" ">
<path fill="none" stroke="#63b8ff" d="M312.79,-113.3C376.19,-104.74 493.63,-87.33 507.56,-74 519.45,-62.63 522.68,-43.74 523.25,-29.5"/>
<polygon fill="#63b8ff" stroke="#63b8ff" points="526.75,-29.33 523.24,-19.33 519.75,-29.33 526.75,-29.33"/>
</a>
</g>
</g>
<!-- Node9 -->
<g id="Node000009" class="node">
<title>Node9</title>
<g id="a_Node000009"><a xlink:href="types_8hpp.html" target="_top" xlink:title=" ">
<polygon fill="white" stroke="#666666" points="275.06,-74 210.06,-74 210.06,-55 275.06,-55 275.06,-74"/>
<text text-anchor="middle" x="242.56" y="-62" font-family="Helvetica,sans-Serif" font-size="10.00">types.hpp</text>
</a>
</g>
</g>
<!-- Node8&#45;&gt;Node9 -->
<g id="edge9_Node000008_Node000009" class="edge">
<title>Node8&#45;&gt;Node9</title>
<g id="a_edge9_Node000008_Node000009"><a xlink:title=" ">
<path fill="none" stroke="#63b8ff" d="M267.61,-109.75C263.5,-102.49 257.54,-91.95 252.46,-82.98"/>
<polygon fill="#63b8ff" stroke="#63b8ff" points="255.4,-81.07 247.42,-74.09 249.3,-84.52 255.4,-81.07"/>
</a>
</g>
</g>
<!-- Node10 -->
<g id="Node000010" class="node">
<title>Node10</title>
<g id="a_Node000010"><a xlink:title=" ">
<polygon fill="#e0e0e0" stroke="#999999" points="397.06,-74 332.06,-74 332.06,-55 397.06,-55 397.06,-74"/>
<text text-anchor="middle" x="364.56" y="-62" font-family="Helvetica,sans-Serif" font-size="10.00">exception</text>
</a>
</g>
</g>
<!-- Node8&#45;&gt;Node10 -->
<g id="edge14_Node000008_Node000010" class="edge">
<title>Node8&#45;&gt;Node10</title>
<g id="a_edge14_Node000008_Node000010"><a xlink:title=" ">
<path fill="none" stroke="#63b8ff" d="M287.34,-109.98C301.74,-101.69 323.87,-88.94 340.75,-79.22"/>
<polygon fill="#63b8ff" stroke="#63b8ff" points="342.59,-82.19 349.51,-74.17 339.1,-76.13 342.59,-82.19"/>
</a>
</g>
</g>
<!-- Node11 -->
<g id="Node000011" class="node">
<title>Node11</title>
<g id="a_Node000011"><a xlink:title=" ">
<polygon fill="#e0e0e0" stroke="#999999" points="115.06,-74 22.06,-74 22.06,-55 115.06,-55 115.06,-74"/>
<text text-anchor="middle" x="68.56" y="-62" font-family="Helvetica,sans-Serif" font-size="10.00">unordered_map</text>
</a>
</g>
</g>
<!-- Node8&#45;&gt;Node11 -->
<g id="edge16_Node000008_Node000011" class="edge">
<title>Node8&#45;&gt;Node11</title>
<g id="a_edge16_Node000008_Node000011"><a xlink:title=" ">
<path fill="none" stroke="#63b8ff" d="M239.79,-109.98C204.94,-100.93 149.7,-86.58 111.42,-76.64"/>
<polygon fill="#63b8ff" stroke="#63b8ff" points="112.15,-73.21 101.6,-74.08 110.39,-79.98 112.15,-73.21"/>
</a>
</g>
</g>
<!-- Node12 -->
<g id="Node000012" class="node">
<title>Node12</title>
<g id="a_Node000012"><a xlink:title=" ">
<polygon fill="#e0e0e0" stroke="#999999" points="191.56,-74 133.56,-74 133.56,-55 191.56,-55 191.56,-74"/>
<text text-anchor="middle" x="162.56" y="-62" font-family="Helvetica,sans-Serif" font-size="10.00">memory</text>
</a>
</g>
</g>
<!-- Node8&#45;&gt;Node12 -->
<g id="edge18_Node000008_Node000012" class="edge">
<title>Node8&#45;&gt;Node12</title>
<g id="a_edge18_Node000008_Node000012"><a xlink:title=" ">
<path fill="none" stroke="#63b8ff" d="M254.89,-109.98C237.27,-101.5 209.98,-88.35 189.64,-78.54"/>
<polygon fill="#63b8ff" stroke="#63b8ff" points="191.09,-75.36 180.56,-74.17 188.05,-81.66 191.09,-75.36"/>
</a>
</g>
</g>
<!-- Node9&#45;&gt;Node3 -->
<g id="edge11_Node000009_Node000003" class="edge">
<title>Node9&#45;&gt;Node3</title>
<g id="a_edge11_Node000009_Node000003"><a xlink:title=" ">
<path fill="none" stroke="#63b8ff" d="M217.02,-54.98C190.28,-46.07 148.13,-32.02 118.36,-22.1"/>
<polygon fill="#63b8ff" stroke="#63b8ff" points="119.38,-18.75 108.78,-18.91 117.16,-25.39 119.38,-18.75"/>
</a>
</g>
</g>
<!-- Node9&#45;&gt;Node4 -->
<g id="edge10_Node000009_Node000004" class="edge">
<title>Node9&#45;&gt;Node4</title>
<g id="a_edge10_Node000009_Node000004"><a xlink:title=" ">
<path fill="none" stroke="#63b8ff" d="M242.56,-54.75C242.56,-47.8 242.56,-37.85 242.56,-29.13"/>
<polygon fill="#63b8ff" stroke="#63b8ff" points="246.06,-29.09 242.56,-19.09 239.06,-29.09 246.06,-29.09"/>
</a>
</g>
</g>
<!-- Node9&#45;&gt;Node5 -->
<g id="edge12_Node000009_Node000005" class="edge">
<title>Node9&#45;&gt;Node5</title>
<g id="a_edge12_Node000009_Node000005"><a xlink:title=" ">
<path fill="none" stroke="#63b8ff" d="M253.33,-54.98C263.33,-47.07 278.45,-35.11 290.49,-25.58"/>
<polygon fill="#63b8ff" stroke="#63b8ff" points="292.93,-28.12 298.6,-19.17 288.59,-22.63 292.93,-28.12"/>
</a>
</g>
</g>
</g>
</svg>
