<?xml version="1.0" encoding="UTF-8" standalone="no"?>
<!DOCTYPE svg PUBLIC "-//W3C//DTD SVG 1.1//EN"
 "http://www.w3.org/Graphics/SVG/1.1/DTD/svg11.dtd">
<!-- Generated by graphviz version 2.43.0 (0)
 -->
<!-- Title: src/compiler/compile.cpp Pages: 1 -->
<svg width="903pt" height="192pt"
 viewBox="0.00 0.00 902.50 192.00" xmlns="http://www.w3.org/2000/svg" xmlns:xlink="http://www.w3.org/1999/xlink">
<g id="graph0" class="graph" transform="scale(1 1) rotate(0) translate(4 188)">
<title>src/compiler/compile.cpp</title>
<!-- Node1 -->
<g id="Node000001" class="node">
<title>Node1</title>
<g id="a_Node000001"><a xlink:title=" ">
<polygon fill="#999999" stroke="#666666" points="504.5,-184 365.5,-184 365.5,-165 504.5,-165 504.5,-184"/>
<text text-anchor="middle" x="435" y="-172" font-family="Helvetica,sans-Serif" font-size="10.00">src/compiler/compile.cpp</text>
</a>
</g>
</g>
<!-- Node2 -->
<g id="Node000002" class="node">
<title>Node2</title>
<g id="a_Node000002"><a xlink:href="bytecode_8hpp.html" target="_top" xlink:title=" ">
<polygon fill="white" stroke="#666666" points="408.5,-74 325.5,-74 325.5,-55 408.5,-55 408.5,-74"/>
<text text-anchor="middle" x="367" y="-62" font-family="Helvetica,sans-Serif" font-size="10.00">bytecode.hpp</text>
</a>
</g>
</g>
<!-- Node1&#45;&gt;Node2 -->
<g id="edge1_Node000001_Node000002" class="edge">
<title>Node1&#45;&gt;Node2</title>
<g id="a_edge1_Node000001_Node000002"><a xlink:title=" ">
<path fill="none" stroke="#63b8ff" d="M421.92,-164.75C410.84,-156.7 395.31,-143.78 386,-129 377.38,-115.31 372.49,-97.5 369.84,-84.22"/>
<polygon fill="#63b8ff" stroke="#63b8ff" points="373.28,-83.58 368.11,-74.33 366.39,-84.79 373.28,-83.58"/>
</a>
</g>
</g>
<!-- Node3 -->
<g id="Node000003" class="node">
<title>Node3</title>
<g id="a_Node000003"><a xlink:title=" ">
<polygon fill="#e0e0e0" stroke="#999999" points="234,-19 184,-19 184,0 234,0 234,-19"/>
<text text-anchor="middle" x="209" y="-7" font-family="Helvetica,sans-Serif" font-size="10.00">cstdint</text>
</a>
</g>
</g>
<!-- Node1&#45;&gt;Node3 -->
<g id="edge22_Node000001_Node000003" class="edge">
<title>Node1&#45;&gt;Node3</title>
<g id="a_edge22_Node000001_Node000003"><a xlink:title=" ">
<path fill="none" stroke="#63b8ff" d="M365.36,-166.74C332.31,-160.82 293.66,-149.75 264,-129 230.5,-105.57 216.91,-56.38 211.8,-29.33"/>
<polygon fill="#63b8ff" stroke="#63b8ff" points="215.21,-28.51 210.09,-19.23 208.31,-29.67 215.21,-28.51"/>
</a>
</g>
</g>
<!-- Node4 -->
<g id="Node000004" class="node">
<title>Node4</title>
<g id="a_Node000004"><a xlink:title=" ">
<polygon fill="#e0e0e0" stroke="#999999" points="305.5,-19 252.5,-19 252.5,0 305.5,0 305.5,-19"/>
<text text-anchor="middle" x="279" y="-7" font-family="Helvetica,sans-Serif" font-size="10.00">cstddef</text>
</a>
</g>
</g>
<!-- Node1&#45;&gt;Node4 -->
<g id="edge21_Node000001_Node000004" class="edge">
<title>Node1&#45;&gt;Node4</title>
<g id="a_edge21_Node000001_Node000004"><a xlink:title=" ">
<path fill="none" stroke="#63b8ff" d="M386.72,-164.92C338.27,-153.45 266.2,-127.93 233,-74 222.24,-56.53 240.1,-37.62 256.6,-25.02"/>
<polygon fill="#63b8ff" stroke="#63b8ff" points="258.86,-27.71 264.95,-19.05 254.78,-22.02 258.86,-27.71"/>
</a>
</g>
</g>
<!-- Node7 -->
<g id="Node000007" class="node">
<title>Node7</title>
<g id="a_Node000007"><a xlink:href="compiler_8hpp.html" target="_top" xlink:title=" ">
<polygon fill="white" stroke="#666666" points="475,-129 395,-129 395,-110 475,-110 475,-129"/>
<text text-anchor="middle" x="435" y="-117" font-family="Helvetica,sans-Serif" font-size="10.00">compiler.hpp</text>
</a>
</g>
</g>
<!-- Node1&#45;&gt;Node7 -->
<g id="edge6_Node000001_Node000007" class="edge">
<title>Node1&#45;&gt;Node7</title>
<g id="a_edge6_Node000001_Node000007"><a xlink:title=" ">
<path fill="none" stroke="#63b8ff" d="M435,-164.75C435,-157.8 435,-147.85 435,-139.13"/>
<polygon fill="#63b8ff" stroke="#63b8ff" points="438.5,-139.09 435,-129.09 431.5,-139.09 438.5,-139.09"/>
</a>
</g>
</g>
<!-- Node9 -->
<g id="Node000009" class="node">
<title>Node9</title>
<g id="a_Node000009"><a xlink:href="types_8hpp.html" target="_top" xlink:title=" ">
<polygon fill="white" stroke="#666666" points="307.5,-74 242.5,-74 242.5,-55 307.5,-55 307.5,-74"/>
<text text-anchor="middle" x="275" y="-62" font-family="Helvetica,sans-Serif" font-size="10.00">types.hpp</text>
</a>
</g>
</g>
<!-- Node1&#45;&gt;Node9 -->
<g id="edge27_Node000001_Node000009" class="edge">
<title>Node1&#45;&gt;Node9</title>
<g id="a_edge27_Node000001_Node000009"><a xlink:title=" ">
<path fill="none" stroke="#63b8ff" d="M422.18,-164.84C394.79,-146.36 330.35,-102.86 296.55,-80.05"/>
<polygon fill="#63b8ff" stroke="#63b8ff" points="298.13,-76.89 287.88,-74.2 294.21,-82.69 298.13,-76.89"/>
</a>
</g>
</g>
<!-- Node10 -->
<g id="Node000010" class="node">
<title>Node10</title>
<g id="a_Node000010"><a xlink:title=" ">
<polygon fill="#e0e0e0" stroke="#999999" points="894.5,-74 829.5,-74 829.5,-55 894.5,-55 894.5,-74"/>
<text text-anchor="middle" x="862" y="-62" font-family="Helvetica,sans-Serif" font-size="10.00">exception</text>
</a>
</g>
</g>
<!-- Node1&#45;&gt;Node10 -->
<g id="edge23_Node000001_Node000010" class="edge">
<title>Node1&#45;&gt;Node10</title>
<g id="a_edge23_Node000001_Node000010"><a xlink:title=" ">
<path fill="none" stroke="#63b8ff" d="M443.83,-164.75C458.73,-150.59 490.43,-122.92 523,-110 637.58,-64.55 675.79,-90.11 798,-74 804.87,-73.09 812.15,-72.13 819.25,-71.19"/>
<polygon fill="#63b8ff" stroke="#63b8ff" points="819.99,-74.62 829.44,-69.84 819.07,-67.68 819.99,-74.62"/>
</a>
</g>
</g>
<!-- Node13 -->
<g id="Node000013" class="node">
<title>Node13</title>
<g id="a_Node000013"><a xlink:title=" ">
<polygon fill="#e0e0e0" stroke="#999999" points="628.5,-129 531.5,-129 531.5,-110 628.5,-110 628.5,-129"/>
<text text-anchor="middle" x="580" y="-117" font-family="Helvetica,sans-Serif" font-size="10.00">compiler/errno.h</text>
</a>
</g>
</g>
<!-- Node1&#45;&gt;Node13 -->
<g id="edge20_Node000001_Node000013" class="edge">
<title>Node1&#45;&gt;Node13</title>
<g id="a_edge20_Node000001_Node000013"><a xlink:title=" ">
<path fill="none" stroke="#63b8ff" d="M458.3,-164.98C482.25,-156.23 519.78,-142.51 546.83,-132.62"/>
<polygon fill="#63b8ff" stroke="#63b8ff" points="548.09,-135.89 556.28,-129.17 545.69,-129.32 548.09,-135.89"/>
</a>
</g>
</g>
<!-- Node14 -->
<g id="Node000014" class="node">
<title>Node14</title>
<g id="a_Node000014"><a xlink:title=" ">
<polygon fill="#e0e0e0" stroke="#999999" points="707,-129 647,-129 647,-110 707,-110 707,-129"/>
<text text-anchor="middle" x="677" y="-117" font-family="Helvetica,sans-Serif" font-size="10.00">iostream</text>
</a>
</g>
</g>
<!-- Node1&#45;&gt;Node14 -->
<g id="edge24_Node000001_Node000014" class="edge">
<title>Node1&#45;&gt;Node14</title>
<g id="a_edge24_Node000001_Node000014"><a xlink:title=" ">
<path fill="none" stroke="#63b8ff" d="M473.88,-164.98C518.5,-155.21 591.34,-139.26 636.59,-129.35"/>
<polygon fill="#63b8ff" stroke="#63b8ff" points="637.62,-132.71 646.64,-127.15 636.12,-125.87 637.62,-132.71"/>
</a>
</g>
</g>
<!-- Node15 -->
<g id="Node000015" class="node">
<title>Node15</title>
<g id="a_Node000015"><a xlink:title=" ">
<polygon fill="#e0e0e0" stroke="#999999" points="782.5,-129 725.5,-129 725.5,-110 782.5,-110 782.5,-129"/>
<text text-anchor="middle" x="754" y="-117" font-family="Helvetica,sans-Serif" font-size="10.00">ostream</text>
</a>
</g>
</g>
<!-- Node1&#45;&gt;Node15 -->
<g id="edge25_Node000001_Node000015" class="edge">
<title>Node1&#45;&gt;Node15</title>
<g id="a_edge25_Node000001_Node000015"><a xlink:title=" ">
<path fill="none" stroke="#63b8ff" d="M496.04,-164.97C550.86,-157.04 633.77,-144.43 715.45,-128.99"/>
<polygon fill="#63b8ff" stroke="#63b8ff" points="716.24,-132.41 725.41,-127.1 714.93,-125.53 716.24,-132.41"/>
</a>
</g>
</g>
<!-- Node16 -->
<g id="Node000016" class="node">
<title>Node16</title>
<g id="a_Node000016"><a xlink:title=" ">
<polygon fill="#e0e0e0" stroke="#999999" points="865.5,-129 800.5,-129 800.5,-110 865.5,-110 865.5,-129"/>
<text text-anchor="middle" x="833" y="-117" font-family="Helvetica,sans-Serif" font-size="10.00">stdexcept</text>
</a>
</g>
</g>
<!-- Node1&#45;&gt;Node16 -->
<g id="edge26_Node000001_Node000016" class="edge">
<title>Node1&#45;&gt;Node16</title>
<g id="a_edge26_Node000001_Node000016"><a xlink:title=" ">
<path fill="none" stroke="#63b8ff" d="M504.68,-166.49C574.56,-159.08 685.44,-146.3 790.25,-129.18"/>
<polygon fill="#63b8ff" stroke="#63b8ff" points="791.07,-132.59 800.37,-127.51 789.93,-125.69 791.07,-132.59"/>
</a>
</g>
</g>
<!-- Node17 -->
<g id="Node000017" class="node">
<title>Node17</title>
<g id="a_Node000017"><a xlink:href="vmreg__defines_8hpp.html" target="_top" xlink:title=" ">
<polygon fill="white" stroke="#666666" points="110,-129 0,-129 0,-110 110,-110 110,-129"/>
<text text-anchor="middle" x="55" y="-117" font-family="Helvetica,sans-Serif" font-size="10.00">vmreg_defines.hpp</text>
</a>
</g>
</g>
<!-- Node1&#45;&gt;Node17 -->
<g id="edge28_Node000001_Node000017" class="edge">
<title>Node1&#45;&gt;Node17</title>
<g id="a_edge28_Node000001_Node000017"><a xlink:title=" ">
<path fill="none" stroke="#63b8ff" d="M373.95,-164.98C304.46,-155.29 191.4,-139.52 120.23,-129.6"/>
<polygon fill="#63b8ff" stroke="#63b8ff" points="120.43,-126.09 110.04,-128.18 119.46,-133.02 120.43,-126.09"/>
</a>
</g>
</g>
<!-- Node2&#45;&gt;Node3 -->
<g id="edge2_Node000002_Node000003" class="edge">
<title>Node2&#45;&gt;Node3</title>
<g id="a_edge2_Node000002_Node000003"><a xlink:title=" ">
<path fill="none" stroke="#63b8ff" d="M341.61,-54.98C315.05,-46.07 273.16,-32.02 243.58,-22.1"/>
<polygon fill="#63b8ff" stroke="#63b8ff" points="244.66,-18.77 234.06,-18.91 242.43,-25.41 244.66,-18.77"/>
</a>
</g>
</g>
<!-- Node2&#45;&gt;Node4 -->
<g id="edge3_Node000002_Node000004" class="edge">
<title>Node2&#45;&gt;Node4</title>
<g id="a_edge3_Node000002_Node000004"><a xlink:title=" ">
<path fill="none" stroke="#63b8ff" d="M352.86,-54.98C339.21,-46.77 318.31,-34.18 302.22,-24.49"/>
<polygon fill="#63b8ff" stroke="#63b8ff" points="303.77,-21.33 293.4,-19.17 300.16,-27.33 303.77,-21.33"/>
</a>
</g>
</g>
<!-- Node5 -->
<g id="Node000005" class="node">
<title>Node5</title>
<g id="a_Node000005"><a xlink:title=" ">
<polygon fill="#e0e0e0" stroke="#999999" points="462,-19 418,-19 418,0 462,0 462,-19"/>
<text text-anchor="middle" x="440" y="-7" font-family="Helvetica,sans-Serif" font-size="10.00">string</text>
</a>
</g>
</g>
<!-- Node2&#45;&gt;Node5 -->
<g id="edge4_Node000002_Node000005" class="edge">
<title>Node2&#45;&gt;Node5</title>
<g id="a_edge4_Node000002_Node000005"><a xlink:title=" ">
<path fill="none" stroke="#63b8ff" d="M378.73,-54.98C389.73,-47 406.42,-34.88 419.6,-25.31"/>
<polygon fill="#63b8ff" stroke="#63b8ff" points="422.02,-27.88 428.06,-19.17 417.91,-22.21 422.02,-27.88"/>
</a>
</g>
</g>
<!-- Node6 -->
<g id="Node000006" class="node">
<title>Node6</title>
<g id="a_Node000006"><a xlink:title=" ">
<polygon fill="#e0e0e0" stroke="#999999" points="712.5,-19 665.5,-19 665.5,0 712.5,0 712.5,-19"/>
<text text-anchor="middle" x="689" y="-7" font-family="Helvetica,sans-Serif" font-size="10.00">vector</text>
</a>
</g>
</g>
<!-- Node2&#45;&gt;Node6 -->
<g id="edge5_Node000002_Node000006" class="edge">
<title>Node2&#45;&gt;Node6</title>
<g id="a_edge5_Node000002_Node000006"><a xlink:title=" ">
<path fill="none" stroke="#63b8ff" d="M408.75,-56.53C411.88,-56.01 414.99,-55.5 418,-55 503.42,-40.87 604.01,-24.4 655.27,-16.01"/>
<polygon fill="#63b8ff" stroke="#63b8ff" points="656.13,-19.42 665.43,-14.35 655,-12.51 656.13,-19.42"/>
</a>
</g>
</g>
<!-- Node7&#45;&gt;Node2 -->
<g id="edge7_Node000007_Node000002" class="edge">
<title>Node7&#45;&gt;Node2</title>
<g id="a_edge7_Node000007_Node000002"><a xlink:title=" ">
<path fill="none" stroke="#63b8ff" d="M424.07,-109.98C413.92,-102.07 398.58,-90.11 386.35,-80.58"/>
<polygon fill="#63b8ff" stroke="#63b8ff" points="388.16,-77.56 378.12,-74.17 383.86,-83.08 388.16,-77.56"/>
</a>
</g>
</g>
<!-- Node7&#45;&gt;Node3 -->
<g id="edge14_Node000007_Node000003" class="edge">
<title>Node7&#45;&gt;Node3</title>
<g id="a_edge14_Node000007_Node000003"><a xlink:title=" ">
<path fill="none" stroke="#63b8ff" d="M394.71,-114.18C342.92,-107.88 256.83,-94.61 233,-74 220.06,-62.81 214.08,-43.88 211.32,-29.6"/>
<polygon fill="#63b8ff" stroke="#63b8ff" points="214.73,-28.72 209.74,-19.38 207.81,-29.8 214.73,-28.72"/>
</a>
</g>
</g>
<!-- Node7&#45;&gt;Node5 -->
<g id="edge16_Node000007_Node000005" class="edge">
<title>Node7&#45;&gt;Node5</title>
<g id="a_edge16_Node000007_Node000005"><a xlink:title=" ">
<path fill="none" stroke="#63b8ff" d="M454.27,-109.9C468.12,-102.55 485.76,-90.54 494,-74 503.6,-54.74 483.83,-36.44 465.58,-24.47"/>
<polygon fill="#63b8ff" stroke="#63b8ff" points="467.22,-21.38 456.87,-19.13 463.56,-27.34 467.22,-21.38"/>
</a>
</g>
</g>
<!-- Node7&#45;&gt;Node6 -->
<g id="edge18_Node000007_Node000006" class="edge">
<title>Node7&#45;&gt;Node6</title>
<g id="a_edge18_Node000007_Node000006"><a xlink:title=" ">
<path fill="none" stroke="#63b8ff" d="M475.08,-112.04C479.77,-111.33 484.49,-110.63 489,-110 553.97,-100.9 738.53,-123.13 782,-74 803.69,-49.48 757.21,-29.86 722.46,-19.23"/>
<polygon fill="#63b8ff" stroke="#63b8ff" points="723.17,-15.79 712.59,-16.35 721.21,-22.51 723.17,-15.79"/>
</a>
</g>
</g>
<!-- Node8 -->
<g id="Node000008" class="node">
<title>Node8</title>
<g id="a_Node000008"><a xlink:href="params_8hpp.html" target="_top" xlink:title=" ">
<polygon fill="white" stroke="#666666" points="661,-74 541,-74 541,-55 661,-55 661,-74"/>
<text text-anchor="middle" x="601" y="-62" font-family="Helvetica,sans-Serif" font-size="10.00">compiler/params.hpp</text>
</a>
</g>
</g>
<!-- Node7&#45;&gt;Node8 -->
<g id="edge8_Node000007_Node000008" class="edge">
<title>Node7&#45;&gt;Node8</title>
<g id="a_edge8_Node000007_Node000008"><a xlink:title=" ">
<path fill="none" stroke="#63b8ff" d="M461.67,-109.98C489.54,-101.09 533.45,-87.07 564.52,-77.15"/>
<polygon fill="#63b8ff" stroke="#63b8ff" points="565.66,-80.46 574.12,-74.08 563.53,-73.79 565.66,-80.46"/>
</a>
</g>
</g>
<!-- Node7&#45;&gt;Node9 -->
<g id="edge10_Node000007_Node000009" class="edge">
<title>Node7&#45;&gt;Node9</title>
<g id="a_edge10_Node000007_Node000009"><a xlink:title=" ">
<path fill="none" stroke="#63b8ff" d="M409.29,-109.98C382.55,-101.13 340.47,-87.19 310.55,-77.28"/>
<polygon fill="#63b8ff" stroke="#63b8ff" points="311.5,-73.9 300.91,-74.08 309.3,-80.55 311.5,-73.9"/>
</a>
</g>
</g>
<!-- Node7&#45;&gt;Node10 -->
<g id="edge15_Node000007_Node000010" class="edge">
<title>Node7&#45;&gt;Node10</title>
<g id="a_edge15_Node000007_Node000010"><a xlink:title=" ">
<path fill="none" stroke="#63b8ff" d="M475.07,-111.98C479.76,-111.28 484.48,-110.6 489,-110 633.48,-90.66 670.75,-94.98 815,-74 816.46,-73.79 817.95,-73.56 819.45,-73.33"/>
<polygon fill="#63b8ff" stroke="#63b8ff" points="820.13,-76.76 829.43,-71.69 819,-69.86 820.13,-76.76"/>
</a>
</g>
</g>
<!-- Node11 -->
<g id="Node000011" class="node">
<title>Node11</title>
<g id="a_Node000011"><a xlink:title=" ">
<polygon fill="#e0e0e0" stroke="#999999" points="772.5,-74 679.5,-74 679.5,-55 772.5,-55 772.5,-74"/>
<text text-anchor="middle" x="726" y="-62" font-family="Helvetica,sans-Serif" font-size="10.00">unordered_map</text>
</a>
</g>
</g>
<!-- Node7&#45;&gt;Node11 -->
<g id="edge17_Node000007_Node000011" class="edge">
<title>Node7&#45;&gt;Node11</title>
<g id="a_edge17_Node000007_Node000011"><a xlink:title=" ">
<path fill="none" stroke="#63b8ff" d="M475.16,-111.19C525.46,-102.02 611.97,-86.27 669.08,-75.87"/>
<polygon fill="#63b8ff" stroke="#63b8ff" points="669.83,-79.29 679.04,-74.05 668.57,-72.4 669.83,-79.29"/>
</a>
</g>
</g>
<!-- Node12 -->
<g id="Node000012" class="node">
<title>Node12</title>
<g id="a_Node000012"><a xlink:title=" ">
<polygon fill="#e0e0e0" stroke="#999999" points="485,-74 427,-74 427,-55 485,-55 485,-74"/>
<text text-anchor="middle" x="456" y="-62" font-family="Helvetica,sans-Serif" font-size="10.00">memory</text>
</a>
</g>
</g>
<!-- Node7&#45;&gt;Node12 -->
<g id="edge19_Node000007_Node000012" class="edge">
<title>Node7&#45;&gt;Node12</title>
<g id="a_edge19_Node000007_Node000012"><a xlink:title=" ">
<path fill="none" stroke="#63b8ff" d="M438.47,-109.75C441.28,-102.65 445.34,-92.4 448.85,-83.56"/>
<polygon fill="#63b8ff" stroke="#63b8ff" points="452.17,-84.68 452.6,-74.09 445.66,-82.1 452.17,-84.68"/>
</a>
</g>
</g>
<!-- Node8&#45;&gt;Node5 -->
<g id="edge9_Node000008_Node000005" class="edge">
<title>Node8&#45;&gt;Node5</title>
<g id="a_edge9_Node000008_Node000005"><a xlink:title=" ">
<path fill="none" stroke="#63b8ff" d="M575.13,-54.98C547.02,-45.73 502.08,-30.94 471.83,-20.98"/>
<polygon fill="#63b8ff" stroke="#63b8ff" points="472.77,-17.6 462.18,-17.8 470.58,-24.25 472.77,-17.6"/>
</a>
</g>
</g>
<!-- Node9&#45;&gt;Node3 -->
<g id="edge12_Node000009_Node000003" class="edge">
<title>Node9&#45;&gt;Node3</title>
<g id="a_edge12_Node000009_Node000003"><a xlink:title=" ">
<path fill="none" stroke="#63b8ff" d="M264.4,-54.98C254.54,-47.07 239.65,-35.11 227.78,-25.58"/>
<polygon fill="#63b8ff" stroke="#63b8ff" points="229.79,-22.7 219.8,-19.17 225.4,-28.16 229.79,-22.7"/>
</a>
</g>
</g>
<!-- Node9&#45;&gt;Node4 -->
<g id="edge11_Node000009_Node000004" class="edge">
<title>Node9&#45;&gt;Node4</title>
<g id="a_edge11_Node000009_Node000004"><a xlink:title=" ">
<path fill="none" stroke="#63b8ff" d="M275.66,-54.75C276.18,-47.8 276.94,-37.85 277.59,-29.13"/>
<polygon fill="#63b8ff" stroke="#63b8ff" points="281.09,-29.32 278.35,-19.09 274.11,-28.8 281.09,-29.32"/>
</a>
</g>
</g>
<!-- Node9&#45;&gt;Node5 -->
<g id="edge13_Node000009_Node000005" class="edge">
<title>Node9&#45;&gt;Node5</title>
<g id="a_edge13_Node000009_Node000005"><a xlink:title=" ">
<path fill="none" stroke="#63b8ff" d="M301.51,-54.98C330.48,-45.68 376.9,-30.77 407.91,-20.81"/>
<polygon fill="#63b8ff" stroke="#63b8ff" points="409.34,-24.03 417.79,-17.63 407.2,-17.36 409.34,-24.03"/>
</a>
</g>
</g>
<!-- Node17&#45;&gt;Node3 -->
<g id="edge29_Node000017_Node000003" class="edge">
<title>Node17&#45;&gt;Node3</title>
<g id="a_edge29_Node000017_Node000003"><a xlink:title=" ">
<path fill="none" stroke="#63b8ff" d="M62.89,-109.92C75.12,-96.95 99.77,-72.05 124,-55 141.54,-42.66 162.93,-31.48 179.87,-23.41"/>
<polygon fill="#63b8ff" stroke="#63b8ff" points="181.68,-26.43 189.26,-19.03 178.72,-20.08 181.68,-26.43"/>
</a>
</g>
</g>
</g>
</svg>
