<?xml version="1.0" encoding="UTF-8" standalone="no"?>
<!DOCTYPE svg PUBLIC "-//W3C//DTD SVG 1.1//EN"
 "http://www.w3.org/Graphics/SVG/1.1/DTD/svg11.dtd">
<!-- Generated by graphviz version 2.43.0 (0)
 -->
<!-- Title: src/compiler/compiler.cpp Pages: 1 -->
<svg width="954pt" height="192pt"
 viewBox="0.00 0.00 953.99 192.00" xmlns="http://www.w3.org/2000/svg" xmlns:xlink="http://www.w3.org/1999/xlink">
<g id="graph0" class="graph" transform="scale(1 1) rotate(0) translate(4 188)">
<title>src/compiler/compiler.cpp</title>
<!-- Node1 -->
<g id="Node000001" class="node">
<title>Node1</title>
<g id="a_Node000001"><a xlink:title=" ">
<polygon fill="#999999" stroke="#666666" points="650.49,-184 508.49,-184 508.49,-165 650.49,-165 650.49,-184"/>
<text text-anchor="middle" x="579.49" y="-172" font-family="Helvetica,sans-Serif" font-size="10.00">src/compiler/compiler.cpp</text>
</a>
</g>
</g>
<!-- Node2 -->
<g id="Node000002" class="node">
<title>Node2</title>
<g id="a_Node000002"><a xlink:href="compiler_8hpp.html" target="_top" xlink:title=" ">
<polygon fill="white" stroke="#666666" points="341.49,-129 261.49,-129 261.49,-110 341.49,-110 341.49,-129"/>
<text text-anchor="middle" x="301.49" y="-117" font-family="Helvetica,sans-Serif" font-size="10.00">compiler.hpp</text>
</a>
</g>
</g>
<!-- Node1&#45;&gt;Node2 -->
<g id="edge1_Node000001_Node000002" class="edge">
<title>Node1&#45;&gt;Node2</title>
<g id="a_edge1_Node000001_Node000002"><a xlink:title=" ">
<path fill="none" stroke="#63b8ff" d="M534.83,-164.98C484.75,-155.44 403.75,-140 351.57,-130.05"/>
<polygon fill="#63b8ff" stroke="#63b8ff" points="352.02,-126.57 341.54,-128.13 350.7,-133.45 352.02,-126.57"/>
</a>
</g>
</g>
<!-- Node3 -->
<g id="Node000003" class="node">
<title>Node3</title>
<g id="a_Node000003"><a xlink:href="bytecode_8hpp.html" target="_top" xlink:title=" ">
<polygon fill="white" stroke="#666666" points="448.99,-74 365.99,-74 365.99,-55 448.99,-55 448.99,-74"/>
<text text-anchor="middle" x="407.49" y="-62" font-family="Helvetica,sans-Serif" font-size="10.00">bytecode.hpp</text>
</a>
</g>
</g>
<!-- Node1&#45;&gt;Node3 -->
<g id="edge18_Node000001_Node000003" class="edge">
<title>Node1&#45;&gt;Node3</title>
<g id="a_edge18_Node000001_Node000003"><a xlink:title=" ">
<path fill="none" stroke="#63b8ff" d="M565.71,-164.84C536.14,-146.28 466.4,-102.49 430.19,-79.75"/>
<polygon fill="#63b8ff" stroke="#63b8ff" points="431.67,-76.55 421.34,-74.2 427.95,-82.48 431.67,-76.55"/>
</a>
</g>
</g>
<!-- Node4 -->
<g id="Node000004" class="node">
<title>Node4</title>
<g id="a_Node000004"><a xlink:title=" ">
<polygon fill="#e0e0e0" stroke="#999999" points="189.49,-19 139.49,-19 139.49,0 189.49,0 189.49,-19"/>
<text text-anchor="middle" x="164.49" y="-7" font-family="Helvetica,sans-Serif" font-size="10.00">cstdint</text>
</a>
</g>
</g>
<!-- Node1&#45;&gt;Node4 -->
<g id="edge21_Node000001_Node000004" class="edge">
<title>Node1&#45;&gt;Node4</title>
<g id="a_edge21_Node000001_Node000004"><a xlink:title=" ">
<path fill="none" stroke="#63b8ff" d="M508.47,-172.74C368.9,-169.49 67.36,-153.26 9.49,-74 4.51,-67.18 4.41,-61.74 9.49,-55 23.9,-35.88 88.22,-22.45 129.35,-15.64"/>
<polygon fill="#63b8ff" stroke="#63b8ff" points="129.94,-19.09 139.26,-14.05 128.83,-12.17 129.94,-19.09"/>
</a>
</g>
</g>
<!-- Node5 -->
<g id="Node000005" class="node">
<title>Node5</title>
<g id="a_Node000005"><a xlink:title=" ">
<polygon fill="#e0e0e0" stroke="#999999" points="77.99,-19 24.99,-19 24.99,0 77.99,0 77.99,-19"/>
<text text-anchor="middle" x="51.49" y="-7" font-family="Helvetica,sans-Serif" font-size="10.00">cstddef</text>
</a>
</g>
</g>
<!-- Node1&#45;&gt;Node5 -->
<g id="edge20_Node000001_Node000005" class="edge">
<title>Node1&#45;&gt;Node5</title>
<g id="a_edge20_Node000001_Node000005"><a xlink:title=" ">
<path fill="none" stroke="#63b8ff" d="M508.13,-173.07C385.29,-171.4 139.55,-163.67 61.49,-129 28.73,-114.45 16.79,-106.87 2.49,-74 -5.74,-55.08 11.98,-36.79 28.36,-24.74"/>
<polygon fill="#63b8ff" stroke="#63b8ff" points="30.4,-27.58 36.66,-19.03 26.43,-21.81 30.4,-27.58"/>
</a>
</g>
</g>
<!-- Node6 -->
<g id="Node000006" class="node">
<title>Node6</title>
<g id="a_Node000006"><a xlink:title=" ">
<polygon fill="#e0e0e0" stroke="#999999" points="271.49,-19 227.49,-19 227.49,0 271.49,0 271.49,-19"/>
<text text-anchor="middle" x="249.49" y="-7" font-family="Helvetica,sans-Serif" font-size="10.00">string</text>
</a>
</g>
</g>
<!-- Node1&#45;&gt;Node6 -->
<g id="edge26_Node000001_Node000006" class="edge">
<title>Node1&#45;&gt;Node6</title>
<g id="a_edge26_Node000001_Node000006"><a xlink:title=" ">
<path fill="none" stroke="#63b8ff" d="M583.02,-164.73C591.08,-143.08 608.12,-86.59 580.49,-55 560.99,-32.7 361.64,-17.64 282.05,-12.48"/>
<polygon fill="#63b8ff" stroke="#63b8ff" points="281.85,-8.96 271.65,-11.81 281.41,-15.94 281.85,-8.96"/>
</a>
</g>
</g>
<!-- Node7 -->
<g id="Node000007" class="node">
<title>Node7</title>
<g id="a_Node000007"><a xlink:title=" ">
<polygon fill="#e0e0e0" stroke="#999999" points="500.99,-19 453.99,-19 453.99,0 500.99,0 500.99,-19"/>
<text text-anchor="middle" x="477.49" y="-7" font-family="Helvetica,sans-Serif" font-size="10.00">vector</text>
</a>
</g>
</g>
<!-- Node1&#45;&gt;Node7 -->
<g id="edge27_Node000001_Node000007" class="edge">
<title>Node1&#45;&gt;Node7</title>
<g id="a_edge27_Node000001_Node000007"><a xlink:title=" ">
<path fill="none" stroke="#63b8ff" d="M589.1,-164.69C597.37,-156.41 608.69,-143.18 613.49,-129 624.03,-97.85 632.8,-81.63 613.49,-55 590.37,-23.11 543.71,-13.65 511.55,-11.07"/>
<polygon fill="#63b8ff" stroke="#63b8ff" points="511.44,-7.56 501.25,-10.44 511.01,-14.55 511.44,-7.56"/>
</a>
</g>
</g>
<!-- Node9 -->
<g id="Node000009" class="node">
<title>Node9</title>
<g id="a_Node000009"><a xlink:href="types_8hpp.html" target="_top" xlink:title=" ">
<polygon fill="white" stroke="#666666" points="83.99,-74 18.99,-74 18.99,-55 83.99,-55 83.99,-74"/>
<text text-anchor="middle" x="51.49" y="-62" font-family="Helvetica,sans-Serif" font-size="10.00">types.hpp</text>
</a>
</g>
</g>
<!-- Node1&#45;&gt;Node9 -->
<g id="edge19_Node000001_Node000009" class="edge">
<title>Node1&#45;&gt;Node9</title>
<g id="a_edge19_Node000001_Node000009"><a xlink:title=" ">
<path fill="none" stroke="#63b8ff" d="M508.39,-167.36C441.73,-160.77 339.57,-148.53 252.49,-129 191.72,-115.37 122.92,-91.8 83.62,-77.53"/>
<polygon fill="#63b8ff" stroke="#63b8ff" points="84.65,-74.18 74.06,-74.02 82.24,-80.75 84.65,-74.18"/>
</a>
</g>
</g>
<!-- Node10 -->
<g id="Node000010" class="node">
<title>Node10</title>
<g id="a_Node000010"><a xlink:title=" ">
<polygon fill="#e0e0e0" stroke="#999999" points="570.99,-74 505.99,-74 505.99,-55 570.99,-55 570.99,-74"/>
<text text-anchor="middle" x="538.49" y="-62" font-family="Helvetica,sans-Serif" font-size="10.00">exception</text>
</a>
</g>
</g>
<!-- Node1&#45;&gt;Node10 -->
<g id="edge23_Node000001_Node000010" class="edge">
<title>Node1&#45;&gt;Node10</title>
<g id="a_edge23_Node000001_Node000010"><a xlink:title=" ">
<path fill="none" stroke="#63b8ff" d="M576.14,-164.66C569.44,-147.01 554.28,-107.09 545.38,-83.64"/>
<polygon fill="#63b8ff" stroke="#63b8ff" points="548.6,-82.27 541.78,-74.16 542.06,-84.75 548.6,-82.27"/>
</a>
</g>
</g>
<!-- Node13 -->
<g id="Node000013" class="node">
<title>Node13</title>
<g id="a_Node000013"><a xlink:title=" ">
<polygon fill="#e0e0e0" stroke="#999999" points="714.99,-129 665.99,-129 665.99,-110 714.99,-110 714.99,-129"/>
<text text-anchor="middle" x="690.49" y="-117" font-family="Helvetica,sans-Serif" font-size="10.00">cstdlib</text>
</a>
</g>
</g>
<!-- Node1&#45;&gt;Node13 -->
<g id="edge22_Node000001_Node000013" class="edge">
<title>Node1&#45;&gt;Node13</title>
<g id="a_edge22_Node000001_Node000013"><a xlink:title=" ">
<path fill="none" stroke="#63b8ff" d="M597.33,-164.98C615.1,-156.5 642.64,-143.35 663.17,-133.54"/>
<polygon fill="#63b8ff" stroke="#63b8ff" points="664.82,-136.64 672.33,-129.17 661.8,-130.32 664.82,-136.64"/>
</a>
</g>
</g>
<!-- Node14 -->
<g id="Node000014" class="node">
<title>Node14</title>
<g id="a_Node000014"><a xlink:title=" ">
<polygon fill="#e0e0e0" stroke="#999999" points="793.49,-129 733.49,-129 733.49,-110 793.49,-110 793.49,-129"/>
<text text-anchor="middle" x="763.49" y="-117" font-family="Helvetica,sans-Serif" font-size="10.00">iostream</text>
</a>
</g>
</g>
<!-- Node1&#45;&gt;Node14 -->
<g id="edge24_Node000001_Node000014" class="edge">
<title>Node1&#45;&gt;Node14</title>
<g id="a_edge24_Node000001_Node000014"><a xlink:title=" ">
<path fill="none" stroke="#63b8ff" d="M609.06,-164.98C640.21,-156.01 689.47,-141.82 723.95,-131.89"/>
<polygon fill="#63b8ff" stroke="#63b8ff" points="725.06,-135.21 733.7,-129.08 723.12,-128.49 725.06,-135.21"/>
</a>
</g>
</g>
<!-- Node15 -->
<g id="Node000015" class="node">
<title>Node15</title>
<g id="a_Node000015"><a xlink:title=" ">
<polygon fill="#e0e0e0" stroke="#999999" points="876.99,-129 811.99,-129 811.99,-110 876.99,-110 876.99,-129"/>
<text text-anchor="middle" x="844.49" y="-117" font-family="Helvetica,sans-Serif" font-size="10.00">stdexcept</text>
</a>
</g>
</g>
<!-- Node1&#45;&gt;Node15 -->
<g id="edge25_Node000001_Node000015" class="edge">
<title>Node1&#45;&gt;Node15</title>
<g id="a_edge25_Node000001_Node000015"><a xlink:title=" ">
<path fill="none" stroke="#63b8ff" d="M622.67,-164.92C665.49,-156.4 733.26,-142.9 801.82,-129.13"/>
<polygon fill="#63b8ff" stroke="#63b8ff" points="802.82,-132.5 811.94,-127.1 801.44,-125.64 802.82,-132.5"/>
</a>
</g>
</g>
<!-- Node16 -->
<g id="Node000016" class="node">
<title>Node16</title>
<g id="a_Node000016"><a xlink:title=" ">
<polygon fill="#e0e0e0" stroke="#999999" points="945.99,-129 894.99,-129 894.99,-110 945.99,-110 945.99,-129"/>
<text text-anchor="middle" x="920.49" y="-117" font-family="Helvetica,sans-Serif" font-size="10.00">errno.h</text>
</a>
</g>
</g>
<!-- Node1&#45;&gt;Node16 -->
<g id="edge28_Node000001_Node000016" class="edge">
<title>Node1&#45;&gt;Node16</title>
<g id="a_edge28_Node000001_Node000016"><a xlink:title=" ">
<path fill="none" stroke="#63b8ff" d="M650.56,-165.27C710.69,-157.83 799.3,-145.76 885.04,-129.13"/>
<polygon fill="#63b8ff" stroke="#63b8ff" points="885.8,-132.54 894.94,-127.18 884.45,-125.68 885.8,-132.54"/>
</a>
</g>
</g>
<!-- Node2&#45;&gt;Node3 -->
<g id="edge2_Node000002_Node000003" class="edge">
<title>Node2&#45;&gt;Node3</title>
<g id="a_edge2_Node000002_Node000003"><a xlink:title=" ">
<path fill="none" stroke="#63b8ff" d="M318.52,-109.98C335.42,-101.54 361.56,-88.47 381.14,-78.68"/>
<polygon fill="#63b8ff" stroke="#63b8ff" points="382.77,-81.77 390.15,-74.17 379.64,-75.51 382.77,-81.77"/>
</a>
</g>
</g>
<!-- Node2&#45;&gt;Node4 -->
<g id="edge12_Node000002_Node000004" class="edge">
<title>Node2&#45;&gt;Node4</title>
<g id="a_edge12_Node000002_Node000004"><a xlink:title=" ">
<path fill="none" stroke="#63b8ff" d="M288.2,-109.87C275.05,-101.19 254.47,-87.22 237.49,-74 217.55,-58.47 195.83,-39.26 181.32,-26.06"/>
<polygon fill="#63b8ff" stroke="#63b8ff" points="183.41,-23.23 173.67,-19.05 178.68,-28.39 183.41,-23.23"/>
</a>
</g>
</g>
<!-- Node2&#45;&gt;Node6 -->
<g id="edge14_Node000002_Node000006" class="edge">
<title>Node2&#45;&gt;Node6</title>
<g id="a_edge14_Node000002_Node000006"><a xlink:title=" ">
<path fill="none" stroke="#63b8ff" d="M283.73,-109.96C270.48,-102.51 253.37,-90.33 245.49,-74 238.74,-60.01 240.61,-42.23 243.67,-29.04"/>
<polygon fill="#63b8ff" stroke="#63b8ff" points="247.1,-29.8 246.36,-19.23 240.34,-27.95 247.1,-29.8"/>
</a>
</g>
</g>
<!-- Node2&#45;&gt;Node7 -->
<g id="edge16_Node000002_Node000007" class="edge">
<title>Node2&#45;&gt;Node7</title>
<g id="a_edge16_Node000002_Node000007"><a xlink:title=" ">
<path fill="none" stroke="#63b8ff" d="M341.59,-117.31C376.6,-114.14 426.51,-104.15 457.49,-74 469.52,-62.3 474.34,-43.44 476.26,-29.32"/>
<polygon fill="#63b8ff" stroke="#63b8ff" points="479.75,-29.52 477.25,-19.22 472.79,-28.83 479.75,-29.52"/>
</a>
</g>
</g>
<!-- Node2&#45;&gt;Node9 -->
<g id="edge8_Node000002_Node000009" class="edge">
<title>Node2&#45;&gt;Node9</title>
<g id="a_edge8_Node000002_Node000009"><a xlink:title=" ">
<path fill="none" stroke="#63b8ff" d="M261.33,-109.98C215.42,-100.25 140.61,-84.39 93.82,-74.47"/>
<polygon fill="#63b8ff" stroke="#63b8ff" points="94.5,-71.04 83.99,-72.39 93.05,-77.89 94.5,-71.04"/>
</a>
</g>
</g>
<!-- Node2&#45;&gt;Node10 -->
<g id="edge13_Node000002_Node000010" class="edge">
<title>Node2&#45;&gt;Node10</title>
<g id="a_edge13_Node000002_Node000010"><a xlink:title=" ">
<path fill="none" stroke="#63b8ff" d="M339.57,-109.98C382.3,-100.43 451.45,-84.97 495.93,-75.02"/>
<polygon fill="#63b8ff" stroke="#63b8ff" points="496.86,-78.4 505.85,-72.8 495.33,-71.57 496.86,-78.4"/>
</a>
</g>
</g>
<!-- Node11 -->
<g id="Node000011" class="node">
<title>Node11</title>
<g id="a_Node000011"><a xlink:title=" ">
<polygon fill="#e0e0e0" stroke="#999999" points="347.99,-74 254.99,-74 254.99,-55 347.99,-55 347.99,-74"/>
<text text-anchor="middle" x="301.49" y="-62" font-family="Helvetica,sans-Serif" font-size="10.00">unordered_map</text>
</a>
</g>
</g>
<!-- Node2&#45;&gt;Node11 -->
<g id="edge15_Node000002_Node000011" class="edge">
<title>Node2&#45;&gt;Node11</title>
<g id="a_edge15_Node000002_Node000011"><a xlink:title=" ">
<path fill="none" stroke="#63b8ff" d="M301.49,-109.75C301.49,-102.8 301.49,-92.85 301.49,-84.13"/>
<polygon fill="#63b8ff" stroke="#63b8ff" points="304.99,-84.09 301.49,-74.09 297.99,-84.09 304.99,-84.09"/>
</a>
</g>
</g>
<!-- Node12 -->
<g id="Node000012" class="node">
<title>Node12</title>
<g id="a_Node000012"><a xlink:title=" ">
<polygon fill="#e0e0e0" stroke="#999999" points="160.49,-74 102.49,-74 102.49,-55 160.49,-55 160.49,-74"/>
<text text-anchor="middle" x="131.49" y="-62" font-family="Helvetica,sans-Serif" font-size="10.00">memory</text>
</a>
</g>
</g>
<!-- Node2&#45;&gt;Node12 -->
<g id="edge17_Node000002_Node000012" class="edge">
<title>Node2&#45;&gt;Node12</title>
<g id="a_edge17_Node000002_Node000012"><a xlink:title=" ">
<path fill="none" stroke="#63b8ff" d="M274.18,-109.98C245.64,-101.09 200.67,-87.07 168.85,-77.15"/>
<polygon fill="#63b8ff" stroke="#63b8ff" points="169.61,-73.72 159.02,-74.08 167.53,-80.4 169.61,-73.72"/>
</a>
</g>
</g>
<!-- Node3&#45;&gt;Node4 -->
<g id="edge3_Node000003_Node000004" class="edge">
<title>Node3&#45;&gt;Node4</title>
<g id="a_edge3_Node000003_Node000004"><a xlink:title=" ">
<path fill="none" stroke="#63b8ff" d="M368.45,-54.98C321.78,-44.8 244.36,-27.92 199.53,-18.14"/>
<polygon fill="#63b8ff" stroke="#63b8ff" points="200.2,-14.71 189.68,-15.99 198.71,-21.54 200.2,-14.71"/>
</a>
</g>
</g>
<!-- Node3&#45;&gt;Node5 -->
<g id="edge4_Node000003_Node000005" class="edge">
<title>Node3&#45;&gt;Node5</title>
<g id="a_edge4_Node000003_Node000005"><a xlink:title=" ">
<path fill="none" stroke="#63b8ff" d="M365.76,-56.47C362.62,-55.97 359.51,-55.47 356.49,-55 259.69,-39.87 145.33,-23.62 88.05,-15.59"/>
<polygon fill="#63b8ff" stroke="#63b8ff" points="88.43,-12.11 78.04,-14.19 87.46,-19.04 88.43,-12.11"/>
</a>
</g>
</g>
<!-- Node3&#45;&gt;Node6 -->
<g id="edge5_Node000003_Node000006" class="edge">
<title>Node3&#45;&gt;Node6</title>
<g id="a_edge5_Node000003_Node000006"><a xlink:title=" ">
<path fill="none" stroke="#63b8ff" d="M382.11,-54.98C354.72,-45.8 311.05,-31.15 281.37,-21.19"/>
<polygon fill="#63b8ff" stroke="#63b8ff" points="282.1,-17.74 271.5,-17.88 279.87,-24.38 282.1,-17.74"/>
</a>
</g>
</g>
<!-- Node3&#45;&gt;Node7 -->
<g id="edge6_Node000003_Node000007" class="edge">
<title>Node3&#45;&gt;Node7</title>
<g id="a_edge6_Node000003_Node000007"><a xlink:title=" ">
<path fill="none" stroke="#63b8ff" d="M418.74,-54.98C429.29,-47 445.29,-34.88 457.94,-25.31"/>
<polygon fill="#63b8ff" stroke="#63b8ff" points="460.18,-28 466.04,-19.17 455.96,-22.42 460.18,-28"/>
</a>
</g>
</g>
<!-- Node8 -->
<g id="Node000008" class="node">
<title>Node8</title>
<g id="a_Node000008"><a xlink:title=" ">
<polygon fill="#e0e0e0" stroke="#999999" points="428.49,-19 386.49,-19 386.49,0 428.49,0 428.49,-19"/>
<text text-anchor="middle" x="407.49" y="-7" font-family="Helvetica,sans-Serif" font-size="10.00">array</text>
</a>
</g>
</g>
<!-- Node3&#45;&gt;Node8 -->
<g id="edge7_Node000003_Node000008" class="edge">
<title>Node3&#45;&gt;Node8</title>
<g id="a_edge7_Node000003_Node000008"><a xlink:title=" ">
<path fill="none" stroke="#63b8ff" d="M407.49,-54.75C407.49,-47.8 407.49,-37.85 407.49,-29.13"/>
<polygon fill="#63b8ff" stroke="#63b8ff" points="410.99,-29.09 407.49,-19.09 403.99,-29.09 410.99,-29.09"/>
</a>
</g>
</g>
<!-- Node9&#45;&gt;Node4 -->
<g id="edge10_Node000009_Node000004" class="edge">
<title>Node9&#45;&gt;Node4</title>
<g id="a_edge10_Node000009_Node000004"><a xlink:title=" ">
<path fill="none" stroke="#63b8ff" d="M69.65,-54.98C87.74,-46.5 115.78,-33.35 136.68,-23.54"/>
<polygon fill="#63b8ff" stroke="#63b8ff" points="138.44,-26.59 146.01,-19.17 135.47,-20.25 138.44,-26.59"/>
</a>
</g>
</g>
<!-- Node9&#45;&gt;Node5 -->
<g id="edge9_Node000009_Node000005" class="edge">
<title>Node9&#45;&gt;Node5</title>
<g id="a_edge9_Node000009_Node000005"><a xlink:title=" ">
<path fill="none" stroke="#63b8ff" d="M51.49,-54.75C51.49,-47.8 51.49,-37.85 51.49,-29.13"/>
<polygon fill="#63b8ff" stroke="#63b8ff" points="54.99,-29.09 51.49,-19.09 47.99,-29.09 54.99,-29.09"/>
</a>
</g>
</g>
<!-- Node9&#45;&gt;Node6 -->
<g id="edge11_Node000009_Node000006" class="edge">
<title>Node9&#45;&gt;Node6</title>
<g id="a_edge11_Node000009_Node000006"><a xlink:title=" ">
<path fill="none" stroke="#63b8ff" d="M83.31,-54.98C120.18,-45.12 180.59,-28.94 217.53,-19.06"/>
<polygon fill="#63b8ff" stroke="#63b8ff" points="218.53,-22.41 227.28,-16.45 216.72,-15.65 218.53,-22.41"/>
</a>
</g>
</g>
</g>
</svg>
