<?xml version="1.0" encoding="UTF-8" standalone="no"?>
<!DOCTYPE svg PUBLIC "-//W3C//DTD SVG 1.1//EN"
 "http://www.w3.org/Graphics/SVG/1.1/DTD/svg11.dtd">
<!-- Generated by graphviz version 2.43.0 (0)
 -->
<!-- Title: src/compiler/CompilerSyntaxException.cpp Pages: 1 -->
<svg width="535pt" height="203pt"
 viewBox="0.00 0.00 534.64 203.00" xmlns="http://www.w3.org/2000/svg" xmlns:xlink="http://www.w3.org/1999/xlink">
<g id="graph0" class="graph" transform="scale(1 1) rotate(0) translate(4 199)">
<title>src/compiler/CompilerSyntaxException.cpp</title>
<!-- Node1 -->
<g id="Node000001" class="node">
<title>Node1</title>
<g id="a_Node000001"><a xlink:title=" ">
<polygon fill="#999999" stroke="#666666" points="172.14,-195 14.14,-195 14.14,-165 172.14,-165 172.14,-195"/>
<text text-anchor="start" x="22.14" y="-183" font-family="Helvetica,sans-Serif" font-size="10.00">src/compiler/CompilerSyntax</text>
<text text-anchor="middle" x="93.14" y="-172" font-family="Helvetica,sans-Serif" font-size="10.00">Exception.cpp</text>
</a>
</g>
</g>
<!-- Node2 -->
<g id="Node000002" class="node">
<title>Node2</title>
<g id="a_Node000002"><a xlink:href="compiler_8hpp.html" target="_top" xlink:title=" ">
<polygon fill="white" stroke="#666666" points="273.14,-129 193.14,-129 193.14,-110 273.14,-110 273.14,-129"/>
<text text-anchor="middle" x="233.14" y="-117" font-family="Helvetica,sans-Serif" font-size="10.00">compiler.hpp</text>
</a>
</g>
</g>
<!-- Node1&#45;&gt;Node2 -->
<g id="edge1_Node000001_Node000002" class="edge">
<title>Node1&#45;&gt;Node2</title>
<g id="a_edge1_Node000001_Node000002"><a xlink:title=" ">
<path fill="none" stroke="#63b8ff" d="M126.67,-164.99C149.92,-155.27 180.63,-142.44 203.08,-133.06"/>
<polygon fill="#63b8ff" stroke="#63b8ff" points="204.58,-136.22 212.46,-129.14 201.89,-129.77 204.58,-136.22"/>
</a>
</g>
</g>
<!-- Node6 -->
<g id="Node000006" class="node">
<title>Node6</title>
<g id="a_Node000006"><a xlink:title=" ">
<polygon fill="#e0e0e0" stroke="#999999" points="45.14,-19 1.14,-19 1.14,0 45.14,0 45.14,-19"/>
<text text-anchor="middle" x="23.14" y="-7" font-family="Helvetica,sans-Serif" font-size="10.00">string</text>
</a>
</g>
</g>
<!-- Node1&#45;&gt;Node6 -->
<g id="edge17_Node000001_Node000006" class="edge">
<title>Node1&#45;&gt;Node6</title>
<g id="a_edge17_Node000001_Node000006"><a xlink:title=" ">
<path fill="none" stroke="#63b8ff" d="M74.47,-164.74C52.31,-146.51 16.55,-112.65 2.14,-74 -3.62,-58.57 3.45,-40.74 10.9,-27.91"/>
<polygon fill="#63b8ff" stroke="#63b8ff" points="14.03,-29.51 16.46,-19.2 8.13,-25.74 14.03,-29.51"/>
</a>
</g>
</g>
<!-- Node3 -->
<g id="Node000003" class="node">
<title>Node3</title>
<g id="a_Node000003"><a xlink:href="bytecode_8hpp.html" target="_top" xlink:title=" ">
<polygon fill="white" stroke="#666666" points="457.64,-74 374.64,-74 374.64,-55 457.64,-55 457.64,-74"/>
<text text-anchor="middle" x="416.14" y="-62" font-family="Helvetica,sans-Serif" font-size="10.00">bytecode.hpp</text>
</a>
</g>
</g>
<!-- Node2&#45;&gt;Node3 -->
<g id="edge2_Node000002_Node000003" class="edge">
<title>Node2&#45;&gt;Node3</title>
<g id="a_edge2_Node000002_Node000003"><a xlink:title=" ">
<path fill="none" stroke="#63b8ff" d="M262.54,-109.98C293.53,-101.01 342.51,-86.82 376.81,-76.89"/>
<polygon fill="#63b8ff" stroke="#63b8ff" points="377.87,-80.23 386.5,-74.08 375.93,-73.5 377.87,-80.23"/>
</a>
</g>
</g>
<!-- Node4 -->
<g id="Node000004" class="node">
<title>Node4</title>
<g id="a_Node000004"><a xlink:title=" ">
<polygon fill="#e0e0e0" stroke="#999999" points="441.14,-19 391.14,-19 391.14,0 441.14,0 441.14,-19"/>
<text text-anchor="middle" x="416.14" y="-7" font-family="Helvetica,sans-Serif" font-size="10.00">cstdint</text>
</a>
</g>
</g>
<!-- Node2&#45;&gt;Node4 -->
<g id="edge11_Node000002_Node000004" class="edge">
<title>Node2&#45;&gt;Node4</title>
<g id="a_edge11_Node000002_Node000004"><a xlink:title=" ">
<path fill="none" stroke="#63b8ff" d="M273.48,-116.82C333.8,-113.36 443.01,-103.15 467.14,-74 481.05,-57.19 459.65,-37.56 440.45,-24.63"/>
<polygon fill="#63b8ff" stroke="#63b8ff" points="442.24,-21.62 431.93,-19.19 438.48,-27.52 442.24,-21.62"/>
</a>
</g>
</g>
<!-- Node2&#45;&gt;Node6 -->
<g id="edge13_Node000002_Node000006" class="edge">
<title>Node2&#45;&gt;Node6</title>
<g id="a_edge13_Node000002_Node000006"><a xlink:title=" ">
<path fill="none" stroke="#63b8ff" d="M192.94,-116.36C135.33,-112.37 33.68,-101.52 11.14,-74 0.72,-61.29 6.15,-42.34 12.7,-28.45"/>
<polygon fill="#63b8ff" stroke="#63b8ff" points="15.91,-29.87 17.46,-19.39 9.71,-26.62 15.91,-29.87"/>
</a>
</g>
</g>
<!-- Node7 -->
<g id="Node000007" class="node">
<title>Node7</title>
<g id="a_Node000007"><a xlink:title=" ">
<polygon fill="#e0e0e0" stroke="#999999" points="526.64,-19 479.64,-19 479.64,0 526.64,0 526.64,-19"/>
<text text-anchor="middle" x="503.14" y="-7" font-family="Helvetica,sans-Serif" font-size="10.00">vector</text>
</a>
</g>
</g>
<!-- Node2&#45;&gt;Node7 -->
<g id="edge15_Node000002_Node000007" class="edge">
<title>Node2&#45;&gt;Node7</title>
<g id="a_edge15_Node000002_Node000007"><a xlink:title=" ">
<path fill="none" stroke="#63b8ff" d="M273.35,-116.32C335.9,-112.14 452.55,-100.88 483.14,-74 495.74,-62.92 500.48,-43.99 502.23,-29.67"/>
<polygon fill="#63b8ff" stroke="#63b8ff" points="505.74,-29.67 503.07,-19.41 498.76,-29.09 505.74,-29.67"/>
</a>
</g>
</g>
<!-- Node8 -->
<g id="Node000008" class="node">
<title>Node8</title>
<g id="a_Node000008"><a xlink:href="types_8hpp.html" target="_top" xlink:title=" ">
<polygon fill="white" stroke="#666666" points="85.64,-74 20.64,-74 20.64,-55 85.64,-55 85.64,-74"/>
<text text-anchor="middle" x="53.14" y="-62" font-family="Helvetica,sans-Serif" font-size="10.00">types.hpp</text>
</a>
</g>
</g>
<!-- Node2&#45;&gt;Node8 -->
<g id="edge7_Node000002_Node000008" class="edge">
<title>Node2&#45;&gt;Node8</title>
<g id="a_edge7_Node000002_Node000008"><a xlink:title=" ">
<path fill="none" stroke="#63b8ff" d="M204.22,-109.98C173.87,-101.05 125.97,-86.94 92.26,-77.02"/>
<polygon fill="#63b8ff" stroke="#63b8ff" points="92.87,-73.55 82.28,-74.08 90.89,-80.26 92.87,-73.55"/>
</a>
</g>
</g>
<!-- Node9 -->
<g id="Node000009" class="node">
<title>Node9</title>
<g id="a_Node000009"><a xlink:title=" ">
<polygon fill="#e0e0e0" stroke="#999999" points="168.64,-74 103.64,-74 103.64,-55 168.64,-55 168.64,-74"/>
<text text-anchor="middle" x="136.14" y="-62" font-family="Helvetica,sans-Serif" font-size="10.00">exception</text>
</a>
</g>
</g>
<!-- Node2&#45;&gt;Node9 -->
<g id="edge12_Node000002_Node000009" class="edge">
<title>Node2&#45;&gt;Node9</title>
<g id="a_edge12_Node000002_Node000009"><a xlink:title=" ">
<path fill="none" stroke="#63b8ff" d="M217.55,-109.98C202.37,-101.69 179.04,-88.94 161.24,-79.22"/>
<polygon fill="#63b8ff" stroke="#63b8ff" points="162.46,-75.89 152.01,-74.17 159.1,-82.04 162.46,-75.89"/>
</a>
</g>
</g>
<!-- Node10 -->
<g id="Node000010" class="node">
<title>Node10</title>
<g id="a_Node000010"><a xlink:title=" ">
<polygon fill="#e0e0e0" stroke="#999999" points="279.64,-74 186.64,-74 186.64,-55 279.64,-55 279.64,-74"/>
<text text-anchor="middle" x="233.14" y="-62" font-family="Helvetica,sans-Serif" font-size="10.00">unordered_map</text>
</a>
</g>
</g>
<!-- Node2&#45;&gt;Node10 -->
<g id="edge14_Node000002_Node000010" class="edge">
<title>Node2&#45;&gt;Node10</title>
<g id="a_edge14_Node000002_Node000010"><a xlink:title=" ">
<path fill="none" stroke="#63b8ff" d="M233.14,-109.75C233.14,-102.8 233.14,-92.85 233.14,-84.13"/>
<polygon fill="#63b8ff" stroke="#63b8ff" points="236.64,-84.09 233.14,-74.09 229.64,-84.09 236.64,-84.09"/>
</a>
</g>
</g>
<!-- Node11 -->
<g id="Node000011" class="node">
<title>Node11</title>
<g id="a_Node000011"><a xlink:title=" ">
<polygon fill="#e0e0e0" stroke="#999999" points="356.14,-74 298.14,-74 298.14,-55 356.14,-55 356.14,-74"/>
<text text-anchor="middle" x="327.14" y="-62" font-family="Helvetica,sans-Serif" font-size="10.00">memory</text>
</a>
</g>
</g>
<!-- Node2&#45;&gt;Node11 -->
<g id="edge16_Node000002_Node000011" class="edge">
<title>Node2&#45;&gt;Node11</title>
<g id="a_edge16_Node000002_Node000011"><a xlink:title=" ">
<path fill="none" stroke="#63b8ff" d="M248.24,-109.98C262.95,-101.69 285.56,-88.94 302.81,-79.22"/>
<polygon fill="#63b8ff" stroke="#63b8ff" points="304.77,-82.13 311.76,-74.17 301.33,-76.03 304.77,-82.13"/>
</a>
</g>
</g>
<!-- Node3&#45;&gt;Node4 -->
<g id="edge3_Node000003_Node000004" class="edge">
<title>Node3&#45;&gt;Node4</title>
<g id="a_edge3_Node000003_Node000004"><a xlink:title=" ">
<path fill="none" stroke="#63b8ff" d="M416.14,-54.75C416.14,-47.8 416.14,-37.85 416.14,-29.13"/>
<polygon fill="#63b8ff" stroke="#63b8ff" points="419.64,-29.09 416.14,-19.09 412.64,-29.09 419.64,-29.09"/>
</a>
</g>
</g>
<!-- Node5 -->
<g id="Node000005" class="node">
<title>Node5</title>
<g id="a_Node000005"><a xlink:title=" ">
<polygon fill="#e0e0e0" stroke="#999999" points="244.64,-19 191.64,-19 191.64,0 244.64,0 244.64,-19"/>
<text text-anchor="middle" x="218.14" y="-7" font-family="Helvetica,sans-Serif" font-size="10.00">cstddef</text>
</a>
</g>
</g>
<!-- Node3&#45;&gt;Node5 -->
<g id="edge4_Node000003_Node000005" class="edge">
<title>Node3&#45;&gt;Node5</title>
<g id="a_edge4_Node000003_Node000005"><a xlink:title=" ">
<path fill="none" stroke="#63b8ff" d="M384.33,-54.98C348.95,-45.52 291.91,-30.25 254.72,-20.29"/>
<polygon fill="#63b8ff" stroke="#63b8ff" points="255.36,-16.84 244.79,-17.63 253.55,-23.6 255.36,-16.84"/>
</a>
</g>
</g>
<!-- Node3&#45;&gt;Node6 -->
<g id="edge5_Node000003_Node000006" class="edge">
<title>Node3&#45;&gt;Node6</title>
<g id="a_edge5_Node000003_Node000006"><a xlink:title=" ">
<path fill="none" stroke="#63b8ff" d="M374.41,-56.42C371.27,-55.93 368.16,-55.45 365.14,-55 251.44,-38.13 115.94,-21.54 55.28,-14.29"/>
<polygon fill="#63b8ff" stroke="#63b8ff" points="55.52,-10.8 45.18,-13.09 54.7,-17.75 55.52,-10.8"/>
</a>
</g>
</g>
<!-- Node3&#45;&gt;Node7 -->
<g id="edge6_Node000003_Node000007" class="edge">
<title>Node3&#45;&gt;Node7</title>
<g id="a_edge6_Node000003_Node000007"><a xlink:title=" ">
<path fill="none" stroke="#63b8ff" d="M430.12,-54.98C443.61,-46.77 464.27,-34.18 480.18,-24.49"/>
<polygon fill="#63b8ff" stroke="#63b8ff" points="482.19,-27.36 488.9,-19.17 478.54,-21.38 482.19,-27.36"/>
</a>
</g>
</g>
<!-- Node8&#45;&gt;Node4 -->
<g id="edge9_Node000008_Node000004" class="edge">
<title>Node8&#45;&gt;Node4</title>
<g id="a_edge9_Node000008_Node000004"><a xlink:title=" ">
<path fill="none" stroke="#63b8ff" d="M85.77,-56.53C88.6,-55.99 91.42,-55.47 94.14,-55 198.01,-37.08 321.73,-21.62 381.03,-14.57"/>
<polygon fill="#63b8ff" stroke="#63b8ff" points="381.48,-18.04 391,-13.39 380.66,-11.09 381.48,-18.04"/>
</a>
</g>
</g>
<!-- Node8&#45;&gt;Node5 -->
<g id="edge8_Node000008_Node000005" class="edge">
<title>Node8&#45;&gt;Node5</title>
<g id="a_edge8_Node000008_Node000005"><a xlink:title=" ">
<path fill="none" stroke="#63b8ff" d="M79.65,-54.98C107.35,-46.09 151,-32.07 181.88,-22.15"/>
<polygon fill="#63b8ff" stroke="#63b8ff" points="182.97,-25.47 191.42,-19.08 180.83,-18.81 182.97,-25.47"/>
</a>
</g>
</g>
<!-- Node8&#45;&gt;Node6 -->
<g id="edge10_Node000008_Node000006" class="edge">
<title>Node8&#45;&gt;Node6</title>
<g id="a_edge10_Node000008_Node000006"><a xlink:title=" ">
<path fill="none" stroke="#63b8ff" d="M48.18,-54.75C44.08,-47.49 38.11,-36.95 33.03,-27.98"/>
<polygon fill="#63b8ff" stroke="#63b8ff" points="35.97,-26.07 28,-19.09 29.88,-29.52 35.97,-26.07"/>
</a>
</g>
</g>
</g>
</svg>
