<?xml version="1.0" encoding="UTF-8" standalone="no"?>
<!DOCTYPE svg PUBLIC "-//W3C//DTD SVG 1.1//EN"
 "http://www.w3.org/Graphics/SVG/1.1/DTD/svg11.dtd">
<!-- Generated by graphviz version 2.43.0 (0)
 -->
<!-- Title: src/compiler/compile.cpp Pages: 1 -->
<svg width="1155pt" height="192pt"
 viewBox="0.00 0.00 1154.50 192.00" xmlns="http://www.w3.org/2000/svg" xmlns:xlink="http://www.w3.org/1999/xlink">
<g id="graph0" class="graph" transform="scale(1 1) rotate(0) translate(4 188)">
<title>src/compiler/compile.cpp</title>
<!-- Node1 -->
<g id="Node000001" class="node">
<title>Node1</title>
<g id="a_Node000001"><a xlink:title=" ">
<polygon fill="#999999" stroke="#666666" points="838,-184 699,-184 699,-165 838,-165 838,-184"/>
<text text-anchor="middle" x="768.5" y="-172" font-family="Helvetica,sans-Serif" font-size="10.00">src/compiler/compile.cpp</text>
</a>
</g>
</g>
<!-- Node2 -->
<g id="Node000002" class="node">
<title>Node2</title>
<g id="a_Node000002"><a xlink:href="bytecode_8hpp.html" target="_top" xlink:title=" ">
<polygon fill="white" stroke="#666666" points="134,-74 51,-74 51,-55 134,-55 134,-74"/>
<text text-anchor="middle" x="92.5" y="-62" font-family="Helvetica,sans-Serif" font-size="10.00">bytecode.hpp</text>
</a>
</g>
</g>
<!-- Node1&#45;&gt;Node2 -->
<g id="edge1_Node000001_Node000002" class="edge">
<title>Node1&#45;&gt;Node2</title>
<g id="a_edge1_Node000001_Node000002"><a xlink:title=" ">
<path fill="none" stroke="#63b8ff" d="M698.8,-168.29C618.35,-161.69 482.27,-148.75 366.5,-129 283.07,-114.77 187.01,-90.7 133.67,-76.64"/>
<polygon fill="#63b8ff" stroke="#63b8ff" points="134.46,-73.23 123.9,-74.05 132.67,-79.99 134.46,-73.23"/>
</a>
</g>
</g>
<!-- Node3 -->
<g id="Node000003" class="node">
<title>Node3</title>
<g id="a_Node000003"><a xlink:title=" ">
<polygon fill="#e0e0e0" stroke="#999999" points="661.5,-19 611.5,-19 611.5,0 661.5,0 661.5,-19"/>
<text text-anchor="middle" x="636.5" y="-7" font-family="Helvetica,sans-Serif" font-size="10.00">cstdint</text>
</a>
</g>
</g>
<!-- Node1&#45;&gt;Node3 -->
<g id="edge22_Node000001_Node000003" class="edge">
<title>Node1&#45;&gt;Node3</title>
<g id="a_edge22_Node000001_Node000003"><a xlink:title=" ">
<path fill="none" stroke="#63b8ff" d="M763.88,-164.87C752.74,-144.48 722.81,-92.21 689.5,-55 679.73,-44.09 667.25,-33.48 656.86,-25.36"/>
<polygon fill="#63b8ff" stroke="#63b8ff" points="658.8,-22.44 648.72,-19.17 654.56,-28.01 658.8,-22.44"/>
</a>
</g>
</g>
<!-- Node4 -->
<g id="Node000004" class="node">
<title>Node4</title>
<g id="a_Node000004"><a xlink:title=" ">
<polygon fill="#e0e0e0" stroke="#999999" points="119,-19 66,-19 66,0 119,0 119,-19"/>
<text text-anchor="middle" x="92.5" y="-7" font-family="Helvetica,sans-Serif" font-size="10.00">cstddef</text>
</a>
</g>
</g>
<!-- Node1&#45;&gt;Node4 -->
<g id="edge21_Node000001_Node000004" class="edge">
<title>Node1&#45;&gt;Node4</title>
<g id="a_edge21_Node000001_Node000004"><a xlink:title=" ">
<path fill="none" stroke="#63b8ff" d="M698.89,-169.37C524.87,-158.31 81.97,-125.34 41.5,-74 27.99,-56.86 49.31,-37.3 68.38,-24.48"/>
<polygon fill="#63b8ff" stroke="#63b8ff" points="70.28,-27.41 76.84,-19.09 66.53,-21.5 70.28,-27.41"/>
</a>
</g>
</g>
<!-- Node7 -->
<g id="Node000007" class="node">
<title>Node7</title>
<g id="a_Node000007"><a xlink:href="compiler_8hpp.html" target="_top" xlink:title=" ">
<polygon fill="white" stroke="#666666" points="455.5,-129 375.5,-129 375.5,-110 455.5,-110 455.5,-129"/>
<text text-anchor="middle" x="415.5" y="-117" font-family="Helvetica,sans-Serif" font-size="10.00">compiler.hpp</text>
</a>
</g>
</g>
<!-- Node1&#45;&gt;Node7 -->
<g id="edge6_Node000001_Node000007" class="edge">
<title>Node1&#45;&gt;Node7</title>
<g id="a_edge6_Node000001_Node000007"><a xlink:title=" ">
<path fill="none" stroke="#63b8ff" d="M711.78,-164.98C643.71,-154.76 530.61,-137.78 465.61,-128.02"/>
<polygon fill="#63b8ff" stroke="#63b8ff" points="466.02,-124.55 455.61,-126.52 464.98,-131.47 466.02,-124.55"/>
</a>
</g>
</g>
<!-- Node13 -->
<g id="Node000013" class="node">
<title>Node13</title>
<g id="a_Node000013"><a xlink:title=" ">
<polygon fill="#e0e0e0" stroke="#999999" points="856,-129 759,-129 759,-110 856,-110 856,-129"/>
<text text-anchor="middle" x="807.5" y="-117" font-family="Helvetica,sans-Serif" font-size="10.00">compiler/errno.h</text>
</a>
</g>
</g>
<!-- Node1&#45;&gt;Node13 -->
<g id="edge20_Node000001_Node000013" class="edge">
<title>Node1&#45;&gt;Node13</title>
<g id="a_edge20_Node000001_Node000013"><a xlink:title=" ">
<path fill="none" stroke="#63b8ff" d="M774.94,-164.75C780.39,-157.34 788.36,-146.5 795.06,-137.41"/>
<polygon fill="#63b8ff" stroke="#63b8ff" points="798.07,-139.22 801.18,-129.09 792.43,-135.07 798.07,-139.22"/>
</a>
</g>
</g>
<!-- Node14 -->
<g id="Node000014" class="node">
<title>Node14</title>
<g id="a_Node000014"><a xlink:title=" ">
<polygon fill="#e0e0e0" stroke="#999999" points="934.5,-129 874.5,-129 874.5,-110 934.5,-110 934.5,-129"/>
<text text-anchor="middle" x="904.5" y="-117" font-family="Helvetica,sans-Serif" font-size="10.00">iostream</text>
</a>
</g>
</g>
<!-- Node1&#45;&gt;Node14 -->
<g id="edge23_Node000001_Node000014" class="edge">
<title>Node1&#45;&gt;Node14</title>
<g id="a_edge23_Node000001_Node000014"><a xlink:title=" ">
<path fill="none" stroke="#63b8ff" d="M790.35,-164.98C812.62,-156.3 847.4,-142.75 872.72,-132.88"/>
<polygon fill="#63b8ff" stroke="#63b8ff" points="874.21,-136.06 882.25,-129.17 871.66,-129.54 874.21,-136.06"/>
</a>
</g>
</g>
<!-- Node15 -->
<g id="Node000015" class="node">
<title>Node15</title>
<g id="a_Node000015"><a xlink:title=" ">
<polygon fill="#e0e0e0" stroke="#999999" points="1018,-129 953,-129 953,-110 1018,-110 1018,-129"/>
<text text-anchor="middle" x="985.5" y="-117" font-family="Helvetica,sans-Serif" font-size="10.00">stdexcept</text>
</a>
</g>
</g>
<!-- Node1&#45;&gt;Node15 -->
<g id="edge24_Node000001_Node000015" class="edge">
<title>Node1&#45;&gt;Node15</title>
<g id="a_edge24_Node000001_Node000015"><a xlink:title=" ">
<path fill="none" stroke="#63b8ff" d="M803.36,-164.98C841.36,-155.71 902.16,-140.85 942.94,-130.89"/>
<polygon fill="#63b8ff" stroke="#63b8ff" points="943.97,-134.25 952.85,-128.47 942.31,-127.45 943.97,-134.25"/>
</a>
</g>
</g>
<!-- Node16 -->
<g id="Node000016" class="node">
<title>Node16</title>
<g id="a_Node000016"><a xlink:title=" ">
<polygon fill="#e0e0e0" stroke="#999999" points="1146.5,-129 1036.5,-129 1036.5,-110 1146.5,-110 1146.5,-129"/>
<text text-anchor="middle" x="1091.5" y="-117" font-family="Helvetica,sans-Serif" font-size="10.00">vmreg_defines.hpp</text>
</a>
</g>
</g>
<!-- Node1&#45;&gt;Node16 -->
<g id="edge25_Node000001_Node000016" class="edge">
<title>Node1&#45;&gt;Node16</title>
<g id="a_edge25_Node000001_Node000016"><a xlink:title=" ">
<path fill="none" stroke="#63b8ff" d="M820.4,-164.98C877.29,-155.65 968.55,-140.67 1029.25,-130.71"/>
<polygon fill="#63b8ff" stroke="#63b8ff" points="1030.16,-134.11 1039.47,-129.04 1029.03,-127.2 1030.16,-134.11"/>
</a>
</g>
</g>
<!-- Node2&#45;&gt;Node3 -->
<g id="edge2_Node000002_Node000003" class="edge">
<title>Node2&#45;&gt;Node3</title>
<g id="a_edge2_Node000002_Node000003"><a xlink:title=" ">
<path fill="none" stroke="#63b8ff" d="M134.21,-56.29C137.35,-55.82 140.47,-55.39 143.5,-55 232.34,-43.6 503.33,-21.27 600.97,-13.36"/>
<polygon fill="#63b8ff" stroke="#63b8ff" points="601.51,-16.82 611.2,-12.53 600.95,-9.85 601.51,-16.82"/>
</a>
</g>
</g>
<!-- Node2&#45;&gt;Node4 -->
<g id="edge3_Node000002_Node000004" class="edge">
<title>Node2&#45;&gt;Node4</title>
<g id="a_edge3_Node000002_Node000004"><a xlink:title=" ">
<path fill="none" stroke="#63b8ff" d="M92.5,-54.75C92.5,-47.8 92.5,-37.85 92.5,-29.13"/>
<polygon fill="#63b8ff" stroke="#63b8ff" points="96,-29.09 92.5,-19.09 89,-29.09 96,-29.09"/>
</a>
</g>
</g>
<!-- Node5 -->
<g id="Node000005" class="node">
<title>Node5</title>
<g id="a_Node000005"><a xlink:title=" ">
<polygon fill="#e0e0e0" stroke="#999999" points="507.5,-19 463.5,-19 463.5,0 507.5,0 507.5,-19"/>
<text text-anchor="middle" x="485.5" y="-7" font-family="Helvetica,sans-Serif" font-size="10.00">string</text>
</a>
</g>
</g>
<!-- Node2&#45;&gt;Node5 -->
<g id="edge4_Node000002_Node000005" class="edge">
<title>Node2&#45;&gt;Node5</title>
<g id="a_edge4_Node000002_Node000005"><a xlink:title=" ">
<path fill="none" stroke="#63b8ff" d="M134.23,-56.42C137.36,-55.93 140.48,-55.45 143.5,-55 257.2,-38.13 392.7,-21.54 453.36,-14.29"/>
<polygon fill="#63b8ff" stroke="#63b8ff" points="453.94,-17.75 463.46,-13.09 453.11,-10.8 453.94,-17.75"/>
</a>
</g>
</g>
<!-- Node6 -->
<g id="Node000006" class="node">
<title>Node6</title>
<g id="a_Node000006"><a xlink:title=" ">
<polygon fill="#e0e0e0" stroke="#999999" points="47,-19 0,-19 0,0 47,0 47,-19"/>
<text text-anchor="middle" x="23.5" y="-7" font-family="Helvetica,sans-Serif" font-size="10.00">vector</text>
</a>
</g>
</g>
<!-- Node2&#45;&gt;Node6 -->
<g id="edge5_Node000002_Node000006" class="edge">
<title>Node2&#45;&gt;Node6</title>
<g id="a_edge5_Node000002_Node000006"><a xlink:title=" ">
<path fill="none" stroke="#63b8ff" d="M81.41,-54.98C71.01,-47 55.24,-34.88 42.78,-25.31"/>
<polygon fill="#63b8ff" stroke="#63b8ff" points="44.85,-22.49 34.79,-19.17 40.59,-28.04 44.85,-22.49"/>
</a>
</g>
</g>
<!-- Node7&#45;&gt;Node2 -->
<g id="edge7_Node000007_Node000002" class="edge">
<title>Node7&#45;&gt;Node2</title>
<g id="a_edge7_Node000007_Node000002"><a xlink:title=" ">
<path fill="none" stroke="#63b8ff" d="M375.4,-111.98C324.25,-103.65 232.8,-88.73 144.2,-74.11"/>
<polygon fill="#63b8ff" stroke="#63b8ff" points="144.68,-70.64 134.25,-72.47 143.54,-77.55 144.68,-70.64"/>
</a>
</g>
</g>
<!-- Node7&#45;&gt;Node3 -->
<g id="edge14_Node000007_Node000003" class="edge">
<title>Node7&#45;&gt;Node3</title>
<g id="a_edge14_Node000007_Node000003"><a xlink:title=" ">
<path fill="none" stroke="#63b8ff" d="M455.66,-117.63C521.08,-115.27 646.12,-106.5 673.5,-74 686.05,-59.1 670.46,-39.38 655.84,-25.89"/>
<polygon fill="#63b8ff" stroke="#63b8ff" points="657.85,-23 648,-19.11 653.27,-28.3 657.85,-23"/>
</a>
</g>
</g>
<!-- Node7&#45;&gt;Node5 -->
<g id="edge16_Node000007_Node000005" class="edge">
<title>Node7&#45;&gt;Node5</title>
<g id="a_edge16_Node000007_Node000005"><a xlink:title=" ">
<path fill="none" stroke="#63b8ff" d="M447.71,-109.92C465.75,-103.29 486.73,-92.09 497.5,-74 505.73,-60.17 500.97,-41.9 495.19,-28.51"/>
<polygon fill="#63b8ff" stroke="#63b8ff" points="498.28,-26.86 490.78,-19.38 491.98,-29.9 498.28,-26.86"/>
</a>
</g>
</g>
<!-- Node7&#45;&gt;Node6 -->
<g id="edge18_Node000007_Node000006" class="edge">
<title>Node7&#45;&gt;Node6</title>
<g id="a_edge18_Node000007_Node000006"><a xlink:title=" ">
<path fill="none" stroke="#63b8ff" d="M375.49,-119.15C289.53,-119.7 90.99,-116.24 41.5,-74 28.71,-63.08 24.67,-43.81 23.55,-29.35"/>
<polygon fill="#63b8ff" stroke="#63b8ff" points="27.03,-28.91 23.17,-19.04 20.04,-29.17 27.03,-28.91"/>
</a>
</g>
</g>
<!-- Node8 -->
<g id="Node000008" class="node">
<title>Node8</title>
<g id="a_Node000008"><a xlink:href="params_8hpp.html" target="_top" xlink:title=" ">
<polygon fill="white" stroke="#666666" points="664.5,-74 544.5,-74 544.5,-55 664.5,-55 664.5,-74"/>
<text text-anchor="middle" x="604.5" y="-62" font-family="Helvetica,sans-Serif" font-size="10.00">compiler/params.hpp</text>
</a>
</g>
</g>
<!-- Node7&#45;&gt;Node8 -->
<g id="edge8_Node000007_Node000008" class="edge">
<title>Node7&#45;&gt;Node8</title>
<g id="a_edge8_Node000007_Node000008"><a xlink:title=" ">
<path fill="none" stroke="#63b8ff" d="M445.87,-109.98C477.87,-101.01 528.46,-86.82 563.88,-76.89"/>
<polygon fill="#63b8ff" stroke="#63b8ff" points="565.21,-80.15 573.9,-74.08 563.32,-73.41 565.21,-80.15"/>
</a>
</g>
</g>
<!-- Node9 -->
<g id="Node000009" class="node">
<title>Node9</title>
<g id="a_Node000009"><a xlink:href="types_8hpp.html" target="_top" xlink:title=" ">
<polygon fill="white" stroke="#666666" points="488,-74 423,-74 423,-55 488,-55 488,-74"/>
<text text-anchor="middle" x="455.5" y="-62" font-family="Helvetica,sans-Serif" font-size="10.00">types.hpp</text>
</a>
</g>
</g>
<!-- Node7&#45;&gt;Node9 -->
<g id="edge10_Node000007_Node000009" class="edge">
<title>Node7&#45;&gt;Node9</title>
<g id="a_edge10_Node000007_Node000009"><a xlink:title=" ">
<path fill="none" stroke="#63b8ff" d="M422.11,-109.75C427.76,-102.26 436.04,-91.28 442.95,-82.13"/>
<polygon fill="#63b8ff" stroke="#63b8ff" points="445.79,-84.18 449.02,-74.09 440.2,-79.96 445.79,-84.18"/>
</a>
</g>
</g>
<!-- Node10 -->
<g id="Node000010" class="node">
<title>Node10</title>
<g id="a_Node000010"><a xlink:title=" ">
<polygon fill="#e0e0e0" stroke="#999999" points="217,-74 152,-74 152,-55 217,-55 217,-74"/>
<text text-anchor="middle" x="184.5" y="-62" font-family="Helvetica,sans-Serif" font-size="10.00">exception</text>
</a>
</g>
</g>
<!-- Node7&#45;&gt;Node10 -->
<g id="edge15_Node000007_Node000010" class="edge">
<title>Node7&#45;&gt;Node10</title>
<g id="a_edge15_Node000007_Node000010"><a xlink:title=" ">
<path fill="none" stroke="#63b8ff" d="M378.39,-109.98C337.06,-100.5 270.39,-85.21 227,-75.25"/>
<polygon fill="#63b8ff" stroke="#63b8ff" points="227.57,-71.79 217.04,-72.97 226.01,-78.61 227.57,-71.79"/>
</a>
</g>
</g>
<!-- Node11 -->
<g id="Node000011" class="node">
<title>Node11</title>
<g id="a_Node000011"><a xlink:title=" ">
<polygon fill="#e0e0e0" stroke="#999999" points="328,-74 235,-74 235,-55 328,-55 328,-74"/>
<text text-anchor="middle" x="281.5" y="-62" font-family="Helvetica,sans-Serif" font-size="10.00">unordered_map</text>
</a>
</g>
</g>
<!-- Node7&#45;&gt;Node11 -->
<g id="edge17_Node000007_Node000011" class="edge">
<title>Node7&#45;&gt;Node11</title>
<g id="a_edge17_Node000007_Node000011"><a xlink:title=" ">
<path fill="none" stroke="#63b8ff" d="M393.97,-109.98C372.03,-101.3 337.76,-87.75 312.81,-77.88"/>
<polygon fill="#63b8ff" stroke="#63b8ff" points="314.01,-74.59 303.42,-74.17 311.43,-81.1 314.01,-74.59"/>
</a>
</g>
</g>
<!-- Node12 -->
<g id="Node000012" class="node">
<title>Node12</title>
<g id="a_Node000012"><a xlink:title=" ">
<polygon fill="#e0e0e0" stroke="#999999" points="404.5,-74 346.5,-74 346.5,-55 404.5,-55 404.5,-74"/>
<text text-anchor="middle" x="375.5" y="-62" font-family="Helvetica,sans-Serif" font-size="10.00">memory</text>
</a>
</g>
</g>
<!-- Node7&#45;&gt;Node12 -->
<g id="edge19_Node000007_Node000012" class="edge">
<title>Node7&#45;&gt;Node12</title>
<g id="a_edge19_Node000007_Node000012"><a xlink:title=" ">
<path fill="none" stroke="#63b8ff" d="M408.89,-109.75C403.24,-102.26 394.96,-91.28 388.05,-82.13"/>
<polygon fill="#63b8ff" stroke="#63b8ff" points="390.8,-79.96 381.98,-74.09 385.21,-84.18 390.8,-79.96"/>
</a>
</g>
</g>
<!-- Node8&#45;&gt;Node5 -->
<g id="edge9_Node000008_Node000005" class="edge">
<title>Node8&#45;&gt;Node5</title>
<g id="a_edge9_Node000008_Node000005"><a xlink:title=" ">
<path fill="none" stroke="#63b8ff" d="M585.38,-54.98C566.15,-46.42 536.27,-33.11 514.19,-23.28"/>
<polygon fill="#63b8ff" stroke="#63b8ff" points="515.53,-20.04 504.97,-19.17 512.68,-26.44 515.53,-20.04"/>
</a>
</g>
</g>
<!-- Node9&#45;&gt;Node3 -->
<g id="edge12_Node000009_Node000003" class="edge">
<title>Node9&#45;&gt;Node3</title>
<g id="a_edge12_Node000009_Node000003"><a xlink:title=" ">
<path fill="none" stroke="#63b8ff" d="M484.58,-54.98C516.37,-45.68 567.3,-30.76 601.31,-20.8"/>
<polygon fill="#63b8ff" stroke="#63b8ff" points="602.67,-24.05 611.29,-17.88 600.71,-17.33 602.67,-24.05"/>
</a>
</g>
</g>
<!-- Node9&#45;&gt;Node4 -->
<g id="edge11_Node000009_Node000004" class="edge">
<title>Node9&#45;&gt;Node4</title>
<g id="a_edge11_Node000009_Node000004"><a xlink:title=" ">
<path fill="none" stroke="#63b8ff" d="M422.98,-56.71C419.78,-56.11 416.58,-55.52 413.5,-55 310.95,-37.53 189.08,-22.08 129.3,-14.85"/>
<polygon fill="#63b8ff" stroke="#63b8ff" points="129.57,-11.36 119.22,-13.64 128.73,-18.31 129.57,-11.36"/>
</a>
</g>
</g>
<!-- Node9&#45;&gt;Node5 -->
<g id="edge13_Node000009_Node000005" class="edge">
<title>Node9&#45;&gt;Node5</title>
<g id="a_edge13_Node000009_Node000005"><a xlink:title=" ">
<path fill="none" stroke="#63b8ff" d="M460.45,-54.75C464.56,-47.49 470.53,-36.95 475.6,-27.98"/>
<polygon fill="#63b8ff" stroke="#63b8ff" points="478.76,-29.52 480.64,-19.09 472.67,-26.07 478.76,-29.52"/>
</a>
</g>
</g>
</g>
</svg>
