<?xml version="1.0" encoding="UTF-8" standalone="no"?>
<!DOCTYPE svg PUBLIC "-//W3C//DTD SVG 1.1//EN"
 "http://www.w3.org/Graphics/SVG/1.1/DTD/svg11.dtd">
<!-- Generated by graphviz version 2.43.0 (0)
 -->
<!-- Title: src/compiler/compiler.cpp Pages: 1 -->
<svg width="583pt" height="192pt"
 viewBox="0.00 0.00 583.13 192.00" xmlns="http://www.w3.org/2000/svg" xmlns:xlink="http://www.w3.org/1999/xlink">
<g id="graph0" class="graph" transform="scale(1 1) rotate(0) translate(4 188)">
<title>src/compiler/compiler.cpp</title>
<!-- Node1 -->
<g id="Node000001" class="node">
<title>Node1</title>
<g id="a_Node000001"><a xlink:title=" ">
<polygon fill="#999999" stroke="#666666" points="390.63,-184 248.63,-184 248.63,-165 390.63,-165 390.63,-184"/>
<text text-anchor="middle" x="319.63" y="-172" font-family="Helvetica,sans-Serif" font-size="10.00">src/compiler/compiler.cpp</text>
</a>
</g>
</g>
<!-- Node2 -->
<g id="Node000002" class="node">
<title>Node2</title>
<g id="a_Node000002"><a xlink:href="compiler_8hpp.html" target="_top" xlink:title=" ">
<polygon fill="white" stroke="#666666" points="238.63,-129 158.63,-129 158.63,-110 238.63,-110 238.63,-129"/>
<text text-anchor="middle" x="198.63" y="-117" font-family="Helvetica,sans-Serif" font-size="10.00">compiler.hpp</text>
</a>
</g>
</g>
<!-- Node1&#45;&gt;Node2 -->
<g id="edge1_Node000001_Node000002" class="edge">
<title>Node1&#45;&gt;Node2</title>
<g id="a_edge1_Node000001_Node000002"><a xlink:title=" ">
<path fill="none" stroke="#63b8ff" d="M300.19,-164.98C280.64,-156.42 250.25,-143.11 227.81,-133.28"/>
<polygon fill="#63b8ff" stroke="#63b8ff" points="228.99,-129.98 218.43,-129.17 226.18,-136.39 228.99,-129.98"/>
</a>
</g>
</g>
<!-- Node3 -->
<g id="Node000003" class="node">
<title>Node3</title>
<g id="a_Node000003"><a xlink:href="types_8hpp.html" target="_top" xlink:title=" ">
<polygon fill="white" stroke="#666666" points="490.13,-74 425.13,-74 425.13,-55 490.13,-55 490.13,-74"/>
<text text-anchor="middle" x="457.63" y="-62" font-family="Helvetica,sans-Serif" font-size="10.00">types.hpp</text>
</a>
</g>
</g>
<!-- Node1&#45;&gt;Node3 -->
<g id="edge12_Node000001_Node000003" class="edge">
<title>Node1&#45;&gt;Node3</title>
<g id="a_edge12_Node000001_Node000003"><a xlink:title=" ">
<path fill="none" stroke="#63b8ff" d="M309.02,-164.71C294.83,-151.9 272.96,-127.69 286.63,-110 290.65,-104.81 365.77,-86.66 415.1,-75.2"/>
<polygon fill="#63b8ff" stroke="#63b8ff" points="415.94,-78.6 424.9,-72.94 414.37,-71.78 415.94,-78.6"/>
</a>
</g>
</g>
<!-- Node6 -->
<g id="Node000006" class="node">
<title>Node6</title>
<g id="a_Node000006"><a xlink:title=" ">
<polygon fill="#e0e0e0" stroke="#999999" points="121.63,-19 77.63,-19 77.63,0 121.63,0 121.63,-19"/>
<text text-anchor="middle" x="99.63" y="-7" font-family="Helvetica,sans-Serif" font-size="10.00">string</text>
</a>
</g>
</g>
<!-- Node1&#45;&gt;Node6 -->
<g id="edge16_Node000001_Node000006" class="edge">
<title>Node1&#45;&gt;Node6</title>
<g id="a_edge16_Node000001_Node000006"><a xlink:title=" ">
<path fill="none" stroke="#63b8ff" d="M268,-164.98C186.67,-150.36 34.85,-117.78 4.63,-74 -14.44,-46.36 33.25,-27.51 67.75,-17.91"/>
<polygon fill="#63b8ff" stroke="#63b8ff" points="68.73,-21.27 77.51,-15.34 66.95,-14.5 68.73,-21.27"/>
</a>
</g>
</g>
<!-- Node11 -->
<g id="Node000011" class="node">
<title>Node11</title>
<g id="a_Node000011"><a xlink:title=" ">
<polygon fill="#e0e0e0" stroke="#999999" points="344.13,-129 295.13,-129 295.13,-110 344.13,-110 344.13,-129"/>
<text text-anchor="middle" x="319.63" y="-117" font-family="Helvetica,sans-Serif" font-size="10.00">cstdlib</text>
</a>
</g>
</g>
<!-- Node1&#45;&gt;Node11 -->
<g id="edge13_Node000001_Node000011" class="edge">
<title>Node1&#45;&gt;Node11</title>
<g id="a_edge13_Node000001_Node000011"><a xlink:title=" ">
<path fill="none" stroke="#63b8ff" d="M319.63,-164.75C319.63,-157.8 319.63,-147.85 319.63,-139.13"/>
<polygon fill="#63b8ff" stroke="#63b8ff" points="323.13,-139.09 319.63,-129.09 316.13,-139.09 323.13,-139.09"/>
</a>
</g>
</g>
<!-- Node12 -->
<g id="Node000012" class="node">
<title>Node12</title>
<g id="a_Node000012"><a xlink:title=" ">
<polygon fill="#e0e0e0" stroke="#999999" points="422.63,-129 362.63,-129 362.63,-110 422.63,-110 422.63,-129"/>
<text text-anchor="middle" x="392.63" y="-117" font-family="Helvetica,sans-Serif" font-size="10.00">iostream</text>
</a>
</g>
</g>
<!-- Node1&#45;&gt;Node12 -->
<g id="edge14_Node000001_Node000012" class="edge">
<title>Node1&#45;&gt;Node12</title>
<g id="a_edge14_Node000001_Node000012"><a xlink:title=" ">
<path fill="none" stroke="#63b8ff" d="M331.36,-164.98C342.37,-157 359.05,-144.88 372.24,-135.31"/>
<polygon fill="#63b8ff" stroke="#63b8ff" points="374.66,-137.88 380.69,-129.17 370.54,-132.21 374.66,-137.88"/>
</a>
</g>
</g>
<!-- Node13 -->
<g id="Node000013" class="node">
<title>Node13</title>
<g id="a_Node000013"><a xlink:title=" ">
<polygon fill="#e0e0e0" stroke="#999999" points="506.13,-129 441.13,-129 441.13,-110 506.13,-110 506.13,-129"/>
<text text-anchor="middle" x="473.63" y="-117" font-family="Helvetica,sans-Serif" font-size="10.00">stdexcept</text>
</a>
</g>
</g>
<!-- Node1&#45;&gt;Node13 -->
<g id="edge15_Node000001_Node000013" class="edge">
<title>Node1&#45;&gt;Node13</title>
<g id="a_edge15_Node000001_Node000013"><a xlink:title=" ">
<path fill="none" stroke="#63b8ff" d="M344.38,-164.98C370.01,-156.16 410.27,-142.31 439.04,-132.41"/>
<polygon fill="#63b8ff" stroke="#63b8ff" points="440.38,-135.65 448.7,-129.08 438.1,-129.03 440.38,-135.65"/>
</a>
</g>
</g>
<!-- Node14 -->
<g id="Node000014" class="node">
<title>Node14</title>
<g id="a_Node000014"><a xlink:title=" ">
<polygon fill="#e0e0e0" stroke="#999999" points="575.13,-129 524.13,-129 524.13,-110 575.13,-110 575.13,-129"/>
<text text-anchor="middle" x="549.63" y="-117" font-family="Helvetica,sans-Serif" font-size="10.00">errno.h</text>
</a>
</g>
</g>
<!-- Node1&#45;&gt;Node14 -->
<g id="edge17_Node000001_Node000014" class="edge">
<title>Node1&#45;&gt;Node14</title>
<g id="a_edge17_Node000001_Node000014"><a xlink:title=" ">
<path fill="none" stroke="#63b8ff" d="M358.37,-164.97C395.86,-156.65 454.56,-143.47 514.08,-129.33"/>
<polygon fill="#63b8ff" stroke="#63b8ff" points="515.11,-132.69 524.03,-126.96 513.49,-125.88 515.11,-132.69"/>
</a>
</g>
</g>
<!-- Node2&#45;&gt;Node3 -->
<g id="edge2_Node000002_Node000003" class="edge">
<title>Node2&#45;&gt;Node3</title>
<g id="a_edge2_Node000002_Node000003"><a xlink:title=" ">
<path fill="none" stroke="#63b8ff" d="M238.82,-110.34C280.52,-101.85 347.89,-88.13 415.06,-74.32"/>
<polygon fill="#63b8ff" stroke="#63b8ff" points="415.87,-77.73 424.96,-72.28 414.46,-70.87 415.87,-77.73"/>
</a>
</g>
</g>
<!-- Node5 -->
<g id="Node000005" class="node">
<title>Node5</title>
<g id="a_Node000005"><a xlink:title=" ">
<polygon fill="#e0e0e0" stroke="#999999" points="301.63,-19 251.63,-19 251.63,0 301.63,0 301.63,-19"/>
<text text-anchor="middle" x="276.63" y="-7" font-family="Helvetica,sans-Serif" font-size="10.00">cstdint</text>
</a>
</g>
</g>
<!-- Node2&#45;&gt;Node5 -->
<g id="edge6_Node000002_Node000005" class="edge">
<title>Node2&#45;&gt;Node5</title>
<g id="a_edge6_Node000002_Node000005"><a xlink:title=" ">
<path fill="none" stroke="#63b8ff" d="M186.1,-109.96C169.63,-97.66 144.25,-74.3 157.63,-55 176.36,-28 213.59,-17.36 241.45,-13.17"/>
<polygon fill="#63b8ff" stroke="#63b8ff" points="242.13,-16.61 251.6,-11.87 241.24,-9.67 242.13,-16.61"/>
</a>
</g>
</g>
<!-- Node2&#45;&gt;Node6 -->
<g id="edge8_Node000002_Node000006" class="edge">
<title>Node2&#45;&gt;Node6</title>
<g id="a_edge8_Node000002_Node000006"><a xlink:title=" ">
<path fill="none" stroke="#63b8ff" d="M188.03,-109.77C177.78,-101.12 162.01,-87.28 149.63,-74 135.64,-58.99 121.32,-40.4 111.61,-27.23"/>
<polygon fill="#63b8ff" stroke="#63b8ff" points="114.4,-25.11 105.68,-19.08 108.74,-29.23 114.4,-25.11"/>
</a>
</g>
</g>
<!-- Node7 -->
<g id="Node000007" class="node">
<title>Node7</title>
<g id="a_Node000007"><a xlink:title=" ">
<polygon fill="#e0e0e0" stroke="#999999" points="231.13,-74 166.13,-74 166.13,-55 231.13,-55 231.13,-74"/>
<text text-anchor="middle" x="198.63" y="-62" font-family="Helvetica,sans-Serif" font-size="10.00">exception</text>
</a>
</g>
</g>
<!-- Node2&#45;&gt;Node7 -->
<g id="edge7_Node000002_Node000007" class="edge">
<title>Node2&#45;&gt;Node7</title>
<g id="a_edge7_Node000002_Node000007"><a xlink:title=" ">
<path fill="none" stroke="#63b8ff" d="M198.63,-109.75C198.63,-102.8 198.63,-92.85 198.63,-84.13"/>
<polygon fill="#63b8ff" stroke="#63b8ff" points="202.13,-84.09 198.63,-74.09 195.13,-84.09 202.13,-84.09"/>
</a>
</g>
</g>
<!-- Node8 -->
<g id="Node000008" class="node">
<title>Node8</title>
<g id="a_Node000008"><a xlink:title=" ">
<polygon fill="#e0e0e0" stroke="#999999" points="342.13,-74 249.13,-74 249.13,-55 342.13,-55 342.13,-74"/>
<text text-anchor="middle" x="295.63" y="-62" font-family="Helvetica,sans-Serif" font-size="10.00">unordered_map</text>
</a>
</g>
</g>
<!-- Node2&#45;&gt;Node8 -->
<g id="edge9_Node000002_Node000008" class="edge">
<title>Node2&#45;&gt;Node8</title>
<g id="a_edge9_Node000002_Node000008"><a xlink:title=" ">
<path fill="none" stroke="#63b8ff" d="M214.22,-109.98C229.4,-101.69 252.73,-88.94 270.53,-79.22"/>
<polygon fill="#63b8ff" stroke="#63b8ff" points="272.67,-82.04 279.77,-74.17 269.31,-75.89 272.67,-82.04"/>
</a>
</g>
</g>
<!-- Node9 -->
<g id="Node000009" class="node">
<title>Node9</title>
<g id="a_Node000009"><a xlink:title=" ">
<polygon fill="#e0e0e0" stroke="#999999" points="407.13,-74 360.13,-74 360.13,-55 407.13,-55 407.13,-74"/>
<text text-anchor="middle" x="383.63" y="-62" font-family="Helvetica,sans-Serif" font-size="10.00">vector</text>
</a>
</g>
</g>
<!-- Node2&#45;&gt;Node9 -->
<g id="edge10_Node000002_Node000009" class="edge">
<title>Node2&#45;&gt;Node9</title>
<g id="a_edge10_Node000002_Node000009"><a xlink:title=" ">
<path fill="none" stroke="#63b8ff" d="M228.36,-109.98C261.64,-100.45 315.45,-85.03 350.18,-75.09"/>
<polygon fill="#63b8ff" stroke="#63b8ff" points="351.22,-78.43 359.87,-72.31 349.29,-71.7 351.22,-78.43"/>
</a>
</g>
</g>
<!-- Node10 -->
<g id="Node000010" class="node">
<title>Node10</title>
<g id="a_Node000010"><a xlink:title=" ">
<polygon fill="#e0e0e0" stroke="#999999" points="71.63,-74 13.63,-74 13.63,-55 71.63,-55 71.63,-74"/>
<text text-anchor="middle" x="42.63" y="-62" font-family="Helvetica,sans-Serif" font-size="10.00">memory</text>
</a>
</g>
</g>
<!-- Node2&#45;&gt;Node10 -->
<g id="edge11_Node000002_Node000010" class="edge">
<title>Node2&#45;&gt;Node10</title>
<g id="a_edge11_Node000002_Node000010"><a xlink:title=" ">
<path fill="none" stroke="#63b8ff" d="M173.57,-109.98C147.61,-101.16 106.83,-87.31 77.68,-77.41"/>
<polygon fill="#63b8ff" stroke="#63b8ff" points="78.49,-73.99 67.89,-74.08 76.24,-80.61 78.49,-73.99"/>
</a>
</g>
</g>
<!-- Node4 -->
<g id="Node000004" class="node">
<title>Node4</title>
<g id="a_Node000004"><a xlink:title=" ">
<polygon fill="#e0e0e0" stroke="#999999" points="484.13,-19 431.13,-19 431.13,0 484.13,0 484.13,-19"/>
<text text-anchor="middle" x="457.63" y="-7" font-family="Helvetica,sans-Serif" font-size="10.00">cstddef</text>
</a>
</g>
</g>
<!-- Node3&#45;&gt;Node4 -->
<g id="edge3_Node000003_Node000004" class="edge">
<title>Node3&#45;&gt;Node4</title>
<g id="a_edge3_Node000003_Node000004"><a xlink:title=" ">
<path fill="none" stroke="#63b8ff" d="M457.63,-54.75C457.63,-47.8 457.63,-37.85 457.63,-29.13"/>
<polygon fill="#63b8ff" stroke="#63b8ff" points="461.13,-29.09 457.63,-19.09 454.13,-29.09 461.13,-29.09"/>
</a>
</g>
</g>
<!-- Node3&#45;&gt;Node5 -->
<g id="edge4_Node000003_Node000005" class="edge">
<title>Node3&#45;&gt;Node5</title>
<g id="a_edge4_Node000003_Node000005"><a xlink:title=" ">
<path fill="none" stroke="#63b8ff" d="M428.55,-54.98C396.77,-45.68 345.84,-30.76 311.82,-20.8"/>
<polygon fill="#63b8ff" stroke="#63b8ff" points="312.43,-17.33 301.85,-17.88 310.46,-24.05 312.43,-17.33"/>
</a>
</g>
</g>
<!-- Node3&#45;&gt;Node6 -->
<g id="edge5_Node000003_Node000006" class="edge">
<title>Node3&#45;&gt;Node6</title>
<g id="a_edge5_Node000003_Node000006"><a xlink:title=" ">
<path fill="none" stroke="#63b8ff" d="M425,-56.53C422.17,-55.99 419.36,-55.47 416.63,-55 313.03,-37.01 189.39,-21.3 131.94,-14.33"/>
<polygon fill="#63b8ff" stroke="#63b8ff" points="132.35,-10.86 122,-13.13 131.51,-17.81 132.35,-10.86"/>
</a>
</g>
</g>
</g>
</svg>
