<?xml version="1.0" encoding="UTF-8" standalone="no"?>
<!DOCTYPE svg PUBLIC "-//W3C//DTD SVG 1.1//EN"
 "http://www.w3.org/Graphics/SVG/1.1/DTD/svg11.dtd">
<!-- Generated by graphviz version 2.43.0 (0)
 -->
<!-- Title: src/compiler/compiler.cpp Pages: 1 -->
<svg width="498pt" height="192pt"
 viewBox="0.00 0.00 498.13 192.00" xmlns="http://www.w3.org/2000/svg" xmlns:xlink="http://www.w3.org/1999/xlink">
<g id="graph0" class="graph" transform="scale(1 1) rotate(0) translate(4 188)">
<title>src/compiler/compiler.cpp</title>
<!-- Node1 -->
<g id="Node000001" class="node">
<title>Node1</title>
<g id="a_Node000001"><a xlink:title=" ">
<polygon fill="#999999" stroke="#666666" points="337.63,-184 195.63,-184 195.63,-165 337.63,-165 337.63,-184"/>
<text text-anchor="middle" x="266.63" y="-172" font-family="Helvetica,sans-Serif" font-size="10.00">src/compiler/compiler.cpp</text>
</a>
</g>
</g>
<!-- Node2 -->
<g id="Node000002" class="node">
<title>Node2</title>
<g id="a_Node000002"><a xlink:href="compiler_8hpp.html" target="_top" xlink:title=" ">
<polygon fill="white" stroke="#666666" points="238.63,-129 158.63,-129 158.63,-110 238.63,-110 238.63,-129"/>
<text text-anchor="middle" x="198.63" y="-117" font-family="Helvetica,sans-Serif" font-size="10.00">compiler.hpp</text>
</a>
</g>
</g>
<!-- Node1&#45;&gt;Node2 -->
<g id="edge1_Node000001_Node000002" class="edge">
<title>Node1&#45;&gt;Node2</title>
<g id="a_edge1_Node000001_Node000002"><a xlink:title=" ">
<path fill="none" stroke="#63b8ff" d="M255.71,-164.98C245.56,-157.07 230.21,-145.11 217.99,-135.58"/>
<polygon fill="#63b8ff" stroke="#63b8ff" points="219.8,-132.56 209.76,-129.17 215.49,-138.08 219.8,-132.56"/>
</a>
</g>
</g>
<!-- Node3 -->
<g id="Node000003" class="node">
<title>Node3</title>
<g id="a_Node000003"><a xlink:href="types_8hpp.html" target="_top" xlink:title=" ">
<polygon fill="white" stroke="#666666" points="490.13,-74 425.13,-74 425.13,-55 490.13,-55 490.13,-74"/>
<text text-anchor="middle" x="457.63" y="-62" font-family="Helvetica,sans-Serif" font-size="10.00">types.hpp</text>
</a>
</g>
</g>
<!-- Node1&#45;&gt;Node3 -->
<g id="edge12_Node000001_Node000003" class="edge">
<title>Node1&#45;&gt;Node3</title>
<g id="a_edge12_Node000001_Node000003"><a xlink:title=" ">
<path fill="none" stroke="#63b8ff" d="M266.68,-164.74C267.24,-151.07 270.38,-124.69 285.63,-110 290.39,-105.42 365.71,-87.06 415.09,-75.41"/>
<polygon fill="#63b8ff" stroke="#63b8ff" points="415.96,-78.8 424.89,-73.1 414.35,-71.98 415.96,-78.8"/>
</a>
</g>
</g>
<!-- Node6 -->
<g id="Node000006" class="node">
<title>Node6</title>
<g id="a_Node000006"><a xlink:title=" ">
<polygon fill="#e0e0e0" stroke="#999999" points="121.63,-19 77.63,-19 77.63,0 121.63,0 121.63,-19"/>
<text text-anchor="middle" x="99.63" y="-7" font-family="Helvetica,sans-Serif" font-size="10.00">string</text>
</a>
</g>
</g>
<!-- Node1&#45;&gt;Node6 -->
<g id="edge15_Node000001_Node000006" class="edge">
<title>Node1&#45;&gt;Node6</title>
<g id="a_edge15_Node000001_Node000006"><a xlink:title=" ">
<path fill="none" stroke="#63b8ff" d="M195.56,-168.12C133.63,-159.23 47.25,-135.78 4.63,-74 -14.44,-46.36 33.26,-27.51 67.75,-17.91"/>
<polygon fill="#63b8ff" stroke="#63b8ff" points="68.73,-21.27 77.51,-15.33 66.95,-14.5 68.73,-21.27"/>
</a>
</g>
</g>
<!-- Node11 -->
<g id="Node000011" class="node">
<title>Node11</title>
<g id="a_Node000011"><a xlink:title=" ">
<polygon fill="#e0e0e0" stroke="#999999" points="354.63,-129 294.63,-129 294.63,-110 354.63,-110 354.63,-129"/>
<text text-anchor="middle" x="324.63" y="-117" font-family="Helvetica,sans-Serif" font-size="10.00">iostream</text>
</a>
</g>
</g>
<!-- Node1&#45;&gt;Node11 -->
<g id="edge13_Node000001_Node000011" class="edge">
<title>Node1&#45;&gt;Node11</title>
<g id="a_edge13_Node000001_Node000011"><a xlink:title=" ">
<path fill="none" stroke="#63b8ff" d="M275.95,-164.98C284.44,-157.23 297.19,-145.58 307.51,-136.14"/>
<polygon fill="#63b8ff" stroke="#63b8ff" points="310.12,-138.5 315.14,-129.17 305.4,-133.33 310.12,-138.5"/>
</a>
</g>
</g>
<!-- Node12 -->
<g id="Node000012" class="node">
<title>Node12</title>
<g id="a_Node000012"><a xlink:title=" ">
<polygon fill="#e0e0e0" stroke="#999999" points="438.13,-129 373.13,-129 373.13,-110 438.13,-110 438.13,-129"/>
<text text-anchor="middle" x="405.63" y="-117" font-family="Helvetica,sans-Serif" font-size="10.00">stdexcept</text>
</a>
</g>
</g>
<!-- Node1&#45;&gt;Node12 -->
<g id="edge14_Node000001_Node000012" class="edge">
<title>Node1&#45;&gt;Node12</title>
<g id="a_edge14_Node000001_Node000012"><a xlink:title=" ">
<path fill="none" stroke="#63b8ff" d="M288.96,-164.98C311.83,-156.27 347.59,-142.63 373.49,-132.75"/>
<polygon fill="#63b8ff" stroke="#63b8ff" points="374.8,-136 382.89,-129.17 372.3,-129.46 374.8,-136"/>
</a>
</g>
</g>
<!-- Node2&#45;&gt;Node3 -->
<g id="edge2_Node000002_Node000003" class="edge">
<title>Node2&#45;&gt;Node3</title>
<g id="a_edge2_Node000002_Node000003"><a xlink:title=" ">
<path fill="none" stroke="#63b8ff" d="M238.82,-110.34C280.52,-101.85 347.89,-88.13 415.06,-74.32"/>
<polygon fill="#63b8ff" stroke="#63b8ff" points="415.87,-77.73 424.96,-72.28 414.46,-70.87 415.87,-77.73"/>
</a>
</g>
</g>
<!-- Node5 -->
<g id="Node000005" class="node">
<title>Node5</title>
<g id="a_Node000005"><a xlink:title=" ">
<polygon fill="#e0e0e0" stroke="#999999" points="301.63,-19 251.63,-19 251.63,0 301.63,0 301.63,-19"/>
<text text-anchor="middle" x="276.63" y="-7" font-family="Helvetica,sans-Serif" font-size="10.00">cstdint</text>
</a>
</g>
</g>
<!-- Node2&#45;&gt;Node5 -->
<g id="edge6_Node000002_Node000005" class="edge">
<title>Node2&#45;&gt;Node5</title>
<g id="a_edge6_Node000002_Node000005"><a xlink:title=" ">
<path fill="none" stroke="#63b8ff" d="M186.1,-109.96C169.62,-97.66 144.24,-74.3 157.63,-55 176.36,-28 213.59,-17.36 241.44,-13.17"/>
<polygon fill="#63b8ff" stroke="#63b8ff" points="242.13,-16.61 251.6,-11.87 241.24,-9.67 242.13,-16.61"/>
</a>
</g>
</g>
<!-- Node2&#45;&gt;Node6 -->
<g id="edge8_Node000002_Node000006" class="edge">
<title>Node2&#45;&gt;Node6</title>
<g id="a_edge8_Node000002_Node000006"><a xlink:title=" ">
<path fill="none" stroke="#63b8ff" d="M188.03,-109.77C177.78,-101.12 162.01,-87.28 149.63,-74 135.64,-58.99 121.32,-40.4 111.61,-27.23"/>
<polygon fill="#63b8ff" stroke="#63b8ff" points="114.39,-25.11 105.68,-19.08 108.73,-29.23 114.39,-25.11"/>
</a>
</g>
</g>
<!-- Node7 -->
<g id="Node000007" class="node">
<title>Node7</title>
<g id="a_Node000007"><a xlink:title=" ">
<polygon fill="#e0e0e0" stroke="#999999" points="231.13,-74 166.13,-74 166.13,-55 231.13,-55 231.13,-74"/>
<text text-anchor="middle" x="198.63" y="-62" font-family="Helvetica,sans-Serif" font-size="10.00">exception</text>
</a>
</g>
</g>
<!-- Node2&#45;&gt;Node7 -->
<g id="edge7_Node000002_Node000007" class="edge">
<title>Node2&#45;&gt;Node7</title>
<g id="a_edge7_Node000002_Node000007"><a xlink:title=" ">
<path fill="none" stroke="#63b8ff" d="M198.63,-109.75C198.63,-102.8 198.63,-92.85 198.63,-84.13"/>
<polygon fill="#63b8ff" stroke="#63b8ff" points="202.13,-84.09 198.63,-74.09 195.13,-84.09 202.13,-84.09"/>
</a>
</g>
</g>
<!-- Node8 -->
<g id="Node000008" class="node">
<title>Node8</title>
<g id="a_Node000008"><a xlink:title=" ">
<polygon fill="#e0e0e0" stroke="#999999" points="342.13,-74 249.13,-74 249.13,-55 342.13,-55 342.13,-74"/>
<text text-anchor="middle" x="295.63" y="-62" font-family="Helvetica,sans-Serif" font-size="10.00">unordered_map</text>
</a>
</g>
</g>
<!-- Node2&#45;&gt;Node8 -->
<g id="edge9_Node000002_Node000008" class="edge">
<title>Node2&#45;&gt;Node8</title>
<g id="a_edge9_Node000002_Node000008"><a xlink:title=" ">
<path fill="none" stroke="#63b8ff" d="M214.22,-109.98C229.4,-101.69 252.73,-88.94 270.53,-79.22"/>
<polygon fill="#63b8ff" stroke="#63b8ff" points="272.67,-82.04 279.76,-74.17 269.31,-75.89 272.67,-82.04"/>
</a>
</g>
</g>
<!-- Node9 -->
<g id="Node000009" class="node">
<title>Node9</title>
<g id="a_Node000009"><a xlink:title=" ">
<polygon fill="#e0e0e0" stroke="#999999" points="407.13,-74 360.13,-74 360.13,-55 407.13,-55 407.13,-74"/>
<text text-anchor="middle" x="383.63" y="-62" font-family="Helvetica,sans-Serif" font-size="10.00">vector</text>
</a>
</g>
</g>
<!-- Node2&#45;&gt;Node9 -->
<g id="edge10_Node000002_Node000009" class="edge">
<title>Node2&#45;&gt;Node9</title>
<g id="a_edge10_Node000002_Node000009"><a xlink:title=" ">
<path fill="none" stroke="#63b8ff" d="M228.36,-109.98C261.64,-100.45 315.44,-85.03 350.17,-75.09"/>
<polygon fill="#63b8ff" stroke="#63b8ff" points="351.21,-78.43 359.86,-72.31 349.29,-71.7 351.21,-78.43"/>
</a>
</g>
</g>
<!-- Node10 -->
<g id="Node000010" class="node">
<title>Node10</title>
<g id="a_Node000010"><a xlink:title=" ">
<polygon fill="#e0e0e0" stroke="#999999" points="71.63,-74 13.63,-74 13.63,-55 71.63,-55 71.63,-74"/>
<text text-anchor="middle" x="42.63" y="-62" font-family="Helvetica,sans-Serif" font-size="10.00">memory</text>
</a>
</g>
</g>
<!-- Node2&#45;&gt;Node10 -->
<g id="edge11_Node000002_Node000010" class="edge">
<title>Node2&#45;&gt;Node10</title>
<g id="a_edge11_Node000002_Node000010"><a xlink:title=" ">
<path fill="none" stroke="#63b8ff" d="M173.57,-109.98C147.6,-101.16 106.82,-87.31 77.67,-77.41"/>
<polygon fill="#63b8ff" stroke="#63b8ff" points="78.49,-73.99 67.89,-74.08 76.24,-80.61 78.49,-73.99"/>
</a>
</g>
</g>
<!-- Node4 -->
<g id="Node000004" class="node">
<title>Node4</title>
<g id="a_Node000004"><a xlink:title=" ">
<polygon fill="#e0e0e0" stroke="#999999" points="484.13,-19 431.13,-19 431.13,0 484.13,0 484.13,-19"/>
<text text-anchor="middle" x="457.63" y="-7" font-family="Helvetica,sans-Serif" font-size="10.00">cstddef</text>
</a>
</g>
</g>
<!-- Node3&#45;&gt;Node4 -->
<g id="edge3_Node000003_Node000004" class="edge">
<title>Node3&#45;&gt;Node4</title>
<g id="a_edge3_Node000003_Node000004"><a xlink:title=" ">
<path fill="none" stroke="#63b8ff" d="M457.63,-54.75C457.63,-47.8 457.63,-37.85 457.63,-29.13"/>
<polygon fill="#63b8ff" stroke="#63b8ff" points="461.13,-29.09 457.63,-19.09 454.13,-29.09 461.13,-29.09"/>
</a>
</g>
</g>
<!-- Node3&#45;&gt;Node5 -->
<g id="edge4_Node000003_Node000005" class="edge">
<title>Node3&#45;&gt;Node5</title>
<g id="a_edge4_Node000003_Node000005"><a xlink:title=" ">
<path fill="none" stroke="#63b8ff" d="M428.55,-54.98C396.76,-45.68 345.84,-30.76 311.82,-20.8"/>
<polygon fill="#63b8ff" stroke="#63b8ff" points="312.43,-17.33 301.85,-17.88 310.46,-24.05 312.43,-17.33"/>
</a>
</g>
</g>
<!-- Node3&#45;&gt;Node6 -->
<g id="edge5_Node000003_Node000006" class="edge">
<title>Node3&#45;&gt;Node6</title>
<g id="a_edge5_Node000003_Node000006"><a xlink:title=" ">
<path fill="none" stroke="#63b8ff" d="M424.99,-56.53C422.17,-55.99 419.35,-55.47 416.63,-55 313.02,-37.01 189.39,-21.3 131.94,-14.33"/>
<polygon fill="#63b8ff" stroke="#63b8ff" points="132.35,-10.86 122,-13.13 131.51,-17.81 132.35,-10.86"/>
</a>
</g>
</g>
</g>
</svg>
