<?xml version="1.0" encoding="UTF-8" standalone="no"?>
<!DOCTYPE svg PUBLIC "-//W3C//DTD SVG 1.1//EN"
 "http://www.w3.org/Graphics/SVG/1.1/DTD/svg11.dtd">
<!-- Generated by graphviz version 2.43.0 (0)
 -->
<!-- Title: src/compiler/compiler.cpp Pages: 1 -->
<svg width="953pt" height="192pt"
 viewBox="0.00 0.00 952.99 192.00" xmlns="http://www.w3.org/2000/svg" xmlns:xlink="http://www.w3.org/1999/xlink">
<g id="graph0" class="graph" transform="scale(1 1) rotate(0) translate(4 188)">
<title>src/compiler/compiler.cpp</title>
<!-- Node1 -->
<g id="Node000001" class="node">
<title>Node1</title>
<g id="a_Node000001"><a xlink:title=" ">
<polygon fill="#999999" stroke="#666666" points="649.49,-184 507.49,-184 507.49,-165 649.49,-165 649.49,-184"/>
<text text-anchor="middle" x="578.49" y="-172" font-family="Helvetica,sans-Serif" font-size="10.00">src/compiler/compiler.cpp</text>
</a>
</g>
</g>
<!-- Node2 -->
<g id="Node000002" class="node">
<title>Node2</title>
<g id="a_Node000002"><a xlink:href="compiler_8hpp.html" target="_top" xlink:title=" ">
<polygon fill="white" stroke="#666666" points="402.49,-129 322.49,-129 322.49,-110 402.49,-110 402.49,-129"/>
<text text-anchor="middle" x="362.49" y="-117" font-family="Helvetica,sans-Serif" font-size="10.00">compiler.hpp</text>
</a>
</g>
</g>
<!-- Node1&#45;&gt;Node2 -->
<g id="edge1_Node000001_Node000002" class="edge">
<title>Node1&#45;&gt;Node2</title>
<g id="a_edge1_Node000001_Node000002"><a xlink:title=" ">
<path fill="none" stroke="#63b8ff" d="M543.79,-164.98C506.74,-155.89 447.9,-141.46 407.36,-131.51"/>
<polygon fill="#63b8ff" stroke="#63b8ff" points="408.02,-128.07 397.47,-129.08 406.35,-134.86 408.02,-128.07"/>
</a>
</g>
</g>
<!-- Node3 -->
<g id="Node000003" class="node">
<title>Node3</title>
<g id="a_Node000003"><a xlink:href="bytecode_8hpp.html" target="_top" xlink:title=" ">
<polygon fill="white" stroke="#666666" points="184.99,-74 101.99,-74 101.99,-55 184.99,-55 184.99,-74"/>
<text text-anchor="middle" x="143.49" y="-62" font-family="Helvetica,sans-Serif" font-size="10.00">bytecode.hpp</text>
</a>
</g>
</g>
<!-- Node1&#45;&gt;Node3 -->
<g id="edge17_Node000001_Node000003" class="edge">
<title>Node1&#45;&gt;Node3</title>
<g id="a_edge17_Node000001_Node000003"><a xlink:title=" ">
<path fill="none" stroke="#63b8ff" d="M507.4,-165.31C453.59,-158.22 378.15,-146.33 313.49,-129 262.75,-115.4 205.98,-92.57 172.57,-78.31"/>
<polygon fill="#63b8ff" stroke="#63b8ff" points="173.55,-74.92 162.98,-74.18 170.78,-81.35 173.55,-74.92"/>
</a>
</g>
</g>
<!-- Node4 -->
<g id="Node000004" class="node">
<title>Node4</title>
<g id="a_Node000004"><a xlink:title=" ">
<polygon fill="#e0e0e0" stroke="#999999" points="157.49,-19 107.49,-19 107.49,0 157.49,0 157.49,-19"/>
<text text-anchor="middle" x="132.49" y="-7" font-family="Helvetica,sans-Serif" font-size="10.00">cstdint</text>
</a>
</g>
</g>
<!-- Node1&#45;&gt;Node4 -->
<g id="edge20_Node000001_Node000004" class="edge">
<title>Node1&#45;&gt;Node4</title>
<g id="a_edge20_Node000001_Node000004"><a xlink:title=" ">
<path fill="none" stroke="#63b8ff" d="M507.33,-172.71C367.88,-169.41 67.22,-153.07 9.49,-74 4.51,-67.18 4.64,-61.91 9.49,-55 19.85,-40.24 64.69,-26.67 97.25,-18.49"/>
<polygon fill="#63b8ff" stroke="#63b8ff" points="98.44,-21.8 107.33,-16.03 96.78,-15 98.44,-21.8"/>
</a>
</g>
</g>
<!-- Node5 -->
<g id="Node000005" class="node">
<title>Node5</title>
<g id="a_Node000005"><a xlink:title=" ">
<polygon fill="#e0e0e0" stroke="#999999" points="77.99,-19 24.99,-19 24.99,0 77.99,0 77.99,-19"/>
<text text-anchor="middle" x="51.49" y="-7" font-family="Helvetica,sans-Serif" font-size="10.00">cstddef</text>
</a>
</g>
</g>
<!-- Node1&#45;&gt;Node5 -->
<g id="edge19_Node000001_Node000005" class="edge">
<title>Node1&#45;&gt;Node5</title>
<g id="a_edge19_Node000001_Node000005"><a xlink:title=" ">
<path fill="none" stroke="#63b8ff" d="M507.26,-173.06C384.66,-171.37 139.4,-163.61 61.49,-129 28.73,-114.44 16.79,-106.87 2.49,-74 -5.74,-55.08 11.98,-36.79 28.36,-24.74"/>
<polygon fill="#63b8ff" stroke="#63b8ff" points="30.4,-27.58 36.66,-19.03 26.43,-21.81 30.4,-27.58"/>
</a>
</g>
</g>
<!-- Node6 -->
<g id="Node000006" class="node">
<title>Node6</title>
<g id="a_Node000006"><a xlink:title=" ">
<polygon fill="#e0e0e0" stroke="#999999" points="289.49,-19 245.49,-19 245.49,0 289.49,0 289.49,-19"/>
<text text-anchor="middle" x="267.49" y="-7" font-family="Helvetica,sans-Serif" font-size="10.00">string</text>
</a>
</g>
</g>
<!-- Node1&#45;&gt;Node6 -->
<g id="edge25_Node000001_Node000006" class="edge">
<title>Node1&#45;&gt;Node6</title>
<g id="a_edge25_Node000001_Node000006"><a xlink:title=" ">
<path fill="none" stroke="#63b8ff" d="M582,-164.74C590.03,-143.13 607,-86.7 579.49,-55 570.35,-44.47 377.83,-22.48 299.86,-13.97"/>
<polygon fill="#63b8ff" stroke="#63b8ff" points="299.96,-10.46 289.64,-12.86 299.21,-17.42 299.96,-10.46"/>
</a>
</g>
</g>
<!-- Node7 -->
<g id="Node000007" class="node">
<title>Node7</title>
<g id="a_Node000007"><a xlink:title=" ">
<polygon fill="#e0e0e0" stroke="#999999" points="423.99,-19 376.99,-19 376.99,0 423.99,0 423.99,-19"/>
<text text-anchor="middle" x="400.49" y="-7" font-family="Helvetica,sans-Serif" font-size="10.00">vector</text>
</a>
</g>
</g>
<!-- Node1&#45;&gt;Node7 -->
<g id="edge26_Node000001_Node000007" class="edge">
<title>Node1&#45;&gt;Node7</title>
<g id="a_edge26_Node000001_Node000007"><a xlink:title=" ">
<path fill="none" stroke="#63b8ff" d="M588.1,-164.69C596.37,-156.41 607.69,-143.18 612.49,-129 623.03,-97.85 633.22,-80.53 612.49,-55 590.44,-27.83 488.42,-16.65 434.35,-12.57"/>
<polygon fill="#63b8ff" stroke="#63b8ff" points="434.44,-9.06 424.21,-11.84 433.94,-16.04 434.44,-9.06"/>
</a>
</g>
</g>
<!-- Node8 -->
<g id="Node000008" class="node">
<title>Node8</title>
<g id="a_Node000008"><a xlink:href="types_8hpp.html" target="_top" xlink:title=" ">
<polygon fill="white" stroke="#666666" points="83.99,-74 18.99,-74 18.99,-55 83.99,-55 83.99,-74"/>
<text text-anchor="middle" x="51.49" y="-62" font-family="Helvetica,sans-Serif" font-size="10.00">types.hpp</text>
</a>
</g>
</g>
<!-- Node1&#45;&gt;Node8 -->
<g id="edge18_Node000001_Node000008" class="edge">
<title>Node1&#45;&gt;Node8</title>
<g id="a_edge18_Node000001_Node000008"><a xlink:title=" ">
<path fill="none" stroke="#63b8ff" d="M507.29,-167.31C440.82,-160.69 339.16,-148.46 252.49,-129 191.72,-115.36 122.92,-91.79 83.62,-77.52"/>
<polygon fill="#63b8ff" stroke="#63b8ff" points="84.65,-74.17 74.06,-74.02 82.24,-80.75 84.65,-74.17"/>
</a>
</g>
</g>
<!-- Node9 -->
<g id="Node000009" class="node">
<title>Node9</title>
<g id="a_Node000009"><a xlink:title=" ">
<polygon fill="#e0e0e0" stroke="#999999" points="569.99,-74 504.99,-74 504.99,-55 569.99,-55 569.99,-74"/>
<text text-anchor="middle" x="537.49" y="-62" font-family="Helvetica,sans-Serif" font-size="10.00">exception</text>
</a>
</g>
</g>
<!-- Node1&#45;&gt;Node9 -->
<g id="edge22_Node000001_Node000009" class="edge">
<title>Node1&#45;&gt;Node9</title>
<g id="a_edge22_Node000001_Node000009"><a xlink:title=" ">
<path fill="none" stroke="#63b8ff" d="M575.14,-164.66C568.44,-147.01 553.28,-107.09 544.38,-83.64"/>
<polygon fill="#63b8ff" stroke="#63b8ff" points="547.6,-82.27 540.78,-74.16 541.06,-84.75 547.6,-82.27"/>
</a>
</g>
</g>
<!-- Node12 -->
<g id="Node000012" class="node">
<title>Node12</title>
<g id="a_Node000012"><a xlink:title=" ">
<polygon fill="#e0e0e0" stroke="#999999" points="713.99,-129 664.99,-129 664.99,-110 713.99,-110 713.99,-129"/>
<text text-anchor="middle" x="689.49" y="-117" font-family="Helvetica,sans-Serif" font-size="10.00">cstdlib</text>
</a>
</g>
</g>
<!-- Node1&#45;&gt;Node12 -->
<g id="edge21_Node000001_Node000012" class="edge">
<title>Node1&#45;&gt;Node12</title>
<g id="a_edge21_Node000001_Node000012"><a xlink:title=" ">
<path fill="none" stroke="#63b8ff" d="M596.33,-164.98C614.1,-156.5 641.64,-143.35 662.17,-133.54"/>
<polygon fill="#63b8ff" stroke="#63b8ff" points="663.82,-136.64 671.33,-129.17 660.8,-130.32 663.82,-136.64"/>
</a>
</g>
</g>
<!-- Node13 -->
<g id="Node000013" class="node">
<title>Node13</title>
<g id="a_Node000013"><a xlink:title=" ">
<polygon fill="#e0e0e0" stroke="#999999" points="792.49,-129 732.49,-129 732.49,-110 792.49,-110 792.49,-129"/>
<text text-anchor="middle" x="762.49" y="-117" font-family="Helvetica,sans-Serif" font-size="10.00">iostream</text>
</a>
</g>
</g>
<!-- Node1&#45;&gt;Node13 -->
<g id="edge23_Node000001_Node000013" class="edge">
<title>Node1&#45;&gt;Node13</title>
<g id="a_edge23_Node000001_Node000013"><a xlink:title=" ">
<path fill="none" stroke="#63b8ff" d="M608.06,-164.98C639.21,-156.01 688.47,-141.82 722.95,-131.89"/>
<polygon fill="#63b8ff" stroke="#63b8ff" points="724.06,-135.21 732.7,-129.08 722.12,-128.49 724.06,-135.21"/>
</a>
</g>
</g>
<!-- Node14 -->
<g id="Node000014" class="node">
<title>Node14</title>
<g id="a_Node000014"><a xlink:title=" ">
<polygon fill="#e0e0e0" stroke="#999999" points="875.99,-129 810.99,-129 810.99,-110 875.99,-110 875.99,-129"/>
<text text-anchor="middle" x="843.49" y="-117" font-family="Helvetica,sans-Serif" font-size="10.00">stdexcept</text>
</a>
</g>
</g>
<!-- Node1&#45;&gt;Node14 -->
<g id="edge24_Node000001_Node000014" class="edge">
<title>Node1&#45;&gt;Node14</title>
<g id="a_edge24_Node000001_Node000014"><a xlink:title=" ">
<path fill="none" stroke="#63b8ff" d="M621.67,-164.92C664.49,-156.4 732.26,-142.9 800.82,-129.13"/>
<polygon fill="#63b8ff" stroke="#63b8ff" points="801.82,-132.5 810.94,-127.1 800.44,-125.64 801.82,-132.5"/>
</a>
</g>
</g>
<!-- Node15 -->
<g id="Node000015" class="node">
<title>Node15</title>
<g id="a_Node000015"><a xlink:title=" ">
<polygon fill="#e0e0e0" stroke="#999999" points="944.99,-129 893.99,-129 893.99,-110 944.99,-110 944.99,-129"/>
<text text-anchor="middle" x="919.49" y="-117" font-family="Helvetica,sans-Serif" font-size="10.00">errno.h</text>
</a>
</g>
</g>
<!-- Node1&#45;&gt;Node15 -->
<g id="edge27_Node000001_Node000015" class="edge">
<title>Node1&#45;&gt;Node15</title>
<g id="a_edge27_Node000001_Node000015"><a xlink:title=" ">
<path fill="none" stroke="#63b8ff" d="M649.56,-165.27C709.69,-157.83 798.3,-145.76 884.04,-129.13"/>
<polygon fill="#63b8ff" stroke="#63b8ff" points="884.8,-132.54 893.94,-127.18 883.45,-125.68 884.8,-132.54"/>
</a>
</g>
</g>
<!-- Node2&#45;&gt;Node3 -->
<g id="edge2_Node000002_Node000003" class="edge">
<title>Node2&#45;&gt;Node3</title>
<g id="a_edge2_Node000002_Node000003"><a xlink:title=" ">
<path fill="none" stroke="#63b8ff" d="M327.31,-109.98C289.66,-100.87 229.84,-86.4 188.72,-76.45"/>
<polygon fill="#63b8ff" stroke="#63b8ff" points="189.5,-73.03 178.96,-74.08 187.85,-79.84 189.5,-73.03"/>
</a>
</g>
</g>
<!-- Node2&#45;&gt;Node4 -->
<g id="edge11_Node000002_Node000004" class="edge">
<title>Node2&#45;&gt;Node4</title>
<g id="a_edge11_Node000002_Node000004"><a xlink:title=" ">
<path fill="none" stroke="#63b8ff" d="M356.9,-109.62C347.7,-95.77 328.03,-69.17 304.49,-55 261.68,-29.23 204.17,-18.25 167.71,-13.67"/>
<polygon fill="#63b8ff" stroke="#63b8ff" points="167.9,-10.17 157.57,-12.49 167.09,-17.12 167.9,-10.17"/>
</a>
</g>
</g>
<!-- Node2&#45;&gt;Node6 -->
<g id="edge13_Node000002_Node000006" class="edge">
<title>Node2&#45;&gt;Node6</title>
<g id="a_edge13_Node000002_Node000006"><a xlink:title=" ">
<path fill="none" stroke="#63b8ff" d="M361.04,-109.81C358.48,-96.69 352.08,-71.6 338.49,-55 327.63,-41.74 311.73,-31.26 297.73,-23.81"/>
<polygon fill="#63b8ff" stroke="#63b8ff" points="298.93,-20.5 288.42,-19.14 295.79,-26.75 298.93,-20.5"/>
</a>
</g>
</g>
<!-- Node2&#45;&gt;Node7 -->
<g id="edge15_Node000002_Node000007" class="edge">
<title>Node2&#45;&gt;Node7</title>
<g id="a_edge15_Node000002_Node000007"><a xlink:title=" ">
<path fill="none" stroke="#63b8ff" d="M365.6,-109.66C371.81,-92.01 385.86,-52.09 394.11,-28.64"/>
<polygon fill="#63b8ff" stroke="#63b8ff" points="397.43,-29.75 397.45,-19.16 390.83,-27.43 397.43,-29.75"/>
</a>
</g>
</g>
<!-- Node2&#45;&gt;Node8 -->
<g id="edge7_Node000002_Node000008" class="edge">
<title>Node2&#45;&gt;Node8</title>
<g id="a_edge7_Node000002_Node000008"><a xlink:title=" ">
<path fill="none" stroke="#63b8ff" d="M322.15,-112.38C271.25,-104.54 180.79,-90.23 94.14,-74.25"/>
<polygon fill="#63b8ff" stroke="#63b8ff" points="94.61,-70.78 84.14,-72.39 93.34,-77.66 94.61,-70.78"/>
</a>
</g>
</g>
<!-- Node2&#45;&gt;Node9 -->
<g id="edge12_Node000002_Node000009" class="edge">
<title>Node2&#45;&gt;Node9</title>
<g id="a_edge12_Node000002_Node000009"><a xlink:title=" ">
<path fill="none" stroke="#63b8ff" d="M390.61,-109.98C420.12,-101.05 466.69,-86.94 499.46,-77.02"/>
<polygon fill="#63b8ff" stroke="#63b8ff" points="500.6,-80.33 509.16,-74.08 498.57,-73.63 500.6,-80.33"/>
</a>
</g>
</g>
<!-- Node10 -->
<g id="Node000010" class="node">
<title>Node10</title>
<g id="a_Node000010"><a xlink:title=" ">
<polygon fill="#e0e0e0" stroke="#999999" points="295.99,-74 202.99,-74 202.99,-55 295.99,-55 295.99,-74"/>
<text text-anchor="middle" x="249.49" y="-62" font-family="Helvetica,sans-Serif" font-size="10.00">unordered_map</text>
</a>
</g>
</g>
<!-- Node2&#45;&gt;Node10 -->
<g id="edge14_Node000002_Node000010" class="edge">
<title>Node2&#45;&gt;Node10</title>
<g id="a_edge14_Node000002_Node000010"><a xlink:title=" ">
<path fill="none" stroke="#63b8ff" d="M344.34,-109.98C326.24,-101.5 298.21,-88.35 277.31,-78.54"/>
<polygon fill="#63b8ff" stroke="#63b8ff" points="278.52,-75.25 267.98,-74.17 275.55,-81.59 278.52,-75.25"/>
</a>
</g>
</g>
<!-- Node11 -->
<g id="Node000011" class="node">
<title>Node11</title>
<g id="a_Node000011"><a xlink:title=" ">
<polygon fill="#e0e0e0" stroke="#999999" points="486.49,-74 428.49,-74 428.49,-55 486.49,-55 486.49,-74"/>
<text text-anchor="middle" x="457.49" y="-62" font-family="Helvetica,sans-Serif" font-size="10.00">memory</text>
</a>
</g>
</g>
<!-- Node2&#45;&gt;Node11 -->
<g id="edge16_Node000002_Node000011" class="edge">
<title>Node2&#45;&gt;Node11</title>
<g id="a_edge16_Node000002_Node000011"><a xlink:title=" ">
<path fill="none" stroke="#63b8ff" d="M377.76,-109.98C392.63,-101.69 415.48,-88.94 432.91,-79.22"/>
<polygon fill="#63b8ff" stroke="#63b8ff" points="434.92,-82.1 441.95,-74.17 431.51,-75.99 434.92,-82.1"/>
</a>
</g>
</g>
<!-- Node3&#45;&gt;Node4 -->
<g id="edge3_Node000003_Node000004" class="edge">
<title>Node3&#45;&gt;Node4</title>
<g id="a_edge3_Node000003_Node000004"><a xlink:title=" ">
<path fill="none" stroke="#63b8ff" d="M141.68,-54.75C140.24,-47.8 138.17,-37.85 136.36,-29.13"/>
<polygon fill="#63b8ff" stroke="#63b8ff" points="139.73,-28.17 134.28,-19.09 132.88,-29.59 139.73,-28.17"/>
</a>
</g>
</g>
<!-- Node3&#45;&gt;Node5 -->
<g id="edge4_Node000003_Node000005" class="edge">
<title>Node3&#45;&gt;Node5</title>
<g id="a_edge4_Node000003_Node000005"><a xlink:title=" ">
<path fill="none" stroke="#63b8ff" d="M128.71,-54.98C114.31,-46.69 92.18,-33.94 75.3,-24.22"/>
<polygon fill="#63b8ff" stroke="#63b8ff" points="76.96,-21.13 66.54,-19.17 73.46,-27.19 76.96,-21.13"/>
</a>
</g>
</g>
<!-- Node3&#45;&gt;Node6 -->
<g id="edge5_Node000003_Node000006" class="edge">
<title>Node3&#45;&gt;Node6</title>
<g id="a_edge5_Node000003_Node000006"><a xlink:title=" ">
<path fill="none" stroke="#63b8ff" d="M163.42,-54.98C183.54,-46.38 214.87,-32.99 237.9,-23.15"/>
<polygon fill="#63b8ff" stroke="#63b8ff" points="239.39,-26.32 247.21,-19.17 236.64,-19.88 239.39,-26.32"/>
</a>
</g>
</g>
<!-- Node3&#45;&gt;Node7 -->
<g id="edge6_Node000003_Node000007" class="edge">
<title>Node3&#45;&gt;Node7</title>
<g id="a_edge6_Node000003_Node000007"><a xlink:title=" ">
<path fill="none" stroke="#63b8ff" d="M184.78,-54.98C235.31,-44.57 319.89,-27.12 366.72,-17.47"/>
<polygon fill="#63b8ff" stroke="#63b8ff" points="367.58,-20.86 376.66,-15.41 366.16,-14.01 367.58,-20.86"/>
</a>
</g>
</g>
<!-- Node8&#45;&gt;Node4 -->
<g id="edge9_Node000008_Node000004" class="edge">
<title>Node8&#45;&gt;Node4</title>
<g id="a_edge9_Node000008_Node000004"><a xlink:title=" ">
<path fill="none" stroke="#63b8ff" d="M64.51,-54.98C76.95,-46.84 95.95,-34.41 110.7,-24.76"/>
<polygon fill="#63b8ff" stroke="#63b8ff" points="112.79,-27.57 119.24,-19.17 108.96,-21.72 112.79,-27.57"/>
</a>
</g>
</g>
<!-- Node8&#45;&gt;Node5 -->
<g id="edge8_Node000008_Node000005" class="edge">
<title>Node8&#45;&gt;Node5</title>
<g id="a_edge8_Node000008_Node000005"><a xlink:title=" ">
<path fill="none" stroke="#63b8ff" d="M51.49,-54.75C51.49,-47.8 51.49,-37.85 51.49,-29.13"/>
<polygon fill="#63b8ff" stroke="#63b8ff" points="54.99,-29.09 51.49,-19.09 47.99,-29.09 54.99,-29.09"/>
</a>
</g>
</g>
<!-- Node8&#45;&gt;Node6 -->
<g id="edge10_Node000008_Node000006" class="edge">
<title>Node8&#45;&gt;Node6</title>
<g id="a_edge10_Node000008_Node000006"><a xlink:title=" ">
<path fill="none" stroke="#63b8ff" d="M84.3,-55.45C125.23,-45.41 194.76,-28.35 235.37,-18.38"/>
<polygon fill="#63b8ff" stroke="#63b8ff" points="236.4,-21.73 245.28,-15.95 234.73,-14.93 236.4,-21.73"/>
</a>
</g>
</g>
</g>
</svg>
