<?xml version="1.0" encoding="UTF-8" standalone="no"?>
<!DOCTYPE svg PUBLIC "-//W3C//DTD SVG 1.1//EN"
 "http://www.w3.org/Graphics/SVG/1.1/DTD/svg11.dtd">
<!-- Generated by graphviz version 2.43.0 (0)
 -->
<!-- Title: src/compiler/compiler.hpp Pages: 1 -->
<svg width="1032pt" height="93pt"
 viewBox="0.00 0.00 1032.00 93.00" xmlns="http://www.w3.org/2000/svg" xmlns:xlink="http://www.w3.org/1999/xlink">
<g id="graph0" class="graph" transform="scale(1 1) rotate(0) translate(4 89)">
<title>src/compiler/compiler.hpp</title>
<!-- Node1 -->
<g id="Node000001" class="node">
<title>Node1</title>
<g id="a_Node000001"><a xlink:title=" ">
<polygon fill="#999999" stroke="#666666" points="602.5,-85 459.5,-85 459.5,-66 602.5,-66 602.5,-85"/>
<text text-anchor="middle" x="531" y="-73" font-family="Helvetica,sans-Serif" font-size="10.00">src/compiler/compiler.hpp</text>
</a>
</g>
</g>
<!-- Node2 -->
<g id="Node000002" class="node">
<title>Node2</title>
<g id="a_Node000002"><a xlink:href="CompilerSyntaxException_8cpp.html" target="_top" xlink:title=" ">
<polygon fill="white" stroke="#666666" points="158,-30 0,-30 0,0 158,0 158,-30"/>
<text text-anchor="start" x="8" y="-18" font-family="Helvetica,sans-Serif" font-size="10.00">src/compiler/CompilerSyntax</text>
<text text-anchor="middle" x="79" y="-7" font-family="Helvetica,sans-Serif" font-size="10.00">Exception.cpp</text>
</a>
</g>
</g>
<!-- Node1&#45;&gt;Node2 -->
<g id="edge1_Node000001_Node000002" class="edge">
<title>Node1&#45;&gt;Node2</title>
<g id="a_edge1_Node000001_Node000002"><a xlink:title=" ">
<path fill="none" stroke="#63b8ff" d="M449.02,-65.41C374.97,-56.99 263.04,-43.72 166,-30 163.42,-29.64 160.81,-29.26 158.17,-28.87"/>
<polygon fill="#63b8ff" stroke="#63b8ff" points="448.88,-68.92 459.21,-66.57 449.67,-61.96 448.88,-68.92"/>
</a>
</g>
</g>
<!-- Node3 -->
<g id="Node000003" class="node">
<title>Node3</title>
<g id="a_Node000003"><a xlink:href="ast_8cpp.html" target="_top" xlink:title=" ">
<polygon fill="white" stroke="#666666" points="290.5,-24.5 175.5,-24.5 175.5,-5.5 290.5,-5.5 290.5,-24.5"/>
<text text-anchor="middle" x="233" y="-12.5" font-family="Helvetica,sans-Serif" font-size="10.00">src/compiler/ast.cpp</text>
</a>
</g>
</g>
<!-- Node1&#45;&gt;Node3 -->
<g id="edge2_Node000001_Node000003" class="edge">
<title>Node1&#45;&gt;Node3</title>
<g id="a_edge2_Node000001_Node000003"><a xlink:title=" ">
<path fill="none" stroke="#63b8ff" d="M475.43,-64.05C428.61,-55.18 359.87,-42.02 300,-30 291.38,-28.27 282.14,-26.37 273.37,-24.54"/>
<polygon fill="#63b8ff" stroke="#63b8ff" points="474.9,-67.51 485.38,-65.93 476.2,-60.63 474.9,-67.51"/>
</a>
</g>
</g>
<!-- Node4 -->
<g id="Node000004" class="node">
<title>Node4</title>
<g id="a_Node000004"><a xlink:href="compiler_8cpp.html" target="_top" xlink:title=" ">
<polygon fill="white" stroke="#666666" points="451,-24.5 309,-24.5 309,-5.5 451,-5.5 451,-24.5"/>
<text text-anchor="middle" x="380" y="-12.5" font-family="Helvetica,sans-Serif" font-size="10.00">src/compiler/compiler.cpp</text>
</a>
</g>
</g>
<!-- Node1&#45;&gt;Node4 -->
<g id="edge3_Node000001_Node000004" class="edge">
<title>Node1&#45;&gt;Node4</title>
<g id="a_edge3_Node000001_Node000004"><a xlink:title=" ">
<path fill="none" stroke="#63b8ff" d="M499.71,-62.38C470.52,-51.07 427.72,-34.49 401.98,-24.52"/>
<polygon fill="#63b8ff" stroke="#63b8ff" points="498.45,-65.64 509.04,-65.99 500.98,-59.12 498.45,-65.64"/>
</a>
</g>
</g>
<!-- Node5 -->
<g id="Node000005" class="node">
<title>Node5</title>
<g id="a_Node000005"><a xlink:href="lexer_8cpp.html" target="_top" xlink:title=" ">
<polygon fill="white" stroke="#666666" points="592.5,-24.5 469.5,-24.5 469.5,-5.5 592.5,-5.5 592.5,-24.5"/>
<text text-anchor="middle" x="531" y="-12.5" font-family="Helvetica,sans-Serif" font-size="10.00">src/compiler/lexer.cpp</text>
</a>
</g>
</g>
<!-- Node1&#45;&gt;Node5 -->
<g id="edge4_Node000001_Node000005" class="edge">
<title>Node1&#45;&gt;Node5</title>
<g id="a_edge4_Node000001_Node000005"><a xlink:title=" ">
<path fill="none" stroke="#63b8ff" d="M531,-55.66C531,-45.24 531,-32.8 531,-24.67"/>
<polygon fill="#63b8ff" stroke="#63b8ff" points="527.5,-55.87 531,-65.87 534.5,-55.87 527.5,-55.87"/>
</a>
</g>
</g>
<!-- Node6 -->
<g id="Node000006" class="node">
<title>Node6</title>
<g id="a_Node000006"><a xlink:href="main_8cpp.html" target="_top" xlink:title=" ">
<polygon fill="white" stroke="#666666" points="735.5,-24.5 610.5,-24.5 610.5,-5.5 735.5,-5.5 735.5,-24.5"/>
<text text-anchor="middle" x="673" y="-12.5" font-family="Helvetica,sans-Serif" font-size="10.00">src/compiler/main.cpp</text>
</a>
</g>
</g>
<!-- Node1&#45;&gt;Node6 -->
<g id="edge5_Node000001_Node000006" class="edge">
<title>Node1&#45;&gt;Node6</title>
<g id="a_edge5_Node000001_Node000006"><a xlink:title=" ">
<path fill="none" stroke="#63b8ff" d="M561.14,-62.08C588.57,-50.78 628.34,-34.4 652.33,-24.52"/>
<polygon fill="#63b8ff" stroke="#63b8ff" points="559.56,-58.95 551.65,-65.99 562.23,-65.42 559.56,-58.95"/>
</a>
</g>
</g>
<!-- Node7 -->
<g id="Node000007" class="node">
<title>Node7</title>
<g id="a_Node000007"><a xlink:href="symbol_8cpp.html" target="_top" xlink:title=" ">
<polygon fill="white" stroke="#666666" points="890,-24.5 754,-24.5 754,-5.5 890,-5.5 890,-24.5"/>
<text text-anchor="middle" x="822" y="-12.5" font-family="Helvetica,sans-Serif" font-size="10.00">src/compiler/symbol.cpp</text>
</a>
</g>
</g>
<!-- Node1&#45;&gt;Node7 -->
<g id="edge6_Node000001_Node000007" class="edge">
<title>Node1&#45;&gt;Node7</title>
<g id="a_edge6_Node000001_Node000007"><a xlink:title=" ">
<path fill="none" stroke="#63b8ff" d="M583.42,-63.96C639.59,-52.67 727.67,-34.96 779.64,-24.52"/>
<polygon fill="#63b8ff" stroke="#63b8ff" points="582.43,-60.59 573.31,-65.99 583.81,-67.45 582.43,-60.59"/>
</a>
</g>
</g>
<!-- Node8 -->
<g id="Node000008" class="node">
<title>Node8</title>
<g id="a_Node000008"><a xlink:href="symbol__table_8cpp.html" target="_top" xlink:title=" ">
<polygon fill="white" stroke="#666666" points="1024,-30 908,-30 908,0 1024,0 1024,-30"/>
<text text-anchor="start" x="916" y="-18" font-family="Helvetica,sans-Serif" font-size="10.00">src/compiler/symbol</text>
<text text-anchor="middle" x="966" y="-7" font-family="Helvetica,sans-Serif" font-size="10.00">_table.cpp</text>
</a>
</g>
</g>
<!-- Node1&#45;&gt;Node8 -->
<g id="edge7_Node000001_Node000008" class="edge">
<title>Node1&#45;&gt;Node8</title>
<g id="a_edge7_Node000001_Node000008"><a xlink:title=" ">
<path fill="none" stroke="#63b8ff" d="M613.13,-66.6C687.89,-58.93 801.21,-46.1 899,-30 901.93,-29.52 904.93,-29 907.95,-28.45"/>
<polygon fill="#63b8ff" stroke="#63b8ff" points="612.43,-63.16 602.84,-67.65 613.14,-70.12 612.43,-63.16"/>
</a>
</g>
</g>
</g>
</svg>
