<?xml version="1.0" encoding="UTF-8" standalone="no"?>
<!DOCTYPE svg PUBLIC "-//W3C//DTD SVG 1.1//EN"
 "http://www.w3.org/Graphics/SVG/1.1/DTD/svg11.dtd">
<!-- Generated by graphviz version 2.43.0 (0)
 -->
<!-- Title: src/compiler/expr.cpp Pages: 1 -->
<svg width="796pt" height="192pt"
 viewBox="0.00 0.00 795.50 192.00" xmlns="http://www.w3.org/2000/svg" xmlns:xlink="http://www.w3.org/1999/xlink">
<g id="graph0" class="graph" transform="scale(1 1) rotate(0) translate(4 188)">
<title>src/compiler/expr.cpp</title>
<!-- Node1 -->
<g id="Node000001" class="node">
<title>Node1</title>
<g id="a_Node000001"><a xlink:title=" ">
<polygon fill="#999999" stroke="#666666" points="413,-184 292,-184 292,-165 413,-165 413,-184"/>
<text text-anchor="middle" x="352.5" y="-172" font-family="Helvetica,sans-Serif" font-size="10.00">src/compiler/expr.cpp</text>
</a>
</g>
</g>
<!-- Node2 -->
<g id="Node000002" class="node">
<title>Node2</title>
<g id="a_Node000002"><a xlink:href="compiler_8hpp.html" target="_top" xlink:title=" ">
<polygon fill="white" stroke="#666666" points="347.5,-129 267.5,-129 267.5,-110 347.5,-110 347.5,-129"/>
<text text-anchor="middle" x="307.5" y="-117" font-family="Helvetica,sans-Serif" font-size="10.00">compiler.hpp</text>
</a>
</g>
</g>
<!-- Node1&#45;&gt;Node2 -->
<g id="edge1_Node000001_Node000002" class="edge">
<title>Node1&#45;&gt;Node2</title>
<g id="a_edge1_Node000001_Node000002"><a xlink:title=" ">
<path fill="none" stroke="#63b8ff" d="M345.07,-164.75C338.65,-157.18 329.19,-146.05 321.38,-136.84"/>
<polygon fill="#63b8ff" stroke="#63b8ff" points="323.93,-134.45 314.79,-129.09 318.6,-138.98 323.93,-134.45"/>
</a>
</g>
</g>
<!-- Node15 -->
<g id="Node000015" class="node">
<title>Node15</title>
<g id="a_Node000015"><a xlink:title=" ">
<polygon fill="#e0e0e0" stroke="#999999" points="431,-129 366,-129 366,-110 431,-110 431,-129"/>
<text text-anchor="middle" x="398.5" y="-117" font-family="Helvetica,sans-Serif" font-size="10.00">stdexcept</text>
</a>
</g>
</g>
<!-- Node1&#45;&gt;Node15 -->
<g id="edge22_Node000001_Node000015" class="edge">
<title>Node1&#45;&gt;Node15</title>
<g id="a_edge22_Node000001_Node000015"><a xlink:title=" ">
<path fill="none" stroke="#63b8ff" d="M360.1,-164.75C366.66,-157.18 376.32,-146.05 384.31,-136.84"/>
<polygon fill="#63b8ff" stroke="#63b8ff" points="387.13,-138.94 391.05,-129.09 381.85,-134.35 387.13,-138.94"/>
</a>
</g>
</g>
<!-- Node3 -->
<g id="Node000003" class="node">
<title>Node3</title>
<g id="a_Node000003"><a xlink:href="bytecode_8hpp.html" target="_top" xlink:title=" ">
<polygon fill="white" stroke="#666666" points="152,-74 69,-74 69,-55 152,-55 152,-74"/>
<text text-anchor="middle" x="110.5" y="-62" font-family="Helvetica,sans-Serif" font-size="10.00">bytecode.hpp</text>
</a>
</g>
</g>
<!-- Node2&#45;&gt;Node3 -->
<g id="edge2_Node000002_Node000003" class="edge">
<title>Node2&#45;&gt;Node3</title>
<g id="a_edge2_Node000002_Node000003"><a xlink:title=" ">
<path fill="none" stroke="#63b8ff" d="M275.85,-109.98C242.34,-100.97 189.3,-86.7 152.36,-76.76"/>
<polygon fill="#63b8ff" stroke="#63b8ff" points="152.97,-73.3 142.4,-74.08 151.15,-80.06 152.97,-73.3"/>
</a>
</g>
</g>
<!-- Node4 -->
<g id="Node000004" class="node">
<title>Node4</title>
<g id="a_Node000004"><a xlink:title=" ">
<polygon fill="#e0e0e0" stroke="#999999" points="135.5,-19 85.5,-19 85.5,0 135.5,0 135.5,-19"/>
<text text-anchor="middle" x="110.5" y="-7" font-family="Helvetica,sans-Serif" font-size="10.00">cstdint</text>
</a>
</g>
</g>
<!-- Node2&#45;&gt;Node4 -->
<g id="edge16_Node000002_Node000004" class="edge">
<title>Node2&#45;&gt;Node4</title>
<g id="a_edge16_Node000002_Node000004"><a xlink:title=" ">
<path fill="none" stroke="#63b8ff" d="M267.36,-117.31C204.05,-114.5 85.53,-105.12 59.5,-74 45.42,-57.17 67.16,-37.4 86.47,-24.45"/>
<polygon fill="#63b8ff" stroke="#63b8ff" points="88.46,-27.33 95.03,-19.01 84.71,-21.42 88.46,-27.33"/>
</a>
</g>
</g>
<!-- Node6 -->
<g id="Node000006" class="node">
<title>Node6</title>
<g id="a_Node000006"><a xlink:title=" ">
<polygon fill="#e0e0e0" stroke="#999999" points="285.5,-19 241.5,-19 241.5,0 285.5,0 285.5,-19"/>
<text text-anchor="middle" x="263.5" y="-7" font-family="Helvetica,sans-Serif" font-size="10.00">string</text>
</a>
</g>
</g>
<!-- Node2&#45;&gt;Node6 -->
<g id="edge18_Node000002_Node000006" class="edge">
<title>Node2&#45;&gt;Node6</title>
<g id="a_edge18_Node000002_Node000006"><a xlink:title=" ">
<path fill="none" stroke="#63b8ff" d="M301.93,-109.93C296.42,-101.17 288.04,-87.05 282.5,-74 276.31,-59.42 271.28,-42.15 267.96,-29.31"/>
<polygon fill="#63b8ff" stroke="#63b8ff" points="271.29,-28.21 265.49,-19.34 264.5,-29.89 271.29,-28.21"/>
</a>
</g>
</g>
<!-- Node7 -->
<g id="Node000007" class="node">
<title>Node7</title>
<g id="a_Node000007"><a xlink:title=" ">
<polygon fill="#e0e0e0" stroke="#999999" points="47,-19 0,-19 0,0 47,0 47,-19"/>
<text text-anchor="middle" x="23.5" y="-7" font-family="Helvetica,sans-Serif" font-size="10.00">vector</text>
</a>
</g>
</g>
<!-- Node2&#45;&gt;Node7 -->
<g id="edge20_Node000002_Node000007" class="edge">
<title>Node2&#45;&gt;Node7</title>
<g id="a_edge20_Node000002_Node000007"><a xlink:title=" ">
<path fill="none" stroke="#63b8ff" d="M267.45,-116.1C204.07,-111.56 84.46,-99.78 51.5,-74 37.43,-63 30.27,-43.45 26.73,-28.94"/>
<polygon fill="#63b8ff" stroke="#63b8ff" points="30.14,-28.13 24.68,-19.05 23.28,-29.55 30.14,-28.13"/>
</a>
</g>
</g>
<!-- Node8 -->
<g id="Node000008" class="node">
<title>Node8</title>
<g id="a_Node000008"><a xlink:href="essentials_8hpp.html" target="_top" xlink:title=" ">
<polygon fill="white" stroke="#666666" points="517,-74 430,-74 430,-55 517,-55 517,-74"/>
<text text-anchor="middle" x="473.5" y="-62" font-family="Helvetica,sans-Serif" font-size="10.00">essentials.hpp</text>
</a>
</g>
</g>
<!-- Node2&#45;&gt;Node8 -->
<g id="edge7_Node000002_Node000008" class="edge">
<title>Node2&#45;&gt;Node8</title>
<g id="a_edge7_Node000002_Node000008"><a xlink:title=" ">
<path fill="none" stroke="#63b8ff" d="M334.17,-109.98C362.04,-101.09 405.95,-87.07 437.02,-77.15"/>
<polygon fill="#63b8ff" stroke="#63b8ff" points="438.16,-80.46 446.62,-74.08 436.03,-73.79 438.16,-80.46"/>
</a>
</g>
</g>
<!-- Node10 -->
<g id="Node000010" class="node">
<title>Node10</title>
<g id="a_Node000010"><a xlink:href="params_8hpp.html" target="_top" xlink:title=" ">
<polygon fill="white" stroke="#666666" points="411.5,-74 291.5,-74 291.5,-55 411.5,-55 411.5,-74"/>
<text text-anchor="middle" x="351.5" y="-62" font-family="Helvetica,sans-Serif" font-size="10.00">compiler/params.hpp</text>
</a>
</g>
</g>
<!-- Node2&#45;&gt;Node10 -->
<g id="edge10_Node000002_Node000010" class="edge">
<title>Node2&#45;&gt;Node10</title>
<g id="a_edge10_Node000002_Node000010"><a xlink:title=" ">
<path fill="none" stroke="#63b8ff" d="M314.77,-109.75C321.04,-102.18 330.29,-91.05 337.93,-81.84"/>
<polygon fill="#63b8ff" stroke="#63b8ff" points="340.67,-84.02 344.37,-74.09 335.29,-79.55 340.67,-84.02"/>
</a>
</g>
</g>
<!-- Node11 -->
<g id="Node000011" class="node">
<title>Node11</title>
<g id="a_Node000011"><a xlink:href="types_8hpp.html" target="_top" xlink:title=" ">
<polygon fill="white" stroke="#666666" points="235,-74 170,-74 170,-55 235,-55 235,-74"/>
<text text-anchor="middle" x="202.5" y="-62" font-family="Helvetica,sans-Serif" font-size="10.00">types.hpp</text>
</a>
</g>
</g>
<!-- Node2&#45;&gt;Node11 -->
<g id="edge12_Node000002_Node000011" class="edge">
<title>Node2&#45;&gt;Node11</title>
<g id="a_edge12_Node000002_Node000011"><a xlink:title=" ">
<path fill="none" stroke="#63b8ff" d="M290.63,-109.98C273.89,-101.54 248,-88.47 228.61,-78.68"/>
<polygon fill="#63b8ff" stroke="#63b8ff" points="230.18,-75.55 219.68,-74.17 227.03,-81.8 230.18,-75.55"/>
</a>
</g>
</g>
<!-- Node12 -->
<g id="Node000012" class="node">
<title>Node12</title>
<g id="a_Node000012"><a xlink:title=" ">
<polygon fill="#e0e0e0" stroke="#999999" points="600,-74 535,-74 535,-55 600,-55 600,-74"/>
<text text-anchor="middle" x="567.5" y="-62" font-family="Helvetica,sans-Serif" font-size="10.00">exception</text>
</a>
</g>
</g>
<!-- Node2&#45;&gt;Node12 -->
<g id="edge17_Node000002_Node000012" class="edge">
<title>Node2&#45;&gt;Node12</title>
<g id="a_edge17_Node000002_Node000012"><a xlink:title=" ">
<path fill="none" stroke="#63b8ff" d="M347.87,-110.35C389.76,-101.87 457.45,-88.16 524.88,-74.33"/>
<polygon fill="#63b8ff" stroke="#63b8ff" points="525.74,-77.72 534.83,-72.29 524.33,-70.87 525.74,-77.72"/>
</a>
</g>
</g>
<!-- Node13 -->
<g id="Node000013" class="node">
<title>Node13</title>
<g id="a_Node000013"><a xlink:title=" ">
<polygon fill="#e0e0e0" stroke="#999999" points="711,-74 618,-74 618,-55 711,-55 711,-74"/>
<text text-anchor="middle" x="664.5" y="-62" font-family="Helvetica,sans-Serif" font-size="10.00">unordered_map</text>
</a>
</g>
</g>
<!-- Node2&#45;&gt;Node13 -->
<g id="edge19_Node000002_Node000013" class="edge">
<title>Node2&#45;&gt;Node13</title>
<g id="a_edge19_Node000002_Node000013"><a xlink:title=" ">
<path fill="none" stroke="#63b8ff" d="M347.6,-111.59C350.95,-111.04 354.28,-110.5 357.5,-110 466.11,-93.01 495.92,-90.76 607.98,-74.21"/>
<polygon fill="#63b8ff" stroke="#63b8ff" points="608.62,-77.65 617.99,-72.73 607.59,-70.73 608.62,-77.65"/>
</a>
</g>
</g>
<!-- Node14 -->
<g id="Node000014" class="node">
<title>Node14</title>
<g id="a_Node000014"><a xlink:title=" ">
<polygon fill="#e0e0e0" stroke="#999999" points="787.5,-74 729.5,-74 729.5,-55 787.5,-55 787.5,-74"/>
<text text-anchor="middle" x="758.5" y="-62" font-family="Helvetica,sans-Serif" font-size="10.00">memory</text>
</a>
</g>
</g>
<!-- Node2&#45;&gt;Node14 -->
<g id="edge21_Node000002_Node000014" class="edge">
<title>Node2&#45;&gt;Node14</title>
<g id="a_edge21_Node000002_Node000014"><a xlink:title=" ">
<path fill="none" stroke="#63b8ff" d="M347.58,-111.43C350.93,-110.92 354.27,-110.43 357.5,-110 514.88,-88.84 558.65,-99.29 718.89,-74.07"/>
<polygon fill="#63b8ff" stroke="#63b8ff" points="719.79,-77.48 729.11,-72.44 718.68,-70.56 719.79,-77.48"/>
</a>
</g>
</g>
<!-- Node3&#45;&gt;Node4 -->
<g id="edge3_Node000003_Node000004" class="edge">
<title>Node3&#45;&gt;Node4</title>
<g id="a_edge3_Node000003_Node000004"><a xlink:title=" ">
<path fill="none" stroke="#63b8ff" d="M110.5,-54.75C110.5,-47.8 110.5,-37.85 110.5,-29.13"/>
<polygon fill="#63b8ff" stroke="#63b8ff" points="114,-29.09 110.5,-19.09 107,-29.09 114,-29.09"/>
</a>
</g>
</g>
<!-- Node5 -->
<g id="Node000005" class="node">
<title>Node5</title>
<g id="a_Node000005"><a xlink:title=" ">
<polygon fill="#e0e0e0" stroke="#999999" points="215,-19 162,-19 162,0 215,0 215,-19"/>
<text text-anchor="middle" x="188.5" y="-7" font-family="Helvetica,sans-Serif" font-size="10.00">cstddef</text>
</a>
</g>
</g>
<!-- Node3&#45;&gt;Node5 -->
<g id="edge4_Node000003_Node000005" class="edge">
<title>Node3&#45;&gt;Node5</title>
<g id="a_edge4_Node000003_Node000005"><a xlink:title=" ">
<path fill="none" stroke="#63b8ff" d="M123.03,-54.98C134.9,-46.92 152.96,-34.65 167.11,-25.03"/>
<polygon fill="#63b8ff" stroke="#63b8ff" points="169.44,-27.69 175.74,-19.17 165.5,-21.9 169.44,-27.69"/>
</a>
</g>
</g>
<!-- Node3&#45;&gt;Node6 -->
<g id="edge5_Node000003_Node000006" class="edge">
<title>Node3&#45;&gt;Node6</title>
<g id="a_edge5_Node000003_Node000006"><a xlink:title=" ">
<path fill="none" stroke="#63b8ff" d="M135.08,-54.98C161.38,-45.88 203.17,-31.4 231.89,-21.45"/>
<polygon fill="#63b8ff" stroke="#63b8ff" points="233.16,-24.71 241.46,-18.13 230.87,-18.1 233.16,-24.71"/>
</a>
</g>
</g>
<!-- Node3&#45;&gt;Node7 -->
<g id="edge6_Node000003_Node000007" class="edge">
<title>Node3&#45;&gt;Node7</title>
<g id="a_edge6_Node000003_Node000007"><a xlink:title=" ">
<path fill="none" stroke="#63b8ff" d="M96.52,-54.98C83.03,-46.77 62.37,-34.18 46.46,-24.49"/>
<polygon fill="#63b8ff" stroke="#63b8ff" points="48.09,-21.38 37.73,-19.17 44.45,-27.36 48.09,-21.38"/>
</a>
</g>
</g>
<!-- Node8&#45;&gt;Node6 -->
<g id="edge9_Node000008_Node000006" class="edge">
<title>Node8&#45;&gt;Node6</title>
<g id="a_edge9_Node000008_Node000006"><a xlink:title=" ">
<path fill="none" stroke="#63b8ff" d="M439.76,-54.98C399.95,-44.94 334.28,-28.36 295.33,-18.53"/>
<polygon fill="#63b8ff" stroke="#63b8ff" points="296.11,-15.12 285.56,-16.07 294.4,-21.91 296.11,-15.12"/>
</a>
</g>
</g>
<!-- Node9 -->
<g id="Node000009" class="node">
<title>Node9</title>
<g id="a_Node000009"><a xlink:title=" ">
<polygon fill="#e0e0e0" stroke="#999999" points="499,-19 448,-19 448,0 499,0 499,-19"/>
<text text-anchor="middle" x="473.5" y="-7" font-family="Helvetica,sans-Serif" font-size="10.00">errno.h</text>
</a>
</g>
</g>
<!-- Node8&#45;&gt;Node9 -->
<g id="edge8_Node000008_Node000009" class="edge">
<title>Node8&#45;&gt;Node9</title>
<g id="a_edge8_Node000008_Node000009"><a xlink:title=" ">
<path fill="none" stroke="#63b8ff" d="M473.5,-54.75C473.5,-47.8 473.5,-37.85 473.5,-29.13"/>
<polygon fill="#63b8ff" stroke="#63b8ff" points="477,-29.09 473.5,-19.09 470,-29.09 477,-29.09"/>
</a>
</g>
</g>
<!-- Node10&#45;&gt;Node6 -->
<g id="edge11_Node000010_Node000006" class="edge">
<title>Node10&#45;&gt;Node6</title>
<g id="a_edge11_Node000010_Node000006"><a xlink:title=" ">
<path fill="none" stroke="#63b8ff" d="M337.36,-54.98C323.71,-46.77 302.81,-34.18 286.72,-24.49"/>
<polygon fill="#63b8ff" stroke="#63b8ff" points="288.27,-21.33 277.9,-19.17 284.66,-27.33 288.27,-21.33"/>
</a>
</g>
</g>
<!-- Node11&#45;&gt;Node4 -->
<g id="edge14_Node000011_Node000004" class="edge">
<title>Node11&#45;&gt;Node4</title>
<g id="a_edge14_Node000011_Node000004"><a xlink:title=" ">
<path fill="none" stroke="#63b8ff" d="M187.72,-54.98C173.32,-46.69 151.19,-33.94 134.31,-24.22"/>
<polygon fill="#63b8ff" stroke="#63b8ff" points="135.96,-21.13 125.55,-19.17 132.47,-27.19 135.96,-21.13"/>
</a>
</g>
</g>
<!-- Node11&#45;&gt;Node5 -->
<g id="edge13_Node000011_Node000005" class="edge">
<title>Node11&#45;&gt;Node5</title>
<g id="a_edge13_Node000011_Node000005"><a xlink:title=" ">
<path fill="none" stroke="#63b8ff" d="M200.19,-54.75C198.33,-47.72 195.66,-37.62 193.35,-28.84"/>
<polygon fill="#63b8ff" stroke="#63b8ff" points="196.71,-27.86 190.77,-19.09 189.94,-29.65 196.71,-27.86"/>
</a>
</g>
</g>
<!-- Node11&#45;&gt;Node6 -->
<g id="edge15_Node000011_Node000006" class="edge">
<title>Node11&#45;&gt;Node6</title>
<g id="a_edge15_Node000011_Node000006"><a xlink:title=" ">
<path fill="none" stroke="#63b8ff" d="M212.3,-54.98C221.32,-47.15 234.91,-35.34 245.82,-25.86"/>
<polygon fill="#63b8ff" stroke="#63b8ff" points="248.27,-28.37 253.52,-19.17 243.68,-23.09 248.27,-28.37"/>
</a>
</g>
</g>
</g>
</svg>
