<?xml version="1.0" encoding="UTF-8" standalone="no"?>
<!DOCTYPE svg PUBLIC "-//W3C//DTD SVG 1.1//EN"
 "http://www.w3.org/Graphics/SVG/1.1/DTD/svg11.dtd">
<!-- Generated by graphviz version 2.43.0 (0)
 -->
<!-- Title: src/compiler/functions.cpp Pages: 1 -->
<svg width="817pt" height="192pt"
 viewBox="0.00 0.00 817.00 192.00" xmlns="http://www.w3.org/2000/svg" xmlns:xlink="http://www.w3.org/1999/xlink">
<g id="graph0" class="graph" transform="scale(1 1) rotate(0) translate(4 188)">
<title>src/compiler/functions.cpp</title>
<!-- Node1 -->
<g id="Node000001" class="node">
<title>Node1</title>
<g id="a_Node000001"><a xlink:title=" ">
<polygon fill="#999999" stroke="#666666" points="349,-184 204,-184 204,-165 349,-165 349,-184"/>
<text text-anchor="middle" x="276.5" y="-172" font-family="Helvetica,sans-Serif" font-size="10.00">src/compiler/functions.cpp</text>
</a>
</g>
</g>
<!-- Node2 -->
<g id="Node000002" class="node">
<title>Node2</title>
<g id="a_Node000002"><a xlink:href="bytecode_8hpp.html" target="_top" xlink:title=" ">
<polygon fill="white" stroke="#666666" points="135,-74 52,-74 52,-55 135,-55 135,-74"/>
<text text-anchor="middle" x="93.5" y="-62" font-family="Helvetica,sans-Serif" font-size="10.00">bytecode.hpp</text>
</a>
</g>
</g>
<!-- Node1&#45;&gt;Node2 -->
<g id="edge1_Node000001_Node000002" class="edge">
<title>Node1&#45;&gt;Node2</title>
<g id="a_edge1_Node000001_Node000002"><a xlink:title=" ">
<path fill="none" stroke="#63b8ff" d="M258.76,-164.98C241.17,-156.38 213.58,-142.48 190.5,-129 163.49,-113.23 133.53,-93.21 114.16,-79.91"/>
<polygon fill="#63b8ff" stroke="#63b8ff" points="116.02,-76.94 105.8,-74.14 112.04,-82.7 116.02,-76.94"/>
</a>
</g>
</g>
<!-- Node6 -->
<g id="Node000006" class="node">
<title>Node6</title>
<g id="a_Node000006"><a xlink:title=" ">
<polygon fill="#e0e0e0" stroke="#999999" points="47,-19 0,-19 0,0 47,0 47,-19"/>
<text text-anchor="middle" x="23.5" y="-7" font-family="Helvetica,sans-Serif" font-size="10.00">vector</text>
</a>
</g>
</g>
<!-- Node1&#45;&gt;Node6 -->
<g id="edge27_Node000001_Node000006" class="edge">
<title>Node1&#45;&gt;Node6</title>
<g id="a_edge27_Node000001_Node000006"><a xlink:title=" ">
<path fill="none" stroke="#63b8ff" d="M203.93,-165.67C145.84,-155.22 67.67,-130.83 27.5,-74 18.43,-61.17 18.2,-43.01 19.79,-29.39"/>
<polygon fill="#63b8ff" stroke="#63b8ff" points="23.29,-29.66 21.4,-19.24 16.38,-28.56 23.29,-29.66"/>
</a>
</g>
</g>
<!-- Node7 -->
<g id="Node000007" class="node">
<title>Node7</title>
<g id="a_Node000007"><a xlink:href="compiler_8hpp.html" target="_top" xlink:title=" ">
<polygon fill="white" stroke="#666666" points="339,-129 214,-129 214,-110 339,-110 339,-129"/>
<text text-anchor="middle" x="276.5" y="-117" font-family="Helvetica,sans-Serif" font-size="10.00">compiler/compiler.hpp</text>
</a>
</g>
</g>
<!-- Node1&#45;&gt;Node7 -->
<g id="edge6_Node000001_Node000007" class="edge">
<title>Node1&#45;&gt;Node7</title>
<g id="a_edge6_Node000001_Node000007"><a xlink:title=" ">
<path fill="none" stroke="#63b8ff" d="M276.5,-164.75C276.5,-157.8 276.5,-147.85 276.5,-139.13"/>
<polygon fill="#63b8ff" stroke="#63b8ff" points="280,-139.09 276.5,-129.09 273,-139.09 280,-139.09"/>
</a>
</g>
</g>
<!-- Node11 -->
<g id="Node000011" class="node">
<title>Node11</title>
<g id="a_Node000011"><a xlink:href="types_8hpp.html" target="_top" xlink:title=" ">
<polygon fill="white" stroke="#666666" points="218,-74 153,-74 153,-55 218,-55 218,-74"/>
<text text-anchor="middle" x="185.5" y="-62" font-family="Helvetica,sans-Serif" font-size="10.00">types.hpp</text>
</a>
</g>
</g>
<!-- Node1&#45;&gt;Node11 -->
<g id="edge24_Node000001_Node000011" class="edge">
<title>Node1&#45;&gt;Node11</title>
<g id="a_edge24_Node000001_Node000011"><a xlink:title=" ">
<path fill="none" stroke="#63b8ff" d="M254.98,-164.92C239.17,-157.58 218.31,-145.57 205.5,-129 195.45,-116 190.39,-97.85 187.88,-84.28"/>
<polygon fill="#63b8ff" stroke="#63b8ff" points="191.31,-83.53 186.32,-74.18 184.39,-84.6 191.31,-83.53"/>
</a>
</g>
</g>
<!-- Node15 -->
<g id="Node000015" class="node">
<title>Node15</title>
<g id="a_Node000015"><a xlink:title=" ">
<polygon fill="#e0e0e0" stroke="#999999" points="454,-129 357,-129 357,-110 454,-110 454,-129"/>
<text text-anchor="middle" x="405.5" y="-117" font-family="Helvetica,sans-Serif" font-size="10.00">compiler/errno.h</text>
</a>
</g>
</g>
<!-- Node1&#45;&gt;Node15 -->
<g id="edge23_Node000001_Node000015" class="edge">
<title>Node1&#45;&gt;Node15</title>
<g id="a_edge23_Node000001_Node000015"><a xlink:title=" ">
<path fill="none" stroke="#63b8ff" d="M297.23,-164.98C318.26,-156.34 351.05,-142.87 375.04,-133.02"/>
<polygon fill="#63b8ff" stroke="#63b8ff" points="376.48,-136.21 384.4,-129.17 373.82,-129.73 376.48,-136.21"/>
</a>
</g>
</g>
<!-- Node16 -->
<g id="Node000016" class="node">
<title>Node16</title>
<g id="a_Node000016"><a xlink:title=" ">
<polygon fill="#e0e0e0" stroke="#999999" points="532.5,-129 472.5,-129 472.5,-110 532.5,-110 532.5,-129"/>
<text text-anchor="middle" x="502.5" y="-117" font-family="Helvetica,sans-Serif" font-size="10.00">iostream</text>
</a>
</g>
</g>
<!-- Node1&#45;&gt;Node16 -->
<g id="edge25_Node000001_Node000016" class="edge">
<title>Node1&#45;&gt;Node16</title>
<g id="a_edge25_Node000001_Node000016"><a xlink:title=" ">
<path fill="none" stroke="#63b8ff" d="M312.81,-164.98C353.73,-155.39 420.06,-139.83 462.45,-129.89"/>
<polygon fill="#63b8ff" stroke="#63b8ff" points="463.49,-133.24 472.43,-127.55 461.89,-126.43 463.49,-133.24"/>
</a>
</g>
</g>
<!-- Node17 -->
<g id="Node000017" class="node">
<title>Node17</title>
<g id="a_Node000017"><a xlink:title=" ">
<polygon fill="#e0e0e0" stroke="#999999" points="616,-129 551,-129 551,-110 616,-110 616,-129"/>
<text text-anchor="middle" x="583.5" y="-117" font-family="Helvetica,sans-Serif" font-size="10.00">stdexcept</text>
</a>
</g>
</g>
<!-- Node1&#45;&gt;Node17 -->
<g id="edge26_Node000001_Node000017" class="edge">
<title>Node1&#45;&gt;Node17</title>
<g id="a_edge26_Node000001_Node000017"><a xlink:title=" ">
<path fill="none" stroke="#63b8ff" d="M330.39,-164.99C381.8,-156.75 461.68,-143.63 540.81,-129.07"/>
<polygon fill="#63b8ff" stroke="#63b8ff" points="541.76,-132.46 550.96,-127.2 540.49,-125.57 541.76,-132.46"/>
</a>
</g>
</g>
<!-- Node3 -->
<g id="Node000003" class="node">
<title>Node3</title>
<g id="a_Node000003"><a xlink:title=" ">
<polygon fill="#e0e0e0" stroke="#999999" points="210.5,-19 160.5,-19 160.5,0 210.5,0 210.5,-19"/>
<text text-anchor="middle" x="185.5" y="-7" font-family="Helvetica,sans-Serif" font-size="10.00">cstdint</text>
</a>
</g>
</g>
<!-- Node2&#45;&gt;Node3 -->
<g id="edge2_Node000002_Node000003" class="edge">
<title>Node2&#45;&gt;Node3</title>
<g id="a_edge2_Node000002_Node000003"><a xlink:title=" ">
<path fill="none" stroke="#63b8ff" d="M108.28,-54.98C122.68,-46.69 144.81,-33.94 161.69,-24.22"/>
<polygon fill="#63b8ff" stroke="#63b8ff" points="163.53,-27.19 170.45,-19.17 160.04,-21.13 163.53,-27.19"/>
</a>
</g>
</g>
<!-- Node4 -->
<g id="Node000004" class="node">
<title>Node4</title>
<g id="a_Node000004"><a xlink:title=" ">
<polygon fill="#e0e0e0" stroke="#999999" points="131,-19 78,-19 78,0 131,0 131,-19"/>
<text text-anchor="middle" x="104.5" y="-7" font-family="Helvetica,sans-Serif" font-size="10.00">cstddef</text>
</a>
</g>
</g>
<!-- Node2&#45;&gt;Node4 -->
<g id="edge3_Node000002_Node000004" class="edge">
<title>Node2&#45;&gt;Node4</title>
<g id="a_edge3_Node000002_Node000004"><a xlink:title=" ">
<path fill="none" stroke="#63b8ff" d="M95.32,-54.75C96.76,-47.8 98.82,-37.85 100.63,-29.13"/>
<polygon fill="#63b8ff" stroke="#63b8ff" points="104.11,-29.59 102.72,-19.09 97.26,-28.17 104.11,-29.59"/>
</a>
</g>
</g>
<!-- Node5 -->
<g id="Node000005" class="node">
<title>Node5</title>
<g id="a_Node000005"><a xlink:title=" ">
<polygon fill="#e0e0e0" stroke="#999999" points="627.5,-19 583.5,-19 583.5,0 627.5,0 627.5,-19"/>
<text text-anchor="middle" x="605.5" y="-7" font-family="Helvetica,sans-Serif" font-size="10.00">string</text>
</a>
</g>
</g>
<!-- Node2&#45;&gt;Node5 -->
<g id="edge4_Node000002_Node000005" class="edge">
<title>Node2&#45;&gt;Node5</title>
<g id="a_edge4_Node000002_Node000005"><a xlink:title=" ">
<path fill="none" stroke="#63b8ff" d="M135.21,-56.31C138.35,-55.84 141.47,-55.4 144.5,-55 304.83,-33.93 497.76,-18.5 573.12,-12.85"/>
<polygon fill="#63b8ff" stroke="#63b8ff" points="573.65,-16.32 583.37,-12.09 573.14,-9.34 573.65,-16.32"/>
</a>
</g>
</g>
<!-- Node2&#45;&gt;Node6 -->
<g id="edge5_Node000002_Node000006" class="edge">
<title>Node2&#45;&gt;Node6</title>
<g id="a_edge5_Node000002_Node000006"><a xlink:title=" ">
<path fill="none" stroke="#63b8ff" d="M82.25,-54.98C71.7,-47 55.7,-34.88 43.06,-25.31"/>
<polygon fill="#63b8ff" stroke="#63b8ff" points="45.04,-22.42 34.95,-19.17 40.81,-28 45.04,-22.42"/>
</a>
</g>
</g>
<!-- Node7&#45;&gt;Node2 -->
<g id="edge7_Node000007_Node000002" class="edge">
<title>Node7&#45;&gt;Node2</title>
<g id="a_edge7_Node000007_Node000002"><a xlink:title=" ">
<path fill="none" stroke="#63b8ff" d="M247.1,-109.98C216.11,-101.01 167.12,-86.82 132.83,-76.89"/>
<polygon fill="#63b8ff" stroke="#63b8ff" points="133.71,-73.5 123.13,-74.08 131.76,-80.23 133.71,-73.5"/>
</a>
</g>
</g>
<!-- Node7&#45;&gt;Node3 -->
<g id="edge17_Node000007_Node000003" class="edge">
<title>Node7&#45;&gt;Node3</title>
<g id="a_edge17_Node000007_Node000003"><a xlink:title=" ">
<path fill="none" stroke="#63b8ff" d="M270.11,-109.66C261,-97.18 243.6,-73.85 227.5,-55 219.13,-45.21 209.27,-34.71 201.21,-26.37"/>
<polygon fill="#63b8ff" stroke="#63b8ff" points="203.62,-23.83 194.13,-19.13 198.62,-28.73 203.62,-23.83"/>
</a>
</g>
</g>
<!-- Node7&#45;&gt;Node5 -->
<g id="edge19_Node000007_Node000005" class="edge">
<title>Node7&#45;&gt;Node5</title>
<g id="a_edge19_Node000007_Node000005"><a xlink:title=" ">
<path fill="none" stroke="#63b8ff" d="M339.33,-111.05C342.43,-110.7 345.5,-110.34 348.5,-110 420.91,-101.73 625.87,-128.29 674.5,-74 691.43,-55.1 662.17,-35.68 636.69,-23.37"/>
<polygon fill="#63b8ff" stroke="#63b8ff" points="638.11,-20.17 627.56,-19.17 635.18,-26.53 638.11,-20.17"/>
</a>
</g>
</g>
<!-- Node7&#45;&gt;Node6 -->
<g id="edge21_Node000007_Node000006" class="edge">
<title>Node7&#45;&gt;Node6</title>
<g id="a_edge21_Node000007_Node000006"><a xlink:title=" ">
<path fill="none" stroke="#63b8ff" d="M213.96,-113.88C153.4,-108.15 67.22,-96.3 42.5,-74 30.09,-62.81 25.65,-43.89 24.13,-29.6"/>
<polygon fill="#63b8ff" stroke="#63b8ff" points="27.6,-29.12 23.43,-19.38 20.62,-29.59 27.6,-29.12"/>
</a>
</g>
</g>
<!-- Node8 -->
<g id="Node000008" class="node">
<title>Node8</title>
<g id="a_Node000008"><a xlink:href="essentials_8hpp.html" target="_top" xlink:title=" ">
<polygon fill="white" stroke="#666666" points="809,-74 722,-74 722,-55 809,-55 809,-74"/>
<text text-anchor="middle" x="765.5" y="-62" font-family="Helvetica,sans-Serif" font-size="10.00">essentials.hpp</text>
</a>
</g>
</g>
<!-- Node7&#45;&gt;Node8 -->
<g id="edge8_Node000007_Node000008" class="edge">
<title>Node7&#45;&gt;Node8</title>
<g id="a_edge8_Node000007_Node000008"><a xlink:title=" ">
<path fill="none" stroke="#63b8ff" d="M339.32,-111.02C342.42,-110.67 345.5,-110.33 348.5,-110 507.91,-92.6 548.35,-93.63 707.5,-74 708.95,-73.82 710.42,-73.64 711.91,-73.44"/>
<polygon fill="#63b8ff" stroke="#63b8ff" points="712.38,-76.91 721.82,-72.12 711.45,-69.97 712.38,-76.91"/>
</a>
</g>
</g>
<!-- Node10 -->
<g id="Node000010" class="node">
<title>Node10</title>
<g id="a_Node000010"><a xlink:href="params_8hpp.html" target="_top" xlink:title=" ">
<polygon fill="white" stroke="#666666" points="665.5,-74 545.5,-74 545.5,-55 665.5,-55 665.5,-74"/>
<text text-anchor="middle" x="605.5" y="-62" font-family="Helvetica,sans-Serif" font-size="10.00">compiler/params.hpp</text>
</a>
</g>
</g>
<!-- Node7&#45;&gt;Node10 -->
<g id="edge11_Node000007_Node000010" class="edge">
<title>Node7&#45;&gt;Node10</title>
<g id="a_edge11_Node000007_Node000010"><a xlink:title=" ">
<path fill="none" stroke="#63b8ff" d="M329.36,-109.98C387.43,-100.63 480.65,-85.61 542.48,-75.65"/>
<polygon fill="#63b8ff" stroke="#63b8ff" points="543.18,-79.08 552.5,-74.04 542.07,-72.17 543.18,-79.08"/>
</a>
</g>
</g>
<!-- Node7&#45;&gt;Node11 -->
<g id="edge13_Node000007_Node000011" class="edge">
<title>Node7&#45;&gt;Node11</title>
<g id="a_edge13_Node000007_Node000011"><a xlink:title=" ">
<path fill="none" stroke="#63b8ff" d="M261.88,-109.98C247.64,-101.69 225.75,-88.94 209.05,-79.22"/>
<polygon fill="#63b8ff" stroke="#63b8ff" points="210.79,-76.18 200.39,-74.17 207.27,-82.23 210.79,-76.18"/>
</a>
</g>
</g>
<!-- Node12 -->
<g id="Node000012" class="node">
<title>Node12</title>
<g id="a_Node000012"><a xlink:title=" ">
<polygon fill="#e0e0e0" stroke="#999999" points="340,-74 275,-74 275,-55 340,-55 340,-74"/>
<text text-anchor="middle" x="307.5" y="-62" font-family="Helvetica,sans-Serif" font-size="10.00">exception</text>
</a>
</g>
</g>
<!-- Node7&#45;&gt;Node12 -->
<g id="edge18_Node000007_Node000012" class="edge">
<title>Node7&#45;&gt;Node12</title>
<g id="a_edge18_Node000007_Node000012"><a xlink:title=" ">
<path fill="none" stroke="#63b8ff" d="M281.62,-109.75C285.86,-102.49 292.03,-91.95 297.28,-82.98"/>
<polygon fill="#63b8ff" stroke="#63b8ff" points="300.45,-84.49 302.48,-74.09 294.41,-80.95 300.45,-84.49"/>
</a>
</g>
</g>
<!-- Node13 -->
<g id="Node000013" class="node">
<title>Node13</title>
<g id="a_Node000013"><a xlink:title=" ">
<polygon fill="#e0e0e0" stroke="#999999" points="451,-74 358,-74 358,-55 451,-55 451,-74"/>
<text text-anchor="middle" x="404.5" y="-62" font-family="Helvetica,sans-Serif" font-size="10.00">unordered_map</text>
</a>
</g>
</g>
<!-- Node7&#45;&gt;Node13 -->
<g id="edge20_Node000007_Node000013" class="edge">
<title>Node7&#45;&gt;Node13</title>
<g id="a_edge20_Node000007_Node000013"><a xlink:title=" ">
<path fill="none" stroke="#63b8ff" d="M297.07,-109.98C317.93,-101.34 350.47,-87.87 374.27,-78.02"/>
<polygon fill="#63b8ff" stroke="#63b8ff" points="375.66,-81.23 383.56,-74.17 372.98,-74.76 375.66,-81.23"/>
</a>
</g>
</g>
<!-- Node14 -->
<g id="Node000014" class="node">
<title>Node14</title>
<g id="a_Node000014"><a xlink:title=" ">
<polygon fill="#e0e0e0" stroke="#999999" points="527.5,-74 469.5,-74 469.5,-55 527.5,-55 527.5,-74"/>
<text text-anchor="middle" x="498.5" y="-62" font-family="Helvetica,sans-Serif" font-size="10.00">memory</text>
</a>
</g>
</g>
<!-- Node7&#45;&gt;Node14 -->
<g id="edge22_Node000007_Node000014" class="edge">
<title>Node7&#45;&gt;Node14</title>
<g id="a_edge22_Node000007_Node000014"><a xlink:title=" ">
<path fill="none" stroke="#63b8ff" d="M312.17,-109.98C352.48,-100.36 417.88,-84.75 459.51,-74.81"/>
<polygon fill="#63b8ff" stroke="#63b8ff" points="460.39,-78.2 469.3,-72.47 458.76,-71.39 460.39,-78.2"/>
</a>
</g>
</g>
<!-- Node8&#45;&gt;Node5 -->
<g id="edge10_Node000008_Node000005" class="edge">
<title>Node8&#45;&gt;Node5</title>
<g id="a_edge10_Node000008_Node000005"><a xlink:title=" ">
<path fill="none" stroke="#63b8ff" d="M739.79,-54.98C711.86,-45.73 667.2,-30.94 637.13,-20.98"/>
<polygon fill="#63b8ff" stroke="#63b8ff" points="638.13,-17.62 627.54,-17.8 635.93,-24.27 638.13,-17.62"/>
</a>
</g>
</g>
<!-- Node9 -->
<g id="Node000009" class="node">
<title>Node9</title>
<g id="a_Node000009"><a xlink:title=" ">
<polygon fill="#e0e0e0" stroke="#999999" points="791,-19 740,-19 740,0 791,0 791,-19"/>
<text text-anchor="middle" x="765.5" y="-7" font-family="Helvetica,sans-Serif" font-size="10.00">errno.h</text>
</a>
</g>
</g>
<!-- Node8&#45;&gt;Node9 -->
<g id="edge9_Node000008_Node000009" class="edge">
<title>Node8&#45;&gt;Node9</title>
<g id="a_edge9_Node000008_Node000009"><a xlink:title=" ">
<path fill="none" stroke="#63b8ff" d="M765.5,-54.75C765.5,-47.8 765.5,-37.85 765.5,-29.13"/>
<polygon fill="#63b8ff" stroke="#63b8ff" points="769,-29.09 765.5,-19.09 762,-29.09 769,-29.09"/>
</a>
</g>
</g>
<!-- Node10&#45;&gt;Node5 -->
<g id="edge12_Node000010_Node000005" class="edge">
<title>Node10&#45;&gt;Node5</title>
<g id="a_edge12_Node000010_Node000005"><a xlink:title=" ">
<path fill="none" stroke="#63b8ff" d="M605.5,-54.75C605.5,-47.8 605.5,-37.85 605.5,-29.13"/>
<polygon fill="#63b8ff" stroke="#63b8ff" points="609,-29.09 605.5,-19.09 602,-29.09 609,-29.09"/>
</a>
</g>
</g>
<!-- Node11&#45;&gt;Node3 -->
<g id="edge15_Node000011_Node000003" class="edge">
<title>Node11&#45;&gt;Node3</title>
<g id="a_edge15_Node000011_Node000003"><a xlink:title=" ">
<path fill="none" stroke="#63b8ff" d="M185.5,-54.75C185.5,-47.8 185.5,-37.85 185.5,-29.13"/>
<polygon fill="#63b8ff" stroke="#63b8ff" points="189,-29.09 185.5,-19.09 182,-29.09 189,-29.09"/>
</a>
</g>
</g>
<!-- Node11&#45;&gt;Node4 -->
<g id="edge14_Node000011_Node000004" class="edge">
<title>Node11&#45;&gt;Node4</title>
<g id="a_edge14_Node000011_Node000004"><a xlink:title=" ">
<path fill="none" stroke="#63b8ff" d="M172.49,-54.98C160.04,-46.84 141.04,-34.41 126.29,-24.76"/>
<polygon fill="#63b8ff" stroke="#63b8ff" points="128.04,-21.72 117.75,-19.17 124.2,-27.57 128.04,-21.72"/>
</a>
</g>
</g>
<!-- Node11&#45;&gt;Node5 -->
<g id="edge16_Node000011_Node000005" class="edge">
<title>Node11&#45;&gt;Node5</title>
<g id="a_edge16_Node000011_Node000005"><a xlink:title=" ">
<path fill="none" stroke="#63b8ff" d="M218.11,-59.39C296.52,-49.49 494.94,-24.45 573.12,-14.59"/>
<polygon fill="#63b8ff" stroke="#63b8ff" points="573.85,-18.02 583.33,-13.3 572.97,-11.08 573.85,-18.02"/>
</a>
</g>
</g>
</g>
</svg>
