<?xml version="1.0" encoding="UTF-8" standalone="no"?>
<!DOCTYPE svg PUBLIC "-//W3C//DTD SVG 1.1//EN"
 "http://www.w3.org/Graphics/SVG/1.1/DTD/svg11.dtd">
<!-- Generated by graphviz version 2.43.0 (0)
 -->
<!-- Title: src/compiler/functions.cpp Pages: 1 -->
<svg width="989pt" height="192pt"
 viewBox="0.00 0.00 989.33 192.00" xmlns="http://www.w3.org/2000/svg" xmlns:xlink="http://www.w3.org/1999/xlink">
<g id="graph0" class="graph" transform="scale(1 1) rotate(0) translate(4 188)">
<title>src/compiler/functions.cpp</title>
<!-- Node1 -->
<g id="Node000001" class="node">
<title>Node1</title>
<g id="a_Node000001"><a xlink:title=" ">
<polygon fill="#999999" stroke="#666666" points="766.33,-184 621.33,-184 621.33,-165 766.33,-165 766.33,-184"/>
<text text-anchor="middle" x="693.83" y="-172" font-family="Helvetica,sans-Serif" font-size="10.00">src/compiler/functions.cpp</text>
</a>
</g>
</g>
<!-- Node2 -->
<g id="Node000002" class="node">
<title>Node2</title>
<g id="a_Node000002"><a xlink:href="bytecode_8hpp.html" target="_top" xlink:title=" ">
<polygon fill="white" stroke="#666666" points="180.33,-74 97.33,-74 97.33,-55 180.33,-55 180.33,-74"/>
<text text-anchor="middle" x="138.83" y="-62" font-family="Helvetica,sans-Serif" font-size="10.00">bytecode.hpp</text>
</a>
</g>
</g>
<!-- Node1&#45;&gt;Node2 -->
<g id="edge1_Node000001_Node000002" class="edge">
<title>Node1&#45;&gt;Node2</title>
<g id="a_edge1_Node000001_Node000002"><a xlink:title=" ">
<path fill="none" stroke="#63b8ff" d="M621.24,-167.85C550.41,-161.48 439.9,-149.29 345.83,-129 283.16,-115.48 212.12,-91.79 171.68,-77.48"/>
<polygon fill="#63b8ff" stroke="#63b8ff" points="172.67,-74.12 162.08,-74.06 170.32,-80.72 172.67,-74.12"/>
</a>
</g>
</g>
<!-- Node6 -->
<g id="Node000006" class="node">
<title>Node6</title>
<g id="a_Node000006"><a xlink:title=" ">
<polygon fill="#e0e0e0" stroke="#999999" points="679.33,-19 632.33,-19 632.33,0 679.33,0 679.33,-19"/>
<text text-anchor="middle" x="655.83" y="-7" font-family="Helvetica,sans-Serif" font-size="10.00">vector</text>
</a>
</g>
</g>
<!-- Node1&#45;&gt;Node6 -->
<g id="edge24_Node000001_Node000006" class="edge">
<title>Node1&#45;&gt;Node6</title>
<g id="a_edge24_Node000001_Node000006"><a xlink:title=" ">
<path fill="none" stroke="#63b8ff" d="M691.79,-164.74C685.83,-139.2 668.4,-64.43 660.2,-29.23"/>
<polygon fill="#63b8ff" stroke="#63b8ff" points="663.56,-28.25 657.88,-19.31 656.75,-29.84 663.56,-28.25"/>
</a>
</g>
</g>
<!-- Node7 -->
<g id="Node000007" class="node">
<title>Node7</title>
<g id="a_Node000007"><a xlink:href="compiler_8hpp.html" target="_top" xlink:title=" ">
<polygon fill="white" stroke="#666666" points="480.33,-129 355.33,-129 355.33,-110 480.33,-110 480.33,-129"/>
<text text-anchor="middle" x="417.83" y="-117" font-family="Helvetica,sans-Serif" font-size="10.00">compiler/compiler.hpp</text>
</a>
</g>
</g>
<!-- Node1&#45;&gt;Node7 -->
<g id="edge6_Node000001_Node000007" class="edge">
<title>Node1&#45;&gt;Node7</title>
<g id="a_edge6_Node000001_Node000007"><a xlink:title=" ">
<path fill="none" stroke="#63b8ff" d="M649.49,-164.98C601.34,-155.74 524.41,-140.97 472.54,-131.01"/>
<polygon fill="#63b8ff" stroke="#63b8ff" points="473,-127.53 462.52,-129.08 471.68,-134.41 473,-127.53"/>
</a>
</g>
</g>
<!-- Node9 -->
<g id="Node000009" class="node">
<title>Node9</title>
<g id="a_Node000009"><a xlink:href="types_8hpp.html" target="_top" xlink:title=" ">
<polygon fill="white" stroke="#666666" points="79.33,-74 14.33,-74 14.33,-55 79.33,-55 79.33,-74"/>
<text text-anchor="middle" x="46.83" y="-62" font-family="Helvetica,sans-Serif" font-size="10.00">types.hpp</text>
</a>
</g>
</g>
<!-- Node1&#45;&gt;Node9 -->
<g id="edge21_Node000001_Node000009" class="edge">
<title>Node1&#45;&gt;Node9</title>
<g id="a_edge21_Node000001_Node000009"><a xlink:title=" ">
<path fill="none" stroke="#63b8ff" d="M621.02,-169.54C536.65,-164.09 393.73,-152.2 272.83,-129 203.95,-115.78 125.55,-91.64 81.55,-77.23"/>
<polygon fill="#63b8ff" stroke="#63b8ff" points="82.51,-73.86 71.92,-74.05 80.32,-80.51 82.51,-73.86"/>
</a>
</g>
</g>
<!-- Node13 -->
<g id="Node000013" class="node">
<title>Node13</title>
<g id="a_Node000013"><a xlink:title=" ">
<polygon fill="#e0e0e0" stroke="#999999" points="819.33,-129 722.33,-129 722.33,-110 819.33,-110 819.33,-129"/>
<text text-anchor="middle" x="770.83" y="-117" font-family="Helvetica,sans-Serif" font-size="10.00">compiler/errno.h</text>
</a>
</g>
</g>
<!-- Node1&#45;&gt;Node13 -->
<g id="edge20_Node000001_Node000013" class="edge">
<title>Node1&#45;&gt;Node13</title>
<g id="a_edge20_Node000001_Node000013"><a xlink:title=" ">
<path fill="none" stroke="#63b8ff" d="M706.2,-164.98C717.92,-156.92 735.75,-144.65 749.72,-135.03"/>
<polygon fill="#63b8ff" stroke="#63b8ff" points="751.98,-137.72 758.23,-129.17 748.01,-131.96 751.98,-137.72"/>
</a>
</g>
</g>
<!-- Node14 -->
<g id="Node000014" class="node">
<title>Node14</title>
<g id="a_Node000014"><a xlink:title=" ">
<polygon fill="#e0e0e0" stroke="#999999" points="897.83,-129 837.83,-129 837.83,-110 897.83,-110 897.83,-129"/>
<text text-anchor="middle" x="867.83" y="-117" font-family="Helvetica,sans-Serif" font-size="10.00">iostream</text>
</a>
</g>
</g>
<!-- Node1&#45;&gt;Node14 -->
<g id="edge22_Node000001_Node000014" class="edge">
<title>Node1&#45;&gt;Node14</title>
<g id="a_edge22_Node000001_Node000014"><a xlink:title=" ">
<path fill="none" stroke="#63b8ff" d="M721.79,-164.98C751.13,-156.05 797.43,-141.94 830.02,-132.02"/>
<polygon fill="#63b8ff" stroke="#63b8ff" points="831.11,-135.34 839.65,-129.08 829.07,-128.65 831.11,-135.34"/>
</a>
</g>
</g>
<!-- Node15 -->
<g id="Node000015" class="node">
<title>Node15</title>
<g id="a_Node000015"><a xlink:title=" ">
<polygon fill="#e0e0e0" stroke="#999999" points="981.33,-129 916.33,-129 916.33,-110 981.33,-110 981.33,-129"/>
<text text-anchor="middle" x="948.83" y="-117" font-family="Helvetica,sans-Serif" font-size="10.00">stdexcept</text>
</a>
</g>
</g>
<!-- Node1&#45;&gt;Node15 -->
<g id="edge23_Node000001_Node000015" class="edge">
<title>Node1&#45;&gt;Node15</title>
<g id="a_edge23_Node000001_Node000015"><a xlink:title=" ">
<path fill="none" stroke="#63b8ff" d="M734.8,-164.98C781.76,-155.23 858.36,-139.3 906.06,-129.39"/>
<polygon fill="#63b8ff" stroke="#63b8ff" points="906.99,-132.77 916.07,-127.31 905.57,-125.92 906.99,-132.77"/>
</a>
</g>
</g>
<!-- Node3 -->
<g id="Node000003" class="node">
<title>Node3</title>
<g id="a_Node000003"><a xlink:title=" ">
<polygon fill="#e0e0e0" stroke="#999999" points="71.83,-19 21.83,-19 21.83,0 71.83,0 71.83,-19"/>
<text text-anchor="middle" x="46.83" y="-7" font-family="Helvetica,sans-Serif" font-size="10.00">cstdint</text>
</a>
</g>
</g>
<!-- Node2&#45;&gt;Node3 -->
<g id="edge2_Node000002_Node000003" class="edge">
<title>Node2&#45;&gt;Node3</title>
<g id="a_edge2_Node000002_Node000003"><a xlink:title=" ">
<path fill="none" stroke="#63b8ff" d="M124.05,-54.98C109.65,-46.69 87.52,-33.94 70.64,-24.22"/>
<polygon fill="#63b8ff" stroke="#63b8ff" points="72.29,-21.13 61.88,-19.17 68.8,-27.19 72.29,-21.13"/>
</a>
</g>
</g>
<!-- Node4 -->
<g id="Node000004" class="node">
<title>Node4</title>
<g id="a_Node000004"><a xlink:title=" ">
<polygon fill="#e0e0e0" stroke="#999999" points="154.33,-19 101.33,-19 101.33,0 154.33,0 154.33,-19"/>
<text text-anchor="middle" x="127.83" y="-7" font-family="Helvetica,sans-Serif" font-size="10.00">cstddef</text>
</a>
</g>
</g>
<!-- Node2&#45;&gt;Node4 -->
<g id="edge3_Node000002_Node000004" class="edge">
<title>Node2&#45;&gt;Node4</title>
<g id="a_edge3_Node000002_Node000004"><a xlink:title=" ">
<path fill="none" stroke="#63b8ff" d="M137.01,-54.75C135.57,-47.8 133.51,-37.85 131.7,-29.13"/>
<polygon fill="#63b8ff" stroke="#63b8ff" points="135.07,-28.17 129.61,-19.09 128.22,-29.59 135.07,-28.17"/>
</a>
</g>
</g>
<!-- Node5 -->
<g id="Node000005" class="node">
<title>Node5</title>
<g id="a_Node000005"><a xlink:title=" ">
<polygon fill="#e0e0e0" stroke="#999999" points="248.83,-19 204.83,-19 204.83,0 248.83,0 248.83,-19"/>
<text text-anchor="middle" x="226.83" y="-7" font-family="Helvetica,sans-Serif" font-size="10.00">string</text>
</a>
</g>
</g>
<!-- Node2&#45;&gt;Node5 -->
<g id="edge4_Node000002_Node000005" class="edge">
<title>Node2&#45;&gt;Node5</title>
<g id="a_edge4_Node000002_Node000005"><a xlink:title=" ">
<path fill="none" stroke="#63b8ff" d="M152.97,-54.98C166.62,-46.77 187.52,-34.18 203.61,-24.49"/>
<polygon fill="#63b8ff" stroke="#63b8ff" points="205.67,-27.33 212.43,-19.17 202.06,-21.33 205.67,-27.33"/>
</a>
</g>
</g>
<!-- Node2&#45;&gt;Node6 -->
<g id="edge5_Node000002_Node000006" class="edge">
<title>Node2&#45;&gt;Node6</title>
<g id="a_edge5_Node000002_Node000006"><a xlink:title=" ">
<path fill="none" stroke="#63b8ff" d="M180.54,-56.3C183.68,-55.84 186.8,-55.4 189.83,-55 351.07,-33.89 544.94,-18.59 621.93,-12.92"/>
<polygon fill="#63b8ff" stroke="#63b8ff" points="622.28,-16.4 632,-12.18 621.77,-9.42 622.28,-16.4"/>
</a>
</g>
</g>
<!-- Node7&#45;&gt;Node2 -->
<g id="edge7_Node000007_Node000002" class="edge">
<title>Node7&#45;&gt;Node2</title>
<g id="a_edge7_Node000007_Node000002"><a xlink:title=" ">
<path fill="none" stroke="#63b8ff" d="M373,-109.98C323.18,-100.52 242.86,-85.26 190.45,-75.31"/>
<polygon fill="#63b8ff" stroke="#63b8ff" points="190.83,-71.82 180.36,-73.39 189.53,-78.69 190.83,-71.82"/>
</a>
</g>
</g>
<!-- Node7&#45;&gt;Node3 -->
<g id="edge14_Node000007_Node000003" class="edge">
<title>Node7&#45;&gt;Node3</title>
<g id="a_edge14_Node000007_Node000003"><a xlink:title=" ">
<path fill="none" stroke="#63b8ff" d="M355.06,-116.27C245.27,-111.72 27.78,-99.55 4.83,-74 -8.78,-58.84 9.22,-38.92 25.71,-25.46"/>
<polygon fill="#63b8ff" stroke="#63b8ff" points="28.22,-27.94 34.01,-19.07 23.95,-22.4 28.22,-27.94"/>
</a>
</g>
</g>
<!-- Node7&#45;&gt;Node5 -->
<g id="edge16_Node000007_Node000005" class="edge">
<title>Node7&#45;&gt;Node5</title>
<g id="a_edge16_Node000007_Node000005"><a xlink:title=" ">
<path fill="none" stroke="#63b8ff" d="M457.24,-109.98C495.41,-99.96 544.46,-81.3 521.83,-55 488.24,-15.96 328.83,-10.72 259.34,-10.33"/>
<polygon fill="#63b8ff" stroke="#63b8ff" points="259,-6.83 248.99,-10.3 258.98,-13.83 259,-6.83"/>
</a>
</g>
</g>
<!-- Node7&#45;&gt;Node6 -->
<g id="edge18_Node000007_Node000006" class="edge">
<title>Node7&#45;&gt;Node6</title>
<g id="a_edge18_Node000007_Node000006"><a xlink:title=" ">
<path fill="none" stroke="#63b8ff" d="M480.4,-112.93C536.82,-106.66 614.31,-94.57 636.83,-74 649.16,-62.73 653.62,-43.82 655.17,-29.56"/>
<polygon fill="#63b8ff" stroke="#63b8ff" points="658.67,-29.57 655.88,-19.35 651.69,-29.09 658.67,-29.57"/>
</a>
</g>
</g>
<!-- Node8 -->
<g id="Node000008" class="node">
<title>Node8</title>
<g id="a_Node000008"><a xlink:href="params_8hpp.html" target="_top" xlink:title=" ">
<polygon fill="white" stroke="#666666" points="318.83,-74 198.83,-74 198.83,-55 318.83,-55 318.83,-74"/>
<text text-anchor="middle" x="258.83" y="-62" font-family="Helvetica,sans-Serif" font-size="10.00">compiler/params.hpp</text>
</a>
</g>
</g>
<!-- Node7&#45;&gt;Node8 -->
<g id="edge8_Node000007_Node000008" class="edge">
<title>Node7&#45;&gt;Node8</title>
<g id="a_edge8_Node000007_Node000008"><a xlink:title=" ">
<path fill="none" stroke="#63b8ff" d="M392.28,-109.98C365.71,-101.13 323.89,-87.19 294.16,-77.28"/>
<polygon fill="#63b8ff" stroke="#63b8ff" points="295.17,-73.92 284.58,-74.08 292.96,-80.56 295.17,-73.92"/>
</a>
</g>
</g>
<!-- Node7&#45;&gt;Node9 -->
<g id="edge10_Node000007_Node000009" class="edge">
<title>Node7&#45;&gt;Node9</title>
<g id="a_edge10_Node000007_Node000009"><a xlink:title=" ">
<path fill="none" stroke="#63b8ff" d="M355.29,-111.4C290.98,-103.79 187.71,-90.75 89.56,-74.2"/>
<polygon fill="#63b8ff" stroke="#63b8ff" points="89.91,-70.71 79.46,-72.48 88.74,-77.61 89.91,-70.71"/>
</a>
</g>
</g>
<!-- Node10 -->
<g id="Node000010" class="node">
<title>Node10</title>
<g id="a_Node000010"><a xlink:title=" ">
<polygon fill="#e0e0e0" stroke="#999999" points="402.33,-74 337.33,-74 337.33,-55 402.33,-55 402.33,-74"/>
<text text-anchor="middle" x="369.83" y="-62" font-family="Helvetica,sans-Serif" font-size="10.00">exception</text>
</a>
</g>
</g>
<!-- Node7&#45;&gt;Node10 -->
<g id="edge15_Node000007_Node000010" class="edge">
<title>Node7&#45;&gt;Node10</title>
<g id="a_edge15_Node000007_Node000010"><a xlink:title=" ">
<path fill="none" stroke="#63b8ff" d="M409.9,-109.75C402.98,-102.11 392.76,-90.82 384.38,-81.56"/>
<polygon fill="#63b8ff" stroke="#63b8ff" points="386.92,-79.15 377.61,-74.09 381.73,-83.85 386.92,-79.15"/>
</a>
</g>
</g>
<!-- Node11 -->
<g id="Node000011" class="node">
<title>Node11</title>
<g id="a_Node000011"><a xlink:title=" ">
<polygon fill="#e0e0e0" stroke="#999999" points="513.33,-74 420.33,-74 420.33,-55 513.33,-55 513.33,-74"/>
<text text-anchor="middle" x="466.83" y="-62" font-family="Helvetica,sans-Serif" font-size="10.00">unordered_map</text>
</a>
</g>
</g>
<!-- Node7&#45;&gt;Node11 -->
<g id="edge17_Node000007_Node000011" class="edge">
<title>Node7&#45;&gt;Node11</title>
<g id="a_edge17_Node000007_Node000011"><a xlink:title=" ">
<path fill="none" stroke="#63b8ff" d="M425.92,-109.75C432.99,-102.11 443.42,-90.82 451.98,-81.56"/>
<polygon fill="#63b8ff" stroke="#63b8ff" points="454.67,-83.81 458.89,-74.09 449.53,-79.06 454.67,-83.81"/>
</a>
</g>
</g>
<!-- Node12 -->
<g id="Node000012" class="node">
<title>Node12</title>
<g id="a_Node000012"><a xlink:title=" ">
<polygon fill="#e0e0e0" stroke="#999999" points="627.83,-74 569.83,-74 569.83,-55 627.83,-55 627.83,-74"/>
<text text-anchor="middle" x="598.83" y="-62" font-family="Helvetica,sans-Serif" font-size="10.00">memory</text>
</a>
</g>
</g>
<!-- Node7&#45;&gt;Node12 -->
<g id="edge19_Node000007_Node000012" class="edge">
<title>Node7&#45;&gt;Node12</title>
<g id="a_edge19_Node000007_Node000012"><a xlink:title=" ">
<path fill="none" stroke="#63b8ff" d="M446.91,-109.98C477.52,-101.02 525.88,-86.86 559.8,-76.93"/>
<polygon fill="#63b8ff" stroke="#63b8ff" points="561.21,-80.16 569.82,-73.99 559.24,-73.45 561.21,-80.16"/>
</a>
</g>
</g>
<!-- Node8&#45;&gt;Node5 -->
<g id="edge9_Node000008_Node000005" class="edge">
<title>Node8&#45;&gt;Node5</title>
<g id="a_edge9_Node000008_Node000005"><a xlink:title=" ">
<path fill="none" stroke="#63b8ff" d="M253.55,-54.75C249.12,-47.42 242.67,-36.73 237.21,-27.7"/>
<polygon fill="#63b8ff" stroke="#63b8ff" points="240.18,-25.84 232.02,-19.09 234.19,-29.46 240.18,-25.84"/>
</a>
</g>
</g>
<!-- Node9&#45;&gt;Node3 -->
<g id="edge12_Node000009_Node000003" class="edge">
<title>Node9&#45;&gt;Node3</title>
<g id="a_edge12_Node000009_Node000003"><a xlink:title=" ">
<path fill="none" stroke="#63b8ff" d="M46.83,-54.75C46.83,-47.8 46.83,-37.85 46.83,-29.13"/>
<polygon fill="#63b8ff" stroke="#63b8ff" points="50.33,-29.09 46.83,-19.09 43.33,-29.09 50.33,-29.09"/>
</a>
</g>
</g>
<!-- Node9&#45;&gt;Node4 -->
<g id="edge11_Node000009_Node000004" class="edge">
<title>Node9&#45;&gt;Node4</title>
<g id="a_edge11_Node000009_Node000004"><a xlink:title=" ">
<path fill="none" stroke="#63b8ff" d="M59.84,-54.98C72.29,-46.84 91.29,-34.41 106.04,-24.76"/>
<polygon fill="#63b8ff" stroke="#63b8ff" points="108.13,-27.57 114.58,-19.17 104.29,-21.72 108.13,-27.57"/>
</a>
</g>
</g>
<!-- Node9&#45;&gt;Node5 -->
<g id="edge13_Node000009_Node000005" class="edge">
<title>Node9&#45;&gt;Node5</title>
<g id="a_edge13_Node000009_Node000005"><a xlink:title=" ">
<path fill="none" stroke="#63b8ff" d="M75.75,-54.98C108.35,-45.39 161.2,-29.82 194.97,-19.88"/>
<polygon fill="#63b8ff" stroke="#63b8ff" points="196.19,-23.17 204.79,-16.99 194.21,-16.46 196.19,-23.17"/>
</a>
</g>
</g>
</g>
</svg>
