<?xml version="1.0" encoding="UTF-8" standalone="no"?>
<!DOCTYPE svg PUBLIC "-//W3C//DTD SVG 1.1//EN"
 "http://www.w3.org/Graphics/SVG/1.1/DTD/svg11.dtd">
<!-- Generated by graphviz version 2.43.0 (0)
 -->
<!-- Title: src/compiler/functions.cpp Pages: 1 -->
<svg width="840pt" height="192pt"
 viewBox="0.00 0.00 840.10 192.00" xmlns="http://www.w3.org/2000/svg" xmlns:xlink="http://www.w3.org/1999/xlink">
<g id="graph0" class="graph" transform="scale(1 1) rotate(0) translate(4 188)">
<title>src/compiler/functions.cpp</title>
<!-- Node1 -->
<g id="Node000001" class="node">
<title>Node1</title>
<g id="a_Node000001"><a xlink:title=" ">
<polygon fill="#999999" stroke="#666666" points="741.1,-184 596.1,-184 596.1,-165 741.1,-165 741.1,-184"/>
<text text-anchor="middle" x="668.6" y="-172" font-family="Helvetica,sans-Serif" font-size="10.00">src/compiler/functions.cpp</text>
</a>
</g>
</g>
<!-- Node2 -->
<g id="Node000002" class="node">
<title>Node2</title>
<g id="a_Node000002"><a xlink:href="compiler_8hpp.html" target="_top" xlink:title=" ">
<polygon fill="white" stroke="#666666" points="403.1,-129 278.1,-129 278.1,-110 403.1,-110 403.1,-129"/>
<text text-anchor="middle" x="340.6" y="-117" font-family="Helvetica,sans-Serif" font-size="10.00">compiler/compiler.hpp</text>
</a>
</g>
</g>
<!-- Node1&#45;&gt;Node2 -->
<g id="edge1_Node000001_Node000002" class="edge">
<title>Node1&#45;&gt;Node2</title>
<g id="a_edge1_Node000001_Node000002"><a xlink:title=" ">
<path fill="none" stroke="#63b8ff" d="M615.91,-164.98C558.01,-155.63 465.08,-140.61 403.44,-130.65"/>
<polygon fill="#63b8ff" stroke="#63b8ff" points="403.87,-127.18 393.44,-129.04 402.76,-134.09 403.87,-127.18"/>
</a>
</g>
</g>
<!-- Node4 -->
<g id="Node000004" class="node">
<title>Node4</title>
<g id="a_Node000004"><a xlink:title=" ">
<polygon fill="#e0e0e0" stroke="#999999" points="571.6,-19 521.6,-19 521.6,0 571.6,0 571.6,-19"/>
<text text-anchor="middle" x="546.6" y="-7" font-family="Helvetica,sans-Serif" font-size="10.00">cstdint</text>
</a>
</g>
</g>
<!-- Node1&#45;&gt;Node4 -->
<g id="edge22_Node000001_Node000004" class="edge">
<title>Node1&#45;&gt;Node4</title>
<g id="a_edge22_Node000001_Node000004"><a xlink:title=" ">
<path fill="none" stroke="#63b8ff" d="M669.8,-164.97C672.27,-143.88 675.7,-88.55 649.6,-55 640.75,-43.61 607.68,-30.51 581.36,-21.49"/>
<polygon fill="#63b8ff" stroke="#63b8ff" points="582.27,-18.1 571.67,-18.24 580.04,-24.74 582.27,-18.1"/>
</a>
</g>
</g>
<!-- Node5 -->
<g id="Node000005" class="node">
<title>Node5</title>
<g id="a_Node000005"><a xlink:title=" ">
<polygon fill="#e0e0e0" stroke="#999999" points="643.1,-19 590.1,-19 590.1,0 643.1,0 643.1,-19"/>
<text text-anchor="middle" x="616.6" y="-7" font-family="Helvetica,sans-Serif" font-size="10.00">cstddef</text>
</a>
</g>
</g>
<!-- Node1&#45;&gt;Node5 -->
<g id="edge21_Node000001_Node000005" class="edge">
<title>Node1&#45;&gt;Node5</title>
<g id="a_edge21_Node000001_Node000005"><a xlink:title=" ">
<path fill="none" stroke="#63b8ff" d="M672.83,-164.84C682.18,-144.37 702.25,-91.95 682.6,-55 675.29,-41.25 661.64,-30.99 648.63,-23.8"/>
<polygon fill="#63b8ff" stroke="#63b8ff" points="649.88,-20.51 639.38,-19.11 646.72,-26.75 649.88,-20.51"/>
</a>
</g>
</g>
<!-- Node9 -->
<g id="Node000009" class="node">
<title>Node9</title>
<g id="a_Node000009"><a xlink:href="types_8hpp.html" target="_top" xlink:title=" ">
<polygon fill="white" stroke="#666666" points="640.1,-74 575.1,-74 575.1,-55 640.1,-55 640.1,-74"/>
<text text-anchor="middle" x="607.6" y="-62" font-family="Helvetica,sans-Serif" font-size="10.00">types.hpp</text>
</a>
</g>
</g>
<!-- Node1&#45;&gt;Node9 -->
<g id="edge20_Node000001_Node000009" class="edge">
<title>Node1&#45;&gt;Node9</title>
<g id="a_edge20_Node000001_Node000009"><a xlink:title=" ">
<path fill="none" stroke="#63b8ff" d="M663.61,-164.66C653.55,-146.85 630.69,-106.37 617.49,-83.01"/>
<polygon fill="#63b8ff" stroke="#63b8ff" points="620.46,-81.14 612.49,-74.16 614.37,-84.59 620.46,-81.14"/>
</a>
</g>
</g>
<!-- Node13 -->
<g id="Node000013" class="node">
<title>Node13</title>
<g id="a_Node000013"><a xlink:title=" ">
<polygon fill="#e0e0e0" stroke="#999999" points="832.1,-129 735.1,-129 735.1,-110 832.1,-110 832.1,-129"/>
<text text-anchor="middle" x="783.6" y="-117" font-family="Helvetica,sans-Serif" font-size="10.00">compiler/errno.h</text>
</a>
</g>
</g>
<!-- Node1&#45;&gt;Node13 -->
<g id="edge19_Node000001_Node000013" class="edge">
<title>Node1&#45;&gt;Node13</title>
<g id="a_edge19_Node000001_Node000013"><a xlink:title=" ">
<path fill="none" stroke="#63b8ff" d="M687.08,-164.98C705.58,-156.46 734.29,-143.23 755.59,-133.41"/>
<polygon fill="#63b8ff" stroke="#63b8ff" points="757.17,-136.53 764.79,-129.17 754.24,-130.18 757.17,-136.53"/>
</a>
</g>
</g>
<!-- Node3 -->
<g id="Node000003" class="node">
<title>Node3</title>
<g id="a_Node000003"><a xlink:href="bytecode_8hpp.html" target="_top" xlink:title=" ">
<polygon fill="white" stroke="#666666" points="518.1,-74 435.1,-74 435.1,-55 518.1,-55 518.1,-74"/>
<text text-anchor="middle" x="476.6" y="-62" font-family="Helvetica,sans-Serif" font-size="10.00">bytecode.hpp</text>
</a>
</g>
</g>
<!-- Node2&#45;&gt;Node3 -->
<g id="edge2_Node000002_Node000003" class="edge">
<title>Node2&#45;&gt;Node3</title>
<g id="a_edge2_Node000002_Node000003"><a xlink:title=" ">
<path fill="none" stroke="#63b8ff" d="M362.45,-109.98C384.73,-101.3 419.51,-87.75 444.82,-77.88"/>
<polygon fill="#63b8ff" stroke="#63b8ff" points="446.31,-81.06 454.36,-74.17 443.77,-74.54 446.31,-81.06"/>
</a>
</g>
</g>
<!-- Node2&#45;&gt;Node4 -->
<g id="edge13_Node000002_Node000004" class="edge">
<title>Node2&#45;&gt;Node4</title>
<g id="a_edge13_Node000002_Node000004"><a xlink:title=" ">
<path fill="none" stroke="#63b8ff" d="M403.26,-110.4C450.36,-103.1 509.71,-90.9 527.6,-74 539.75,-62.53 544.23,-43.64 545.83,-29.45"/>
<polygon fill="#63b8ff" stroke="#63b8ff" points="549.34,-29.53 546.59,-19.29 542.36,-29 549.34,-29.53"/>
</a>
</g>
</g>
<!-- Node6 -->
<g id="Node000006" class="node">
<title>Node6</title>
<g id="a_Node000006"><a xlink:title=" ">
<polygon fill="#e0e0e0" stroke="#999999" points="302.6,-19 258.6,-19 258.6,0 302.6,0 302.6,-19"/>
<text text-anchor="middle" x="280.6" y="-7" font-family="Helvetica,sans-Serif" font-size="10.00">string</text>
</a>
</g>
</g>
<!-- Node2&#45;&gt;Node6 -->
<g id="edge15_Node000002_Node000006" class="edge">
<title>Node2&#45;&gt;Node6</title>
<g id="a_edge15_Node000002_Node000006"><a xlink:title=" ">
<path fill="none" stroke="#63b8ff" d="M277.95,-119.23C193.48,-118.72 49.82,-112.09 16.6,-74 11.05,-67.64 11.15,-61.45 16.6,-55 20.35,-50.57 178.97,-25.96 248.51,-15.36"/>
<polygon fill="#63b8ff" stroke="#63b8ff" points="249.12,-18.81 258.48,-13.84 248.06,-11.89 249.12,-18.81"/>
</a>
</g>
</g>
<!-- Node7 -->
<g id="Node000007" class="node">
<title>Node7</title>
<g id="a_Node000007"><a xlink:title=" ">
<polygon fill="#e0e0e0" stroke="#999999" points="209.1,-19 162.1,-19 162.1,0 209.1,0 209.1,-19"/>
<text text-anchor="middle" x="185.6" y="-7" font-family="Helvetica,sans-Serif" font-size="10.00">vector</text>
</a>
</g>
</g>
<!-- Node2&#45;&gt;Node7 -->
<g id="edge17_Node000002_Node000007" class="edge">
<title>Node2&#45;&gt;Node7</title>
<g id="a_edge17_Node000002_Node000007"><a xlink:title=" ">
<path fill="none" stroke="#63b8ff" d="M277.87,-119.48C191.54,-119.32 42.88,-113.17 8.6,-74 -33.05,-26.39 89.78,-14.47 151.95,-11.49"/>
<polygon fill="#63b8ff" stroke="#63b8ff" points="152.24,-14.98 162.08,-11.06 151.94,-7.99 152.24,-14.98"/>
</a>
</g>
</g>
<!-- Node8 -->
<g id="Node000008" class="node">
<title>Node8</title>
<g id="a_Node000008"><a xlink:href="params_8hpp.html" target="_top" xlink:title=" ">
<polygon fill="white" stroke="#666666" points="145.6,-74 25.6,-74 25.6,-55 145.6,-55 145.6,-74"/>
<text text-anchor="middle" x="85.6" y="-62" font-family="Helvetica,sans-Serif" font-size="10.00">compiler/params.hpp</text>
</a>
</g>
</g>
<!-- Node2&#45;&gt;Node8 -->
<g id="edge7_Node000002_Node000008" class="edge">
<title>Node2&#45;&gt;Node8</title>
<g id="a_edge7_Node000002_Node000008"><a xlink:title=" ">
<path fill="none" stroke="#63b8ff" d="M299.63,-109.98C255.34,-100.78 184.66,-86.09 136.76,-76.13"/>
<polygon fill="#63b8ff" stroke="#63b8ff" points="137.4,-72.69 126.9,-74.08 135.97,-79.54 137.4,-72.69"/>
</a>
</g>
</g>
<!-- Node2&#45;&gt;Node9 -->
<g id="edge9_Node000002_Node000009" class="edge">
<title>Node2&#45;&gt;Node9</title>
<g id="a_edge9_Node000002_Node000009"><a xlink:title=" ">
<path fill="none" stroke="#63b8ff" d="M383.5,-109.98C433.32,-100.1 515.01,-83.88 564.8,-74"/>
<polygon fill="#63b8ff" stroke="#63b8ff" points="565.78,-77.37 574.91,-71.99 564.42,-70.5 565.78,-77.37"/>
</a>
</g>
</g>
<!-- Node10 -->
<g id="Node000010" class="node">
<title>Node10</title>
<g id="a_Node000010"><a xlink:title=" ">
<polygon fill="#e0e0e0" stroke="#999999" points="229.1,-74 164.1,-74 164.1,-55 229.1,-55 229.1,-74"/>
<text text-anchor="middle" x="196.6" y="-62" font-family="Helvetica,sans-Serif" font-size="10.00">exception</text>
</a>
</g>
</g>
<!-- Node2&#45;&gt;Node10 -->
<g id="edge14_Node000002_Node000010" class="edge">
<title>Node2&#45;&gt;Node10</title>
<g id="a_edge14_Node000002_Node000010"><a xlink:title=" ">
<path fill="none" stroke="#63b8ff" d="M317.47,-109.98C293.78,-101.27 256.73,-87.63 229.9,-77.75"/>
<polygon fill="#63b8ff" stroke="#63b8ff" points="230.75,-74.34 220.16,-74.17 228.34,-80.91 230.75,-74.34"/>
</a>
</g>
</g>
<!-- Node11 -->
<g id="Node000011" class="node">
<title>Node11</title>
<g id="a_Node000011"><a xlink:title=" ">
<polygon fill="#e0e0e0" stroke="#999999" points="340.1,-74 247.1,-74 247.1,-55 340.1,-55 340.1,-74"/>
<text text-anchor="middle" x="293.6" y="-62" font-family="Helvetica,sans-Serif" font-size="10.00">unordered_map</text>
</a>
</g>
</g>
<!-- Node2&#45;&gt;Node11 -->
<g id="edge16_Node000002_Node000011" class="edge">
<title>Node2&#45;&gt;Node11</title>
<g id="a_edge16_Node000002_Node000011"><a xlink:title=" ">
<path fill="none" stroke="#63b8ff" d="M332.84,-109.75C326.14,-102.18 316.26,-91.05 308.1,-81.84"/>
<polygon fill="#63b8ff" stroke="#63b8ff" points="310.47,-79.25 301.22,-74.09 305.24,-83.89 310.47,-79.25"/>
</a>
</g>
</g>
<!-- Node12 -->
<g id="Node000012" class="node">
<title>Node12</title>
<g id="a_Node000012"><a xlink:title=" ">
<polygon fill="#e0e0e0" stroke="#999999" points="416.6,-74 358.6,-74 358.6,-55 416.6,-55 416.6,-74"/>
<text text-anchor="middle" x="387.6" y="-62" font-family="Helvetica,sans-Serif" font-size="10.00">memory</text>
</a>
</g>
</g>
<!-- Node2&#45;&gt;Node12 -->
<g id="edge18_Node000002_Node000012" class="edge">
<title>Node2&#45;&gt;Node12</title>
<g id="a_edge18_Node000002_Node000012"><a xlink:title=" ">
<path fill="none" stroke="#63b8ff" d="M348.37,-109.75C355.07,-102.18 364.95,-91.05 373.11,-81.84"/>
<polygon fill="#63b8ff" stroke="#63b8ff" points="375.97,-83.89 379.99,-74.09 370.73,-79.25 375.97,-83.89"/>
</a>
</g>
</g>
<!-- Node3&#45;&gt;Node4 -->
<g id="edge3_Node000003_Node000004" class="edge">
<title>Node3&#45;&gt;Node4</title>
<g id="a_edge3_Node000003_Node000004"><a xlink:title=" ">
<path fill="none" stroke="#63b8ff" d="M487.85,-54.98C498.4,-47 514.4,-34.88 527.05,-25.31"/>
<polygon fill="#63b8ff" stroke="#63b8ff" points="529.29,-28 535.15,-19.17 525.07,-22.42 529.29,-28"/>
</a>
</g>
</g>
<!-- Node3&#45;&gt;Node5 -->
<g id="edge4_Node000003_Node000005" class="edge">
<title>Node3&#45;&gt;Node5</title>
<g id="a_edge4_Node000003_Node000005"><a xlink:title=" ">
<path fill="none" stroke="#63b8ff" d="M499.1,-54.98C522.13,-46.27 558.14,-32.63 584.24,-22.75"/>
<polygon fill="#63b8ff" stroke="#63b8ff" points="585.59,-25.98 593.7,-19.17 583.11,-19.44 585.59,-25.98"/>
</a>
</g>
</g>
<!-- Node3&#45;&gt;Node6 -->
<g id="edge5_Node000003_Node000006" class="edge">
<title>Node3&#45;&gt;Node6</title>
<g id="a_edge5_Node000003_Node000006"><a xlink:title=" ">
<path fill="none" stroke="#63b8ff" d="M445.11,-54.98C408.71,-45.14 349.14,-29.03 312.55,-19.14"/>
<polygon fill="#63b8ff" stroke="#63b8ff" points="313.44,-15.75 302.87,-16.52 311.61,-22.51 313.44,-15.75"/>
</a>
</g>
</g>
<!-- Node3&#45;&gt;Node7 -->
<g id="edge6_Node000003_Node000007" class="edge">
<title>Node3&#45;&gt;Node7</title>
<g id="a_edge6_Node000003_Node000007"><a xlink:title=" ">
<path fill="none" stroke="#63b8ff" d="M434.91,-55.91C376.86,-45.33 272.81,-26.38 219.35,-16.65"/>
<polygon fill="#63b8ff" stroke="#63b8ff" points="219.83,-13.18 209.36,-14.83 218.57,-20.06 219.83,-13.18"/>
</a>
</g>
</g>
<!-- Node8&#45;&gt;Node6 -->
<g id="edge8_Node000008_Node000006" class="edge">
<title>Node8&#45;&gt;Node6</title>
<g id="a_edge8_Node000008_Node000006"><a xlink:title=" ">
<path fill="none" stroke="#63b8ff" d="M116.93,-54.98C152.99,-45.18 211.92,-29.17 248.36,-19.26"/>
<polygon fill="#63b8ff" stroke="#63b8ff" points="249.72,-22.52 258.45,-16.52 247.88,-15.77 249.72,-22.52"/>
</a>
</g>
</g>
<!-- Node9&#45;&gt;Node4 -->
<g id="edge11_Node000009_Node000004" class="edge">
<title>Node9&#45;&gt;Node4</title>
<g id="a_edge11_Node000009_Node000004"><a xlink:title=" ">
<path fill="none" stroke="#63b8ff" d="M597.8,-54.98C588.79,-47.15 575.2,-35.34 564.29,-25.86"/>
<polygon fill="#63b8ff" stroke="#63b8ff" points="566.43,-23.09 556.58,-19.17 561.84,-28.37 566.43,-23.09"/>
</a>
</g>
</g>
<!-- Node9&#45;&gt;Node5 -->
<g id="edge10_Node000009_Node000005" class="edge">
<title>Node9&#45;&gt;Node5</title>
<g id="a_edge10_Node000009_Node000005"><a xlink:title=" ">
<path fill="none" stroke="#63b8ff" d="M609.09,-54.75C610.27,-47.8 611.96,-37.85 613.44,-29.13"/>
<polygon fill="#63b8ff" stroke="#63b8ff" points="616.92,-29.53 615.15,-19.09 610.02,-28.36 616.92,-29.53"/>
</a>
</g>
</g>
<!-- Node9&#45;&gt;Node6 -->
<g id="edge12_Node000009_Node000006" class="edge">
<title>Node9&#45;&gt;Node6</title>
<g id="a_edge12_Node000009_Node000006"><a xlink:title=" ">
<path fill="none" stroke="#63b8ff" d="M575.05,-58.22C512.29,-48.05 375.23,-25.84 312.77,-15.71"/>
<polygon fill="#63b8ff" stroke="#63b8ff" points="313.14,-12.23 302.71,-14.08 312.02,-19.14 313.14,-12.23"/>
</a>
</g>
</g>
</g>
</svg>
