<?xml version="1.0" encoding="UTF-8" standalone="no"?>
<!DOCTYPE svg PUBLIC "-//W3C//DTD SVG 1.1//EN"
 "http://www.w3.org/Graphics/SVG/1.1/DTD/svg11.dtd">
<!-- Generated by graphviz version 2.43.0 (0)
 -->
<!-- Title: src/vm/heap.cpp Pages: 1 -->
<svg width="577pt" height="192pt"
 viewBox="0.00 0.00 576.51 192.00" xmlns="http://www.w3.org/2000/svg" xmlns:xlink="http://www.w3.org/1999/xlink">
<g id="graph0" class="graph" transform="scale(1 1) rotate(0) translate(4 188)">
<title>src/vm/heap.cpp</title>
<!-- Node1 -->
<g id="Node000001" class="node">
<title>Node1</title>
<g id="a_Node000001"><a xlink:title=" ">
<polygon fill="#999999" stroke="#666666" points="372.51,-184 275.51,-184 275.51,-165 372.51,-165 372.51,-184"/>
<text text-anchor="middle" x="324.01" y="-172" font-family="Helvetica,sans-Serif" font-size="10.00">src/vm/heap.cpp</text>
</a>
</g>
</g>
<!-- Node2 -->
<g id="Node000002" class="node">
<title>Node2</title>
<g id="a_Node000002"><a xlink:href="VirtualMachine_8hpp.html" target="_top" xlink:title=" ">
<polygon fill="white" stroke="#666666" points="286.51,-129 175.51,-129 175.51,-110 286.51,-110 286.51,-129"/>
<text text-anchor="middle" x="231.01" y="-117" font-family="Helvetica,sans-Serif" font-size="10.00">VirtualMachine.hpp</text>
</a>
</g>
</g>
<!-- Node1&#45;&gt;Node2 -->
<g id="edge1_Node000001_Node000002" class="edge">
<title>Node1&#45;&gt;Node2</title>
<g id="a_edge1_Node000001_Node000002"><a xlink:title=" ">
<path fill="none" stroke="#63b8ff" d="M309.07,-164.98C294.51,-156.69 272.14,-143.94 255.08,-134.22"/>
<polygon fill="#63b8ff" stroke="#63b8ff" points="256.65,-131.08 246.23,-129.17 253.18,-137.16 256.65,-131.08"/>
</a>
</g>
</g>
<!-- Node3 -->
<g id="Node000003" class="node">
<title>Node3</title>
<g id="a_Node000003"><a xlink:title=" ">
<polygon fill="#e0e0e0" stroke="#999999" points="117.51,-19 64.51,-19 64.51,0 117.51,0 117.51,-19"/>
<text text-anchor="middle" x="91.01" y="-7" font-family="Helvetica,sans-Serif" font-size="10.00">cstddef</text>
</a>
</g>
</g>
<!-- Node1&#45;&gt;Node3 -->
<g id="edge13_Node000001_Node000003" class="edge">
<title>Node1&#45;&gt;Node3</title>
<g id="a_edge13_Node000001_Node000003"><a xlink:title=" ">
<path fill="none" stroke="#63b8ff" d="M275.44,-166.11C193.39,-152.47 33.36,-120.4 4.01,-74 -11.64,-49.26 24.39,-31.03 54.74,-20.6"/>
<polygon fill="#63b8ff" stroke="#63b8ff" points="55.89,-23.91 64.33,-17.49 53.73,-17.25 55.89,-23.91"/>
</a>
</g>
</g>
<!-- Node4 -->
<g id="Node000004" class="node">
<title>Node4</title>
<g id="a_Node000004"><a xlink:title=" ">
<polygon fill="#e0e0e0" stroke="#999999" points="327.01,-19 277.01,-19 277.01,0 327.01,0 327.01,-19"/>
<text text-anchor="middle" x="302.01" y="-7" font-family="Helvetica,sans-Serif" font-size="10.00">cstdint</text>
</a>
</g>
</g>
<!-- Node1&#45;&gt;Node4 -->
<g id="edge14_Node000001_Node000004" class="edge">
<title>Node1&#45;&gt;Node4</title>
<g id="a_edge14_Node000001_Node000004"><a xlink:title=" ">
<path fill="none" stroke="#63b8ff" d="M348.34,-164.97C395.64,-147.08 492.29,-103.24 456.01,-55 441.74,-36.02 378.07,-22.57 337.2,-15.71"/>
<polygon fill="#63b8ff" stroke="#63b8ff" points="337.52,-12.22 327.09,-14.07 336.4,-19.13 337.52,-12.22"/>
</a>
</g>
</g>
<!-- Node5 -->
<g id="Node000005" class="node">
<title>Node5</title>
<g id="a_Node000005"><a xlink:title=" ">
<polygon fill="#e0e0e0" stroke="#999999" points="62.51,-74 13.51,-74 13.51,-55 62.51,-55 62.51,-74"/>
<text text-anchor="middle" x="38.01" y="-62" font-family="Helvetica,sans-Serif" font-size="10.00">cstdlib</text>
</a>
</g>
</g>
<!-- Node1&#45;&gt;Node5 -->
<g id="edge15_Node000001_Node000005" class="edge">
<title>Node1&#45;&gt;Node5</title>
<g id="a_edge15_Node000001_Node000005"><a xlink:title=" ">
<path fill="none" stroke="#63b8ff" d="M286.6,-164.93C254.39,-157.07 206.95,-144.34 167.01,-129 129.2,-114.47 87.49,-92.85 62.02,-78.96"/>
<polygon fill="#63b8ff" stroke="#63b8ff" points="63.54,-75.8 53.1,-74.05 60.17,-81.94 63.54,-75.8"/>
</a>
</g>
</g>
<!-- Node6 -->
<g id="Node000006" class="node">
<title>Node6</title>
<g id="a_Node000006"><a xlink:title=" ">
<polygon fill="#e0e0e0" stroke="#999999" points="447.01,-74 387.01,-74 387.01,-55 447.01,-55 447.01,-74"/>
<text text-anchor="middle" x="417.01" y="-62" font-family="Helvetica,sans-Serif" font-size="10.00">iostream</text>
</a>
</g>
</g>
<!-- Node1&#45;&gt;Node6 -->
<g id="edge16_Node000001_Node000006" class="edge">
<title>Node1&#45;&gt;Node6</title>
<g id="a_edge16_Node000001_Node000006"><a xlink:title=" ">
<path fill="none" stroke="#63b8ff" d="M331.62,-164.66C347.23,-146.54 383.07,-104.91 403,-81.77"/>
<polygon fill="#63b8ff" stroke="#63b8ff" points="405.68,-84.02 409.56,-74.16 400.38,-79.45 405.68,-84.02"/>
</a>
</g>
</g>
<!-- Node11 -->
<g id="Node000011" class="node">
<title>Node11</title>
<g id="a_Node000011"><a xlink:title=" ">
<polygon fill="#e0e0e0" stroke="#999999" points="568.51,-129 503.51,-129 503.51,-110 568.51,-110 568.51,-129"/>
<text text-anchor="middle" x="536.01" y="-117" font-family="Helvetica,sans-Serif" font-size="10.00">stdexcept</text>
</a>
</g>
</g>
<!-- Node1&#45;&gt;Node11 -->
<g id="edge17_Node000001_Node000011" class="edge">
<title>Node1&#45;&gt;Node11</title>
<g id="a_edge17_Node000001_Node000011"><a xlink:title=" ">
<path fill="none" stroke="#63b8ff" d="M358.07,-164.98C394.9,-155.78 453.65,-141.09 493.48,-131.13"/>
<polygon fill="#63b8ff" stroke="#63b8ff" points="494.57,-134.47 503.43,-128.65 492.88,-127.68 494.57,-134.47"/>
</a>
</g>
</g>
<!-- Node2&#45;&gt;Node3 -->
<g id="edge2_Node000002_Node000003" class="edge">
<title>Node2&#45;&gt;Node3</title>
<g id="a_edge2_Node000002_Node000003"><a xlink:title=" ">
<path fill="none" stroke="#63b8ff" d="M177.37,-109.94C153.85,-103.64 127.64,-92.75 110.01,-74 98.57,-61.83 93.99,-43.04 92.18,-29.05"/>
<polygon fill="#63b8ff" stroke="#63b8ff" points="95.66,-28.71 91.23,-19.08 88.69,-29.37 95.66,-28.71"/>
</a>
</g>
</g>
<!-- Node2&#45;&gt;Node4 -->
<g id="edge3_Node000002_Node000004" class="edge">
<title>Node2&#45;&gt;Node4</title>
<g id="a_edge3_Node000002_Node000004"><a xlink:title=" ">
<path fill="none" stroke="#63b8ff" d="M232.05,-109.62C233.91,-96.7 238.72,-72.36 250.01,-55 257.71,-43.17 269.45,-32.74 279.83,-24.96"/>
<polygon fill="#63b8ff" stroke="#63b8ff" points="281.99,-27.72 288.12,-19.07 277.94,-22.01 281.99,-27.72"/>
</a>
</g>
</g>
<!-- Node2&#45;&gt;Node5 -->
<g id="edge4_Node000002_Node000005" class="edge">
<title>Node2&#45;&gt;Node5</title>
<g id="a_edge4_Node000002_Node000005"><a xlink:title=" ">
<path fill="none" stroke="#63b8ff" d="M200,-109.98C165.19,-100.42 108.83,-84.95 72.61,-75"/>
<polygon fill="#63b8ff" stroke="#63b8ff" points="73.08,-71.5 62.52,-72.23 71.23,-78.25 73.08,-71.5"/>
</a>
</g>
</g>
<!-- Node2&#45;&gt;Node6 -->
<g id="edge5_Node000002_Node000006" class="edge">
<title>Node2&#45;&gt;Node6</title>
<g id="a_edge5_Node000002_Node000006"><a xlink:title=" ">
<path fill="none" stroke="#63b8ff" d="M260.9,-109.98C292.39,-101.01 342.18,-86.82 377.04,-76.89"/>
<polygon fill="#63b8ff" stroke="#63b8ff" points="378.24,-80.19 386.89,-74.08 376.32,-73.46 378.24,-80.19"/>
</a>
</g>
</g>
<!-- Node7 -->
<g id="Node000007" class="node">
<title>Node7</title>
<g id="a_Node000007"><a xlink:href="bytecode_8hpp.html" target="_top" xlink:title=" ">
<polygon fill="white" stroke="#666666" points="202.51,-74 119.51,-74 119.51,-55 202.51,-55 202.51,-74"/>
<text text-anchor="middle" x="161.01" y="-62" font-family="Helvetica,sans-Serif" font-size="10.00">bytecode.hpp</text>
</a>
</g>
</g>
<!-- Node2&#45;&gt;Node7 -->
<g id="edge6_Node000002_Node000007" class="edge">
<title>Node2&#45;&gt;Node7</title>
<g id="a_edge6_Node000002_Node000007"><a xlink:title=" ">
<path fill="none" stroke="#63b8ff" d="M219.77,-109.98C209.21,-102 193.21,-89.88 180.57,-80.31"/>
<polygon fill="#63b8ff" stroke="#63b8ff" points="182.55,-77.42 172.46,-74.17 178.32,-83 182.55,-77.42"/>
</a>
</g>
</g>
<!-- Node10 -->
<g id="Node000010" class="node">
<title>Node10</title>
<g id="a_Node000010"><a xlink:href="vmreg__defines_8hpp.html" target="_top" xlink:title=" ">
<polygon fill="white" stroke="#666666" points="369.01,-74 259.01,-74 259.01,-55 369.01,-55 369.01,-74"/>
<text text-anchor="middle" x="314.01" y="-62" font-family="Helvetica,sans-Serif" font-size="10.00">vmreg_defines.hpp</text>
</a>
</g>
</g>
<!-- Node2&#45;&gt;Node10 -->
<g id="edge11_Node000002_Node000010" class="edge">
<title>Node2&#45;&gt;Node10</title>
<g id="a_edge11_Node000002_Node000010"><a xlink:title=" ">
<path fill="none" stroke="#63b8ff" d="M244.35,-109.98C257.1,-101.84 276.56,-89.41 291.68,-79.76"/>
<polygon fill="#63b8ff" stroke="#63b8ff" points="293.89,-82.5 300.43,-74.17 290.12,-76.6 293.89,-82.5"/>
</a>
</g>
</g>
<!-- Node7&#45;&gt;Node3 -->
<g id="edge8_Node000007_Node000003" class="edge">
<title>Node7&#45;&gt;Node3</title>
<g id="a_edge8_Node000007_Node000003"><a xlink:title=" ">
<path fill="none" stroke="#63b8ff" d="M149.77,-54.98C139.21,-47 123.21,-34.88 110.57,-25.31"/>
<polygon fill="#63b8ff" stroke="#63b8ff" points="112.55,-22.42 102.46,-19.17 108.32,-28 112.55,-22.42"/>
</a>
</g>
</g>
<!-- Node7&#45;&gt;Node4 -->
<g id="edge7_Node000007_Node000004" class="edge">
<title>Node7&#45;&gt;Node4</title>
<g id="a_edge7_Node000007_Node000004"><a xlink:title=" ">
<path fill="none" stroke="#63b8ff" d="M183.67,-54.98C206.86,-46.27 243.13,-32.63 269.41,-22.75"/>
<polygon fill="#63b8ff" stroke="#63b8ff" points="270.82,-25.97 278.95,-19.17 268.35,-19.41 270.82,-25.97"/>
</a>
</g>
</g>
<!-- Node8 -->
<g id="Node000008" class="node">
<title>Node8</title>
<g id="a_Node000008"><a xlink:title=" ">
<polygon fill="#e0e0e0" stroke="#999999" points="181.01,-19 137.01,-19 137.01,0 181.01,0 181.01,-19"/>
<text text-anchor="middle" x="159.01" y="-7" font-family="Helvetica,sans-Serif" font-size="10.00">string</text>
</a>
</g>
</g>
<!-- Node7&#45;&gt;Node8 -->
<g id="edge9_Node000007_Node000008" class="edge">
<title>Node7&#45;&gt;Node8</title>
<g id="a_edge9_Node000007_Node000008"><a xlink:title=" ">
<path fill="none" stroke="#63b8ff" d="M160.68,-54.75C160.42,-47.8 160.04,-37.85 159.71,-29.13"/>
<polygon fill="#63b8ff" stroke="#63b8ff" points="163.21,-28.95 159.34,-19.09 156.22,-29.21 163.21,-28.95"/>
</a>
</g>
</g>
<!-- Node9 -->
<g id="Node000009" class="node">
<title>Node9</title>
<g id="a_Node000009"><a xlink:title=" ">
<polygon fill="#e0e0e0" stroke="#999999" points="246.51,-19 199.51,-19 199.51,0 246.51,0 246.51,-19"/>
<text text-anchor="middle" x="223.01" y="-7" font-family="Helvetica,sans-Serif" font-size="10.00">vector</text>
</a>
</g>
</g>
<!-- Node7&#45;&gt;Node9 -->
<g id="edge10_Node000007_Node000009" class="edge">
<title>Node7&#45;&gt;Node9</title>
<g id="a_edge10_Node000007_Node000009"><a xlink:title=" ">
<path fill="none" stroke="#63b8ff" d="M170.97,-54.98C180.14,-47.15 193.95,-35.34 205.04,-25.86"/>
<polygon fill="#63b8ff" stroke="#63b8ff" points="207.54,-28.33 212.87,-19.17 202.99,-23.01 207.54,-28.33"/>
</a>
</g>
</g>
<!-- Node10&#45;&gt;Node4 -->
<g id="edge12_Node000010_Node000004" class="edge">
<title>Node10&#45;&gt;Node4</title>
<g id="a_edge12_Node000010_Node000004"><a xlink:title=" ">
<path fill="none" stroke="#63b8ff" d="M312.03,-54.75C310.44,-47.72 308.15,-37.62 306.17,-28.84"/>
<polygon fill="#63b8ff" stroke="#63b8ff" points="309.58,-28.07 303.96,-19.09 302.75,-29.62 309.58,-28.07"/>
</a>
</g>
</g>
</g>
</svg>
