<?xml version="1.0" encoding="UTF-8" standalone="no"?>
<!DOCTYPE svg PUBLIC "-//W3C//DTD SVG 1.1//EN"
 "http://www.w3.org/Graphics/SVG/1.1/DTD/svg11.dtd">
<!-- Generated by graphviz version 2.43.0 (0)
 -->
<!-- Title: src/vm/heap.cpp Pages: 1 -->
<svg width="742pt" height="192pt"
 viewBox="0.00 0.00 742.04 192.00" xmlns="http://www.w3.org/2000/svg" xmlns:xlink="http://www.w3.org/1999/xlink">
<g id="graph0" class="graph" transform="scale(1 1) rotate(0) translate(4 188)">
<title>src/vm/heap.cpp</title>
<!-- Node1 -->
<g id="Node000001" class="node">
<title>Node1</title>
<g id="a_Node000001"><a xlink:title=" ">
<polygon fill="#999999" stroke="#666666" points="603.04,-184 506.04,-184 506.04,-165 603.04,-165 603.04,-184"/>
<text text-anchor="middle" x="554.54" y="-172" font-family="Helvetica,sans-Serif" font-size="10.00">src/vm/heap.cpp</text>
</a>
</g>
</g>
<!-- Node2 -->
<g id="Node000002" class="node">
<title>Node2</title>
<g id="a_Node000002"><a xlink:href="VirtualMachine_8hpp.html" target="_top" xlink:title=" ">
<polygon fill="white" stroke="#666666" points="384.04,-129 273.04,-129 273.04,-110 384.04,-110 384.04,-129"/>
<text text-anchor="middle" x="328.54" y="-117" font-family="Helvetica,sans-Serif" font-size="10.00">VirtualMachine.hpp</text>
</a>
</g>
</g>
<!-- Node1&#45;&gt;Node2 -->
<g id="edge1_Node000001_Node000002" class="edge">
<title>Node1&#45;&gt;Node2</title>
<g id="a_edge1_Node000001_Node000002"><a xlink:title=" ">
<path fill="none" stroke="#63b8ff" d="M518.23,-164.98C479.3,-155.86 417.38,-141.33 374.94,-131.38"/>
<polygon fill="#63b8ff" stroke="#63b8ff" points="375.67,-127.96 365.14,-129.08 374.07,-134.77 375.67,-127.96"/>
</a>
</g>
</g>
<!-- Node4 -->
<g id="Node000004" class="node">
<title>Node4</title>
<g id="a_Node000004"><a xlink:title=" ">
<polygon fill="#e0e0e0" stroke="#999999" points="87.04,-19 34.04,-19 34.04,0 87.04,0 87.04,-19"/>
<text text-anchor="middle" x="60.54" y="-7" font-family="Helvetica,sans-Serif" font-size="10.00">cstddef</text>
</a>
</g>
</g>
<!-- Node1&#45;&gt;Node4 -->
<g id="edge17_Node000001_Node000004" class="edge">
<title>Node1&#45;&gt;Node4</title>
<g id="a_edge17_Node000001_Node000004"><a xlink:title=" ">
<path fill="none" stroke="#63b8ff" d="M505.66,-172.44C382.94,-168.64 67.22,-151.38 4.54,-74 -9.72,-56.39 13.51,-36.96 34.24,-24.29"/>
<polygon fill="#63b8ff" stroke="#63b8ff" points="36.25,-27.17 43.16,-19.13 32.75,-21.11 36.25,-27.17"/>
</a>
</g>
</g>
<!-- Node5 -->
<g id="Node000005" class="node">
<title>Node5</title>
<g id="a_Node000005"><a xlink:title=" ">
<polygon fill="#e0e0e0" stroke="#999999" points="394.54,-19 344.54,-19 344.54,0 394.54,0 394.54,-19"/>
<text text-anchor="middle" x="369.54" y="-7" font-family="Helvetica,sans-Serif" font-size="10.00">cstdint</text>
</a>
</g>
</g>
<!-- Node1&#45;&gt;Node5 -->
<g id="edge18_Node000001_Node000005" class="edge">
<title>Node1&#45;&gt;Node5</title>
<g id="a_edge18_Node000001_Node000005"><a xlink:title=" ">
<path fill="none" stroke="#63b8ff" d="M566.32,-164.79C592.77,-144.21 652.22,-91.57 621.54,-55 594.28,-22.5 467.48,-13.73 404.8,-11.36"/>
<polygon fill="#63b8ff" stroke="#63b8ff" points="404.71,-7.86 394.6,-11.02 404.47,-14.86 404.71,-7.86"/>
</a>
</g>
</g>
<!-- Node6 -->
<g id="Node000006" class="node">
<title>Node6</title>
<g id="a_Node000006"><a xlink:title=" ">
<polygon fill="#e0e0e0" stroke="#999999" points="534.04,-74 485.04,-74 485.04,-55 534.04,-55 534.04,-74"/>
<text text-anchor="middle" x="509.54" y="-62" font-family="Helvetica,sans-Serif" font-size="10.00">cstdlib</text>
</a>
</g>
</g>
<!-- Node1&#45;&gt;Node6 -->
<g id="edge19_Node000001_Node000006" class="edge">
<title>Node1&#45;&gt;Node6</title>
<g id="a_edge19_Node000001_Node000006"><a xlink:title=" ">
<path fill="none" stroke="#63b8ff" d="M550.86,-164.66C543.5,-147.01 526.87,-107.09 517.1,-83.64"/>
<polygon fill="#63b8ff" stroke="#63b8ff" points="520.23,-82.04 513.15,-74.16 513.76,-84.74 520.23,-82.04"/>
</a>
</g>
</g>
<!-- Node7 -->
<g id="Node000007" class="node">
<title>Node7</title>
<g id="a_Node000007"><a xlink:title=" ">
<polygon fill="#e0e0e0" stroke="#999999" points="612.54,-74 552.54,-74 552.54,-55 612.54,-55 612.54,-74"/>
<text text-anchor="middle" x="582.54" y="-62" font-family="Helvetica,sans-Serif" font-size="10.00">iostream</text>
</a>
</g>
</g>
<!-- Node1&#45;&gt;Node7 -->
<g id="edge20_Node000001_Node000007" class="edge">
<title>Node1&#45;&gt;Node7</title>
<g id="a_edge20_Node000001_Node000007"><a xlink:title=" ">
<path fill="none" stroke="#63b8ff" d="M556.83,-164.66C561.39,-147.09 571.67,-107.45 577.76,-83.95"/>
<polygon fill="#63b8ff" stroke="#63b8ff" points="581.17,-84.72 580.3,-74.16 574.4,-82.96 581.17,-84.72"/>
</a>
</g>
</g>
<!-- Node13 -->
<g id="Node000013" class="node">
<title>Node13</title>
<g id="a_Node000013"><a xlink:title=" ">
<polygon fill="#e0e0e0" stroke="#999999" points="734.04,-129 669.04,-129 669.04,-110 734.04,-110 734.04,-129"/>
<text text-anchor="middle" x="701.54" y="-117" font-family="Helvetica,sans-Serif" font-size="10.00">stdexcept</text>
</a>
</g>
</g>
<!-- Node1&#45;&gt;Node13 -->
<g id="edge21_Node000001_Node000013" class="edge">
<title>Node1&#45;&gt;Node13</title>
<g id="a_edge21_Node000001_Node000013"><a xlink:title=" ">
<path fill="none" stroke="#63b8ff" d="M578.16,-164.98C602.45,-156.23 640.49,-142.51 667.91,-132.62"/>
<polygon fill="#63b8ff" stroke="#63b8ff" points="669.27,-135.85 677.49,-129.17 666.9,-129.27 669.27,-135.85"/>
</a>
</g>
</g>
<!-- Node3 -->
<g id="Node000003" class="node">
<title>Node3</title>
<g id="a_Node000003"><a xlink:title=" ">
<polygon fill="#e0e0e0" stroke="#999999" points="71.54,-74 21.54,-74 21.54,-55 71.54,-55 71.54,-74"/>
<text text-anchor="middle" x="46.54" y="-62" font-family="Helvetica,sans-Serif" font-size="10.00">chrono</text>
</a>
</g>
</g>
<!-- Node2&#45;&gt;Node3 -->
<g id="edge2_Node000002_Node000003" class="edge">
<title>Node2&#45;&gt;Node3</title>
<g id="a_edge2_Node000002_Node000003"><a xlink:title=" ">
<path fill="none" stroke="#63b8ff" d="M275.12,-109.98C227.02,-102.08 154.17,-89.5 81.93,-74.18"/>
<polygon fill="#63b8ff" stroke="#63b8ff" points="82.26,-70.67 71.75,-72 80.79,-77.52 82.26,-70.67"/>
</a>
</g>
</g>
<!-- Node2&#45;&gt;Node4 -->
<g id="edge3_Node000002_Node000004" class="edge">
<title>Node2&#45;&gt;Node4</title>
<g id="a_edge3_Node000002_Node000004"><a xlink:title=" ">
<path fill="none" stroke="#63b8ff" d="M272.88,-119.03C191.38,-118.49 45.61,-112.05 12.54,-74 -1.55,-57.79 19.15,-37.86 37.6,-24.7"/>
<polygon fill="#63b8ff" stroke="#63b8ff" points="39.72,-27.5 46.05,-19 35.8,-21.7 39.72,-27.5"/>
</a>
</g>
</g>
<!-- Node2&#45;&gt;Node5 -->
<g id="edge4_Node000002_Node000005" class="edge">
<title>Node2&#45;&gt;Node5</title>
<g id="a_edge4_Node000002_Node000005"><a xlink:title=" ">
<path fill="none" stroke="#63b8ff" d="M330.67,-109.72C333.78,-97.31 340.04,-74.06 347.54,-55 351.09,-45.98 355.77,-36.29 359.9,-28.27"/>
<polygon fill="#63b8ff" stroke="#63b8ff" points="363.13,-29.64 364.71,-19.17 356.94,-26.37 363.13,-29.64"/>
</a>
</g>
</g>
<!-- Node2&#45;&gt;Node6 -->
<g id="edge5_Node000002_Node000006" class="edge">
<title>Node2&#45;&gt;Node6</title>
<g id="a_edge5_Node000002_Node000006"><a xlink:title=" ">
<path fill="none" stroke="#63b8ff" d="M357.62,-109.98C389.59,-100.62 440.92,-85.59 474.93,-75.63"/>
<polygon fill="#63b8ff" stroke="#63b8ff" points="476.28,-78.89 484.89,-72.72 474.31,-72.17 476.28,-78.89"/>
</a>
</g>
</g>
<!-- Node2&#45;&gt;Node7 -->
<g id="edge6_Node000002_Node000007" class="edge">
<title>Node2&#45;&gt;Node7</title>
<g id="a_edge6_Node000002_Node000007"><a xlink:title=" ">
<path fill="none" stroke="#63b8ff" d="M369.98,-109.94C413.09,-101.02 482.57,-86.61 542.54,-74 542.64,-73.98 542.74,-73.96 542.84,-73.94"/>
<polygon fill="#63b8ff" stroke="#63b8ff" points="543.34,-77.41 552.4,-71.92 541.9,-70.56 543.34,-77.41"/>
</a>
</g>
</g>
<!-- Node8 -->
<g id="Node000008" class="node">
<title>Node8</title>
<g id="a_Node000008"><a xlink:href="bytecode_8hpp.html" target="_top" xlink:title=" ">
<polygon fill="white" stroke="#666666" points="300.04,-74 217.04,-74 217.04,-55 300.04,-55 300.04,-74"/>
<text text-anchor="middle" x="258.54" y="-62" font-family="Helvetica,sans-Serif" font-size="10.00">bytecode.hpp</text>
</a>
</g>
</g>
<!-- Node2&#45;&gt;Node8 -->
<g id="edge7_Node000002_Node000008" class="edge">
<title>Node2&#45;&gt;Node8</title>
<g id="a_edge7_Node000002_Node000008"><a xlink:title=" ">
<path fill="none" stroke="#63b8ff" d="M317.29,-109.98C306.74,-102 290.74,-89.88 278.1,-80.31"/>
<polygon fill="#63b8ff" stroke="#63b8ff" points="280.08,-77.42 269.99,-74.17 275.85,-83 280.08,-77.42"/>
</a>
</g>
</g>
<!-- Node11 -->
<g id="Node000011" class="node">
<title>Node11</title>
<g id="a_Node000011"><a xlink:href="vmparams_8hpp.html" target="_top" xlink:title=" ">
<polygon fill="white" stroke="#666666" points="199.04,-74 90.04,-74 90.04,-55 199.04,-55 199.04,-74"/>
<text text-anchor="middle" x="144.54" y="-62" font-family="Helvetica,sans-Serif" font-size="10.00">vm/vmparams.hpp</text>
</a>
</g>
</g>
<!-- Node2&#45;&gt;Node11 -->
<g id="edge12_Node000002_Node000011" class="edge">
<title>Node2&#45;&gt;Node11</title>
<g id="a_edge12_Node000002_Node000011"><a xlink:title=" ">
<path fill="none" stroke="#63b8ff" d="M298.98,-109.98C267.82,-101.01 218.57,-86.82 184.08,-76.89"/>
<polygon fill="#63b8ff" stroke="#63b8ff" points="184.91,-73.49 174.34,-74.08 182.98,-80.21 184.91,-73.49"/>
</a>
</g>
</g>
<!-- Node12 -->
<g id="Node000012" class="node">
<title>Node12</title>
<g id="a_Node000012"><a xlink:href="vmreg__defines_8hpp.html" target="_top" xlink:title=" ">
<polygon fill="white" stroke="#666666" points="466.54,-74 356.54,-74 356.54,-55 466.54,-55 466.54,-74"/>
<text text-anchor="middle" x="411.54" y="-62" font-family="Helvetica,sans-Serif" font-size="10.00">vmreg_defines.hpp</text>
</a>
</g>
</g>
<!-- Node2&#45;&gt;Node12 -->
<g id="edge15_Node000002_Node000012" class="edge">
<title>Node2&#45;&gt;Node12</title>
<g id="a_edge15_Node000002_Node000012"><a xlink:title=" ">
<path fill="none" stroke="#63b8ff" d="M341.88,-109.98C354.63,-101.84 374.09,-89.41 389.21,-79.76"/>
<polygon fill="#63b8ff" stroke="#63b8ff" points="391.42,-82.5 397.96,-74.17 387.65,-76.6 391.42,-82.5"/>
</a>
</g>
</g>
<!-- Node8&#45;&gt;Node4 -->
<g id="edge9_Node000008_Node000004" class="edge">
<title>Node8&#45;&gt;Node4</title>
<g id="a_edge9_Node000008_Node000004"><a xlink:title=" ">
<path fill="none" stroke="#63b8ff" d="M226.73,-54.98C191.36,-45.52 134.32,-30.25 97.12,-20.29"/>
<polygon fill="#63b8ff" stroke="#63b8ff" points="97.76,-16.84 87.2,-17.63 95.95,-23.6 97.76,-16.84"/>
</a>
</g>
</g>
<!-- Node8&#45;&gt;Node5 -->
<g id="edge8_Node000008_Node000005" class="edge">
<title>Node8&#45;&gt;Node5</title>
<g id="a_edge8_Node000008_Node000005"><a xlink:title=" ">
<path fill="none" stroke="#63b8ff" d="M276.37,-54.98C294.15,-46.5 321.69,-33.35 342.22,-23.54"/>
<polygon fill="#63b8ff" stroke="#63b8ff" points="343.87,-26.64 351.38,-19.17 340.85,-20.32 343.87,-26.64"/>
</a>
</g>
</g>
<!-- Node9 -->
<g id="Node000009" class="node">
<title>Node9</title>
<g id="a_Node000009"><a xlink:title=" ">
<polygon fill="#e0e0e0" stroke="#999999" points="191.54,-19 147.54,-19 147.54,0 191.54,0 191.54,-19"/>
<text text-anchor="middle" x="169.54" y="-7" font-family="Helvetica,sans-Serif" font-size="10.00">string</text>
</a>
</g>
</g>
<!-- Node8&#45;&gt;Node9 -->
<g id="edge10_Node000008_Node000009" class="edge">
<title>Node8&#45;&gt;Node9</title>
<g id="a_edge10_Node000008_Node000009"><a xlink:title=" ">
<path fill="none" stroke="#63b8ff" d="M244.24,-54.98C230.44,-46.77 209.3,-34.18 193.03,-24.49"/>
<polygon fill="#63b8ff" stroke="#63b8ff" points="194.48,-21.28 184.1,-19.17 190.9,-27.29 194.48,-21.28"/>
</a>
</g>
</g>
<!-- Node10 -->
<g id="Node000010" class="node">
<title>Node10</title>
<g id="a_Node000010"><a xlink:title=" ">
<polygon fill="#e0e0e0" stroke="#999999" points="282.04,-19 235.04,-19 235.04,0 282.04,0 282.04,-19"/>
<text text-anchor="middle" x="258.54" y="-7" font-family="Helvetica,sans-Serif" font-size="10.00">vector</text>
</a>
</g>
</g>
<!-- Node8&#45;&gt;Node10 -->
<g id="edge11_Node000008_Node000010" class="edge">
<title>Node8&#45;&gt;Node10</title>
<g id="a_edge11_Node000008_Node000010"><a xlink:title=" ">
<path fill="none" stroke="#63b8ff" d="M258.54,-54.75C258.54,-47.8 258.54,-37.85 258.54,-29.13"/>
<polygon fill="#63b8ff" stroke="#63b8ff" points="262.04,-29.09 258.54,-19.09 255.04,-29.09 262.04,-29.09"/>
</a>
</g>
</g>
<!-- Node11&#45;&gt;Node4 -->
<g id="edge13_Node000011_Node000004" class="edge">
<title>Node11&#45;&gt;Node4</title>
<g id="a_edge13_Node000011_Node000004"><a xlink:title=" ">
<path fill="none" stroke="#63b8ff" d="M131.04,-54.98C118.14,-46.84 98.44,-34.41 83.14,-24.76"/>
<polygon fill="#63b8ff" stroke="#63b8ff" points="84.61,-21.55 74.28,-19.17 80.87,-27.47 84.61,-21.55"/>
</a>
</g>
</g>
<!-- Node11&#45;&gt;Node9 -->
<g id="edge14_Node000011_Node000009" class="edge">
<title>Node11&#45;&gt;Node9</title>
<g id="a_edge14_Node000011_Node000009"><a xlink:title=" ">
<path fill="none" stroke="#63b8ff" d="M148.67,-54.75C152.05,-47.57 156.96,-37.18 161.16,-28.27"/>
<polygon fill="#63b8ff" stroke="#63b8ff" points="164.39,-29.63 165.49,-19.09 158.06,-26.64 164.39,-29.63"/>
</a>
</g>
</g>
<!-- Node12&#45;&gt;Node5 -->
<g id="edge16_Node000012_Node000005" class="edge">
<title>Node12&#45;&gt;Node5</title>
<g id="a_edge16_Node000012_Node000005"><a xlink:title=" ">
<path fill="none" stroke="#63b8ff" d="M404.61,-54.75C398.67,-47.26 389.97,-36.28 382.72,-27.13"/>
<polygon fill="#63b8ff" stroke="#63b8ff" points="385.3,-24.75 376.35,-19.09 379.81,-29.1 385.3,-24.75"/>
</a>
</g>
</g>
</g>
</svg>
