<?xml version="1.0" encoding="UTF-8" standalone="no"?>
<!DOCTYPE svg PUBLIC "-//W3C//DTD SVG 1.1//EN"
 "http://www.w3.org/Graphics/SVG/1.1/DTD/svg11.dtd">
<!-- Generated by graphviz version 2.43.0 (0)
 -->
<!-- Title: src/compiler/instruction.cpp Pages: 1 -->
<svg width="554pt" height="192pt"
 viewBox="0.00 0.00 553.92 192.00" xmlns="http://www.w3.org/2000/svg" xmlns:xlink="http://www.w3.org/1999/xlink">
<g id="graph0" class="graph" transform="scale(1 1) rotate(0) translate(4 188)">
<title>src/compiler/instruction.cpp</title>
<!-- Node1 -->
<g id="Node000001" class="node">
<title>Node1</title>
<g id="a_Node000001"><a xlink:title=" ">
<polygon fill="#999999" stroke="#666666" points="382.42,-184 230.42,-184 230.42,-165 382.42,-165 382.42,-184"/>
<text text-anchor="middle" x="306.42" y="-172" font-family="Helvetica,sans-Serif" font-size="10.00">src/compiler/instruction.cpp</text>
</a>
</g>
</g>
<!-- Node2 -->
<g id="Node000002" class="node">
<title>Node2</title>
<g id="a_Node000002"><a xlink:href="bytecode_8hpp.html" target="_top" xlink:title=" ">
<polygon fill="white" stroke="#666666" points="497.92,-74 414.92,-74 414.92,-55 497.92,-55 497.92,-74"/>
<text text-anchor="middle" x="456.42" y="-62" font-family="Helvetica,sans-Serif" font-size="10.00">bytecode.hpp</text>
</a>
</g>
</g>
<!-- Node1&#45;&gt;Node2 -->
<g id="edge1_Node000001_Node000002" class="edge">
<title>Node1&#45;&gt;Node2</title>
<g id="a_edge1_Node000001_Node000002"><a xlink:title=" ">
<path fill="none" stroke="#63b8ff" d="M311.94,-164.63C320.63,-151.27 338.66,-125.87 359.42,-110 377.6,-96.11 400.81,-85.26 419.96,-77.76"/>
<polygon fill="#63b8ff" stroke="#63b8ff" points="421.44,-80.94 429.57,-74.14 418.97,-74.39 421.44,-80.94"/>
</a>
</g>
</g>
<!-- Node3 -->
<g id="Node000003" class="node">
<title>Node3</title>
<g id="a_Node000003"><a xlink:title=" ">
<polygon fill="#e0e0e0" stroke="#999999" points="108.42,-19 58.42,-19 58.42,0 108.42,0 108.42,-19"/>
<text text-anchor="middle" x="83.42" y="-7" font-family="Helvetica,sans-Serif" font-size="10.00">cstdint</text>
</a>
</g>
</g>
<!-- Node1&#45;&gt;Node3 -->
<g id="edge19_Node000001_Node000003" class="edge">
<title>Node1&#45;&gt;Node3</title>
<g id="a_edge19_Node000001_Node000003"><a xlink:title=" ">
<path fill="none" stroke="#63b8ff" d="M230.35,-172.02C158.93,-166.07 55.62,-144.78 4.42,-74 -11.54,-51.94 20.67,-33.34 48.64,-22.09"/>
<polygon fill="#63b8ff" stroke="#63b8ff" points="50.17,-25.25 58.27,-18.42 47.68,-18.71 50.17,-25.25"/>
</a>
</g>
</g>
<!-- Node8 -->
<g id="Node000008" class="node">
<title>Node8</title>
<g id="a_Node000008"><a xlink:href="compiler_8hpp.html" target="_top" xlink:title=" ">
<polygon fill="white" stroke="#666666" points="312.42,-129 232.42,-129 232.42,-110 312.42,-110 312.42,-129"/>
<text text-anchor="middle" x="272.42" y="-117" font-family="Helvetica,sans-Serif" font-size="10.00">compiler.hpp</text>
</a>
</g>
</g>
<!-- Node1&#45;&gt;Node8 -->
<g id="edge7_Node000001_Node000008" class="edge">
<title>Node1&#45;&gt;Node8</title>
<g id="a_edge7_Node000001_Node000008"><a xlink:title=" ">
<path fill="none" stroke="#63b8ff" d="M300.81,-164.75C296.1,-157.42 289.25,-146.73 283.45,-137.7"/>
<polygon fill="#63b8ff" stroke="#63b8ff" points="286.28,-135.62 277.93,-129.09 280.39,-139.4 286.28,-135.62"/>
</a>
</g>
</g>
<!-- Node13 -->
<g id="Node000013" class="node">
<title>Node13</title>
<g id="a_Node000013"><a xlink:title=" ">
<polygon fill="#e0e0e0" stroke="#999999" points="418.42,-129 368.42,-129 368.42,-110 418.42,-110 418.42,-129"/>
<text text-anchor="middle" x="393.42" y="-117" font-family="Helvetica,sans-Serif" font-size="10.00">cstring</text>
</a>
</g>
</g>
<!-- Node1&#45;&gt;Node13 -->
<g id="edge20_Node000001_Node000013" class="edge">
<title>Node1&#45;&gt;Node13</title>
<g id="a_edge20_Node000001_Node000013"><a xlink:title=" ">
<path fill="none" stroke="#63b8ff" d="M320.4,-164.98C333.89,-156.77 354.56,-144.18 370.46,-134.49"/>
<polygon fill="#63b8ff" stroke="#63b8ff" points="372.47,-137.36 379.19,-129.17 368.83,-131.38 372.47,-137.36"/>
</a>
</g>
</g>
<!-- Node2&#45;&gt;Node3 -->
<g id="edge2_Node000002_Node000003" class="edge">
<title>Node2&#45;&gt;Node3</title>
<g id="a_edge2_Node000002_Node000003"><a xlink:title=" ">
<path fill="none" stroke="#63b8ff" d="M414.7,-56.31C411.9,-55.85 409.12,-55.42 406.42,-55 301.92,-38.92 177.96,-22.62 118.57,-14.97"/>
<polygon fill="#63b8ff" stroke="#63b8ff" points="118.95,-11.49 108.59,-13.69 118.06,-18.44 118.95,-11.49"/>
</a>
</g>
</g>
<!-- Node4 -->
<g id="Node000004" class="node">
<title>Node4</title>
<g id="a_Node000004"><a xlink:title=" ">
<polygon fill="#e0e0e0" stroke="#999999" points="268.92,-19 215.92,-19 215.92,0 268.92,0 268.92,-19"/>
<text text-anchor="middle" x="242.42" y="-7" font-family="Helvetica,sans-Serif" font-size="10.00">cstddef</text>
</a>
</g>
</g>
<!-- Node2&#45;&gt;Node4 -->
<g id="edge3_Node000002_Node000004" class="edge">
<title>Node2&#45;&gt;Node4</title>
<g id="a_edge3_Node000002_Node000004"><a xlink:title=" ">
<path fill="none" stroke="#63b8ff" d="M422.04,-54.98C382.8,-45.27 318.9,-29.44 278.84,-19.52"/>
<polygon fill="#63b8ff" stroke="#63b8ff" points="279.49,-16.08 268.95,-17.07 277.81,-22.87 279.49,-16.08"/>
</a>
</g>
</g>
<!-- Node5 -->
<g id="Node000005" class="node">
<title>Node5</title>
<g id="a_Node000005"><a xlink:title=" ">
<polygon fill="#e0e0e0" stroke="#999999" points="331.42,-19 287.42,-19 287.42,0 331.42,0 331.42,-19"/>
<text text-anchor="middle" x="309.42" y="-7" font-family="Helvetica,sans-Serif" font-size="10.00">string</text>
</a>
</g>
</g>
<!-- Node2&#45;&gt;Node5 -->
<g id="edge4_Node000002_Node000005" class="edge">
<title>Node2&#45;&gt;Node5</title>
<g id="a_edge4_Node000002_Node000005"><a xlink:title=" ">
<path fill="none" stroke="#63b8ff" d="M432.8,-54.98C407.94,-46.02 368.65,-31.86 341.11,-21.92"/>
<polygon fill="#63b8ff" stroke="#63b8ff" points="342.13,-18.57 331.54,-18.47 339.76,-25.16 342.13,-18.57"/>
</a>
</g>
</g>
<!-- Node6 -->
<g id="Node000006" class="node">
<title>Node6</title>
<g id="a_Node000006"><a xlink:title=" ">
<polygon fill="#e0e0e0" stroke="#999999" points="545.92,-19 498.92,-19 498.92,0 545.92,0 545.92,-19"/>
<text text-anchor="middle" x="522.42" y="-7" font-family="Helvetica,sans-Serif" font-size="10.00">vector</text>
</a>
</g>
</g>
<!-- Node2&#45;&gt;Node6 -->
<g id="edge5_Node000002_Node000006" class="edge">
<title>Node2&#45;&gt;Node6</title>
<g id="a_edge5_Node000002_Node000006"><a xlink:title=" ">
<path fill="none" stroke="#63b8ff" d="M467.03,-54.98C476.88,-47.07 491.77,-35.11 503.64,-25.58"/>
<polygon fill="#63b8ff" stroke="#63b8ff" points="506.02,-28.16 511.63,-19.17 501.64,-22.7 506.02,-28.16"/>
</a>
</g>
</g>
<!-- Node7 -->
<g id="Node000007" class="node">
<title>Node7</title>
<g id="a_Node000007"><a xlink:title=" ">
<polygon fill="#e0e0e0" stroke="#999999" points="477.42,-19 435.42,-19 435.42,0 477.42,0 477.42,-19"/>
<text text-anchor="middle" x="456.42" y="-7" font-family="Helvetica,sans-Serif" font-size="10.00">array</text>
</a>
</g>
</g>
<!-- Node2&#45;&gt;Node7 -->
<g id="edge6_Node000002_Node000007" class="edge">
<title>Node2&#45;&gt;Node7</title>
<g id="a_edge6_Node000002_Node000007"><a xlink:title=" ">
<path fill="none" stroke="#63b8ff" d="M456.42,-54.75C456.42,-47.8 456.42,-37.85 456.42,-29.13"/>
<polygon fill="#63b8ff" stroke="#63b8ff" points="459.92,-29.09 456.42,-19.09 452.92,-29.09 459.92,-29.09"/>
</a>
</g>
</g>
<!-- Node8&#45;&gt;Node2 -->
<g id="edge8_Node000008_Node000002" class="edge">
<title>Node8&#45;&gt;Node2</title>
<g id="a_edge8_Node000008_Node000002"><a xlink:title=" ">
<path fill="none" stroke="#63b8ff" d="M301.99,-109.98C333.14,-101.01 382.4,-86.82 416.88,-76.89"/>
<polygon fill="#63b8ff" stroke="#63b8ff" points="417.99,-80.21 426.63,-74.08 416.05,-73.49 417.99,-80.21"/>
</a>
</g>
</g>
<!-- Node8&#45;&gt;Node3 -->
<g id="edge13_Node000008_Node000003" class="edge">
<title>Node8&#45;&gt;Node3</title>
<g id="a_edge13_Node000008_Node000003"><a xlink:title=" ">
<path fill="none" stroke="#63b8ff" d="M232.22,-117.69C166.37,-115.41 40.06,-106.78 12.42,-74 -4.1,-54.41 25.4,-35.27 51.26,-23.21"/>
<polygon fill="#63b8ff" stroke="#63b8ff" points="52.8,-26.35 60.53,-19.1 49.96,-19.95 52.8,-26.35"/>
</a>
</g>
</g>
<!-- Node8&#45;&gt;Node5 -->
<g id="edge15_Node000008_Node000005" class="edge">
<title>Node8&#45;&gt;Node5</title>
<g id="a_edge15_Node000008_Node000005"><a xlink:title=" ">
<path fill="none" stroke="#63b8ff" d="M275.45,-109.66C281.5,-92.01 295.17,-52.09 303.21,-28.64"/>
<polygon fill="#63b8ff" stroke="#63b8ff" points="306.53,-29.75 306.46,-19.16 299.9,-27.48 306.53,-29.75"/>
</a>
</g>
</g>
<!-- Node8&#45;&gt;Node6 -->
<g id="edge17_Node000008_Node000006" class="edge">
<title>Node8&#45;&gt;Node6</title>
<g id="a_edge17_Node000008_Node000006"><a xlink:title=" ">
<path fill="none" stroke="#63b8ff" d="M312.65,-113.3C376.05,-104.74 493.49,-87.33 507.42,-74 519.31,-62.63 522.54,-43.74 523.11,-29.5"/>
<polygon fill="#63b8ff" stroke="#63b8ff" points="526.61,-29.33 523.11,-19.33 519.61,-29.33 526.61,-29.33"/>
</a>
</g>
</g>
<!-- Node9 -->
<g id="Node000009" class="node">
<title>Node9</title>
<g id="a_Node000009"><a xlink:href="types_8hpp.html" target="_top" xlink:title=" ">
<polygon fill="white" stroke="#666666" points="274.92,-74 209.92,-74 209.92,-55 274.92,-55 274.92,-74"/>
<text text-anchor="middle" x="242.42" y="-62" font-family="Helvetica,sans-Serif" font-size="10.00">types.hpp</text>
</a>
</g>
</g>
<!-- Node8&#45;&gt;Node9 -->
<g id="edge9_Node000008_Node000009" class="edge">
<title>Node8&#45;&gt;Node9</title>
<g id="a_edge9_Node000008_Node000009"><a xlink:title=" ">
<path fill="none" stroke="#63b8ff" d="M267.47,-109.75C263.36,-102.49 257.4,-91.95 252.32,-82.98"/>
<polygon fill="#63b8ff" stroke="#63b8ff" points="255.26,-81.07 247.28,-74.09 249.16,-84.52 255.26,-81.07"/>
</a>
</g>
</g>
<!-- Node10 -->
<g id="Node000010" class="node">
<title>Node10</title>
<g id="a_Node000010"><a xlink:title=" ">
<polygon fill="#e0e0e0" stroke="#999999" points="396.92,-74 331.92,-74 331.92,-55 396.92,-55 396.92,-74"/>
<text text-anchor="middle" x="364.42" y="-62" font-family="Helvetica,sans-Serif" font-size="10.00">exception</text>
</a>
</g>
</g>
<!-- Node8&#45;&gt;Node10 -->
<g id="edge14_Node000008_Node000010" class="edge">
<title>Node8&#45;&gt;Node10</title>
<g id="a_edge14_Node000008_Node000010"><a xlink:title=" ">
<path fill="none" stroke="#63b8ff" d="M287.2,-109.98C301.6,-101.69 323.73,-88.94 340.61,-79.22"/>
<polygon fill="#63b8ff" stroke="#63b8ff" points="342.45,-82.19 349.37,-74.17 338.96,-76.13 342.45,-82.19"/>
</a>
</g>
</g>
<!-- Node11 -->
<g id="Node000011" class="node">
<title>Node11</title>
<g id="a_Node000011"><a xlink:title=" ">
<polygon fill="#e0e0e0" stroke="#999999" points="114.92,-74 21.92,-74 21.92,-55 114.92,-55 114.92,-74"/>
<text text-anchor="middle" x="68.42" y="-62" font-family="Helvetica,sans-Serif" font-size="10.00">unordered_map</text>
</a>
</g>
</g>
<!-- Node8&#45;&gt;Node11 -->
<g id="edge16_Node000008_Node000011" class="edge">
<title>Node8&#45;&gt;Node11</title>
<g id="a_edge16_Node000008_Node000011"><a xlink:title=" ">
<path fill="none" stroke="#63b8ff" d="M239.65,-109.98C204.8,-100.93 149.56,-86.58 111.28,-76.64"/>
<polygon fill="#63b8ff" stroke="#63b8ff" points="112.01,-73.21 101.46,-74.08 110.25,-79.98 112.01,-73.21"/>
</a>
</g>
</g>
<!-- Node12 -->
<g id="Node000012" class="node">
<title>Node12</title>
<g id="a_Node000012"><a xlink:title=" ">
<polygon fill="#e0e0e0" stroke="#999999" points="191.42,-74 133.42,-74 133.42,-55 191.42,-55 191.42,-74"/>
<text text-anchor="middle" x="162.42" y="-62" font-family="Helvetica,sans-Serif" font-size="10.00">memory</text>
</a>
</g>
</g>
<!-- Node8&#45;&gt;Node12 -->
<g id="edge18_Node000008_Node000012" class="edge">
<title>Node8&#45;&gt;Node12</title>
<g id="a_edge18_Node000008_Node000012"><a xlink:title=" ">
<path fill="none" stroke="#63b8ff" d="M254.75,-109.98C237.13,-101.5 209.84,-88.35 189.5,-78.54"/>
<polygon fill="#63b8ff" stroke="#63b8ff" points="190.95,-75.36 180.42,-74.17 187.91,-81.66 190.95,-75.36"/>
</a>
</g>
</g>
<!-- Node9&#45;&gt;Node3 -->
<g id="edge11_Node000009_Node000003" class="edge">
<title>Node9&#45;&gt;Node3</title>
<g id="a_edge11_Node000009_Node000003"><a xlink:title=" ">
<path fill="none" stroke="#63b8ff" d="M216.88,-54.98C190.14,-46.07 147.99,-32.02 118.22,-22.1"/>
<polygon fill="#63b8ff" stroke="#63b8ff" points="119.24,-18.75 108.64,-18.91 117.02,-25.39 119.24,-18.75"/>
</a>
</g>
</g>
<!-- Node9&#45;&gt;Node4 -->
<g id="edge10_Node000009_Node000004" class="edge">
<title>Node9&#45;&gt;Node4</title>
<g id="a_edge10_Node000009_Node000004"><a xlink:title=" ">
<path fill="none" stroke="#63b8ff" d="M242.42,-54.75C242.42,-47.8 242.42,-37.85 242.42,-29.13"/>
<polygon fill="#63b8ff" stroke="#63b8ff" points="245.92,-29.09 242.42,-19.09 238.92,-29.09 245.92,-29.09"/>
</a>
</g>
</g>
<!-- Node9&#45;&gt;Node5 -->
<g id="edge12_Node000009_Node000005" class="edge">
<title>Node9&#45;&gt;Node5</title>
<g id="a_edge12_Node000009_Node000005"><a xlink:title=" ">
<path fill="none" stroke="#63b8ff" d="M253.19,-54.98C263.19,-47.07 278.31,-35.11 290.35,-25.58"/>
<polygon fill="#63b8ff" stroke="#63b8ff" points="292.79,-28.12 298.46,-19.17 288.45,-22.63 292.79,-28.12"/>
</a>
</g>
</g>
</g>
</svg>
