<?xml version="1.0" encoding="UTF-8" standalone="no"?>
<!DOCTYPE svg PUBLIC "-//W3C//DTD SVG 1.1//EN"
 "http://www.w3.org/Graphics/SVG/1.1/DTD/svg11.dtd">
<!-- Generated by graphviz version 2.43.0 (0)
 -->
<!-- Title: src/compiler/instruction.cpp Pages: 1 -->
<svg width="571pt" height="192pt"
 viewBox="0.00 0.00 570.50 192.00" xmlns="http://www.w3.org/2000/svg" xmlns:xlink="http://www.w3.org/1999/xlink">
<g id="graph0" class="graph" transform="scale(1 1) rotate(0) translate(4 188)">
<title>src/compiler/instruction.cpp</title>
<!-- Node1 -->
<g id="Node000001" class="node">
<title>Node1</title>
<g id="a_Node000001"><a xlink:title=" ">
<polygon fill="#999999" stroke="#666666" points="464.5,-184 312.5,-184 312.5,-165 464.5,-165 464.5,-184"/>
<text text-anchor="middle" x="388.5" y="-172" font-family="Helvetica,sans-Serif" font-size="10.00">src/compiler/instruction.cpp</text>
</a>
</g>
</g>
<!-- Node2 -->
<g id="Node000002" class="node">
<title>Node2</title>
<g id="a_Node000002"><a xlink:href="bytecode_8hpp.html" target="_top" xlink:title=" ">
<polygon fill="white" stroke="#666666" points="430,-74 347,-74 347,-55 430,-55 430,-74"/>
<text text-anchor="middle" x="388.5" y="-62" font-family="Helvetica,sans-Serif" font-size="10.00">bytecode.hpp</text>
</a>
</g>
</g>
<!-- Node1&#45;&gt;Node2 -->
<g id="edge1_Node000001_Node000002" class="edge">
<title>Node1&#45;&gt;Node2</title>
<g id="a_edge1_Node000001_Node000002"><a xlink:title=" ">
<path fill="none" stroke="#63b8ff" d="M388.5,-164.66C388.5,-147.17 388.5,-107.8 388.5,-84.27"/>
<polygon fill="#63b8ff" stroke="#63b8ff" points="392,-84.16 388.5,-74.16 385,-84.16 392,-84.16"/>
</a>
</g>
</g>
<!-- Node3 -->
<g id="Node000003" class="node">
<title>Node3</title>
<g id="a_Node000003"><a xlink:title=" ">
<polygon fill="#e0e0e0" stroke="#999999" points="562.5,-19 512.5,-19 512.5,0 562.5,0 562.5,-19"/>
<text text-anchor="middle" x="537.5" y="-7" font-family="Helvetica,sans-Serif" font-size="10.00">cstdint</text>
</a>
</g>
</g>
<!-- Node1&#45;&gt;Node3 -->
<g id="edge18_Node000001_Node000003" class="edge">
<title>Node1&#45;&gt;Node3</title>
<g id="a_edge18_Node000001_Node000003"><a xlink:title=" ">
<path fill="none" stroke="#63b8ff" d="M415.89,-164.89C452.21,-151.83 514.83,-123.16 541.5,-74 548.91,-60.35 546.97,-42.53 543.72,-29.25"/>
<polygon fill="#63b8ff" stroke="#63b8ff" points="547,-27.98 540.86,-19.35 540.27,-29.92 547,-27.98"/>
</a>
</g>
</g>
<!-- Node7 -->
<g id="Node000007" class="node">
<title>Node7</title>
<g id="a_Node000007"><a xlink:href="compiler_8hpp.html" target="_top" xlink:title=" ">
<polygon fill="white" stroke="#666666" points="358.5,-129 278.5,-129 278.5,-110 358.5,-110 358.5,-129"/>
<text text-anchor="middle" x="318.5" y="-117" font-family="Helvetica,sans-Serif" font-size="10.00">compiler.hpp</text>
</a>
</g>
</g>
<!-- Node1&#45;&gt;Node7 -->
<g id="edge6_Node000001_Node000007" class="edge">
<title>Node1&#45;&gt;Node7</title>
<g id="a_edge6_Node000001_Node000007"><a xlink:title=" ">
<path fill="none" stroke="#63b8ff" d="M377.25,-164.98C366.7,-157 350.7,-144.88 338.06,-135.31"/>
<polygon fill="#63b8ff" stroke="#63b8ff" points="340.04,-132.42 329.95,-129.17 335.81,-138 340.04,-132.42"/>
</a>
</g>
</g>
<!-- Node2&#45;&gt;Node3 -->
<g id="edge2_Node000002_Node000003" class="edge">
<title>Node2&#45;&gt;Node3</title>
<g id="a_edge2_Node000002_Node000003"><a xlink:title=" ">
<path fill="none" stroke="#63b8ff" d="M412.44,-54.98C437.06,-46.23 475.62,-32.51 503.42,-22.62"/>
<polygon fill="#63b8ff" stroke="#63b8ff" points="504.88,-25.82 513.12,-19.17 502.53,-19.22 504.88,-25.82"/>
</a>
</g>
</g>
<!-- Node4 -->
<g id="Node000004" class="node">
<title>Node4</title>
<g id="a_Node000004"><a xlink:title=" ">
<polygon fill="#e0e0e0" stroke="#999999" points="490,-19 437,-19 437,0 490,0 490,-19"/>
<text text-anchor="middle" x="463.5" y="-7" font-family="Helvetica,sans-Serif" font-size="10.00">cstddef</text>
</a>
</g>
</g>
<!-- Node2&#45;&gt;Node4 -->
<g id="edge3_Node000002_Node000004" class="edge">
<title>Node2&#45;&gt;Node4</title>
<g id="a_edge3_Node000002_Node000004"><a xlink:title=" ">
<path fill="none" stroke="#63b8ff" d="M400.55,-54.98C411.96,-46.92 429.33,-34.65 442.93,-25.03"/>
<polygon fill="#63b8ff" stroke="#63b8ff" points="445.08,-27.8 451.23,-19.17 441.04,-22.08 445.08,-27.8"/>
</a>
</g>
</g>
<!-- Node5 -->
<g id="Node000005" class="node">
<title>Node5</title>
<g id="a_Node000005"><a xlink:title=" ">
<polygon fill="#e0e0e0" stroke="#999999" points="410.5,-19 366.5,-19 366.5,0 410.5,0 410.5,-19"/>
<text text-anchor="middle" x="388.5" y="-7" font-family="Helvetica,sans-Serif" font-size="10.00">string</text>
</a>
</g>
</g>
<!-- Node2&#45;&gt;Node5 -->
<g id="edge4_Node000002_Node000005" class="edge">
<title>Node2&#45;&gt;Node5</title>
<g id="a_edge4_Node000002_Node000005"><a xlink:title=" ">
<path fill="none" stroke="#63b8ff" d="M388.5,-54.75C388.5,-47.8 388.5,-37.85 388.5,-29.13"/>
<polygon fill="#63b8ff" stroke="#63b8ff" points="392,-29.09 388.5,-19.09 385,-29.09 392,-29.09"/>
</a>
</g>
</g>
<!-- Node6 -->
<g id="Node000006" class="node">
<title>Node6</title>
<g id="a_Node000006"><a xlink:title=" ">
<polygon fill="#e0e0e0" stroke="#999999" points="326,-19 279,-19 279,0 326,0 326,-19"/>
<text text-anchor="middle" x="302.5" y="-7" font-family="Helvetica,sans-Serif" font-size="10.00">vector</text>
</a>
</g>
</g>
<!-- Node2&#45;&gt;Node6 -->
<g id="edge5_Node000002_Node000006" class="edge">
<title>Node2&#45;&gt;Node6</title>
<g id="a_edge5_Node000002_Node000006"><a xlink:title=" ">
<path fill="none" stroke="#63b8ff" d="M374.68,-54.98C361.35,-46.77 340.92,-34.18 325.19,-24.49"/>
<polygon fill="#63b8ff" stroke="#63b8ff" points="326.92,-21.44 316.57,-19.17 323.25,-27.4 326.92,-21.44"/>
</a>
</g>
</g>
<!-- Node7&#45;&gt;Node2 -->
<g id="edge7_Node000007_Node000002" class="edge">
<title>Node7&#45;&gt;Node2</title>
<g id="a_edge7_Node000007_Node000002"><a xlink:title=" ">
<path fill="none" stroke="#63b8ff" d="M329.75,-109.98C340.3,-102 356.3,-89.88 368.94,-80.31"/>
<polygon fill="#63b8ff" stroke="#63b8ff" points="371.19,-83 377.05,-74.17 366.96,-77.42 371.19,-83"/>
</a>
</g>
</g>
<!-- Node7&#45;&gt;Node3 -->
<g id="edge12_Node000007_Node000003" class="edge">
<title>Node7&#45;&gt;Node3</title>
<g id="a_edge12_Node000007_Node000003"><a xlink:title=" ">
<path fill="none" stroke="#63b8ff" d="M358.7,-114.78C411.36,-109.08 499.69,-96.43 522.5,-74 534.23,-62.47 537.48,-43.59 538.09,-29.41"/>
<polygon fill="#63b8ff" stroke="#63b8ff" points="541.59,-29.29 538.14,-19.28 534.59,-29.26 541.59,-29.29"/>
</a>
</g>
</g>
<!-- Node7&#45;&gt;Node5 -->
<g id="edge14_Node000007_Node000005" class="edge">
<title>Node7&#45;&gt;Node5</title>
<g id="a_edge14_Node000007_Node000005"><a xlink:title=" ">
<path fill="none" stroke="#63b8ff" d="M319.56,-109.64C321.45,-96.73 326.29,-72.42 337.5,-55 345.05,-43.27 356.57,-32.84 366.75,-25.04"/>
<polygon fill="#63b8ff" stroke="#63b8ff" points="368.85,-27.84 374.88,-19.13 364.73,-22.18 368.85,-27.84"/>
</a>
</g>
</g>
<!-- Node7&#45;&gt;Node6 -->
<g id="edge16_Node000007_Node000006" class="edge">
<title>Node7&#45;&gt;Node6</title>
<g id="a_edge16_Node000007_Node000006"><a xlink:title=" ">
<path fill="none" stroke="#63b8ff" d="M314.99,-109.81C311.6,-100.96 306.67,-86.78 304.5,-74 301.98,-59.18 301.58,-42.14 301.75,-29.45"/>
<polygon fill="#63b8ff" stroke="#63b8ff" points="305.26,-29.29 302.03,-19.2 298.26,-29.1 305.26,-29.29"/>
</a>
</g>
</g>
<!-- Node8 -->
<g id="Node000008" class="node">
<title>Node8</title>
<g id="a_Node000008"><a xlink:href="types_8hpp.html" target="_top" xlink:title=" ">
<polygon fill="white" stroke="#666666" points="513,-74 448,-74 448,-55 513,-55 513,-74"/>
<text text-anchor="middle" x="480.5" y="-62" font-family="Helvetica,sans-Serif" font-size="10.00">types.hpp</text>
</a>
</g>
</g>
<!-- Node7&#45;&gt;Node8 -->
<g id="edge8_Node000007_Node000008" class="edge">
<title>Node7&#45;&gt;Node8</title>
<g id="a_edge8_Node000007_Node000008"><a xlink:title=" ">
<path fill="none" stroke="#63b8ff" d="M344.53,-109.98C371.61,-101.13 414.21,-87.19 444.51,-77.28"/>
<polygon fill="#63b8ff" stroke="#63b8ff" points="445.85,-80.52 454.27,-74.08 443.68,-73.87 445.85,-80.52"/>
</a>
</g>
</g>
<!-- Node9 -->
<g id="Node000009" class="node">
<title>Node9</title>
<g id="a_Node000009"><a xlink:title=" ">
<polygon fill="#e0e0e0" stroke="#999999" points="65,-74 0,-74 0,-55 65,-55 65,-74"/>
<text text-anchor="middle" x="32.5" y="-62" font-family="Helvetica,sans-Serif" font-size="10.00">exception</text>
</a>
</g>
</g>
<!-- Node7&#45;&gt;Node9 -->
<g id="edge13_Node000007_Node000009" class="edge">
<title>Node7&#45;&gt;Node9</title>
<g id="a_edge13_Node000007_Node000009"><a xlink:title=" ">
<path fill="none" stroke="#63b8ff" d="M278.12,-111.48C231.51,-103.31 152.27,-89.2 75.05,-74.27"/>
<polygon fill="#63b8ff" stroke="#63b8ff" points="75.64,-70.82 65.16,-72.35 74.31,-77.69 75.64,-70.82"/>
</a>
</g>
</g>
<!-- Node10 -->
<g id="Node000010" class="node">
<title>Node10</title>
<g id="a_Node000010"><a xlink:title=" ">
<polygon fill="#e0e0e0" stroke="#999999" points="176,-74 83,-74 83,-55 176,-55 176,-74"/>
<text text-anchor="middle" x="129.5" y="-62" font-family="Helvetica,sans-Serif" font-size="10.00">unordered_map</text>
</a>
</g>
</g>
<!-- Node7&#45;&gt;Node10 -->
<g id="edge15_Node000007_Node000010" class="edge">
<title>Node7&#45;&gt;Node10</title>
<g id="a_edge15_Node000007_Node000010"><a xlink:title=" ">
<path fill="none" stroke="#63b8ff" d="M288.13,-109.98C256.13,-101.01 205.54,-86.82 170.12,-76.89"/>
<polygon fill="#63b8ff" stroke="#63b8ff" points="170.68,-73.41 160.1,-74.08 168.79,-80.15 170.68,-73.41"/>
</a>
</g>
</g>
<!-- Node11 -->
<g id="Node000011" class="node">
<title>Node11</title>
<g id="a_Node000011"><a xlink:title=" ">
<polygon fill="#e0e0e0" stroke="#999999" points="252.5,-74 194.5,-74 194.5,-55 252.5,-55 252.5,-74"/>
<text text-anchor="middle" x="223.5" y="-62" font-family="Helvetica,sans-Serif" font-size="10.00">memory</text>
</a>
</g>
</g>
<!-- Node7&#45;&gt;Node11 -->
<g id="edge17_Node000007_Node000011" class="edge">
<title>Node7&#45;&gt;Node11</title>
<g id="a_edge17_Node000007_Node000011"><a xlink:title=" ">
<path fill="none" stroke="#63b8ff" d="M303.24,-109.98C288.37,-101.69 265.52,-88.94 248.08,-79.22"/>
<polygon fill="#63b8ff" stroke="#63b8ff" points="249.48,-75.99 239.04,-74.17 246.07,-82.1 249.48,-75.99"/>
</a>
</g>
</g>
<!-- Node8&#45;&gt;Node3 -->
<g id="edge10_Node000008_Node000003" class="edge">
<title>Node8&#45;&gt;Node3</title>
<g id="a_edge10_Node000008_Node000003"><a xlink:title=" ">
<path fill="none" stroke="#63b8ff" d="M489.66,-54.98C498,-47.23 510.53,-35.58 520.68,-26.14"/>
<polygon fill="#63b8ff" stroke="#63b8ff" points="523.24,-28.54 528.18,-19.17 518.47,-23.42 523.24,-28.54"/>
</a>
</g>
</g>
<!-- Node8&#45;&gt;Node4 -->
<g id="edge9_Node000008_Node000004" class="edge">
<title>Node8&#45;&gt;Node4</title>
<g id="a_edge9_Node000008_Node000004"><a xlink:title=" ">
<path fill="none" stroke="#63b8ff" d="M477.69,-54.75C475.44,-47.72 472.2,-37.62 469.38,-28.84"/>
<polygon fill="#63b8ff" stroke="#63b8ff" points="472.64,-27.54 466.25,-19.09 465.98,-29.68 472.64,-27.54"/>
</a>
</g>
</g>
<!-- Node8&#45;&gt;Node5 -->
<g id="edge11_Node000008_Node000005" class="edge">
<title>Node8&#45;&gt;Node5</title>
<g id="a_edge11_Node000008_Node000005"><a xlink:title=" ">
<path fill="none" stroke="#63b8ff" d="M465.72,-54.98C451.32,-46.69 429.19,-33.94 412.31,-24.22"/>
<polygon fill="#63b8ff" stroke="#63b8ff" points="413.96,-21.13 403.55,-19.17 410.47,-27.19 413.96,-21.13"/>
</a>
</g>
</g>
</g>
</svg>
