<?xml version="1.0" encoding="UTF-8" standalone="no"?>
<!DOCTYPE svg PUBLIC "-//W3C//DTD SVG 1.1//EN"
 "http://www.w3.org/Graphics/SVG/1.1/DTD/svg11.dtd">
<!-- Generated by graphviz version 2.43.0 (0)
 -->
<!-- Title: src/compiler/instruction.cpp Pages: 1 -->
<svg width="803pt" height="192pt"
 viewBox="0.00 0.00 803.00 192.00" xmlns="http://www.w3.org/2000/svg" xmlns:xlink="http://www.w3.org/1999/xlink">
<g id="graph0" class="graph" transform="scale(1 1) rotate(0) translate(4 188)">
<title>src/compiler/instruction.cpp</title>
<!-- Node1 -->
<g id="Node000001" class="node">
<title>Node1</title>
<g id="a_Node000001"><a xlink:title=" ">
<polygon fill="#999999" stroke="#666666" points="155,-184 3,-184 3,-165 155,-165 155,-184"/>
<text text-anchor="middle" x="79" y="-172" font-family="Helvetica,sans-Serif" font-size="10.00">src/compiler/instruction.cpp</text>
</a>
</g>
</g>
<!-- Node2 -->
<g id="Node000002" class="node">
<title>Node2</title>
<g id="a_Node000002"><a xlink:href="bytecode_8hpp.html" target="_top" xlink:title=" ">
<polygon fill="white" stroke="#666666" points="120.5,-74 37.5,-74 37.5,-55 120.5,-55 120.5,-74"/>
<text text-anchor="middle" x="79" y="-62" font-family="Helvetica,sans-Serif" font-size="10.00">bytecode.hpp</text>
</a>
</g>
</g>
<!-- Node1&#45;&gt;Node2 -->
<g id="edge1_Node000001_Node000002" class="edge">
<title>Node1&#45;&gt;Node2</title>
<g id="a_edge1_Node000001_Node000002"><a xlink:title=" ">
<path fill="none" stroke="#63b8ff" d="M79,-164.66C79,-147.17 79,-107.8 79,-84.27"/>
<polygon fill="#63b8ff" stroke="#63b8ff" points="82.5,-84.16 79,-74.16 75.5,-84.16 82.5,-84.16"/>
</a>
</g>
</g>
<!-- Node3 -->
<g id="Node000003" class="node">
<title>Node3</title>
<g id="a_Node000003"><a xlink:title=" ">
<polygon fill="#e0e0e0" stroke="#999999" points="50,-19 0,-19 0,0 50,0 50,-19"/>
<text text-anchor="middle" x="25" y="-7" font-family="Helvetica,sans-Serif" font-size="10.00">cstdint</text>
</a>
</g>
</g>
<!-- Node1&#45;&gt;Node3 -->
<g id="edge23_Node000001_Node000003" class="edge">
<title>Node1&#45;&gt;Node3</title>
<g id="a_edge23_Node000001_Node000003"><a xlink:title=" ">
<path fill="none" stroke="#63b8ff" d="M70.98,-164.77C56.59,-148.43 26.88,-111.51 16,-74 11.69,-59.13 14.72,-41.68 18.38,-28.84"/>
<polygon fill="#63b8ff" stroke="#63b8ff" points="21.72,-29.88 21.47,-19.29 15.06,-27.73 21.72,-29.88"/>
</a>
</g>
</g>
<!-- Node7 -->
<g id="Node000007" class="node">
<title>Node7</title>
<g id="a_Node000007"><a xlink:href="compiler_8hpp.html" target="_top" xlink:title=" ">
<polygon fill="white" stroke="#666666" points="311,-129 231,-129 231,-110 311,-110 311,-129"/>
<text text-anchor="middle" x="271" y="-117" font-family="Helvetica,sans-Serif" font-size="10.00">compiler.hpp</text>
</a>
</g>
</g>
<!-- Node1&#45;&gt;Node7 -->
<g id="edge6_Node000001_Node000007" class="edge">
<title>Node1&#45;&gt;Node7</title>
<g id="a_edge6_Node000001_Node000007"><a xlink:title=" ">
<path fill="none" stroke="#63b8ff" d="M109.85,-164.98C142.5,-155.97 194.2,-141.7 230.2,-131.76"/>
<polygon fill="#63b8ff" stroke="#63b8ff" points="231.2,-135.12 239.91,-129.08 229.34,-128.37 231.2,-135.12"/>
</a>
</g>
</g>
<!-- Node2&#45;&gt;Node3 -->
<g id="edge2_Node000002_Node000003" class="edge">
<title>Node2&#45;&gt;Node3</title>
<g id="a_edge2_Node000002_Node000003"><a xlink:title=" ">
<path fill="none" stroke="#63b8ff" d="M70.08,-54.75C62.22,-47.03 50.57,-35.6 41.08,-26.28"/>
<polygon fill="#63b8ff" stroke="#63b8ff" points="43.34,-23.6 33.75,-19.09 38.44,-28.59 43.34,-23.6"/>
</a>
</g>
</g>
<!-- Node4 -->
<g id="Node000004" class="node">
<title>Node4</title>
<g id="a_Node000004"><a xlink:title=" ">
<polygon fill="#e0e0e0" stroke="#999999" points="202.5,-19 149.5,-19 149.5,0 202.5,0 202.5,-19"/>
<text text-anchor="middle" x="176" y="-7" font-family="Helvetica,sans-Serif" font-size="10.00">cstddef</text>
</a>
</g>
</g>
<!-- Node2&#45;&gt;Node4 -->
<g id="edge3_Node000002_Node000004" class="edge">
<title>Node2&#45;&gt;Node4</title>
<g id="a_edge3_Node000002_Node000004"><a xlink:title=" ">
<path fill="none" stroke="#63b8ff" d="M94.58,-54.98C109.77,-46.69 133.1,-33.94 150.9,-24.22"/>
<polygon fill="#63b8ff" stroke="#63b8ff" points="153.03,-27.04 160.13,-19.17 149.68,-20.89 153.03,-27.04"/>
</a>
</g>
</g>
<!-- Node5 -->
<g id="Node000005" class="node">
<title>Node5</title>
<g id="a_Node000005"><a xlink:title=" ">
<polygon fill="#e0e0e0" stroke="#999999" points="293,-19 249,-19 249,0 293,0 293,-19"/>
<text text-anchor="middle" x="271" y="-7" font-family="Helvetica,sans-Serif" font-size="10.00">string</text>
</a>
</g>
</g>
<!-- Node2&#45;&gt;Node5 -->
<g id="edge4_Node000002_Node000005" class="edge">
<title>Node2&#45;&gt;Node5</title>
<g id="a_edge4_Node000002_Node000005"><a xlink:title=" ">
<path fill="none" stroke="#63b8ff" d="M109.85,-54.98C145.26,-45.21 203.05,-29.26 238.96,-19.35"/>
<polygon fill="#63b8ff" stroke="#63b8ff" points="240.2,-22.63 248.91,-16.6 238.34,-15.89 240.2,-22.63"/>
</a>
</g>
</g>
<!-- Node6 -->
<g id="Node000006" class="node">
<title>Node6</title>
<g id="a_Node000006"><a xlink:title=" ">
<polygon fill="#e0e0e0" stroke="#999999" points="116.5,-19 69.5,-19 69.5,0 116.5,0 116.5,-19"/>
<text text-anchor="middle" x="93" y="-7" font-family="Helvetica,sans-Serif" font-size="10.00">vector</text>
</a>
</g>
</g>
<!-- Node2&#45;&gt;Node6 -->
<g id="edge5_Node000002_Node000006" class="edge">
<title>Node2&#45;&gt;Node6</title>
<g id="a_edge5_Node000002_Node000006"><a xlink:title=" ">
<path fill="none" stroke="#63b8ff" d="M81.31,-54.75C83.17,-47.72 85.84,-37.62 88.15,-28.84"/>
<polygon fill="#63b8ff" stroke="#63b8ff" points="91.56,-29.65 90.73,-19.09 84.79,-27.86 91.56,-29.65"/>
</a>
</g>
</g>
<!-- Node7&#45;&gt;Node2 -->
<g id="edge7_Node000007_Node000002" class="edge">
<title>Node7&#45;&gt;Node2</title>
<g id="a_edge7_Node000007_Node000002"><a xlink:title=" ">
<path fill="none" stroke="#63b8ff" d="M240.15,-109.98C207.5,-100.97 155.8,-86.7 119.8,-76.76"/>
<polygon fill="#63b8ff" stroke="#63b8ff" points="120.66,-73.37 110.09,-74.08 118.8,-80.12 120.66,-73.37"/>
</a>
</g>
</g>
<!-- Node7&#45;&gt;Node3 -->
<g id="edge17_Node000007_Node000003" class="edge">
<title>Node7&#45;&gt;Node3</title>
<g id="a_edge17_Node000007_Node000003"><a xlink:title=" ">
<path fill="none" stroke="#63b8ff" d="M230.82,-117C168.76,-113.75 54.04,-103.79 28,-74 17.45,-61.94 17.9,-43.13 20.27,-29.11"/>
<polygon fill="#63b8ff" stroke="#63b8ff" points="23.74,-29.63 22.41,-19.12 16.89,-28.16 23.74,-29.63"/>
</a>
</g>
</g>
<!-- Node7&#45;&gt;Node5 -->
<g id="edge19_Node000007_Node000005" class="edge">
<title>Node7&#45;&gt;Node5</title>
<g id="a_edge19_Node000007_Node000005"><a xlink:title=" ">
<path fill="none" stroke="#63b8ff" d="M271,-109.66C271,-92.17 271,-52.8 271,-29.27"/>
<polygon fill="#63b8ff" stroke="#63b8ff" points="274.5,-29.16 271,-19.16 267.5,-29.16 274.5,-29.16"/>
</a>
</g>
</g>
<!-- Node7&#45;&gt;Node6 -->
<g id="edge21_Node000007_Node000006" class="edge">
<title>Node7&#45;&gt;Node6</title>
<g id="a_edge21_Node000007_Node000006"><a xlink:title=" ">
<path fill="none" stroke="#63b8ff" d="M245.42,-109.85C223.93,-102.03 192.83,-89.4 168,-74 145.74,-60.19 123.2,-40.1 108.72,-26.23"/>
<polygon fill="#63b8ff" stroke="#63b8ff" points="111.16,-23.73 101.56,-19.25 106.28,-28.74 111.16,-23.73"/>
</a>
</g>
</g>
<!-- Node8 -->
<g id="Node000008" class="node">
<title>Node8</title>
<g id="a_Node000008"><a xlink:href="essentials_8hpp.html" target="_top" xlink:title=" ">
<polygon fill="white" stroke="#666666" points="524.5,-74 437.5,-74 437.5,-55 524.5,-55 524.5,-74"/>
<text text-anchor="middle" x="481" y="-62" font-family="Helvetica,sans-Serif" font-size="10.00">essentials.hpp</text>
</a>
</g>
</g>
<!-- Node7&#45;&gt;Node8 -->
<g id="edge8_Node000007_Node000008" class="edge">
<title>Node7&#45;&gt;Node8</title>
<g id="a_edge8_Node000007_Node000008"><a xlink:title=" ">
<path fill="none" stroke="#63b8ff" d="M304.74,-109.98C340.68,-100.91 397.72,-86.52 437.13,-76.57"/>
<polygon fill="#63b8ff" stroke="#63b8ff" points="438.16,-79.92 447,-74.08 436.44,-73.14 438.16,-79.92"/>
</a>
</g>
</g>
<!-- Node10 -->
<g id="Node000010" class="node">
<title>Node10</title>
<g id="a_Node000010"><a xlink:href="params_8hpp.html" target="_top" xlink:title=" ">
<polygon fill="white" stroke="#666666" points="419,-74 299,-74 299,-55 419,-55 419,-74"/>
<text text-anchor="middle" x="359" y="-62" font-family="Helvetica,sans-Serif" font-size="10.00">compiler/params.hpp</text>
</a>
</g>
</g>
<!-- Node7&#45;&gt;Node10 -->
<g id="edge11_Node000007_Node000010" class="edge">
<title>Node7&#45;&gt;Node10</title>
<g id="a_edge11_Node000007_Node000010"><a xlink:title=" ">
<path fill="none" stroke="#63b8ff" d="M285.14,-109.98C298.79,-101.77 319.69,-89.18 335.78,-79.49"/>
<polygon fill="#63b8ff" stroke="#63b8ff" points="337.84,-82.33 344.6,-74.17 334.23,-76.33 337.84,-82.33"/>
</a>
</g>
</g>
<!-- Node11 -->
<g id="Node000011" class="node">
<title>Node11</title>
<g id="a_Node000011"><a xlink:href="types_8hpp.html" target="_top" xlink:title=" ">
<polygon fill="white" stroke="#666666" points="242.5,-74 177.5,-74 177.5,-55 242.5,-55 242.5,-74"/>
<text text-anchor="middle" x="210" y="-62" font-family="Helvetica,sans-Serif" font-size="10.00">types.hpp</text>
</a>
</g>
</g>
<!-- Node7&#45;&gt;Node11 -->
<g id="edge13_Node000007_Node000011" class="edge">
<title>Node7&#45;&gt;Node11</title>
<g id="a_edge13_Node000007_Node000011"><a xlink:title=" ">
<path fill="none" stroke="#63b8ff" d="M261.2,-109.98C252.18,-102.15 238.59,-90.34 227.68,-80.86"/>
<polygon fill="#63b8ff" stroke="#63b8ff" points="229.82,-78.09 219.98,-74.17 225.23,-83.37 229.82,-78.09"/>
</a>
</g>
</g>
<!-- Node12 -->
<g id="Node000012" class="node">
<title>Node12</title>
<g id="a_Node000012"><a xlink:title=" ">
<polygon fill="#e0e0e0" stroke="#999999" points="607.5,-74 542.5,-74 542.5,-55 607.5,-55 607.5,-74"/>
<text text-anchor="middle" x="575" y="-62" font-family="Helvetica,sans-Serif" font-size="10.00">exception</text>
</a>
</g>
</g>
<!-- Node7&#45;&gt;Node12 -->
<g id="edge18_Node000007_Node000012" class="edge">
<title>Node7&#45;&gt;Node12</title>
<g id="a_edge18_Node000007_Node000012"><a xlink:title=" ">
<path fill="none" stroke="#63b8ff" d="M311.18,-112.17C360.87,-104.24 448.29,-89.96 532.38,-74.25"/>
<polygon fill="#63b8ff" stroke="#63b8ff" points="533.17,-77.67 542.35,-72.38 531.87,-70.79 533.17,-77.67"/>
</a>
</g>
</g>
<!-- Node13 -->
<g id="Node000013" class="node">
<title>Node13</title>
<g id="a_Node000013"><a xlink:title=" ">
<polygon fill="#e0e0e0" stroke="#999999" points="718.5,-74 625.5,-74 625.5,-55 718.5,-55 718.5,-74"/>
<text text-anchor="middle" x="672" y="-62" font-family="Helvetica,sans-Serif" font-size="10.00">unordered_map</text>
</a>
</g>
</g>
<!-- Node7&#45;&gt;Node13 -->
<g id="edge20_Node000007_Node000013" class="edge">
<title>Node7&#45;&gt;Node13</title>
<g id="a_edge20_Node000007_Node000013"><a xlink:title=" ">
<path fill="none" stroke="#63b8ff" d="M311,-113.69C373.66,-106.08 499,-90.57 615.08,-74.24"/>
<polygon fill="#63b8ff" stroke="#63b8ff" points="615.79,-77.68 625.2,-72.81 614.81,-70.75 615.79,-77.68"/>
</a>
</g>
</g>
<!-- Node14 -->
<g id="Node000014" class="node">
<title>Node14</title>
<g id="a_Node000014"><a xlink:title=" ">
<polygon fill="#e0e0e0" stroke="#999999" points="795,-74 737,-74 737,-55 795,-55 795,-74"/>
<text text-anchor="middle" x="766" y="-62" font-family="Helvetica,sans-Serif" font-size="10.00">memory</text>
</a>
</g>
</g>
<!-- Node7&#45;&gt;Node14 -->
<g id="edge22_Node000007_Node000014" class="edge">
<title>Node7&#45;&gt;Node14</title>
<g id="a_edge22_Node000007_Node000014"><a xlink:title=" ">
<path fill="none" stroke="#63b8ff" d="M311.25,-116.25C389.47,-111.52 567.59,-98.98 726.65,-74.03"/>
<polygon fill="#63b8ff" stroke="#63b8ff" points="727.28,-77.47 736.61,-72.45 726.19,-70.56 727.28,-77.47"/>
</a>
</g>
</g>
<!-- Node8&#45;&gt;Node5 -->
<g id="edge10_Node000008_Node000005" class="edge">
<title>Node8&#45;&gt;Node5</title>
<g id="a_edge10_Node000008_Node000005"><a xlink:title=" ">
<path fill="none" stroke="#63b8ff" d="M447.26,-54.98C407.45,-44.94 341.78,-28.36 302.83,-18.53"/>
<polygon fill="#63b8ff" stroke="#63b8ff" points="303.61,-15.12 293.06,-16.07 301.9,-21.91 303.61,-15.12"/>
</a>
</g>
</g>
<!-- Node9 -->
<g id="Node000009" class="node">
<title>Node9</title>
<g id="a_Node000009"><a xlink:title=" ">
<polygon fill="#e0e0e0" stroke="#999999" points="506.5,-19 455.5,-19 455.5,0 506.5,0 506.5,-19"/>
<text text-anchor="middle" x="481" y="-7" font-family="Helvetica,sans-Serif" font-size="10.00">errno.h</text>
</a>
</g>
</g>
<!-- Node8&#45;&gt;Node9 -->
<g id="edge9_Node000008_Node000009" class="edge">
<title>Node8&#45;&gt;Node9</title>
<g id="a_edge9_Node000008_Node000009"><a xlink:title=" ">
<path fill="none" stroke="#63b8ff" d="M481,-54.75C481,-47.8 481,-37.85 481,-29.13"/>
<polygon fill="#63b8ff" stroke="#63b8ff" points="484.5,-29.09 481,-19.09 477.5,-29.09 484.5,-29.09"/>
</a>
</g>
</g>
<!-- Node10&#45;&gt;Node5 -->
<g id="edge12_Node000010_Node000005" class="edge">
<title>Node10&#45;&gt;Node5</title>
<g id="a_edge12_Node000010_Node000005"><a xlink:title=" ">
<path fill="none" stroke="#63b8ff" d="M344.86,-54.98C331.21,-46.77 310.31,-34.18 294.22,-24.49"/>
<polygon fill="#63b8ff" stroke="#63b8ff" points="295.77,-21.33 285.4,-19.17 292.16,-27.33 295.77,-21.33"/>
</a>
</g>
</g>
<!-- Node11&#45;&gt;Node3 -->
<g id="edge15_Node000011_Node000003" class="edge">
<title>Node11&#45;&gt;Node3</title>
<g id="a_edge15_Node000011_Node000003"><a xlink:title=" ">
<path fill="none" stroke="#63b8ff" d="M180.28,-54.98C147.46,-45.58 94.69,-30.46 59.92,-20.51"/>
<polygon fill="#63b8ff" stroke="#63b8ff" points="60.77,-17.11 50.19,-17.72 58.84,-23.84 60.77,-17.11"/>
</a>
</g>
</g>
<!-- Node11&#45;&gt;Node4 -->
<g id="edge14_Node000011_Node000004" class="edge">
<title>Node11&#45;&gt;Node4</title>
<g id="a_edge14_Node000011_Node000004"><a xlink:title=" ">
<path fill="none" stroke="#63b8ff" d="M204.39,-54.75C199.68,-47.42 192.83,-36.73 187.03,-27.7"/>
<polygon fill="#63b8ff" stroke="#63b8ff" points="189.86,-25.62 181.51,-19.09 183.96,-29.4 189.86,-25.62"/>
</a>
</g>
</g>
<!-- Node11&#45;&gt;Node5 -->
<g id="edge16_Node000011_Node000005" class="edge">
<title>Node11&#45;&gt;Node5</title>
<g id="a_edge16_Node000011_Node000005"><a xlink:title=" ">
<path fill="none" stroke="#63b8ff" d="M219.8,-54.98C228.82,-47.15 242.41,-35.34 253.32,-25.86"/>
<polygon fill="#63b8ff" stroke="#63b8ff" points="255.77,-28.37 261.02,-19.17 251.18,-23.09 255.77,-28.37"/>
</a>
</g>
</g>
</g>
</svg>
