<?xml version="1.0" encoding="UTF-8" standalone="no"?>
<!DOCTYPE svg PUBLIC "-//W3C//DTD SVG 1.1//EN"
 "http://www.w3.org/Graphics/SVG/1.1/DTD/svg11.dtd">
<!-- Generated by graphviz version 2.43.0 (0)
 -->
<!-- Title: src/compiler/instruction.cpp Pages: 1 -->
<svg width="681pt" height="192pt"
 viewBox="0.00 0.00 681.34 192.00" xmlns="http://www.w3.org/2000/svg" xmlns:xlink="http://www.w3.org/1999/xlink">
<g id="graph0" class="graph" transform="scale(1 1) rotate(0) translate(4 188)">
<title>src/compiler/instruction.cpp</title>
<!-- Node1 -->
<g id="Node000001" class="node">
<title>Node1</title>
<g id="a_Node000001"><a xlink:title=" ">
<polygon fill="#999999" stroke="#666666" points="222.34,-184 70.34,-184 70.34,-165 222.34,-165 222.34,-184"/>
<text text-anchor="middle" x="146.34" y="-172" font-family="Helvetica,sans-Serif" font-size="10.00">src/compiler/instruction.cpp</text>
</a>
</g>
</g>
<!-- Node2 -->
<g id="Node000002" class="node">
<title>Node2</title>
<g id="a_Node000002"><a xlink:href="bytecode_8hpp.html" target="_top" xlink:title=" ">
<polygon fill="white" stroke="#666666" points="187.84,-74 104.84,-74 104.84,-55 187.84,-55 187.84,-74"/>
<text text-anchor="middle" x="146.34" y="-62" font-family="Helvetica,sans-Serif" font-size="10.00">bytecode.hpp</text>
</a>
</g>
</g>
<!-- Node1&#45;&gt;Node2 -->
<g id="edge1_Node000001_Node000002" class="edge">
<title>Node1&#45;&gt;Node2</title>
<g id="a_edge1_Node000001_Node000002"><a xlink:title=" ">
<path fill="none" stroke="#63b8ff" d="M146.34,-164.66C146.34,-147.17 146.34,-107.8 146.34,-84.27"/>
<polygon fill="#63b8ff" stroke="#63b8ff" points="149.84,-84.16 146.34,-74.16 142.84,-84.16 149.84,-84.16"/>
</a>
</g>
</g>
<!-- Node3 -->
<g id="Node000003" class="node">
<title>Node3</title>
<g id="a_Node000003"><a xlink:title=" ">
<polygon fill="#e0e0e0" stroke="#999999" points="50.34,-19 0.34,-19 0.34,0 50.34,0 50.34,-19"/>
<text text-anchor="middle" x="25.34" y="-7" font-family="Helvetica,sans-Serif" font-size="10.00">cstdint</text>
</a>
</g>
</g>
<!-- Node1&#45;&gt;Node3 -->
<g id="edge20_Node000001_Node000003" class="edge">
<title>Node1&#45;&gt;Node3</title>
<g id="a_edge20_Node000001_Node000003"><a xlink:title=" ">
<path fill="none" stroke="#63b8ff" d="M122.12,-164.93C88.34,-151.51 28.41,-121.98 3.34,-74 -4.48,-59.02 3.59,-40.66 12.07,-27.55"/>
<polygon fill="#63b8ff" stroke="#63b8ff" points="15.17,-29.23 18.1,-19.05 9.46,-25.18 15.17,-29.23"/>
</a>
</g>
</g>
<!-- Node7 -->
<g id="Node000007" class="node">
<title>Node7</title>
<g id="a_Node000007"><a xlink:href="compiler_8hpp.html" target="_top" xlink:title=" ">
<polygon fill="white" stroke="#666666" points="300.34,-129 220.34,-129 220.34,-110 300.34,-110 300.34,-129"/>
<text text-anchor="middle" x="260.34" y="-117" font-family="Helvetica,sans-Serif" font-size="10.00">compiler.hpp</text>
</a>
</g>
</g>
<!-- Node1&#45;&gt;Node7 -->
<g id="edge6_Node000001_Node000007" class="edge">
<title>Node1&#45;&gt;Node7</title>
<g id="a_edge6_Node000001_Node000007"><a xlink:title=" ">
<path fill="none" stroke="#63b8ff" d="M164.66,-164.98C183,-156.46 211.45,-143.23 232.57,-133.41"/>
<polygon fill="#63b8ff" stroke="#63b8ff" points="234.1,-136.56 241.69,-129.17 231.15,-130.21 234.1,-136.56"/>
</a>
</g>
</g>
<!-- Node2&#45;&gt;Node3 -->
<g id="edge2_Node000002_Node000003" class="edge">
<title>Node2&#45;&gt;Node3</title>
<g id="a_edge2_Node000002_Node000003"><a xlink:title=" ">
<path fill="none" stroke="#63b8ff" d="M126.9,-54.98C107.35,-46.42 76.96,-33.11 54.52,-23.28"/>
<polygon fill="#63b8ff" stroke="#63b8ff" points="55.7,-19.98 45.14,-19.17 52.89,-26.39 55.7,-19.98"/>
</a>
</g>
</g>
<!-- Node4 -->
<g id="Node000004" class="node">
<title>Node4</title>
<g id="a_Node000004"><a xlink:title=" ">
<polygon fill="#e0e0e0" stroke="#999999" points="129.84,-19 76.84,-19 76.84,0 129.84,0 129.84,-19"/>
<text text-anchor="middle" x="103.34" y="-7" font-family="Helvetica,sans-Serif" font-size="10.00">cstddef</text>
</a>
</g>
</g>
<!-- Node2&#45;&gt;Node4 -->
<g id="edge3_Node000002_Node000004" class="edge">
<title>Node2&#45;&gt;Node4</title>
<g id="a_edge3_Node000002_Node000004"><a xlink:title=" ">
<path fill="none" stroke="#63b8ff" d="M139.24,-54.75C133.17,-47.26 124.26,-36.28 116.83,-27.13"/>
<polygon fill="#63b8ff" stroke="#63b8ff" points="119.33,-24.65 110.31,-19.09 113.89,-29.06 119.33,-24.65"/>
</a>
</g>
</g>
<!-- Node5 -->
<g id="Node000005" class="node">
<title>Node5</title>
<g id="a_Node000005"><a xlink:title=" ">
<polygon fill="#e0e0e0" stroke="#999999" points="196.34,-19 152.34,-19 152.34,0 196.34,0 196.34,-19"/>
<text text-anchor="middle" x="174.34" y="-7" font-family="Helvetica,sans-Serif" font-size="10.00">string</text>
</a>
</g>
</g>
<!-- Node2&#45;&gt;Node5 -->
<g id="edge4_Node000002_Node000005" class="edge">
<title>Node2&#45;&gt;Node5</title>
<g id="a_edge4_Node000002_Node000005"><a xlink:title=" ">
<path fill="none" stroke="#63b8ff" d="M150.96,-54.75C154.8,-47.49 160.37,-36.95 165.11,-27.98"/>
<polygon fill="#63b8ff" stroke="#63b8ff" points="168.23,-29.57 169.8,-19.09 162.04,-26.3 168.23,-29.57"/>
</a>
</g>
</g>
<!-- Node6 -->
<g id="Node000006" class="node">
<title>Node6</title>
<g id="a_Node000006"><a xlink:title=" ">
<polygon fill="#e0e0e0" stroke="#999999" points="352.84,-19 305.84,-19 305.84,0 352.84,0 352.84,-19"/>
<text text-anchor="middle" x="329.34" y="-7" font-family="Helvetica,sans-Serif" font-size="10.00">vector</text>
</a>
</g>
</g>
<!-- Node2&#45;&gt;Node6 -->
<g id="edge5_Node000002_Node000006" class="edge">
<title>Node2&#45;&gt;Node6</title>
<g id="a_edge5_Node000002_Node000006"><a xlink:title=" ">
<path fill="none" stroke="#63b8ff" d="M175.74,-54.98C208.52,-45.49 261.43,-30.17 295.8,-20.21"/>
<polygon fill="#63b8ff" stroke="#63b8ff" points="297.2,-23.45 305.83,-17.31 295.25,-16.73 297.2,-23.45"/>
</a>
</g>
</g>
<!-- Node7&#45;&gt;Node2 -->
<g id="edge7_Node000007_Node000002" class="edge">
<title>Node7&#45;&gt;Node2</title>
<g id="a_edge7_Node000007_Node000002"><a xlink:title=" ">
<path fill="none" stroke="#63b8ff" d="M242.03,-109.98C223.69,-101.46 195.23,-88.23 174.11,-78.41"/>
<polygon fill="#63b8ff" stroke="#63b8ff" points="175.53,-75.21 164.99,-74.17 172.58,-81.56 175.53,-75.21"/>
</a>
</g>
</g>
<!-- Node7&#45;&gt;Node3 -->
<g id="edge14_Node000007_Node000003" class="edge">
<title>Node7&#45;&gt;Node3</title>
<g id="a_edge14_Node000007_Node000003"><a xlink:title=" ">
<path fill="none" stroke="#63b8ff" d="M220.2,-117.31C156.89,-114.5 38.37,-105.12 12.34,-74 1.77,-61.36 7.55,-42.4 14.43,-28.49"/>
<polygon fill="#63b8ff" stroke="#63b8ff" points="17.67,-29.86 19.42,-19.41 11.53,-26.49 17.67,-29.86"/>
</a>
</g>
</g>
<!-- Node7&#45;&gt;Node5 -->
<g id="edge16_Node000007_Node000005" class="edge">
<title>Node7&#45;&gt;Node5</title>
<g id="a_edge16_Node000007_Node000005"><a xlink:title=" ">
<path fill="none" stroke="#63b8ff" d="M253.3,-109.66C238.93,-91.61 206.02,-50.28 187.54,-27.08"/>
<polygon fill="#63b8ff" stroke="#63b8ff" points="190.2,-24.8 181.24,-19.16 184.73,-29.16 190.2,-24.8"/>
</a>
</g>
</g>
<!-- Node7&#45;&gt;Node6 -->
<g id="edge18_Node000007_Node000006" class="edge">
<title>Node7&#45;&gt;Node6</title>
<g id="a_edge18_Node000007_Node000006"><a xlink:title=" ">
<path fill="none" stroke="#63b8ff" d="M300.35,-114.07C325.86,-108.94 357.08,-97.88 373.34,-74 384.78,-57.2 367.25,-38.03 351.04,-25.19"/>
<polygon fill="#63b8ff" stroke="#63b8ff" points="352.96,-22.25 342.85,-19.1 348.79,-27.87 352.96,-22.25"/>
</a>
</g>
</g>
<!-- Node8 -->
<g id="Node000008" class="node">
<title>Node8</title>
<g id="a_Node000008"><a xlink:href="params_8hpp.html" target="_top" xlink:title=" ">
<polygon fill="white" stroke="#666666" points="364.34,-74 244.34,-74 244.34,-55 364.34,-55 364.34,-74"/>
<text text-anchor="middle" x="304.34" y="-62" font-family="Helvetica,sans-Serif" font-size="10.00">compiler/params.hpp</text>
</a>
</g>
</g>
<!-- Node7&#45;&gt;Node8 -->
<g id="edge8_Node000007_Node000008" class="edge">
<title>Node7&#45;&gt;Node8</title>
<g id="a_edge8_Node000007_Node000008"><a xlink:title=" ">
<path fill="none" stroke="#63b8ff" d="M267.61,-109.75C273.89,-102.18 283.13,-91.05 290.77,-81.84"/>
<polygon fill="#63b8ff" stroke="#63b8ff" points="293.52,-84.02 297.21,-74.09 288.13,-79.55 293.52,-84.02"/>
</a>
</g>
</g>
<!-- Node9 -->
<g id="Node000009" class="node">
<title>Node9</title>
<g id="a_Node000009"><a xlink:href="types_8hpp.html" target="_top" xlink:title=" ">
<polygon fill="white" stroke="#666666" points="86.84,-74 21.84,-74 21.84,-55 86.84,-55 86.84,-74"/>
<text text-anchor="middle" x="54.34" y="-62" font-family="Helvetica,sans-Serif" font-size="10.00">types.hpp</text>
</a>
</g>
</g>
<!-- Node7&#45;&gt;Node9 -->
<g id="edge10_Node000007_Node000009" class="edge">
<title>Node7&#45;&gt;Node9</title>
<g id="a_edge10_Node000007_Node000009"><a xlink:title=" ">
<path fill="none" stroke="#63b8ff" d="M227.24,-109.98C191.85,-100.88 135.61,-86.41 96.94,-76.46"/>
<polygon fill="#63b8ff" stroke="#63b8ff" points="97.57,-73.01 87.02,-73.91 95.83,-79.79 97.57,-73.01"/>
</a>
</g>
</g>
<!-- Node10 -->
<g id="Node000010" class="node">
<title>Node10</title>
<g id="a_Node000010"><a xlink:title=" ">
<polygon fill="#e0e0e0" stroke="#999999" points="485.84,-74 420.84,-74 420.84,-55 485.84,-55 485.84,-74"/>
<text text-anchor="middle" x="453.34" y="-62" font-family="Helvetica,sans-Serif" font-size="10.00">exception</text>
</a>
</g>
</g>
<!-- Node7&#45;&gt;Node10 -->
<g id="edge15_Node000007_Node000010" class="edge">
<title>Node7&#45;&gt;Node10</title>
<g id="a_edge15_Node000007_Node000010"><a xlink:title=" ">
<path fill="none" stroke="#63b8ff" d="M291.35,-109.98C324.17,-100.97 376.14,-86.7 412.33,-76.76"/>
<polygon fill="#63b8ff" stroke="#63b8ff" points="413.37,-80.11 422.09,-74.08 411.52,-73.36 413.37,-80.11"/>
</a>
</g>
</g>
<!-- Node11 -->
<g id="Node000011" class="node">
<title>Node11</title>
<g id="a_Node000011"><a xlink:title=" ">
<polygon fill="#e0e0e0" stroke="#999999" points="596.84,-74 503.84,-74 503.84,-55 596.84,-55 596.84,-74"/>
<text text-anchor="middle" x="550.34" y="-62" font-family="Helvetica,sans-Serif" font-size="10.00">unordered_map</text>
</a>
</g>
</g>
<!-- Node7&#45;&gt;Node11 -->
<g id="edge17_Node000007_Node000011" class="edge">
<title>Node7&#45;&gt;Node11</title>
<g id="a_edge17_Node000007_Node000011"><a xlink:title=" ">
<path fill="none" stroke="#63b8ff" d="M300.36,-111.19C350.49,-102.02 436.7,-86.27 493.62,-75.87"/>
<polygon fill="#63b8ff" stroke="#63b8ff" points="494.33,-79.29 503.54,-74.05 493.07,-72.41 494.33,-79.29"/>
</a>
</g>
</g>
<!-- Node12 -->
<g id="Node000012" class="node">
<title>Node12</title>
<g id="a_Node000012"><a xlink:title=" ">
<polygon fill="#e0e0e0" stroke="#999999" points="673.34,-74 615.34,-74 615.34,-55 673.34,-55 673.34,-74"/>
<text text-anchor="middle" x="644.34" y="-62" font-family="Helvetica,sans-Serif" font-size="10.00">memory</text>
</a>
</g>
</g>
<!-- Node7&#45;&gt;Node12 -->
<g id="edge19_Node000007_Node000012" class="edge">
<title>Node7&#45;&gt;Node12</title>
<g id="a_edge19_Node000007_Node000012"><a xlink:title=" ">
<path fill="none" stroke="#63b8ff" d="M300.48,-114.55C363.32,-108.11 488.91,-94.16 604.83,-74.13"/>
<polygon fill="#63b8ff" stroke="#63b8ff" points="605.69,-77.53 614.94,-72.36 604.48,-70.63 605.69,-77.53"/>
</a>
</g>
</g>
<!-- Node8&#45;&gt;Node5 -->
<g id="edge9_Node000008_Node000005" class="edge">
<title>Node8&#45;&gt;Node5</title>
<g id="a_edge9_Node000008_Node000005"><a xlink:title=" ">
<path fill="none" stroke="#63b8ff" d="M283.45,-54.98C262.26,-46.34 229.21,-32.87 205.04,-23.02"/>
<polygon fill="#63b8ff" stroke="#63b8ff" points="206.19,-19.7 195.61,-19.17 203.55,-26.19 206.19,-19.7"/>
</a>
</g>
</g>
<!-- Node9&#45;&gt;Node3 -->
<g id="edge12_Node000009_Node000003" class="edge">
<title>Node9&#45;&gt;Node3</title>
<g id="a_edge12_Node000009_Node000003"><a xlink:title=" ">
<path fill="none" stroke="#63b8ff" d="M49.55,-54.75C45.58,-47.49 39.82,-36.95 34.91,-27.98"/>
<polygon fill="#63b8ff" stroke="#63b8ff" points="37.91,-26.18 30.04,-19.09 31.77,-29.54 37.91,-26.18"/>
</a>
</g>
</g>
<!-- Node9&#45;&gt;Node4 -->
<g id="edge11_Node000009_Node000004" class="edge">
<title>Node9&#45;&gt;Node4</title>
<g id="a_edge11_Node000009_Node000004"><a xlink:title=" ">
<path fill="none" stroke="#63b8ff" d="M62.43,-54.75C69.5,-47.11 79.93,-35.82 88.49,-26.56"/>
<polygon fill="#63b8ff" stroke="#63b8ff" points="91.18,-28.81 95.4,-19.09 86.04,-24.06 91.18,-28.81"/>
</a>
</g>
</g>
<!-- Node9&#45;&gt;Node5 -->
<g id="edge13_Node000009_Node000005" class="edge">
<title>Node9&#45;&gt;Node5</title>
<g id="a_edge13_Node000009_Node000005"><a xlink:title=" ">
<path fill="none" stroke="#63b8ff" d="M73.62,-54.98C93.01,-46.42 123.15,-33.11 145.41,-23.28"/>
<polygon fill="#63b8ff" stroke="#63b8ff" points="146.98,-26.41 154.71,-19.17 144.15,-20.01 146.98,-26.41"/>
</a>
</g>
</g>
</g>
</svg>
