<?xml version="1.0" encoding="UTF-8" standalone="no"?>
<!DOCTYPE svg PUBLIC "-//W3C//DTD SVG 1.1//EN"
 "http://www.w3.org/Graphics/SVG/1.1/DTD/svg11.dtd">
<!-- Generated by graphviz version 2.43.0 (0)
 -->
<!-- Title: src/compiler/lexer.cpp Pages: 1 -->
<svg width="712pt" height="192pt"
 viewBox="0.00 0.00 711.59 192.00" xmlns="http://www.w3.org/2000/svg" xmlns:xlink="http://www.w3.org/1999/xlink">
<g id="graph0" class="graph" transform="scale(1 1) rotate(0) translate(4 188)">
<title>src/compiler/lexer.cpp</title>
<!-- Node1 -->
<g id="Node000001" class="node">
<title>Node1</title>
<g id="a_Node000001"><a xlink:title=" ">
<polygon fill="#999999" stroke="#666666" points="396.59,-184 273.59,-184 273.59,-165 396.59,-165 396.59,-184"/>
<text text-anchor="middle" x="335.09" y="-172" font-family="Helvetica,sans-Serif" font-size="10.00">src/compiler/lexer.cpp</text>
</a>
</g>
</g>
<!-- Node2 -->
<g id="Node000002" class="node">
<title>Node2</title>
<g id="a_Node000002"><a xlink:href="compiler_8hpp.html" target="_top" xlink:title=" ">
<polygon fill="white" stroke="#666666" points="334.09,-129 254.09,-129 254.09,-110 334.09,-110 334.09,-129"/>
<text text-anchor="middle" x="294.09" y="-117" font-family="Helvetica,sans-Serif" font-size="10.00">compiler.hpp</text>
</a>
</g>
</g>
<!-- Node1&#45;&gt;Node2 -->
<g id="edge1_Node000001_Node000002" class="edge">
<title>Node1&#45;&gt;Node2</title>
<g id="a_edge1_Node000001_Node000002"><a xlink:title=" ">
<path fill="none" stroke="#63b8ff" d="M328.32,-164.75C322.53,-157.26 314.03,-146.28 306.95,-137.13"/>
<polygon fill="#63b8ff" stroke="#63b8ff" points="309.62,-134.86 300.73,-129.09 304.08,-139.14 309.62,-134.86"/>
</a>
</g>
</g>
<!-- Node5 -->
<g id="Node000005" class="node">
<title>Node5</title>
<g id="a_Node000005"><a xlink:title=" ">
<polygon fill="#e0e0e0" stroke="#999999" points="72.59,-19 19.59,-19 19.59,0 72.59,0 72.59,-19"/>
<text text-anchor="middle" x="46.09" y="-7" font-family="Helvetica,sans-Serif" font-size="10.00">cstddef</text>
</a>
</g>
</g>
<!-- Node1&#45;&gt;Node5 -->
<g id="edge21_Node000001_Node000005" class="edge">
<title>Node1&#45;&gt;Node5</title>
<g id="a_edge21_Node000001_Node000005"><a xlink:title=" ">
<path fill="none" stroke="#63b8ff" d="M279.29,-164.99C193.69,-150.66 36.45,-118.82 4.09,-74 -7.71,-57.67 9.44,-38.27 25.24,-25.25"/>
<polygon fill="#63b8ff" stroke="#63b8ff" points="27.45,-27.96 33.22,-19.07 23.17,-22.43 27.45,-27.96"/>
</a>
</g>
</g>
<!-- Node9 -->
<g id="Node000009" class="node">
<title>Node9</title>
<g id="a_Node000009"><a xlink:href="types_8hpp.html" target="_top" xlink:title=" ">
<polygon fill="white" stroke="#666666" points="78.59,-74 13.59,-74 13.59,-55 78.59,-55 78.59,-74"/>
<text text-anchor="middle" x="46.09" y="-62" font-family="Helvetica,sans-Serif" font-size="10.00">types.hpp</text>
</a>
</g>
</g>
<!-- Node1&#45;&gt;Node9 -->
<g id="edge19_Node000001_Node000009" class="edge">
<title>Node1&#45;&gt;Node9</title>
<g id="a_edge19_Node000001_Node000009"><a xlink:title=" ">
<path fill="none" stroke="#63b8ff" d="M311.93,-164.84C260.65,-145.68 137.42,-99.63 78.51,-77.62"/>
<polygon fill="#63b8ff" stroke="#63b8ff" points="79.55,-74.27 68.96,-74.05 77.1,-80.83 79.55,-74.27"/>
</a>
</g>
</g>
<!-- Node13 -->
<g id="Node000013" class="node">
<title>Node13</title>
<g id="a_Node000013"><a xlink:title=" ">
<polygon fill="#e0e0e0" stroke="#999999" points="401.59,-129 352.59,-129 352.59,-110 401.59,-110 401.59,-129"/>
<text text-anchor="middle" x="377.09" y="-117" font-family="Helvetica,sans-Serif" font-size="10.00">cctype</text>
</a>
</g>
</g>
<!-- Node1&#45;&gt;Node13 -->
<g id="edge20_Node000001_Node000013" class="edge">
<title>Node1&#45;&gt;Node13</title>
<g id="a_edge20_Node000001_Node000013"><a xlink:title=" ">
<path fill="none" stroke="#63b8ff" d="M342.02,-164.75C347.96,-157.26 356.66,-146.28 363.91,-137.13"/>
<polygon fill="#63b8ff" stroke="#63b8ff" points="366.81,-139.1 370.28,-129.09 361.33,-134.75 366.81,-139.1"/>
</a>
</g>
</g>
<!-- Node14 -->
<g id="Node000014" class="node">
<title>Node14</title>
<g id="a_Node000014"><a xlink:title=" ">
<polygon fill="#e0e0e0" stroke="#999999" points="480.09,-129 420.09,-129 420.09,-110 480.09,-110 480.09,-129"/>
<text text-anchor="middle" x="450.09" y="-117" font-family="Helvetica,sans-Serif" font-size="10.00">iostream</text>
</a>
</g>
</g>
<!-- Node1&#45;&gt;Node14 -->
<g id="edge22_Node000001_Node000014" class="edge">
<title>Node1&#45;&gt;Node14</title>
<g id="a_edge22_Node000001_Node000014"><a xlink:title=" ">
<path fill="none" stroke="#63b8ff" d="M353.57,-164.98C372.07,-156.46 400.77,-143.23 422.07,-133.41"/>
<polygon fill="#63b8ff" stroke="#63b8ff" points="423.66,-136.53 431.28,-129.17 420.73,-130.18 423.66,-136.53"/>
</a>
</g>
</g>
<!-- Node15 -->
<g id="Node000015" class="node">
<title>Node15</title>
<g id="a_Node000015"><a xlink:title=" ">
<polygon fill="#e0e0e0" stroke="#999999" points="563.59,-129 498.59,-129 498.59,-110 563.59,-110 563.59,-129"/>
<text text-anchor="middle" x="531.09" y="-117" font-family="Helvetica,sans-Serif" font-size="10.00">stdexcept</text>
</a>
</g>
</g>
<!-- Node1&#45;&gt;Node15 -->
<g id="edge23_Node000001_Node000015" class="edge">
<title>Node1&#45;&gt;Node15</title>
<g id="a_edge23_Node000001_Node000015"><a xlink:title=" ">
<path fill="none" stroke="#63b8ff" d="M366.58,-164.98C399.91,-155.97 452.68,-141.7 489.44,-131.76"/>
<polygon fill="#63b8ff" stroke="#63b8ff" points="490.61,-135.07 499.35,-129.08 488.78,-128.31 490.61,-135.07"/>
</a>
</g>
</g>
<!-- Node3 -->
<g id="Node000003" class="node">
<title>Node3</title>
<g id="a_Node000003"><a xlink:href="bytecode_8hpp.html" target="_top" xlink:title=" ">
<polygon fill="white" stroke="#666666" points="405.59,-74 322.59,-74 322.59,-55 405.59,-55 405.59,-74"/>
<text text-anchor="middle" x="364.09" y="-62" font-family="Helvetica,sans-Serif" font-size="10.00">bytecode.hpp</text>
</a>
</g>
</g>
<!-- Node2&#45;&gt;Node3 -->
<g id="edge2_Node000002_Node000003" class="edge">
<title>Node2&#45;&gt;Node3</title>
<g id="a_edge2_Node000002_Node000003"><a xlink:title=" ">
<path fill="none" stroke="#63b8ff" d="M305.34,-109.98C315.89,-102 331.89,-89.88 344.53,-80.31"/>
<polygon fill="#63b8ff" stroke="#63b8ff" points="346.78,-83 352.64,-74.17 342.55,-77.42 346.78,-83"/>
</a>
</g>
</g>
<!-- Node4 -->
<g id="Node000004" class="node">
<title>Node4</title>
<g id="a_Node000004"><a xlink:title=" ">
<polygon fill="#e0e0e0" stroke="#999999" points="319.09,-19 269.09,-19 269.09,0 319.09,0 319.09,-19"/>
<text text-anchor="middle" x="294.09" y="-7" font-family="Helvetica,sans-Serif" font-size="10.00">cstdint</text>
</a>
</g>
</g>
<!-- Node2&#45;&gt;Node4 -->
<g id="edge13_Node000002_Node000004" class="edge">
<title>Node2&#45;&gt;Node4</title>
<g id="a_edge13_Node000002_Node000004"><a xlink:title=" ">
<path fill="none" stroke="#63b8ff" d="M294.09,-109.66C294.09,-92.17 294.09,-52.8 294.09,-29.27"/>
<polygon fill="#63b8ff" stroke="#63b8ff" points="297.59,-29.16 294.09,-19.16 290.59,-29.16 297.59,-29.16"/>
</a>
</g>
</g>
<!-- Node6 -->
<g id="Node000006" class="node">
<title>Node6</title>
<g id="a_Node000006"><a xlink:title=" ">
<polygon fill="#e0e0e0" stroke="#999999" points="483.09,-19 439.09,-19 439.09,0 483.09,0 483.09,-19"/>
<text text-anchor="middle" x="461.09" y="-7" font-family="Helvetica,sans-Serif" font-size="10.00">string</text>
</a>
</g>
</g>
<!-- Node2&#45;&gt;Node6 -->
<g id="edge15_Node000002_Node000006" class="edge">
<title>Node2&#45;&gt;Node6</title>
<g id="a_edge15_Node000002_Node000006"><a xlink:title=" ">
<path fill="none" stroke="#63b8ff" d="M330.8,-109.93C365.72,-101.17 415.1,-87.05 430.09,-74 443.65,-62.19 451.85,-43.08 456.38,-28.9"/>
<polygon fill="#63b8ff" stroke="#63b8ff" points="459.76,-29.8 459.15,-19.23 453.03,-27.87 459.76,-29.8"/>
</a>
</g>
</g>
<!-- Node7 -->
<g id="Node000007" class="node">
<title>Node7</title>
<g id="a_Node000007"><a xlink:title=" ">
<polygon fill="#e0e0e0" stroke="#999999" points="398.59,-19 351.59,-19 351.59,0 398.59,0 398.59,-19"/>
<text text-anchor="middle" x="375.09" y="-7" font-family="Helvetica,sans-Serif" font-size="10.00">vector</text>
</a>
</g>
</g>
<!-- Node2&#45;&gt;Node7 -->
<g id="edge17_Node000002_Node000007" class="edge">
<title>Node2&#45;&gt;Node7</title>
<g id="a_edge17_Node000002_Node000007"><a xlink:title=" ">
<path fill="none" stroke="#63b8ff" d="M330.48,-109.99C362.35,-101.71 405.1,-88.32 415.09,-74 426.35,-57.86 410.4,-38.66 395.43,-25.63"/>
<polygon fill="#63b8ff" stroke="#63b8ff" points="397.35,-22.69 387.39,-19.09 392.93,-28.12 397.35,-22.69"/>
</a>
</g>
</g>
<!-- Node8 -->
<g id="Node000008" class="node">
<title>Node8</title>
<g id="a_Node000008"><a xlink:href="params_8hpp.html" target="_top" xlink:title=" ">
<polygon fill="white" stroke="#666666" points="620.09,-74 500.09,-74 500.09,-55 620.09,-55 620.09,-74"/>
<text text-anchor="middle" x="560.09" y="-62" font-family="Helvetica,sans-Serif" font-size="10.00">compiler/params.hpp</text>
</a>
</g>
</g>
<!-- Node2&#45;&gt;Node8 -->
<g id="edge7_Node000002_Node000008" class="edge">
<title>Node2&#45;&gt;Node8</title>
<g id="a_edge7_Node000002_Node000008"><a xlink:title=" ">
<path fill="none" stroke="#63b8ff" d="M334.2,-110.51C380.33,-101.32 456.22,-86.19 507.16,-76.05"/>
<polygon fill="#63b8ff" stroke="#63b8ff" points="507.88,-79.47 517,-74.09 506.51,-72.61 507.88,-79.47"/>
</a>
</g>
</g>
<!-- Node2&#45;&gt;Node9 -->
<g id="edge9_Node000002_Node000009" class="edge">
<title>Node2&#45;&gt;Node9</title>
<g id="a_edge9_Node000002_Node000009"><a xlink:title=" ">
<path fill="none" stroke="#63b8ff" d="M254.24,-109.98C208.93,-100.3 135.22,-84.55 88.76,-74.62"/>
<polygon fill="#63b8ff" stroke="#63b8ff" points="89.22,-71.14 78.71,-72.47 87.76,-77.98 89.22,-71.14"/>
</a>
</g>
</g>
<!-- Node10 -->
<g id="Node000010" class="node">
<title>Node10</title>
<g id="a_Node000010"><a xlink:title=" ">
<polygon fill="#e0e0e0" stroke="#999999" points="703.59,-74 638.59,-74 638.59,-55 703.59,-55 703.59,-74"/>
<text text-anchor="middle" x="671.09" y="-62" font-family="Helvetica,sans-Serif" font-size="10.00">exception</text>
</a>
</g>
</g>
<!-- Node2&#45;&gt;Node10 -->
<g id="edge14_Node000002_Node000010" class="edge">
<title>Node2&#45;&gt;Node10</title>
<g id="a_edge14_Node000002_Node000010"><a xlink:title=" ">
<path fill="none" stroke="#63b8ff" d="M334.18,-111.53C337.53,-110.99 340.87,-110.48 344.09,-110 467.18,-91.77 501.38,-94.52 628.45,-73.98"/>
<polygon fill="#63b8ff" stroke="#63b8ff" points="629.27,-77.39 638.57,-72.33 628.14,-70.49 629.27,-77.39"/>
</a>
</g>
</g>
<!-- Node11 -->
<g id="Node000011" class="node">
<title>Node11</title>
<g id="a_Node000011"><a xlink:title=" ">
<polygon fill="#e0e0e0" stroke="#999999" points="189.59,-74 96.59,-74 96.59,-55 189.59,-55 189.59,-74"/>
<text text-anchor="middle" x="143.09" y="-62" font-family="Helvetica,sans-Serif" font-size="10.00">unordered_map</text>
</a>
</g>
</g>
<!-- Node2&#45;&gt;Node11 -->
<g id="edge16_Node000002_Node000011" class="edge">
<title>Node2&#45;&gt;Node11</title>
<g id="a_edge16_Node000002_Node000011"><a xlink:title=" ">
<path fill="none" stroke="#63b8ff" d="M269.83,-109.98C244.77,-101.19 205.46,-87.39 177.26,-77.49"/>
<polygon fill="#63b8ff" stroke="#63b8ff" points="178.39,-74.18 167.79,-74.17 176.07,-80.78 178.39,-74.18"/>
</a>
</g>
</g>
<!-- Node12 -->
<g id="Node000012" class="node">
<title>Node12</title>
<g id="a_Node000012"><a xlink:title=" ">
<polygon fill="#e0e0e0" stroke="#999999" points="266.09,-74 208.09,-74 208.09,-55 266.09,-55 266.09,-74"/>
<text text-anchor="middle" x="237.09" y="-62" font-family="Helvetica,sans-Serif" font-size="10.00">memory</text>
</a>
</g>
</g>
<!-- Node2&#45;&gt;Node12 -->
<g id="edge18_Node000002_Node000012" class="edge">
<title>Node2&#45;&gt;Node12</title>
<g id="a_edge18_Node000002_Node000012"><a xlink:title=" ">
<path fill="none" stroke="#63b8ff" d="M284.93,-109.98C276.59,-102.23 264.06,-90.58 253.91,-81.14"/>
<polygon fill="#63b8ff" stroke="#63b8ff" points="256.12,-78.42 246.41,-74.17 251.35,-83.54 256.12,-78.42"/>
</a>
</g>
</g>
<!-- Node3&#45;&gt;Node4 -->
<g id="edge3_Node000003_Node000004" class="edge">
<title>Node3&#45;&gt;Node4</title>
<g id="a_edge3_Node000003_Node000004"><a xlink:title=" ">
<path fill="none" stroke="#63b8ff" d="M352.84,-54.98C342.29,-47 326.29,-34.88 313.65,-25.31"/>
<polygon fill="#63b8ff" stroke="#63b8ff" points="315.63,-22.42 305.54,-19.17 311.4,-28 315.63,-22.42"/>
</a>
</g>
</g>
<!-- Node3&#45;&gt;Node5 -->
<g id="edge4_Node000003_Node000005" class="edge">
<title>Node3&#45;&gt;Node5</title>
<g id="a_edge4_Node000003_Node000005"><a xlink:title=" ">
<path fill="none" stroke="#63b8ff" d="M322.52,-56.57C259.94,-46.14 142.54,-26.58 82.89,-16.63"/>
<polygon fill="#63b8ff" stroke="#63b8ff" points="83.24,-13.14 72.8,-14.95 82.09,-20.05 83.24,-13.14"/>
</a>
</g>
</g>
<!-- Node3&#45;&gt;Node6 -->
<g id="edge5_Node000003_Node000006" class="edge">
<title>Node3&#45;&gt;Node6</title>
<g id="a_edge5_Node000003_Node000006"><a xlink:title=" ">
<path fill="none" stroke="#63b8ff" d="M379.67,-54.98C394.86,-46.69 418.19,-33.94 435.99,-24.22"/>
<polygon fill="#63b8ff" stroke="#63b8ff" points="438.12,-27.04 445.22,-19.17 434.77,-20.89 438.12,-27.04"/>
</a>
</g>
</g>
<!-- Node3&#45;&gt;Node7 -->
<g id="edge6_Node000003_Node000007" class="edge">
<title>Node3&#45;&gt;Node7</title>
<g id="a_edge6_Node000003_Node000007"><a xlink:title=" ">
<path fill="none" stroke="#63b8ff" d="M365.91,-54.75C367.35,-47.8 369.41,-37.85 371.22,-29.13"/>
<polygon fill="#63b8ff" stroke="#63b8ff" points="374.7,-29.59 373.31,-19.09 367.85,-28.17 374.7,-29.59"/>
</a>
</g>
</g>
<!-- Node8&#45;&gt;Node6 -->
<g id="edge8_Node000008_Node000006" class="edge">
<title>Node8&#45;&gt;Node6</title>
<g id="a_edge8_Node000008_Node000006"><a xlink:title=" ">
<path fill="none" stroke="#63b8ff" d="M544.18,-54.98C528.54,-46.61 504.43,-33.7 486.21,-23.95"/>
<polygon fill="#63b8ff" stroke="#63b8ff" points="487.75,-20.8 477.28,-19.17 484.45,-26.98 487.75,-20.8"/>
</a>
</g>
</g>
<!-- Node9&#45;&gt;Node4 -->
<g id="edge11_Node000009_Node000004" class="edge">
<title>Node9&#45;&gt;Node4</title>
<g id="a_edge11_Node000009_Node000004"><a xlink:title=" ">
<path fill="none" stroke="#63b8ff" d="M78.77,-56.52C125.45,-46.54 210.9,-28.28 258.92,-18.02"/>
<polygon fill="#63b8ff" stroke="#63b8ff" points="259.81,-21.41 268.86,-15.89 258.35,-14.56 259.81,-21.41"/>
</a>
</g>
</g>
<!-- Node9&#45;&gt;Node5 -->
<g id="edge10_Node000009_Node000005" class="edge">
<title>Node9&#45;&gt;Node5</title>
<g id="a_edge10_Node000009_Node000005"><a xlink:title=" ">
<path fill="none" stroke="#63b8ff" d="M46.09,-54.75C46.09,-47.8 46.09,-37.85 46.09,-29.13"/>
<polygon fill="#63b8ff" stroke="#63b8ff" points="49.59,-29.09 46.09,-19.09 42.59,-29.09 49.59,-29.09"/>
</a>
</g>
</g>
<!-- Node9&#45;&gt;Node6 -->
<g id="edge12_Node000009_Node000006" class="edge">
<title>Node9&#45;&gt;Node6</title>
<g id="a_edge12_Node000009_Node000006"><a xlink:title=" ">
<path fill="none" stroke="#63b8ff" d="M78.71,-56.45C81.54,-55.93 84.36,-55.43 87.09,-55 228.86,-32.4 265.84,-38.37 408.09,-19 414.75,-18.09 421.88,-17.02 428.66,-15.95"/>
<polygon fill="#63b8ff" stroke="#63b8ff" points="429.63,-19.34 438.95,-14.29 428.52,-12.43 429.63,-19.34"/>
</a>
</g>
</g>
</g>
</svg>
