<?xml version="1.0" encoding="UTF-8" standalone="no"?>
<!DOCTYPE svg PUBLIC "-//W3C//DTD SVG 1.1//EN"
 "http://www.w3.org/Graphics/SVG/1.1/DTD/svg11.dtd">
<!-- Generated by graphviz version 2.43.0 (0)
 -->
<!-- Title: src/compiler/lexer.cpp Pages: 1 -->
<svg width="1240pt" height="192pt"
 viewBox="0.00 0.00 1239.59 192.00" xmlns="http://www.w3.org/2000/svg" xmlns:xlink="http://www.w3.org/1999/xlink">
<g id="graph0" class="graph" transform="scale(1 1) rotate(0) translate(4 188)">
<title>src/compiler/lexer.cpp</title>
<!-- Node1 -->
<g id="Node000001" class="node">
<title>Node1</title>
<g id="a_Node000001"><a xlink:title=" ">
<polygon fill="#999999" stroke="#666666" points="938.59,-184 815.59,-184 815.59,-165 938.59,-165 938.59,-184"/>
<text text-anchor="middle" x="877.09" y="-172" font-family="Helvetica,sans-Serif" font-size="10.00">src/compiler/lexer.cpp</text>
</a>
</g>
</g>
<!-- Node2 -->
<g id="Node000002" class="node">
<title>Node2</title>
<g id="a_Node000002"><a xlink:href="compiler_8hpp.html" target="_top" xlink:title=" ">
<polygon fill="white" stroke="#666666" points="579.09,-129 499.09,-129 499.09,-110 579.09,-110 579.09,-129"/>
<text text-anchor="middle" x="539.09" y="-117" font-family="Helvetica,sans-Serif" font-size="10.00">compiler.hpp</text>
</a>
</g>
</g>
<!-- Node1&#45;&gt;Node2 -->
<g id="edge1_Node000001_Node000002" class="edge">
<title>Node1&#45;&gt;Node2</title>
<g id="a_edge1_Node000001_Node000002"><a xlink:title=" ">
<path fill="none" stroke="#63b8ff" d="M822.79,-164.98C758.44,-154.9 652.1,-138.22 589.51,-128.41"/>
<polygon fill="#63b8ff" stroke="#63b8ff" points="589.9,-124.92 579.47,-126.83 588.81,-131.84 589.9,-124.92"/>
</a>
</g>
</g>
<!-- Node4 -->
<g id="Node000004" class="node">
<title>Node4</title>
<g id="a_Node000004"><a xlink:title=" ">
<polygon fill="#e0e0e0" stroke="#999999" points="742.09,-19 692.09,-19 692.09,0 742.09,0 742.09,-19"/>
<text text-anchor="middle" x="717.09" y="-7" font-family="Helvetica,sans-Serif" font-size="10.00">cstdint</text>
</a>
</g>
</g>
<!-- Node1&#45;&gt;Node4 -->
<g id="edge26_Node000001_Node000004" class="edge">
<title>Node1&#45;&gt;Node4</title>
<g id="a_edge26_Node000001_Node000004"><a xlink:title=" ">
<path fill="none" stroke="#63b8ff" d="M875.15,-164.81C869.93,-143.35 853.68,-87.26 820.09,-55 809.81,-45.13 777.64,-32.01 751.96,-22.57"/>
<polygon fill="#63b8ff" stroke="#63b8ff" points="753.08,-19.26 742.49,-19.15 750.7,-25.84 753.08,-19.26"/>
</a>
</g>
</g>
<!-- Node5 -->
<g id="Node000005" class="node">
<title>Node5</title>
<g id="a_Node000005"><a xlink:title=" ">
<polygon fill="#e0e0e0" stroke="#999999" points="813.59,-19 760.59,-19 760.59,0 813.59,0 813.59,-19"/>
<text text-anchor="middle" x="787.09" y="-7" font-family="Helvetica,sans-Serif" font-size="10.00">cstddef</text>
</a>
</g>
</g>
<!-- Node1&#45;&gt;Node5 -->
<g id="edge25_Node000001_Node000005" class="edge">
<title>Node1&#45;&gt;Node5</title>
<g id="a_edge25_Node000001_Node000005"><a xlink:title=" ">
<path fill="none" stroke="#63b8ff" d="M877.47,-164.92C877.98,-144.19 876.75,-90.44 853.09,-55 844.2,-41.68 829.84,-31.3 816.77,-23.93"/>
<polygon fill="#63b8ff" stroke="#63b8ff" points="818.07,-20.66 807.59,-19.1 814.81,-26.85 818.07,-20.66"/>
</a>
</g>
</g>
<!-- Node6 -->
<g id="Node000006" class="node">
<title>Node6</title>
<g id="a_Node000006"><a xlink:title=" ">
<polygon fill="#e0e0e0" stroke="#999999" points="381.09,-19 337.09,-19 337.09,0 381.09,0 381.09,-19"/>
<text text-anchor="middle" x="359.09" y="-7" font-family="Helvetica,sans-Serif" font-size="10.00">string</text>
</a>
</g>
</g>
<!-- Node1&#45;&gt;Node6 -->
<g id="edge29_Node000001_Node000006" class="edge">
<title>Node1&#45;&gt;Node6</title>
<g id="a_edge29_Node000001_Node000006"><a xlink:title=" ">
<path fill="none" stroke="#63b8ff" d="M815.45,-171.12C625.57,-163.15 59.05,-134.47 5.09,-74 -38.89,-24.71 231.68,-13.52 326.86,-11.12"/>
<polygon fill="#63b8ff" stroke="#63b8ff" points="327.14,-14.61 337.06,-10.88 326.98,-7.62 327.14,-14.61"/>
</a>
</g>
</g>
<!-- Node11 -->
<g id="Node000011" class="node">
<title>Node11</title>
<g id="a_Node000011"><a xlink:href="types_8hpp.html" target="_top" xlink:title=" ">
<polygon fill="white" stroke="#666666" points="810.59,-74 745.59,-74 745.59,-55 810.59,-55 810.59,-74"/>
<text text-anchor="middle" x="778.09" y="-62" font-family="Helvetica,sans-Serif" font-size="10.00">types.hpp</text>
</a>
</g>
</g>
<!-- Node1&#45;&gt;Node11 -->
<g id="edge23_Node000001_Node000011" class="edge">
<title>Node1&#45;&gt;Node11</title>
<g id="a_edge23_Node000001_Node000011"><a xlink:title=" ">
<path fill="none" stroke="#63b8ff" d="M865.69,-164.97C854.7,-156.47 837.89,-142.74 825.09,-129 811.55,-114.47 798.29,-96.05 789.32,-82.8"/>
<polygon fill="#63b8ff" stroke="#63b8ff" points="792.05,-80.59 783.61,-74.19 786.22,-84.46 792.05,-80.59"/>
</a>
</g>
</g>
<!-- Node15 -->
<g id="Node000015" class="node">
<title>Node15</title>
<g id="a_Node000015"><a xlink:title=" ">
<polygon fill="#e0e0e0" stroke="#999999" points="1002.59,-129 905.59,-129 905.59,-110 1002.59,-110 1002.59,-129"/>
<text text-anchor="middle" x="954.09" y="-117" font-family="Helvetica,sans-Serif" font-size="10.00">compiler/errno.h</text>
</a>
</g>
</g>
<!-- Node1&#45;&gt;Node15 -->
<g id="edge22_Node000001_Node000015" class="edge">
<title>Node1&#45;&gt;Node15</title>
<g id="a_edge22_Node000001_Node000015"><a xlink:title=" ">
<path fill="none" stroke="#63b8ff" d="M889.46,-164.98C901.18,-156.92 919.01,-144.65 932.98,-135.03"/>
<polygon fill="#63b8ff" stroke="#63b8ff" points="935.24,-137.72 941.5,-129.17 931.27,-131.96 935.24,-137.72"/>
</a>
</g>
</g>
<!-- Node16 -->
<g id="Node000016" class="node">
<title>Node16</title>
<g id="a_Node000016"><a xlink:title=" ">
<polygon fill="#e0e0e0" stroke="#999999" points="1069.59,-129 1020.59,-129 1020.59,-110 1069.59,-110 1069.59,-129"/>
<text text-anchor="middle" x="1045.09" y="-117" font-family="Helvetica,sans-Serif" font-size="10.00">cctype</text>
</a>
</g>
</g>
<!-- Node1&#45;&gt;Node16 -->
<g id="edge24_Node000001_Node000016" class="edge">
<title>Node1&#45;&gt;Node16</title>
<g id="a_edge24_Node000001_Node000016"><a xlink:title=" ">
<path fill="none" stroke="#63b8ff" d="M904.08,-164.98C933.04,-155.85 979.12,-141.31 1010.66,-131.36"/>
<polygon fill="#63b8ff" stroke="#63b8ff" points="1011.87,-134.65 1020.36,-128.3 1009.77,-127.97 1011.87,-134.65"/>
</a>
</g>
</g>
<!-- Node17 -->
<g id="Node000017" class="node">
<title>Node17</title>
<g id="a_Node000017"><a xlink:title=" ">
<polygon fill="#e0e0e0" stroke="#999999" points="1148.09,-129 1088.09,-129 1088.09,-110 1148.09,-110 1148.09,-129"/>
<text text-anchor="middle" x="1118.09" y="-117" font-family="Helvetica,sans-Serif" font-size="10.00">iostream</text>
</a>
</g>
</g>
<!-- Node1&#45;&gt;Node17 -->
<g id="edge27_Node000001_Node000017" class="edge">
<title>Node1&#45;&gt;Node17</title>
<g id="a_edge27_Node000001_Node000017"><a xlink:title=" ">
<path fill="none" stroke="#63b8ff" d="M915.81,-164.98C960.25,-155.21 1032.79,-139.26 1077.85,-129.35"/>
<polygon fill="#63b8ff" stroke="#63b8ff" points="1078.84,-132.72 1087.86,-127.15 1077.34,-125.88 1078.84,-132.72"/>
</a>
</g>
</g>
<!-- Node18 -->
<g id="Node000018" class="node">
<title>Node18</title>
<g id="a_Node000018"><a xlink:title=" ">
<polygon fill="#e0e0e0" stroke="#999999" points="1231.59,-129 1166.59,-129 1166.59,-110 1231.59,-110 1231.59,-129"/>
<text text-anchor="middle" x="1199.09" y="-117" font-family="Helvetica,sans-Serif" font-size="10.00">stdexcept</text>
</a>
</g>
</g>
<!-- Node1&#45;&gt;Node18 -->
<g id="edge28_Node000001_Node000018" class="edge">
<title>Node1&#45;&gt;Node18</title>
<g id="a_edge28_Node000001_Node000018"><a xlink:title=" ">
<path fill="none" stroke="#63b8ff" d="M935.4,-164.96C989.9,-156.82 1073.81,-143.86 1156.48,-129.04"/>
<polygon fill="#63b8ff" stroke="#63b8ff" points="1157.34,-132.44 1166.56,-127.22 1156.1,-125.55 1157.34,-132.44"/>
</a>
</g>
</g>
<!-- Node3 -->
<g id="Node000003" class="node">
<title>Node3</title>
<g id="a_Node000003"><a xlink:href="bytecode_8hpp.html" target="_top" xlink:title=" ">
<polygon fill="white" stroke="#666666" points="688.59,-74 605.59,-74 605.59,-55 688.59,-55 688.59,-74"/>
<text text-anchor="middle" x="647.09" y="-62" font-family="Helvetica,sans-Serif" font-size="10.00">bytecode.hpp</text>
</a>
</g>
</g>
<!-- Node2&#45;&gt;Node3 -->
<g id="edge2_Node000002_Node000003" class="edge">
<title>Node2&#45;&gt;Node3</title>
<g id="a_edge2_Node000002_Node000003"><a xlink:title=" ">
<path fill="none" stroke="#63b8ff" d="M556.44,-109.98C573.66,-101.54 600.29,-88.47 620.24,-78.68"/>
<polygon fill="#63b8ff" stroke="#63b8ff" points="621.99,-81.72 629.42,-74.17 618.9,-75.43 621.99,-81.72"/>
</a>
</g>
</g>
<!-- Node2&#45;&gt;Node4 -->
<g id="edge16_Node000002_Node000004" class="edge">
<title>Node2&#45;&gt;Node4</title>
<g id="a_edge16_Node000002_Node000004"><a xlink:title=" ">
<path fill="none" stroke="#63b8ff" d="M579.36,-117.7C615.13,-114.82 666.5,-105.04 698.09,-74 710.01,-62.29 714.52,-43.44 716.19,-29.31"/>
<polygon fill="#63b8ff" stroke="#63b8ff" points="719.69,-29.47 717.01,-19.22 712.71,-28.91 719.69,-29.47"/>
</a>
</g>
</g>
<!-- Node2&#45;&gt;Node6 -->
<g id="edge18_Node000002_Node000006" class="edge">
<title>Node2&#45;&gt;Node6</title>
<g id="a_edge18_Node000002_Node000006"><a xlink:title=" ">
<path fill="none" stroke="#63b8ff" d="M539.02,-109.77C538.42,-96.14 535.22,-69.81 520.09,-55 485.49,-21.12 427.51,-12.5 391.38,-10.61"/>
<polygon fill="#63b8ff" stroke="#63b8ff" points="391.49,-7.11 381.37,-10.23 391.23,-14.11 391.49,-7.11"/>
</a>
</g>
</g>
<!-- Node7 -->
<g id="Node000007" class="node">
<title>Node7</title>
<g id="a_Node000007"><a xlink:title=" ">
<polygon fill="#e0e0e0" stroke="#999999" points="635.59,-19 588.59,-19 588.59,0 635.59,0 635.59,-19"/>
<text text-anchor="middle" x="612.09" y="-7" font-family="Helvetica,sans-Serif" font-size="10.00">vector</text>
</a>
</g>
</g>
<!-- Node2&#45;&gt;Node7 -->
<g id="edge20_Node000002_Node000007" class="edge">
<title>Node2&#45;&gt;Node7</title>
<g id="a_edge20_Node000002_Node000007"><a xlink:title=" ">
<path fill="none" stroke="#63b8ff" d="M545.07,-109.66C557.16,-91.77 584.71,-51 600.47,-27.69"/>
<polygon fill="#63b8ff" stroke="#63b8ff" points="603.54,-29.4 606.24,-19.16 597.74,-25.48 603.54,-29.4"/>
</a>
</g>
</g>
<!-- Node8 -->
<g id="Node000008" class="node">
<title>Node8</title>
<g id="a_Node000008"><a xlink:href="essentials_8hpp.html" target="_top" xlink:title=" ">
<polygon fill="white" stroke="#666666" points="101.59,-74 14.59,-74 14.59,-55 101.59,-55 101.59,-74"/>
<text text-anchor="middle" x="58.09" y="-62" font-family="Helvetica,sans-Serif" font-size="10.00">essentials.hpp</text>
</a>
</g>
</g>
<!-- Node2&#45;&gt;Node8 -->
<g id="edge7_Node000002_Node000008" class="edge">
<title>Node2&#45;&gt;Node8</title>
<g id="a_edge7_Node000002_Node000008"><a xlink:title=" ">
<path fill="none" stroke="#63b8ff" d="M498.88,-115.07C424.65,-108.57 260.87,-93.48 111.97,-74.04"/>
<polygon fill="#63b8ff" stroke="#63b8ff" points="112.11,-70.53 101.74,-72.7 111.19,-77.47 112.11,-70.53"/>
</a>
</g>
</g>
<!-- Node10 -->
<g id="Node000010" class="node">
<title>Node10</title>
<g id="a_Node000010"><a xlink:href="params_8hpp.html" target="_top" xlink:title=" ">
<polygon fill="white" stroke="#666666" points="240.09,-74 120.09,-74 120.09,-55 240.09,-55 240.09,-74"/>
<text text-anchor="middle" x="180.09" y="-62" font-family="Helvetica,sans-Serif" font-size="10.00">compiler/params.hpp</text>
</a>
</g>
</g>
<!-- Node2&#45;&gt;Node10 -->
<g id="edge10_Node000002_Node000010" class="edge">
<title>Node2&#45;&gt;Node10</title>
<g id="a_edge10_Node000002_Node000010"><a xlink:title=" ">
<path fill="none" stroke="#63b8ff" d="M498.95,-112.57C438.14,-103.6 321.91,-86.44 247.84,-75.5"/>
<polygon fill="#63b8ff" stroke="#63b8ff" points="248.08,-72 237.68,-74 247.06,-78.93 248.08,-72"/>
</a>
</g>
</g>
<!-- Node2&#45;&gt;Node11 -->
<g id="edge12_Node000002_Node000011" class="edge">
<title>Node2&#45;&gt;Node11</title>
<g id="a_edge12_Node000002_Node000011"><a xlink:title=" ">
<path fill="none" stroke="#63b8ff" d="M577.49,-109.98C620.7,-100.4 690.71,-84.88 735.55,-74.93"/>
<polygon fill="#63b8ff" stroke="#63b8ff" points="736.54,-78.3 745.55,-72.72 735.03,-71.47 736.54,-78.3"/>
</a>
</g>
</g>
<!-- Node12 -->
<g id="Node000012" class="node">
<title>Node12</title>
<g id="a_Node000012"><a xlink:title=" ">
<polygon fill="#e0e0e0" stroke="#999999" points="323.59,-74 258.59,-74 258.59,-55 323.59,-55 323.59,-74"/>
<text text-anchor="middle" x="291.09" y="-62" font-family="Helvetica,sans-Serif" font-size="10.00">exception</text>
</a>
</g>
</g>
<!-- Node2&#45;&gt;Node12 -->
<g id="edge17_Node000002_Node000012" class="edge">
<title>Node2&#45;&gt;Node12</title>
<g id="a_edge17_Node000002_Node000012"><a xlink:title=" ">
<path fill="none" stroke="#63b8ff" d="M499.25,-109.98C453.93,-100.3 380.22,-84.55 333.76,-74.62"/>
<polygon fill="#63b8ff" stroke="#63b8ff" points="334.22,-71.14 323.71,-72.47 332.76,-77.98 334.22,-71.14"/>
</a>
</g>
</g>
<!-- Node13 -->
<g id="Node000013" class="node">
<title>Node13</title>
<g id="a_Node000013"><a xlink:title=" ">
<polygon fill="#e0e0e0" stroke="#999999" points="434.59,-74 341.59,-74 341.59,-55 434.59,-55 434.59,-74"/>
<text text-anchor="middle" x="388.09" y="-62" font-family="Helvetica,sans-Serif" font-size="10.00">unordered_map</text>
</a>
</g>
</g>
<!-- Node2&#45;&gt;Node13 -->
<g id="edge19_Node000002_Node000013" class="edge">
<title>Node2&#45;&gt;Node13</title>
<g id="a_edge19_Node000002_Node000013"><a xlink:title=" ">
<path fill="none" stroke="#63b8ff" d="M514.83,-109.98C489.77,-101.19 450.46,-87.39 422.26,-77.49"/>
<polygon fill="#63b8ff" stroke="#63b8ff" points="423.39,-74.18 412.79,-74.17 421.07,-80.78 423.39,-74.18"/>
</a>
</g>
</g>
<!-- Node14 -->
<g id="Node000014" class="node">
<title>Node14</title>
<g id="a_Node000014"><a xlink:title=" ">
<polygon fill="#e0e0e0" stroke="#999999" points="511.09,-74 453.09,-74 453.09,-55 511.09,-55 511.09,-74"/>
<text text-anchor="middle" x="482.09" y="-62" font-family="Helvetica,sans-Serif" font-size="10.00">memory</text>
</a>
</g>
</g>
<!-- Node2&#45;&gt;Node14 -->
<g id="edge21_Node000002_Node000014" class="edge">
<title>Node2&#45;&gt;Node14</title>
<g id="a_edge21_Node000002_Node000014"><a xlink:title=" ">
<path fill="none" stroke="#63b8ff" d="M529.93,-109.98C521.59,-102.23 509.06,-90.58 498.91,-81.14"/>
<polygon fill="#63b8ff" stroke="#63b8ff" points="501.12,-78.42 491.42,-74.17 496.36,-83.54 501.12,-78.42"/>
</a>
</g>
</g>
<!-- Node3&#45;&gt;Node4 -->
<g id="edge3_Node000003_Node000004" class="edge">
<title>Node3&#45;&gt;Node4</title>
<g id="a_edge3_Node000003_Node000004"><a xlink:title=" ">
<path fill="none" stroke="#63b8ff" d="M658.34,-54.98C668.89,-47 684.89,-34.88 697.53,-25.31"/>
<polygon fill="#63b8ff" stroke="#63b8ff" points="699.78,-28 705.64,-19.17 695.55,-22.42 699.78,-28"/>
</a>
</g>
</g>
<!-- Node3&#45;&gt;Node5 -->
<g id="edge4_Node000003_Node000005" class="edge">
<title>Node3&#45;&gt;Node5</title>
<g id="a_edge4_Node000003_Node000005"><a xlink:title=" ">
<path fill="none" stroke="#63b8ff" d="M669.58,-54.98C692.61,-46.27 728.63,-32.63 754.72,-22.75"/>
<polygon fill="#63b8ff" stroke="#63b8ff" points="756.08,-25.98 764.19,-19.17 753.6,-19.44 756.08,-25.98"/>
</a>
</g>
</g>
<!-- Node3&#45;&gt;Node6 -->
<g id="edge5_Node000003_Node000006" class="edge">
<title>Node3&#45;&gt;Node6</title>
<g id="a_edge5_Node000003_Node000006"><a xlink:title=" ">
<path fill="none" stroke="#63b8ff" d="M605.52,-55.85C547.67,-45.2 444.07,-26.14 391.54,-16.47"/>
<polygon fill="#63b8ff" stroke="#63b8ff" points="391.91,-12.98 381.44,-14.61 390.65,-19.87 391.91,-12.98"/>
</a>
</g>
</g>
<!-- Node3&#45;&gt;Node7 -->
<g id="edge6_Node000003_Node000007" class="edge">
<title>Node3&#45;&gt;Node7</title>
<g id="a_edge6_Node000003_Node000007"><a xlink:title=" ">
<path fill="none" stroke="#63b8ff" d="M641.31,-54.75C636.47,-47.42 629.41,-36.73 623.45,-27.7"/>
<polygon fill="#63b8ff" stroke="#63b8ff" points="626.19,-25.5 617.76,-19.09 620.35,-29.36 626.19,-25.5"/>
</a>
</g>
</g>
<!-- Node8&#45;&gt;Node6 -->
<g id="edge9_Node000008_Node000006" class="edge">
<title>Node8&#45;&gt;Node6</title>
<g id="a_edge9_Node000008_Node000006"><a xlink:title=" ">
<path fill="none" stroke="#63b8ff" d="M101.86,-55.79C163,-45.03 272.57,-25.73 326.83,-16.18"/>
<polygon fill="#63b8ff" stroke="#63b8ff" points="327.67,-19.59 336.91,-14.41 326.46,-12.69 327.67,-19.59"/>
</a>
</g>
</g>
<!-- Node9 -->
<g id="Node000009" class="node">
<title>Node9</title>
<g id="a_Node000009"><a xlink:title=" ">
<polygon fill="#e0e0e0" stroke="#999999" points="83.59,-19 32.59,-19 32.59,0 83.59,0 83.59,-19"/>
<text text-anchor="middle" x="58.09" y="-7" font-family="Helvetica,sans-Serif" font-size="10.00">errno.h</text>
</a>
</g>
</g>
<!-- Node8&#45;&gt;Node9 -->
<g id="edge8_Node000008_Node000009" class="edge">
<title>Node8&#45;&gt;Node9</title>
<g id="a_edge8_Node000008_Node000009"><a xlink:title=" ">
<path fill="none" stroke="#63b8ff" d="M58.09,-54.75C58.09,-47.8 58.09,-37.85 58.09,-29.13"/>
<polygon fill="#63b8ff" stroke="#63b8ff" points="61.59,-29.09 58.09,-19.09 54.59,-29.09 61.59,-29.09"/>
</a>
</g>
</g>
<!-- Node10&#45;&gt;Node6 -->
<g id="edge11_Node000010_Node000006" class="edge">
<title>Node10&#45;&gt;Node6</title>
<g id="a_edge11_Node000010_Node000006"><a xlink:title=" ">
<path fill="none" stroke="#63b8ff" d="M208.85,-54.98C241.18,-45.41 293.54,-29.91 327.13,-19.96"/>
<polygon fill="#63b8ff" stroke="#63b8ff" points="328.31,-23.26 336.91,-17.07 326.32,-16.55 328.31,-23.26"/>
</a>
</g>
</g>
<!-- Node11&#45;&gt;Node4 -->
<g id="edge14_Node000011_Node000004" class="edge">
<title>Node11&#45;&gt;Node4</title>
<g id="a_edge14_Node000011_Node000004"><a xlink:title=" ">
<path fill="none" stroke="#63b8ff" d="M768.29,-54.98C759.27,-47.15 745.69,-35.34 734.77,-25.86"/>
<polygon fill="#63b8ff" stroke="#63b8ff" points="736.91,-23.09 727.07,-19.17 732.32,-28.37 736.91,-23.09"/>
</a>
</g>
</g>
<!-- Node11&#45;&gt;Node5 -->
<g id="edge13_Node000011_Node000005" class="edge">
<title>Node11&#45;&gt;Node5</title>
<g id="a_edge13_Node000011_Node000005"><a xlink:title=" ">
<path fill="none" stroke="#63b8ff" d="M779.58,-54.75C780.76,-47.8 782.45,-37.85 783.93,-29.13"/>
<polygon fill="#63b8ff" stroke="#63b8ff" points="787.41,-29.53 785.63,-19.09 780.51,-28.36 787.41,-29.53"/>
</a>
</g>
</g>
<!-- Node11&#45;&gt;Node6 -->
<g id="edge15_Node000011_Node000006" class="edge">
<title>Node11&#45;&gt;Node6</title>
<g id="a_edge15_Node000011_Node000006"><a xlink:title=" ">
<path fill="none" stroke="#63b8ff" d="M745.56,-59.39C667.33,-49.49 469.39,-24.45 391.39,-14.59"/>
<polygon fill="#63b8ff" stroke="#63b8ff" points="391.57,-11.08 381.21,-13.3 390.69,-18.02 391.57,-11.08"/>
</a>
</g>
</g>
</g>
</svg>
