<?xml version="1.0" encoding="UTF-8" standalone="no"?>
<!DOCTYPE svg PUBLIC "-//W3C//DTD SVG 1.1//EN"
 "http://www.w3.org/Graphics/SVG/1.1/DTD/svg11.dtd">
<!-- Generated by graphviz version 2.43.0 (0)
 -->
<!-- Title: src/compiler/lexer.cpp Pages: 1 -->
<svg width="711pt" height="192pt"
 viewBox="0.00 0.00 711.46 192.00" xmlns="http://www.w3.org/2000/svg" xmlns:xlink="http://www.w3.org/1999/xlink">
<g id="graph0" class="graph" transform="scale(1 1) rotate(0) translate(4 188)">
<title>src/compiler/lexer.cpp</title>
<!-- Node1 -->
<g id="Node000001" class="node">
<title>Node1</title>
<g id="a_Node000001"><a xlink:title=" ">
<polygon fill="#999999" stroke="#666666" points="355.46,-184 232.46,-184 232.46,-165 355.46,-165 355.46,-184"/>
<text text-anchor="middle" x="293.96" y="-172" font-family="Helvetica,sans-Serif" font-size="10.00">src/compiler/lexer.cpp</text>
</a>
</g>
</g>
<!-- Node2 -->
<g id="Node000002" class="node">
<title>Node2</title>
<g id="a_Node000002"><a xlink:href="compiler_8hpp.html" target="_top" xlink:title=" ">
<polygon fill="white" stroke="#666666" points="333.96,-129 253.96,-129 253.96,-110 333.96,-110 333.96,-129"/>
<text text-anchor="middle" x="293.96" y="-117" font-family="Helvetica,sans-Serif" font-size="10.00">compiler.hpp</text>
</a>
</g>
</g>
<!-- Node1&#45;&gt;Node2 -->
<g id="edge1_Node000001_Node000002" class="edge">
<title>Node1&#45;&gt;Node2</title>
<g id="a_edge1_Node000001_Node000002"><a xlink:title=" ">
<path fill="none" stroke="#63b8ff" d="M293.96,-164.75C293.96,-157.8 293.96,-147.85 293.96,-139.13"/>
<polygon fill="#63b8ff" stroke="#63b8ff" points="297.46,-139.09 293.96,-129.09 290.46,-139.09 297.46,-139.09"/>
</a>
</g>
</g>
<!-- Node5 -->
<g id="Node000005" class="node">
<title>Node5</title>
<g id="a_Node000005"><a xlink:title=" ">
<polygon fill="#e0e0e0" stroke="#999999" points="72.46,-19 19.46,-19 19.46,0 72.46,0 72.46,-19"/>
<text text-anchor="middle" x="45.96" y="-7" font-family="Helvetica,sans-Serif" font-size="10.00">cstddef</text>
</a>
</g>
</g>
<!-- Node1&#45;&gt;Node5 -->
<g id="edge21_Node000001_Node000005" class="edge">
<title>Node1&#45;&gt;Node5</title>
<g id="a_edge21_Node000001_Node000005"><a xlink:title=" ">
<path fill="none" stroke="#63b8ff" d="M232.2,-172.29C163.3,-167.21 54.86,-147.21 3.96,-74 -7.54,-57.46 9.55,-38.1 25.26,-25.15"/>
<polygon fill="#63b8ff" stroke="#63b8ff" points="27.42,-27.9 33.18,-19.01 23.14,-22.36 27.42,-27.9"/>
</a>
</g>
</g>
<!-- Node9 -->
<g id="Node000009" class="node">
<title>Node9</title>
<g id="a_Node000009"><a xlink:href="types_8hpp.html" target="_top" xlink:title=" ">
<polygon fill="white" stroke="#666666" points="78.46,-74 13.46,-74 13.46,-55 78.46,-55 78.46,-74"/>
<text text-anchor="middle" x="45.96" y="-62" font-family="Helvetica,sans-Serif" font-size="10.00">types.hpp</text>
</a>
</g>
</g>
<!-- Node1&#45;&gt;Node9 -->
<g id="edge19_Node000001_Node000009" class="edge">
<title>Node1&#45;&gt;Node9</title>
<g id="a_edge19_Node000001_Node000009"><a xlink:title=" ">
<path fill="none" stroke="#63b8ff" d="M274.09,-164.84C230.45,-145.84 126.08,-100.39 75.05,-78.17"/>
<polygon fill="#63b8ff" stroke="#63b8ff" points="76.16,-74.83 65.59,-74.05 73.36,-81.25 76.16,-74.83"/>
</a>
</g>
</g>
<!-- Node13 -->
<g id="Node000013" class="node">
<title>Node13</title>
<g id="a_Node000013"><a xlink:title=" ">
<polygon fill="#e0e0e0" stroke="#999999" points="401.46,-129 352.46,-129 352.46,-110 401.46,-110 401.46,-129"/>
<text text-anchor="middle" x="376.96" y="-117" font-family="Helvetica,sans-Serif" font-size="10.00">cctype</text>
</a>
</g>
</g>
<!-- Node1&#45;&gt;Node13 -->
<g id="edge20_Node000001_Node000013" class="edge">
<title>Node1&#45;&gt;Node13</title>
<g id="a_edge20_Node000001_Node000013"><a xlink:title=" ">
<path fill="none" stroke="#63b8ff" d="M307.3,-164.98C320.05,-156.84 339.52,-144.41 354.63,-134.76"/>
<polygon fill="#63b8ff" stroke="#63b8ff" points="356.84,-137.5 363.39,-129.17 353.07,-131.6 356.84,-137.5"/>
</a>
</g>
</g>
<!-- Node14 -->
<g id="Node000014" class="node">
<title>Node14</title>
<g id="a_Node000014"><a xlink:title=" ">
<polygon fill="#e0e0e0" stroke="#999999" points="484.46,-129 419.46,-129 419.46,-110 484.46,-110 484.46,-129"/>
<text text-anchor="middle" x="451.96" y="-117" font-family="Helvetica,sans-Serif" font-size="10.00">stdexcept</text>
</a>
</g>
</g>
<!-- Node1&#45;&gt;Node14 -->
<g id="edge22_Node000001_Node000014" class="edge">
<title>Node1&#45;&gt;Node14</title>
<g id="a_edge22_Node000001_Node000014"><a xlink:title=" ">
<path fill="none" stroke="#63b8ff" d="M319.35,-164.98C345.76,-156.13 387.31,-142.19 416.86,-132.28"/>
<polygon fill="#63b8ff" stroke="#63b8ff" points="418.01,-135.58 426.38,-129.08 415.79,-128.94 418.01,-135.58"/>
</a>
</g>
</g>
<!-- Node3 -->
<g id="Node000003" class="node">
<title>Node3</title>
<g id="a_Node000003"><a xlink:href="bytecode_8hpp.html" target="_top" xlink:title=" ">
<polygon fill="white" stroke="#666666" points="405.46,-74 322.46,-74 322.46,-55 405.46,-55 405.46,-74"/>
<text text-anchor="middle" x="363.96" y="-62" font-family="Helvetica,sans-Serif" font-size="10.00">bytecode.hpp</text>
</a>
</g>
</g>
<!-- Node2&#45;&gt;Node3 -->
<g id="edge2_Node000002_Node000003" class="edge">
<title>Node2&#45;&gt;Node3</title>
<g id="a_edge2_Node000002_Node000003"><a xlink:title=" ">
<path fill="none" stroke="#63b8ff" d="M305.21,-109.98C315.76,-102 331.76,-89.88 344.41,-80.31"/>
<polygon fill="#63b8ff" stroke="#63b8ff" points="346.65,-83 352.51,-74.17 342.43,-77.42 346.65,-83"/>
</a>
</g>
</g>
<!-- Node4 -->
<g id="Node000004" class="node">
<title>Node4</title>
<g id="a_Node000004"><a xlink:title=" ">
<polygon fill="#e0e0e0" stroke="#999999" points="318.96,-19 268.96,-19 268.96,0 318.96,0 318.96,-19"/>
<text text-anchor="middle" x="293.96" y="-7" font-family="Helvetica,sans-Serif" font-size="10.00">cstdint</text>
</a>
</g>
</g>
<!-- Node2&#45;&gt;Node4 -->
<g id="edge13_Node000002_Node000004" class="edge">
<title>Node2&#45;&gt;Node4</title>
<g id="a_edge13_Node000002_Node000004"><a xlink:title=" ">
<path fill="none" stroke="#63b8ff" d="M293.96,-109.66C293.96,-92.17 293.96,-52.8 293.96,-29.27"/>
<polygon fill="#63b8ff" stroke="#63b8ff" points="297.46,-29.16 293.96,-19.16 290.46,-29.16 297.46,-29.16"/>
</a>
</g>
</g>
<!-- Node6 -->
<g id="Node000006" class="node">
<title>Node6</title>
<g id="a_Node000006"><a xlink:title=" ">
<polygon fill="#e0e0e0" stroke="#999999" points="482.96,-19 438.96,-19 438.96,0 482.96,0 482.96,-19"/>
<text text-anchor="middle" x="460.96" y="-7" font-family="Helvetica,sans-Serif" font-size="10.00">string</text>
</a>
</g>
</g>
<!-- Node2&#45;&gt;Node6 -->
<g id="edge15_Node000002_Node000006" class="edge">
<title>Node2&#45;&gt;Node6</title>
<g id="a_edge15_Node000002_Node000006"><a xlink:title=" ">
<path fill="none" stroke="#63b8ff" d="M330.67,-109.93C365.6,-101.17 414.98,-87.05 429.96,-74 443.53,-62.19 451.72,-43.08 456.25,-28.9"/>
<polygon fill="#63b8ff" stroke="#63b8ff" points="459.63,-29.8 459.03,-19.23 452.9,-27.87 459.63,-29.8"/>
</a>
</g>
</g>
<!-- Node7 -->
<g id="Node000007" class="node">
<title>Node7</title>
<g id="a_Node000007"><a xlink:title=" ">
<polygon fill="#e0e0e0" stroke="#999999" points="398.46,-19 351.46,-19 351.46,0 398.46,0 398.46,-19"/>
<text text-anchor="middle" x="374.96" y="-7" font-family="Helvetica,sans-Serif" font-size="10.00">vector</text>
</a>
</g>
</g>
<!-- Node2&#45;&gt;Node7 -->
<g id="edge17_Node000002_Node000007" class="edge">
<title>Node2&#45;&gt;Node7</title>
<g id="a_edge17_Node000002_Node000007"><a xlink:title=" ">
<path fill="none" stroke="#63b8ff" d="M330.36,-109.99C362.23,-101.71 404.97,-88.32 414.96,-74 426.22,-57.86 410.28,-38.66 395.3,-25.63"/>
<polygon fill="#63b8ff" stroke="#63b8ff" points="397.23,-22.69 387.26,-19.09 392.81,-28.12 397.23,-22.69"/>
</a>
</g>
</g>
<!-- Node8 -->
<g id="Node000008" class="node">
<title>Node8</title>
<g id="a_Node000008"><a xlink:href="params_8hpp.html" target="_top" xlink:title=" ">
<polygon fill="white" stroke="#666666" points="619.96,-74 499.96,-74 499.96,-55 619.96,-55 619.96,-74"/>
<text text-anchor="middle" x="559.96" y="-62" font-family="Helvetica,sans-Serif" font-size="10.00">compiler/params.hpp</text>
</a>
</g>
</g>
<!-- Node2&#45;&gt;Node8 -->
<g id="edge7_Node000002_Node000008" class="edge">
<title>Node2&#45;&gt;Node8</title>
<g id="a_edge7_Node000002_Node000008"><a xlink:title=" ">
<path fill="none" stroke="#63b8ff" d="M334.07,-110.51C380.2,-101.32 456.1,-86.19 507.04,-76.05"/>
<polygon fill="#63b8ff" stroke="#63b8ff" points="507.75,-79.47 516.87,-74.09 506.38,-72.61 507.75,-79.47"/>
</a>
</g>
</g>
<!-- Node2&#45;&gt;Node9 -->
<g id="edge9_Node000002_Node000009" class="edge">
<title>Node2&#45;&gt;Node9</title>
<g id="a_edge9_Node000002_Node000009"><a xlink:title=" ">
<path fill="none" stroke="#63b8ff" d="M254.12,-109.98C208.8,-100.3 135.09,-84.55 88.63,-74.62"/>
<polygon fill="#63b8ff" stroke="#63b8ff" points="89.1,-71.14 78.58,-72.47 87.63,-77.98 89.1,-71.14"/>
</a>
</g>
</g>
<!-- Node10 -->
<g id="Node000010" class="node">
<title>Node10</title>
<g id="a_Node000010"><a xlink:title=" ">
<polygon fill="#e0e0e0" stroke="#999999" points="703.46,-74 638.46,-74 638.46,-55 703.46,-55 703.46,-74"/>
<text text-anchor="middle" x="670.96" y="-62" font-family="Helvetica,sans-Serif" font-size="10.00">exception</text>
</a>
</g>
</g>
<!-- Node2&#45;&gt;Node10 -->
<g id="edge14_Node000002_Node000010" class="edge">
<title>Node2&#45;&gt;Node10</title>
<g id="a_edge14_Node000002_Node000010"><a xlink:title=" ">
<path fill="none" stroke="#63b8ff" d="M334.06,-111.53C337.41,-110.99 340.74,-110.48 343.96,-110 467.05,-91.77 501.25,-94.52 628.32,-73.98"/>
<polygon fill="#63b8ff" stroke="#63b8ff" points="629.14,-77.39 638.45,-72.33 628.01,-70.49 629.14,-77.39"/>
</a>
</g>
</g>
<!-- Node11 -->
<g id="Node000011" class="node">
<title>Node11</title>
<g id="a_Node000011"><a xlink:title=" ">
<polygon fill="#e0e0e0" stroke="#999999" points="189.46,-74 96.46,-74 96.46,-55 189.46,-55 189.46,-74"/>
<text text-anchor="middle" x="142.96" y="-62" font-family="Helvetica,sans-Serif" font-size="10.00">unordered_map</text>
</a>
</g>
</g>
<!-- Node2&#45;&gt;Node11 -->
<g id="edge16_Node000002_Node000011" class="edge">
<title>Node2&#45;&gt;Node11</title>
<g id="a_edge16_Node000002_Node000011"><a xlink:title=" ">
<path fill="none" stroke="#63b8ff" d="M269.7,-109.98C244.65,-101.19 205.33,-87.39 177.13,-77.49"/>
<polygon fill="#63b8ff" stroke="#63b8ff" points="178.26,-74.18 167.67,-74.17 175.94,-80.78 178.26,-74.18"/>
</a>
</g>
</g>
<!-- Node12 -->
<g id="Node000012" class="node">
<title>Node12</title>
<g id="a_Node000012"><a xlink:title=" ">
<polygon fill="#e0e0e0" stroke="#999999" points="265.96,-74 207.96,-74 207.96,-55 265.96,-55 265.96,-74"/>
<text text-anchor="middle" x="236.96" y="-62" font-family="Helvetica,sans-Serif" font-size="10.00">memory</text>
</a>
</g>
</g>
<!-- Node2&#45;&gt;Node12 -->
<g id="edge18_Node000002_Node000012" class="edge">
<title>Node2&#45;&gt;Node12</title>
<g id="a_edge18_Node000002_Node000012"><a xlink:title=" ">
<path fill="none" stroke="#63b8ff" d="M284.81,-109.98C276.46,-102.23 263.93,-90.58 253.79,-81.14"/>
<polygon fill="#63b8ff" stroke="#63b8ff" points="255.99,-78.42 246.29,-74.17 251.23,-83.54 255.99,-78.42"/>
</a>
</g>
</g>
<!-- Node3&#45;&gt;Node4 -->
<g id="edge3_Node000003_Node000004" class="edge">
<title>Node3&#45;&gt;Node4</title>
<g id="a_edge3_Node000003_Node000004"><a xlink:title=" ">
<path fill="none" stroke="#63b8ff" d="M352.72,-54.98C342.17,-47 326.16,-34.88 313.52,-25.31"/>
<polygon fill="#63b8ff" stroke="#63b8ff" points="315.5,-22.42 305.41,-19.17 311.27,-28 315.5,-22.42"/>
</a>
</g>
</g>
<!-- Node3&#45;&gt;Node5 -->
<g id="edge4_Node000003_Node000005" class="edge">
<title>Node3&#45;&gt;Node5</title>
<g id="a_edge4_Node000003_Node000005"><a xlink:title=" ">
<path fill="none" stroke="#63b8ff" d="M322.39,-56.57C259.82,-46.14 142.42,-26.58 82.77,-16.63"/>
<polygon fill="#63b8ff" stroke="#63b8ff" points="83.11,-13.14 72.67,-14.95 81.96,-20.05 83.11,-13.14"/>
</a>
</g>
</g>
<!-- Node3&#45;&gt;Node6 -->
<g id="edge5_Node000003_Node000006" class="edge">
<title>Node3&#45;&gt;Node6</title>
<g id="a_edge5_Node000003_Node000006"><a xlink:title=" ">
<path fill="none" stroke="#63b8ff" d="M379.55,-54.98C394.73,-46.69 418.06,-33.94 435.86,-24.22"/>
<polygon fill="#63b8ff" stroke="#63b8ff" points="438,-27.04 445.1,-19.17 434.64,-20.89 438,-27.04"/>
</a>
</g>
</g>
<!-- Node3&#45;&gt;Node7 -->
<g id="edge6_Node000003_Node000007" class="edge">
<title>Node3&#45;&gt;Node7</title>
<g id="a_edge6_Node000003_Node000007"><a xlink:title=" ">
<path fill="none" stroke="#63b8ff" d="M365.78,-54.75C367.22,-47.8 369.29,-37.85 371.1,-29.13"/>
<polygon fill="#63b8ff" stroke="#63b8ff" points="374.58,-29.59 373.18,-19.09 367.72,-28.17 374.58,-29.59"/>
</a>
</g>
</g>
<!-- Node8&#45;&gt;Node6 -->
<g id="edge8_Node000008_Node000006" class="edge">
<title>Node8&#45;&gt;Node6</title>
<g id="a_edge8_Node000008_Node000006"><a xlink:title=" ">
<path fill="none" stroke="#63b8ff" d="M544.06,-54.98C528.42,-46.61 504.31,-33.7 486.08,-23.95"/>
<polygon fill="#63b8ff" stroke="#63b8ff" points="487.63,-20.8 477.16,-19.17 484.32,-26.98 487.63,-20.8"/>
</a>
</g>
</g>
<!-- Node9&#45;&gt;Node4 -->
<g id="edge11_Node000009_Node000004" class="edge">
<title>Node9&#45;&gt;Node4</title>
<g id="a_edge11_Node000009_Node000004"><a xlink:title=" ">
<path fill="none" stroke="#63b8ff" d="M78.64,-56.52C125.33,-46.54 210.77,-28.28 258.79,-18.02"/>
<polygon fill="#63b8ff" stroke="#63b8ff" points="259.68,-21.41 268.73,-15.89 258.22,-14.56 259.68,-21.41"/>
</a>
</g>
</g>
<!-- Node9&#45;&gt;Node5 -->
<g id="edge10_Node000009_Node000005" class="edge">
<title>Node9&#45;&gt;Node5</title>
<g id="a_edge10_Node000009_Node000005"><a xlink:title=" ">
<path fill="none" stroke="#63b8ff" d="M45.96,-54.75C45.96,-47.8 45.96,-37.85 45.96,-29.13"/>
<polygon fill="#63b8ff" stroke="#63b8ff" points="49.46,-29.09 45.96,-19.09 42.46,-29.09 49.46,-29.09"/>
</a>
</g>
</g>
<!-- Node9&#45;&gt;Node6 -->
<g id="edge12_Node000009_Node000006" class="edge">
<title>Node9&#45;&gt;Node6</title>
<g id="a_edge12_Node000009_Node000006"><a xlink:title=" ">
<path fill="none" stroke="#63b8ff" d="M78.59,-56.45C81.41,-55.93 84.24,-55.43 86.96,-55 228.74,-32.4 265.72,-38.37 407.96,-19 414.63,-18.09 421.75,-17.02 428.54,-15.95"/>
<polygon fill="#63b8ff" stroke="#63b8ff" points="429.51,-19.34 438.82,-14.29 428.39,-12.43 429.51,-19.34"/>
</a>
</g>
</g>
</g>
</svg>
