<?xml version="1.0" encoding="UTF-8" standalone="no"?>
<!DOCTYPE svg PUBLIC "-//W3C//DTD SVG 1.1//EN"
 "http://www.w3.org/Graphics/SVG/1.1/DTD/svg11.dtd">
<!-- Generated by graphviz version 2.43.0 (0)
 -->
<!-- Title: src/compiler/lexer.cpp Pages: 1 -->
<svg width="529pt" height="192pt"
 viewBox="0.00 0.00 528.50 192.00" xmlns="http://www.w3.org/2000/svg" xmlns:xlink="http://www.w3.org/1999/xlink">
<g id="graph0" class="graph" transform="scale(1 1) rotate(0) translate(4 188)">
<title>src/compiler/lexer.cpp</title>
<!-- Node1 -->
<g id="Node000001" class="node">
<title>Node1</title>
<g id="a_Node000001"><a xlink:title=" ">
<polygon fill="#999999" stroke="#666666" points="236,-184 113,-184 113,-165 236,-165 236,-184"/>
<text text-anchor="middle" x="174.5" y="-172" font-family="Helvetica,sans-Serif" font-size="10.00">src/compiler/lexer.cpp</text>
</a>
</g>
</g>
<!-- Node2 -->
<g id="Node000002" class="node">
<title>Node2</title>
<g id="a_Node000002"><a xlink:href="compiler_8hpp.html" target="_top" xlink:title=" ">
<polygon fill="white" stroke="#666666" points="214.5,-129 134.5,-129 134.5,-110 214.5,-110 214.5,-129"/>
<text text-anchor="middle" x="174.5" y="-117" font-family="Helvetica,sans-Serif" font-size="10.00">compiler.hpp</text>
</a>
</g>
</g>
<!-- Node1&#45;&gt;Node2 -->
<g id="edge1_Node000001_Node000002" class="edge">
<title>Node1&#45;&gt;Node2</title>
<g id="a_edge1_Node000001_Node000002"><a xlink:title=" ">
<path fill="none" stroke="#63b8ff" d="M174.5,-164.75C174.5,-157.8 174.5,-147.85 174.5,-139.13"/>
<polygon fill="#63b8ff" stroke="#63b8ff" points="178,-139.09 174.5,-129.09 171,-139.09 178,-139.09"/>
</a>
</g>
</g>
<!-- Node3 -->
<g id="Node000003" class="node">
<title>Node3</title>
<g id="a_Node000003"><a xlink:href="types_8hpp.html" target="_top" xlink:title=" ">
<polygon fill="white" stroke="#666666" points="108,-74 43,-74 43,-55 108,-55 108,-74"/>
<text text-anchor="middle" x="75.5" y="-62" font-family="Helvetica,sans-Serif" font-size="10.00">types.hpp</text>
</a>
</g>
</g>
<!-- Node1&#45;&gt;Node3 -->
<g id="edge12_Node000001_Node000003" class="edge">
<title>Node1&#45;&gt;Node3</title>
<g id="a_edge12_Node000001_Node000003"><a xlink:title=" ">
<path fill="none" stroke="#63b8ff" d="M163.9,-164.77C153.64,-156.12 137.88,-142.28 125.5,-129 111.51,-113.99 97.18,-95.4 87.47,-82.23"/>
<polygon fill="#63b8ff" stroke="#63b8ff" points="90.26,-80.11 81.55,-74.08 84.6,-84.23 90.26,-80.11"/>
</a>
</g>
</g>
<!-- Node4 -->
<g id="Node000004" class="node">
<title>Node4</title>
<g id="a_Node000004"><a xlink:title=" ">
<polygon fill="#e0e0e0" stroke="#999999" points="53,-19 0,-19 0,0 53,0 53,-19"/>
<text text-anchor="middle" x="26.5" y="-7" font-family="Helvetica,sans-Serif" font-size="10.00">cstddef</text>
</a>
</g>
</g>
<!-- Node1&#45;&gt;Node4 -->
<g id="edge14_Node000001_Node000004" class="edge">
<title>Node1&#45;&gt;Node4</title>
<g id="a_edge14_Node000001_Node000004"><a xlink:title=" ">
<path fill="none" stroke="#63b8ff" d="M151.88,-164.93C119.28,-151.24 60.09,-121.09 33.5,-74 25.91,-60.56 24.5,-42.95 24.8,-29.69"/>
<polygon fill="#63b8ff" stroke="#63b8ff" points="28.31,-29.55 25.39,-19.37 21.33,-29.16 28.31,-29.55"/>
</a>
</g>
</g>
<!-- Node11 -->
<g id="Node000011" class="node">
<title>Node11</title>
<g id="a_Node000011"><a xlink:title=" ">
<polygon fill="#e0e0e0" stroke="#999999" points="282,-129 233,-129 233,-110 282,-110 282,-129"/>
<text text-anchor="middle" x="257.5" y="-117" font-family="Helvetica,sans-Serif" font-size="10.00">cctype</text>
</a>
</g>
</g>
<!-- Node1&#45;&gt;Node11 -->
<g id="edge13_Node000001_Node000011" class="edge">
<title>Node1&#45;&gt;Node11</title>
<g id="a_edge13_Node000001_Node000011"><a xlink:title=" ">
<path fill="none" stroke="#63b8ff" d="M187.84,-164.98C200.59,-156.84 220.05,-144.41 235.17,-134.76"/>
<polygon fill="#63b8ff" stroke="#63b8ff" points="237.38,-137.5 243.92,-129.17 233.61,-131.6 237.38,-137.5"/>
</a>
</g>
</g>
<!-- Node12 -->
<g id="Node000012" class="node">
<title>Node12</title>
<g id="a_Node000012"><a xlink:title=" ">
<polygon fill="#e0e0e0" stroke="#999999" points="365,-129 300,-129 300,-110 365,-110 365,-129"/>
<text text-anchor="middle" x="332.5" y="-117" font-family="Helvetica,sans-Serif" font-size="10.00">stdexcept</text>
</a>
</g>
</g>
<!-- Node1&#45;&gt;Node12 -->
<g id="edge15_Node000001_Node000012" class="edge">
<title>Node1&#45;&gt;Node12</title>
<g id="a_edge15_Node000001_Node000012"><a xlink:title=" ">
<path fill="none" stroke="#63b8ff" d="M199.89,-164.98C226.3,-156.13 267.85,-142.19 297.39,-132.28"/>
<polygon fill="#63b8ff" stroke="#63b8ff" points="298.55,-135.58 306.92,-129.08 296.32,-128.94 298.55,-135.58"/>
</a>
</g>
</g>
<!-- Node2&#45;&gt;Node3 -->
<g id="edge2_Node000002_Node000003" class="edge">
<title>Node2&#45;&gt;Node3</title>
<g id="a_edge2_Node000002_Node000003"><a xlink:title=" ">
<path fill="none" stroke="#63b8ff" d="M158.59,-109.98C142.95,-101.61 118.84,-88.7 100.62,-78.95"/>
<polygon fill="#63b8ff" stroke="#63b8ff" points="102.16,-75.8 91.7,-74.17 98.86,-81.98 102.16,-75.8"/>
</a>
</g>
</g>
<!-- Node5 -->
<g id="Node000005" class="node">
<title>Node5</title>
<g id="a_Node000005"><a xlink:title=" ">
<polygon fill="#e0e0e0" stroke="#999999" points="127.5,-19 77.5,-19 77.5,0 127.5,0 127.5,-19"/>
<text text-anchor="middle" x="102.5" y="-7" font-family="Helvetica,sans-Serif" font-size="10.00">cstdint</text>
</a>
</g>
</g>
<!-- Node2&#45;&gt;Node5 -->
<g id="edge6_Node000002_Node000005" class="edge">
<title>Node2&#45;&gt;Node5</title>
<g id="a_edge6_Node000002_Node000005"><a xlink:title=" ">
<path fill="none" stroke="#63b8ff" d="M168.61,-109.66C156.68,-91.77 129.5,-51 113.96,-27.69"/>
<polygon fill="#63b8ff" stroke="#63b8ff" points="116.73,-25.54 108.27,-19.16 110.91,-29.42 116.73,-25.54"/>
</a>
</g>
</g>
<!-- Node6 -->
<g id="Node000006" class="node">
<title>Node6</title>
<g id="a_Node000006"><a xlink:title=" ">
<polygon fill="#e0e0e0" stroke="#999999" points="192.5,-19 148.5,-19 148.5,0 192.5,0 192.5,-19"/>
<text text-anchor="middle" x="170.5" y="-7" font-family="Helvetica,sans-Serif" font-size="10.00">string</text>
</a>
</g>
</g>
<!-- Node2&#45;&gt;Node6 -->
<g id="edge8_Node000002_Node000006" class="edge">
<title>Node2&#45;&gt;Node6</title>
<g id="a_edge8_Node000002_Node000006"><a xlink:title=" ">
<path fill="none" stroke="#63b8ff" d="M174.17,-109.66C173.52,-92.17 172.07,-52.8 171.2,-29.27"/>
<polygon fill="#63b8ff" stroke="#63b8ff" points="174.69,-29.02 170.82,-19.16 167.69,-29.28 174.69,-29.02"/>
</a>
</g>
</g>
<!-- Node7 -->
<g id="Node000007" class="node">
<title>Node7</title>
<g id="a_Node000007"><a xlink:title=" ">
<polygon fill="#e0e0e0" stroke="#999999" points="268,-74 203,-74 203,-55 268,-55 268,-74"/>
<text text-anchor="middle" x="235.5" y="-62" font-family="Helvetica,sans-Serif" font-size="10.00">exception</text>
</a>
</g>
</g>
<!-- Node2&#45;&gt;Node7 -->
<g id="edge7_Node000002_Node000007" class="edge">
<title>Node2&#45;&gt;Node7</title>
<g id="a_edge7_Node000002_Node000007"><a xlink:title=" ">
<path fill="none" stroke="#63b8ff" d="M184.3,-109.98C193.32,-102.15 206.91,-90.34 217.82,-80.86"/>
<polygon fill="#63b8ff" stroke="#63b8ff" points="220.27,-83.37 225.52,-74.17 215.68,-78.09 220.27,-83.37"/>
</a>
</g>
</g>
<!-- Node8 -->
<g id="Node000008" class="node">
<title>Node8</title>
<g id="a_Node000008"><a xlink:title=" ">
<polygon fill="#e0e0e0" stroke="#999999" points="379,-74 286,-74 286,-55 379,-55 379,-74"/>
<text text-anchor="middle" x="332.5" y="-62" font-family="Helvetica,sans-Serif" font-size="10.00">unordered_map</text>
</a>
</g>
</g>
<!-- Node2&#45;&gt;Node8 -->
<g id="edge9_Node000002_Node000008" class="edge">
<title>Node2&#45;&gt;Node8</title>
<g id="a_edge9_Node000002_Node000008"><a xlink:title=" ">
<path fill="none" stroke="#63b8ff" d="M199.89,-109.98C226.3,-101.13 267.85,-87.19 297.39,-77.28"/>
<polygon fill="#63b8ff" stroke="#63b8ff" points="298.55,-80.58 306.92,-74.08 296.32,-73.94 298.55,-80.58"/>
</a>
</g>
</g>
<!-- Node9 -->
<g id="Node000009" class="node">
<title>Node9</title>
<g id="a_Node000009"><a xlink:title=" ">
<polygon fill="#e0e0e0" stroke="#999999" points="444,-74 397,-74 397,-55 444,-55 444,-74"/>
<text text-anchor="middle" x="420.5" y="-62" font-family="Helvetica,sans-Serif" font-size="10.00">vector</text>
</a>
</g>
</g>
<!-- Node2&#45;&gt;Node9 -->
<g id="edge10_Node000002_Node000009" class="edge">
<title>Node2&#45;&gt;Node9</title>
<g id="a_edge10_Node000002_Node000009"><a xlink:title=" ">
<path fill="none" stroke="#63b8ff" d="M214.88,-110.79C255.9,-102.8 321.51,-89.61 386.73,-74.33"/>
<polygon fill="#63b8ff" stroke="#63b8ff" points="387.84,-77.66 396.77,-71.96 386.23,-70.85 387.84,-77.66"/>
</a>
</g>
</g>
<!-- Node10 -->
<g id="Node000010" class="node">
<title>Node10</title>
<g id="a_Node000010"><a xlink:title=" ">
<polygon fill="#e0e0e0" stroke="#999999" points="520.5,-74 462.5,-74 462.5,-55 520.5,-55 520.5,-74"/>
<text text-anchor="middle" x="491.5" y="-62" font-family="Helvetica,sans-Serif" font-size="10.00">memory</text>
</a>
</g>
</g>
<!-- Node2&#45;&gt;Node10 -->
<g id="edge11_Node000002_Node000010" class="edge">
<title>Node2&#45;&gt;Node10</title>
<g id="a_edge11_Node000002_Node000010"><a xlink:title=" ">
<path fill="none" stroke="#63b8ff" d="M214.61,-111.64C217.95,-111.08 221.28,-110.53 224.5,-110 323,-93.89 350.58,-93.28 452.4,-74.1"/>
<polygon fill="#63b8ff" stroke="#63b8ff" points="453.32,-77.49 462.49,-72.19 452.02,-70.61 453.32,-77.49"/>
</a>
</g>
</g>
<!-- Node3&#45;&gt;Node4 -->
<g id="edge3_Node000003_Node000004" class="edge">
<title>Node3&#45;&gt;Node4</title>
<g id="a_edge3_Node000003_Node000004"><a xlink:title=" ">
<path fill="none" stroke="#63b8ff" d="M67.41,-54.75C60.34,-47.11 49.91,-35.82 41.35,-26.56"/>
<polygon fill="#63b8ff" stroke="#63b8ff" points="43.8,-24.06 34.44,-19.09 38.66,-28.81 43.8,-24.06"/>
</a>
</g>
</g>
<!-- Node3&#45;&gt;Node5 -->
<g id="edge4_Node000003_Node000005" class="edge">
<title>Node3&#45;&gt;Node5</title>
<g id="a_edge4_Node000003_Node000005"><a xlink:title=" ">
<path fill="none" stroke="#63b8ff" d="M79.96,-54.75C83.62,-47.57 88.91,-37.18 93.45,-28.27"/>
<polygon fill="#63b8ff" stroke="#63b8ff" points="96.7,-29.59 98.12,-19.09 90.47,-26.41 96.7,-29.59"/>
</a>
</g>
</g>
<!-- Node3&#45;&gt;Node6 -->
<g id="edge5_Node000003_Node000006" class="edge">
<title>Node3&#45;&gt;Node6</title>
<g id="a_edge5_Node000003_Node000006"><a xlink:title=" ">
<path fill="none" stroke="#63b8ff" d="M90.76,-54.98C105.63,-46.69 128.48,-33.94 145.92,-24.22"/>
<polygon fill="#63b8ff" stroke="#63b8ff" points="147.93,-27.1 154.96,-19.17 144.52,-20.99 147.93,-27.1"/>
</a>
</g>
</g>
</g>
</svg>
