<?xml version="1.0" encoding="UTF-8" standalone="no"?>
<!DOCTYPE svg PUBLIC "-//W3C//DTD SVG 1.1//EN"
 "http://www.w3.org/Graphics/SVG/1.1/DTD/svg11.dtd">
<!-- Generated by graphviz version 2.43.0 (0)
 -->
<!-- Title: src/compiler/lexer.cpp Pages: 1 -->
<svg width="550pt" height="192pt"
 viewBox="0.00 0.00 549.55 192.00" xmlns="http://www.w3.org/2000/svg" xmlns:xlink="http://www.w3.org/1999/xlink">
<g id="graph0" class="graph" transform="scale(1 1) rotate(0) translate(4 188)">
<title>src/compiler/lexer.cpp</title>
<!-- Node1 -->
<g id="Node000001" class="node">
<title>Node1</title>
<g id="a_Node000001"><a xlink:title=" ">
<polygon fill="#999999" stroke="#666666" points="326.32,-184 203.32,-184 203.32,-165 326.32,-165 326.32,-184"/>
<text text-anchor="middle" x="264.82" y="-172" font-family="Helvetica,sans-Serif" font-size="10.00">src/compiler/lexer.cpp</text>
</a>
</g>
</g>
<!-- Node2 -->
<g id="Node000002" class="node">
<title>Node2</title>
<g id="a_Node000002"><a xlink:href="compiler_8hpp.html" target="_top" xlink:title=" ">
<polygon fill="white" stroke="#666666" points="304.82,-129 224.82,-129 224.82,-110 304.82,-110 304.82,-129"/>
<text text-anchor="middle" x="264.82" y="-117" font-family="Helvetica,sans-Serif" font-size="10.00">compiler.hpp</text>
</a>
</g>
</g>
<!-- Node1&#45;&gt;Node2 -->
<g id="edge1_Node000001_Node000002" class="edge">
<title>Node1&#45;&gt;Node2</title>
<g id="a_edge1_Node000001_Node000002"><a xlink:title=" ">
<path fill="none" stroke="#63b8ff" d="M264.82,-164.75C264.82,-157.8 264.82,-147.85 264.82,-139.13"/>
<polygon fill="#63b8ff" stroke="#63b8ff" points="268.32,-139.09 264.82,-129.09 261.32,-139.09 268.32,-139.09"/>
</a>
</g>
</g>
<!-- Node5 -->
<g id="Node000005" class="node">
<title>Node5</title>
<g id="a_Node000005"><a xlink:title=" ">
<polygon fill="#e0e0e0" stroke="#999999" points="72.32,-19 19.32,-19 19.32,0 72.32,0 72.32,-19"/>
<text text-anchor="middle" x="45.82" y="-7" font-family="Helvetica,sans-Serif" font-size="10.00">cstddef</text>
</a>
</g>
</g>
<!-- Node1&#45;&gt;Node5 -->
<g id="edge19_Node000001_Node000005" class="edge">
<title>Node1&#45;&gt;Node5</title>
<g id="a_edge19_Node000001_Node000005"><a xlink:title=" ">
<path fill="none" stroke="#63b8ff" d="M203.11,-169.51C140.82,-161.79 47.73,-139.29 3.82,-74 -7.25,-57.53 9.12,-38.53 24.55,-25.63"/>
<polygon fill="#63b8ff" stroke="#63b8ff" points="27.12,-28.07 32.85,-19.16 22.81,-22.55 27.12,-28.07"/>
</a>
</g>
</g>
<!-- Node8 -->
<g id="Node000008" class="node">
<title>Node8</title>
<g id="a_Node000008"><a xlink:href="types_8hpp.html" target="_top" xlink:title=" ">
<polygon fill="white" stroke="#666666" points="78.32,-74 13.32,-74 13.32,-55 78.32,-55 78.32,-74"/>
<text text-anchor="middle" x="45.82" y="-62" font-family="Helvetica,sans-Serif" font-size="10.00">types.hpp</text>
</a>
</g>
</g>
<!-- Node1&#45;&gt;Node8 -->
<g id="edge17_Node000001_Node000008" class="edge">
<title>Node1&#45;&gt;Node8</title>
<g id="a_edge17_Node000001_Node000008"><a xlink:title=" ">
<path fill="none" stroke="#63b8ff" d="M247.27,-164.84C208.97,-145.96 117.72,-100.96 72.36,-78.59"/>
<polygon fill="#63b8ff" stroke="#63b8ff" points="73.67,-75.33 63.15,-74.05 70.57,-81.61 73.67,-75.33"/>
</a>
</g>
</g>
<!-- Node12 -->
<g id="Node000012" class="node">
<title>Node12</title>
<g id="a_Node000012"><a xlink:title=" ">
<polygon fill="#e0e0e0" stroke="#999999" points="372.32,-129 323.32,-129 323.32,-110 372.32,-110 372.32,-129"/>
<text text-anchor="middle" x="347.82" y="-117" font-family="Helvetica,sans-Serif" font-size="10.00">cctype</text>
</a>
</g>
</g>
<!-- Node1&#45;&gt;Node12 -->
<g id="edge18_Node000001_Node000012" class="edge">
<title>Node1&#45;&gt;Node12</title>
<g id="a_edge18_Node000001_Node000012"><a xlink:title=" ">
<path fill="none" stroke="#63b8ff" d="M278.16,-164.98C290.91,-156.84 310.38,-144.41 325.49,-134.76"/>
<polygon fill="#63b8ff" stroke="#63b8ff" points="327.7,-137.5 334.24,-129.17 323.93,-131.6 327.7,-137.5"/>
</a>
</g>
</g>
<!-- Node13 -->
<g id="Node000013" class="node">
<title>Node13</title>
<g id="a_Node000013"><a xlink:title=" ">
<polygon fill="#e0e0e0" stroke="#999999" points="455.32,-129 390.32,-129 390.32,-110 455.32,-110 455.32,-129"/>
<text text-anchor="middle" x="422.82" y="-117" font-family="Helvetica,sans-Serif" font-size="10.00">stdexcept</text>
</a>
</g>
</g>
<!-- Node1&#45;&gt;Node13 -->
<g id="edge20_Node000001_Node000013" class="edge">
<title>Node1&#45;&gt;Node13</title>
<g id="a_edge20_Node000001_Node000013"><a xlink:title=" ">
<path fill="none" stroke="#63b8ff" d="M290.21,-164.98C316.62,-156.13 358.17,-142.19 387.72,-132.28"/>
<polygon fill="#63b8ff" stroke="#63b8ff" points="388.87,-135.58 397.24,-129.08 386.64,-128.94 388.87,-135.58"/>
</a>
</g>
</g>
<!-- Node3 -->
<g id="Node000003" class="node">
<title>Node3</title>
<g id="a_Node000003"><a xlink:href="bytecode_8hpp.html" target="_top" xlink:title=" ">
<polygon fill="white" stroke="#666666" points="405.32,-74 322.32,-74 322.32,-55 405.32,-55 405.32,-74"/>
<text text-anchor="middle" x="363.82" y="-62" font-family="Helvetica,sans-Serif" font-size="10.00">bytecode.hpp</text>
</a>
</g>
</g>
<!-- Node2&#45;&gt;Node3 -->
<g id="edge2_Node000002_Node000003" class="edge">
<title>Node2&#45;&gt;Node3</title>
<g id="a_edge2_Node000002_Node000003"><a xlink:title=" ">
<path fill="none" stroke="#63b8ff" d="M280.73,-109.98C296.37,-101.61 320.48,-88.7 338.71,-78.95"/>
<polygon fill="#63b8ff" stroke="#63b8ff" points="340.46,-81.98 347.63,-74.17 337.16,-75.8 340.46,-81.98"/>
</a>
</g>
</g>
<!-- Node4 -->
<g id="Node000004" class="node">
<title>Node4</title>
<g id="a_Node000004"><a xlink:title=" ">
<polygon fill="#e0e0e0" stroke="#999999" points="318.82,-19 268.82,-19 268.82,0 318.82,0 318.82,-19"/>
<text text-anchor="middle" x="293.82" y="-7" font-family="Helvetica,sans-Serif" font-size="10.00">cstdint</text>
</a>
</g>
</g>
<!-- Node2&#45;&gt;Node4 -->
<g id="edge11_Node000002_Node000004" class="edge">
<title>Node2&#45;&gt;Node4</title>
<g id="a_edge11_Node000002_Node000004"><a xlink:title=" ">
<path fill="none" stroke="#63b8ff" d="M267.2,-109.66C271.91,-92.09 282.56,-52.45 288.87,-28.95"/>
<polygon fill="#63b8ff" stroke="#63b8ff" points="292.28,-29.72 291.5,-19.16 285.52,-27.91 292.28,-29.72"/>
</a>
</g>
</g>
<!-- Node6 -->
<g id="Node000006" class="node">
<title>Node6</title>
<g id="a_Node000006"><a xlink:title=" ">
<polygon fill="#e0e0e0" stroke="#999999" points="385.82,-19 341.82,-19 341.82,0 385.82,0 385.82,-19"/>
<text text-anchor="middle" x="363.82" y="-7" font-family="Helvetica,sans-Serif" font-size="10.00">string</text>
</a>
</g>
</g>
<!-- Node2&#45;&gt;Node6 -->
<g id="edge13_Node000002_Node000006" class="edge">
<title>Node2&#45;&gt;Node6</title>
<g id="a_edge13_Node000002_Node000006"><a xlink:title=" ">
<path fill="none" stroke="#63b8ff" d="M301.9,-109.94C344.04,-99.84 407.92,-83.25 414.82,-74 427.75,-56.69 407.07,-37.42 388.3,-24.7"/>
<polygon fill="#63b8ff" stroke="#63b8ff" points="389.98,-21.62 379.67,-19.18 386.21,-27.51 389.98,-21.62"/>
</a>
</g>
</g>
<!-- Node7 -->
<g id="Node000007" class="node">
<title>Node7</title>
<g id="a_Node000007"><a xlink:title=" ">
<polygon fill="#e0e0e0" stroke="#999999" points="515.32,-19 468.32,-19 468.32,0 515.32,0 515.32,-19"/>
<text text-anchor="middle" x="491.82" y="-7" font-family="Helvetica,sans-Serif" font-size="10.00">vector</text>
</a>
</g>
</g>
<!-- Node2&#45;&gt;Node7 -->
<g id="edge15_Node000002_Node000007" class="edge">
<title>Node2&#45;&gt;Node7</title>
<g id="a_edge15_Node000002_Node000007"><a xlink:title=" ">
<path fill="none" stroke="#63b8ff" d="M304.94,-111.65C308.28,-111.09 311.61,-110.53 314.82,-110 364.13,-101.81 504.43,-112.06 536.82,-74 550.37,-58.08 531.11,-38.22 513.75,-24.98"/>
<polygon fill="#63b8ff" stroke="#63b8ff" points="515.69,-22.07 505.53,-19.07 511.6,-27.75 515.69,-22.07"/>
</a>
</g>
</g>
<!-- Node2&#45;&gt;Node8 -->
<g id="edge7_Node000002_Node000008" class="edge">
<title>Node2&#45;&gt;Node8</title>
<g id="a_edge7_Node000002_Node000008"><a xlink:title=" ">
<path fill="none" stroke="#63b8ff" d="M229.64,-109.98C191.1,-100.66 129.31,-85.71 88.15,-75.74"/>
<polygon fill="#63b8ff" stroke="#63b8ff" points="88.96,-72.34 78.42,-73.39 87.31,-79.14 88.96,-72.34"/>
</a>
</g>
</g>
<!-- Node9 -->
<g id="Node000009" class="node">
<title>Node9</title>
<g id="a_Node000009"><a xlink:title=" ">
<polygon fill="#e0e0e0" stroke="#999999" points="527.32,-74 462.32,-74 462.32,-55 527.32,-55 527.32,-74"/>
<text text-anchor="middle" x="494.82" y="-62" font-family="Helvetica,sans-Serif" font-size="10.00">exception</text>
</a>
</g>
</g>
<!-- Node2&#45;&gt;Node9 -->
<g id="edge12_Node000002_Node000009" class="edge">
<title>Node2&#45;&gt;Node9</title>
<g id="a_edge12_Node000002_Node000009"><a xlink:title=" ">
<path fill="none" stroke="#63b8ff" d="M301.78,-109.98C342.8,-100.53 408.93,-85.29 452.13,-75.34"/>
<polygon fill="#63b8ff" stroke="#63b8ff" points="453.1,-78.71 462.06,-73.05 451.53,-71.89 453.1,-78.71"/>
</a>
</g>
</g>
<!-- Node10 -->
<g id="Node000010" class="node">
<title>Node10</title>
<g id="a_Node000010"><a xlink:title=" ">
<polygon fill="#e0e0e0" stroke="#999999" points="189.32,-74 96.32,-74 96.32,-55 189.32,-55 189.32,-74"/>
<text text-anchor="middle" x="142.82" y="-62" font-family="Helvetica,sans-Serif" font-size="10.00">unordered_map</text>
</a>
</g>
</g>
<!-- Node2&#45;&gt;Node10 -->
<g id="edge14_Node000002_Node000010" class="edge">
<title>Node2&#45;&gt;Node10</title>
<g id="a_edge14_Node000002_Node000010"><a xlink:title=" ">
<path fill="none" stroke="#63b8ff" d="M245.22,-109.98C225.51,-101.42 194.87,-88.11 172.24,-78.28"/>
<polygon fill="#63b8ff" stroke="#63b8ff" points="173.35,-74.94 162.78,-74.17 170.56,-81.37 173.35,-74.94"/>
</a>
</g>
</g>
<!-- Node11 -->
<g id="Node000011" class="node">
<title>Node11</title>
<g id="a_Node000011"><a xlink:title=" ">
<polygon fill="#e0e0e0" stroke="#999999" points="265.82,-74 207.82,-74 207.82,-55 265.82,-55 265.82,-74"/>
<text text-anchor="middle" x="236.82" y="-62" font-family="Helvetica,sans-Serif" font-size="10.00">memory</text>
</a>
</g>
</g>
<!-- Node2&#45;&gt;Node11 -->
<g id="edge16_Node000002_Node000011" class="edge">
<title>Node2&#45;&gt;Node11</title>
<g id="a_edge16_Node000002_Node000011"><a xlink:title=" ">
<path fill="none" stroke="#63b8ff" d="M260.2,-109.75C256.37,-102.49 250.8,-91.95 246.06,-82.98"/>
<polygon fill="#63b8ff" stroke="#63b8ff" points="249.13,-81.3 241.36,-74.09 242.94,-84.57 249.13,-81.3"/>
</a>
</g>
</g>
<!-- Node3&#45;&gt;Node4 -->
<g id="edge3_Node000003_Node000004" class="edge">
<title>Node3&#45;&gt;Node4</title>
<g id="a_edge3_Node000003_Node000004"><a xlink:title=" ">
<path fill="none" stroke="#63b8ff" d="M352.58,-54.98C342.03,-47 326.02,-34.88 313.38,-25.31"/>
<polygon fill="#63b8ff" stroke="#63b8ff" points="315.36,-22.42 305.27,-19.17 311.13,-28 315.36,-22.42"/>
</a>
</g>
</g>
<!-- Node3&#45;&gt;Node5 -->
<g id="edge4_Node000003_Node000005" class="edge">
<title>Node3&#45;&gt;Node5</title>
<g id="a_edge4_Node000003_Node000005"><a xlink:title=" ">
<path fill="none" stroke="#63b8ff" d="M322.25,-56.57C259.67,-46.14 142.28,-26.58 82.63,-16.63"/>
<polygon fill="#63b8ff" stroke="#63b8ff" points="82.97,-13.14 72.53,-14.95 81.82,-20.05 82.97,-13.14"/>
</a>
</g>
</g>
<!-- Node3&#45;&gt;Node6 -->
<g id="edge5_Node000003_Node000006" class="edge">
<title>Node3&#45;&gt;Node6</title>
<g id="a_edge5_Node000003_Node000006"><a xlink:title=" ">
<path fill="none" stroke="#63b8ff" d="M363.82,-54.75C363.82,-47.8 363.82,-37.85 363.82,-29.13"/>
<polygon fill="#63b8ff" stroke="#63b8ff" points="367.32,-29.09 363.82,-19.09 360.32,-29.09 367.32,-29.09"/>
</a>
</g>
</g>
<!-- Node3&#45;&gt;Node7 -->
<g id="edge6_Node000003_Node000007" class="edge">
<title>Node3&#45;&gt;Node7</title>
<g id="a_edge6_Node000003_Node000007"><a xlink:title=" ">
<path fill="none" stroke="#63b8ff" d="M384.39,-54.98C405.26,-46.34 437.79,-32.87 461.6,-23.02"/>
<polygon fill="#63b8ff" stroke="#63b8ff" points="462.98,-26.23 470.88,-19.17 460.3,-19.76 462.98,-26.23"/>
</a>
</g>
</g>
<!-- Node8&#45;&gt;Node4 -->
<g id="edge9_Node000008_Node000004" class="edge">
<title>Node8&#45;&gt;Node4</title>
<g id="a_edge9_Node000008_Node000004"><a xlink:title=" ">
<path fill="none" stroke="#63b8ff" d="M78.5,-56.52C125.19,-46.54 210.63,-28.28 258.65,-18.02"/>
<polygon fill="#63b8ff" stroke="#63b8ff" points="259.54,-21.41 268.59,-15.89 258.08,-14.56 259.54,-21.41"/>
</a>
</g>
</g>
<!-- Node8&#45;&gt;Node5 -->
<g id="edge8_Node000008_Node000005" class="edge">
<title>Node8&#45;&gt;Node5</title>
<g id="a_edge8_Node000008_Node000005"><a xlink:title=" ">
<path fill="none" stroke="#63b8ff" d="M45.82,-54.75C45.82,-47.8 45.82,-37.85 45.82,-29.13"/>
<polygon fill="#63b8ff" stroke="#63b8ff" points="49.32,-29.09 45.82,-19.09 42.32,-29.09 49.32,-29.09"/>
</a>
</g>
</g>
<!-- Node8&#45;&gt;Node6 -->
<g id="edge10_Node000008_Node000006" class="edge">
<title>Node8&#45;&gt;Node6</title>
<g id="a_edge10_Node000008_Node000006"><a xlink:title=" ">
<path fill="none" stroke="#63b8ff" d="M78.46,-56.56C81.29,-56.01 84.1,-55.48 86.82,-55 193.44,-36 221.47,-39.46 327.82,-19 329.1,-18.75 330.4,-18.49 331.71,-18.22"/>
<polygon fill="#63b8ff" stroke="#63b8ff" points="332.78,-21.57 341.8,-16.01 331.28,-14.73 332.78,-21.57"/>
</a>
</g>
</g>
</g>
</svg>
