<?xml version="1.0" encoding="UTF-8" standalone="no"?>
<!DOCTYPE svg PUBLIC "-//W3C//DTD SVG 1.1//EN"
 "http://www.w3.org/Graphics/SVG/1.1/DTD/svg11.dtd">
<!-- Generated by graphviz version 2.43.0 (0)
 -->
<!-- Title: src/compiler/lexer.cpp Pages: 1 -->
<svg width="402pt" height="192pt"
 viewBox="0.00 0.00 402.00 192.00" xmlns="http://www.w3.org/2000/svg" xmlns:xlink="http://www.w3.org/1999/xlink">
<g id="graph0" class="graph" transform="scale(1 1) rotate(0) translate(4 188)">
<title>src/compiler/lexer.cpp</title>
<!-- Node1 -->
<g id="Node000001" class="node">
<title>Node1</title>
<g id="a_Node000001"><a xlink:title=" ">
<polygon fill="#999999" stroke="#666666" points="280,-184 157,-184 157,-165 280,-165 280,-184"/>
<text text-anchor="middle" x="218.5" y="-172" font-family="Helvetica,sans-Serif" font-size="10.00">src/compiler/lexer.cpp</text>
</a>
</g>
</g>
<!-- Node2 -->
<g id="Node000002" class="node">
<title>Node2</title>
<g id="a_Node000002"><a xlink:href="compiler_8hpp.html" target="_top" xlink:title=" ">
<polygon fill="white" stroke="#666666" points="217.5,-129 137.5,-129 137.5,-110 217.5,-110 217.5,-129"/>
<text text-anchor="middle" x="177.5" y="-117" font-family="Helvetica,sans-Serif" font-size="10.00">compiler.hpp</text>
</a>
</g>
</g>
<!-- Node1&#45;&gt;Node2 -->
<g id="edge1_Node000001_Node000002" class="edge">
<title>Node1&#45;&gt;Node2</title>
<g id="a_edge1_Node000001_Node000002"><a xlink:title=" ">
<path fill="none" stroke="#63b8ff" d="M211.73,-164.75C205.94,-157.26 197.44,-146.28 190.36,-137.13"/>
<polygon fill="#63b8ff" stroke="#63b8ff" points="193.03,-134.86 184.14,-129.09 187.49,-139.14 193.03,-134.86"/>
</a>
</g>
</g>
<!-- Node3 -->
<g id="Node000003" class="node">
<title>Node3</title>
<g id="a_Node000003"><a xlink:href="types_8hpp.html" target="_top" xlink:title=" ">
<polygon fill="white" stroke="#666666" points="65,-74 0,-74 0,-55 65,-55 65,-74"/>
<text text-anchor="middle" x="32.5" y="-62" font-family="Helvetica,sans-Serif" font-size="10.00">types.hpp</text>
</a>
</g>
</g>
<!-- Node1&#45;&gt;Node3 -->
<g id="edge11_Node000001_Node000003" class="edge">
<title>Node1&#45;&gt;Node3</title>
<g id="a_edge11_Node000001_Node000003"><a xlink:title=" ">
<path fill="none" stroke="#63b8ff" d="M199.53,-164.96C181.06,-156.46 152.38,-142.73 128.5,-129 101.43,-113.44 71.64,-93.22 52.54,-79.82"/>
<polygon fill="#63b8ff" stroke="#63b8ff" points="54.5,-76.93 44.32,-74.02 50.47,-82.64 54.5,-76.93"/>
</a>
</g>
</g>
<!-- Node10 -->
<g id="Node000010" class="node">
<title>Node10</title>
<g id="a_Node000010"><a xlink:title=" ">
<polygon fill="#e0e0e0" stroke="#999999" points="285,-129 236,-129 236,-110 285,-110 285,-129"/>
<text text-anchor="middle" x="260.5" y="-117" font-family="Helvetica,sans-Serif" font-size="10.00">cctype</text>
</a>
</g>
</g>
<!-- Node1&#45;&gt;Node10 -->
<g id="edge12_Node000001_Node000010" class="edge">
<title>Node1&#45;&gt;Node10</title>
<g id="a_edge12_Node000001_Node000010"><a xlink:title=" ">
<path fill="none" stroke="#63b8ff" d="M225.44,-164.75C231.37,-157.26 240.07,-146.28 247.32,-137.13"/>
<polygon fill="#63b8ff" stroke="#63b8ff" points="250.23,-139.1 253.69,-129.09 244.74,-134.75 250.23,-139.1"/>
</a>
</g>
</g>
<!-- Node11 -->
<g id="Node000011" class="node">
<title>Node11</title>
<g id="a_Node000011"><a xlink:title=" ">
<polygon fill="#e0e0e0" stroke="#999999" points="368,-129 303,-129 303,-110 368,-110 368,-129"/>
<text text-anchor="middle" x="335.5" y="-117" font-family="Helvetica,sans-Serif" font-size="10.00">stdexcept</text>
</a>
</g>
</g>
<!-- Node1&#45;&gt;Node11 -->
<g id="edge13_Node000001_Node000011" class="edge">
<title>Node1&#45;&gt;Node11</title>
<g id="a_edge13_Node000001_Node000011"><a xlink:title=" ">
<path fill="none" stroke="#63b8ff" d="M237.3,-164.98C256.12,-156.46 285.32,-143.23 307,-133.41"/>
<polygon fill="#63b8ff" stroke="#63b8ff" points="308.7,-136.48 316.36,-129.17 305.81,-130.11 308.7,-136.48"/>
</a>
</g>
</g>
<!-- Node2&#45;&gt;Node3 -->
<g id="edge2_Node000002_Node000003" class="edge">
<title>Node2&#45;&gt;Node3</title>
<g id="a_edge2_Node000002_Node000003"><a xlink:title=" ">
<path fill="none" stroke="#63b8ff" d="M154.2,-109.98C130.25,-101.23 92.72,-87.51 65.67,-77.62"/>
<polygon fill="#63b8ff" stroke="#63b8ff" points="66.81,-74.32 56.22,-74.17 64.41,-80.89 66.81,-74.32"/>
</a>
</g>
</g>
<!-- Node5 -->
<g id="Node000005" class="node">
<title>Node5</title>
<g id="a_Node000005"><a xlink:title=" ">
<polygon fill="#e0e0e0" stroke="#999999" points="179.5,-19 129.5,-19 129.5,0 179.5,0 179.5,-19"/>
<text text-anchor="middle" x="154.5" y="-7" font-family="Helvetica,sans-Serif" font-size="10.00">cstdint</text>
</a>
</g>
</g>
<!-- Node2&#45;&gt;Node5 -->
<g id="edge6_Node000002_Node000005" class="edge">
<title>Node2&#45;&gt;Node5</title>
<g id="a_edge6_Node000002_Node000005"><a xlink:title=" ">
<path fill="none" stroke="#63b8ff" d="M189.32,-109.68C203.94,-97.61 225.75,-75.16 215.5,-55 208.73,-41.68 195.9,-31.41 183.75,-24.1"/>
<polygon fill="#63b8ff" stroke="#63b8ff" points="185.14,-20.87 174.7,-19.09 181.75,-26.99 185.14,-20.87"/>
</a>
</g>
</g>
<!-- Node6 -->
<g id="Node000006" class="node">
<title>Node6</title>
<g id="a_Node000006"><a xlink:title=" ">
<polygon fill="#e0e0e0" stroke="#999999" points="267.5,-19 223.5,-19 223.5,0 267.5,0 267.5,-19"/>
<text text-anchor="middle" x="245.5" y="-7" font-family="Helvetica,sans-Serif" font-size="10.00">string</text>
</a>
</g>
</g>
<!-- Node2&#45;&gt;Node6 -->
<g id="edge7_Node000002_Node000006" class="edge">
<title>Node2&#45;&gt;Node6</title>
<g id="a_edge7_Node000002_Node000006"><a xlink:title=" ">
<path fill="none" stroke="#63b8ff" d="M192.37,-109.82C204.48,-101.98 221.05,-89.34 230.5,-74 238.77,-60.57 242.48,-42.97 244.15,-29.7"/>
<polygon fill="#63b8ff" stroke="#63b8ff" points="247.67,-29.67 245.15,-19.38 240.7,-28.99 247.67,-29.67"/>
</a>
</g>
</g>
<!-- Node7 -->
<g id="Node000007" class="node">
<title>Node7</title>
<g id="a_Node000007"><a xlink:title=" ">
<polygon fill="#e0e0e0" stroke="#999999" points="394,-74 301,-74 301,-55 394,-55 394,-74"/>
<text text-anchor="middle" x="347.5" y="-62" font-family="Helvetica,sans-Serif" font-size="10.00">unordered_map</text>
</a>
</g>
</g>
<!-- Node2&#45;&gt;Node7 -->
<g id="edge8_Node000002_Node000007" class="edge">
<title>Node2&#45;&gt;Node7</title>
<g id="a_edge8_Node000002_Node000007"><a xlink:title=" ">
<path fill="none" stroke="#63b8ff" d="M204.81,-109.98C233.35,-101.09 278.33,-87.07 310.14,-77.15"/>
<polygon fill="#63b8ff" stroke="#63b8ff" points="311.47,-80.4 319.97,-74.08 309.38,-73.72 311.47,-80.4"/>
</a>
</g>
</g>
<!-- Node8 -->
<g id="Node000008" class="node">
<title>Node8</title>
<g id="a_Node000008"><a xlink:title=" ">
<polygon fill="#e0e0e0" stroke="#999999" points="130,-74 83,-74 83,-55 130,-55 130,-74"/>
<text text-anchor="middle" x="106.5" y="-62" font-family="Helvetica,sans-Serif" font-size="10.00">vector</text>
</a>
</g>
</g>
<!-- Node2&#45;&gt;Node8 -->
<g id="edge9_Node000002_Node000008" class="edge">
<title>Node2&#45;&gt;Node8</title>
<g id="a_edge9_Node000002_Node000008"><a xlink:title=" ">
<path fill="none" stroke="#63b8ff" d="M166.09,-109.98C155.39,-102 139.16,-89.88 126.34,-80.31"/>
<polygon fill="#63b8ff" stroke="#63b8ff" points="128.22,-77.35 118.11,-74.17 124.03,-82.96 128.22,-77.35"/>
</a>
</g>
</g>
<!-- Node9 -->
<g id="Node000009" class="node">
<title>Node9</title>
<g id="a_Node000009"><a xlink:title=" ">
<polygon fill="#e0e0e0" stroke="#999999" points="206.5,-74 148.5,-74 148.5,-55 206.5,-55 206.5,-74"/>
<text text-anchor="middle" x="177.5" y="-62" font-family="Helvetica,sans-Serif" font-size="10.00">memory</text>
</a>
</g>
</g>
<!-- Node2&#45;&gt;Node9 -->
<g id="edge10_Node000002_Node000009" class="edge">
<title>Node2&#45;&gt;Node9</title>
<g id="a_edge10_Node000002_Node000009"><a xlink:title=" ">
<path fill="none" stroke="#63b8ff" d="M177.5,-109.75C177.5,-102.8 177.5,-92.85 177.5,-84.13"/>
<polygon fill="#63b8ff" stroke="#63b8ff" points="181,-84.09 177.5,-74.09 174,-84.09 181,-84.09"/>
</a>
</g>
</g>
<!-- Node4 -->
<g id="Node000004" class="node">
<title>Node4</title>
<g id="a_Node000004"><a xlink:title=" ">
<polygon fill="#e0e0e0" stroke="#999999" points="59,-19 6,-19 6,0 59,0 59,-19"/>
<text text-anchor="middle" x="32.5" y="-7" font-family="Helvetica,sans-Serif" font-size="10.00">cstddef</text>
</a>
</g>
</g>
<!-- Node3&#45;&gt;Node4 -->
<g id="edge3_Node000003_Node000004" class="edge">
<title>Node3&#45;&gt;Node4</title>
<g id="a_edge3_Node000003_Node000004"><a xlink:title=" ">
<path fill="none" stroke="#63b8ff" d="M32.5,-54.75C32.5,-47.8 32.5,-37.85 32.5,-29.13"/>
<polygon fill="#63b8ff" stroke="#63b8ff" points="36,-29.09 32.5,-19.09 29,-29.09 36,-29.09"/>
</a>
</g>
</g>
<!-- Node3&#45;&gt;Node5 -->
<g id="edge4_Node000003_Node000005" class="edge">
<title>Node3&#45;&gt;Node5</title>
<g id="a_edge4_Node000003_Node000005"><a xlink:title=" ">
<path fill="none" stroke="#63b8ff" d="M52.1,-54.98C71.82,-46.42 102.45,-33.11 125.08,-23.28"/>
<polygon fill="#63b8ff" stroke="#63b8ff" points="126.76,-26.37 134.54,-19.17 123.98,-19.94 126.76,-26.37"/>
</a>
</g>
</g>
<!-- Node3&#45;&gt;Node6 -->
<g id="edge5_Node000003_Node000006" class="edge">
<title>Node3&#45;&gt;Node6</title>
<g id="a_edge5_Node000003_Node000006"><a xlink:title=" ">
<path fill="none" stroke="#63b8ff" d="M65.31,-55.33C105.68,-45.29 173.74,-28.36 213.65,-18.42"/>
<polygon fill="#63b8ff" stroke="#63b8ff" points="214.54,-21.81 223.4,-16 212.85,-15.02 214.54,-21.81"/>
</a>
</g>
</g>
</g>
</svg>
