<?xml version="1.0" encoding="UTF-8" standalone="no"?>
<!DOCTYPE svg PUBLIC "-//W3C//DTD SVG 1.1//EN"
 "http://www.w3.org/Graphics/SVG/1.1/DTD/svg11.dtd">
<!-- Generated by graphviz version 2.43.0 (0)
 -->
<!-- Title: src/compiler/log.cpp Pages: 1 -->
<svg width="674pt" height="192pt"
 viewBox="0.00 0.00 674.32 192.00" xmlns="http://www.w3.org/2000/svg" xmlns:xlink="http://www.w3.org/1999/xlink">
<g id="graph0" class="graph" transform="scale(1 1) rotate(0) translate(4 188)">
<title>src/compiler/log.cpp</title>
<!-- Node1 -->
<g id="Node000001" class="node">
<title>Node1</title>
<g id="a_Node000001"><a xlink:title=" ">
<polygon fill="#999999" stroke="#666666" points="498.32,-184 383.32,-184 383.32,-165 498.32,-165 498.32,-184"/>
<text text-anchor="middle" x="440.82" y="-172" font-family="Helvetica,sans-Serif" font-size="10.00">src/compiler/log.cpp</text>
</a>
</g>
</g>
<!-- Node2 -->
<g id="Node000002" class="node">
<title>Node2</title>
<g id="a_Node000002"><a xlink:href="compiler_8hpp.html" target="_top" xlink:title=" ">
<polygon fill="white" stroke="#666666" points="363.82,-129 283.82,-129 283.82,-110 363.82,-110 363.82,-129"/>
<text text-anchor="middle" x="323.82" y="-117" font-family="Helvetica,sans-Serif" font-size="10.00">compiler.hpp</text>
</a>
</g>
</g>
<!-- Node1&#45;&gt;Node2 -->
<g id="edge1_Node000001_Node000002" class="edge">
<title>Node1&#45;&gt;Node2</title>
<g id="a_edge1_Node000001_Node000002"><a xlink:title=" ">
<path fill="none" stroke="#63b8ff" d="M422.03,-164.98C403.21,-156.46 374,-143.23 352.33,-133.41"/>
<polygon fill="#63b8ff" stroke="#63b8ff" points="353.52,-130.11 342.97,-129.17 350.63,-136.48 353.52,-130.11"/>
</a>
</g>
</g>
<!-- Node6 -->
<g id="Node000006" class="node">
<title>Node6</title>
<g id="a_Node000006"><a xlink:title=" ">
<polygon fill="#e0e0e0" stroke="#999999" points="103.82,-19 59.82,-19 59.82,0 103.82,0 103.82,-19"/>
<text text-anchor="middle" x="81.82" y="-7" font-family="Helvetica,sans-Serif" font-size="10.00">string</text>
</a>
</g>
</g>
<!-- Node1&#45;&gt;Node6 -->
<g id="edge23_Node000001_Node000006" class="edge">
<title>Node1&#45;&gt;Node6</title>
<g id="a_edge23_Node000001_Node000006"><a xlink:title=" ">
<path fill="none" stroke="#63b8ff" d="M383.09,-169.03C275.63,-159.38 51.54,-132.58 4.82,-74 -12.38,-52.43 21.61,-33.13 49.76,-21.61"/>
<polygon fill="#63b8ff" stroke="#63b8ff" points="51.33,-24.76 59.38,-17.88 48.79,-18.24 51.33,-24.76"/>
</a>
</g>
</g>
<!-- Node13 -->
<g id="Node000013" class="node">
<title>Node13</title>
<g id="a_Node000013"><a xlink:title=" ">
<polygon fill="#e0e0e0" stroke="#999999" points="437.82,-129 381.82,-129 381.82,-110 437.82,-110 437.82,-129"/>
<text text-anchor="middle" x="409.82" y="-117" font-family="Helvetica,sans-Serif" font-size="10.00">iomanip</text>
</a>
</g>
</g>
<!-- Node1&#45;&gt;Node13 -->
<g id="edge19_Node000001_Node000013" class="edge">
<title>Node1&#45;&gt;Node13</title>
<g id="a_edge19_Node000001_Node000013"><a xlink:title=" ">
<path fill="none" stroke="#63b8ff" d="M435.71,-164.75C431.46,-157.49 425.3,-146.95 420.05,-137.98"/>
<polygon fill="#63b8ff" stroke="#63b8ff" points="422.92,-135.95 414.85,-129.09 416.88,-139.49 422.92,-135.95"/>
</a>
</g>
</g>
<!-- Node14 -->
<g id="Node000014" class="node">
<title>Node14</title>
<g id="a_Node000014"><a xlink:title=" ">
<polygon fill="#e0e0e0" stroke="#999999" points="487.32,-129 456.32,-129 456.32,-110 487.32,-110 487.32,-129"/>
<text text-anchor="middle" x="471.82" y="-117" font-family="Helvetica,sans-Serif" font-size="10.00">ios</text>
</a>
</g>
</g>
<!-- Node1&#45;&gt;Node14 -->
<g id="edge20_Node000001_Node000014" class="edge">
<title>Node1&#45;&gt;Node14</title>
<g id="a_edge20_Node000001_Node000014"><a xlink:title=" ">
<path fill="none" stroke="#63b8ff" d="M445.94,-164.75C450.19,-157.49 456.35,-146.95 461.6,-137.98"/>
<polygon fill="#63b8ff" stroke="#63b8ff" points="464.77,-139.49 466.8,-129.09 458.73,-135.95 464.77,-139.49"/>
</a>
</g>
</g>
<!-- Node15 -->
<g id="Node000015" class="node">
<title>Node15</title>
<g id="a_Node000015"><a xlink:title=" ">
<polygon fill="#e0e0e0" stroke="#999999" points="565.82,-129 505.82,-129 505.82,-110 565.82,-110 565.82,-129"/>
<text text-anchor="middle" x="535.82" y="-117" font-family="Helvetica,sans-Serif" font-size="10.00">iostream</text>
</a>
</g>
</g>
<!-- Node1&#45;&gt;Node15 -->
<g id="edge21_Node000001_Node000015" class="edge">
<title>Node1&#45;&gt;Node15</title>
<g id="a_edge21_Node000001_Node000015"><a xlink:title=" ">
<path fill="none" stroke="#63b8ff" d="M456.09,-164.98C470.96,-156.69 493.81,-143.94 511.24,-134.22"/>
<polygon fill="#63b8ff" stroke="#63b8ff" points="513.26,-137.1 520.28,-129.17 509.85,-130.99 513.26,-137.1"/>
</a>
</g>
</g>
<!-- Node16 -->
<g id="Node000016" class="node">
<title>Node16</title>
<g id="a_Node000016"><a xlink:title=" ">
<polygon fill="#e0e0e0" stroke="#999999" points="637.82,-129 583.82,-129 583.82,-110 637.82,-110 637.82,-129"/>
<text text-anchor="middle" x="610.82" y="-117" font-family="Helvetica,sans-Serif" font-size="10.00">istream</text>
</a>
</g>
</g>
<!-- Node1&#45;&gt;Node16 -->
<g id="edge22_Node000001_Node000016" class="edge">
<title>Node1&#45;&gt;Node16</title>
<g id="a_edge22_Node000001_Node000016"><a xlink:title=" ">
<path fill="none" stroke="#63b8ff" d="M468.14,-164.98C496.76,-156.06 541.92,-141.98 573.75,-132.06"/>
<polygon fill="#63b8ff" stroke="#63b8ff" points="575.07,-135.31 583.58,-128.99 572.99,-128.63 575.07,-135.31"/>
</a>
</g>
</g>
<!-- Node3 -->
<g id="Node000003" class="node">
<title>Node3</title>
<g id="a_Node000003"><a xlink:href="bytecode_8hpp.html" target="_top" xlink:title=" ">
<polygon fill="white" stroke="#666666" points="597.32,-74 514.32,-74 514.32,-55 597.32,-55 597.32,-74"/>
<text text-anchor="middle" x="555.82" y="-62" font-family="Helvetica,sans-Serif" font-size="10.00">bytecode.hpp</text>
</a>
</g>
</g>
<!-- Node2&#45;&gt;Node3 -->
<g id="edge2_Node000002_Node000003" class="edge">
<title>Node2&#45;&gt;Node3</title>
<g id="a_edge2_Node000002_Node000003"><a xlink:title=" ">
<path fill="none" stroke="#63b8ff" d="M361.1,-109.98C401.15,-100.84 464.89,-86.27 508.46,-76.32"/>
<polygon fill="#63b8ff" stroke="#63b8ff" points="509.29,-79.72 518.26,-74.08 507.73,-72.9 509.29,-79.72"/>
</a>
</g>
</g>
<!-- Node4 -->
<g id="Node000004" class="node">
<title>Node4</title>
<g id="a_Node000004"><a xlink:title=" ">
<polygon fill="#e0e0e0" stroke="#999999" points="580.82,-19 530.82,-19 530.82,0 580.82,0 580.82,-19"/>
<text text-anchor="middle" x="555.82" y="-7" font-family="Helvetica,sans-Serif" font-size="10.00">cstdint</text>
</a>
</g>
</g>
<!-- Node2&#45;&gt;Node4 -->
<g id="edge13_Node000002_Node000004" class="edge">
<title>Node2&#45;&gt;Node4</title>
<g id="a_edge13_Node000002_Node000004"><a xlink:title=" ">
<path fill="none" stroke="#63b8ff" d="M363.93,-111.48C366.94,-110.97 369.93,-110.47 372.82,-110 424.75,-101.5 572.57,-113.93 606.82,-74 621.12,-57.34 599.33,-37.54 579.96,-24.53"/>
<polygon fill="#63b8ff" stroke="#63b8ff" points="581.68,-21.48 571.36,-19.06 577.92,-27.38 581.68,-21.48"/>
</a>
</g>
</g>
<!-- Node2&#45;&gt;Node6 -->
<g id="edge15_Node000002_Node000006" class="edge">
<title>Node2&#45;&gt;Node6</title>
<g id="a_edge15_Node000002_Node000006"><a xlink:title=" ">
<path fill="none" stroke="#63b8ff" d="M283.74,-118.97C207.8,-118.9 47.44,-113.92 12.82,-74 -3.72,-54.91 25.14,-35.63 50.45,-23.41"/>
<polygon fill="#63b8ff" stroke="#63b8ff" points="52.24,-26.44 59.87,-19.08 49.32,-20.07 52.24,-26.44"/>
</a>
</g>
</g>
<!-- Node7 -->
<g id="Node000007" class="node">
<title>Node7</title>
<g id="a_Node000007"><a xlink:title=" ">
<polygon fill="#e0e0e0" stroke="#999999" points="666.32,-19 619.32,-19 619.32,0 666.32,0 666.32,-19"/>
<text text-anchor="middle" x="642.82" y="-7" font-family="Helvetica,sans-Serif" font-size="10.00">vector</text>
</a>
</g>
</g>
<!-- Node2&#45;&gt;Node7 -->
<g id="edge17_Node000002_Node000007" class="edge">
<title>Node2&#45;&gt;Node7</title>
<g id="a_edge17_Node000002_Node000007"><a xlink:title=" ">
<path fill="none" stroke="#63b8ff" d="M363.92,-111.45C366.93,-110.95 369.93,-110.46 372.82,-110 428.26,-101.2 580.05,-110.35 622.82,-74 635.75,-63.02 640.43,-43.76 642.07,-29.32"/>
<polygon fill="#63b8ff" stroke="#63b8ff" points="645.58,-29.26 642.83,-19.02 638.6,-28.74 645.58,-29.26"/>
</a>
</g>
</g>
<!-- Node8 -->
<g id="Node000008" class="node">
<title>Node8</title>
<g id="a_Node000008"><a xlink:href="params_8hpp.html" target="_top" xlink:title=" ">
<polygon fill="white" stroke="#666666" points="141.82,-74 21.82,-74 21.82,-55 141.82,-55 141.82,-74"/>
<text text-anchor="middle" x="81.82" y="-62" font-family="Helvetica,sans-Serif" font-size="10.00">compiler/params.hpp</text>
</a>
</g>
</g>
<!-- Node2&#45;&gt;Node8 -->
<g id="edge7_Node000002_Node000008" class="edge">
<title>Node2&#45;&gt;Node8</title>
<g id="a_edge7_Node000002_Node000008"><a xlink:title=" ">
<path fill="none" stroke="#63b8ff" d="M284.94,-109.98C243.08,-100.82 176.4,-86.21 130.94,-76.26"/>
<polygon fill="#63b8ff" stroke="#63b8ff" points="131.53,-72.8 121.01,-74.08 130.03,-79.64 131.53,-72.8"/>
</a>
</g>
</g>
<!-- Node9 -->
<g id="Node000009" class="node">
<title>Node9</title>
<g id="a_Node000009"><a xlink:href="types_8hpp.html" target="_top" xlink:title=" ">
<polygon fill="white" stroke="#666666" points="225.32,-74 160.32,-74 160.32,-55 225.32,-55 225.32,-74"/>
<text text-anchor="middle" x="192.82" y="-62" font-family="Helvetica,sans-Serif" font-size="10.00">types.hpp</text>
</a>
</g>
</g>
<!-- Node2&#45;&gt;Node9 -->
<g id="edge9_Node000002_Node000009" class="edge">
<title>Node2&#45;&gt;Node9</title>
<g id="a_edge9_Node000002_Node000009"><a xlink:title=" ">
<path fill="none" stroke="#63b8ff" d="M302.78,-109.98C281.42,-101.34 248.12,-87.87 223.76,-78.02"/>
<polygon fill="#63b8ff" stroke="#63b8ff" points="224.84,-74.68 214.26,-74.17 222.21,-81.17 224.84,-74.68"/>
</a>
</g>
</g>
<!-- Node10 -->
<g id="Node000010" class="node">
<title>Node10</title>
<g id="a_Node000010"><a xlink:title=" ">
<polygon fill="#e0e0e0" stroke="#999999" points="308.32,-74 243.32,-74 243.32,-55 308.32,-55 308.32,-74"/>
<text text-anchor="middle" x="275.82" y="-62" font-family="Helvetica,sans-Serif" font-size="10.00">exception</text>
</a>
</g>
</g>
<!-- Node2&#45;&gt;Node10 -->
<g id="edge14_Node000002_Node000010" class="edge">
<title>Node2&#45;&gt;Node10</title>
<g id="a_edge14_Node000002_Node000010"><a xlink:title=" ">
<path fill="none" stroke="#63b8ff" d="M315.9,-109.75C308.98,-102.11 298.76,-90.82 290.37,-81.56"/>
<polygon fill="#63b8ff" stroke="#63b8ff" points="292.91,-79.15 283.6,-74.09 287.72,-83.85 292.91,-79.15"/>
</a>
</g>
</g>
<!-- Node11 -->
<g id="Node000011" class="node">
<title>Node11</title>
<g id="a_Node000011"><a xlink:title=" ">
<polygon fill="#e0e0e0" stroke="#999999" points="419.32,-74 326.32,-74 326.32,-55 419.32,-55 419.32,-74"/>
<text text-anchor="middle" x="372.82" y="-62" font-family="Helvetica,sans-Serif" font-size="10.00">unordered_map</text>
</a>
</g>
</g>
<!-- Node2&#45;&gt;Node11 -->
<g id="edge16_Node000002_Node000011" class="edge">
<title>Node2&#45;&gt;Node11</title>
<g id="a_edge16_Node000002_Node000011"><a xlink:title=" ">
<path fill="none" stroke="#63b8ff" d="M331.92,-109.75C338.98,-102.11 349.41,-90.82 357.97,-81.56"/>
<polygon fill="#63b8ff" stroke="#63b8ff" points="360.67,-83.81 364.88,-74.09 355.53,-79.06 360.67,-83.81"/>
</a>
</g>
</g>
<!-- Node12 -->
<g id="Node000012" class="node">
<title>Node12</title>
<g id="a_Node000012"><a xlink:title=" ">
<polygon fill="#e0e0e0" stroke="#999999" points="495.82,-74 437.82,-74 437.82,-55 495.82,-55 495.82,-74"/>
<text text-anchor="middle" x="466.82" y="-62" font-family="Helvetica,sans-Serif" font-size="10.00">memory</text>
</a>
</g>
</g>
<!-- Node2&#45;&gt;Node12 -->
<g id="edge18_Node000002_Node000012" class="edge">
<title>Node2&#45;&gt;Node12</title>
<g id="a_edge18_Node000002_Node000012"><a xlink:title=" ">
<path fill="none" stroke="#63b8ff" d="M346.8,-109.98C370.32,-101.27 407.11,-87.63 433.76,-77.75"/>
<polygon fill="#63b8ff" stroke="#63b8ff" points="435.27,-80.93 443.43,-74.17 432.84,-74.36 435.27,-80.93"/>
</a>
</g>
</g>
<!-- Node3&#45;&gt;Node4 -->
<g id="edge3_Node000003_Node000004" class="edge">
<title>Node3&#45;&gt;Node4</title>
<g id="a_edge3_Node000003_Node000004"><a xlink:title=" ">
<path fill="none" stroke="#63b8ff" d="M555.82,-54.75C555.82,-47.8 555.82,-37.85 555.82,-29.13"/>
<polygon fill="#63b8ff" stroke="#63b8ff" points="559.33,-29.09 555.82,-19.09 552.33,-29.09 559.33,-29.09"/>
</a>
</g>
</g>
<!-- Node5 -->
<g id="Node000005" class="node">
<title>Node5</title>
<g id="a_Node000005"><a xlink:title=" ">
<polygon fill="#e0e0e0" stroke="#999999" points="365.32,-19 312.32,-19 312.32,0 365.32,0 365.32,-19"/>
<text text-anchor="middle" x="338.82" y="-7" font-family="Helvetica,sans-Serif" font-size="10.00">cstddef</text>
</a>
</g>
</g>
<!-- Node3&#45;&gt;Node5 -->
<g id="edge4_Node000003_Node000005" class="edge">
<title>Node3&#45;&gt;Node5</title>
<g id="a_edge4_Node000003_Node000005"><a xlink:title=" ">
<path fill="none" stroke="#63b8ff" d="M520.96,-54.98C480.98,-45.22 415.74,-29.29 375.15,-19.37"/>
<polygon fill="#63b8ff" stroke="#63b8ff" points="375.94,-15.96 365.4,-16.99 374.28,-22.76 375.94,-15.96"/>
</a>
</g>
</g>
<!-- Node3&#45;&gt;Node6 -->
<g id="edge5_Node000003_Node000006" class="edge">
<title>Node3&#45;&gt;Node6</title>
<g id="a_edge5_Node000003_Node000006"><a xlink:title=" ">
<path fill="none" stroke="#63b8ff" d="M514.11,-56.34C510.97,-55.86 507.85,-55.41 504.82,-55 359.36,-35.25 184.74,-19.34 113.96,-13.21"/>
<polygon fill="#63b8ff" stroke="#63b8ff" points="114.16,-9.72 103.9,-12.35 113.56,-16.69 114.16,-9.72"/>
</a>
</g>
</g>
<!-- Node3&#45;&gt;Node7 -->
<g id="edge6_Node000003_Node000007" class="edge">
<title>Node3&#45;&gt;Node7</title>
<g id="a_edge6_Node000003_Node000007"><a xlink:title=" ">
<path fill="none" stroke="#63b8ff" d="M569.8,-54.98C583.29,-46.77 603.96,-34.18 619.87,-24.49"/>
<polygon fill="#63b8ff" stroke="#63b8ff" points="621.87,-27.36 628.59,-19.17 618.23,-21.38 621.87,-27.36"/>
</a>
</g>
</g>
<!-- Node8&#45;&gt;Node6 -->
<g id="edge8_Node000008_Node000006" class="edge">
<title>Node8&#45;&gt;Node6</title>
<g id="a_edge8_Node000008_Node000006"><a xlink:title=" ">
<path fill="none" stroke="#63b8ff" d="M81.82,-54.75C81.82,-47.8 81.82,-37.85 81.82,-29.13"/>
<polygon fill="#63b8ff" stroke="#63b8ff" points="85.33,-29.09 81.82,-19.09 78.33,-29.09 85.33,-29.09"/>
</a>
</g>
</g>
<!-- Node9&#45;&gt;Node4 -->
<g id="edge11_Node000009_Node000004" class="edge">
<title>Node9&#45;&gt;Node4</title>
<g id="a_edge11_Node000009_Node000004"><a xlink:title=" ">
<path fill="none" stroke="#63b8ff" d="M225.46,-56.53C228.29,-55.99 231.1,-55.47 233.82,-55 337.7,-37.08 461.41,-21.62 520.72,-14.57"/>
<polygon fill="#63b8ff" stroke="#63b8ff" points="521.17,-18.04 530.69,-13.39 520.34,-11.09 521.17,-18.04"/>
</a>
</g>
</g>
<!-- Node9&#45;&gt;Node5 -->
<g id="edge10_Node000009_Node000005" class="edge">
<title>Node9&#45;&gt;Node5</title>
<g id="a_edge10_Node000009_Node000005"><a xlink:title=" ">
<path fill="none" stroke="#63b8ff" d="M216.28,-54.98C240.4,-46.23 278.19,-32.51 305.43,-22.62"/>
<polygon fill="#63b8ff" stroke="#63b8ff" points="306.74,-25.87 314.94,-19.17 304.35,-19.29 306.74,-25.87"/>
</a>
</g>
</g>
<!-- Node9&#45;&gt;Node6 -->
<g id="edge12_Node000009_Node000006" class="edge">
<title>Node9&#45;&gt;Node6</title>
<g id="a_edge12_Node000009_Node000006"><a xlink:title=" ">
<path fill="none" stroke="#63b8ff" d="M174.99,-54.98C157.21,-46.5 129.68,-33.35 109.15,-23.54"/>
<polygon fill="#63b8ff" stroke="#63b8ff" points="110.52,-20.32 99.98,-19.17 107.5,-26.64 110.52,-20.32"/>
</a>
</g>
</g>
</g>
</svg>
