<?xml version="1.0" encoding="UTF-8" standalone="no"?>
<!DOCTYPE svg PUBLIC "-//W3C//DTD SVG 1.1//EN"
 "http://www.w3.org/Graphics/SVG/1.1/DTD/svg11.dtd">
<!-- Generated by graphviz version 2.43.0 (0)
 -->
<!-- Title: src/compiler/main.cpp Pages: 1 -->
<svg width="1004pt" height="203pt"
 viewBox="0.00 0.00 1004.00 203.00" xmlns="http://www.w3.org/2000/svg" xmlns:xlink="http://www.w3.org/1999/xlink">
<g id="graph0" class="graph" transform="scale(1 1) rotate(0) translate(4 199)">
<title>src/compiler/main.cpp</title>
<!-- Node1 -->
<g id="Node000001" class="node">
<title>Node1</title>
<g id="a_Node000001"><a xlink:title=" ">
<polygon fill="#999999" stroke="#666666" points="684.5,-195 559.5,-195 559.5,-176 684.5,-176 684.5,-195"/>
<text text-anchor="middle" x="622" y="-183" font-family="Helvetica,sans-Serif" font-size="10.00">src/compiler/main.cpp</text>
</a>
</g>
</g>
<!-- Node2 -->
<g id="Node000002" class="node">
<title>Node2</title>
<g id="a_Node000002"><a xlink:href="compiler_8hpp.html" target="_top" xlink:title=" ">
<polygon fill="white" stroke="#666666" points="336,-134.5 256,-134.5 256,-115.5 336,-115.5 336,-134.5"/>
<text text-anchor="middle" x="296" y="-122.5" font-family="Helvetica,sans-Serif" font-size="10.00">compiler.hpp</text>
</a>
</g>
</g>
<!-- Node1&#45;&gt;Node2 -->
<g id="edge1_Node000001_Node000002" class="edge">
<title>Node1&#45;&gt;Node2</title>
<g id="a_edge1_Node000001_Node000002"><a xlink:title=" ">
<path fill="none" stroke="#63b8ff" d="M574.6,-175.99C513.71,-165.07 408.48,-146.18 346.24,-135.02"/>
<polygon fill="#63b8ff" stroke="#63b8ff" points="346.73,-131.55 336.27,-133.23 345.49,-138.44 346.73,-131.55"/>
</a>
</g>
</g>
<!-- Node5 -->
<g id="Node000005" class="node">
<title>Node5</title>
<g id="a_Node000005"><a xlink:title=" ">
<polygon fill="#e0e0e0" stroke="#999999" points="426,-19 376,-19 376,0 426,0 426,-19"/>
<text text-anchor="middle" x="401" y="-7" font-family="Helvetica,sans-Serif" font-size="10.00">cstdint</text>
</a>
</g>
</g>
<!-- Node1&#45;&gt;Node5 -->
<g id="edge14_Node000001_Node000005" class="edge">
<title>Node1&#45;&gt;Node5</title>
<g id="a_edge14_Node000001_Node000005"><a xlink:title=" ">
<path fill="none" stroke="#63b8ff" d="M596,-175.92C577.76,-168.77 553.9,-156.99 538,-140 509.73,-109.78 529.23,-84.29 500,-55 482.5,-37.46 456.86,-26.2 436.06,-19.39"/>
<polygon fill="#63b8ff" stroke="#63b8ff" points="436.88,-15.99 426.29,-16.4 434.83,-22.68 436.88,-15.99"/>
</a>
</g>
</g>
<!-- Node6 -->
<g id="Node000006" class="node">
<title>Node6</title>
<g id="a_Node000006"><a xlink:title=" ">
<polygon fill="#e0e0e0" stroke="#999999" points="44,-19 0,-19 0,0 44,0 44,-19"/>
<text text-anchor="middle" x="22" y="-7" font-family="Helvetica,sans-Serif" font-size="10.00">string</text>
</a>
</g>
</g>
<!-- Node1&#45;&gt;Node6 -->
<g id="edge17_Node000001_Node000006" class="edge">
<title>Node1&#45;&gt;Node6</title>
<g id="a_edge17_Node000001_Node000006"><a xlink:title=" ">
<path fill="none" stroke="#63b8ff" d="M559.43,-180.38C484.55,-174.7 355.66,-162.5 247,-140 146.62,-119.22 89.8,-154.24 26,-74 16.13,-61.58 16.07,-43.11 17.93,-29.29"/>
<polygon fill="#63b8ff" stroke="#63b8ff" points="21.38,-29.86 19.67,-19.41 14.49,-28.64 21.38,-29.86"/>
</a>
</g>
</g>
<!-- Node11 -->
<g id="Node000011" class="node">
<title>Node11</title>
<g id="a_Node000011"><a xlink:title=" ">
<polygon fill="#e0e0e0" stroke="#999999" points="697,-134.5 547,-134.5 547,-115.5 697,-115.5 697,-134.5"/>
<text text-anchor="middle" x="622" y="-122.5" font-family="Helvetica,sans-Serif" font-size="10.00">boost/program_options.hpp</text>
</a>
</g>
</g>
<!-- Node1&#45;&gt;Node11 -->
<g id="edge12_Node000001_Node000011" class="edge">
<title>Node1&#45;&gt;Node11</title>
<g id="a_edge12_Node000001_Node000011"><a xlink:title=" ">
<path fill="none" stroke="#63b8ff" d="M622,-175.87C622,-167.75 622,-155.31 622,-144.89"/>
<polygon fill="#63b8ff" stroke="#63b8ff" points="625.5,-144.67 622,-134.67 618.5,-144.67 625.5,-144.67"/>
</a>
</g>
</g>
<!-- Node12 -->
<g id="Node000012" class="node">
<title>Node12</title>
<g id="a_Node000012"><a xlink:title=" ">
<polygon fill="#e0e0e0" stroke="#999999" points="844.5,-140 715.5,-140 715.5,-110 844.5,-110 844.5,-140"/>
<text text-anchor="start" x="723.5" y="-128" font-family="Helvetica,sans-Serif" font-size="10.00">boost/program_options</text>
<text text-anchor="middle" x="780" y="-117" font-family="Helvetica,sans-Serif" font-size="10.00">/value_semantic.hpp</text>
</a>
</g>
</g>
<!-- Node1&#45;&gt;Node12 -->
<g id="edge13_Node000001_Node000012" class="edge">
<title>Node1&#45;&gt;Node12</title>
<g id="a_edge13_Node000001_Node000012"><a xlink:title=" ">
<path fill="none" stroke="#63b8ff" d="M644.97,-175.99C667.81,-167.54 703.52,-154.32 732.48,-143.59"/>
<polygon fill="#63b8ff" stroke="#63b8ff" points="733.85,-146.82 742.01,-140.06 731.42,-140.25 733.85,-146.82"/>
</a>
</g>
</g>
<!-- Node13 -->
<g id="Node000013" class="node">
<title>Node13</title>
<g id="a_Node000013"><a xlink:title=" ">
<polygon fill="#e0e0e0" stroke="#999999" points="917.5,-134.5 862.5,-134.5 862.5,-115.5 917.5,-115.5 917.5,-134.5"/>
<text text-anchor="middle" x="890" y="-122.5" font-family="Helvetica,sans-Serif" font-size="10.00">fstream</text>
</a>
</g>
</g>
<!-- Node1&#45;&gt;Node13 -->
<g id="edge15_Node000001_Node000013" class="edge">
<title>Node1&#45;&gt;Node13</title>
<g id="a_edge15_Node000001_Node000013"><a xlink:title=" ">
<path fill="none" stroke="#63b8ff" d="M682.79,-175.93C730.01,-168.54 796.85,-156.45 854,-140 856.15,-139.38 858.34,-138.69 860.54,-137.95"/>
<polygon fill="#63b8ff" stroke="#63b8ff" points="861.83,-141.2 870.04,-134.5 859.44,-134.62 861.83,-141.2"/>
</a>
</g>
</g>
<!-- Node14 -->
<g id="Node000014" class="node">
<title>Node14</title>
<g id="a_Node000014"><a xlink:title=" ">
<polygon fill="#e0e0e0" stroke="#999999" points="996,-134.5 936,-134.5 936,-115.5 996,-115.5 996,-134.5"/>
<text text-anchor="middle" x="966" y="-122.5" font-family="Helvetica,sans-Serif" font-size="10.00">iostream</text>
</a>
</g>
</g>
<!-- Node1&#45;&gt;Node14 -->
<g id="edge16_Node000001_Node000014" class="edge">
<title>Node1&#45;&gt;Node14</title>
<g id="a_edge16_Node000001_Node000014"><a xlink:title=" ">
<path fill="none" stroke="#63b8ff" d="M684.63,-179.06C746.79,-172.79 844.45,-160.62 927,-140 929.5,-139.37 932.07,-138.65 934.64,-137.87"/>
<polygon fill="#63b8ff" stroke="#63b8ff" points="935.99,-141.1 944.37,-134.63 933.78,-134.46 935.99,-141.1"/>
</a>
</g>
</g>
<!-- Node3 -->
<g id="Node000003" class="node">
<title>Node3</title>
<g id="a_Node000003"><a xlink:href="types_8hpp.html" target="_top" xlink:title=" ">
<polygon fill="white" stroke="#666666" points="368.5,-74 303.5,-74 303.5,-55 368.5,-55 368.5,-74"/>
<text text-anchor="middle" x="336" y="-62" font-family="Helvetica,sans-Serif" font-size="10.00">types.hpp</text>
</a>
</g>
</g>
<!-- Node2&#45;&gt;Node3 -->
<g id="edge2_Node000002_Node000003" class="edge">
<title>Node2&#45;&gt;Node3</title>
<g id="a_edge2_Node000002_Node000003"><a xlink:title=" ">
<path fill="none" stroke="#63b8ff" d="M301.9,-115.37C307.75,-106.81 316.87,-93.47 324.21,-82.74"/>
<polygon fill="#63b8ff" stroke="#63b8ff" points="327.32,-84.4 330.07,-74.17 321.54,-80.45 327.32,-84.4"/>
</a>
</g>
</g>
<!-- Node2&#45;&gt;Node5 -->
<g id="edge6_Node000002_Node000005" class="edge">
<title>Node2&#45;&gt;Node5</title>
<g id="a_edge6_Node000002_Node000005"><a xlink:title=" ">
<path fill="none" stroke="#63b8ff" d="M318.39,-115.34C336.74,-107.2 362.17,-93.36 378,-74 388.55,-61.09 394.48,-42.93 397.66,-29.34"/>
<polygon fill="#63b8ff" stroke="#63b8ff" points="401.16,-29.71 399.73,-19.21 394.3,-28.31 401.16,-29.71"/>
</a>
</g>
</g>
<!-- Node2&#45;&gt;Node6 -->
<g id="edge8_Node000002_Node000006" class="edge">
<title>Node2&#45;&gt;Node6</title>
<g id="a_edge8_Node000002_Node000006"><a xlink:title=" ">
<path fill="none" stroke="#63b8ff" d="M255.94,-121.13C192.28,-115.78 72.03,-102.15 41,-74 28.63,-62.77 24.18,-43.86 22.64,-29.58"/>
<polygon fill="#63b8ff" stroke="#63b8ff" points="26.12,-29.1 21.94,-19.37 19.13,-29.58 26.12,-29.1"/>
</a>
</g>
</g>
<!-- Node7 -->
<g id="Node000007" class="node">
<title>Node7</title>
<g id="a_Node000007"><a xlink:title=" ">
<polygon fill="#e0e0e0" stroke="#999999" points="490.5,-74 425.5,-74 425.5,-55 490.5,-55 490.5,-74"/>
<text text-anchor="middle" x="458" y="-62" font-family="Helvetica,sans-Serif" font-size="10.00">exception</text>
</a>
</g>
</g>
<!-- Node2&#45;&gt;Node7 -->
<g id="edge7_Node000002_Node000007" class="edge">
<title>Node2&#45;&gt;Node7</title>
<g id="a_edge7_Node000002_Node000007"><a xlink:title=" ">
<path fill="none" stroke="#63b8ff" d="M319.56,-115.49C347.27,-105.49 393.47,-88.8 424.81,-77.49"/>
<polygon fill="#63b8ff" stroke="#63b8ff" points="426.2,-80.71 434.42,-74.02 423.82,-74.12 426.2,-80.71"/>
</a>
</g>
</g>
<!-- Node8 -->
<g id="Node000008" class="node">
<title>Node8</title>
<g id="a_Node000008"><a xlink:title=" ">
<polygon fill="#e0e0e0" stroke="#999999" points="143.5,-74 50.5,-74 50.5,-55 143.5,-55 143.5,-74"/>
<text text-anchor="middle" x="97" y="-62" font-family="Helvetica,sans-Serif" font-size="10.00">unordered_map</text>
</a>
</g>
</g>
<!-- Node2&#45;&gt;Node8 -->
<g id="edge9_Node000002_Node000008" class="edge">
<title>Node2&#45;&gt;Node8</title>
<g id="a_edge9_Node000002_Node000008"><a xlink:title=" ">
<path fill="none" stroke="#63b8ff" d="M267.06,-115.49C232.43,-105.31 174.3,-88.22 135.79,-76.9"/>
<polygon fill="#63b8ff" stroke="#63b8ff" points="136.55,-73.48 125.97,-74.02 134.58,-80.2 136.55,-73.48"/>
</a>
</g>
</g>
<!-- Node9 -->
<g id="Node000009" class="node">
<title>Node9</title>
<g id="a_Node000009"><a xlink:title=" ">
<polygon fill="#e0e0e0" stroke="#999999" points="208.5,-74 161.5,-74 161.5,-55 208.5,-55 208.5,-74"/>
<text text-anchor="middle" x="185" y="-62" font-family="Helvetica,sans-Serif" font-size="10.00">vector</text>
</a>
</g>
</g>
<!-- Node2&#45;&gt;Node9 -->
<g id="edge10_Node000002_Node000009" class="edge">
<title>Node2&#45;&gt;Node9</title>
<g id="a_edge10_Node000002_Node000009"><a xlink:title=" ">
<path fill="none" stroke="#63b8ff" d="M279.62,-115.37C261.42,-105.78 231.8,-90.17 210.55,-78.97"/>
<polygon fill="#63b8ff" stroke="#63b8ff" points="211.92,-75.73 201.45,-74.17 208.66,-81.93 211.92,-75.73"/>
</a>
</g>
</g>
<!-- Node10 -->
<g id="Node000010" class="node">
<title>Node10</title>
<g id="a_Node000010"><a xlink:title=" ">
<polygon fill="#e0e0e0" stroke="#999999" points="285,-74 227,-74 227,-55 285,-55 285,-74"/>
<text text-anchor="middle" x="256" y="-62" font-family="Helvetica,sans-Serif" font-size="10.00">memory</text>
</a>
</g>
</g>
<!-- Node2&#45;&gt;Node10 -->
<g id="edge11_Node000002_Node000010" class="edge">
<title>Node2&#45;&gt;Node10</title>
<g id="a_edge11_Node000002_Node000010"><a xlink:title=" ">
<path fill="none" stroke="#63b8ff" d="M290.1,-115.37C284.25,-106.81 275.13,-93.47 267.79,-82.74"/>
<polygon fill="#63b8ff" stroke="#63b8ff" points="270.46,-80.45 261.93,-74.17 264.68,-84.4 270.46,-80.45"/>
</a>
</g>
</g>
<!-- Node4 -->
<g id="Node000004" class="node">
<title>Node4</title>
<g id="a_Node000004"><a xlink:title=" ">
<polygon fill="#e0e0e0" stroke="#999999" points="357.5,-19 304.5,-19 304.5,0 357.5,0 357.5,-19"/>
<text text-anchor="middle" x="331" y="-7" font-family="Helvetica,sans-Serif" font-size="10.00">cstddef</text>
</a>
</g>
</g>
<!-- Node3&#45;&gt;Node4 -->
<g id="edge3_Node000003_Node000004" class="edge">
<title>Node3&#45;&gt;Node4</title>
<g id="a_edge3_Node000003_Node000004"><a xlink:title=" ">
<path fill="none" stroke="#63b8ff" d="M335.17,-54.75C334.52,-47.8 333.58,-37.85 332.76,-29.13"/>
<polygon fill="#63b8ff" stroke="#63b8ff" points="336.23,-28.72 331.81,-19.09 329.27,-29.37 336.23,-28.72"/>
</a>
</g>
</g>
<!-- Node3&#45;&gt;Node5 -->
<g id="edge4_Node000003_Node000005" class="edge">
<title>Node3&#45;&gt;Node5</title>
<g id="a_edge4_Node000003_Node000005"><a xlink:title=" ">
<path fill="none" stroke="#63b8ff" d="M346.44,-54.98C356.15,-47.07 370.82,-35.11 382.5,-25.58"/>
<polygon fill="#63b8ff" stroke="#63b8ff" points="384.83,-28.2 390.37,-19.17 380.4,-22.78 384.83,-28.2"/>
</a>
</g>
</g>
<!-- Node3&#45;&gt;Node6 -->
<g id="edge5_Node000003_Node000006" class="edge">
<title>Node3&#45;&gt;Node6</title>
<g id="a_edge5_Node000003_Node000006"><a xlink:title=" ">
<path fill="none" stroke="#63b8ff" d="M303.46,-56.79C300.27,-56.17 297.07,-55.56 294,-55 207.65,-39.2 105.38,-23.2 54.35,-15.39"/>
<polygon fill="#63b8ff" stroke="#63b8ff" points="54.67,-11.9 44.26,-13.85 53.62,-18.82 54.67,-11.9"/>
</a>
</g>
</g>
</g>
</svg>
