<?xml version="1.0" encoding="UTF-8" standalone="no"?>
<!DOCTYPE svg PUBLIC "-//W3C//DTD SVG 1.1//EN"
 "http://www.w3.org/Graphics/SVG/1.1/DTD/svg11.dtd">
<!-- Generated by graphviz version 2.43.0 (0)
 -->
<!-- Title: main Pages: 1 -->
<svg width="634pt" height="179pt"
 viewBox="0.00 0.00 634.00 179.00" xmlns="http://www.w3.org/2000/svg" xmlns:xlink="http://www.w3.org/1999/xlink">
<g id="graph0" class="graph" transform="scale(1 1) rotate(0) translate(4 175)">
<title>main</title>
<!-- Node1 -->
<g id="Node000001" class="node">
<title>Node1</title>
<g id="a_Node000001"><a xlink:title=" ">
<polygon fill="#999999" stroke="#666666" points="41,-40 0,-40 0,-21 41,-21 41,-40"/>
<text text-anchor="middle" x="20.5" y="-28" font-family="Helvetica,sans-Serif" font-size="10.00">main</text>
</a>
</g>
</g>
<!-- Node2 -->
<g id="Node000002" class="node">
<title>Node2</title>
<g id="a_Node000002"><a xlink:href="classULang_1_1CompilerInstance.html#a421fd0510115d58a186435486b9fa7aa" target="_top" xlink:title="does the compilation">
<polygon fill="white" stroke="#666666" points="216,-67.5 77,-67.5 77,-37.5 216,-37.5 216,-67.5"/>
<text text-anchor="start" x="85" y="-55.5" font-family="Helvetica,sans-Serif" font-size="10.00">ULang::CompilerInstance</text>
<text text-anchor="middle" x="146.5" y="-44.5" font-family="Helvetica,sans-Serif" font-size="10.00">::compile</text>
</a>
</g>
</g>
<!-- Node1&#45;&gt;Node2 -->
<g id="edge1_Node000001_Node000002" class="edge">
<title>Node1&#45;&gt;Node2</title>
<g id="a_edge1_Node000001_Node000002"><a xlink:title=" ">
<path fill="none" stroke="#63b8ff" d="M41.15,-33.99C48.5,-35.29 57.37,-36.86 66.79,-38.54"/>
<polygon fill="#63b8ff" stroke="#63b8ff" points="66.32,-42.01 76.78,-40.31 67.54,-35.11 66.32,-42.01"/>
</a>
</g>
</g>
<!-- Node7 -->
<g id="Node000007" class="node">
<title>Node7</title>
<g id="a_Node000007"><a xlink:href="classULang_1_1Lexer.html#a683839683dfefa9502c5e151222ecb7e" target="_top" xlink:title="converts source code to tokens">
<polygon fill="white" stroke="#666666" points="417,-19 290,-19 290,0 417,0 417,-19"/>
<text text-anchor="middle" x="353.5" y="-7" font-family="Helvetica,sans-Serif" font-size="10.00">ULang::Lexer::tokenize</text>
</a>
</g>
</g>
<!-- Node1&#45;&gt;Node7 -->
<g id="edge9_Node000001_Node000007" class="edge">
<title>Node1&#45;&gt;Node7</title>
<g id="a_edge9_Node000001_Node000007"><a xlink:title=" ">
<path fill="none" stroke="#63b8ff" d="M41.21,-29.25C87.1,-26.34 202.97,-18.99 279.66,-14.12"/>
<polygon fill="#63b8ff" stroke="#63b8ff" points="279.99,-17.61 289.75,-13.48 279.54,-10.62 279.99,-17.61"/>
</a>
</g>
</g>
<!-- Node3 -->
<g id="Node000003" class="node">
<title>Node3</title>
<g id="a_Node000003"><a xlink:href="classULang_1_1CompilerSyntaxException.html#a39539114f05c2d71321e5eb748da29f6" target="_top" xlink:title="formatted compiler exception output (human readable)">
<polygon fill="white" stroke="#666666" points="455,-153 252,-153 252,-134 455,-134 455,-153"/>
<text text-anchor="middle" x="353.5" y="-141" font-family="Helvetica,sans-Serif" font-size="10.00">ULang::CompilerSyntaxException::fmt</text>
</a>
</g>
</g>
<!-- Node2&#45;&gt;Node3 -->
<g id="edge2_Node000002_Node000003" class="edge">
<title>Node2&#45;&gt;Node3</title>
<g id="a_edge2_Node000002_Node000003"><a xlink:title=" ">
<path fill="none" stroke="#63b8ff" d="M164.65,-67.72C184.33,-84.33 218.24,-110.42 252,-124.5 258.28,-127.12 264.92,-129.38 271.69,-131.33"/>
<polygon fill="#63b8ff" stroke="#63b8ff" points="271.1,-134.79 281.66,-133.97 272.89,-128.02 271.1,-134.79"/>
</a>
</g>
</g>
<!-- Node6 -->
<g id="Node000006" class="node">
<title>Node6</title>
<g id="a_Node000006"><a xlink:href="classULang_1_1CompilerSyntaxException.html#a39818372c08ca906d4b50a91012801c6" target="_top" xlink:title=" ">
<polygon fill="white" stroke="#666666" points="443,-115.5 264,-115.5 264,-85.5 443,-85.5 443,-115.5"/>
<text text-anchor="start" x="272" y="-103.5" font-family="Helvetica,sans-Serif" font-size="10.00">ULang::CompilerSyntaxException</text>
<text text-anchor="middle" x="353.5" y="-92.5" font-family="Helvetica,sans-Serif" font-size="10.00">::getSeverity</text>
</a>
</g>
</g>
<!-- Node2&#45;&gt;Node6 -->
<g id="edge5_Node000002_Node000006" class="edge">
<title>Node2&#45;&gt;Node6</title>
<g id="a_edge5_Node000002_Node000006"><a xlink:title=" ">
<path fill="none" stroke="#63b8ff" d="M211.8,-67.56C232.98,-72.51 256.7,-78.07 278.54,-83.18"/>
<polygon fill="#63b8ff" stroke="#63b8ff" points="277.89,-86.63 288.43,-85.5 279.49,-79.81 277.89,-86.63"/>
</a>
</g>
</g>
<!-- Node2&#45;&gt;Node7 -->
<g id="edge6_Node000002_Node000007" class="edge">
<title>Node2&#45;&gt;Node7</title>
<g id="a_edge6_Node000002_Node000007"><a xlink:title=" ">
<path fill="none" stroke="#63b8ff" d="M211.24,-37.45C224.68,-34.39 238.79,-31.26 252,-28.5 264.27,-25.93 277.42,-23.33 290.03,-20.92"/>
<polygon fill="#63b8ff" stroke="#63b8ff" points="290.83,-24.33 300,-19.03 289.53,-17.45 290.83,-24.33"/>
</a>
</g>
</g>
<!-- Node9 -->
<g id="Node000009" class="node">
<title>Node9</title>
<g id="a_Node000009"><a xlink:href="classULang_1_1CompilerSyntaxException.html#a6bac429bee65121a473bad6af7b5edbd" target="_top" xlink:title=" ">
<polygon fill="white" stroke="#666666" points="443,-67.5 264,-67.5 264,-37.5 443,-37.5 443,-67.5"/>
<text text-anchor="start" x="272" y="-55.5" font-family="Helvetica,sans-Serif" font-size="10.00">ULang::CompilerSyntaxException</text>
<text text-anchor="middle" x="353.5" y="-44.5" font-family="Helvetica,sans-Serif" font-size="10.00">::what</text>
</a>
</g>
</g>
<!-- Node2&#45;&gt;Node9 -->
<g id="edge8_Node000002_Node000009" class="edge">
<title>Node2&#45;&gt;Node9</title>
<g id="a_edge8_Node000002_Node000009"><a xlink:title=" ">
<path fill="none" stroke="#63b8ff" d="M216.05,-52.5C228.17,-52.5 241.01,-52.5 253.77,-52.5"/>
<polygon fill="#63b8ff" stroke="#63b8ff" points="253.97,-56 263.97,-52.5 253.97,-49 253.97,-56"/>
</a>
</g>
</g>
<!-- Node4 -->
<g id="Node000004" class="node">
<title>Node4</title>
<g id="a_Node000004"><a xlink:href="namespaceULang.html#a991893b6b9fc7f5f594ad4375bfbe05c" target="_top" xlink:title=" ">
<polygon fill="white" stroke="#666666" points="623.5,-171 493.5,-171 493.5,-152 623.5,-152 623.5,-171"/>
<text text-anchor="middle" x="558.5" y="-159" font-family="Helvetica,sans-Serif" font-size="10.00">ULang::h_severityColor</text>
</a>
</g>
</g>
<!-- Node3&#45;&gt;Node4 -->
<g id="edge3_Node000003_Node000004" class="edge">
<title>Node3&#45;&gt;Node4</title>
<g id="a_edge3_Node000003_Node000004"><a xlink:title=" ">
<path fill="none" stroke="#63b8ff" d="M455.11,-152.42C464.6,-153.26 474.1,-154.1 483.28,-154.92"/>
<polygon fill="#63b8ff" stroke="#63b8ff" points="483.21,-158.43 493.48,-155.82 483.83,-151.45 483.21,-158.43"/>
</a>
</g>
</g>
<!-- Node5 -->
<g id="Node000005" class="node">
<title>Node5</title>
<g id="a_Node000005"><a xlink:href="namespaceULang.html#aa872add6618cd1839d302348efd6020b" target="_top" xlink:title=" ">
<polygon fill="white" stroke="#666666" points="617.5,-134 499.5,-134 499.5,-115 617.5,-115 617.5,-134"/>
<text text-anchor="middle" x="558.5" y="-122" font-family="Helvetica,sans-Serif" font-size="10.00">ULang::h_severityStr</text>
</a>
</g>
</g>
<!-- Node3&#45;&gt;Node5 -->
<g id="edge4_Node000003_Node000005" class="edge">
<title>Node3&#45;&gt;Node5</title>
<g id="a_edge4_Node000003_Node000005"><a xlink:title=" ">
<path fill="none" stroke="#63b8ff" d="M455.11,-134.08C466.59,-133.01 478.09,-131.93 489.02,-130.91"/>
<polygon fill="#63b8ff" stroke="#63b8ff" points="489.67,-134.36 499.3,-129.95 489.02,-127.39 489.67,-134.36"/>
</a>
</g>
</g>
<!-- Node8 -->
<g id="Node000008" class="node">
<title>Node8</title>
<g id="a_Node000008"><a xlink:href="namespaceULang.html#a2437ad588ffb8270e6c3c174357638f2" target="_top" xlink:title=" ">
<polygon fill="white" stroke="#666666" points="626,-19 491,-19 491,0 626,0 626,-19"/>
<text text-anchor="middle" x="558.5" y="-7" font-family="Helvetica,sans-Serif" font-size="10.00">ULang::resolveDataType</text>
</a>
</g>
</g>
<!-- Node7&#45;&gt;Node8 -->
<g id="edge7_Node000007_Node000008" class="edge">
<title>Node7&#45;&gt;Node8</title>
<g id="a_edge7_Node000007_Node000008"><a xlink:title=" ">
<path fill="none" stroke="#63b8ff" d="M417.06,-9.5C437.19,-9.5 459.72,-9.5 480.74,-9.5"/>
<polygon fill="#63b8ff" stroke="#63b8ff" points="480.92,-13 490.92,-9.5 480.92,-6 480.92,-13"/>
</a>
</g>
</g>
</g>
</svg>
