<?xml version="1.0" encoding="UTF-8" standalone="no"?>
<!DOCTYPE svg PUBLIC "-//W3C//DTD SVG 1.1//EN"
 "http://www.w3.org/Graphics/SVG/1.1/DTD/svg11.dtd">
<!-- Generated by graphviz version 2.43.0 (0)
 -->
<!-- Title: src/compiler/main.cpp Pages: 1 -->
<svg width="774pt" height="192pt"
 viewBox="0.00 0.00 774.00 192.00" xmlns="http://www.w3.org/2000/svg" xmlns:xlink="http://www.w3.org/1999/xlink">
<g id="graph0" class="graph" transform="scale(1 1) rotate(0) translate(4 188)">
<title>src/compiler/main.cpp</title>
<!-- Node1 -->
<g id="Node000001" class="node">
<title>Node1</title>
<g id="a_Node000001"><a xlink:title=" ">
<polygon fill="#999999" stroke="#666666" points="602.5,-184 477.5,-184 477.5,-165 602.5,-165 602.5,-184"/>
<text text-anchor="middle" x="540" y="-172" font-family="Helvetica,sans-Serif" font-size="10.00">src/compiler/main.cpp</text>
</a>
</g>
</g>
<!-- Node2 -->
<g id="Node000002" class="node">
<title>Node2</title>
<g id="a_Node000002"><a xlink:href="compiler_8hpp.html" target="_top" xlink:title=" ">
<polygon fill="white" stroke="#666666" points="311,-129 231,-129 231,-110 311,-110 311,-129"/>
<text text-anchor="middle" x="271" y="-117" font-family="Helvetica,sans-Serif" font-size="10.00">compiler.hpp</text>
</a>
</g>
</g>
<!-- Node1&#45;&gt;Node2 -->
<g id="edge1_Node000001_Node000002" class="edge">
<title>Node1&#45;&gt;Node2</title>
<g id="a_edge1_Node000001_Node000002"><a xlink:title=" ">
<path fill="none" stroke="#63b8ff" d="M496.78,-164.98C448.85,-155.54 371.62,-140.32 321.08,-130.37"/>
<polygon fill="#63b8ff" stroke="#63b8ff" points="321.53,-126.89 311.04,-128.39 320.17,-133.76 321.53,-126.89"/>
</a>
</g>
</g>
<!-- Node6 -->
<g id="Node000006" class="node">
<title>Node6</title>
<g id="a_Node000006"><a xlink:title=" ">
<polygon fill="#e0e0e0" stroke="#999999" points="421,-19 377,-19 377,0 421,0 421,-19"/>
<text text-anchor="middle" x="399" y="-7" font-family="Helvetica,sans-Serif" font-size="10.00">string</text>
</a>
</g>
</g>
<!-- Node1&#45;&gt;Node6 -->
<g id="edge14_Node000001_Node000006" class="edge">
<title>Node1&#45;&gt;Node6</title>
<g id="a_edge14_Node000001_Node000006"><a xlink:title=" ">
<path fill="none" stroke="#63b8ff" d="M514.53,-164.93C496.31,-157.73 472.25,-145.89 456,-129 427.88,-99.76 411.33,-54.02 403.84,-28.77"/>
<polygon fill="#63b8ff" stroke="#63b8ff" points="407.18,-27.71 401.1,-19.03 400.44,-29.6 407.18,-27.71"/>
</a>
</g>
</g>
<!-- Node10 -->
<g id="Node000010" class="node">
<title>Node10</title>
<g id="a_Node000010"><a xlink:title=" ">
<polygon fill="#e0e0e0" stroke="#999999" points="615,-129 465,-129 465,-110 615,-110 615,-129"/>
<text text-anchor="middle" x="540" y="-117" font-family="Helvetica,sans-Serif" font-size="10.00">boost/program_options.hpp</text>
</a>
</g>
</g>
<!-- Node1&#45;&gt;Node10 -->
<g id="edge11_Node000001_Node000010" class="edge">
<title>Node1&#45;&gt;Node10</title>
<g id="a_edge11_Node000001_Node000010"><a xlink:title=" ">
<path fill="none" stroke="#63b8ff" d="M540,-164.75C540,-157.8 540,-147.85 540,-139.13"/>
<polygon fill="#63b8ff" stroke="#63b8ff" points="543.5,-139.09 540,-129.09 536.5,-139.09 543.5,-139.09"/>
</a>
</g>
</g>
<!-- Node11 -->
<g id="Node000011" class="node">
<title>Node11</title>
<g id="a_Node000011"><a xlink:title=" ">
<polygon fill="#e0e0e0" stroke="#999999" points="687.5,-129 632.5,-129 632.5,-110 687.5,-110 687.5,-129"/>
<text text-anchor="middle" x="660" y="-117" font-family="Helvetica,sans-Serif" font-size="10.00">fstream</text>
</a>
</g>
</g>
<!-- Node1&#45;&gt;Node11 -->
<g id="edge12_Node000001_Node000011" class="edge">
<title>Node1&#45;&gt;Node11</title>
<g id="a_edge12_Node000001_Node000011"><a xlink:title=" ">
<path fill="none" stroke="#63b8ff" d="M559.28,-164.98C578.67,-156.42 608.81,-143.11 631.07,-133.28"/>
<polygon fill="#63b8ff" stroke="#63b8ff" points="632.64,-136.41 640.37,-129.17 629.81,-130.01 632.64,-136.41"/>
</a>
</g>
</g>
<!-- Node12 -->
<g id="Node000012" class="node">
<title>Node12</title>
<g id="a_Node000012"><a xlink:title=" ">
<polygon fill="#e0e0e0" stroke="#999999" points="766,-129 706,-129 706,-110 766,-110 766,-129"/>
<text text-anchor="middle" x="736" y="-117" font-family="Helvetica,sans-Serif" font-size="10.00">iostream</text>
</a>
</g>
</g>
<!-- Node1&#45;&gt;Node12 -->
<g id="edge13_Node000001_Node000012" class="edge">
<title>Node1&#45;&gt;Node12</title>
<g id="a_edge13_Node000001_Node000012"><a xlink:title=" ">
<path fill="none" stroke="#63b8ff" d="M571.49,-164.98C605.32,-155.84 659.17,-141.28 695.98,-131.32"/>
<polygon fill="#63b8ff" stroke="#63b8ff" points="697.14,-134.64 705.87,-128.65 695.31,-127.88 697.14,-134.64"/>
</a>
</g>
</g>
<!-- Node3 -->
<g id="Node000003" class="node">
<title>Node3</title>
<g id="a_Node000003"><a xlink:href="types_8hpp.html" target="_top" xlink:title=" ">
<polygon fill="white" stroke="#666666" points="118.5,-74 53.5,-74 53.5,-55 118.5,-55 118.5,-74"/>
<text text-anchor="middle" x="86" y="-62" font-family="Helvetica,sans-Serif" font-size="10.00">types.hpp</text>
</a>
</g>
</g>
<!-- Node2&#45;&gt;Node3 -->
<g id="edge2_Node000002_Node000003" class="edge">
<title>Node2&#45;&gt;Node3</title>
<g id="a_edge2_Node000002_Node000003"><a xlink:title=" ">
<path fill="none" stroke="#63b8ff" d="M241.28,-109.98C209.95,-101.01 160.43,-86.82 125.76,-76.89"/>
<polygon fill="#63b8ff" stroke="#63b8ff" points="126.53,-73.47 115.96,-74.08 124.61,-80.2 126.53,-73.47"/>
</a>
</g>
</g>
<!-- Node5 -->
<g id="Node000005" class="node">
<title>Node5</title>
<g id="a_Node000005"><a xlink:title=" ">
<polygon fill="#e0e0e0" stroke="#999999" points="50,-19 0,-19 0,0 50,0 50,-19"/>
<text text-anchor="middle" x="25" y="-7" font-family="Helvetica,sans-Serif" font-size="10.00">cstdint</text>
</a>
</g>
</g>
<!-- Node2&#45;&gt;Node5 -->
<g id="edge6_Node000002_Node000005" class="edge">
<title>Node2&#45;&gt;Node5</title>
<g id="a_edge6_Node000002_Node000005"><a xlink:title=" ">
<path fill="none" stroke="#63b8ff" d="M230.9,-115.57C173.25,-110.55 70.92,-98.42 44,-74 31.63,-62.77 27.18,-43.86 25.64,-29.58"/>
<polygon fill="#63b8ff" stroke="#63b8ff" points="29.12,-29.1 24.94,-19.37 22.13,-29.58 29.12,-29.1"/>
</a>
</g>
</g>
<!-- Node2&#45;&gt;Node6 -->
<g id="edge7_Node000002_Node000006" class="edge">
<title>Node2&#45;&gt;Node6</title>
<g id="a_edge7_Node000002_Node000006"><a xlink:title=" ">
<path fill="none" stroke="#63b8ff" d="M311.24,-111.07C334.31,-104.84 362.14,-93.68 380,-74 391.12,-61.75 395.74,-43.24 397.66,-29.35"/>
<polygon fill="#63b8ff" stroke="#63b8ff" points="401.18,-29.33 398.71,-19.02 394.21,-28.61 401.18,-29.33"/>
</a>
</g>
</g>
<!-- Node7 -->
<g id="Node000007" class="node">
<title>Node7</title>
<g id="a_Node000007"><a xlink:title=" ">
<polygon fill="#e0e0e0" stroke="#999999" points="229.5,-74 136.5,-74 136.5,-55 229.5,-55 229.5,-74"/>
<text text-anchor="middle" x="183" y="-62" font-family="Helvetica,sans-Serif" font-size="10.00">unordered_map</text>
</a>
</g>
</g>
<!-- Node2&#45;&gt;Node7 -->
<g id="edge8_Node000002_Node000007" class="edge">
<title>Node2&#45;&gt;Node7</title>
<g id="a_edge8_Node000002_Node000007"><a xlink:title=" ">
<path fill="none" stroke="#63b8ff" d="M256.86,-109.98C243.21,-101.77 222.31,-89.18 206.22,-79.49"/>
<polygon fill="#63b8ff" stroke="#63b8ff" points="207.77,-76.33 197.4,-74.17 204.16,-82.33 207.77,-76.33"/>
</a>
</g>
</g>
<!-- Node8 -->
<g id="Node000008" class="node">
<title>Node8</title>
<g id="a_Node000008"><a xlink:title=" ">
<polygon fill="#e0e0e0" stroke="#999999" points="294.5,-74 247.5,-74 247.5,-55 294.5,-55 294.5,-74"/>
<text text-anchor="middle" x="271" y="-62" font-family="Helvetica,sans-Serif" font-size="10.00">vector</text>
</a>
</g>
</g>
<!-- Node2&#45;&gt;Node8 -->
<g id="edge9_Node000002_Node000008" class="edge">
<title>Node2&#45;&gt;Node8</title>
<g id="a_edge9_Node000002_Node000008"><a xlink:title=" ">
<path fill="none" stroke="#63b8ff" d="M271,-109.75C271,-102.8 271,-92.85 271,-84.13"/>
<polygon fill="#63b8ff" stroke="#63b8ff" points="274.5,-84.09 271,-74.09 267.5,-84.09 274.5,-84.09"/>
</a>
</g>
</g>
<!-- Node9 -->
<g id="Node000009" class="node">
<title>Node9</title>
<g id="a_Node000009"><a xlink:title=" ">
<polygon fill="#e0e0e0" stroke="#999999" points="371,-74 313,-74 313,-55 371,-55 371,-74"/>
<text text-anchor="middle" x="342" y="-62" font-family="Helvetica,sans-Serif" font-size="10.00">memory</text>
</a>
</g>
</g>
<!-- Node2&#45;&gt;Node9 -->
<g id="edge10_Node000002_Node000009" class="edge">
<title>Node2&#45;&gt;Node9</title>
<g id="a_edge10_Node000002_Node000009"><a xlink:title=" ">
<path fill="none" stroke="#63b8ff" d="M282.41,-109.98C293.11,-102 309.34,-89.88 322.16,-80.31"/>
<polygon fill="#63b8ff" stroke="#63b8ff" points="324.47,-82.96 330.39,-74.17 320.28,-77.35 324.47,-82.96"/>
</a>
</g>
</g>
<!-- Node4 -->
<g id="Node000004" class="node">
<title>Node4</title>
<g id="a_Node000004"><a xlink:title=" ">
<polygon fill="#e0e0e0" stroke="#999999" points="121.5,-19 68.5,-19 68.5,0 121.5,0 121.5,-19"/>
<text text-anchor="middle" x="95" y="-7" font-family="Helvetica,sans-Serif" font-size="10.00">cstddef</text>
</a>
</g>
</g>
<!-- Node3&#45;&gt;Node4 -->
<g id="edge3_Node000003_Node000004" class="edge">
<title>Node3&#45;&gt;Node4</title>
<g id="a_edge3_Node000003_Node000004"><a xlink:title=" ">
<path fill="none" stroke="#63b8ff" d="M87.49,-54.75C88.67,-47.8 90.36,-37.85 91.84,-29.13"/>
<polygon fill="#63b8ff" stroke="#63b8ff" points="95.32,-29.53 93.54,-19.09 88.42,-28.36 95.32,-29.53"/>
</a>
</g>
</g>
<!-- Node3&#45;&gt;Node5 -->
<g id="edge4_Node000003_Node000005" class="edge">
<title>Node3&#45;&gt;Node5</title>
<g id="a_edge4_Node000003_Node000005"><a xlink:title=" ">
<path fill="none" stroke="#63b8ff" d="M76.2,-54.98C67.18,-47.15 53.59,-35.34 42.68,-25.86"/>
<polygon fill="#63b8ff" stroke="#63b8ff" points="44.82,-23.09 34.98,-19.17 40.23,-28.37 44.82,-23.09"/>
</a>
</g>
</g>
<!-- Node3&#45;&gt;Node6 -->
<g id="edge5_Node000003_Node000006" class="edge">
<title>Node3&#45;&gt;Node6</title>
<g id="a_edge5_Node000003_Node000006"><a xlink:title=" ">
<path fill="none" stroke="#63b8ff" d="M118.65,-56.6C121.47,-56.04 124.28,-55.5 127,-55 213.31,-39 315.6,-23.08 366.64,-15.34"/>
<polygon fill="#63b8ff" stroke="#63b8ff" points="367.37,-18.77 376.73,-13.82 366.32,-11.85 367.37,-18.77"/>
</a>
</g>
</g>
</g>
</svg>
