<?xml version="1.0" encoding="UTF-8" standalone="no"?>
<!DOCTYPE svg PUBLIC "-//W3C//DTD SVG 1.1//EN"
 "http://www.w3.org/Graphics/SVG/1.1/DTD/svg11.dtd">
<!-- Generated by graphviz version 2.43.0 (0)
 -->
<!-- Title: main Pages: 1 -->
<svg width="708pt" height="64pt"
 viewBox="0.00 0.00 708.00 64.00" xmlns="http://www.w3.org/2000/svg" xmlns:xlink="http://www.w3.org/1999/xlink">
<g id="graph0" class="graph" transform="scale(1 1) rotate(0) translate(4 60)">
<title>main</title>
<!-- Node1 -->
<g id="Node000001" class="node">
<title>Node1</title>
<g id="a_Node000001"><a xlink:title=" ">
<polygon fill="#999999" stroke="#666666" points="41,-37 0,-37 0,-18 41,-18 41,-37"/>
<text text-anchor="middle" x="20.5" y="-25" font-family="Helvetica,sans-Serif" font-size="10.00">main</text>
</a>
</g>
</g>
<!-- Node2 -->
<g id="Node000002" class="node">
<title>Node2</title>
<g id="a_Node000002"><a xlink:href="namespaceULang.html#a8f59f969ec2996764887ae0230f13155" target="_top" xlink:title=" ">
<polygon fill="white" stroke="#666666" points="188.5,-56 92.5,-56 92.5,-37 188.5,-37 188.5,-56"/>
<text text-anchor="middle" x="140.5" y="-44" font-family="Helvetica,sans-Serif" font-size="10.00">ULang::buildAST</text>
</a>
</g>
</g>
<!-- Node1&#45;&gt;Node2 -->
<g id="edge1_Node000001_Node000002" class="edge">
<title>Node1&#45;&gt;Node2</title>
<g id="a_edge1_Node000001_Node000002"><a xlink:title=" ">
<path fill="none" stroke="#63b8ff" d="M41.25,-30.68C52.6,-32.51 67.51,-34.91 82.27,-37.28"/>
<polygon fill="#63b8ff" stroke="#63b8ff" points="81.98,-40.78 92.41,-38.92 83.1,-33.87 81.98,-40.78"/>
</a>
</g>
</g>
<!-- Node6 -->
<g id="Node000006" class="node">
<title>Node6</title>
<g id="a_Node000006"><a xlink:href="classULang_1_1Lexer.html#ae872eb2e23ddedc140f49db092b9462b" target="_top" xlink:title=" ">
<polygon fill="white" stroke="#666666" points="204,-19 77,-19 77,0 204,0 204,-19"/>
<text text-anchor="middle" x="140.5" y="-7" font-family="Helvetica,sans-Serif" font-size="10.00">ULang::Lexer::tokenize</text>
</a>
</g>
</g>
<!-- Node1&#45;&gt;Node6 -->
<g id="edge5_Node000001_Node000006" class="edge">
<title>Node1&#45;&gt;Node6</title>
<g id="a_edge5_Node000001_Node000006"><a xlink:title=" ">
<path fill="none" stroke="#63b8ff" d="M41.25,-24.49C48.7,-23.35 57.68,-21.98 67.14,-20.54"/>
<polygon fill="#63b8ff" stroke="#63b8ff" points="67.78,-23.98 77.13,-19.01 66.72,-17.06 67.78,-23.98"/>
</a>
</g>
</g>
<!-- Node3 -->
<g id="Node000003" class="node">
<title>Node3</title>
<g id="a_Node000003"><a xlink:href="namespaceULang.html#a35dd0deee5e026fc04f288a48d2e7776" target="_top" xlink:title=" ">
<polygon fill="white" stroke="#666666" points="366.5,-56 248.5,-56 248.5,-37 366.5,-37 366.5,-56"/>
<text text-anchor="middle" x="307.5" y="-44" font-family="Helvetica,sans-Serif" font-size="10.00">ULang::parseVarDecl</text>
</a>
</g>
</g>
<!-- Node2&#45;&gt;Node3 -->
<g id="edge2_Node000002_Node000003" class="edge">
<title>Node2&#45;&gt;Node3</title>
<g id="a_edge2_Node000002_Node000003"><a xlink:title=" ">
<path fill="none" stroke="#63b8ff" d="M188.78,-46.5C204.16,-46.5 221.55,-46.5 238.15,-46.5"/>
<polygon fill="#63b8ff" stroke="#63b8ff" points="238.36,-50 248.36,-46.5 238.36,-43 238.36,-50"/>
</a>
</g>
</g>
<!-- Node4 -->
<g id="Node000004" class="node">
<title>Node4</title>
<g id="a_Node000004"><a xlink:href="namespaceULang.html#a4bc72c6d5fa71c1e6d1f58b6b6c7b939" target="_top" xlink:title=" ">
<polygon fill="white" stroke="#666666" points="545,-56 411,-56 411,-37 545,-37 545,-56"/>
<text text-anchor="middle" x="478" y="-44" font-family="Helvetica,sans-Serif" font-size="10.00">ULang::parseExpression</text>
</a>
</g>
</g>
<!-- Node3&#45;&gt;Node4 -->
<g id="edge3_Node000003_Node000004" class="edge">
<title>Node3&#45;&gt;Node4</title>
<g id="a_edge3_Node000003_Node000004"><a xlink:title=" ">
<path fill="none" stroke="#63b8ff" d="M366.96,-46.5C377.8,-46.5 389.28,-46.5 400.56,-46.5"/>
<polygon fill="#63b8ff" stroke="#63b8ff" points="400.85,-50 410.85,-46.5 400.85,-43 400.85,-50"/>
</a>
</g>
</g>
<!-- Node5 -->
<g id="Node000005" class="node">
<title>Node5</title>
<g id="a_Node000005"><a xlink:href="namespaceULang.html#a547bfd2943b2be11c7018ea6c5a8060e" target="_top" xlink:title=" ">
<polygon fill="white" stroke="#666666" points="700,-56 581,-56 581,-37 700,-37 700,-56"/>
<text text-anchor="middle" x="640.5" y="-44" font-family="Helvetica,sans-Serif" font-size="10.00">ULang::parsePrimary</text>
</a>
</g>
</g>
<!-- Node4&#45;&gt;Node5 -->
<g id="edge4_Node000004_Node000005" class="edge">
<title>Node4&#45;&gt;Node5</title>
<g id="a_edge4_Node000004_Node000005"><a xlink:title=" ">
<path fill="none" stroke="#63b8ff" d="M545.21,-46.5C553.62,-46.5 562.24,-46.5 570.69,-46.5"/>
<polygon fill="#63b8ff" stroke="#63b8ff" points="570.89,-50 580.89,-46.5 570.89,-43 570.89,-50"/>
</a>
</g>
</g>
<!-- Node7 -->
<g id="Node000007" class="node">
<title>Node7</title>
<g id="a_Node000007"><a xlink:href="namespaceULang.html#a2437ad588ffb8270e6c3c174357638f2" target="_top" xlink:title=" ">
<polygon fill="white" stroke="#666666" points="375,-19 240,-19 240,0 375,0 375,-19"/>
<text text-anchor="middle" x="307.5" y="-7" font-family="Helvetica,sans-Serif" font-size="10.00">ULang::resolveDataType</text>
</a>
</g>
</g>
<!-- Node6&#45;&gt;Node7 -->
<g id="edge6_Node000006_Node000007" class="edge">
<title>Node6&#45;&gt;Node7</title>
<g id="a_edge6_Node000006_Node000007"><a xlink:title=" ">
<path fill="none" stroke="#63b8ff" d="M204.35,-9.5C212.73,-9.5 221.39,-9.5 229.97,-9.5"/>
<polygon fill="#63b8ff" stroke="#63b8ff" points="229.98,-13 239.98,-9.5 229.98,-6 229.98,-13"/>
</a>
</g>
</g>
</g>
</svg>
