<?xml version="1.0" encoding="UTF-8" standalone="no"?>
<!DOCTYPE svg PUBLIC "-//W3C//DTD SVG 1.1//EN"
 "http://www.w3.org/Graphics/SVG/1.1/DTD/svg11.dtd">
<!-- Generated by graphviz version 2.43.0 (0)
 -->
<!-- Title: main Pages: 1 -->
<svg width="634pt" height="131pt"
 viewBox="0.00 0.00 634.00 131.00" xmlns="http://www.w3.org/2000/svg" xmlns:xlink="http://www.w3.org/1999/xlink">
<g id="graph0" class="graph" transform="scale(1 1) rotate(0) translate(4 127)">
<title>main</title>
<!-- Node1 -->
<g id="Node000001" class="node">
<title>Node1</title>
<g id="a_Node000001"><a xlink:title=" ">
<polygon fill="#999999" stroke="#666666" points="41,-40 0,-40 0,-21 41,-21 41,-40"/>
<text text-anchor="middle" x="20.5" y="-28" font-family="Helvetica,sans-Serif" font-size="10.00">main</text>
</a>
</g>
</g>
<!-- Node2 -->
<g id="Node000002" class="node">
<title>Node2</title>
<g id="a_Node000002"><a xlink:href="classULang_1_1CompilerInstance.html#a421fd0510115d58a186435486b9fa7aa" target="_top" xlink:title="does the compilation">
<polygon fill="white" stroke="#666666" points="216,-67.5 77,-67.5 77,-37.5 216,-37.5 216,-67.5"/>
<text text-anchor="start" x="85" y="-55.5" font-family="Helvetica,sans-Serif" font-size="10.00">ULang::CompilerInstance</text>
<text text-anchor="middle" x="146.5" y="-44.5" font-family="Helvetica,sans-Serif" font-size="10.00">::compile</text>
</a>
</g>
</g>
<!-- Node1&#45;&gt;Node2 -->
<g id="edge1_Node000001_Node000002" class="edge">
<title>Node1&#45;&gt;Node2</title>
<g id="a_edge1_Node000001_Node000002"><a xlink:title=" ">
<path fill="none" stroke="#63b8ff" d="M41.15,-33.99C48.5,-35.29 57.37,-36.86 66.79,-38.54"/>
<polygon fill="#63b8ff" stroke="#63b8ff" points="66.32,-42.01 76.78,-40.31 67.54,-35.11 66.32,-42.01"/>
</a>
</g>
</g>
<!-- Node7 -->
<g id="Node000007" class="node">
<title>Node7</title>
<g id="a_Node000007"><a xlink:href="classULang_1_1Lexer.html#ae872eb2e23ddedc140f49db092b9462b" target="_top" xlink:title="converts source code to tokens">
<polygon fill="white" stroke="#666666" points="417,-19 290,-19 290,0 417,0 417,-19"/>
<text text-anchor="middle" x="353.5" y="-7" font-family="Helvetica,sans-Serif" font-size="10.00">ULang::Lexer::tokenize</text>
</a>
</g>
</g>
<!-- Node1&#45;&gt;Node7 -->
<g id="edge8_Node000001_Node000007" class="edge">
<title>Node1&#45;&gt;Node7</title>
<g id="a_edge8_Node000001_Node000007"><a xlink:title=" ">
<path fill="none" stroke="#63b8ff" d="M41.21,-29.25C87.1,-26.34 202.97,-18.99 279.66,-14.12"/>
<polygon fill="#63b8ff" stroke="#63b8ff" points="279.99,-17.61 289.75,-13.48 279.54,-10.62 279.99,-17.61"/>
</a>
</g>
</g>
<!-- Node3 -->
<g id="Node000003" class="node">
<title>Node3</title>
<g id="a_Node000003"><a xlink:href="classULang_1_1CompilerSyntaxException.html#a39539114f05c2d71321e5eb748da29f6" target="_top" xlink:title="formatted compiler exception output (human readable)">
<polygon fill="white" stroke="#666666" points="455,-105 252,-105 252,-86 455,-86 455,-105"/>
<text text-anchor="middle" x="353.5" y="-93" font-family="Helvetica,sans-Serif" font-size="10.00">ULang::CompilerSyntaxException::fmt</text>
</a>
</g>
</g>
<!-- Node2&#45;&gt;Node3 -->
<g id="edge2_Node000002_Node000003" class="edge">
<title>Node2&#45;&gt;Node3</title>
<g id="a_edge2_Node000002_Node000003"><a xlink:title=" ">
<path fill="none" stroke="#63b8ff" d="M211.24,-67.55C224.68,-70.61 238.79,-73.74 252,-76.5 264.27,-79.07 277.42,-81.67 290.03,-84.08"/>
<polygon fill="#63b8ff" stroke="#63b8ff" points="289.53,-87.55 300,-85.97 290.83,-80.67 289.53,-87.55"/>
</a>
</g>
</g>
<!-- Node6 -->
<g id="Node000006" class="node">
<title>Node6</title>
<g id="a_Node000006"><a xlink:href="classULang_1_1CompilerSyntaxException.html#a39818372c08ca906d4b50a91012801c6" target="_top" xlink:title=" ">
<polygon fill="white" stroke="#666666" points="443,-67.5 264,-67.5 264,-37.5 443,-37.5 443,-67.5"/>
<text text-anchor="start" x="272" y="-55.5" font-family="Helvetica,sans-Serif" font-size="10.00">ULang::CompilerSyntaxException</text>
<text text-anchor="middle" x="353.5" y="-44.5" font-family="Helvetica,sans-Serif" font-size="10.00">::getSeverity</text>
</a>
</g>
</g>
<!-- Node2&#45;&gt;Node6 -->
<g id="edge5_Node000002_Node000006" class="edge">
<title>Node2&#45;&gt;Node6</title>
<g id="a_edge5_Node000002_Node000006"><a xlink:title=" ">
<path fill="none" stroke="#63b8ff" d="M216.05,-52.5C228.17,-52.5 241.01,-52.5 253.77,-52.5"/>
<polygon fill="#63b8ff" stroke="#63b8ff" points="253.97,-56 263.97,-52.5 253.97,-49 253.97,-56"/>
</a>
</g>
</g>
<!-- Node2&#45;&gt;Node7 -->
<g id="edge6_Node000002_Node000007" class="edge">
<title>Node2&#45;&gt;Node7</title>
<g id="a_edge6_Node000002_Node000007"><a xlink:title=" ">
<path fill="none" stroke="#63b8ff" d="M211.24,-37.45C224.68,-34.39 238.79,-31.26 252,-28.5 264.27,-25.93 277.42,-23.33 290.03,-20.92"/>
<polygon fill="#63b8ff" stroke="#63b8ff" points="290.83,-24.33 300,-19.03 289.53,-17.45 290.83,-24.33"/>
</a>
</g>
</g>
<!-- Node4 -->
<g id="Node000004" class="node">
<title>Node4</title>
<g id="a_Node000004"><a xlink:href="namespaceULang.html#a991893b6b9fc7f5f594ad4375bfbe05c" target="_top" xlink:title=" ">
<polygon fill="white" stroke="#666666" points="623.5,-123 493.5,-123 493.5,-104 623.5,-104 623.5,-123"/>
<text text-anchor="middle" x="558.5" y="-111" font-family="Helvetica,sans-Serif" font-size="10.00">ULang::h_severityColor</text>
</a>
</g>
</g>
<!-- Node3&#45;&gt;Node4 -->
<g id="edge3_Node000003_Node000004" class="edge">
<title>Node3&#45;&gt;Node4</title>
<g id="a_edge3_Node000003_Node000004"><a xlink:title=" ">
<path fill="none" stroke="#63b8ff" d="M455.11,-104.42C464.6,-105.26 474.1,-106.1 483.28,-106.92"/>
<polygon fill="#63b8ff" stroke="#63b8ff" points="483.21,-110.43 493.48,-107.82 483.83,-103.45 483.21,-110.43"/>
</a>
</g>
</g>
<!-- Node5 -->
<g id="Node000005" class="node">
<title>Node5</title>
<g id="a_Node000005"><a xlink:href="namespaceULang.html#aa872add6618cd1839d302348efd6020b" target="_top" xlink:title=" ">
<polygon fill="white" stroke="#666666" points="617.5,-86 499.5,-86 499.5,-67 617.5,-67 617.5,-86"/>
<text text-anchor="middle" x="558.5" y="-74" font-family="Helvetica,sans-Serif" font-size="10.00">ULang::h_severityStr</text>
</a>
</g>
</g>
<!-- Node3&#45;&gt;Node5 -->
<g id="edge4_Node000003_Node000005" class="edge">
<title>Node3&#45;&gt;Node5</title>
<g id="a_edge4_Node000003_Node000005"><a xlink:title=" ">
<path fill="none" stroke="#63b8ff" d="M455.11,-86.08C466.59,-85.01 478.09,-83.93 489.02,-82.91"/>
<polygon fill="#63b8ff" stroke="#63b8ff" points="489.67,-86.36 499.3,-81.95 489.02,-79.39 489.67,-86.36"/>
</a>
</g>
</g>
<!-- Node8 -->
<g id="Node000008" class="node">
<title>Node8</title>
<g id="a_Node000008"><a xlink:href="namespaceULang.html#a2437ad588ffb8270e6c3c174357638f2" target="_top" xlink:title=" ">
<polygon fill="white" stroke="#666666" points="626,-19 491,-19 491,0 626,0 626,-19"/>
<text text-anchor="middle" x="558.5" y="-7" font-family="Helvetica,sans-Serif" font-size="10.00">ULang::resolveDataType</text>
</a>
</g>
</g>
<!-- Node7&#45;&gt;Node8 -->
<g id="edge7_Node000007_Node000008" class="edge">
<title>Node7&#45;&gt;Node8</title>
<g id="a_edge7_Node000007_Node000008"><a xlink:title=" ">
<path fill="none" stroke="#63b8ff" d="M417.06,-9.5C437.19,-9.5 459.72,-9.5 480.74,-9.5"/>
<polygon fill="#63b8ff" stroke="#63b8ff" points="480.92,-13 490.92,-9.5 480.92,-6 480.92,-13"/>
</a>
</g>
</g>
</g>
</svg>
