<?xml version="1.0" encoding="UTF-8" standalone="no"?>
<!DOCTYPE svg PUBLIC "-//W3C//DTD SVG 1.1//EN"
 "http://www.w3.org/Graphics/SVG/1.1/DTD/svg11.dtd">
<!-- Generated by graphviz version 2.43.0 (0)
 -->
<!-- Title: ULang::resolveDataType Pages: 1 -->
<svg width="558pt" height="55pt"
 viewBox="0.00 0.00 558.00 54.50" xmlns="http://www.w3.org/2000/svg" xmlns:xlink="http://www.w3.org/1999/xlink">
<g id="graph0" class="graph" transform="scale(1 1) rotate(0) translate(4 50.5)">
<title>ULang::resolveDataType</title>
<!-- Node1 -->
<g id="Node000001" class="node">
<title>Node1</title>
<g id="a_Node000001"><a xlink:title=" ">
<polygon fill="#999999" stroke="#666666" points="550,-19 415,-19 415,0 550,0 550,-19"/>
<text text-anchor="middle" x="482.5" y="-7" font-family="Helvetica,sans-Serif" font-size="10.00">ULang::resolveDataType</text>
</a>
</g>
</g>
<!-- Node2 -->
<g id="Node000002" class="node">
<title>Node2</title>
<g id="a_Node000002"><a xlink:href="classULang_1_1Lexer.html#ae872eb2e23ddedc140f49db092b9462b" target="_top" xlink:title="converts source code to tokens">
<polygon fill="white" stroke="#666666" points="379,-19 252,-19 252,0 379,0 379,-19"/>
<text text-anchor="middle" x="315.5" y="-7" font-family="Helvetica,sans-Serif" font-size="10.00">ULang::Lexer::tokenize</text>
</a>
</g>
</g>
<!-- Node1&#45;&gt;Node2 -->
<g id="edge1_Node000001_Node000002" class="edge">
<title>Node1&#45;&gt;Node2</title>
<g id="a_edge1_Node000001_Node000002"><a xlink:title=" ">
<path fill="none" stroke="#63b8ff" d="M404.82,-9.5C396.21,-9.5 387.51,-9.5 379.11,-9.5"/>
<polygon fill="#63b8ff" stroke="#63b8ff" points="404.86,-13 414.86,-9.5 404.86,-6 404.86,-13"/>
</a>
</g>
</g>
<!-- Node3 -->
<g id="Node000003" class="node">
<title>Node3</title>
<g id="a_Node000003"><a xlink:href="classULang_1_1CompilerInstance.html#a421fd0510115d58a186435486b9fa7aa" target="_top" xlink:title="does the compilation">
<polygon fill="white" stroke="#666666" points="216,-46.5 77,-46.5 77,-16.5 216,-16.5 216,-46.5"/>
<text text-anchor="start" x="85" y="-34.5" font-family="Helvetica,sans-Serif" font-size="10.00">ULang::CompilerInstance</text>
<text text-anchor="middle" x="146.5" y="-23.5" font-family="Helvetica,sans-Serif" font-size="10.00">::compile</text>
</a>
</g>
</g>
<!-- Node2&#45;&gt;Node3 -->
<g id="edge2_Node000002_Node000003" class="edge">
<title>Node2&#45;&gt;Node3</title>
<g id="a_edge2_Node000002_Node000003"><a xlink:title=" ">
<path fill="none" stroke="#63b8ff" d="M241.89,-19.07C233.33,-20.19 224.61,-21.34 216.11,-22.46"/>
<polygon fill="#63b8ff" stroke="#63b8ff" points="242.38,-22.53 251.84,-17.75 241.47,-15.59 242.38,-22.53"/>
</a>
</g>
</g>
<!-- Node4 -->
<g id="Node000004" class="node">
<title>Node4</title>
<g id="a_Node000004"><a xlink:href="main_8cpp.html#a3c04138a5bfe5d72780bb7e82a18e627" target="_top" xlink:title=" ">
<polygon fill="white" stroke="#666666" points="41,-19 0,-19 0,0 41,0 41,-19"/>
<text text-anchor="middle" x="20.5" y="-7" font-family="Helvetica,sans-Serif" font-size="10.00">main</text>
</a>
</g>
</g>
<!-- Node2&#45;&gt;Node4 -->
<g id="edge4_Node000002_Node000004" class="edge">
<title>Node2&#45;&gt;Node4</title>
<g id="a_edge4_Node000002_Node000004"><a xlink:title=" ">
<path fill="none" stroke="#63b8ff" d="M241.82,-7.86C233.12,-7.71 224.36,-7.58 216,-7.5 154.23,-6.87 138.77,-6.39 77,-7.5 65.05,-7.72 51.65,-8.19 41.02,-8.62"/>
<polygon fill="#63b8ff" stroke="#63b8ff" points="241.91,-11.36 251.97,-8.04 242.04,-4.36 241.91,-11.36"/>
</a>
</g>
</g>
<!-- Node3&#45;&gt;Node4 -->
<g id="edge3_Node000003_Node000004" class="edge">
<title>Node3&#45;&gt;Node4</title>
<g id="a_edge3_Node000003_Node000004"><a xlink:title=" ">
<path fill="none" stroke="#63b8ff" d="M66.95,-17.56C57.49,-15.89 48.59,-14.31 41.21,-13"/>
<polygon fill="#63b8ff" stroke="#63b8ff" points="66.51,-21.04 76.97,-19.34 67.74,-14.15 66.51,-21.04"/>
</a>
</g>
</g>
</g>
</svg>
