<?xml version="1.0" encoding="UTF-8" standalone="no"?>
<!DOCTYPE svg PUBLIC "-//W3C//DTD SVG 1.1//EN"
 "http://www.w3.org/Graphics/SVG/1.1/DTD/svg11.dtd">
<!-- Generated by graphviz version 2.43.0 (0)
 -->
<!-- Title: ULang::buildMeta Pages: 1 -->
<svg width="277pt" height="76pt"
 viewBox="0.00 0.00 277.00 75.50" xmlns="http://www.w3.org/2000/svg" xmlns:xlink="http://www.w3.org/1999/xlink">
<g id="graph0" class="graph" transform="scale(1 1) rotate(0) translate(4 71.5)">
<title>ULang::buildMeta</title>
<!-- Node1 -->
<g id="Node000001" class="node">
<title>Node1</title>
<g id="a_Node000001"><a xlink:title=" ">
<polygon fill="#999999" stroke="#666666" points="102,-45.5 0,-45.5 0,-26.5 102,-26.5 102,-45.5"/>
<text text-anchor="middle" x="51" y="-33.5" font-family="Helvetica,sans-Serif" font-size="10.00">ULang::buildMeta</text>
</a>
</g>
</g>
<!-- Node2 -->
<g id="Node000002" class="node">
<title>Node2</title>
<g id="a_Node000002"><a xlink:href="namespaceULang.html#afc471bffb16abe17362183d2a536a9e9" target="_top" xlink:title=" ">
<polygon fill="white" stroke="#666666" points="269,-67.5 138,-67.5 138,-48.5 269,-48.5 269,-67.5"/>
<text text-anchor="middle" x="203.5" y="-55.5" font-family="Helvetica,sans-Serif" font-size="10.00">ULang::addStringToPool</text>
</a>
</g>
</g>
<!-- Node1&#45;&gt;Node2 -->
<g id="edge1_Node000001_Node000002" class="edge">
<title>Node1&#45;&gt;Node2</title>
<g id="a_edge1_Node000001_Node000002"><a xlink:title=" ">
<path fill="none" stroke="#63b8ff" d="M102.11,-43.33C110.35,-44.53 119.04,-45.8 127.72,-47.07"/>
<polygon fill="#63b8ff" stroke="#63b8ff" points="127.48,-50.57 137.88,-48.55 128.49,-43.64 127.48,-50.57"/>
</a>
</g>
</g>
<!-- Node3 -->
<g id="Node000003" class="node">
<title>Node3</title>
<g id="a_Node000003"><a xlink:href="classULang_1_1SymbolTable.html#afccc103d9709d6e3a4beabb5ee291a0e" target="_top" xlink:title=" ">
<polygon fill="white" stroke="#666666" points="261.5,-30 145.5,-30 145.5,0 261.5,0 261.5,-30"/>
<text text-anchor="start" x="153.5" y="-18" font-family="Helvetica,sans-Serif" font-size="10.00">ULang::SymbolTable</text>
<text text-anchor="middle" x="203.5" y="-7" font-family="Helvetica,sans-Serif" font-size="10.00">::getGlobalScope</text>
</a>
</g>
</g>
<!-- Node1&#45;&gt;Node3 -->
<g id="edge2_Node000001_Node000003" class="edge">
<title>Node1&#45;&gt;Node3</title>
<g id="a_edge2_Node000001_Node000003"><a xlink:title=" ">
<path fill="none" stroke="#63b8ff" d="M102.11,-29.01C112.72,-27.53 124.08,-25.94 135.2,-24.39"/>
<polygon fill="#63b8ff" stroke="#63b8ff" points="135.9,-27.83 145.32,-22.98 134.94,-20.89 135.9,-27.83"/>
</a>
</g>
</g>
</g>
</svg>
