<?xml version="1.0" encoding="UTF-8" standalone="no"?>
<!DOCTYPE svg PUBLIC "-//W3C//DTD SVG 1.1//EN"
 "http://www.w3.org/Graphics/SVG/1.1/DTD/svg11.dtd">
<!-- Generated by graphviz version 2.43.0 (0)
 -->
<!-- Title: ULang::parsePrimary Pages: 1 -->
<svg width="660pt" height="27pt"
 viewBox="0.00 0.00 660.00 27.00" xmlns="http://www.w3.org/2000/svg" xmlns:xlink="http://www.w3.org/1999/xlink">
<g id="graph0" class="graph" transform="scale(1 1) rotate(0) translate(4 23)">
<title>ULang::parsePrimary</title>
<!-- Node1 -->
<g id="Node000001" class="node">
<title>Node1</title>
<g id="a_Node000001"><a xlink:title=" ">
<polygon fill="#999999" stroke="#666666" points="652,-19 533,-19 533,0 652,0 652,-19"/>
<text text-anchor="middle" x="592.5" y="-7" font-family="Helvetica,sans-Serif" font-size="10.00">ULang::parsePrimary</text>
</a>
</g>
</g>
<!-- Node2 -->
<g id="Node000002" class="node">
<title>Node2</title>
<g id="a_Node000002"><a xlink:href="namespaceULang.html#a4bc72c6d5fa71c1e6d1f58b6b6c7b939" target="_top" xlink:title=" ">
<polygon fill="white" stroke="#666666" points="497,-19 363,-19 363,0 497,0 497,-19"/>
<text text-anchor="middle" x="430" y="-7" font-family="Helvetica,sans-Serif" font-size="10.00">ULang::parseExpression</text>
</a>
</g>
</g>
<!-- Node1&#45;&gt;Node2 -->
<g id="edge1_Node000001_Node000002" class="edge">
<title>Node1&#45;&gt;Node2</title>
<g id="a_edge1_Node000001_Node000002"><a xlink:title=" ">
<path fill="none" stroke="#63b8ff" d="M522.5,-9.5C514.1,-9.5 505.53,-9.5 497.17,-9.5"/>
<polygon fill="#63b8ff" stroke="#63b8ff" points="522.65,-13 532.65,-9.5 522.65,-6 522.65,-13"/>
</a>
</g>
</g>
<!-- Node3 -->
<g id="Node000003" class="node">
<title>Node3</title>
<g id="a_Node000003"><a xlink:href="namespaceULang.html#a35dd0deee5e026fc04f288a48d2e7776" target="_top" xlink:title=" ">
<polygon fill="white" stroke="#666666" points="327,-19 209,-19 209,0 327,0 327,-19"/>
<text text-anchor="middle" x="268" y="-7" font-family="Helvetica,sans-Serif" font-size="10.00">ULang::parseVarDecl</text>
</a>
</g>
</g>
<!-- Node2&#45;&gt;Node3 -->
<g id="edge2_Node000002_Node000003" class="edge">
<title>Node2&#45;&gt;Node3</title>
<g id="a_edge2_Node000002_Node000003"><a xlink:title=" ">
<path fill="none" stroke="#63b8ff" d="M352.9,-9.5C344.25,-9.5 335.54,-9.5 327.18,-9.5"/>
<polygon fill="#63b8ff" stroke="#63b8ff" points="353,-13 363,-9.5 353,-6 353,-13"/>
</a>
</g>
</g>
<!-- Node4 -->
<g id="Node000004" class="node">
<title>Node4</title>
<g id="a_Node000004"><a xlink:href="namespaceULang.html#a8f59f969ec2996764887ae0230f13155" target="_top" xlink:title=" ">
<polygon fill="white" stroke="#666666" points="173,-19 77,-19 77,0 173,0 173,-19"/>
<text text-anchor="middle" x="125" y="-7" font-family="Helvetica,sans-Serif" font-size="10.00">ULang::buildAST</text>
</a>
</g>
</g>
<!-- Node3&#45;&gt;Node4 -->
<g id="edge3_Node000003_Node000004" class="edge">
<title>Node3&#45;&gt;Node4</title>
<g id="a_edge3_Node000003_Node000004"><a xlink:title=" ">
<path fill="none" stroke="#63b8ff" d="M198.77,-9.5C190.15,-9.5 181.48,-9.5 173.29,-9.5"/>
<polygon fill="#63b8ff" stroke="#63b8ff" points="198.84,-13 208.84,-9.5 198.84,-6 198.84,-13"/>
</a>
</g>
</g>
<!-- Node5 -->
<g id="Node000005" class="node">
<title>Node5</title>
<g id="a_Node000005"><a xlink:href="main_8cpp.html#a3c04138a5bfe5d72780bb7e82a18e627" target="_top" xlink:title=" ">
<polygon fill="white" stroke="#666666" points="41,-19 0,-19 0,0 41,0 41,-19"/>
<text text-anchor="middle" x="20.5" y="-7" font-family="Helvetica,sans-Serif" font-size="10.00">main</text>
</a>
</g>
</g>
<!-- Node4&#45;&gt;Node5 -->
<g id="edge4_Node000004_Node000005" class="edge">
<title>Node4&#45;&gt;Node5</title>
<g id="a_edge4_Node000004_Node000005"><a xlink:title=" ">
<path fill="none" stroke="#63b8ff" d="M66.87,-9.5C57.62,-9.5 48.63,-9.5 41.13,-9.5"/>
<polygon fill="#63b8ff" stroke="#63b8ff" points="66.95,-13 76.95,-9.5 66.95,-6 66.95,-13"/>
</a>
</g>
</g>
</g>
</svg>
