<?xml version="1.0" encoding="UTF-8" standalone="no"?>
<!DOCTYPE svg PUBLIC "-//W3C//DTD SVG 1.1//EN"
 "http://www.w3.org/Graphics/SVG/1.1/DTD/svg11.dtd">
<!-- Generated by graphviz version 2.43.0 (0)
 -->
<!-- Title: ULang::parseInstruction Pages: 1 -->
<svg width="327pt" height="124pt"
 viewBox="0.00 0.00 327.00 123.50" xmlns="http://www.w3.org/2000/svg" xmlns:xlink="http://www.w3.org/1999/xlink">
<g id="graph0" class="graph" transform="scale(1 1) rotate(0) translate(4 119.5)">
<title>ULang::parseInstruction</title>
<!-- Node1 -->
<g id="Node000001" class="node">
<title>Node1</title>
<g id="a_Node000001"><a xlink:title="Parse the instruction.">
<polygon fill="#999999" stroke="#666666" points="132,-72.5 0,-72.5 0,-53.5 132,-53.5 132,-72.5"/>
<text text-anchor="middle" x="66" y="-60.5" font-family="Helvetica,sans-Serif" font-size="10.00">ULang::parseInstruction</text>
</a>
</g>
</g>
<!-- Node2 -->
<g id="Node000002" class="node">
<title>Node2</title>
<g id="a_Node000002"><a xlink:href="structULang_1_1Operand.html#ad9f08fbb35cf1aceba8cc728f62e560b" target="_top" xlink:title="Get the size of operand data.">
<polygon fill="white" stroke="#666666" points="319,-115.5 168,-115.5 168,-96.5 319,-96.5 319,-115.5"/>
<text text-anchor="middle" x="243.5" y="-103.5" font-family="Helvetica,sans-Serif" font-size="10.00">ULang::Operand::getDataSz</text>
</a>
</g>
</g>
<!-- Node1&#45;&gt;Node2 -->
<g id="edge1_Node000001_Node000002" class="edge">
<title>Node1&#45;&gt;Node2</title>
<g id="a_edge1_Node000001_Node000002"><a xlink:title=" ">
<path fill="none" stroke="#63b8ff" d="M105.95,-72.54C131.85,-78.89 166.07,-87.27 193.78,-94.06"/>
<polygon fill="#63b8ff" stroke="#63b8ff" points="193.11,-97.5 203.66,-96.48 194.78,-90.7 193.11,-97.5"/>
</a>
</g>
</g>
<!-- Node3 -->
<g id="Node000003" class="node">
<title>Node3</title>
<g id="a_Node000003"><a xlink:href="classULang_1_1BytecodeStream.html#a02703a840fc7c2a4b63d59ec1191257e" target="_top" xlink:title="Reads a single byte from bytecode stream and prepares for reading another one.">
<polygon fill="white" stroke="#666666" points="310.5,-78 176.5,-78 176.5,-48 310.5,-48 310.5,-78"/>
<text text-anchor="start" x="184.5" y="-66" font-family="Helvetica,sans-Serif" font-size="10.00">ULang::BytecodeStream</text>
<text text-anchor="middle" x="243.5" y="-55" font-family="Helvetica,sans-Serif" font-size="10.00">::readByte</text>
</a>
</g>
</g>
<!-- Node1&#45;&gt;Node3 -->
<g id="edge2_Node000001_Node000003" class="edge">
<title>Node1&#45;&gt;Node3</title>
<g id="a_edge2_Node000001_Node000003"><a xlink:title=" ">
<path fill="none" stroke="#63b8ff" d="M132.35,-63C143.32,-63 154.79,-63 166.01,-63"/>
<polygon fill="#63b8ff" stroke="#63b8ff" points="166.22,-66.5 176.22,-63 166.22,-59.5 166.22,-66.5"/>
</a>
</g>
</g>
<!-- Node4 -->
<g id="Node000004" class="node">
<title>Node4</title>
<g id="a_Node000004"><a xlink:href="classULang_1_1BytecodeStream.html#a211d06d3a5fee3e2d543e414f180862c" target="_top" xlink:title="Reads n bytes from bytecode stream and prepares for reading another ones.">
<polygon fill="white" stroke="#666666" points="310.5,-30 176.5,-30 176.5,0 310.5,0 310.5,-30"/>
<text text-anchor="start" x="184.5" y="-18" font-family="Helvetica,sans-Serif" font-size="10.00">ULang::BytecodeStream</text>
<text text-anchor="middle" x="243.5" y="-7" font-family="Helvetica,sans-Serif" font-size="10.00">::readBytes</text>
</a>
</g>
</g>
<!-- Node1&#45;&gt;Node4 -->
<g id="edge3_Node000001_Node000004" class="edge">
<title>Node1&#45;&gt;Node4</title>
<g id="a_edge3_Node000001_Node000004"><a xlink:title=" ">
<path fill="none" stroke="#63b8ff" d="M102.09,-53.4C123.74,-47.48 152.16,-39.71 177.77,-32.7"/>
<polygon fill="#63b8ff" stroke="#63b8ff" points="178.7,-36.08 187.43,-30.06 176.86,-29.33 178.7,-36.08"/>
</a>
</g>
</g>
</g>
</svg>
