<?xml version="1.0" encoding="UTF-8" standalone="no"?>
<!DOCTYPE svg PUBLIC "-//W3C//DTD SVG 1.1//EN"
 "http://www.w3.org/Graphics/SVG/1.1/DTD/svg11.dtd">
<!-- Generated by graphviz version 2.43.0 (0)
 -->
<!-- Title: ULang::buildAST Pages: 1 -->
<svg width="583pt" height="27pt"
 viewBox="0.00 0.00 583.00 27.00" xmlns="http://www.w3.org/2000/svg" xmlns:xlink="http://www.w3.org/1999/xlink">
<g id="graph0" class="graph" transform="scale(1 1) rotate(0) translate(4 23)">
<title>ULang::buildAST</title>
<!-- Node1 -->
<g id="Node000001" class="node">
<title>Node1</title>
<g id="a_Node000001"><a xlink:title=" ">
<polygon fill="#999999" stroke="#666666" points="96,-19 0,-19 0,0 96,0 96,-19"/>
<text text-anchor="middle" x="48" y="-7" font-family="Helvetica,sans-Serif" font-size="10.00">ULang::buildAST</text>
</a>
</g>
</g>
<!-- Node2 -->
<g id="Node000002" class="node">
<title>Node2</title>
<g id="a_Node000002"><a xlink:href="namespaceULang.html#a35dd0deee5e026fc04f288a48d2e7776" target="_top" xlink:title=" ">
<polygon fill="white" stroke="#666666" points="250,-19 132,-19 132,0 250,0 250,-19"/>
<text text-anchor="middle" x="191" y="-7" font-family="Helvetica,sans-Serif" font-size="10.00">ULang::parseVarDecl</text>
</a>
</g>
</g>
<!-- Node1&#45;&gt;Node2 -->
<g id="edge1_Node000001_Node000002" class="edge">
<title>Node1&#45;&gt;Node2</title>
<g id="a_edge1_Node000001_Node000002"><a xlink:title=" ">
<path fill="none" stroke="#63b8ff" d="M96.34,-9.5C104.51,-9.5 113.14,-9.5 121.73,-9.5"/>
<polygon fill="#63b8ff" stroke="#63b8ff" points="121.76,-13 131.76,-9.5 121.76,-6 121.76,-13"/>
</a>
</g>
</g>
<!-- Node3 -->
<g id="Node000003" class="node">
<title>Node3</title>
<g id="a_Node000003"><a xlink:href="namespaceULang.html#a4bc72c6d5fa71c1e6d1f58b6b6c7b939" target="_top" xlink:title=" ">
<polygon fill="white" stroke="#666666" points="420,-19 286,-19 286,0 420,0 420,-19"/>
<text text-anchor="middle" x="353" y="-7" font-family="Helvetica,sans-Serif" font-size="10.00">ULang::parseExpression</text>
</a>
</g>
</g>
<!-- Node2&#45;&gt;Node3 -->
<g id="edge2_Node000002_Node000003" class="edge">
<title>Node2&#45;&gt;Node3</title>
<g id="a_edge2_Node000002_Node000003"><a xlink:title=" ">
<path fill="none" stroke="#63b8ff" d="M250.22,-9.5C258.57,-9.5 267.26,-9.5 275.89,-9.5"/>
<polygon fill="#63b8ff" stroke="#63b8ff" points="275.97,-13 285.97,-9.5 275.97,-6 275.97,-13"/>
</a>
</g>
</g>
<!-- Node4 -->
<g id="Node000004" class="node">
<title>Node4</title>
<g id="a_Node000004"><a xlink:href="namespaceULang.html#a547bfd2943b2be11c7018ea6c5a8060e" target="_top" xlink:title=" ">
<polygon fill="white" stroke="#666666" points="575,-19 456,-19 456,0 575,0 575,-19"/>
<text text-anchor="middle" x="515.5" y="-7" font-family="Helvetica,sans-Serif" font-size="10.00">ULang::parsePrimary</text>
</a>
</g>
</g>
<!-- Node3&#45;&gt;Node4 -->
<g id="edge3_Node000003_Node000004" class="edge">
<title>Node3&#45;&gt;Node4</title>
<g id="a_edge3_Node000003_Node000004"><a xlink:title=" ">
<path fill="none" stroke="#63b8ff" d="M420.21,-9.5C428.62,-9.5 437.24,-9.5 445.69,-9.5"/>
<polygon fill="#63b8ff" stroke="#63b8ff" points="445.89,-13 455.89,-9.5 445.89,-6 445.89,-13"/>
</a>
</g>
</g>
</g>
</svg>
