<?xml version="1.0" encoding="UTF-8" standalone="no"?>
<!DOCTYPE svg PUBLIC "-//W3C//DTD SVG 1.1//EN"
 "http://www.w3.org/Graphics/SVG/1.1/DTD/svg11.dtd">
<!-- Generated by graphviz version 2.43.0 (0)
 -->
<!-- Title: ULang::parseInstruction Pages: 1 -->
<svg width="310pt" height="86pt"
 viewBox="0.00 0.00 310.00 86.00" xmlns="http://www.w3.org/2000/svg" xmlns:xlink="http://www.w3.org/1999/xlink">
<g id="graph0" class="graph" transform="scale(1 1) rotate(0) translate(4 82)">
<title>ULang::parseInstruction</title>
<!-- Node1 -->
<g id="Node000001" class="node">
<title>Node1</title>
<g id="a_Node000001"><a xlink:title="Parse the instruction.">
<polygon fill="#999999" stroke="#666666" points="132,-48.5 0,-48.5 0,-29.5 132,-29.5 132,-48.5"/>
<text text-anchor="middle" x="66" y="-36.5" font-family="Helvetica,sans-Serif" font-size="10.00">ULang::parseInstruction</text>
</a>
</g>
</g>
<!-- Node2 -->
<g id="Node000002" class="node">
<title>Node2</title>
<g id="a_Node000002"><a xlink:href="classULang_1_1BytecodeStream.html#a02703a840fc7c2a4b63d59ec1191257e" target="_top" xlink:title="Reads a single byte from bytecode stream and prepares for reading another one.">
<polygon fill="white" stroke="#666666" points="302,-78 168,-78 168,-48 302,-48 302,-78"/>
<text text-anchor="start" x="176" y="-66" font-family="Helvetica,sans-Serif" font-size="10.00">ULang::BytecodeStream</text>
<text text-anchor="middle" x="235" y="-55" font-family="Helvetica,sans-Serif" font-size="10.00">::readByte</text>
</a>
</g>
</g>
<!-- Node1&#45;&gt;Node2 -->
<g id="edge1_Node000001_Node000002" class="edge">
<title>Node1&#45;&gt;Node2</title>
<g id="a_edge1_Node000001_Node000002"><a xlink:title=" ">
<path fill="none" stroke="#63b8ff" d="M132.04,-48.35C140.47,-49.56 149.16,-50.81 157.75,-52.04"/>
<polygon fill="#63b8ff" stroke="#63b8ff" points="157.36,-55.52 167.76,-53.48 158.36,-48.59 157.36,-55.52"/>
</a>
</g>
</g>
<!-- Node3 -->
<g id="Node000003" class="node">
<title>Node3</title>
<g id="a_Node000003"><a xlink:href="classULang_1_1BytecodeStream.html#a211d06d3a5fee3e2d543e414f180862c" target="_top" xlink:title="Reads n bytes from bytecode stream and prepares for reading another ones.">
<polygon fill="white" stroke="#666666" points="302,-30 168,-30 168,0 302,0 302,-30"/>
<text text-anchor="start" x="176" y="-18" font-family="Helvetica,sans-Serif" font-size="10.00">ULang::BytecodeStream</text>
<text text-anchor="middle" x="235" y="-7" font-family="Helvetica,sans-Serif" font-size="10.00">::readBytes</text>
</a>
</g>
</g>
<!-- Node1&#45;&gt;Node3 -->
<g id="edge2_Node000001_Node000003" class="edge">
<title>Node1&#45;&gt;Node3</title>
<g id="a_edge2_Node000001_Node000003"><a xlink:title=" ">
<path fill="none" stroke="#63b8ff" d="M132.04,-29.65C140.47,-28.44 149.16,-27.19 157.75,-25.96"/>
<polygon fill="#63b8ff" stroke="#63b8ff" points="158.36,-29.41 167.76,-24.52 157.36,-22.48 158.36,-29.41"/>
</a>
</g>
</g>
</g>
</svg>
