<?xml version="1.0" encoding="UTF-8" standalone="no"?>
<!DOCTYPE svg PUBLIC "-//W3C//DTD SVG 1.1//EN"
 "http://www.w3.org/Graphics/SVG/1.1/DTD/svg11.dtd">
<!-- Generated by graphviz version 2.43.0 (0)
 -->
<!-- Title: ULang::parsePrimary Pages: 1 -->
<svg width="451pt" height="27pt"
 viewBox="0.00 0.00 451.00 27.00" xmlns="http://www.w3.org/2000/svg" xmlns:xlink="http://www.w3.org/1999/xlink">
<g id="graph0" class="graph" transform="scale(1 1) rotate(0) translate(4 23)">
<title>ULang::parsePrimary</title>
<!-- Node1 -->
<g id="Node000001" class="node">
<title>Node1</title>
<g id="a_Node000001"><a xlink:title=" ">
<polygon fill="#999999" stroke="#666666" points="443,-19 324,-19 324,0 443,0 443,-19"/>
<text text-anchor="middle" x="383.5" y="-7" font-family="Helvetica,sans-Serif" font-size="10.00">ULang::parsePrimary</text>
</a>
</g>
</g>
<!-- Node2 -->
<g id="Node000002" class="node">
<title>Node2</title>
<g id="a_Node000002"><a xlink:href="namespaceULang.html#a4bc72c6d5fa71c1e6d1f58b6b6c7b939" target="_top" xlink:title=" ">
<polygon fill="white" stroke="#666666" points="288,-19 154,-19 154,0 288,0 288,-19"/>
<text text-anchor="middle" x="221" y="-7" font-family="Helvetica,sans-Serif" font-size="10.00">ULang::parseExpression</text>
</a>
</g>
</g>
<!-- Node1&#45;&gt;Node2 -->
<g id="edge1_Node000001_Node000002" class="edge">
<title>Node1&#45;&gt;Node2</title>
<g id="a_edge1_Node000001_Node000002"><a xlink:title=" ">
<path fill="none" stroke="#63b8ff" d="M313.5,-9.5C305.1,-9.5 296.53,-9.5 288.17,-9.5"/>
<polygon fill="#63b8ff" stroke="#63b8ff" points="313.65,-13 323.65,-9.5 313.65,-6 313.65,-13"/>
</a>
</g>
</g>
<!-- Node3 -->
<g id="Node000003" class="node">
<title>Node3</title>
<g id="a_Node000003"><a xlink:href="namespaceULang.html#aa418dc07b5d89ea88494aa021fa1380f" target="_top" xlink:title=" ">
<polygon fill="white" stroke="#666666" points="118,-19 0,-19 0,0 118,0 118,-19"/>
<text text-anchor="middle" x="59" y="-7" font-family="Helvetica,sans-Serif" font-size="10.00">ULang::parseVarDecl</text>
</a>
</g>
</g>
<!-- Node2&#45;&gt;Node3 -->
<g id="edge2_Node000002_Node000003" class="edge">
<title>Node2&#45;&gt;Node3</title>
<g id="a_edge2_Node000002_Node000003"><a xlink:title=" ">
<path fill="none" stroke="#63b8ff" d="M143.9,-9.5C135.25,-9.5 126.54,-9.5 118.18,-9.5"/>
<polygon fill="#63b8ff" stroke="#63b8ff" points="144,-13 154,-9.5 144,-6 144,-13"/>
</a>
</g>
</g>
</g>
</svg>
