<?xml version="1.0" encoding="UTF-8" standalone="no"?>
<!DOCTYPE svg PUBLIC "-//W3C//DTD SVG 1.1//EN"
 "http://www.w3.org/Graphics/SVG/1.1/DTD/svg11.dtd">
<!-- Generated by graphviz version 2.43.0 (0)
 -->
<!-- Title: ULang::isBuiltin Pages: 1 -->
<svg width="588pt" height="86pt"
 viewBox="0.00 0.00 588.00 86.00" xmlns="http://www.w3.org/2000/svg" xmlns:xlink="http://www.w3.org/1999/xlink">
<g id="graph0" class="graph" transform="scale(1 1) rotate(0) translate(4 82)">
<title>ULang::isBuiltin</title>
<!-- Node1 -->
<g id="Node000001" class="node">
<title>Node1</title>
<g id="a_Node000001"><a xlink:title=" ">
<polygon fill="#999999" stroke="#666666" points="580,-47.5 487,-47.5 487,-28.5 580,-28.5 580,-47.5"/>
<text text-anchor="middle" x="533.5" y="-35.5" font-family="Helvetica,sans-Serif" font-size="10.00">ULang::isBuiltin</text>
</a>
</g>
</g>
<!-- Node2 -->
<g id="Node000002" class="node">
<title>Node2</title>
<g id="a_Node000002"><a xlink:href="classULang_1_1CompilerInstance.html#aaa8966815572b7ad7d45b07fd712d062" target="_top" xlink:title="Check if declaring symbol redeclares builtin symbol, throw exception if so.">
<polygon fill="white" stroke="#666666" points="451,-53 312,-53 312,-23 451,-23 451,-53"/>
<text text-anchor="start" x="320" y="-41" font-family="Helvetica,sans-Serif" font-size="10.00">ULang::CompilerInstance</text>
<text text-anchor="middle" x="381.5" y="-30" font-family="Helvetica,sans-Serif" font-size="10.00">::checkBuiltinRedecl</text>
</a>
</g>
</g>
<!-- Node1&#45;&gt;Node2 -->
<g id="edge1_Node000001_Node000002" class="edge">
<title>Node1&#45;&gt;Node2</title>
<g id="a_edge1_Node000001_Node000002"><a xlink:title=" ">
<path fill="none" stroke="#63b8ff" d="M476.47,-38C468.24,-38 459.68,-38 451.24,-38"/>
<polygon fill="#63b8ff" stroke="#63b8ff" points="476.68,-41.5 486.68,-38 476.68,-34.5 476.68,-41.5"/>
</a>
</g>
</g>
<!-- Node3 -->
<g id="Node000003" class="node">
<title>Node3</title>
<g id="a_Node000003"><a xlink:href="structULang_1_1Scope.html#ad041b2f9f91de453cfc34f1ff1192744" target="_top" xlink:title="Declares a symbol in current scope.">
<polygon fill="white" stroke="#666666" points="268.5,-69.5 159.5,-69.5 159.5,-50.5 268.5,-50.5 268.5,-69.5"/>
<text text-anchor="middle" x="214" y="-57.5" font-family="Helvetica,sans-Serif" font-size="10.00">ULang::Scope::decl</text>
</a>
</g>
</g>
<!-- Node2&#45;&gt;Node3 -->
<g id="edge2_Node000002_Node000003" class="edge">
<title>Node2&#45;&gt;Node3</title>
<g id="a_edge2_Node000002_Node000003"><a xlink:title=" ">
<path fill="none" stroke="#63b8ff" d="M301.56,-48.49C290.41,-49.98 279.17,-51.47 268.65,-52.87"/>
<polygon fill="#63b8ff" stroke="#63b8ff" points="302.3,-51.93 311.75,-47.14 301.38,-44.99 302.3,-51.93"/>
</a>
</g>
</g>
<!-- Node5 -->
<g id="Node000005" class="node">
<title>Node5</title>
<g id="a_Node000005"><a xlink:href="structULang_1_1Scope.html#aa61f3baec1d9f9c74f342cb6e34d0f22" target="_top" xlink:title="Declares a function symbol in current scope.">
<polygon fill="white" stroke="#666666" points="276,-29.5 152,-29.5 152,-10.5 276,-10.5 276,-29.5"/>
<text text-anchor="middle" x="214" y="-17.5" font-family="Helvetica,sans-Serif" font-size="10.00">ULang::Scope::decl_fn</text>
</a>
</g>
</g>
<!-- Node2&#45;&gt;Node5 -->
<g id="edge4_Node000002_Node000005" class="edge">
<title>Node2&#45;&gt;Node5</title>
<g id="a_edge4_Node000002_Node000005"><a xlink:title=" ">
<path fill="none" stroke="#63b8ff" d="M301.71,-29.43C293.12,-28.5 284.47,-27.56 276.14,-26.65"/>
<polygon fill="#63b8ff" stroke="#63b8ff" points="301.43,-32.92 311.75,-30.52 302.19,-25.96 301.43,-32.92"/>
</a>
</g>
</g>
<!-- Node4 -->
<g id="Node000004" class="node">
<title>Node4</title>
<g id="a_Node000004"><a xlink:href="classULang_1_1SymbolTable.html#a97ea7bc61ceb17207ac67415f6982803" target="_top" xlink:title="Declares a symbol in current scope.">
<polygon fill="white" stroke="#666666" points="116,-78 0,-78 0,-48 116,-48 116,-78"/>
<text text-anchor="start" x="8" y="-66" font-family="Helvetica,sans-Serif" font-size="10.00">ULang::SymbolTable</text>
<text text-anchor="middle" x="58" y="-55" font-family="Helvetica,sans-Serif" font-size="10.00">::decl</text>
</a>
</g>
</g>
<!-- Node3&#45;&gt;Node4 -->
<g id="edge3_Node000003_Node000004" class="edge">
<title>Node3&#45;&gt;Node4</title>
<g id="a_edge3_Node000003_Node000004"><a xlink:title=" ">
<path fill="none" stroke="#63b8ff" d="M148.89,-61.25C138.06,-61.46 126.88,-61.68 116.23,-61.89"/>
<polygon fill="#63b8ff" stroke="#63b8ff" points="149.21,-64.74 159.14,-61.05 149.07,-57.74 149.21,-64.74"/>
</a>
</g>
</g>
<!-- Node6 -->
<g id="Node000006" class="node">
<title>Node6</title>
<g id="a_Node000006"><a xlink:href="classULang_1_1SymbolTable.html#a6f137f4772f459991b6aebf60cd0b897" target="_top" xlink:title="Declares a function symbol in current scope.">
<polygon fill="white" stroke="#666666" points="116,-30 0,-30 0,0 116,0 116,-30"/>
<text text-anchor="start" x="8" y="-18" font-family="Helvetica,sans-Serif" font-size="10.00">ULang::SymbolTable</text>
<text text-anchor="middle" x="58" y="-7" font-family="Helvetica,sans-Serif" font-size="10.00">::decl_fn</text>
</a>
</g>
</g>
<!-- Node5&#45;&gt;Node6 -->
<g id="edge5_Node000005_Node000006" class="edge">
<title>Node5&#45;&gt;Node6</title>
<g id="a_edge5_Node000005_Node000006"><a xlink:title=" ">
<path fill="none" stroke="#63b8ff" d="M141.69,-17.68C133.11,-17.41 124.43,-17.12 116.09,-16.85"/>
<polygon fill="#63b8ff" stroke="#63b8ff" points="141.58,-21.18 151.69,-18.01 141.81,-14.19 141.58,-21.18"/>
</a>
</g>
</g>
</g>
</svg>
