<?xml version="1.0" encoding="UTF-8" standalone="no"?>
<!DOCTYPE svg PUBLIC "-//W3C//DTD SVG 1.1//EN"
 "http://www.w3.org/Graphics/SVG/1.1/DTD/svg11.dtd">
<!-- Generated by graphviz version 2.43.0 (0)
 -->
<!-- Title: ULang::h_severityColor Pages: 1 -->
<svg width="629pt" height="38pt"
 viewBox="0.00 0.00 629.00 38.00" xmlns="http://www.w3.org/2000/svg" xmlns:xlink="http://www.w3.org/1999/xlink">
<g id="graph0" class="graph" transform="scale(1 1) rotate(0) translate(4 34)">
<title>ULang::h_severityColor</title>
<!-- Node1 -->
<g id="Node000001" class="node">
<title>Node1</title>
<g id="a_Node000001"><a xlink:title=" ">
<polygon fill="#999999" stroke="#666666" points="621,-24.5 491,-24.5 491,-5.5 621,-5.5 621,-24.5"/>
<text text-anchor="middle" x="556" y="-12.5" font-family="Helvetica,sans-Serif" font-size="10.00">ULang::h_severityColor</text>
</a>
</g>
</g>
<!-- Node2 -->
<g id="Node000002" class="node">
<title>Node2</title>
<g id="a_Node000002"><a xlink:href="classULang_1_1CompilerSyntaxException.html#a39539114f05c2d71321e5eb748da29f6" target="_top" xlink:title="formatted compiler exception output (human readable)">
<polygon fill="white" stroke="#666666" points="455,-24.5 252,-24.5 252,-5.5 455,-5.5 455,-24.5"/>
<text text-anchor="middle" x="353.5" y="-12.5" font-family="Helvetica,sans-Serif" font-size="10.00">ULang::CompilerSyntaxException::fmt</text>
</a>
</g>
</g>
<!-- Node1&#45;&gt;Node2 -->
<g id="edge1_Node000001_Node000002" class="edge">
<title>Node1&#45;&gt;Node2</title>
<g id="a_edge1_Node000001_Node000002"><a xlink:title=" ">
<path fill="none" stroke="#63b8ff" d="M480.46,-15C472.24,-15 463.77,-15 455.29,-15"/>
<polygon fill="#63b8ff" stroke="#63b8ff" points="480.73,-18.5 490.73,-15 480.73,-11.5 480.73,-18.5"/>
</a>
</g>
</g>
<!-- Node3 -->
<g id="Node000003" class="node">
<title>Node3</title>
<g id="a_Node000003"><a xlink:href="classULang_1_1CompilerInstance.html#a421fd0510115d58a186435486b9fa7aa" target="_top" xlink:title="does the compilation">
<polygon fill="white" stroke="#666666" points="216,-30 77,-30 77,0 216,0 216,-30"/>
<text text-anchor="start" x="85" y="-18" font-family="Helvetica,sans-Serif" font-size="10.00">ULang::CompilerInstance</text>
<text text-anchor="middle" x="146.5" y="-7" font-family="Helvetica,sans-Serif" font-size="10.00">::compile</text>
</a>
</g>
</g>
<!-- Node2&#45;&gt;Node3 -->
<g id="edge2_Node000002_Node000003" class="edge">
<title>Node2&#45;&gt;Node3</title>
<g id="a_edge2_Node000002_Node000003"><a xlink:title=" ">
<path fill="none" stroke="#63b8ff" d="M241.64,-15C233.01,-15 224.45,-15 216.22,-15"/>
<polygon fill="#63b8ff" stroke="#63b8ff" points="241.8,-18.5 251.8,-15 241.8,-11.5 241.8,-18.5"/>
</a>
</g>
</g>
<!-- Node4 -->
<g id="Node000004" class="node">
<title>Node4</title>
<g id="a_Node000004"><a xlink:href="compiler_2main_8cpp.html#a3c04138a5bfe5d72780bb7e82a18e627" target="_top" xlink:title=" ">
<polygon fill="white" stroke="#666666" points="41,-24.5 0,-24.5 0,-5.5 41,-5.5 41,-24.5"/>
<text text-anchor="middle" x="20.5" y="-12.5" font-family="Helvetica,sans-Serif" font-size="10.00">main</text>
</a>
</g>
</g>
<!-- Node3&#45;&gt;Node4 -->
<g id="edge3_Node000003_Node000004" class="edge">
<title>Node3&#45;&gt;Node4</title>
<g id="a_edge3_Node000003_Node000004"><a xlink:title=" ">
<path fill="none" stroke="#63b8ff" d="M66.95,-15C57.49,-15 48.59,-15 41.21,-15"/>
<polygon fill="#63b8ff" stroke="#63b8ff" points="66.97,-18.5 76.97,-15 66.97,-11.5 66.97,-18.5"/>
</a>
</g>
</g>
</g>
</svg>
