<?xml version="1.0" encoding="UTF-8" standalone="no"?>
<!DOCTYPE svg PUBLIC "-//W3C//DTD SVG 1.1//EN"
 "http://www.w3.org/Graphics/SVG/1.1/DTD/svg11.dtd">
<!-- Generated by graphviz version 2.43.0 (0)
 -->
<!-- Title: src/compiler/params.hpp Pages: 1 -->
<svg width="3074pt" height="148pt"
 viewBox="0.00 0.00 3073.50 148.00" xmlns="http://www.w3.org/2000/svg" xmlns:xlink="http://www.w3.org/1999/xlink">
<g id="graph0" class="graph" transform="scale(1 1) rotate(0) translate(4 144)">
<title>src/compiler/params.hpp</title>
<!-- Node1 -->
<g id="Node000001" class="node">
<title>Node1</title>
<g id="a_Node000001"><a xlink:title=" ">
<polygon fill="#999999" stroke="#666666" points="1585.5,-140 1448.5,-140 1448.5,-121 1585.5,-121 1585.5,-140"/>
<text text-anchor="middle" x="1517" y="-128" font-family="Helvetica,sans-Serif" font-size="10.00">src/compiler/params.hpp</text>
</a>
</g>
</g>
<!-- Node2 -->
<g id="Node000002" class="node">
<title>Node2</title>
<g id="a_Node000002"><a xlink:href="compiler_8cpp.html" target="_top" xlink:title=" ">
<polygon fill="white" stroke="#666666" points="142,-24.5 0,-24.5 0,-5.5 142,-5.5 142,-24.5"/>
<text text-anchor="middle" x="71" y="-12.5" font-family="Helvetica,sans-Serif" font-size="10.00">src/compiler/compiler.cpp</text>
</a>
</g>
</g>
<!-- Node1&#45;&gt;Node2 -->
<g id="edge1_Node000001_Node000002" class="edge">
<title>Node1&#45;&gt;Node2</title>
<g id="a_edge1_Node000001_Node000002"><a xlink:title=" ">
<path fill="none" stroke="#63b8ff" d="M1438.17,-126.53C1228.23,-118.03 638.29,-90.23 151,-30 139.39,-28.56 126.89,-26.59 115.31,-24.57"/>
<polygon fill="#63b8ff" stroke="#63b8ff" points="1438.05,-130.03 1448.18,-126.94 1438.33,-123.04 1438.05,-130.03"/>
</a>
</g>
</g>
<!-- Node3 -->
<g id="Node000003" class="node">
<title>Node3</title>
<g id="a_Node000003"><a xlink:href="compiler_8hpp.html" target="_top" xlink:title=" ">
<polygon fill="white" stroke="#666666" points="1588.5,-85 1445.5,-85 1445.5,-66 1588.5,-66 1588.5,-85"/>
<text text-anchor="middle" x="1517" y="-73" font-family="Helvetica,sans-Serif" font-size="10.00">src/compiler/compiler.hpp</text>
</a>
</g>
</g>
<!-- Node1&#45;&gt;Node3 -->
<g id="edge2_Node000001_Node000003" class="edge">
<title>Node1&#45;&gt;Node3</title>
<g id="a_edge2_Node000001_Node000003"><a xlink:title=" ">
<path fill="none" stroke="#63b8ff" d="M1517,-110.66C1517,-101.93 1517,-91.99 1517,-85.09"/>
<polygon fill="#63b8ff" stroke="#63b8ff" points="1513.5,-110.75 1517,-120.75 1520.5,-110.75 1513.5,-110.75"/>
</a>
</g>
</g>
<!-- Node17 -->
<g id="Node000017" class="node">
<title>Node17</title>
<g id="a_Node000017"><a xlink:href="compiler_2main_8cpp.html" target="_top" xlink:title=" ">
<polygon fill="white" stroke="#666666" points="3065.5,-24.5 2940.5,-24.5 2940.5,-5.5 3065.5,-5.5 3065.5,-24.5"/>
<text text-anchor="middle" x="3003" y="-12.5" font-family="Helvetica,sans-Serif" font-size="10.00">src/compiler/main.cpp</text>
</a>
</g>
</g>
<!-- Node1&#45;&gt;Node17 -->
<g id="edge23_Node000001_Node000017" class="edge">
<title>Node1&#45;&gt;Node17</title>
<g id="a_edge23_Node000001_Node000017"><a xlink:title=" ">
<path fill="none" stroke="#63b8ff" d="M1595.97,-127.32C1811.06,-120.64 2425.1,-96.73 2931,-30 2941.6,-28.6 2953,-26.61 2963.53,-24.57"/>
<polygon fill="#63b8ff" stroke="#63b8ff" points="1595.61,-123.83 1585.72,-127.63 1595.82,-130.82 1595.61,-123.83"/>
</a>
</g>
</g>
<!-- Node3&#45;&gt;Node2 -->
<g id="edge10_Node000003_Node000002" class="edge">
<title>Node3&#45;&gt;Node2</title>
<g id="a_edge10_Node000003_Node000002"><a xlink:title=" ">
<path fill="none" stroke="#63b8ff" d="M1434.89,-73.34C1179.63,-69.5 402.13,-55.93 151,-30 138.66,-28.73 125.35,-26.67 113.19,-24.53"/>
<polygon fill="#63b8ff" stroke="#63b8ff" points="1435.15,-76.85 1445.2,-73.5 1435.25,-69.85 1435.15,-76.85"/>
</a>
</g>
</g>
<!-- Node4 -->
<g id="Node000004" class="node">
<title>Node4</title>
<g id="a_Node000004"><a xlink:href="CompilerSyntaxException_8cpp.html" target="_top" xlink:title=" ">
<polygon fill="white" stroke="#666666" points="318,-30 160,-30 160,0 318,0 318,-30"/>
<text text-anchor="start" x="168" y="-18" font-family="Helvetica,sans-Serif" font-size="10.00">src/compiler/CompilerSyntax</text>
<text text-anchor="middle" x="239" y="-7" font-family="Helvetica,sans-Serif" font-size="10.00">Exception.cpp</text>
</a>
</g>
</g>
<!-- Node3&#45;&gt;Node4 -->
<g id="edge3_Node000003_Node000004" class="edge">
<title>Node3&#45;&gt;Node4</title>
<g id="a_edge3_Node000003_Node000004"><a xlink:title=" ">
<path fill="none" stroke="#63b8ff" d="M1435.22,-74.88C1241.85,-75.03 741.46,-71.03 326,-30 323.41,-29.74 320.78,-29.46 318.13,-29.15"/>
<polygon fill="#63b8ff" stroke="#63b8ff" points="1435.31,-78.38 1445.31,-74.87 1435.3,-71.38 1435.31,-78.38"/>
</a>
</g>
</g>
<!-- Node5 -->
<g id="Node000005" class="node">
<title>Node5</title>
<g id="a_Node000005"><a xlink:href="ast_8cpp.html" target="_top" xlink:title=" ">
<polygon fill="white" stroke="#666666" points="450.5,-24.5 335.5,-24.5 335.5,-5.5 450.5,-5.5 450.5,-24.5"/>
<text text-anchor="middle" x="393" y="-12.5" font-family="Helvetica,sans-Serif" font-size="10.00">src/compiler/ast.cpp</text>
</a>
</g>
</g>
<!-- Node3&#45;&gt;Node5 -->
<g id="edge4_Node000003_Node000005" class="edge">
<title>Node3&#45;&gt;Node5</title>
<g id="a_edge4_Node000003_Node000005"><a xlink:title=" ">
<path fill="none" stroke="#63b8ff" d="M1435.11,-72.83C1220.88,-68.16 647.43,-53.78 459,-30 448.77,-28.71 437.78,-26.65 427.75,-24.51"/>
<polygon fill="#63b8ff" stroke="#63b8ff" points="1435.27,-76.33 1445.35,-73.05 1435.42,-69.33 1435.27,-76.33"/>
</a>
</g>
</g>
<!-- Node6 -->
<g id="Node000006" class="node">
<title>Node6</title>
<g id="a_Node000006"><a xlink:href="binop_8cpp.html" target="_top" xlink:title=" ">
<polygon fill="white" stroke="#666666" points="595.5,-24.5 468.5,-24.5 468.5,-5.5 595.5,-5.5 595.5,-24.5"/>
<text text-anchor="middle" x="532" y="-12.5" font-family="Helvetica,sans-Serif" font-size="10.00">src/compiler/binop.cpp</text>
</a>
</g>
</g>
<!-- Node3&#45;&gt;Node6 -->
<g id="edge5_Node000003_Node000006" class="edge">
<title>Node3&#45;&gt;Node6</title>
<g id="a_edge5_Node000003_Node000006"><a xlink:title=" ">
<path fill="none" stroke="#63b8ff" d="M1435.23,-74.36C1275.23,-73.23 909.76,-66.48 605,-30 593.85,-28.67 581.85,-26.62 570.86,-24.5"/>
<polygon fill="#63b8ff" stroke="#63b8ff" points="1435.45,-77.86 1445.47,-74.42 1435.49,-70.86 1435.45,-77.86"/>
</a>
</g>
</g>
<!-- Node7 -->
<g id="Node000007" class="node">
<title>Node7</title>
<g id="a_Node000007"><a xlink:href="block_8cpp.html" target="_top" xlink:title=" ">
<polygon fill="white" stroke="#666666" points="740,-24.5 614,-24.5 614,-5.5 740,-5.5 740,-24.5"/>
<text text-anchor="middle" x="677" y="-12.5" font-family="Helvetica,sans-Serif" font-size="10.00">src/compiler/block.cpp</text>
</a>
</g>
</g>
<!-- Node3&#45;&gt;Node7 -->
<g id="edge6_Node000003_Node000007" class="edge">
<title>Node3&#45;&gt;Node7</title>
<g id="a_edge6_Node000003_Node000007"><a xlink:title=" ">
<path fill="none" stroke="#63b8ff" d="M1434.96,-73.35C1294.13,-70.58 997.54,-61.22 749,-30 738.13,-28.64 726.44,-26.61 715.71,-24.52"/>
<polygon fill="#63b8ff" stroke="#63b8ff" points="1435.17,-76.86 1445.24,-73.55 1435.31,-69.86 1435.17,-76.86"/>
</a>
</g>
</g>
<!-- Node8 -->
<g id="Node000008" class="node">
<title>Node8</title>
<g id="a_Node000008"><a xlink:href="builtin_8cpp.html" target="_top" xlink:title=" ">
<polygon fill="white" stroke="#666666" points="889.5,-24.5 758.5,-24.5 758.5,-5.5 889.5,-5.5 889.5,-24.5"/>
<text text-anchor="middle" x="824" y="-12.5" font-family="Helvetica,sans-Serif" font-size="10.00">src/compiler/builtin.cpp</text>
</a>
</g>
</g>
<!-- Node3&#45;&gt;Node8 -->
<g id="edge7_Node000003_Node000008" class="edge">
<title>Node3&#45;&gt;Node8</title>
<g id="a_edge7_Node000003_Node000008"><a xlink:title=" ">
<path fill="none" stroke="#63b8ff" d="M1435.14,-71.62C1316.38,-66.76 1089.54,-54.92 898,-30 887.11,-28.58 875.4,-26.59 864.58,-24.55"/>
<polygon fill="#63b8ff" stroke="#63b8ff" points="1435.11,-75.12 1445.24,-72.03 1435.39,-68.13 1435.11,-75.12"/>
</a>
</g>
</g>
<!-- Node9 -->
<g id="Node000009" class="node">
<title>Node9</title>
<g id="a_Node000009"><a xlink:href="compiler_2bytecode_8cpp.html" target="_top" xlink:title=" ">
<polygon fill="white" stroke="#666666" points="1052.5,-24.5 907.5,-24.5 907.5,-5.5 1052.5,-5.5 1052.5,-24.5"/>
<text text-anchor="middle" x="980" y="-12.5" font-family="Helvetica,sans-Serif" font-size="10.00">src/compiler/bytecode.cpp</text>
</a>
</g>
</g>
<!-- Node3&#45;&gt;Node9 -->
<g id="edge8_Node000003_Node000009" class="edge">
<title>Node3&#45;&gt;Node9</title>
<g id="a_edge8_Node000003_Node000009"><a xlink:title=" ">
<path fill="none" stroke="#63b8ff" d="M1435.31,-68.36C1343.9,-61.06 1191.49,-47.62 1061,-30 1049.54,-28.45 1037.23,-26.48 1025.74,-24.51"/>
<polygon fill="#63b8ff" stroke="#63b8ff" points="1435.09,-71.85 1445.33,-69.15 1435.64,-64.87 1435.09,-71.85"/>
</a>
</g>
</g>
<!-- Node10 -->
<g id="Node000010" class="node">
<title>Node10</title>
<g id="a_Node000010"><a xlink:href="compile_8cpp.html" target="_top" xlink:title=" ">
<polygon fill="white" stroke="#666666" points="1209.5,-24.5 1070.5,-24.5 1070.5,-5.5 1209.5,-5.5 1209.5,-24.5"/>
<text text-anchor="middle" x="1140" y="-12.5" font-family="Helvetica,sans-Serif" font-size="10.00">src/compiler/compile.cpp</text>
</a>
</g>
</g>
<!-- Node3&#45;&gt;Node10 -->
<g id="edge9_Node000003_Node000010" class="edge">
<title>Node3&#45;&gt;Node10</title>
<g id="a_edge9_Node000003_Node000010"><a xlink:title=" ">
<path fill="none" stroke="#63b8ff" d="M1445.99,-64.54C1385.35,-55.89 1295.84,-42.78 1218,-30 1207.68,-28.31 1196.62,-26.38 1186.15,-24.52"/>
<polygon fill="#63b8ff" stroke="#63b8ff" points="1445.82,-68.05 1456.22,-66 1446.81,-61.12 1445.82,-68.05"/>
</a>
</g>
</g>
<!-- Node11 -->
<g id="Node000011" class="node">
<title>Node11</title>
<g id="a_Node000011"><a xlink:href="expr_8cpp.html" target="_top" xlink:title=" ">
<polygon fill="white" stroke="#666666" points="1348.5,-24.5 1227.5,-24.5 1227.5,-5.5 1348.5,-5.5 1348.5,-24.5"/>
<text text-anchor="middle" x="1288" y="-12.5" font-family="Helvetica,sans-Serif" font-size="10.00">src/compiler/expr.cpp</text>
</a>
</g>
</g>
<!-- Node3&#45;&gt;Node11 -->
<g id="edge11_Node000003_Node000011" class="edge">
<title>Node3&#45;&gt;Node11</title>
<g id="a_edge11_Node000003_Node000011"><a xlink:title=" ">
<path fill="none" stroke="#63b8ff" d="M1473.81,-63.47C1429.54,-52.16 1361.64,-34.81 1321.34,-24.52"/>
<polygon fill="#63b8ff" stroke="#63b8ff" points="1473.15,-66.91 1483.7,-65.99 1474.88,-60.13 1473.15,-66.91"/>
</a>
</g>
</g>
<!-- Node12 -->
<g id="Node000012" class="node">
<title>Node12</title>
<g id="a_Node000012"><a xlink:href="function_8cpp.html" target="_top" xlink:title=" ">
<polygon fill="white" stroke="#666666" points="1507,-24.5 1367,-24.5 1367,-5.5 1507,-5.5 1507,-24.5"/>
<text text-anchor="middle" x="1437" y="-12.5" font-family="Helvetica,sans-Serif" font-size="10.00">src/compiler/function.cpp</text>
</a>
</g>
</g>
<!-- Node3&#45;&gt;Node12 -->
<g id="edge12_Node000003_Node000012" class="edge">
<title>Node3&#45;&gt;Node12</title>
<g id="a_edge12_Node000003_Node000012"><a xlink:title=" ">
<path fill="none" stroke="#63b8ff" d="M1496.96,-59.85C1481.81,-48.77 1461.52,-33.93 1448.85,-24.67"/>
<polygon fill="#63b8ff" stroke="#63b8ff" points="1495.06,-62.79 1505.2,-65.87 1499.19,-57.14 1495.06,-62.79"/>
</a>
</g>
</g>
<!-- Node13 -->
<g id="Node000013" class="node">
<title>Node13</title>
<g id="a_Node000013"><a xlink:href="functions_8cpp.html" target="_top" xlink:title=" ">
<polygon fill="white" stroke="#666666" points="1670.5,-24.5 1525.5,-24.5 1525.5,-5.5 1670.5,-5.5 1670.5,-24.5"/>
<text text-anchor="middle" x="1598" y="-12.5" font-family="Helvetica,sans-Serif" font-size="10.00">src/compiler/functions.cpp</text>
</a>
</g>
</g>
<!-- Node3&#45;&gt;Node13 -->
<g id="edge13_Node000003_Node000013" class="edge">
<title>Node3&#45;&gt;Node13</title>
<g id="a_edge13_Node000003_Node000013"><a xlink:title=" ">
<path fill="none" stroke="#63b8ff" d="M1537.29,-59.85C1552.63,-48.77 1573.18,-33.93 1586,-24.67"/>
<polygon fill="#63b8ff" stroke="#63b8ff" points="1535.01,-57.18 1528.95,-65.87 1539.11,-62.85 1535.01,-57.18"/>
</a>
</g>
</g>
<!-- Node14 -->
<g id="Node000014" class="node">
<title>Node14</title>
<g id="a_Node000014"><a xlink:href="instruction_8cpp.html" target="_top" xlink:title=" ">
<polygon fill="white" stroke="#666666" points="1841,-24.5 1689,-24.5 1689,-5.5 1841,-5.5 1841,-24.5"/>
<text text-anchor="middle" x="1765" y="-12.5" font-family="Helvetica,sans-Serif" font-size="10.00">src/compiler/instruction.cpp</text>
</a>
</g>
</g>
<!-- Node3&#45;&gt;Node14 -->
<g id="edge14_Node000003_Node000014" class="edge">
<title>Node3&#45;&gt;Node14</title>
<g id="a_edge14_Node000003_Node000014"><a xlink:title=" ">
<path fill="none" stroke="#63b8ff" d="M1562.87,-63.68C1610.79,-52.38 1684.98,-34.88 1728.9,-24.52"/>
<polygon fill="#63b8ff" stroke="#63b8ff" points="1561.99,-60.29 1553.06,-65.99 1563.6,-67.1 1561.99,-60.29"/>
</a>
</g>
</g>
<!-- Node15 -->
<g id="Node000015" class="node">
<title>Node15</title>
<g id="a_Node000015"><a xlink:href="lexer_8cpp.html" target="_top" xlink:title=" ">
<polygon fill="white" stroke="#666666" points="1982.5,-24.5 1859.5,-24.5 1859.5,-5.5 1982.5,-5.5 1982.5,-24.5"/>
<text text-anchor="middle" x="1921" y="-12.5" font-family="Helvetica,sans-Serif" font-size="10.00">src/compiler/lexer.cpp</text>
</a>
</g>
</g>
<!-- Node3&#45;&gt;Node15 -->
<g id="edge15_Node000003_Node000015" class="edge">
<title>Node3&#45;&gt;Node15</title>
<g id="a_edge15_Node000003_Node000015"><a xlink:title=" ">
<path fill="none" stroke="#63b8ff" d="M1598.8,-65C1666.33,-56.81 1764.61,-44.11 1850,-30 1859.79,-28.38 1870.3,-26.43 1880.15,-24.5"/>
<polygon fill="#63b8ff" stroke="#63b8ff" points="1598.15,-61.55 1588.64,-66.22 1598.99,-68.5 1598.15,-61.55"/>
</a>
</g>
</g>
<!-- Node16 -->
<g id="Node000016" class="node">
<title>Node16</title>
<g id="a_Node000016"><a xlink:href="log_8cpp.html" target="_top" xlink:title=" ">
<polygon fill="white" stroke="#666666" points="2115.5,-24.5 2000.5,-24.5 2000.5,-5.5 2115.5,-5.5 2115.5,-24.5"/>
<text text-anchor="middle" x="2058" y="-12.5" font-family="Helvetica,sans-Serif" font-size="10.00">src/compiler/log.cpp</text>
</a>
</g>
</g>
<!-- Node3&#45;&gt;Node16 -->
<g id="edge16_Node000003_Node000016" class="edge">
<title>Node3&#45;&gt;Node16</title>
<g id="a_edge16_Node000003_Node000016"><a xlink:title=" ">
<path fill="none" stroke="#63b8ff" d="M1598.87,-69.62C1693.62,-63.32 1854.19,-50.65 1991,-30 2000.75,-28.53 2011.22,-26.54 2020.92,-24.52"/>
<polygon fill="#63b8ff" stroke="#63b8ff" points="1598.52,-66.13 1588.77,-70.28 1598.98,-73.12 1598.52,-66.13"/>
</a>
</g>
</g>
<!-- Node3&#45;&gt;Node17 -->
<g id="edge17_Node000003_Node000017" class="edge">
<title>Node3&#45;&gt;Node17</title>
<g id="a_edge17_Node000003_Node000017"><a xlink:title=" ">
<path fill="none" stroke="#63b8ff" d="M1598.9,-73.65C1859.9,-70.68 2670.27,-59.26 2931,-30 2942.14,-28.75 2954.12,-26.71 2965.06,-24.56"/>
<polygon fill="#63b8ff" stroke="#63b8ff" points="1598.69,-70.15 1588.73,-73.77 1598.77,-77.15 1598.69,-70.15"/>
</a>
</g>
</g>
<!-- Node18 -->
<g id="Node000018" class="node">
<title>Node18</title>
<g id="a_Node000018"><a xlink:href="statement_8cpp.html" target="_top" xlink:title=" ">
<polygon fill="white" stroke="#666666" points="2284,-24.5 2134,-24.5 2134,-5.5 2284,-5.5 2284,-24.5"/>
<text text-anchor="middle" x="2209" y="-12.5" font-family="Helvetica,sans-Serif" font-size="10.00">src/compiler/statement.cpp</text>
</a>
</g>
</g>
<!-- Node3&#45;&gt;Node18 -->
<g id="edge18_Node000003_Node000018" class="edge">
<title>Node3&#45;&gt;Node18</title>
<g id="a_edge18_Node000003_Node000018"><a xlink:title=" ">
<path fill="none" stroke="#63b8ff" d="M1598.97,-70.84C1715.82,-65.08 1936.84,-52.23 2124,-30 2136.33,-28.54 2149.6,-26.55 2161.9,-24.53"/>
<polygon fill="#63b8ff" stroke="#63b8ff" points="1598.5,-67.36 1588.68,-71.34 1598.84,-74.35 1598.5,-67.36"/>
</a>
</g>
</g>
<!-- Node19 -->
<g id="Node000019" class="node">
<title>Node19</title>
<g id="a_Node000019"><a xlink:href="symbol_8cpp.html" target="_top" xlink:title=" ">
<polygon fill="white" stroke="#666666" points="2438,-24.5 2302,-24.5 2302,-5.5 2438,-5.5 2438,-24.5"/>
<text text-anchor="middle" x="2370" y="-12.5" font-family="Helvetica,sans-Serif" font-size="10.00">src/compiler/symbol.cpp</text>
</a>
</g>
</g>
<!-- Node3&#45;&gt;Node19 -->
<g id="edge19_Node000003_Node000019" class="edge">
<title>Node3&#45;&gt;Node19</title>
<g id="a_edge19_Node000003_Node000019"><a xlink:title=" ">
<path fill="none" stroke="#63b8ff" d="M1599.02,-73.1C1740.92,-69.93 2041.19,-60 2293,-30 2304.47,-28.63 2316.81,-26.63 2328.18,-24.57"/>
<polygon fill="#63b8ff" stroke="#63b8ff" points="1598.59,-69.61 1588.67,-73.32 1598.74,-76.6 1598.59,-69.61"/>
</a>
</g>
</g>
<!-- Node20 -->
<g id="Node000020" class="node">
<title>Node20</title>
<g id="a_Node000020"><a xlink:href="symbol__table_8cpp.html" target="_top" xlink:title=" ">
<polygon fill="white" stroke="#666666" points="2572,-30 2456,-30 2456,0 2572,0 2572,-30"/>
<text text-anchor="start" x="2464" y="-18" font-family="Helvetica,sans-Serif" font-size="10.00">src/compiler/symbol</text>
<text text-anchor="middle" x="2514" y="-7" font-family="Helvetica,sans-Serif" font-size="10.00">_table.cpp</text>
</a>
</g>
</g>
<!-- Node3&#45;&gt;Node20 -->
<g id="edge20_Node000003_Node000020" class="edge">
<title>Node3&#45;&gt;Node20</title>
<g id="a_edge20_Node000003_Node000020"><a xlink:title=" ">
<path fill="none" stroke="#63b8ff" d="M1598.9,-74.92C1761.34,-74.79 2135.56,-69.74 2447,-30 2449.95,-29.62 2452.96,-29.19 2455.99,-28.71"/>
<polygon fill="#63b8ff" stroke="#63b8ff" points="1598.51,-71.42 1588.51,-74.92 1598.51,-78.42 1598.51,-71.42"/>
</a>
</g>
</g>
<!-- Node21 -->
<g id="Node000021" class="node">
<title>Node21</title>
<g id="a_Node000021"><a xlink:href="temp__allocator_8cpp.html" target="_top" xlink:title=" ">
<polygon fill="white" stroke="#666666" points="2763.5,-24.5 2590.5,-24.5 2590.5,-5.5 2763.5,-5.5 2763.5,-24.5"/>
<text text-anchor="middle" x="2677" y="-12.5" font-family="Helvetica,sans-Serif" font-size="10.00">src/compiler/temp_allocator.cpp</text>
</a>
</g>
</g>
<!-- Node3&#45;&gt;Node21 -->
<g id="edge21_Node000003_Node000021" class="edge">
<title>Node3&#45;&gt;Node21</title>
<g id="a_edge21_Node000003_Node000021"><a xlink:title=" ">
<path fill="none" stroke="#63b8ff" d="M1598.89,-73.95C1777.6,-72.11 2215.79,-64.18 2581,-30 2595.42,-28.65 2610.99,-26.63 2625.3,-24.54"/>
<polygon fill="#63b8ff" stroke="#63b8ff" points="1598.75,-70.45 1588.78,-74.05 1598.82,-77.45 1598.75,-70.45"/>
</a>
</g>
</g>
<!-- Node22 -->
<g id="Node000022" class="node">
<title>Node22</title>
<g id="a_Node000022"><a xlink:href="variable_8cpp.html" target="_top" xlink:title=" ">
<polygon fill="white" stroke="#666666" points="2922,-24.5 2782,-24.5 2782,-5.5 2922,-5.5 2922,-24.5"/>
<text text-anchor="middle" x="2852" y="-12.5" font-family="Helvetica,sans-Serif" font-size="10.00">src/compiler/variable.cpp</text>
</a>
</g>
</g>
<!-- Node3&#45;&gt;Node22 -->
<g id="edge22_Node000003_Node000022" class="edge">
<title>Node3&#45;&gt;Node22</title>
<g id="a_edge22_Node000003_Node000022"><a xlink:title=" ">
<path fill="none" stroke="#63b8ff" d="M1598.67,-73.1C1839.48,-68.74 2544.12,-54.22 2773,-30 2785.19,-28.71 2798.33,-26.65 2810.34,-24.51"/>
<polygon fill="#63b8ff" stroke="#63b8ff" points="1598.52,-69.6 1588.58,-73.28 1598.64,-76.6 1598.52,-69.6"/>
</a>
</g>
</g>
</g>
</svg>
