<?xml version="1.0" encoding="UTF-8" standalone="no"?>
<!DOCTYPE svg PUBLIC "-//W3C//DTD SVG 1.1//EN"
 "http://www.w3.org/Graphics/SVG/1.1/DTD/svg11.dtd">
<!-- Generated by graphviz version 2.43.0 (0)
 -->
<!-- Title: src/compiler/params.hpp Pages: 1 -->
<svg width="1523pt" height="148pt"
 viewBox="0.00 0.00 1522.50 148.00" xmlns="http://www.w3.org/2000/svg" xmlns:xlink="http://www.w3.org/1999/xlink">
<g id="graph0" class="graph" transform="scale(1 1) rotate(0) translate(4 144)">
<title>src/compiler/params.hpp</title>
<!-- Node1 -->
<g id="Node000001" class="node">
<title>Node1</title>
<g id="a_Node000001"><a xlink:title=" ">
<polygon fill="#999999" stroke="#666666" points="851.5,-140 714.5,-140 714.5,-121 851.5,-121 851.5,-140"/>
<text text-anchor="middle" x="783" y="-128" font-family="Helvetica,sans-Serif" font-size="10.00">src/compiler/params.hpp</text>
</a>
</g>
</g>
<!-- Node2 -->
<g id="Node000002" class="node">
<title>Node2</title>
<g id="a_Node000002"><a xlink:href="compiler_8cpp.html" target="_top" xlink:title=" ">
<polygon fill="white" stroke="#666666" points="142,-24.5 0,-24.5 0,-5.5 142,-5.5 142,-24.5"/>
<text text-anchor="middle" x="71" y="-12.5" font-family="Helvetica,sans-Serif" font-size="10.00">src/compiler/compiler.cpp</text>
</a>
</g>
</g>
<!-- Node1&#45;&gt;Node2 -->
<g id="edge1_Node000001_Node000002" class="edge">
<title>Node1&#45;&gt;Node2</title>
<g id="a_edge1_Node000001_Node000002"><a xlink:title=" ">
<path fill="none" stroke="#63b8ff" d="M716.65,-119.44C601.47,-101.88 357.07,-64.25 151,-30 140.71,-28.29 129.68,-26.4 119.2,-24.57"/>
<polygon fill="#63b8ff" stroke="#63b8ff" points="716.31,-122.92 726.72,-120.97 717.36,-116 716.31,-122.92"/>
</a>
</g>
</g>
<!-- Node3 -->
<g id="Node000003" class="node">
<title>Node3</title>
<g id="a_Node000003"><a xlink:href="compiler_8hpp.html" target="_top" xlink:title=" ">
<polygon fill="white" stroke="#666666" points="854.5,-85 711.5,-85 711.5,-66 854.5,-66 854.5,-85"/>
<text text-anchor="middle" x="783" y="-73" font-family="Helvetica,sans-Serif" font-size="10.00">src/compiler/compiler.hpp</text>
</a>
</g>
</g>
<!-- Node1&#45;&gt;Node3 -->
<g id="edge2_Node000001_Node000003" class="edge">
<title>Node1&#45;&gt;Node3</title>
<g id="a_edge2_Node000001_Node000003"><a xlink:title=" ">
<path fill="none" stroke="#63b8ff" d="M783,-110.66C783,-101.93 783,-91.99 783,-85.09"/>
<polygon fill="#63b8ff" stroke="#63b8ff" points="779.5,-110.75 783,-120.75 786.5,-110.75 779.5,-110.75"/>
</a>
</g>
</g>
<!-- Node10 -->
<g id="Node000010" class="node">
<title>Node10</title>
<g id="a_Node000010"><a xlink:href="compiler_2main_8cpp.html" target="_top" xlink:title=" ">
<polygon fill="white" stroke="#666666" points="1514.5,-24.5 1389.5,-24.5 1389.5,-5.5 1514.5,-5.5 1514.5,-24.5"/>
<text text-anchor="middle" x="1452" y="-12.5" font-family="Helvetica,sans-Serif" font-size="10.00">src/compiler/main.cpp</text>
</a>
</g>
</g>
<!-- Node1&#45;&gt;Node10 -->
<g id="edge13_Node000001_Node000010" class="edge">
<title>Node1&#45;&gt;Node10</title>
<g id="a_edge13_Node000001_Node000010"><a xlink:title=" ">
<path fill="none" stroke="#63b8ff" d="M846.89,-119.43C956.23,-102.07 1186.22,-64.98 1380,-30 1389.4,-28.3 1399.47,-26.4 1409.01,-24.55"/>
<polygon fill="#63b8ff" stroke="#63b8ff" points="846.33,-115.97 837,-121 847.43,-122.89 846.33,-115.97"/>
</a>
</g>
</g>
<!-- Node3&#45;&gt;Node2 -->
<g id="edge7_Node000003_Node000002" class="edge">
<title>Node3&#45;&gt;Node2</title>
<g id="a_edge7_Node000003_Node000002"><a xlink:title=" ">
<path fill="none" stroke="#63b8ff" d="M700.94,-71.42C580.15,-66.28 347.53,-54.05 151,-30 139.24,-28.56 126.59,-26.56 114.89,-24.52"/>
<polygon fill="#63b8ff" stroke="#63b8ff" points="701.07,-74.93 711.21,-71.85 701.37,-67.94 701.07,-74.93"/>
</a>
</g>
</g>
<!-- Node4 -->
<g id="Node000004" class="node">
<title>Node4</title>
<g id="a_Node000004"><a xlink:href="CompilerSyntaxException_8cpp.html" target="_top" xlink:title=" ">
<polygon fill="white" stroke="#666666" points="318,-30 160,-30 160,0 318,0 318,-30"/>
<text text-anchor="start" x="168" y="-18" font-family="Helvetica,sans-Serif" font-size="10.00">src/compiler/CompilerSyntax</text>
<text text-anchor="middle" x="239" y="-7" font-family="Helvetica,sans-Serif" font-size="10.00">Exception.cpp</text>
</a>
</g>
</g>
<!-- Node3&#45;&gt;Node4 -->
<g id="edge3_Node000003_Node000004" class="edge">
<title>Node3&#45;&gt;Node4</title>
<g id="a_edge3_Node000003_Node000004"><a xlink:title=" ">
<path fill="none" stroke="#63b8ff" d="M701.17,-68.08C609.59,-60.54 456.88,-46.89 326,-30 323.42,-29.67 320.8,-29.32 318.16,-28.95"/>
<polygon fill="#63b8ff" stroke="#63b8ff" points="700.96,-71.58 711.21,-68.91 701.53,-64.6 700.96,-71.58"/>
</a>
</g>
</g>
<!-- Node5 -->
<g id="Node000005" class="node">
<title>Node5</title>
<g id="a_Node000005"><a xlink:href="ast_8cpp.html" target="_top" xlink:title=" ">
<polygon fill="white" stroke="#666666" points="450.5,-24.5 335.5,-24.5 335.5,-5.5 450.5,-5.5 450.5,-24.5"/>
<text text-anchor="middle" x="393" y="-12.5" font-family="Helvetica,sans-Serif" font-size="10.00">src/compiler/ast.cpp</text>
</a>
</g>
</g>
<!-- Node3&#45;&gt;Node5 -->
<g id="edge4_Node000003_Node000005" class="edge">
<title>Node3&#45;&gt;Node5</title>
<g id="a_edge4_Node000003_Node000005"><a xlink:title=" ">
<path fill="none" stroke="#63b8ff" d="M701.06,-64.91C635.4,-56.83 541.03,-44.31 459,-30 449.88,-28.41 440.11,-26.47 430.95,-24.54"/>
<polygon fill="#63b8ff" stroke="#63b8ff" points="700.99,-68.43 711.34,-66.17 701.84,-61.48 700.99,-68.43"/>
</a>
</g>
</g>
<!-- Node6 -->
<g id="Node000006" class="node">
<title>Node6</title>
<g id="a_Node000006"><a xlink:href="compiler_2bytecode_8cpp.html" target="_top" xlink:title=" ">
<polygon fill="white" stroke="#666666" points="613.5,-24.5 468.5,-24.5 468.5,-5.5 613.5,-5.5 613.5,-24.5"/>
<text text-anchor="middle" x="541" y="-12.5" font-family="Helvetica,sans-Serif" font-size="10.00">src/compiler/bytecode.cpp</text>
</a>
</g>
</g>
<!-- Node3&#45;&gt;Node6 -->
<g id="edge5_Node000003_Node000006" class="edge">
<title>Node3&#45;&gt;Node6</title>
<g id="a_edge5_Node000003_Node000006"><a xlink:title=" ">
<path fill="none" stroke="#63b8ff" d="M737.95,-63.61C691.18,-52.3 619,-34.85 576.23,-24.52"/>
<polygon fill="#63b8ff" stroke="#63b8ff" points="737.27,-67.05 747.81,-65.99 738.91,-60.24 737.27,-67.05"/>
</a>
</g>
</g>
<!-- Node7 -->
<g id="Node000007" class="node">
<title>Node7</title>
<g id="a_Node000007"><a xlink:href="compile_8cpp.html" target="_top" xlink:title=" ">
<polygon fill="white" stroke="#666666" points="770.5,-24.5 631.5,-24.5 631.5,-5.5 770.5,-5.5 770.5,-24.5"/>
<text text-anchor="middle" x="701" y="-12.5" font-family="Helvetica,sans-Serif" font-size="10.00">src/compiler/compile.cpp</text>
</a>
</g>
</g>
<!-- Node3&#45;&gt;Node7 -->
<g id="edge6_Node000003_Node000007" class="edge">
<title>Node3&#45;&gt;Node7</title>
<g id="a_edge6_Node000003_Node000007"><a xlink:title=" ">
<path fill="none" stroke="#63b8ff" d="M762.46,-59.85C746.93,-48.77 726.13,-33.93 713.15,-24.67"/>
<polygon fill="#63b8ff" stroke="#63b8ff" points="760.73,-62.91 770.9,-65.87 764.79,-57.21 760.73,-62.91"/>
</a>
</g>
</g>
<!-- Node8 -->
<g id="Node000008" class="node">
<title>Node8</title>
<g id="a_Node000008"><a xlink:href="instruction_8cpp.html" target="_top" xlink:title=" ">
<polygon fill="white" stroke="#666666" points="941,-24.5 789,-24.5 789,-5.5 941,-5.5 941,-24.5"/>
<text text-anchor="middle" x="865" y="-12.5" font-family="Helvetica,sans-Serif" font-size="10.00">src/compiler/instruction.cpp</text>
</a>
</g>
</g>
<!-- Node3&#45;&gt;Node8 -->
<g id="edge8_Node000003_Node000008" class="edge">
<title>Node3&#45;&gt;Node8</title>
<g id="a_edge8_Node000003_Node000008"><a xlink:title=" ">
<path fill="none" stroke="#63b8ff" d="M803.54,-59.85C819.07,-48.77 839.87,-33.93 852.85,-24.67"/>
<polygon fill="#63b8ff" stroke="#63b8ff" points="801.21,-57.21 795.1,-65.87 805.27,-62.91 801.21,-57.21"/>
</a>
</g>
</g>
<!-- Node9 -->
<g id="Node000009" class="node">
<title>Node9</title>
<g id="a_Node000009"><a xlink:href="lexer_8cpp.html" target="_top" xlink:title=" ">
<polygon fill="white" stroke="#666666" points="1082.5,-24.5 959.5,-24.5 959.5,-5.5 1082.5,-5.5 1082.5,-24.5"/>
<text text-anchor="middle" x="1021" y="-12.5" font-family="Helvetica,sans-Serif" font-size="10.00">src/compiler/lexer.cpp</text>
</a>
</g>
</g>
<!-- Node3&#45;&gt;Node9 -->
<g id="edge9_Node000003_Node000009" class="edge">
<title>Node3&#45;&gt;Node9</title>
<g id="a_edge9_Node000003_Node000009"><a xlink:title=" ">
<path fill="none" stroke="#63b8ff" d="M827.6,-63.54C873.6,-52.23 944.38,-34.83 986.35,-24.52"/>
<polygon fill="#63b8ff" stroke="#63b8ff" points="826.48,-60.21 817.61,-65.99 828.15,-67.01 826.48,-60.21"/>
</a>
</g>
</g>
<!-- Node3&#45;&gt;Node10 -->
<g id="edge10_Node000003_Node000010" class="edge">
<title>Node3&#45;&gt;Node10</title>
<g id="a_edge10_Node000003_Node000010"><a xlink:title=" ">
<path fill="none" stroke="#63b8ff" d="M864.66,-71.46C979.93,-66.47 1196.76,-54.56 1380,-30 1390.6,-28.58 1402,-26.58 1412.53,-24.54"/>
<polygon fill="#63b8ff" stroke="#63b8ff" points="864.34,-67.97 854.5,-71.89 864.64,-74.96 864.34,-67.97"/>
</a>
</g>
</g>
<!-- Node11 -->
<g id="Node000011" class="node">
<title>Node11</title>
<g id="a_Node000011"><a xlink:href="symbol_8cpp.html" target="_top" xlink:title=" ">
<polygon fill="white" stroke="#666666" points="1237,-24.5 1101,-24.5 1101,-5.5 1237,-5.5 1237,-24.5"/>
<text text-anchor="middle" x="1169" y="-12.5" font-family="Helvetica,sans-Serif" font-size="10.00">src/compiler/symbol.cpp</text>
</a>
</g>
</g>
<!-- Node3&#45;&gt;Node11 -->
<g id="edge11_Node000003_Node000011" class="edge">
<title>Node3&#45;&gt;Node11</title>
<g id="a_edge11_Node000003_Node000011"><a xlink:title=" ">
<path fill="none" stroke="#63b8ff" d="M856.66,-64.58C919.12,-55.99 1011.05,-42.95 1091,-30 1101.32,-28.33 1112.39,-26.42 1122.85,-24.55"/>
<polygon fill="#63b8ff" stroke="#63b8ff" points="855.94,-61.14 846.51,-65.97 856.89,-68.08 855.94,-61.14"/>
</a>
</g>
</g>
<!-- Node12 -->
<g id="Node000012" class="node">
<title>Node12</title>
<g id="a_Node000012"><a xlink:href="symbol__table_8cpp.html" target="_top" xlink:title=" ">
<polygon fill="white" stroke="#666666" points="1371,-30 1255,-30 1255,0 1371,0 1371,-30"/>
<text text-anchor="start" x="1263" y="-18" font-family="Helvetica,sans-Serif" font-size="10.00">src/compiler/symbol</text>
<text text-anchor="middle" x="1313" y="-7" font-family="Helvetica,sans-Serif" font-size="10.00">_table.cpp</text>
</a>
</g>
</g>
<!-- Node3&#45;&gt;Node12 -->
<g id="edge12_Node000003_Node000012" class="edge">
<title>Node3&#45;&gt;Node12</title>
<g id="a_edge12_Node000003_Node000012"><a xlink:title=" ">
<path fill="none" stroke="#63b8ff" d="M864.85,-69.37C957.64,-62.92 1113.26,-50.18 1246,-30 1248.94,-29.55 1251.94,-29.06 1254.97,-28.53"/>
<polygon fill="#63b8ff" stroke="#63b8ff" points="864.42,-65.89 854.69,-70.07 864.9,-72.88 864.42,-65.89"/>
</a>
</g>
</g>
</g>
</svg>
