<?xml version="1.0" encoding="UTF-8" standalone="no"?>
<!DOCTYPE svg PUBLIC "-//W3C//DTD SVG 1.1//EN"
 "http://www.w3.org/Graphics/SVG/1.1/DTD/svg11.dtd">
<!-- Generated by graphviz version 2.43.0 (0)
 -->
<!-- Title: src/compiler/params.hpp Pages: 1 -->
<svg width="2010pt" height="148pt"
 viewBox="0.00 0.00 2009.50 148.00" xmlns="http://www.w3.org/2000/svg" xmlns:xlink="http://www.w3.org/1999/xlink">
<g id="graph0" class="graph" transform="scale(1 1) rotate(0) translate(4 144)">
<title>src/compiler/params.hpp</title>
<!-- Node1 -->
<g id="Node000001" class="node">
<title>Node1</title>
<g id="a_Node000001"><a xlink:title=" ">
<polygon fill="#999999" stroke="#666666" points="1096.5,-140 959.5,-140 959.5,-121 1096.5,-121 1096.5,-140"/>
<text text-anchor="middle" x="1028" y="-128" font-family="Helvetica,sans-Serif" font-size="10.00">src/compiler/params.hpp</text>
</a>
</g>
</g>
<!-- Node2 -->
<g id="Node000002" class="node">
<title>Node2</title>
<g id="a_Node000002"><a xlink:href="compiler_8cpp.html" target="_top" xlink:title=" ">
<polygon fill="white" stroke="#666666" points="142,-24.5 0,-24.5 0,-5.5 142,-5.5 142,-24.5"/>
<text text-anchor="middle" x="71" y="-12.5" font-family="Helvetica,sans-Serif" font-size="10.00">src/compiler/compiler.cpp</text>
</a>
</g>
</g>
<!-- Node1&#45;&gt;Node2 -->
<g id="edge1_Node000001_Node000002" class="edge">
<title>Node1&#45;&gt;Node2</title>
<g id="a_edge1_Node000001_Node000002"><a xlink:title=" ">
<path fill="none" stroke="#63b8ff" d="M949.02,-122.15C795.1,-107.47 444.37,-72.27 151,-30 139.97,-28.41 128.14,-26.47 117.04,-24.54"/>
<polygon fill="#63b8ff" stroke="#63b8ff" points="949.02,-125.67 959.31,-123.13 949.69,-118.7 949.02,-125.67"/>
</a>
</g>
</g>
<!-- Node3 -->
<g id="Node000003" class="node">
<title>Node3</title>
<g id="a_Node000003"><a xlink:href="compiler_8hpp.html" target="_top" xlink:title=" ">
<polygon fill="white" stroke="#666666" points="1099.5,-85 956.5,-85 956.5,-66 1099.5,-66 1099.5,-85"/>
<text text-anchor="middle" x="1028" y="-73" font-family="Helvetica,sans-Serif" font-size="10.00">src/compiler/compiler.hpp</text>
</a>
</g>
</g>
<!-- Node1&#45;&gt;Node3 -->
<g id="edge2_Node000001_Node000003" class="edge">
<title>Node1&#45;&gt;Node3</title>
<g id="a_edge2_Node000001_Node000003"><a xlink:title=" ">
<path fill="none" stroke="#63b8ff" d="M1028,-110.66C1028,-101.93 1028,-91.99 1028,-85.09"/>
<polygon fill="#63b8ff" stroke="#63b8ff" points="1024.5,-110.75 1028,-120.75 1031.5,-110.75 1024.5,-110.75"/>
</a>
</g>
</g>
<!-- Node12 -->
<g id="Node000012" class="node">
<title>Node12</title>
<g id="a_Node000012"><a xlink:href="compiler_2main_8cpp.html" target="_top" xlink:title=" ">
<polygon fill="white" stroke="#666666" points="2001.5,-24.5 1876.5,-24.5 1876.5,-5.5 2001.5,-5.5 2001.5,-24.5"/>
<text text-anchor="middle" x="1939" y="-12.5" font-family="Helvetica,sans-Serif" font-size="10.00">src/compiler/main.cpp</text>
</a>
</g>
</g>
<!-- Node1&#45;&gt;Node12 -->
<g id="edge16_Node000001_Node000012" class="edge">
<title>Node1&#45;&gt;Node12</title>
<g id="a_edge16_Node000001_Node000012"><a xlink:title=" ">
<path fill="none" stroke="#63b8ff" d="M1106.54,-122.23C1255.52,-107.99 1589.18,-73.94 1868,-30 1877.93,-28.44 1888.59,-26.48 1898.55,-24.53"/>
<polygon fill="#63b8ff" stroke="#63b8ff" points="1106.19,-118.75 1096.57,-123.18 1106.86,-125.71 1106.19,-118.75"/>
</a>
</g>
</g>
<!-- Node3&#45;&gt;Node2 -->
<g id="edge7_Node000003_Node000002" class="edge">
<title>Node3&#45;&gt;Node2</title>
<g id="a_edge7_Node000003_Node000002"><a xlink:title=" ">
<path fill="none" stroke="#63b8ff" d="M946.02,-73.69C790.51,-71.4 442.19,-62.74 151,-30 138.95,-28.65 125.97,-26.62 114.04,-24.53"/>
<polygon fill="#63b8ff" stroke="#63b8ff" points="946.38,-77.19 956.43,-73.83 946.48,-70.19 946.38,-77.19"/>
</a>
</g>
</g>
<!-- Node4 -->
<g id="Node000004" class="node">
<title>Node4</title>
<g id="a_Node000004"><a xlink:href="CompilerSyntaxException_8cpp.html" target="_top" xlink:title=" ">
<polygon fill="white" stroke="#666666" points="318,-30 160,-30 160,0 318,0 318,-30"/>
<text text-anchor="start" x="168" y="-18" font-family="Helvetica,sans-Serif" font-size="10.00">src/compiler/CompilerSyntax</text>
<text text-anchor="middle" x="239" y="-7" font-family="Helvetica,sans-Serif" font-size="10.00">Exception.cpp</text>
</a>
</g>
</g>
<!-- Node3&#45;&gt;Node4 -->
<g id="edge3_Node000003_Node000004" class="edge">
<title>Node3&#45;&gt;Node4</title>
<g id="a_edge3_Node000003_Node000004"><a xlink:title=" ">
<path fill="none" stroke="#63b8ff" d="M945.94,-71.86C814.66,-67.06 549.47,-55.01 326,-30 323.42,-29.71 320.79,-29.4 318.14,-29.07"/>
<polygon fill="#63b8ff" stroke="#63b8ff" points="946.18,-75.37 956.3,-72.23 946.43,-68.38 946.18,-75.37"/>
</a>
</g>
</g>
<!-- Node5 -->
<g id="Node000005" class="node">
<title>Node5</title>
<g id="a_Node000005"><a xlink:href="ast_8cpp.html" target="_top" xlink:title=" ">
<polygon fill="white" stroke="#666666" points="450.5,-24.5 335.5,-24.5 335.5,-5.5 450.5,-5.5 450.5,-24.5"/>
<text text-anchor="middle" x="393" y="-12.5" font-family="Helvetica,sans-Serif" font-size="10.00">src/compiler/ast.cpp</text>
</a>
</g>
</g>
<!-- Node3&#45;&gt;Node5 -->
<g id="edge4_Node000003_Node000005" class="edge">
<title>Node3&#45;&gt;Node5</title>
<g id="a_edge4_Node000003_Node000005"><a xlink:title=" ">
<path fill="none" stroke="#63b8ff" d="M946.15,-71.47C835.27,-66.59 631.37,-54.91 459,-30 449.26,-28.59 438.81,-26.6 429.16,-24.56"/>
<polygon fill="#63b8ff" stroke="#63b8ff" points="946.11,-74.97 956.26,-71.9 946.42,-67.98 946.11,-74.97"/>
</a>
</g>
</g>
<!-- Node6 -->
<g id="Node000006" class="node">
<title>Node6</title>
<g id="a_Node000006"><a xlink:href="compiler_2bytecode_8cpp.html" target="_top" xlink:title=" ">
<polygon fill="white" stroke="#666666" points="613.5,-24.5 468.5,-24.5 468.5,-5.5 613.5,-5.5 613.5,-24.5"/>
<text text-anchor="middle" x="541" y="-12.5" font-family="Helvetica,sans-Serif" font-size="10.00">src/compiler/bytecode.cpp</text>
</a>
</g>
</g>
<!-- Node3&#45;&gt;Node6 -->
<g id="edge5_Node000003_Node000006" class="edge">
<title>Node3&#45;&gt;Node6</title>
<g id="a_edge5_Node000003_Node000006"><a xlink:title=" ">
<path fill="none" stroke="#63b8ff" d="M946.31,-67.05C864.19,-59.2 734.06,-45.81 622,-30 610.84,-28.42 598.85,-26.49 587.61,-24.56"/>
<polygon fill="#63b8ff" stroke="#63b8ff" points="946.04,-70.54 956.33,-68 946.7,-63.57 946.04,-70.54"/>
</a>
</g>
</g>
<!-- Node7 -->
<g id="Node000007" class="node">
<title>Node7</title>
<g id="a_Node000007"><a xlink:href="compile_8cpp.html" target="_top" xlink:title=" ">
<polygon fill="white" stroke="#666666" points="770.5,-24.5 631.5,-24.5 631.5,-5.5 770.5,-5.5 770.5,-24.5"/>
<text text-anchor="middle" x="701" y="-12.5" font-family="Helvetica,sans-Serif" font-size="10.00">src/compiler/compile.cpp</text>
</a>
</g>
</g>
<!-- Node3&#45;&gt;Node7 -->
<g id="edge6_Node000003_Node000007" class="edge">
<title>Node3&#45;&gt;Node7</title>
<g id="a_edge6_Node000003_Node000007"><a xlink:title=" ">
<path fill="none" stroke="#63b8ff" d="M970.2,-64.18C919.73,-55.17 844.51,-41.73 779,-30 769.11,-28.23 758.52,-26.33 748.43,-24.52"/>
<polygon fill="#63b8ff" stroke="#63b8ff" points="969.8,-67.67 980.26,-65.98 971.03,-60.78 969.8,-67.67"/>
</a>
</g>
</g>
<!-- Node8 -->
<g id="Node000008" class="node">
<title>Node8</title>
<g id="a_Node000008"><a xlink:href="functions_8cpp.html" target="_top" xlink:title=" ">
<polygon fill="white" stroke="#666666" points="933.5,-24.5 788.5,-24.5 788.5,-5.5 933.5,-5.5 933.5,-24.5"/>
<text text-anchor="middle" x="861" y="-12.5" font-family="Helvetica,sans-Serif" font-size="10.00">src/compiler/functions.cpp</text>
</a>
</g>
</g>
<!-- Node3&#45;&gt;Node8 -->
<g id="edge8_Node000003_Node000008" class="edge">
<title>Node3&#45;&gt;Node8</title>
<g id="a_edge8_Node000003_Node000008"><a xlink:title=" ">
<path fill="none" stroke="#63b8ff" d="M994.23,-62.67C961.94,-51.36 914.02,-34.57 885.31,-24.52"/>
<polygon fill="#63b8ff" stroke="#63b8ff" points="993.12,-65.99 1003.72,-65.99 995.44,-59.38 993.12,-65.99"/>
</a>
</g>
</g>
<!-- Node9 -->
<g id="Node000009" class="node">
<title>Node9</title>
<g id="a_Node000009"><a xlink:href="instruction_8cpp.html" target="_top" xlink:title=" ">
<polygon fill="white" stroke="#666666" points="1104,-24.5 952,-24.5 952,-5.5 1104,-5.5 1104,-24.5"/>
<text text-anchor="middle" x="1028" y="-12.5" font-family="Helvetica,sans-Serif" font-size="10.00">src/compiler/instruction.cpp</text>
</a>
</g>
</g>
<!-- Node3&#45;&gt;Node9 -->
<g id="edge9_Node000003_Node000009" class="edge">
<title>Node3&#45;&gt;Node9</title>
<g id="a_edge9_Node000003_Node000009"><a xlink:title=" ">
<path fill="none" stroke="#63b8ff" d="M1028,-55.66C1028,-45.24 1028,-32.8 1028,-24.67"/>
<polygon fill="#63b8ff" stroke="#63b8ff" points="1024.5,-55.87 1028,-65.87 1031.5,-55.87 1024.5,-55.87"/>
</a>
</g>
</g>
<!-- Node10 -->
<g id="Node000010" class="node">
<title>Node10</title>
<g id="a_Node000010"><a xlink:href="lexer_8cpp.html" target="_top" xlink:title=" ">
<polygon fill="white" stroke="#666666" points="1245.5,-24.5 1122.5,-24.5 1122.5,-5.5 1245.5,-5.5 1245.5,-24.5"/>
<text text-anchor="middle" x="1184" y="-12.5" font-family="Helvetica,sans-Serif" font-size="10.00">src/compiler/lexer.cpp</text>
</a>
</g>
</g>
<!-- Node3&#45;&gt;Node10 -->
<g id="edge10_Node000003_Node000010" class="edge">
<title>Node3&#45;&gt;Node10</title>
<g id="a_edge10_Node000003_Node000010"><a xlink:title=" ">
<path fill="none" stroke="#63b8ff" d="M1060.33,-62.38C1090.48,-51.07 1134.7,-34.49 1161.29,-24.52"/>
<polygon fill="#63b8ff" stroke="#63b8ff" points="1058.82,-59.21 1050.68,-65.99 1061.28,-65.76 1058.82,-59.21"/>
</a>
</g>
</g>
<!-- Node11 -->
<g id="Node000011" class="node">
<title>Node11</title>
<g id="a_Node000011"><a xlink:href="log_8cpp.html" target="_top" xlink:title=" ">
<polygon fill="white" stroke="#666666" points="1378.5,-24.5 1263.5,-24.5 1263.5,-5.5 1378.5,-5.5 1378.5,-24.5"/>
<text text-anchor="middle" x="1321" y="-12.5" font-family="Helvetica,sans-Serif" font-size="10.00">src/compiler/log.cpp</text>
</a>
</g>
</g>
<!-- Node3&#45;&gt;Node11 -->
<g id="edge11_Node000003_Node000011" class="edge">
<title>Node3&#45;&gt;Node11</title>
<g id="a_edge11_Node000003_Node000011"><a xlink:title=" ">
<path fill="none" stroke="#63b8ff" d="M1082.21,-64.01C1128.01,-55.1 1195.34,-41.9 1254,-30 1262.62,-28.25 1271.85,-26.34 1280.63,-24.52"/>
<polygon fill="#63b8ff" stroke="#63b8ff" points="1081.35,-60.61 1072.2,-65.95 1082.69,-67.48 1081.35,-60.61"/>
</a>
</g>
</g>
<!-- Node3&#45;&gt;Node12 -->
<g id="edge12_Node000003_Node000012" class="edge">
<title>Node3&#45;&gt;Node12</title>
<g id="a_edge12_Node000003_Node000012"><a xlink:title=" ">
<path fill="none" stroke="#63b8ff" d="M1109.75,-74.01C1260.32,-72.25 1591.4,-64.42 1868,-30 1878.72,-28.67 1890.25,-26.65 1900.84,-24.56"/>
<polygon fill="#63b8ff" stroke="#63b8ff" points="1109.62,-70.51 1099.66,-74.12 1109.69,-77.51 1109.62,-70.51"/>
</a>
</g>
</g>
<!-- Node13 -->
<g id="Node000013" class="node">
<title>Node13</title>
<g id="a_Node000013"><a xlink:href="symbol_8cpp.html" target="_top" xlink:title=" ">
<polygon fill="white" stroke="#666666" points="1533,-24.5 1397,-24.5 1397,-5.5 1533,-5.5 1533,-24.5"/>
<text text-anchor="middle" x="1465" y="-12.5" font-family="Helvetica,sans-Serif" font-size="10.00">src/compiler/symbol.cpp</text>
</a>
</g>
</g>
<!-- Node3&#45;&gt;Node13 -->
<g id="edge13_Node000003_Node000013" class="edge">
<title>Node3&#45;&gt;Node13</title>
<g id="a_edge13_Node000003_Node000013"><a xlink:title=" ">
<path fill="none" stroke="#63b8ff" d="M1109.71,-65.65C1182.59,-57.45 1292.11,-44.39 1387,-30 1397.61,-28.39 1409,-26.46 1419.7,-24.56"/>
<polygon fill="#63b8ff" stroke="#63b8ff" points="1109.22,-62.18 1099.68,-66.77 1110,-69.14 1109.22,-62.18"/>
</a>
</g>
</g>
<!-- Node14 -->
<g id="Node000014" class="node">
<title>Node14</title>
<g id="a_Node000014"><a xlink:href="symbol__table_8cpp.html" target="_top" xlink:title=" ">
<polygon fill="white" stroke="#666666" points="1667,-30 1551,-30 1551,0 1667,0 1667,-30"/>
<text text-anchor="start" x="1559" y="-18" font-family="Helvetica,sans-Serif" font-size="10.00">src/compiler/symbol</text>
<text text-anchor="middle" x="1609" y="-7" font-family="Helvetica,sans-Serif" font-size="10.00">_table.cpp</text>
</a>
</g>
</g>
<!-- Node3&#45;&gt;Node14 -->
<g id="edge14_Node000003_Node000014" class="edge">
<title>Node3&#45;&gt;Node14</title>
<g id="a_edge14_Node000003_Node000014"><a xlink:title=" ">
<path fill="none" stroke="#63b8ff" d="M1110.03,-70.43C1211.78,-64.69 1390.36,-52.33 1542,-30 1544.94,-29.57 1547.94,-29.09 1550.97,-28.57"/>
<polygon fill="#63b8ff" stroke="#63b8ff" points="1109.61,-66.95 1099.82,-71 1110,-73.94 1109.61,-66.95"/>
</a>
</g>
</g>
<!-- Node15 -->
<g id="Node000015" class="node">
<title>Node15</title>
<g id="a_Node000015"><a xlink:href="temp__allocator_8cpp.html" target="_top" xlink:title=" ">
<polygon fill="white" stroke="#666666" points="1858.5,-24.5 1685.5,-24.5 1685.5,-5.5 1858.5,-5.5 1858.5,-24.5"/>
<text text-anchor="middle" x="1772" y="-12.5" font-family="Helvetica,sans-Serif" font-size="10.00">src/compiler/temp_allocator.cpp</text>
</a>
</g>
</g>
<!-- Node3&#45;&gt;Node15 -->
<g id="edge15_Node000003_Node000015" class="edge">
<title>Node3&#45;&gt;Node15</title>
<g id="a_edge15_Node000003_Node000015"><a xlink:title=" ">
<path fill="none" stroke="#63b8ff" d="M1109.69,-70.89C1232.74,-65 1472.88,-51.75 1676,-30 1689.82,-28.52 1704.7,-26.54 1718.52,-24.54"/>
<polygon fill="#63b8ff" stroke="#63b8ff" points="1109.41,-67.4 1099.59,-71.37 1109.75,-74.39 1109.41,-67.4"/>
</a>
</g>
</g>
</g>
</svg>
