<?xml version="1.0" encoding="UTF-8" standalone="no"?>
<!DOCTYPE svg PUBLIC "-//W3C//DTD SVG 1.1//EN"
 "http://www.w3.org/Graphics/SVG/1.1/DTD/svg11.dtd">
<!-- Generated by graphviz version 2.43.0 (0)
 -->
<!-- Title: src/compiler/params.hpp Pages: 1 -->
<svg width="1686pt" height="148pt"
 viewBox="0.00 0.00 1685.50 148.00" xmlns="http://www.w3.org/2000/svg" xmlns:xlink="http://www.w3.org/1999/xlink">
<g id="graph0" class="graph" transform="scale(1 1) rotate(0) translate(4 144)">
<title>src/compiler/params.hpp</title>
<!-- Node1 -->
<g id="Node000001" class="node">
<title>Node1</title>
<g id="a_Node000001"><a xlink:title=" ">
<polygon fill="#999999" stroke="#666666" points="929.5,-140 792.5,-140 792.5,-121 929.5,-121 929.5,-140"/>
<text text-anchor="middle" x="861" y="-128" font-family="Helvetica,sans-Serif" font-size="10.00">src/compiler/params.hpp</text>
</a>
</g>
</g>
<!-- Node2 -->
<g id="Node000002" class="node">
<title>Node2</title>
<g id="a_Node000002"><a xlink:href="compiler_8cpp.html" target="_top" xlink:title=" ">
<polygon fill="white" stroke="#666666" points="142,-24.5 0,-24.5 0,-5.5 142,-5.5 142,-24.5"/>
<text text-anchor="middle" x="71" y="-12.5" font-family="Helvetica,sans-Serif" font-size="10.00">src/compiler/compiler.cpp</text>
</a>
</g>
</g>
<!-- Node1&#45;&gt;Node2 -->
<g id="edge1_Node000001_Node000002" class="edge">
<title>Node1&#45;&gt;Node2</title>
<g id="a_edge1_Node000001_Node000002"><a xlink:title=" ">
<path fill="none" stroke="#63b8ff" d="M784.55,-119.65C654.31,-102.69 381.14,-66.25 151,-30 140.41,-28.33 129.06,-26.42 118.33,-24.56"/>
<polygon fill="#63b8ff" stroke="#63b8ff" points="784.45,-123.17 794.82,-120.99 785.35,-116.23 784.45,-123.17"/>
</a>
</g>
</g>
<!-- Node3 -->
<g id="Node000003" class="node">
<title>Node3</title>
<g id="a_Node000003"><a xlink:href="compiler_8hpp.html" target="_top" xlink:title=" ">
<polygon fill="white" stroke="#666666" points="932.5,-85 789.5,-85 789.5,-66 932.5,-66 932.5,-85"/>
<text text-anchor="middle" x="861" y="-73" font-family="Helvetica,sans-Serif" font-size="10.00">src/compiler/compiler.hpp</text>
</a>
</g>
</g>
<!-- Node1&#45;&gt;Node3 -->
<g id="edge2_Node000001_Node000003" class="edge">
<title>Node1&#45;&gt;Node3</title>
<g id="a_edge2_Node000001_Node000003"><a xlink:title=" ">
<path fill="none" stroke="#63b8ff" d="M861,-110.66C861,-101.93 861,-91.99 861,-85.09"/>
<polygon fill="#63b8ff" stroke="#63b8ff" points="857.5,-110.75 861,-120.75 864.5,-110.75 857.5,-110.75"/>
</a>
</g>
</g>
<!-- Node11 -->
<g id="Node000011" class="node">
<title>Node11</title>
<g id="a_Node000011"><a xlink:href="compiler_2main_8cpp.html" target="_top" xlink:title=" ">
<polygon fill="white" stroke="#666666" points="1677.5,-24.5 1552.5,-24.5 1552.5,-5.5 1677.5,-5.5 1677.5,-24.5"/>
<text text-anchor="middle" x="1615" y="-12.5" font-family="Helvetica,sans-Serif" font-size="10.00">src/compiler/main.cpp</text>
</a>
</g>
</g>
<!-- Node1&#45;&gt;Node11 -->
<g id="edge14_Node000001_Node000011" class="edge">
<title>Node1&#45;&gt;Node11</title>
<g id="a_edge14_Node000001_Node000011"><a xlink:title=" ">
<path fill="none" stroke="#63b8ff" d="M936.45,-119.68C1062.41,-103.01 1323.35,-67.36 1543,-30 1552.67,-28.36 1563.03,-26.43 1572.8,-24.55"/>
<polygon fill="#63b8ff" stroke="#63b8ff" points="935.98,-116.21 926.52,-120.99 936.89,-123.15 935.98,-116.21"/>
</a>
</g>
</g>
<!-- Node3&#45;&gt;Node2 -->
<g id="edge7_Node000003_Node000002" class="edge">
<title>Node3&#45;&gt;Node2</title>
<g id="a_edge7_Node000003_Node000002"><a xlink:title=" ">
<path fill="none" stroke="#63b8ff" d="M779.41,-72.32C647.09,-68.13 377.67,-56.85 151,-30 139.1,-28.59 126.28,-26.57 114.47,-24.51"/>
<polygon fill="#63b8ff" stroke="#63b8ff" points="779.36,-75.82 789.47,-72.63 779.58,-68.82 779.36,-75.82"/>
</a>
</g>
</g>
<!-- Node4 -->
<g id="Node000004" class="node">
<title>Node4</title>
<g id="a_Node000004"><a xlink:href="CompilerSyntaxException_8cpp.html" target="_top" xlink:title=" ">
<polygon fill="white" stroke="#666666" points="318,-30 160,-30 160,0 318,0 318,-30"/>
<text text-anchor="start" x="168" y="-18" font-family="Helvetica,sans-Serif" font-size="10.00">src/compiler/CompilerSyntax</text>
<text text-anchor="middle" x="239" y="-7" font-family="Helvetica,sans-Serif" font-size="10.00">Exception.cpp</text>
</a>
</g>
</g>
<!-- Node3&#45;&gt;Node4 -->
<g id="edge3_Node000003_Node000004" class="edge">
<title>Node3&#45;&gt;Node4</title>
<g id="a_edge3_Node000003_Node000004"><a xlink:title=" ">
<path fill="none" stroke="#63b8ff" d="M779.21,-69.65C674.09,-62.97 486.05,-49.5 326,-30 323.42,-29.69 320.8,-29.35 318.15,-29"/>
<polygon fill="#63b8ff" stroke="#63b8ff" points="779.23,-73.16 789.43,-70.29 779.67,-66.17 779.23,-73.16"/>
</a>
</g>
</g>
<!-- Node5 -->
<g id="Node000005" class="node">
<title>Node5</title>
<g id="a_Node000005"><a xlink:href="ast_8cpp.html" target="_top" xlink:title=" ">
<polygon fill="white" stroke="#666666" points="450.5,-24.5 335.5,-24.5 335.5,-5.5 450.5,-5.5 450.5,-24.5"/>
<text text-anchor="middle" x="393" y="-12.5" font-family="Helvetica,sans-Serif" font-size="10.00">src/compiler/ast.cpp</text>
</a>
</g>
</g>
<!-- Node3&#45;&gt;Node5 -->
<g id="edge4_Node000003_Node000005" class="edge">
<title>Node3&#45;&gt;Node5</title>
<g id="a_edge4_Node000003_Node000005"><a xlink:title=" ">
<path fill="none" stroke="#63b8ff" d="M778.99,-67.81C697.53,-60.61 569.19,-47.74 459,-30 449.63,-28.49 439.59,-26.54 430.23,-24.57"/>
<polygon fill="#63b8ff" stroke="#63b8ff" points="778.92,-71.32 789.18,-68.71 779.53,-64.35 778.92,-71.32"/>
</a>
</g>
</g>
<!-- Node6 -->
<g id="Node000006" class="node">
<title>Node6</title>
<g id="a_Node000006"><a xlink:href="compiler_2bytecode_8cpp.html" target="_top" xlink:title=" ">
<polygon fill="white" stroke="#666666" points="613.5,-24.5 468.5,-24.5 468.5,-5.5 613.5,-5.5 613.5,-24.5"/>
<text text-anchor="middle" x="541" y="-12.5" font-family="Helvetica,sans-Serif" font-size="10.00">src/compiler/bytecode.cpp</text>
</a>
</g>
</g>
<!-- Node3&#45;&gt;Node6 -->
<g id="edge5_Node000003_Node000006" class="edge">
<title>Node3&#45;&gt;Node6</title>
<g id="a_edge5_Node000003_Node000006"><a xlink:title=" ">
<path fill="none" stroke="#63b8ff" d="M804.51,-64.17C742.8,-52.89 645.08,-35.03 587.59,-24.52"/>
<polygon fill="#63b8ff" stroke="#63b8ff" points="804,-67.64 814.47,-65.99 805.26,-60.75 804,-67.64"/>
</a>
</g>
</g>
<!-- Node7 -->
<g id="Node000007" class="node">
<title>Node7</title>
<g id="a_Node000007"><a xlink:href="compile_8cpp.html" target="_top" xlink:title=" ">
<polygon fill="white" stroke="#666666" points="770.5,-24.5 631.5,-24.5 631.5,-5.5 770.5,-5.5 770.5,-24.5"/>
<text text-anchor="middle" x="701" y="-12.5" font-family="Helvetica,sans-Serif" font-size="10.00">src/compiler/compile.cpp</text>
</a>
</g>
</g>
<!-- Node3&#45;&gt;Node7 -->
<g id="edge6_Node000003_Node000007" class="edge">
<title>Node3&#45;&gt;Node7</title>
<g id="a_edge6_Node000003_Node000007"><a xlink:title=" ">
<path fill="none" stroke="#63b8ff" d="M828.25,-62.52C797.31,-51.21 751.68,-34.53 724.29,-24.52"/>
<polygon fill="#63b8ff" stroke="#63b8ff" points="827.14,-65.85 837.73,-65.99 829.54,-59.27 827.14,-65.85"/>
</a>
</g>
</g>
<!-- Node8 -->
<g id="Node000008" class="node">
<title>Node8</title>
<g id="a_Node000008"><a xlink:href="functions_8cpp.html" target="_top" xlink:title=" ">
<polygon fill="white" stroke="#666666" points="933.5,-24.5 788.5,-24.5 788.5,-5.5 933.5,-5.5 933.5,-24.5"/>
<text text-anchor="middle" x="861" y="-12.5" font-family="Helvetica,sans-Serif" font-size="10.00">src/compiler/functions.cpp</text>
</a>
</g>
</g>
<!-- Node3&#45;&gt;Node8 -->
<g id="edge8_Node000003_Node000008" class="edge">
<title>Node3&#45;&gt;Node8</title>
<g id="a_edge8_Node000003_Node000008"><a xlink:title=" ">
<path fill="none" stroke="#63b8ff" d="M861,-55.66C861,-45.24 861,-32.8 861,-24.67"/>
<polygon fill="#63b8ff" stroke="#63b8ff" points="857.5,-55.87 861,-65.87 864.5,-55.87 857.5,-55.87"/>
</a>
</g>
</g>
<!-- Node9 -->
<g id="Node000009" class="node">
<title>Node9</title>
<g id="a_Node000009"><a xlink:href="instruction_8cpp.html" target="_top" xlink:title=" ">
<polygon fill="white" stroke="#666666" points="1104,-24.5 952,-24.5 952,-5.5 1104,-5.5 1104,-24.5"/>
<text text-anchor="middle" x="1028" y="-12.5" font-family="Helvetica,sans-Serif" font-size="10.00">src/compiler/instruction.cpp</text>
</a>
</g>
</g>
<!-- Node3&#45;&gt;Node9 -->
<g id="edge9_Node000003_Node000009" class="edge">
<title>Node3&#45;&gt;Node9</title>
<g id="a_edge9_Node000003_Node000009"><a xlink:title=" ">
<path fill="none" stroke="#63b8ff" d="M894.77,-62.67C927.06,-51.36 974.98,-34.57 1003.69,-24.52"/>
<polygon fill="#63b8ff" stroke="#63b8ff" points="893.56,-59.38 885.28,-65.99 895.88,-65.99 893.56,-59.38"/>
</a>
</g>
</g>
<!-- Node10 -->
<g id="Node000010" class="node">
<title>Node10</title>
<g id="a_Node000010"><a xlink:href="lexer_8cpp.html" target="_top" xlink:title=" ">
<polygon fill="white" stroke="#666666" points="1245.5,-24.5 1122.5,-24.5 1122.5,-5.5 1245.5,-5.5 1245.5,-24.5"/>
<text text-anchor="middle" x="1184" y="-12.5" font-family="Helvetica,sans-Serif" font-size="10.00">src/compiler/lexer.cpp</text>
</a>
</g>
</g>
<!-- Node3&#45;&gt;Node10 -->
<g id="edge10_Node000003_Node000010" class="edge">
<title>Node3&#45;&gt;Node10</title>
<g id="a_edge10_Node000003_Node000010"><a xlink:title=" ">
<path fill="none" stroke="#63b8ff" d="M921.14,-64.23C972.24,-55.41 1047.49,-42.24 1113,-30 1122.26,-28.27 1132.19,-26.35 1141.6,-24.5"/>
<polygon fill="#63b8ff" stroke="#63b8ff" points="920.52,-60.78 911.26,-65.93 921.71,-67.68 920.52,-60.78"/>
</a>
</g>
</g>
<!-- Node3&#45;&gt;Node11 -->
<g id="edge11_Node000003_Node000011" class="edge">
<title>Node3&#45;&gt;Node11</title>
<g id="a_edge11_Node000003_Node000011"><a xlink:title=" ">
<path fill="none" stroke="#63b8ff" d="M943.12,-72.5C1071.56,-68.63 1327.6,-57.85 1543,-30 1553.73,-28.61 1565.28,-26.6 1575.91,-24.54"/>
<polygon fill="#63b8ff" stroke="#63b8ff" points="942.86,-69.01 932.97,-72.8 943.07,-76.01 942.86,-69.01"/>
</a>
</g>
</g>
<!-- Node12 -->
<g id="Node000012" class="node">
<title>Node12</title>
<g id="a_Node000012"><a xlink:href="symbol_8cpp.html" target="_top" xlink:title=" ">
<polygon fill="white" stroke="#666666" points="1400,-24.5 1264,-24.5 1264,-5.5 1400,-5.5 1400,-24.5"/>
<text text-anchor="middle" x="1332" y="-12.5" font-family="Helvetica,sans-Serif" font-size="10.00">src/compiler/symbol.cpp</text>
</a>
</g>
</g>
<!-- Node3&#45;&gt;Node12 -->
<g id="edge12_Node000003_Node000012" class="edge">
<title>Node3&#45;&gt;Node12</title>
<g id="a_edge12_Node000003_Node000012"><a xlink:title=" ">
<path fill="none" stroke="#63b8ff" d="M942.71,-66.89C1022.54,-59.08 1147.4,-45.84 1255,-30 1265.75,-28.42 1277.31,-26.46 1288.11,-24.51"/>
<polygon fill="#63b8ff" stroke="#63b8ff" points="942.34,-63.41 932.72,-67.86 943.02,-70.38 942.34,-63.41"/>
</a>
</g>
</g>
<!-- Node13 -->
<g id="Node000013" class="node">
<title>Node13</title>
<g id="a_Node000013"><a xlink:href="symbol__table_8cpp.html" target="_top" xlink:title=" ">
<polygon fill="white" stroke="#666666" points="1534,-30 1418,-30 1418,0 1534,0 1534,-30"/>
<text text-anchor="start" x="1426" y="-18" font-family="Helvetica,sans-Serif" font-size="10.00">src/compiler/symbol</text>
<text text-anchor="middle" x="1476" y="-7" font-family="Helvetica,sans-Serif" font-size="10.00">_table.cpp</text>
</a>
</g>
</g>
<!-- Node3&#45;&gt;Node13 -->
<g id="edge13_Node000003_Node000013" class="edge">
<title>Node3&#45;&gt;Node13</title>
<g id="a_edge13_Node000003_Node000013"><a xlink:title=" ">
<path fill="none" stroke="#63b8ff" d="M942.81,-71.05C1050.24,-65.79 1244.5,-53.77 1409,-30 1411.94,-29.58 1414.95,-29.1 1417.97,-28.59"/>
<polygon fill="#63b8ff" stroke="#63b8ff" points="942.51,-67.56 932.69,-71.54 942.85,-74.55 942.51,-67.56"/>
</a>
</g>
</g>
</g>
</svg>
