<?xml version="1.0" encoding="UTF-8" standalone="no"?>
<!DOCTYPE svg PUBLIC "-//W3C//DTD SVG 1.1//EN"
 "http://www.w3.org/Graphics/SVG/1.1/DTD/svg11.dtd">
<!-- Generated by graphviz version 2.43.0 (0)
 -->
<!-- Title: ULang::Scope::lookup Pages: 1 -->
<svg width="286pt" height="124pt"
 viewBox="0.00 0.00 286.00 124.00" xmlns="http://www.w3.org/2000/svg" xmlns:xlink="http://www.w3.org/1999/xlink">
<g id="graph0" class="graph" transform="scale(1 1) rotate(0) translate(4 120)">
<title>ULang::Scope::lookup</title>
<!-- Node1 -->
<g id="Node000001" class="node">
<title>Node1</title>
<g id="a_Node000001"><a xlink:title=" ">
<polygon fill="#999999" stroke="#666666" points="278,-67.5 157,-67.5 157,-48.5 278,-48.5 278,-67.5"/>
<text text-anchor="middle" x="217.5" y="-55.5" font-family="Helvetica,sans-Serif" font-size="10.00">ULang::Scope::lookup</text>
</a>
</g>
</g>
<!-- Node1&#45;&gt;Node1 -->
<g id="edge1_Node000001_Node000001" class="edge">
<title>Node1&#45;&gt;Node1</title>
<g id="a_edge1_Node000001_Node000001"><a xlink:title=" ">
<path fill="none" stroke="#63b8ff" d="M246.62,-76.32C245.4,-81.51 235.7,-85.5 217.5,-85.5 189.77,-85.5 181.76,-76.23 193.46,-67.58"/>
<polygon fill="#63b8ff" stroke="#63b8ff" points="249.59,-74.47 241.54,-67.58 243.54,-77.99 249.59,-74.47"/>
</a>
</g>
</g>
<!-- Node2 -->
<g id="Node000002" class="node">
<title>Node2</title>
<g id="a_Node000002"><a xlink:href="classULang_1_1SymbolTable.html#a19fb5b1b47d3e13844e01860062a1241" target="_top" xlink:title=" ">
<polygon fill="white" stroke="#666666" points="118.5,-116 2.5,-116 2.5,-86 118.5,-86 118.5,-116"/>
<text text-anchor="start" x="10.5" y="-104" font-family="Helvetica,sans-Serif" font-size="10.00">ULang::SymbolTable</text>
<text text-anchor="middle" x="60.5" y="-93" font-family="Helvetica,sans-Serif" font-size="10.00">::lookup</text>
</a>
</g>
</g>
<!-- Node1&#45;&gt;Node2 -->
<g id="edge2_Node000001_Node000002" class="edge">
<title>Node1&#45;&gt;Node2</title>
<g id="a_edge2_Node000001_Node000002"><a xlink:title=" ">
<path fill="none" stroke="#63b8ff" d="M172.09,-70.32C154.48,-75.21 134.06,-80.87 115.59,-85.99"/>
<polygon fill="#63b8ff" stroke="#63b8ff" points="173.4,-73.59 182.1,-67.54 171.53,-66.84 173.4,-73.59"/>
</a>
</g>
</g>
<!-- Node3 -->
<g id="Node000003" class="node">
<title>Node3</title>
<g id="a_Node000003"><a xlink:href="structULang_1_1Scope.html#a8de957aca07ee4601f6032ad26063dfd" target="_top" xlink:title=" ">
<polygon fill="white" stroke="#666666" points="121,-67.5 0,-67.5 0,-48.5 121,-48.5 121,-67.5"/>
<text text-anchor="middle" x="60.5" y="-55.5" font-family="Helvetica,sans-Serif" font-size="10.00">ULang::Scope::lookup</text>
</a>
</g>
</g>
<!-- Node1&#45;&gt;Node3 -->
<g id="edge3_Node000001_Node000003" class="edge">
<title>Node1&#45;&gt;Node3</title>
<g id="a_edge3_Node000001_Node000003"><a xlink:title=" ">
<path fill="none" stroke="#63b8ff" d="M146.34,-58C137.88,-58 129.3,-58 121.01,-58"/>
<polygon fill="#63b8ff" stroke="#63b8ff" points="146.57,-61.5 156.57,-58 146.57,-54.5 146.57,-61.5"/>
</a>
</g>
</g>
<!-- Node4 -->
<g id="Node000004" class="node">
<title>Node4</title>
<g id="a_Node000004"><a xlink:href="classULang_1_1SymbolTable.html#a7a31dd1e97f816cdbf0f6930577eac9e" target="_top" xlink:title=" ">
<polygon fill="white" stroke="#666666" points="118.5,-30 2.5,-30 2.5,0 118.5,0 118.5,-30"/>
<text text-anchor="start" x="10.5" y="-18" font-family="Helvetica,sans-Serif" font-size="10.00">ULang::SymbolTable</text>
<text text-anchor="middle" x="60.5" y="-7" font-family="Helvetica,sans-Serif" font-size="10.00">::lookup</text>
</a>
</g>
</g>
<!-- Node1&#45;&gt;Node4 -->
<g id="edge4_Node000001_Node000004" class="edge">
<title>Node1&#45;&gt;Node4</title>
<g id="a_edge4_Node000001_Node000004"><a xlink:title=" ">
<path fill="none" stroke="#63b8ff" d="M172.09,-45.68C154.48,-40.79 134.06,-35.13 115.59,-30.01"/>
<polygon fill="#63b8ff" stroke="#63b8ff" points="171.53,-49.16 182.1,-48.46 173.4,-42.41 171.53,-49.16"/>
</a>
</g>
</g>
</g>
</svg>
