<?xml version="1.0" encoding="UTF-8" standalone="no"?>
<!DOCTYPE svg PUBLIC "-//W3C//DTD SVG 1.1//EN"
 "http://www.w3.org/Graphics/SVG/1.1/DTD/svg11.dtd">
<!-- Generated by graphviz version 2.43.0 (0)
 -->
<!-- Title: ULang::Operand::getDataSz Pages: 1 -->
<svg width="327pt" height="76pt"
 viewBox="0.00 0.00 327.00 75.50" xmlns="http://www.w3.org/2000/svg" xmlns:xlink="http://www.w3.org/1999/xlink">
<g id="graph0" class="graph" transform="scale(1 1) rotate(0) translate(4 71.5)">
<title>ULang::Operand::getDataSz</title>
<!-- Node1 -->
<g id="Node000001" class="node">
<title>Node1</title>
<g id="a_Node000001"><a xlink:title="Get the size of operand data.">
<polygon fill="#999999" stroke="#666666" points="319,-40 168,-40 168,-21 319,-21 319,-40"/>
<text text-anchor="middle" x="243.5" y="-28" font-family="Helvetica,sans-Serif" font-size="10.00">ULang::Operand::getDataSz</text>
</a>
</g>
</g>
<!-- Node2 -->
<g id="Node000002" class="node">
<title>Node2</title>
<g id="a_Node000002"><a xlink:href="structULang_1_1Instruction.html#a8aded1339ca253abe18ffbd5ecd34d4c" target="_top" xlink:title="Calculates the total size of instruction in memory, including opcode and operand type/size specifiers...">
<polygon fill="white" stroke="#666666" points="118.5,-67.5 13.5,-67.5 13.5,-37.5 118.5,-37.5 118.5,-67.5"/>
<text text-anchor="start" x="21.5" y="-55.5" font-family="Helvetica,sans-Serif" font-size="10.00">ULang::Instruction</text>
<text text-anchor="middle" x="66" y="-44.5" font-family="Helvetica,sans-Serif" font-size="10.00">::calcTotalSz</text>
</a>
</g>
</g>
<!-- Node1&#45;&gt;Node2 -->
<g id="edge1_Node000001_Node000002" class="edge">
<title>Node1&#45;&gt;Node2</title>
<g id="a_edge1_Node000001_Node000002"><a xlink:title=" ">
<path fill="none" stroke="#63b8ff" d="M157.64,-41.14C144.28,-42.81 130.83,-44.5 118.53,-46.04"/>
<polygon fill="#63b8ff" stroke="#63b8ff" points="158.33,-44.58 167.82,-39.86 157.46,-37.63 158.33,-44.58"/>
</a>
</g>
</g>
<!-- Node3 -->
<g id="Node000003" class="node">
<title>Node3</title>
<g id="a_Node000003"><a xlink:href="namespaceULang.html#a1bd8320a4c2e24898f8cd79c509f15d7" target="_top" xlink:title="Parse the instruction.">
<polygon fill="white" stroke="#666666" points="132,-19 0,-19 0,0 132,0 132,-19"/>
<text text-anchor="middle" x="66" y="-7" font-family="Helvetica,sans-Serif" font-size="10.00">ULang::parseInstruction</text>
</a>
</g>
</g>
<!-- Node1&#45;&gt;Node3 -->
<g id="edge2_Node000001_Node000003" class="edge">
<title>Node1&#45;&gt;Node3</title>
<g id="a_edge2_Node000001_Node000003"><a xlink:title=" ">
<path fill="none" stroke="#63b8ff" d="M157.76,-20.36C149.17,-19.33 140.53,-18.3 132.19,-17.3"/>
<polygon fill="#63b8ff" stroke="#63b8ff" points="157.47,-23.85 167.82,-21.56 158.3,-16.9 157.47,-23.85"/>
</a>
</g>
</g>
</g>
</svg>
