<?xml version="1.0" encoding="UTF-8" standalone="no"?>
<!DOCTYPE svg PUBLIC "-//W3C//DTD SVG 1.1//EN"
 "http://www.w3.org/Graphics/SVG/1.1/DTD/svg11.dtd">
<!-- Generated by graphviz version 2.43.0 (0)
 -->
<!-- Title: ULang::Scope::decl_fn Pages: 1 -->
<svg width="436pt" height="38pt"
 viewBox="0.00 0.00 436.00 38.00" xmlns="http://www.w3.org/2000/svg" xmlns:xlink="http://www.w3.org/1999/xlink">
<g id="graph0" class="graph" transform="scale(1 1) rotate(0) translate(4 34)">
<title>ULang::Scope::decl_fn</title>
<!-- Node1 -->
<g id="Node000001" class="node">
<title>Node1</title>
<g id="a_Node000001"><a xlink:title="Declares a function symbol in current scope.">
<polygon fill="#999999" stroke="#666666" points="124,-24.5 0,-24.5 0,-5.5 124,-5.5 124,-24.5"/>
<text text-anchor="middle" x="62" y="-12.5" font-family="Helvetica,sans-Serif" font-size="10.00">ULang::Scope::decl_fn</text>
</a>
</g>
</g>
<!-- Node2 -->
<g id="Node000002" class="node">
<title>Node2</title>
<g id="a_Node000002"><a xlink:href="classULang_1_1CompilerInstance.html#aaa8966815572b7ad7d45b07fd712d062" target="_top" xlink:title="Check if declaring symbol redeclares builtin symbol, throw exception if so.">
<polygon fill="white" stroke="#666666" points="299,-30 160,-30 160,0 299,0 299,-30"/>
<text text-anchor="start" x="168" y="-18" font-family="Helvetica,sans-Serif" font-size="10.00">ULang::CompilerInstance</text>
<text text-anchor="middle" x="229.5" y="-7" font-family="Helvetica,sans-Serif" font-size="10.00">::checkBuiltinRedecl</text>
</a>
</g>
</g>
<!-- Node1&#45;&gt;Node2 -->
<g id="edge1_Node000001_Node000002" class="edge">
<title>Node1&#45;&gt;Node2</title>
<g id="a_edge1_Node000001_Node000002"><a xlink:title=" ">
<path fill="none" stroke="#63b8ff" d="M124.16,-15C132.49,-15 141.15,-15 149.74,-15"/>
<polygon fill="#63b8ff" stroke="#63b8ff" points="149.79,-18.5 159.79,-15 149.79,-11.5 149.79,-18.5"/>
</a>
</g>
</g>
<!-- Node3 -->
<g id="Node000003" class="node">
<title>Node3</title>
<g id="a_Node000003"><a xlink:href="namespaceULang.html#a225f15e1428e44bc79a8278e653bbd0d" target="_top" xlink:title=" ">
<polygon fill="white" stroke="#666666" points="428,-24.5 335,-24.5 335,-5.5 428,-5.5 428,-24.5"/>
<text text-anchor="middle" x="381.5" y="-12.5" font-family="Helvetica,sans-Serif" font-size="10.00">ULang::isBuiltin</text>
</a>
</g>
</g>
<!-- Node2&#45;&gt;Node3 -->
<g id="edge2_Node000002_Node000003" class="edge">
<title>Node2&#45;&gt;Node3</title>
<g id="a_edge2_Node000002_Node000003"><a xlink:title=" ">
<path fill="none" stroke="#63b8ff" d="M299.35,-15C307.8,-15 316.35,-15 324.58,-15"/>
<polygon fill="#63b8ff" stroke="#63b8ff" points="324.79,-18.5 334.79,-15 324.79,-11.5 324.79,-18.5"/>
</a>
</g>
</g>
</g>
</svg>
