<?xml version="1.0" encoding="UTF-8" standalone="no"?>
<!DOCTYPE svg PUBLIC "-//W3C//DTD SVG 1.1//EN"
 "http://www.w3.org/Graphics/SVG/1.1/DTD/svg11.dtd">
<!-- Generated by graphviz version 2.43.0 (0)
 -->
<!-- Title: ULang::Scope::decl Pages: 1 -->
<svg width="421pt" height="38pt"
 viewBox="0.00 0.00 421.00 38.00" xmlns="http://www.w3.org/2000/svg" xmlns:xlink="http://www.w3.org/1999/xlink">
<g id="graph0" class="graph" transform="scale(1 1) rotate(0) translate(4 34)">
<title>ULang::Scope::decl</title>
<!-- Node1 -->
<g id="Node000001" class="node">
<title>Node1</title>
<g id="a_Node000001"><a xlink:title="Declares a symbol in current scope.">
<polygon fill="#999999" stroke="#666666" points="109,-24.5 0,-24.5 0,-5.5 109,-5.5 109,-24.5"/>
<text text-anchor="middle" x="54.5" y="-12.5" font-family="Helvetica,sans-Serif" font-size="10.00">ULang::Scope::decl</text>
</a>
</g>
</g>
<!-- Node2 -->
<g id="Node000002" class="node">
<title>Node2</title>
<g id="a_Node000002"><a xlink:href="classULang_1_1CompilerInstance.html#aaa8966815572b7ad7d45b07fd712d062" target="_top" xlink:title="Check if declaring symbol redeclares builtin symbol, throw exception if so.">
<polygon fill="white" stroke="#666666" points="284,-30 145,-30 145,0 284,0 284,-30"/>
<text text-anchor="start" x="153" y="-18" font-family="Helvetica,sans-Serif" font-size="10.00">ULang::CompilerInstance</text>
<text text-anchor="middle" x="214.5" y="-7" font-family="Helvetica,sans-Serif" font-size="10.00">::checkBuiltinRedecl</text>
</a>
</g>
</g>
<!-- Node1&#45;&gt;Node2 -->
<g id="edge1_Node000001_Node000002" class="edge">
<title>Node1&#45;&gt;Node2</title>
<g id="a_edge1_Node000001_Node000002"><a xlink:title=" ">
<path fill="none" stroke="#63b8ff" d="M109.43,-15C117.59,-15 126.15,-15 134.71,-15"/>
<polygon fill="#63b8ff" stroke="#63b8ff" points="134.72,-18.5 144.72,-15 134.72,-11.5 134.72,-18.5"/>
</a>
</g>
</g>
<!-- Node3 -->
<g id="Node000003" class="node">
<title>Node3</title>
<g id="a_Node000003"><a xlink:href="namespaceULang.html#a225f15e1428e44bc79a8278e653bbd0d" target="_top" xlink:title=" ">
<polygon fill="white" stroke="#666666" points="413,-24.5 320,-24.5 320,-5.5 413,-5.5 413,-24.5"/>
<text text-anchor="middle" x="366.5" y="-12.5" font-family="Helvetica,sans-Serif" font-size="10.00">ULang::isBuiltin</text>
</a>
</g>
</g>
<!-- Node2&#45;&gt;Node3 -->
<g id="edge2_Node000002_Node000003" class="edge">
<title>Node2&#45;&gt;Node3</title>
<g id="a_edge2_Node000002_Node000003"><a xlink:title=" ">
<path fill="none" stroke="#63b8ff" d="M284.35,-15C292.8,-15 301.35,-15 309.58,-15"/>
<polygon fill="#63b8ff" stroke="#63b8ff" points="309.79,-18.5 319.79,-15 309.79,-11.5 309.79,-18.5"/>
</a>
</g>
</g>
</g>
</svg>
