<?xml version="1.0" encoding="UTF-8" standalone="no"?>
<!DOCTYPE svg PUBLIC "-//W3C//DTD SVG 1.1//EN"
 "http://www.w3.org/Graphics/SVG/1.1/DTD/svg11.dtd">
<!-- Generated by graphviz version 2.43.0 (0)
 -->
<!-- Title: ULang::ASTNode Pages: 1 -->
<svg width="254pt" height="184pt"
 viewBox="0.00 0.00 253.50 184.00" xmlns="http://www.w3.org/2000/svg" xmlns:xlink="http://www.w3.org/1999/xlink">
<g id="graph0" class="graph" transform="scale(1 1) rotate(0) translate(4 180)">
<title>ULang::ASTNode</title>
<!-- Node1 -->
<g id="Node000001" class="node">
<title>Node1</title>
<g id="a_Node000001"><a xlink:title="AST nodes.">
<polygon fill="#999999" stroke="#666666" points="133.5,-26 35.5,-26 35.5,-7 133.5,-7 133.5,-26"/>
<text text-anchor="middle" x="84.5" y="-14" font-family="Helvetica,sans-Serif" font-size="10.00">ULang::ASTNode</text>
</a>
</g>
</g>
<!-- Node1&#45;&gt;Node1 -->
<g id="edge1_Node000001_Node000001" class="edge">
<title>Node1&#45;&gt;Node1</title>
<g id="a_edge1_Node000001_Node000001"><a xlink:title=" ">
<path fill="none" stroke="#9a32cd" stroke-dasharray="5,2" d="M143.46,-22.89C148.42,-21.52 151.5,-19.39 151.5,-16.5 151.5,-11.99 143.99,-9.33 133.58,-8.52"/>
<polygon fill="#9a32cd" stroke="#9a32cd" points="142.9,-19.44 133.58,-24.48 144.01,-26.35 142.9,-19.44"/>
</a>
</g>
<text text-anchor="middle" x="175" y="-25" font-family="Helvetica,sans-Serif" font-size="10.00" fill="grey"> initial</text>
<text text-anchor="middle" x="175" y="-14" font-family="Helvetica,sans-Serif" font-size="10.00" fill="grey">lefthand</text>
<text text-anchor="middle" x="175" y="-3" font-family="Helvetica,sans-Serif" font-size="10.00" fill="grey">righthand</text>
</g>
<!-- Node2 -->
<g id="Node000002" class="node">
<title>Node2</title>
<g id="a_Node000002"><a xlink:href="structULang_1_1Symbol.html" target="_top" xlink:title=" ">
<polygon fill="white" stroke="#666666" points="201.5,-110 111.5,-110 111.5,-91 201.5,-91 201.5,-110"/>
<text text-anchor="middle" x="156.5" y="-98" font-family="Helvetica,sans-Serif" font-size="10.00">ULang::Symbol</text>
</a>
</g>
</g>
<!-- Node2&#45;&gt;Node1 -->
<g id="edge2_Node000001_Node000002" class="edge">
<title>Node2&#45;&gt;Node1</title>
<g id="a_edge2_Node000001_Node000002"><a xlink:title=" ">
<path fill="none" stroke="#9a32cd" stroke-dasharray="5,2" d="M142.14,-83.14C127.09,-66 104.02,-39.74 92.15,-26.21"/>
<polygon fill="#9a32cd" stroke="#9a32cd" points="139.57,-85.52 148.79,-90.72 144.83,-80.9 139.57,-85.52"/>
</a>
</g>
<text text-anchor="middle" x="169" y="-65" font-family="Helvetica,sans-Serif" font-size="10.00" fill="grey"> symbol</text>
<text text-anchor="middle" x="169" y="-54" font-family="Helvetica,sans-Serif" font-size="10.00" fill="grey">target_symbol</text>
</g>
<!-- Node3 -->
<g id="Node000003" class="node">
<title>Node3</title>
<g id="a_Node000003"><a xlink:href="structULang_1_1DataType.html" target="_top" xlink:title=" ">
<polygon fill="white" stroke="#666666" points="99,-176 0,-176 0,-157 99,-157 99,-176"/>
<text text-anchor="middle" x="49.5" y="-164" font-family="Helvetica,sans-Serif" font-size="10.00">ULang::DataType</text>
</a>
</g>
</g>
<!-- Node3&#45;&gt;Node1 -->
<g id="edge5_Node000001_Node000003" class="edge">
<title>Node3&#45;&gt;Node1</title>
<g id="a_edge5_Node000001_Node000003"><a xlink:title=" ">
<path fill="none" stroke="#9a32cd" stroke-dasharray="5,2" d="M50.64,-146.51C51.82,-131.33 54.14,-109.6 58.5,-91 64.12,-67.02 74.89,-39.98 80.65,-26.36"/>
<polygon fill="#9a32cd" stroke="#9a32cd" points="47.13,-146.46 49.94,-156.67 54.12,-146.94 47.13,-146.46"/>
</a>
</g>
<text text-anchor="middle" x="80.5" y="-98" font-family="Helvetica,sans-Serif" font-size="10.00" fill="grey"> ret_type</text>
</g>
<!-- Node3&#45;&gt;Node2 -->
<g id="edge3_Node000002_Node000003" class="edge">
<title>Node3&#45;&gt;Node2</title>
<g id="a_edge3_Node000002_Node000003"><a xlink:title=" ">
<path fill="none" stroke="#9a32cd" stroke-dasharray="5,2" d="M72.59,-151.69C93.65,-139.09 124.11,-120.87 141.96,-110.2"/>
<polygon fill="#9a32cd" stroke="#9a32cd" points="70.72,-148.73 63.93,-156.87 74.31,-154.74 70.72,-148.73"/>
</a>
</g>
<text text-anchor="middle" x="122" y="-131" font-family="Helvetica,sans-Serif" font-size="10.00" fill="grey"> type</text>
</g>
<!-- Node4 -->
<g id="Node000004" class="node">
<title>Node4</title>
<g id="a_Node000004"><a xlink:href="structULang_1_1SourceLocation.html" target="_top" xlink:title=" ">
<polygon fill="white" stroke="#666666" points="245.5,-176 117.5,-176 117.5,-157 245.5,-157 245.5,-176"/>
<text text-anchor="middle" x="181.5" y="-164" font-family="Helvetica,sans-Serif" font-size="10.00">ULang::SourceLocation</text>
</a>
</g>
</g>
<!-- Node4&#45;&gt;Node2 -->
<g id="edge4_Node000002_Node000004" class="edge">
<title>Node4&#45;&gt;Node2</title>
<g id="a_edge4_Node000002_Node000004"><a xlink:title=" ">
<path fill="none" stroke="#9a32cd" stroke-dasharray="5,2" d="M174.4,-147.32C169.68,-135.24 163.69,-119.91 159.98,-110.41"/>
<polygon fill="#9a32cd" stroke="#9a32cd" points="171.23,-148.83 178.13,-156.87 177.75,-146.28 171.23,-148.83"/>
</a>
</g>
<text text-anchor="middle" x="187.5" y="-131" font-family="Helvetica,sans-Serif" font-size="10.00" fill="grey"> where</text>
</g>
</g>
</svg>
