<?xml version="1.0" encoding="UTF-8" standalone="no"?>
<!DOCTYPE svg PUBLIC "-//W3C//DTD SVG 1.1//EN"
 "http://www.w3.org/Graphics/SVG/1.1/DTD/svg11.dtd">
<!-- Generated by graphviz version 2.43.0 (0)
 -->
<!-- Title: ULang::ASTNode Pages: 1 -->
<svg width="254pt" height="173pt"
 viewBox="0.00 0.00 253.50 173.00" xmlns="http://www.w3.org/2000/svg" xmlns:xlink="http://www.w3.org/1999/xlink">
<g id="graph0" class="graph" transform="scale(1 1) rotate(0) translate(4 169)">
<title>ULang::ASTNode</title>
<!-- Node1 -->
<g id="Node000001" class="node">
<title>Node1</title>
<g id="a_Node000001"><a xlink:title="AST nodes.">
<polygon fill="#999999" stroke="#666666" points="164.5,-26 66.5,-26 66.5,-7 164.5,-7 164.5,-26"/>
<text text-anchor="middle" x="115.5" y="-14" font-family="Helvetica,sans-Serif" font-size="10.00">ULang::ASTNode</text>
</a>
</g>
</g>
<!-- Node1&#45;&gt;Node1 -->
<g id="edge1_Node000001_Node000001" class="edge">
<title>Node1&#45;&gt;Node1</title>
<g id="a_edge1_Node000001_Node000001"><a xlink:title=" ">
<path fill="none" stroke="#9a32cd" stroke-dasharray="5,2" d="M174.82,-22.22C179.56,-20.97 182.5,-19.06 182.5,-16.5 182.5,-12.4 174.99,-9.98 164.58,-9.24"/>
<polygon fill="#9a32cd" stroke="#9a32cd" points="173.95,-18.81 164.58,-23.76 174.99,-25.73 173.95,-18.81"/>
</a>
</g>
<text text-anchor="middle" x="206" y="-25" font-family="Helvetica,sans-Serif" font-size="10.00" fill="grey"> initial</text>
<text text-anchor="middle" x="206" y="-14" font-family="Helvetica,sans-Serif" font-size="10.00" fill="grey">lefthand</text>
<text text-anchor="middle" x="206" y="-3" font-family="Helvetica,sans-Serif" font-size="10.00" fill="grey">righthand</text>
</g>
<!-- Node2 -->
<g id="Node000002" class="node">
<title>Node2</title>
<g id="a_Node000002"><a xlink:href="structULang_1_1Symbol.html" target="_top" xlink:title=" ">
<polygon fill="white" stroke="#666666" points="160.5,-99 70.5,-99 70.5,-80 160.5,-80 160.5,-99"/>
<text text-anchor="middle" x="115.5" y="-87" font-family="Helvetica,sans-Serif" font-size="10.00">ULang::Symbol</text>
</a>
</g>
</g>
<!-- Node2&#45;&gt;Node1 -->
<g id="edge2_Node000001_Node000002" class="edge">
<title>Node2&#45;&gt;Node1</title>
<g id="a_edge2_Node000001_Node000002"><a xlink:title=" ">
<path fill="none" stroke="#9a32cd" stroke-dasharray="5,2" d="M115.5,-69.73C115.5,-55.66 115.5,-37.06 115.5,-26.28"/>
<polygon fill="#9a32cd" stroke="#9a32cd" points="112,-69.79 115.5,-79.79 119,-69.79 112,-69.79"/>
</a>
</g>
<text text-anchor="middle" x="135.5" y="-54" font-family="Helvetica,sans-Serif" font-size="10.00" fill="grey"> symbol</text>
</g>
<!-- Node3 -->
<g id="Node000003" class="node">
<title>Node3</title>
<g id="a_Node000003"><a xlink:href="structULang_1_1DataType.html" target="_top" xlink:title=" ">
<polygon fill="white" stroke="#666666" points="99,-165 0,-165 0,-146 99,-146 99,-165"/>
<text text-anchor="middle" x="49.5" y="-153" font-family="Helvetica,sans-Serif" font-size="10.00">ULang::DataType</text>
</a>
</g>
</g>
<!-- Node3&#45;&gt;Node2 -->
<g id="edge3_Node000002_Node000003" class="edge">
<title>Node3&#45;&gt;Node2</title>
<g id="a_edge3_Node000002_Node000003"><a xlink:title=" ">
<path fill="none" stroke="#9a32cd" stroke-dasharray="5,2" d="M65.66,-138.83C78.44,-126.44 95.82,-109.59 106.32,-99.41"/>
<polygon fill="#9a32cd" stroke="#9a32cd" points="63.14,-136.39 58.4,-145.87 68.02,-141.42 63.14,-136.39"/>
</a>
</g>
<text text-anchor="middle" x="99" y="-120" font-family="Helvetica,sans-Serif" font-size="10.00" fill="grey"> type</text>
</g>
<!-- Node4 -->
<g id="Node000004" class="node">
<title>Node4</title>
<g id="a_Node000004"><a xlink:href="structULang_1_1SourceLocation.html" target="_top" xlink:title=" ">
<polygon fill="white" stroke="#666666" points="245.5,-165 117.5,-165 117.5,-146 245.5,-146 245.5,-165"/>
<text text-anchor="middle" x="181.5" y="-153" font-family="Helvetica,sans-Serif" font-size="10.00">ULang::SourceLocation</text>
</a>
</g>
</g>
<!-- Node4&#45;&gt;Node2 -->
<g id="edge4_Node000002_Node000004" class="edge">
<title>Node4&#45;&gt;Node2</title>
<g id="a_edge4_Node000002_Node000004"><a xlink:title=" ">
<path fill="none" stroke="#9a32cd" stroke-dasharray="5,2" d="M165.34,-138.83C152.56,-126.44 135.18,-109.59 124.68,-99.41"/>
<polygon fill="#9a32cd" stroke="#9a32cd" points="162.98,-141.42 172.6,-145.87 167.86,-136.39 162.98,-141.42"/>
</a>
</g>
<text text-anchor="middle" x="168.5" y="-120" font-family="Helvetica,sans-Serif" font-size="10.00" fill="grey"> where</text>
</g>
</g>
</svg>
