<?xml version="1.0" encoding="UTF-8" standalone="no"?>
<!DOCTYPE svg PUBLIC "-//W3C//DTD SVG 1.1//EN"
 "http://www.w3.org/Graphics/SVG/1.1/DTD/svg11.dtd">
<!-- Generated by graphviz version 2.43.0 (0)
 -->
<!-- Title: ULang::Symbol Pages: 1 -->
<svg width="254pt" height="93pt"
 viewBox="0.00 0.00 253.50 93.00" xmlns="http://www.w3.org/2000/svg" xmlns:xlink="http://www.w3.org/1999/xlink">
<g id="graph0" class="graph" transform="scale(1 1) rotate(0) translate(4 89)">
<title>ULang::Symbol</title>
<!-- Node1 -->
<g id="Node000001" class="node">
<title>Node1</title>
<g id="a_Node000001"><a xlink:title=" ">
<polygon fill="#999999" stroke="#666666" points="160.5,-19 70.5,-19 70.5,0 160.5,0 160.5,-19"/>
<text text-anchor="middle" x="115.5" y="-7" font-family="Helvetica,sans-Serif" font-size="10.00">ULang::Symbol</text>
</a>
</g>
</g>
<!-- Node2 -->
<g id="Node000002" class="node">
<title>Node2</title>
<g id="a_Node000002"><a xlink:href="structULang_1_1DataType.html" target="_top" xlink:title=" ">
<polygon fill="white" stroke="#666666" points="99,-85 0,-85 0,-66 99,-66 99,-85"/>
<text text-anchor="middle" x="49.5" y="-73" font-family="Helvetica,sans-Serif" font-size="10.00">ULang::DataType</text>
</a>
</g>
</g>
<!-- Node2&#45;&gt;Node1 -->
<g id="edge1_Node000001_Node000002" class="edge">
<title>Node2&#45;&gt;Node1</title>
<g id="a_edge1_Node000001_Node000002"><a xlink:title=" ">
<path fill="none" stroke="#9a32cd" stroke-dasharray="5,2" d="M65.66,-58.83C78.44,-46.44 95.82,-29.59 106.32,-19.41"/>
<polygon fill="#9a32cd" stroke="#9a32cd" points="63.14,-56.39 58.4,-65.87 68.02,-61.42 63.14,-56.39"/>
</a>
</g>
<text text-anchor="middle" x="99" y="-40" font-family="Helvetica,sans-Serif" font-size="10.00" fill="grey"> type</text>
</g>
<!-- Node3 -->
<g id="Node000003" class="node">
<title>Node3</title>
<g id="a_Node000003"><a xlink:href="structULang_1_1SourceLocation.html" target="_top" xlink:title=" ">
<polygon fill="white" stroke="#666666" points="245.5,-85 117.5,-85 117.5,-66 245.5,-66 245.5,-85"/>
<text text-anchor="middle" x="181.5" y="-73" font-family="Helvetica,sans-Serif" font-size="10.00">ULang::SourceLocation</text>
</a>
</g>
</g>
<!-- Node3&#45;&gt;Node1 -->
<g id="edge2_Node000001_Node000003" class="edge">
<title>Node3&#45;&gt;Node1</title>
<g id="a_edge2_Node000001_Node000003"><a xlink:title=" ">
<path fill="none" stroke="#9a32cd" stroke-dasharray="5,2" d="M165.34,-58.83C152.56,-46.44 135.18,-29.59 124.68,-19.41"/>
<polygon fill="#9a32cd" stroke="#9a32cd" points="162.98,-61.42 172.6,-65.87 167.86,-56.39 162.98,-61.42"/>
</a>
</g>
<text text-anchor="middle" x="168.5" y="-40" font-family="Helvetica,sans-Serif" font-size="10.00" fill="grey"> where</text>
</g>
</g>
</svg>
