<?xml version="1.0" encoding="UTF-8" standalone="no"?>
<!DOCTYPE svg PUBLIC "-//W3C//DTD SVG 1.1//EN"
 "http://www.w3.org/Graphics/SVG/1.1/DTD/svg11.dtd">
<!-- Generated by graphviz version 2.43.0 (0)
 -->
<!-- Title: ULang::Scope::lookup Pages: 1 -->
<svg width="286pt" height="45pt"
 viewBox="0.00 0.00 286.00 45.00" xmlns="http://www.w3.org/2000/svg" xmlns:xlink="http://www.w3.org/1999/xlink">
<g id="graph0" class="graph" transform="scale(1 1) rotate(0) translate(4 41)">
<title>ULang::Scope::lookup</title>
<!-- Node1 -->
<g id="Node000001" class="node">
<title>Node1</title>
<g id="a_Node000001"><a xlink:title=" ">
<polygon fill="#999999" stroke="#666666" points="121,-19 0,-19 0,0 121,0 121,-19"/>
<text text-anchor="middle" x="60.5" y="-7" font-family="Helvetica,sans-Serif" font-size="10.00">ULang::Scope::lookup</text>
</a>
</g>
</g>
<!-- Node2 -->
<g id="Node000002" class="node">
<title>Node2</title>
<g id="a_Node000002"><a xlink:href="structULang_1_1Scope.html#af3efbd04bbca65236e196aadda6c05d0" target="_top" xlink:title=" ">
<polygon fill="white" stroke="#666666" points="278,-19 157,-19 157,0 278,0 278,-19"/>
<text text-anchor="middle" x="217.5" y="-7" font-family="Helvetica,sans-Serif" font-size="10.00">ULang::Scope::lookup</text>
</a>
</g>
</g>
<!-- Node1&#45;&gt;Node2 -->
<g id="edge1_Node000001_Node000002" class="edge">
<title>Node1&#45;&gt;Node2</title>
<g id="a_edge1_Node000001_Node000002"><a xlink:title=" ">
<path fill="none" stroke="#63b8ff" d="M121.43,-9.5C129.72,-9.5 138.31,-9.5 146.76,-9.5"/>
<polygon fill="#63b8ff" stroke="#63b8ff" points="146.99,-13 156.99,-9.5 146.99,-6 146.99,-13"/>
</a>
</g>
</g>
<!-- Node2&#45;&gt;Node2 -->
<g id="edge2_Node000002_Node000002" class="edge">
<title>Node2&#45;&gt;Node2</title>
<g id="a_edge2_Node000002_Node000002"><a xlink:title=" ">
<path fill="none" stroke="#63b8ff" d="M193.46,-19.08C181.76,-27.73 189.77,-37 217.5,-37 235.7,-37 245.4,-33.01 246.62,-27.82"/>
<polygon fill="#63b8ff" stroke="#63b8ff" points="249.59,-25.97 241.54,-19.08 243.54,-29.49 249.59,-25.97"/>
</a>
</g>
</g>
</g>
</svg>
