<?xml version="1.0" encoding="UTF-8" standalone="no"?>
<!DOCTYPE svg PUBLIC "-//W3C//DTD SVG 1.1//EN"
 "http://www.w3.org/Graphics/SVG/1.1/DTD/svg11.dtd">
<!-- Generated by graphviz version 2.43.0 (0)
 -->
<!-- Title: src/compiler/symbol.cpp Pages: 1 -->
<svg width="662pt" height="192pt"
 viewBox="0.00 0.00 661.67 192.00" xmlns="http://www.w3.org/2000/svg" xmlns:xlink="http://www.w3.org/1999/xlink">
<g id="graph0" class="graph" transform="scale(1 1) rotate(0) translate(4 188)">
<title>src/compiler/symbol.cpp</title>
<!-- Node1 -->
<g id="Node000001" class="node">
<title>Node1</title>
<g id="a_Node000001"><a xlink:title=" ">
<polygon fill="#999999" stroke="#666666" points="396.84,-184 260.84,-184 260.84,-165 396.84,-165 396.84,-184"/>
<text text-anchor="middle" x="328.84" y="-172" font-family="Helvetica,sans-Serif" font-size="10.00">src/compiler/symbol.cpp</text>
</a>
</g>
</g>
<!-- Node2 -->
<g id="Node000002" class="node">
<title>Node2</title>
<g id="a_Node000002"><a xlink:href="compiler_8hpp.html" target="_top" xlink:title=" ">
<polygon fill="white" stroke="#666666" points="327.84,-129 247.84,-129 247.84,-110 327.84,-110 327.84,-129"/>
<text text-anchor="middle" x="287.84" y="-117" font-family="Helvetica,sans-Serif" font-size="10.00">compiler.hpp</text>
</a>
</g>
</g>
<!-- Node1&#45;&gt;Node2 -->
<g id="edge1_Node000001_Node000002" class="edge">
<title>Node1&#45;&gt;Node2</title>
<g id="a_edge1_Node000001_Node000002"><a xlink:title=" ">
<path fill="none" stroke="#63b8ff" d="M322.07,-164.75C316.28,-157.26 307.79,-146.28 300.71,-137.13"/>
<polygon fill="#63b8ff" stroke="#63b8ff" points="303.37,-134.86 294.49,-129.09 297.84,-139.14 303.37,-134.86"/>
</a>
</g>
</g>
<!-- Node4 -->
<g id="Node000004" class="node">
<title>Node4</title>
<g id="a_Node000004"><a xlink:title=" ">
<polygon fill="#e0e0e0" stroke="#999999" points="51.84,-19 1.84,-19 1.84,0 51.84,0 51.84,-19"/>
<text text-anchor="middle" x="26.84" y="-7" font-family="Helvetica,sans-Serif" font-size="10.00">cstdint</text>
</a>
</g>
</g>
<!-- Node1&#45;&gt;Node4 -->
<g id="edge19_Node000001_Node000004" class="edge">
<title>Node1&#45;&gt;Node4</title>
<g id="a_edge19_Node000001_Node000004"><a xlink:title=" ">
<path fill="none" stroke="#63b8ff" d="M275.7,-164.95C192.41,-150.33 37.24,-117.83 4.84,-74 -5.51,-59.99 3.7,-40.73 13.17,-27.1"/>
<polygon fill="#63b8ff" stroke="#63b8ff" points="16,-29.16 19.23,-19.07 10.41,-24.94 16,-29.16"/>
</a>
</g>
</g>
<!-- Node13 -->
<g id="Node000013" class="node">
<title>Node13</title>
<g id="a_Node000013"><a xlink:title=" ">
<polygon fill="#e0e0e0" stroke="#999999" points="395.84,-129 345.84,-129 345.84,-110 395.84,-110 395.84,-129"/>
<text text-anchor="middle" x="370.84" y="-117" font-family="Helvetica,sans-Serif" font-size="10.00">cstring</text>
</a>
</g>
</g>
<!-- Node1&#45;&gt;Node13 -->
<g id="edge20_Node000001_Node000013" class="edge">
<title>Node1&#45;&gt;Node13</title>
<g id="a_edge20_Node000001_Node000013"><a xlink:title=" ">
<path fill="none" stroke="#63b8ff" d="M335.78,-164.75C341.71,-157.26 350.42,-146.28 357.67,-137.13"/>
<polygon fill="#63b8ff" stroke="#63b8ff" points="360.57,-139.1 364.04,-129.09 355.08,-134.75 360.57,-139.1"/>
</a>
</g>
</g>
<!-- Node14 -->
<g id="Node000014" class="node">
<title>Node14</title>
<g id="a_Node000014"><a xlink:title=" ">
<polygon fill="#e0e0e0" stroke="#999999" points="479.34,-129 414.34,-129 414.34,-110 479.34,-110 479.34,-129"/>
<text text-anchor="middle" x="446.84" y="-117" font-family="Helvetica,sans-Serif" font-size="10.00">stdexcept</text>
</a>
</g>
</g>
<!-- Node1&#45;&gt;Node14 -->
<g id="edge21_Node000001_Node000014" class="edge">
<title>Node1&#45;&gt;Node14</title>
<g id="a_edge21_Node000001_Node000014"><a xlink:title=" ">
<path fill="none" stroke="#63b8ff" d="M347.8,-164.98C366.87,-156.42 396.5,-143.11 418.39,-133.28"/>
<polygon fill="#63b8ff" stroke="#63b8ff" points="419.85,-136.46 427.54,-129.17 416.98,-130.07 419.85,-136.46"/>
</a>
</g>
</g>
<!-- Node3 -->
<g id="Node000003" class="node">
<title>Node3</title>
<g id="a_Node000003"><a xlink:href="bytecode_8hpp.html" target="_top" xlink:title=" ">
<polygon fill="white" stroke="#666666" points="189.34,-74 106.34,-74 106.34,-55 189.34,-55 189.34,-74"/>
<text text-anchor="middle" x="147.84" y="-62" font-family="Helvetica,sans-Serif" font-size="10.00">bytecode.hpp</text>
</a>
</g>
</g>
<!-- Node2&#45;&gt;Node3 -->
<g id="edge2_Node000002_Node000003" class="edge">
<title>Node2&#45;&gt;Node3</title>
<g id="a_edge2_Node000002_Node000003"><a xlink:title=" ">
<path fill="none" stroke="#63b8ff" d="M265.35,-109.98C242.32,-101.27 206.3,-87.63 180.21,-77.75"/>
<polygon fill="#63b8ff" stroke="#63b8ff" points="181.34,-74.44 170.75,-74.17 178.86,-80.98 181.34,-74.44"/>
</a>
</g>
</g>
<!-- Node2&#45;&gt;Node4 -->
<g id="edge13_Node000002_Node000004" class="edge">
<title>Node2&#45;&gt;Node4</title>
<g id="a_edge13_Node000002_Node000004"><a xlink:title=" ">
<path fill="none" stroke="#63b8ff" d="M247.7,-118.09C178.99,-116.43 43.39,-108.73 13.84,-74 3.05,-61.31 9.09,-42.06 16.1,-28.08"/>
<polygon fill="#63b8ff" stroke="#63b8ff" points="19.35,-29.44 21.15,-19 13.23,-26.04 19.35,-29.44"/>
</a>
</g>
</g>
<!-- Node6 -->
<g id="Node000006" class="node">
<title>Node6</title>
<g id="a_Node000006"><a xlink:title=" ">
<polygon fill="#e0e0e0" stroke="#999999" points="197.84,-19 153.84,-19 153.84,0 197.84,0 197.84,-19"/>
<text text-anchor="middle" x="175.84" y="-7" font-family="Helvetica,sans-Serif" font-size="10.00">string</text>
</a>
</g>
</g>
<!-- Node2&#45;&gt;Node6 -->
<g id="edge15_Node000002_Node000006" class="edge">
<title>Node2&#45;&gt;Node6</title>
<g id="a_edge15_Node000002_Node000006"><a xlink:title=" ">
<path fill="none" stroke="#63b8ff" d="M328.11,-111.3C378.73,-101.85 460.11,-85.14 468.84,-74 474.05,-67.35 474.35,-61.4 468.84,-55 435.5,-16.2 277.15,-10.83 208.13,-10.36"/>
<polygon fill="#63b8ff" stroke="#63b8ff" points="207.87,-6.86 197.86,-10.33 207.84,-13.86 207.87,-6.86"/>
</a>
</g>
</g>
<!-- Node7 -->
<g id="Node000007" class="node">
<title>Node7</title>
<g id="a_Node000007"><a xlink:title=" ">
<polygon fill="#e0e0e0" stroke="#999999" points="489.34,-19 442.34,-19 442.34,0 489.34,0 489.34,-19"/>
<text text-anchor="middle" x="465.84" y="-7" font-family="Helvetica,sans-Serif" font-size="10.00">vector</text>
</a>
</g>
</g>
<!-- Node2&#45;&gt;Node7 -->
<g id="edge17_Node000002_Node000007" class="edge">
<title>Node2&#45;&gt;Node7</title>
<g id="a_edge17_Node000002_Node000007"><a xlink:title=" ">
<path fill="none" stroke="#63b8ff" d="M327.93,-111.36C330.94,-110.88 333.94,-110.42 336.84,-110 405.04,-100.11 599.03,-125.48 644.84,-74 687.32,-26.27 562.92,-14.41 499.94,-11.47"/>
<polygon fill="#63b8ff" stroke="#63b8ff" points="499.81,-7.96 489.68,-11.04 499.52,-14.96 499.81,-7.96"/>
</a>
</g>
</g>
<!-- Node8 -->
<g id="Node000008" class="node">
<title>Node8</title>
<g id="a_Node000008"><a xlink:href="params_8hpp.html" target="_top" xlink:title=" ">
<polygon fill="white" stroke="#666666" points="635.84,-74 515.84,-74 515.84,-55 635.84,-55 635.84,-74"/>
<text text-anchor="middle" x="575.84" y="-62" font-family="Helvetica,sans-Serif" font-size="10.00">compiler/params.hpp</text>
</a>
</g>
</g>
<!-- Node2&#45;&gt;Node8 -->
<g id="edge7_Node000002_Node000008" class="edge">
<title>Node2&#45;&gt;Node8</title>
<g id="a_edge7_Node000002_Node000008"><a xlink:title=" ">
<path fill="none" stroke="#63b8ff" d="M327.89,-111.13C377.65,-101.97 462.88,-86.29 519.29,-75.91"/>
<polygon fill="#63b8ff" stroke="#63b8ff" points="520.27,-79.29 529.47,-74.03 519,-72.4 520.27,-79.29"/>
</a>
</g>
</g>
<!-- Node9 -->
<g id="Node000009" class="node">
<title>Node9</title>
<g id="a_Node000009"><a xlink:href="types_8hpp.html" target="_top" xlink:title=" ">
<polygon fill="white" stroke="#666666" points="88.34,-74 23.34,-74 23.34,-55 88.34,-55 88.34,-74"/>
<text text-anchor="middle" x="55.84" y="-62" font-family="Helvetica,sans-Serif" font-size="10.00">types.hpp</text>
</a>
</g>
</g>
<!-- Node2&#45;&gt;Node9 -->
<g id="edge9_Node000002_Node000009" class="edge">
<title>Node2&#45;&gt;Node9</title>
<g id="a_edge9_Node000002_Node000009"><a xlink:title=" ">
<path fill="none" stroke="#63b8ff" d="M250.57,-109.98C209.07,-100.5 142.1,-85.21 98.53,-75.25"/>
<polygon fill="#63b8ff" stroke="#63b8ff" points="99.05,-71.78 88.53,-72.97 97.5,-78.61 99.05,-71.78"/>
</a>
</g>
</g>
<!-- Node10 -->
<g id="Node000010" class="node">
<title>Node10</title>
<g id="a_Node000010"><a xlink:title=" ">
<polygon fill="#e0e0e0" stroke="#999999" points="272.34,-74 207.34,-74 207.34,-55 272.34,-55 272.34,-74"/>
<text text-anchor="middle" x="239.84" y="-62" font-family="Helvetica,sans-Serif" font-size="10.00">exception</text>
</a>
</g>
</g>
<!-- Node2&#45;&gt;Node10 -->
<g id="edge14_Node000002_Node000010" class="edge">
<title>Node2&#45;&gt;Node10</title>
<g id="a_edge14_Node000002_Node000010"><a xlink:title=" ">
<path fill="none" stroke="#63b8ff" d="M279.92,-109.75C273,-102.11 262.78,-90.82 254.39,-81.56"/>
<polygon fill="#63b8ff" stroke="#63b8ff" points="256.93,-79.15 247.62,-74.09 251.74,-83.85 256.93,-79.15"/>
</a>
</g>
</g>
<!-- Node11 -->
<g id="Node000011" class="node">
<title>Node11</title>
<g id="a_Node000011"><a xlink:title=" ">
<polygon fill="#e0e0e0" stroke="#999999" points="383.34,-74 290.34,-74 290.34,-55 383.34,-55 383.34,-74"/>
<text text-anchor="middle" x="336.84" y="-62" font-family="Helvetica,sans-Serif" font-size="10.00">unordered_map</text>
</a>
</g>
</g>
<!-- Node2&#45;&gt;Node11 -->
<g id="edge16_Node000002_Node000011" class="edge">
<title>Node2&#45;&gt;Node11</title>
<g id="a_edge16_Node000002_Node000011"><a xlink:title=" ">
<path fill="none" stroke="#63b8ff" d="M295.93,-109.75C303,-102.11 313.43,-90.82 321.99,-81.56"/>
<polygon fill="#63b8ff" stroke="#63b8ff" points="324.68,-83.81 328.9,-74.09 319.54,-79.06 324.68,-83.81"/>
</a>
</g>
</g>
<!-- Node12 -->
<g id="Node000012" class="node">
<title>Node12</title>
<g id="a_Node000012"><a xlink:title=" ">
<polygon fill="#e0e0e0" stroke="#999999" points="459.84,-74 401.84,-74 401.84,-55 459.84,-55 459.84,-74"/>
<text text-anchor="middle" x="430.84" y="-62" font-family="Helvetica,sans-Serif" font-size="10.00">memory</text>
</a>
</g>
</g>
<!-- Node2&#45;&gt;Node12 -->
<g id="edge18_Node000002_Node000012" class="edge">
<title>Node2&#45;&gt;Node12</title>
<g id="a_edge18_Node000002_Node000012"><a xlink:title=" ">
<path fill="none" stroke="#63b8ff" d="M310.82,-109.98C334.34,-101.27 371.13,-87.63 397.78,-77.75"/>
<polygon fill="#63b8ff" stroke="#63b8ff" points="399.29,-80.93 407.45,-74.17 396.86,-74.36 399.29,-80.93"/>
</a>
</g>
</g>
<!-- Node3&#45;&gt;Node4 -->
<g id="edge3_Node000003_Node000004" class="edge">
<title>Node3&#45;&gt;Node4</title>
<g id="a_edge3_Node000003_Node000004"><a xlink:title=" ">
<path fill="none" stroke="#63b8ff" d="M128.4,-54.98C108.85,-46.42 78.46,-33.11 56.02,-23.28"/>
<polygon fill="#63b8ff" stroke="#63b8ff" points="57.2,-19.98 46.64,-19.17 54.39,-26.39 57.2,-19.98"/>
</a>
</g>
</g>
<!-- Node5 -->
<g id="Node000005" class="node">
<title>Node5</title>
<g id="a_Node000005"><a xlink:title=" ">
<polygon fill="#e0e0e0" stroke="#999999" points="131.34,-19 78.34,-19 78.34,0 131.34,0 131.34,-19"/>
<text text-anchor="middle" x="104.84" y="-7" font-family="Helvetica,sans-Serif" font-size="10.00">cstddef</text>
</a>
</g>
</g>
<!-- Node3&#45;&gt;Node5 -->
<g id="edge4_Node000003_Node000005" class="edge">
<title>Node3&#45;&gt;Node5</title>
<g id="a_edge4_Node000003_Node000005"><a xlink:title=" ">
<path fill="none" stroke="#63b8ff" d="M140.74,-54.75C134.67,-47.26 125.76,-36.28 118.33,-27.13"/>
<polygon fill="#63b8ff" stroke="#63b8ff" points="120.83,-24.65 111.81,-19.09 115.39,-29.06 120.83,-24.65"/>
</a>
</g>
</g>
<!-- Node3&#45;&gt;Node6 -->
<g id="edge5_Node000003_Node000006" class="edge">
<title>Node3&#45;&gt;Node6</title>
<g id="a_edge5_Node000003_Node000006"><a xlink:title=" ">
<path fill="none" stroke="#63b8ff" d="M152.47,-54.75C156.3,-47.49 161.87,-36.95 166.61,-27.98"/>
<polygon fill="#63b8ff" stroke="#63b8ff" points="169.73,-29.57 171.31,-19.09 163.54,-26.3 169.73,-29.57"/>
</a>
</g>
</g>
<!-- Node3&#45;&gt;Node7 -->
<g id="edge6_Node000003_Node000007" class="edge">
<title>Node3&#45;&gt;Node7</title>
<g id="a_edge6_Node000003_Node000007"><a xlink:title=" ">
<path fill="none" stroke="#63b8ff" d="M189.58,-56.39C192.38,-55.92 195.15,-55.45 197.84,-55 282.09,-40.85 381.27,-24.45 432.09,-16.06"/>
<polygon fill="#63b8ff" stroke="#63b8ff" points="432.88,-19.48 442.18,-14.4 431.74,-12.57 432.88,-19.48"/>
</a>
</g>
</g>
<!-- Node8&#45;&gt;Node6 -->
<g id="edge8_Node000008_Node000006" class="edge">
<title>Node8&#45;&gt;Node6</title>
<g id="a_edge8_Node000008_Node000006"><a xlink:title=" ">
<path fill="none" stroke="#63b8ff" d="M515.53,-55.51C429.55,-44.12 274.8,-23.61 207.99,-14.76"/>
<polygon fill="#63b8ff" stroke="#63b8ff" points="208.42,-11.29 198.05,-13.44 207.5,-18.23 208.42,-11.29"/>
</a>
</g>
</g>
<!-- Node9&#45;&gt;Node4 -->
<g id="edge11_Node000009_Node000004" class="edge">
<title>Node9&#45;&gt;Node4</title>
<g id="a_edge11_Node000009_Node000004"><a xlink:title=" ">
<path fill="none" stroke="#63b8ff" d="M51.05,-54.75C47.09,-47.49 41.32,-36.95 36.41,-27.98"/>
<polygon fill="#63b8ff" stroke="#63b8ff" points="39.41,-26.18 31.54,-19.09 33.27,-29.54 39.41,-26.18"/>
</a>
</g>
</g>
<!-- Node9&#45;&gt;Node5 -->
<g id="edge10_Node000009_Node000005" class="edge">
<title>Node9&#45;&gt;Node5</title>
<g id="a_edge10_Node000009_Node000005"><a xlink:title=" ">
<path fill="none" stroke="#63b8ff" d="M63.93,-54.75C71,-47.11 81.43,-35.82 89.99,-26.56"/>
<polygon fill="#63b8ff" stroke="#63b8ff" points="92.68,-28.81 96.9,-19.09 87.54,-24.06 92.68,-28.81"/>
</a>
</g>
</g>
<!-- Node9&#45;&gt;Node6 -->
<g id="edge12_Node000009_Node000006" class="edge">
<title>Node9&#45;&gt;Node6</title>
<g id="a_edge12_Node000009_Node000006"><a xlink:title=" ">
<path fill="none" stroke="#63b8ff" d="M75.12,-54.98C94.51,-46.42 124.65,-33.11 146.91,-23.28"/>
<polygon fill="#63b8ff" stroke="#63b8ff" points="148.48,-26.41 156.21,-19.17 145.65,-20.01 148.48,-26.41"/>
</a>
</g>
</g>
</g>
</svg>
