<?xml version="1.0" encoding="UTF-8" standalone="no"?>
<!DOCTYPE svg PUBLIC "-//W3C//DTD SVG 1.1//EN"
 "http://www.w3.org/Graphics/SVG/1.1/DTD/svg11.dtd">
<!-- Generated by graphviz version 2.43.0 (0)
 -->
<!-- Title: src/compiler/symbol.cpp Pages: 1 -->
<svg width="765pt" height="192pt"
 viewBox="0.00 0.00 765.32 192.00" xmlns="http://www.w3.org/2000/svg" xmlns:xlink="http://www.w3.org/1999/xlink">
<g id="graph0" class="graph" transform="scale(1 1) rotate(0) translate(4 188)">
<title>src/compiler/symbol.cpp</title>
<!-- Node1 -->
<g id="Node000001" class="node">
<title>Node1</title>
<g id="a_Node000001"><a xlink:title=" ">
<polygon fill="#999999" stroke="#666666" points="489.14,-184 353.14,-184 353.14,-165 489.14,-165 489.14,-184"/>
<text text-anchor="middle" x="421.14" y="-172" font-family="Helvetica,sans-Serif" font-size="10.00">src/compiler/symbol.cpp</text>
</a>
</g>
</g>
<!-- Node2 -->
<g id="Node000002" class="node">
<title>Node2</title>
<g id="a_Node000002"><a xlink:href="compiler_8hpp.html" target="_top" xlink:title=" ">
<polygon fill="white" stroke="#666666" points="420.14,-129 340.14,-129 340.14,-110 420.14,-110 420.14,-129"/>
<text text-anchor="middle" x="380.14" y="-117" font-family="Helvetica,sans-Serif" font-size="10.00">compiler.hpp</text>
</a>
</g>
</g>
<!-- Node1&#45;&gt;Node2 -->
<g id="edge1_Node000001_Node000002" class="edge">
<title>Node1&#45;&gt;Node2</title>
<g id="a_edge1_Node000001_Node000002"><a xlink:title=" ">
<path fill="none" stroke="#63b8ff" d="M414.37,-164.75C408.57,-157.26 400.08,-146.28 393,-137.13"/>
<polygon fill="#63b8ff" stroke="#63b8ff" points="395.67,-134.86 386.78,-129.09 390.13,-139.14 395.67,-134.86"/>
</a>
</g>
</g>
<!-- Node4 -->
<g id="Node000004" class="node">
<title>Node4</title>
<g id="a_Node000004"><a xlink:title=" ">
<polygon fill="#e0e0e0" stroke="#999999" points="52.14,-19 2.14,-19 2.14,0 52.14,0 52.14,-19"/>
<text text-anchor="middle" x="27.14" y="-7" font-family="Helvetica,sans-Serif" font-size="10.00">cstdint</text>
</a>
</g>
</g>
<!-- Node1&#45;&gt;Node4 -->
<g id="edge22_Node000001_Node000004" class="edge">
<title>Node1&#45;&gt;Node4</title>
<g id="a_edge22_Node000001_Node000004"><a xlink:title=" ">
<path fill="none" stroke="#63b8ff" d="M352.71,-167.23C245.98,-155.87 47.68,-127.93 5.14,-74 -5.65,-60.33 3.62,-41 13.23,-27.27"/>
<polygon fill="#63b8ff" stroke="#63b8ff" points="16.12,-29.25 19.39,-19.17 10.55,-25.02 16.12,-29.25"/>
</a>
</g>
</g>
<!-- Node15 -->
<g id="Node000015" class="node">
<title>Node15</title>
<g id="a_Node000015"><a xlink:title=" ">
<polygon fill="#e0e0e0" stroke="#999999" points="488.14,-129 438.14,-129 438.14,-110 488.14,-110 488.14,-129"/>
<text text-anchor="middle" x="463.14" y="-117" font-family="Helvetica,sans-Serif" font-size="10.00">cstring</text>
</a>
</g>
</g>
<!-- Node1&#45;&gt;Node15 -->
<g id="edge23_Node000001_Node000015" class="edge">
<title>Node1&#45;&gt;Node15</title>
<g id="a_edge23_Node000001_Node000015"><a xlink:title=" ">
<path fill="none" stroke="#63b8ff" d="M428.07,-164.75C434,-157.26 442.71,-146.28 449.96,-137.13"/>
<polygon fill="#63b8ff" stroke="#63b8ff" points="452.86,-139.1 456.33,-129.09 447.38,-134.75 452.86,-139.1"/>
</a>
</g>
</g>
<!-- Node16 -->
<g id="Node000016" class="node">
<title>Node16</title>
<g id="a_Node000016"><a xlink:title=" ">
<polygon fill="#e0e0e0" stroke="#999999" points="571.64,-129 506.64,-129 506.64,-110 571.64,-110 571.64,-129"/>
<text text-anchor="middle" x="539.14" y="-117" font-family="Helvetica,sans-Serif" font-size="10.00">stdexcept</text>
</a>
</g>
</g>
<!-- Node1&#45;&gt;Node16 -->
<g id="edge24_Node000001_Node000016" class="edge">
<title>Node1&#45;&gt;Node16</title>
<g id="a_edge24_Node000001_Node000016"><a xlink:title=" ">
<path fill="none" stroke="#63b8ff" d="M440.09,-164.98C459.16,-156.42 488.8,-143.11 510.68,-133.28"/>
<polygon fill="#63b8ff" stroke="#63b8ff" points="512.14,-136.46 519.83,-129.17 509.28,-130.07 512.14,-136.46"/>
</a>
</g>
</g>
<!-- Node3 -->
<g id="Node000003" class="node">
<title>Node3</title>
<g id="a_Node000003"><a xlink:href="bytecode_8hpp.html" target="_top" xlink:title=" ">
<polygon fill="white" stroke="#666666" points="190.64,-74 107.64,-74 107.64,-55 190.64,-55 190.64,-74"/>
<text text-anchor="middle" x="149.14" y="-62" font-family="Helvetica,sans-Serif" font-size="10.00">bytecode.hpp</text>
</a>
</g>
</g>
<!-- Node2&#45;&gt;Node3 -->
<g id="edge2_Node000002_Node000003" class="edge">
<title>Node2&#45;&gt;Node3</title>
<g id="a_edge2_Node000002_Node000003"><a xlink:title=" ">
<path fill="none" stroke="#63b8ff" d="M343.02,-109.98C303.15,-100.84 239.67,-86.27 196.29,-76.32"/>
<polygon fill="#63b8ff" stroke="#63b8ff" points="197.07,-72.91 186.54,-74.08 195.5,-79.73 197.07,-72.91"/>
</a>
</g>
</g>
<!-- Node2&#45;&gt;Node4 -->
<g id="edge16_Node000002_Node000004" class="edge">
<title>Node2&#45;&gt;Node4</title>
<g id="a_edge16_Node000002_Node000004"><a xlink:title=" ">
<path fill="none" stroke="#63b8ff" d="M340.11,-116.56C249.81,-111.79 36.43,-98.05 15.14,-74 4.12,-61.56 9.86,-42.27 16.66,-28.21"/>
<polygon fill="#63b8ff" stroke="#63b8ff" points="19.92,-29.54 21.57,-19.08 13.76,-26.23 19.92,-29.54"/>
</a>
</g>
</g>
<!-- Node6 -->
<g id="Node000006" class="node">
<title>Node6</title>
<g id="a_Node000006"><a xlink:title=" ">
<polygon fill="#e0e0e0" stroke="#999999" points="291.14,-19 247.14,-19 247.14,0 291.14,0 291.14,-19"/>
<text text-anchor="middle" x="269.14" y="-7" font-family="Helvetica,sans-Serif" font-size="10.00">string</text>
</a>
</g>
</g>
<!-- Node2&#45;&gt;Node6 -->
<g id="edge18_Node000002_Node000006" class="edge">
<title>Node2&#45;&gt;Node6</title>
<g id="a_edge18_Node000002_Node000006"><a xlink:title=" ">
<path fill="none" stroke="#63b8ff" d="M420.16,-111.39C485,-99.77 606.12,-77.66 609.14,-74 614.51,-67.48 614.71,-61.35 609.14,-55 588.98,-32.04 382.52,-17.29 301.51,-12.34"/>
<polygon fill="#63b8ff" stroke="#63b8ff" points="301.57,-8.84 291.38,-11.74 301.16,-15.83 301.57,-8.84"/>
</a>
</g>
</g>
<!-- Node7 -->
<g id="Node000007" class="node">
<title>Node7</title>
<g id="a_Node000007"><a xlink:title=" ">
<polygon fill="#e0e0e0" stroke="#999999" points="506.64,-19 459.64,-19 459.64,0 506.64,0 506.64,-19"/>
<text text-anchor="middle" x="483.14" y="-7" font-family="Helvetica,sans-Serif" font-size="10.00">vector</text>
</a>
</g>
</g>
<!-- Node2&#45;&gt;Node7 -->
<g id="edge20_Node000002_Node000007" class="edge">
<title>Node2&#45;&gt;Node7</title>
<g id="a_edge20_Node000002_Node000007"><a xlink:title=" ">
<path fill="none" stroke="#63b8ff" d="M420.22,-111.34C423.23,-110.87 426.23,-110.41 429.14,-110 500.86,-99.8 704.82,-127.98 753.14,-74 758.77,-67.71 758.6,-61.44 753.14,-55 723.22,-19.75 582.68,-12.38 517.05,-10.87"/>
<polygon fill="#63b8ff" stroke="#63b8ff" points="516.89,-7.36 506.82,-10.67 516.75,-14.36 516.89,-7.36"/>
</a>
</g>
</g>
<!-- Node8 -->
<g id="Node000008" class="node">
<title>Node8</title>
<g id="a_Node000008"><a xlink:href="essentials_8hpp.html" target="_top" xlink:title=" ">
<polygon fill="white" stroke="#666666" points="743.64,-74 656.64,-74 656.64,-55 743.64,-55 743.64,-74"/>
<text text-anchor="middle" x="700.14" y="-62" font-family="Helvetica,sans-Serif" font-size="10.00">essentials.hpp</text>
</a>
</g>
</g>
<!-- Node2&#45;&gt;Node8 -->
<g id="edge7_Node000002_Node000008" class="edge">
<title>Node2&#45;&gt;Node8</title>
<g id="a_edge7_Node000002_Node000008"><a xlink:title=" ">
<path fill="none" stroke="#63b8ff" d="M420.24,-111.51C423.25,-111 426.24,-110.49 429.14,-110 504.44,-97.29 591.6,-83.06 646.3,-74.19"/>
<polygon fill="#63b8ff" stroke="#63b8ff" points="647.15,-77.6 656.46,-72.55 646.03,-70.69 647.15,-77.6"/>
</a>
</g>
</g>
<!-- Node10 -->
<g id="Node000010" class="node">
<title>Node10</title>
<g id="a_Node000010"><a xlink:href="params_8hpp.html" target="_top" xlink:title=" ">
<polygon fill="white" stroke="#666666" points="329.14,-74 209.14,-74 209.14,-55 329.14,-55 329.14,-74"/>
<text text-anchor="middle" x="269.14" y="-62" font-family="Helvetica,sans-Serif" font-size="10.00">compiler/params.hpp</text>
</a>
</g>
</g>
<!-- Node2&#45;&gt;Node10 -->
<g id="edge10_Node000002_Node000010" class="edge">
<title>Node2&#45;&gt;Node10</title>
<g id="a_edge10_Node000002_Node000010"><a xlink:title=" ">
<path fill="none" stroke="#63b8ff" d="M362.3,-109.98C344.53,-101.5 316.99,-88.35 296.46,-78.54"/>
<polygon fill="#63b8ff" stroke="#63b8ff" points="297.83,-75.32 287.29,-74.17 294.81,-81.64 297.83,-75.32"/>
</a>
</g>
</g>
<!-- Node11 -->
<g id="Node000011" class="node">
<title>Node11</title>
<g id="a_Node000011"><a xlink:href="types_8hpp.html" target="_top" xlink:title=" ">
<polygon fill="white" stroke="#666666" points="89.64,-74 24.64,-74 24.64,-55 89.64,-55 89.64,-74"/>
<text text-anchor="middle" x="57.14" y="-62" font-family="Helvetica,sans-Serif" font-size="10.00">types.hpp</text>
</a>
</g>
</g>
<!-- Node2&#45;&gt;Node11 -->
<g id="edge12_Node000002_Node000011" class="edge">
<title>Node2&#45;&gt;Node11</title>
<g id="a_edge12_Node000002_Node000011"><a xlink:title=" ">
<path fill="none" stroke="#63b8ff" d="M339.87,-112.77C286.99,-105.1 191,-90.71 99.74,-74.23"/>
<polygon fill="#63b8ff" stroke="#63b8ff" points="100.25,-70.76 89.78,-72.42 98.99,-77.65 100.25,-70.76"/>
</a>
</g>
</g>
<!-- Node12 -->
<g id="Node000012" class="node">
<title>Node12</title>
<g id="a_Node000012"><a xlink:title=" ">
<polygon fill="#e0e0e0" stroke="#999999" points="412.64,-74 347.64,-74 347.64,-55 412.64,-55 412.64,-74"/>
<text text-anchor="middle" x="380.14" y="-62" font-family="Helvetica,sans-Serif" font-size="10.00">exception</text>
</a>
</g>
</g>
<!-- Node2&#45;&gt;Node12 -->
<g id="edge17_Node000002_Node000012" class="edge">
<title>Node2&#45;&gt;Node12</title>
<g id="a_edge17_Node000002_Node000012"><a xlink:title=" ">
<path fill="none" stroke="#63b8ff" d="M380.14,-109.75C380.14,-102.8 380.14,-92.85 380.14,-84.13"/>
<polygon fill="#63b8ff" stroke="#63b8ff" points="383.64,-84.09 380.14,-74.09 376.64,-84.09 383.64,-84.09"/>
</a>
</g>
</g>
<!-- Node13 -->
<g id="Node000013" class="node">
<title>Node13</title>
<g id="a_Node000013"><a xlink:title=" ">
<polygon fill="#e0e0e0" stroke="#999999" points="523.64,-74 430.64,-74 430.64,-55 523.64,-55 523.64,-74"/>
<text text-anchor="middle" x="477.14" y="-62" font-family="Helvetica,sans-Serif" font-size="10.00">unordered_map</text>
</a>
</g>
</g>
<!-- Node2&#45;&gt;Node13 -->
<g id="edge19_Node000002_Node000013" class="edge">
<title>Node2&#45;&gt;Node13</title>
<g id="a_edge19_Node000002_Node000013"><a xlink:title=" ">
<path fill="none" stroke="#63b8ff" d="M395.72,-109.98C410.9,-101.69 434.23,-88.94 452.03,-79.22"/>
<polygon fill="#63b8ff" stroke="#63b8ff" points="454.17,-82.04 461.27,-74.17 450.81,-75.89 454.17,-82.04"/>
</a>
</g>
</g>
<!-- Node14 -->
<g id="Node000014" class="node">
<title>Node14</title>
<g id="a_Node000014"><a xlink:title=" ">
<polygon fill="#e0e0e0" stroke="#999999" points="600.14,-74 542.14,-74 542.14,-55 600.14,-55 600.14,-74"/>
<text text-anchor="middle" x="571.14" y="-62" font-family="Helvetica,sans-Serif" font-size="10.00">memory</text>
</a>
</g>
</g>
<!-- Node2&#45;&gt;Node14 -->
<g id="edge21_Node000002_Node000014" class="edge">
<title>Node2&#45;&gt;Node14</title>
<g id="a_edge21_Node000002_Node000014"><a xlink:title=" ">
<path fill="none" stroke="#63b8ff" d="M410.82,-109.98C443.88,-100.81 496.57,-86.19 532.45,-76.24"/>
<polygon fill="#63b8ff" stroke="#63b8ff" points="533.39,-79.61 542.09,-73.56 531.52,-72.86 533.39,-79.61"/>
</a>
</g>
</g>
<!-- Node3&#45;&gt;Node4 -->
<g id="edge3_Node000003_Node000004" class="edge">
<title>Node3&#45;&gt;Node4</title>
<g id="a_edge3_Node000003_Node000004"><a xlink:title=" ">
<path fill="none" stroke="#63b8ff" d="M129.53,-54.98C109.82,-46.42 79.18,-33.11 56.55,-23.28"/>
<polygon fill="#63b8ff" stroke="#63b8ff" points="57.66,-19.94 47.09,-19.17 54.87,-26.37 57.66,-19.94"/>
</a>
</g>
</g>
<!-- Node5 -->
<g id="Node000005" class="node">
<title>Node5</title>
<g id="a_Node000005"><a xlink:title=" ">
<polygon fill="#e0e0e0" stroke="#999999" points="164.64,-19 111.64,-19 111.64,0 164.64,0 164.64,-19"/>
<text text-anchor="middle" x="138.14" y="-7" font-family="Helvetica,sans-Serif" font-size="10.00">cstddef</text>
</a>
</g>
</g>
<!-- Node3&#45;&gt;Node5 -->
<g id="edge4_Node000003_Node000005" class="edge">
<title>Node3&#45;&gt;Node5</title>
<g id="a_edge4_Node000003_Node000005"><a xlink:title=" ">
<path fill="none" stroke="#63b8ff" d="M147.32,-54.75C145.88,-47.8 143.81,-37.85 142,-29.13"/>
<polygon fill="#63b8ff" stroke="#63b8ff" points="145.38,-28.17 139.92,-19.09 138.52,-29.59 145.38,-28.17"/>
</a>
</g>
</g>
<!-- Node3&#45;&gt;Node6 -->
<g id="edge5_Node000003_Node000006" class="edge">
<title>Node3&#45;&gt;Node6</title>
<g id="a_edge5_Node000003_Node000006"><a xlink:title=" ">
<path fill="none" stroke="#63b8ff" d="M168.42,-54.98C187.81,-46.42 217.94,-33.11 240.2,-23.28"/>
<polygon fill="#63b8ff" stroke="#63b8ff" points="241.77,-26.41 249.5,-19.17 238.94,-20.01 241.77,-26.41"/>
</a>
</g>
</g>
<!-- Node3&#45;&gt;Node7 -->
<g id="edge6_Node000003_Node000007" class="edge">
<title>Node3&#45;&gt;Node7</title>
<g id="a_edge6_Node000003_Node000007"><a xlink:title=" ">
<path fill="none" stroke="#63b8ff" d="M190.88,-56.51C194.01,-56 197.12,-55.49 200.14,-55 290.12,-40.43 396.31,-23.91 449.39,-15.7"/>
<polygon fill="#63b8ff" stroke="#63b8ff" points="449.92,-19.16 459.27,-14.18 448.85,-12.25 449.92,-19.16"/>
</a>
</g>
</g>
<!-- Node8&#45;&gt;Node6 -->
<g id="edge9_Node000008_Node000006" class="edge">
<title>Node8&#45;&gt;Node6</title>
<g id="a_edge9_Node000008_Node000006"><a xlink:title=" ">
<path fill="none" stroke="#63b8ff" d="M656.45,-56.97C651.62,-56.29 646.78,-55.62 642.14,-55 516.29,-38.27 366.16,-21.25 301.44,-14.06"/>
<polygon fill="#63b8ff" stroke="#63b8ff" points="301.77,-10.57 291.44,-12.95 301,-17.53 301.77,-10.57"/>
</a>
</g>
</g>
<!-- Node9 -->
<g id="Node000009" class="node">
<title>Node9</title>
<g id="a_Node000009"><a xlink:title=" ">
<polygon fill="#e0e0e0" stroke="#999999" points="725.64,-19 674.64,-19 674.64,0 725.64,0 725.64,-19"/>
<text text-anchor="middle" x="700.14" y="-7" font-family="Helvetica,sans-Serif" font-size="10.00">errno.h</text>
</a>
</g>
</g>
<!-- Node8&#45;&gt;Node9 -->
<g id="edge8_Node000008_Node000009" class="edge">
<title>Node8&#45;&gt;Node9</title>
<g id="a_edge8_Node000008_Node000009"><a xlink:title=" ">
<path fill="none" stroke="#63b8ff" d="M700.14,-54.75C700.14,-47.8 700.14,-37.85 700.14,-29.13"/>
<polygon fill="#63b8ff" stroke="#63b8ff" points="703.64,-29.09 700.14,-19.09 696.64,-29.09 703.64,-29.09"/>
</a>
</g>
</g>
<!-- Node10&#45;&gt;Node6 -->
<g id="edge11_Node000010_Node000006" class="edge">
<title>Node10&#45;&gt;Node6</title>
<g id="a_edge11_Node000010_Node000006"><a xlink:title=" ">
<path fill="none" stroke="#63b8ff" d="M269.14,-54.75C269.14,-47.8 269.14,-37.85 269.14,-29.13"/>
<polygon fill="#63b8ff" stroke="#63b8ff" points="272.64,-29.09 269.14,-19.09 265.64,-29.09 272.64,-29.09"/>
</a>
</g>
</g>
<!-- Node11&#45;&gt;Node4 -->
<g id="edge14_Node000011_Node000004" class="edge">
<title>Node11&#45;&gt;Node4</title>
<g id="a_edge14_Node000011_Node000004"><a xlink:title=" ">
<path fill="none" stroke="#63b8ff" d="M52.18,-54.75C48.08,-47.49 42.11,-36.95 37.03,-27.98"/>
<polygon fill="#63b8ff" stroke="#63b8ff" points="39.97,-26.07 32,-19.09 33.88,-29.52 39.97,-26.07"/>
</a>
</g>
</g>
<!-- Node11&#45;&gt;Node5 -->
<g id="edge13_Node000011_Node000005" class="edge">
<title>Node11&#45;&gt;Node5</title>
<g id="a_edge13_Node000011_Node000005"><a xlink:title=" ">
<path fill="none" stroke="#63b8ff" d="M70.15,-54.98C82.59,-46.84 101.59,-34.41 116.34,-24.76"/>
<polygon fill="#63b8ff" stroke="#63b8ff" points="118.43,-27.57 124.88,-19.17 114.6,-21.72 118.43,-27.57"/>
</a>
</g>
</g>
<!-- Node11&#45;&gt;Node6 -->
<g id="edge15_Node000011_Node000006" class="edge">
<title>Node11&#45;&gt;Node6</title>
<g id="a_edge15_Node000011_Node000006"><a xlink:title=" ">
<path fill="none" stroke="#63b8ff" d="M89.8,-55.33C129.86,-45.32 197.35,-28.45 237.12,-18.5"/>
<polygon fill="#63b8ff" stroke="#63b8ff" points="237.99,-21.89 246.84,-16.07 236.29,-15.1 237.99,-21.89"/>
</a>
</g>
</g>
</g>
</svg>
