<?xml version="1.0" encoding="UTF-8" standalone="no"?>
<!DOCTYPE svg PUBLIC "-//W3C//DTD SVG 1.1//EN"
 "http://www.w3.org/Graphics/SVG/1.1/DTD/svg11.dtd">
<!-- Generated by graphviz version 2.43.0 (0)
 -->
<!-- Title: src/compiler/symbol.cpp Pages: 1 -->
<svg width="471pt" height="192pt"
 viewBox="0.00 0.00 471.00 192.00" xmlns="http://www.w3.org/2000/svg" xmlns:xlink="http://www.w3.org/1999/xlink">
<g id="graph0" class="graph" transform="scale(1 1) rotate(0) translate(4 188)">
<title>src/compiler/symbol.cpp</title>
<!-- Node1 -->
<g id="Node000001" class="node">
<title>Node1</title>
<g id="a_Node000001"><a xlink:title=" ">
<polygon fill="#999999" stroke="#666666" points="382,-184 246,-184 246,-165 382,-165 382,-184"/>
<text text-anchor="middle" x="314" y="-172" font-family="Helvetica,sans-Serif" font-size="10.00">src/compiler/symbol.cpp</text>
</a>
</g>
</g>
<!-- Node2 -->
<g id="Node000002" class="node">
<title>Node2</title>
<g id="a_Node000002"><a xlink:href="compiler_8hpp.html" target="_top" xlink:title=" ">
<polygon fill="white" stroke="#666666" points="233,-129 153,-129 153,-110 233,-110 233,-129"/>
<text text-anchor="middle" x="193" y="-117" font-family="Helvetica,sans-Serif" font-size="10.00">compiler.hpp</text>
</a>
</g>
</g>
<!-- Node1&#45;&gt;Node2 -->
<g id="edge1_Node000001_Node000002" class="edge">
<title>Node1&#45;&gt;Node2</title>
<g id="a_edge1_Node000001_Node000002"><a xlink:title=" ">
<path fill="none" stroke="#63b8ff" d="M294.56,-164.98C275.01,-156.42 244.62,-143.11 222.18,-133.28"/>
<polygon fill="#63b8ff" stroke="#63b8ff" points="223.36,-129.98 212.79,-129.17 220.55,-136.39 223.36,-129.98"/>
</a>
</g>
</g>
<!-- Node10 -->
<g id="Node000010" class="node">
<title>Node10</title>
<g id="a_Node000010"><a xlink:title=" ">
<polygon fill="#e0e0e0" stroke="#999999" points="301,-129 251,-129 251,-110 301,-110 301,-129"/>
<text text-anchor="middle" x="276" y="-117" font-family="Helvetica,sans-Serif" font-size="10.00">cstring</text>
</a>
</g>
</g>
<!-- Node1&#45;&gt;Node10 -->
<g id="edge11_Node000001_Node000010" class="edge">
<title>Node1&#45;&gt;Node10</title>
<g id="a_edge11_Node000001_Node000010"><a xlink:title=" ">
<path fill="none" stroke="#63b8ff" d="M307.73,-164.75C302.41,-157.34 294.64,-146.5 288.12,-137.41"/>
<polygon fill="#63b8ff" stroke="#63b8ff" points="290.83,-135.18 282.16,-129.09 285.14,-139.26 290.83,-135.18"/>
</a>
</g>
</g>
<!-- Node11 -->
<g id="Node000011" class="node">
<title>Node11</title>
<g id="a_Node000011"><a xlink:title=" ">
<polygon fill="#e0e0e0" stroke="#999999" points="384.5,-129 319.5,-129 319.5,-110 384.5,-110 384.5,-129"/>
<text text-anchor="middle" x="352" y="-117" font-family="Helvetica,sans-Serif" font-size="10.00">stdexcept</text>
</a>
</g>
</g>
<!-- Node1&#45;&gt;Node11 -->
<g id="edge12_Node000001_Node000011" class="edge">
<title>Node1&#45;&gt;Node11</title>
<g id="a_edge12_Node000001_Node000011"><a xlink:title=" ">
<path fill="none" stroke="#63b8ff" d="M320.27,-164.75C325.59,-157.34 333.36,-146.5 339.88,-137.41"/>
<polygon fill="#63b8ff" stroke="#63b8ff" points="342.86,-139.26 345.84,-129.09 337.17,-135.18 342.86,-139.26"/>
</a>
</g>
</g>
<!-- Node12 -->
<g id="Node000012" class="node">
<title>Node12</title>
<g id="a_Node000012"><a xlink:title=" ">
<polygon fill="#e0e0e0" stroke="#999999" points="463,-129 403,-129 403,-110 463,-110 463,-129"/>
<text text-anchor="middle" x="433" y="-117" font-family="Helvetica,sans-Serif" font-size="10.00">iostream</text>
</a>
</g>
</g>
<!-- Node1&#45;&gt;Node12 -->
<g id="edge13_Node000001_Node000012" class="edge">
<title>Node1&#45;&gt;Node12</title>
<g id="a_edge13_Node000001_Node000012"><a xlink:title=" ">
<path fill="none" stroke="#63b8ff" d="M333.12,-164.98C352.35,-156.42 382.23,-143.11 404.31,-133.28"/>
<polygon fill="#63b8ff" stroke="#63b8ff" points="405.82,-136.44 413.53,-129.17 402.97,-130.04 405.82,-136.44"/>
</a>
</g>
</g>
<!-- Node3 -->
<g id="Node000003" class="node">
<title>Node3</title>
<g id="a_Node000003"><a xlink:href="types_8hpp.html" target="_top" xlink:title=" ">
<polygon fill="white" stroke="#666666" points="127.5,-74 62.5,-74 62.5,-55 127.5,-55 127.5,-74"/>
<text text-anchor="middle" x="95" y="-62" font-family="Helvetica,sans-Serif" font-size="10.00">types.hpp</text>
</a>
</g>
</g>
<!-- Node2&#45;&gt;Node3 -->
<g id="edge2_Node000002_Node000003" class="edge">
<title>Node2&#45;&gt;Node3</title>
<g id="a_edge2_Node000002_Node000003"><a xlink:title=" ">
<path fill="none" stroke="#63b8ff" d="M177.25,-109.98C161.77,-101.61 137.91,-88.7 119.86,-78.95"/>
<polygon fill="#63b8ff" stroke="#63b8ff" points="121.49,-75.85 111.03,-74.17 118.16,-82.01 121.49,-75.85"/>
</a>
</g>
</g>
<!-- Node5 -->
<g id="Node000005" class="node">
<title>Node5</title>
<g id="a_Node000005"><a xlink:title=" ">
<polygon fill="#e0e0e0" stroke="#999999" points="50,-19 0,-19 0,0 50,0 50,-19"/>
<text text-anchor="middle" x="25" y="-7" font-family="Helvetica,sans-Serif" font-size="10.00">cstdint</text>
</a>
</g>
</g>
<!-- Node2&#45;&gt;Node5 -->
<g id="edge6_Node000002_Node000005" class="edge">
<title>Node2&#45;&gt;Node5</title>
<g id="a_edge6_Node000002_Node000005"><a xlink:title=" ">
<path fill="none" stroke="#63b8ff" d="M152.76,-114.42C122.42,-109.43 81.47,-98.39 54,-74 40.84,-62.32 33.28,-43.46 29.2,-29.33"/>
<polygon fill="#63b8ff" stroke="#63b8ff" points="32.49,-28.06 26.63,-19.23 25.71,-29.78 32.49,-28.06"/>
</a>
</g>
</g>
<!-- Node6 -->
<g id="Node000006" class="node">
<title>Node6</title>
<g id="a_Node000006"><a xlink:title=" ">
<polygon fill="#e0e0e0" stroke="#999999" points="184,-19 140,-19 140,0 184,0 184,-19"/>
<text text-anchor="middle" x="162" y="-7" font-family="Helvetica,sans-Serif" font-size="10.00">string</text>
</a>
</g>
</g>
<!-- Node2&#45;&gt;Node6 -->
<g id="edge7_Node000002_Node000006" class="edge">
<title>Node2&#45;&gt;Node6</title>
<g id="a_edge7_Node000002_Node000006"><a xlink:title=" ">
<path fill="none" stroke="#63b8ff" d="M189.22,-109.77C185.49,-100.89 179.8,-86.68 176,-74 171.54,-59.11 167.83,-41.87 165.35,-29.12"/>
<polygon fill="#63b8ff" stroke="#63b8ff" points="168.78,-28.42 163.5,-19.23 161.9,-29.7 168.78,-28.42"/>
</a>
</g>
</g>
<!-- Node7 -->
<g id="Node000007" class="node">
<title>Node7</title>
<g id="a_Node000007"><a xlink:title=" ">
<polygon fill="#e0e0e0" stroke="#999999" points="277.5,-74 184.5,-74 184.5,-55 277.5,-55 277.5,-74"/>
<text text-anchor="middle" x="231" y="-62" font-family="Helvetica,sans-Serif" font-size="10.00">unordered_map</text>
</a>
</g>
</g>
<!-- Node2&#45;&gt;Node7 -->
<g id="edge8_Node000002_Node000007" class="edge">
<title>Node2&#45;&gt;Node7</title>
<g id="a_edge8_Node000002_Node000007"><a xlink:title=" ">
<path fill="none" stroke="#63b8ff" d="M199.27,-109.75C204.59,-102.34 212.36,-91.5 218.88,-82.41"/>
<polygon fill="#63b8ff" stroke="#63b8ff" points="221.86,-84.26 224.84,-74.09 216.17,-80.18 221.86,-84.26"/>
</a>
</g>
</g>
<!-- Node8 -->
<g id="Node000008" class="node">
<title>Node8</title>
<g id="a_Node000008"><a xlink:title=" ">
<polygon fill="#e0e0e0" stroke="#999999" points="342.5,-74 295.5,-74 295.5,-55 342.5,-55 342.5,-74"/>
<text text-anchor="middle" x="319" y="-62" font-family="Helvetica,sans-Serif" font-size="10.00">vector</text>
</a>
</g>
</g>
<!-- Node2&#45;&gt;Node8 -->
<g id="edge9_Node000002_Node000008" class="edge">
<title>Node2&#45;&gt;Node8</title>
<g id="a_edge9_Node000002_Node000008"><a xlink:title=" ">
<path fill="none" stroke="#63b8ff" d="M213.24,-109.98C233.7,-101.38 265.53,-87.99 288.93,-78.15"/>
<polygon fill="#63b8ff" stroke="#63b8ff" points="290.53,-81.27 298.39,-74.17 287.81,-74.82 290.53,-81.27"/>
</a>
</g>
</g>
<!-- Node9 -->
<g id="Node000009" class="node">
<title>Node9</title>
<g id="a_Node000009"><a xlink:title=" ">
<polygon fill="#e0e0e0" stroke="#999999" points="419,-74 361,-74 361,-55 419,-55 419,-74"/>
<text text-anchor="middle" x="390" y="-62" font-family="Helvetica,sans-Serif" font-size="10.00">memory</text>
</a>
</g>
</g>
<!-- Node2&#45;&gt;Node9 -->
<g id="edge10_Node000002_Node000009" class="edge">
<title>Node2&#45;&gt;Node9</title>
<g id="a_edge10_Node000002_Node000009"><a xlink:title=" ">
<path fill="none" stroke="#63b8ff" d="M224.65,-109.98C259.05,-100.73 314.04,-85.94 351.06,-75.98"/>
<polygon fill="#63b8ff" stroke="#63b8ff" points="352.25,-79.28 360.99,-73.3 350.43,-72.52 352.25,-79.28"/>
</a>
</g>
</g>
<!-- Node4 -->
<g id="Node000004" class="node">
<title>Node4</title>
<g id="a_Node000004"><a xlink:title=" ">
<polygon fill="#e0e0e0" stroke="#999999" points="121.5,-19 68.5,-19 68.5,0 121.5,0 121.5,-19"/>
<text text-anchor="middle" x="95" y="-7" font-family="Helvetica,sans-Serif" font-size="10.00">cstddef</text>
</a>
</g>
</g>
<!-- Node3&#45;&gt;Node4 -->
<g id="edge3_Node000003_Node000004" class="edge">
<title>Node3&#45;&gt;Node4</title>
<g id="a_edge3_Node000003_Node000004"><a xlink:title=" ">
<path fill="none" stroke="#63b8ff" d="M95,-54.75C95,-47.8 95,-37.85 95,-29.13"/>
<polygon fill="#63b8ff" stroke="#63b8ff" points="98.5,-29.09 95,-19.09 91.5,-29.09 98.5,-29.09"/>
</a>
</g>
</g>
<!-- Node3&#45;&gt;Node5 -->
<g id="edge4_Node000003_Node000005" class="edge">
<title>Node3&#45;&gt;Node5</title>
<g id="a_edge4_Node000003_Node000005"><a xlink:title=" ">
<path fill="none" stroke="#63b8ff" d="M83.75,-54.98C73.2,-47 57.2,-34.88 44.56,-25.31"/>
<polygon fill="#63b8ff" stroke="#63b8ff" points="46.54,-22.42 36.45,-19.17 42.31,-28 46.54,-22.42"/>
</a>
</g>
</g>
<!-- Node3&#45;&gt;Node6 -->
<g id="edge5_Node000003_Node000006" class="edge">
<title>Node3&#45;&gt;Node6</title>
<g id="a_edge5_Node000003_Node000006"><a xlink:title=" ">
<path fill="none" stroke="#63b8ff" d="M105.76,-54.98C115.77,-47.07 130.89,-35.11 142.93,-25.58"/>
<polygon fill="#63b8ff" stroke="#63b8ff" points="145.37,-28.12 151.04,-19.17 141.03,-22.63 145.37,-28.12"/>
</a>
</g>
</g>
</g>
</svg>
