<?xml version="1.0" encoding="UTF-8" standalone="no"?>
<!DOCTYPE svg PUBLIC "-//W3C//DTD SVG 1.1//EN"
 "http://www.w3.org/Graphics/SVG/1.1/DTD/svg11.dtd">
<!-- Generated by graphviz version 2.43.0 (0)
 -->
<!-- Title: src/compiler/symbol_table.cpp Pages: 1 -->
<svg width="674pt" height="203pt"
 viewBox="0.00 0.00 674.07 203.00" xmlns="http://www.w3.org/2000/svg" xmlns:xlink="http://www.w3.org/1999/xlink">
<g id="graph0" class="graph" transform="scale(1 1) rotate(0) translate(4 199)">
<title>src/compiler/symbol_table.cpp</title>
<!-- Node1 -->
<g id="Node000001" class="node">
<title>Node1</title>
<g id="a_Node000001"><a xlink:title=" ">
<polygon fill="#999999" stroke="#666666" points="425.57,-195 309.57,-195 309.57,-165 425.57,-165 425.57,-195"/>
<text text-anchor="start" x="317.57" y="-183" font-family="Helvetica,sans-Serif" font-size="10.00">src/compiler/symbol</text>
<text text-anchor="middle" x="367.57" y="-172" font-family="Helvetica,sans-Serif" font-size="10.00">_table.cpp</text>
</a>
</g>
</g>
<!-- Node2 -->
<g id="Node000002" class="node">
<title>Node2</title>
<g id="a_Node000002"><a xlink:href="compiler_8hpp.html" target="_top" xlink:title=" ">
<polygon fill="white" stroke="#666666" points="363.57,-129 283.57,-129 283.57,-110 363.57,-110 363.57,-129"/>
<text text-anchor="middle" x="323.57" y="-117" font-family="Helvetica,sans-Serif" font-size="10.00">compiler.hpp</text>
</a>
</g>
</g>
<!-- Node1&#45;&gt;Node2 -->
<g id="edge1_Node000001_Node000002" class="edge">
<title>Node1&#45;&gt;Node2</title>
<g id="a_edge1_Node000001_Node000002"><a xlink:title=" ">
<path fill="none" stroke="#63b8ff" d="M356.92,-164.84C350.73,-156.61 342.89,-146.18 336.36,-137.51"/>
<polygon fill="#63b8ff" stroke="#63b8ff" points="338.97,-135.15 330.16,-129.27 333.38,-139.36 338.97,-135.15"/>
</a>
</g>
</g>
<!-- Node6 -->
<g id="Node000006" class="node">
<title>Node6</title>
<g id="a_Node000006"><a xlink:title=" ">
<polygon fill="#e0e0e0" stroke="#999999" points="103.57,-19 59.57,-19 59.57,0 103.57,0 103.57,-19"/>
<text text-anchor="middle" x="81.57" y="-7" font-family="Helvetica,sans-Serif" font-size="10.00">string</text>
</a>
</g>
</g>
<!-- Node1&#45;&gt;Node6 -->
<g id="edge21_Node000001_Node000006" class="edge">
<title>Node1&#45;&gt;Node6</title>
<g id="a_edge21_Node000001_Node000006"><a xlink:title=" ">
<path fill="none" stroke="#63b8ff" d="M309.21,-170.68C216.25,-156.1 41.23,-122.77 4.57,-74 -12.01,-51.95 21.82,-32.76 49.77,-21.41"/>
<polygon fill="#63b8ff" stroke="#63b8ff" points="51.25,-24.59 59.32,-17.73 48.73,-18.06 51.25,-24.59"/>
</a>
</g>
</g>
<!-- Node13 -->
<g id="Node000013" class="node">
<title>Node13</title>
<g id="a_Node000013"><a xlink:title=" ">
<polygon fill="#e0e0e0" stroke="#999999" points="441.57,-129 381.57,-129 381.57,-110 441.57,-110 441.57,-129"/>
<text text-anchor="middle" x="411.57" y="-117" font-family="Helvetica,sans-Serif" font-size="10.00">iostream</text>
</a>
</g>
</g>
<!-- Node1&#45;&gt;Node13 -->
<g id="edge19_Node000001_Node000013" class="edge">
<title>Node1&#45;&gt;Node13</title>
<g id="a_edge19_Node000001_Node000013"><a xlink:title=" ">
<path fill="none" stroke="#63b8ff" d="M378.22,-164.84C384.41,-156.61 392.26,-146.18 398.78,-137.51"/>
<polygon fill="#63b8ff" stroke="#63b8ff" points="401.76,-139.36 404.98,-129.27 396.17,-135.15 401.76,-139.36"/>
</a>
</g>
</g>
<!-- Node14 -->
<g id="Node000014" class="node">
<title>Node14</title>
<g id="a_Node000014"><a xlink:title=" ">
<polygon fill="#e0e0e0" stroke="#999999" points="525.07,-129 460.07,-129 460.07,-110 525.07,-110 525.07,-129"/>
<text text-anchor="middle" x="492.57" y="-117" font-family="Helvetica,sans-Serif" font-size="10.00">stdexcept</text>
</a>
</g>
</g>
<!-- Node1&#45;&gt;Node14 -->
<g id="edge20_Node000001_Node000014" class="edge">
<title>Node1&#45;&gt;Node14</title>
<g id="a_edge20_Node000001_Node000014"><a xlink:title=" ">
<path fill="none" stroke="#63b8ff" d="M397.51,-164.99C417.99,-155.4 444.95,-142.79 464.93,-133.44"/>
<polygon fill="#63b8ff" stroke="#63b8ff" points="466.54,-136.55 474.11,-129.14 463.57,-130.21 466.54,-136.55"/>
</a>
</g>
</g>
<!-- Node3 -->
<g id="Node000003" class="node">
<title>Node3</title>
<g id="a_Node000003"><a xlink:href="bytecode_8hpp.html" target="_top" xlink:title=" ">
<polygon fill="white" stroke="#666666" points="597.07,-74 514.07,-74 514.07,-55 597.07,-55 597.07,-74"/>
<text text-anchor="middle" x="555.57" y="-62" font-family="Helvetica,sans-Serif" font-size="10.00">bytecode.hpp</text>
</a>
</g>
</g>
<!-- Node2&#45;&gt;Node3 -->
<g id="edge2_Node000002_Node000003" class="edge">
<title>Node2&#45;&gt;Node3</title>
<g id="a_edge2_Node000002_Node000003"><a xlink:title=" ">
<path fill="none" stroke="#63b8ff" d="M360.85,-109.98C400.89,-100.84 464.64,-86.27 508.21,-76.32"/>
<polygon fill="#63b8ff" stroke="#63b8ff" points="509.03,-79.72 518,-74.08 507.48,-72.9 509.03,-79.72"/>
</a>
</g>
</g>
<!-- Node4 -->
<g id="Node000004" class="node">
<title>Node4</title>
<g id="a_Node000004"><a xlink:title=" ">
<polygon fill="#e0e0e0" stroke="#999999" points="580.57,-19 530.57,-19 530.57,0 580.57,0 580.57,-19"/>
<text text-anchor="middle" x="555.57" y="-7" font-family="Helvetica,sans-Serif" font-size="10.00">cstdint</text>
</a>
</g>
</g>
<!-- Node2&#45;&gt;Node4 -->
<g id="edge13_Node000002_Node000004" class="edge">
<title>Node2&#45;&gt;Node4</title>
<g id="a_edge13_Node000002_Node000004"><a xlink:title=" ">
<path fill="none" stroke="#63b8ff" d="M363.67,-111.48C366.68,-110.97 369.67,-110.47 372.57,-110 424.49,-101.5 572.31,-113.93 606.57,-74 620.86,-57.34 599.07,-37.54 579.7,-24.53"/>
<polygon fill="#63b8ff" stroke="#63b8ff" points="581.43,-21.48 571.11,-19.06 577.67,-27.38 581.43,-21.48"/>
</a>
</g>
</g>
<!-- Node2&#45;&gt;Node6 -->
<g id="edge15_Node000002_Node000006" class="edge">
<title>Node2&#45;&gt;Node6</title>
<g id="a_edge15_Node000002_Node000006"><a xlink:title=" ">
<path fill="none" stroke="#63b8ff" d="M283.49,-118.97C207.55,-118.9 47.19,-113.92 12.57,-74 -3.98,-54.91 24.89,-35.63 50.19,-23.41"/>
<polygon fill="#63b8ff" stroke="#63b8ff" points="51.99,-26.44 59.61,-19.08 49.06,-20.07 51.99,-26.44"/>
</a>
</g>
</g>
<!-- Node7 -->
<g id="Node000007" class="node">
<title>Node7</title>
<g id="a_Node000007"><a xlink:title=" ">
<polygon fill="#e0e0e0" stroke="#999999" points="666.07,-19 619.07,-19 619.07,0 666.07,0 666.07,-19"/>
<text text-anchor="middle" x="642.57" y="-7" font-family="Helvetica,sans-Serif" font-size="10.00">vector</text>
</a>
</g>
</g>
<!-- Node2&#45;&gt;Node7 -->
<g id="edge17_Node000002_Node000007" class="edge">
<title>Node2&#45;&gt;Node7</title>
<g id="a_edge17_Node000002_Node000007"><a xlink:title=" ">
<path fill="none" stroke="#63b8ff" d="M363.67,-111.45C366.68,-110.95 369.67,-110.46 372.57,-110 428.01,-101.2 579.8,-110.35 622.57,-74 635.5,-63.02 640.18,-43.76 641.81,-29.32"/>
<polygon fill="#63b8ff" stroke="#63b8ff" points="645.33,-29.26 642.58,-19.02 638.35,-28.74 645.33,-29.26"/>
</a>
</g>
</g>
<!-- Node8 -->
<g id="Node000008" class="node">
<title>Node8</title>
<g id="a_Node000008"><a xlink:href="params_8hpp.html" target="_top" xlink:title=" ">
<polygon fill="white" stroke="#666666" points="141.57,-74 21.57,-74 21.57,-55 141.57,-55 141.57,-74"/>
<text text-anchor="middle" x="81.57" y="-62" font-family="Helvetica,sans-Serif" font-size="10.00">compiler/params.hpp</text>
</a>
</g>
</g>
<!-- Node2&#45;&gt;Node8 -->
<g id="edge7_Node000002_Node000008" class="edge">
<title>Node2&#45;&gt;Node8</title>
<g id="a_edge7_Node000002_Node000008"><a xlink:title=" ">
<path fill="none" stroke="#63b8ff" d="M284.69,-109.98C242.83,-100.82 176.14,-86.21 130.69,-76.26"/>
<polygon fill="#63b8ff" stroke="#63b8ff" points="131.27,-72.8 120.76,-74.08 129.78,-79.64 131.27,-72.8"/>
</a>
</g>
</g>
<!-- Node9 -->
<g id="Node000009" class="node">
<title>Node9</title>
<g id="a_Node000009"><a xlink:href="types_8hpp.html" target="_top" xlink:title=" ">
<polygon fill="white" stroke="#666666" points="225.07,-74 160.07,-74 160.07,-55 225.07,-55 225.07,-74"/>
<text text-anchor="middle" x="192.57" y="-62" font-family="Helvetica,sans-Serif" font-size="10.00">types.hpp</text>
</a>
</g>
</g>
<!-- Node2&#45;&gt;Node9 -->
<g id="edge9_Node000002_Node000009" class="edge">
<title>Node2&#45;&gt;Node9</title>
<g id="a_edge9_Node000002_Node000009"><a xlink:title=" ">
<path fill="none" stroke="#63b8ff" d="M302.52,-109.98C281.16,-101.34 247.87,-87.87 223.51,-78.02"/>
<polygon fill="#63b8ff" stroke="#63b8ff" points="224.58,-74.68 214,-74.17 221.96,-81.17 224.58,-74.68"/>
</a>
</g>
</g>
<!-- Node10 -->
<g id="Node000010" class="node">
<title>Node10</title>
<g id="a_Node000010"><a xlink:title=" ">
<polygon fill="#e0e0e0" stroke="#999999" points="308.07,-74 243.07,-74 243.07,-55 308.07,-55 308.07,-74"/>
<text text-anchor="middle" x="275.57" y="-62" font-family="Helvetica,sans-Serif" font-size="10.00">exception</text>
</a>
</g>
</g>
<!-- Node2&#45;&gt;Node10 -->
<g id="edge14_Node000002_Node000010" class="edge">
<title>Node2&#45;&gt;Node10</title>
<g id="a_edge14_Node000002_Node000010"><a xlink:title=" ">
<path fill="none" stroke="#63b8ff" d="M315.64,-109.75C308.72,-102.11 298.51,-90.82 290.12,-81.56"/>
<polygon fill="#63b8ff" stroke="#63b8ff" points="292.66,-79.15 283.35,-74.09 287.47,-83.85 292.66,-79.15"/>
</a>
</g>
</g>
<!-- Node11 -->
<g id="Node000011" class="node">
<title>Node11</title>
<g id="a_Node000011"><a xlink:title=" ">
<polygon fill="#e0e0e0" stroke="#999999" points="419.07,-74 326.07,-74 326.07,-55 419.07,-55 419.07,-74"/>
<text text-anchor="middle" x="372.57" y="-62" font-family="Helvetica,sans-Serif" font-size="10.00">unordered_map</text>
</a>
</g>
</g>
<!-- Node2&#45;&gt;Node11 -->
<g id="edge16_Node000002_Node000011" class="edge">
<title>Node2&#45;&gt;Node11</title>
<g id="a_edge16_Node000002_Node000011"><a xlink:title=" ">
<path fill="none" stroke="#63b8ff" d="M331.66,-109.75C338.73,-102.11 349.16,-90.82 357.72,-81.56"/>
<polygon fill="#63b8ff" stroke="#63b8ff" points="360.41,-83.81 364.63,-74.09 355.27,-79.06 360.41,-83.81"/>
</a>
</g>
</g>
<!-- Node12 -->
<g id="Node000012" class="node">
<title>Node12</title>
<g id="a_Node000012"><a xlink:title=" ">
<polygon fill="#e0e0e0" stroke="#999999" points="495.57,-74 437.57,-74 437.57,-55 495.57,-55 495.57,-74"/>
<text text-anchor="middle" x="466.57" y="-62" font-family="Helvetica,sans-Serif" font-size="10.00">memory</text>
</a>
</g>
</g>
<!-- Node2&#45;&gt;Node12 -->
<g id="edge18_Node000002_Node000012" class="edge">
<title>Node2&#45;&gt;Node12</title>
<g id="a_edge18_Node000002_Node000012"><a xlink:title=" ">
<path fill="none" stroke="#63b8ff" d="M346.55,-109.98C370.07,-101.27 406.86,-87.63 433.51,-77.75"/>
<polygon fill="#63b8ff" stroke="#63b8ff" points="435.02,-80.93 443.18,-74.17 432.58,-74.36 435.02,-80.93"/>
</a>
</g>
</g>
<!-- Node3&#45;&gt;Node4 -->
<g id="edge3_Node000003_Node000004" class="edge">
<title>Node3&#45;&gt;Node4</title>
<g id="a_edge3_Node000003_Node000004"><a xlink:title=" ">
<path fill="none" stroke="#63b8ff" d="M555.57,-54.75C555.57,-47.8 555.57,-37.85 555.57,-29.13"/>
<polygon fill="#63b8ff" stroke="#63b8ff" points="559.07,-29.09 555.57,-19.09 552.07,-29.09 559.07,-29.09"/>
</a>
</g>
</g>
<!-- Node5 -->
<g id="Node000005" class="node">
<title>Node5</title>
<g id="a_Node000005"><a xlink:title=" ">
<polygon fill="#e0e0e0" stroke="#999999" points="365.07,-19 312.07,-19 312.07,0 365.07,0 365.07,-19"/>
<text text-anchor="middle" x="338.57" y="-7" font-family="Helvetica,sans-Serif" font-size="10.00">cstddef</text>
</a>
</g>
</g>
<!-- Node3&#45;&gt;Node5 -->
<g id="edge4_Node000003_Node000005" class="edge">
<title>Node3&#45;&gt;Node5</title>
<g id="a_edge4_Node000003_Node000005"><a xlink:title=" ">
<path fill="none" stroke="#63b8ff" d="M520.71,-54.98C480.72,-45.22 415.48,-29.29 374.9,-19.37"/>
<polygon fill="#63b8ff" stroke="#63b8ff" points="375.69,-15.96 365.14,-16.99 374.03,-22.76 375.69,-15.96"/>
</a>
</g>
</g>
<!-- Node3&#45;&gt;Node6 -->
<g id="edge5_Node000003_Node000006" class="edge">
<title>Node3&#45;&gt;Node6</title>
<g id="a_edge5_Node000003_Node000006"><a xlink:title=" ">
<path fill="none" stroke="#63b8ff" d="M513.85,-56.34C510.72,-55.86 507.59,-55.41 504.57,-55 359.11,-35.25 184.49,-19.34 113.71,-13.21"/>
<polygon fill="#63b8ff" stroke="#63b8ff" points="113.91,-9.72 103.65,-12.35 113.31,-16.69 113.91,-9.72"/>
</a>
</g>
</g>
<!-- Node3&#45;&gt;Node7 -->
<g id="edge6_Node000003_Node000007" class="edge">
<title>Node3&#45;&gt;Node7</title>
<g id="a_edge6_Node000003_Node000007"><a xlink:title=" ">
<path fill="none" stroke="#63b8ff" d="M569.55,-54.98C583.04,-46.77 603.7,-34.18 619.61,-24.49"/>
<polygon fill="#63b8ff" stroke="#63b8ff" points="621.62,-27.36 628.34,-19.17 617.98,-21.38 621.62,-27.36"/>
</a>
</g>
</g>
<!-- Node8&#45;&gt;Node6 -->
<g id="edge8_Node000008_Node000006" class="edge">
<title>Node8&#45;&gt;Node6</title>
<g id="a_edge8_Node000008_Node000006"><a xlink:title=" ">
<path fill="none" stroke="#63b8ff" d="M81.57,-54.75C81.57,-47.8 81.57,-37.85 81.57,-29.13"/>
<polygon fill="#63b8ff" stroke="#63b8ff" points="85.07,-29.09 81.57,-19.09 78.07,-29.09 85.07,-29.09"/>
</a>
</g>
</g>
<!-- Node9&#45;&gt;Node4 -->
<g id="edge11_Node000009_Node000004" class="edge">
<title>Node9&#45;&gt;Node4</title>
<g id="a_edge11_Node000009_Node000004"><a xlink:title=" ">
<path fill="none" stroke="#63b8ff" d="M225.21,-56.53C228.03,-55.99 230.85,-55.47 233.57,-55 337.45,-37.08 461.16,-21.62 520.46,-14.57"/>
<polygon fill="#63b8ff" stroke="#63b8ff" points="520.91,-18.04 530.43,-13.39 520.09,-11.09 520.91,-18.04"/>
</a>
</g>
</g>
<!-- Node9&#45;&gt;Node5 -->
<g id="edge10_Node000009_Node000005" class="edge">
<title>Node9&#45;&gt;Node5</title>
<g id="a_edge10_Node000009_Node000005"><a xlink:title=" ">
<path fill="none" stroke="#63b8ff" d="M216.03,-54.98C240.15,-46.23 277.94,-32.51 305.17,-22.62"/>
<polygon fill="#63b8ff" stroke="#63b8ff" points="306.48,-25.87 314.69,-19.17 304.09,-19.29 306.48,-25.87"/>
</a>
</g>
</g>
<!-- Node9&#45;&gt;Node6 -->
<g id="edge12_Node000009_Node000006" class="edge">
<title>Node9&#45;&gt;Node6</title>
<g id="a_edge12_Node000009_Node000006"><a xlink:title=" ">
<path fill="none" stroke="#63b8ff" d="M174.74,-54.98C156.96,-46.5 129.42,-33.35 108.89,-23.54"/>
<polygon fill="#63b8ff" stroke="#63b8ff" points="110.26,-20.32 99.73,-19.17 107.25,-26.64 110.26,-20.32"/>
</a>
</g>
</g>
</g>
</svg>
