<?xml version="1.0" encoding="UTF-8" standalone="no"?>
<!DOCTYPE svg PUBLIC "-//W3C//DTD SVG 1.1//EN"
 "http://www.w3.org/Graphics/SVG/1.1/DTD/svg11.dtd">
<!-- Generated by graphviz version 2.43.0 (0)
 -->
<!-- Title: src/compiler/symbol_table.cpp Pages: 1 -->
<svg width="995pt" height="203pt"
 viewBox="0.00 0.00 995.00 203.00" xmlns="http://www.w3.org/2000/svg" xmlns:xlink="http://www.w3.org/1999/xlink">
<g id="graph0" class="graph" transform="scale(1 1) rotate(0) translate(4 199)">
<title>src/compiler/symbol_table.cpp</title>
<!-- Node1 -->
<g id="Node000001" class="node">
<title>Node1</title>
<g id="a_Node000001"><a xlink:title=" ">
<polygon fill="#999999" stroke="#666666" points="902.5,-195 786.5,-195 786.5,-165 902.5,-165 902.5,-195"/>
<text text-anchor="start" x="794.5" y="-183" font-family="Helvetica,sans-Serif" font-size="10.00">src/compiler/symbol</text>
<text text-anchor="middle" x="844.5" y="-172" font-family="Helvetica,sans-Serif" font-size="10.00">_table.cpp</text>
</a>
</g>
</g>
<!-- Node2 -->
<g id="Node000002" class="node">
<title>Node2</title>
<g id="a_Node000002"><a xlink:href="compiler_8hpp.html" target="_top" xlink:title=" ">
<polygon fill="white" stroke="#666666" points="391.5,-129 311.5,-129 311.5,-110 391.5,-110 391.5,-129"/>
<text text-anchor="middle" x="351.5" y="-117" font-family="Helvetica,sans-Serif" font-size="10.00">compiler.hpp</text>
</a>
</g>
</g>
<!-- Node1&#45;&gt;Node2 -->
<g id="edge1_Node000001_Node000002" class="edge">
<title>Node1&#45;&gt;Node2</title>
<g id="a_edge1_Node000001_Node000002"><a xlink:title=" ">
<path fill="none" stroke="#63b8ff" d="M786.5,-172.12C688.95,-160.54 493.73,-137.38 401.7,-126.46"/>
<polygon fill="#63b8ff" stroke="#63b8ff" points="401.87,-122.95 391.53,-125.25 401.04,-129.9 401.87,-122.95"/>
</a>
</g>
</g>
<!-- Node6 -->
<g id="Node000006" class="node">
<title>Node6</title>
<g id="a_Node000006"><a xlink:title=" ">
<polygon fill="#e0e0e0" stroke="#999999" points="292.5,-19 248.5,-19 248.5,0 292.5,0 292.5,-19"/>
<text text-anchor="middle" x="270.5" y="-7" font-family="Helvetica,sans-Serif" font-size="10.00">string</text>
</a>
</g>
</g>
<!-- Node1&#45;&gt;Node6 -->
<g id="edge24_Node000001_Node000006" class="edge">
<title>Node1&#45;&gt;Node6</title>
<g id="a_edge24_Node000001_Node000006"><a xlink:title=" ">
<path fill="none" stroke="#63b8ff" d="M841.04,-164.9C833.5,-135.39 814.79,-68.7 796.5,-55 776.67,-40.14 414.85,-18.62 303.1,-12.31"/>
<polygon fill="#63b8ff" stroke="#63b8ff" points="302.97,-8.79 292.79,-11.73 302.58,-15.78 302.97,-8.79"/>
</a>
</g>
</g>
<!-- Node15 -->
<g id="Node000015" class="node">
<title>Node15</title>
<g id="a_Node000015"><a xlink:title=" ">
<polygon fill="#e0e0e0" stroke="#999999" points="903.5,-129 843.5,-129 843.5,-110 903.5,-110 903.5,-129"/>
<text text-anchor="middle" x="873.5" y="-117" font-family="Helvetica,sans-Serif" font-size="10.00">iostream</text>
</a>
</g>
</g>
<!-- Node1&#45;&gt;Node15 -->
<g id="edge22_Node000001_Node000015" class="edge">
<title>Node1&#45;&gt;Node15</title>
<g id="a_edge22_Node000001_Node000015"><a xlink:title=" ">
<path fill="none" stroke="#63b8ff" d="M851.52,-164.84C855.47,-156.87 860.44,-146.84 864.66,-138.33"/>
<polygon fill="#63b8ff" stroke="#63b8ff" points="867.85,-139.78 869.15,-129.27 861.58,-136.67 867.85,-139.78"/>
</a>
</g>
</g>
<!-- Node16 -->
<g id="Node000016" class="node">
<title>Node16</title>
<g id="a_Node000016"><a xlink:title=" ">
<polygon fill="#e0e0e0" stroke="#999999" points="987,-129 922,-129 922,-110 987,-110 987,-129"/>
<text text-anchor="middle" x="954.5" y="-117" font-family="Helvetica,sans-Serif" font-size="10.00">stdexcept</text>
</a>
</g>
</g>
<!-- Node1&#45;&gt;Node16 -->
<g id="edge23_Node000001_Node000016" class="edge">
<title>Node1&#45;&gt;Node16</title>
<g id="a_edge23_Node000001_Node000016"><a xlink:title=" ">
<path fill="none" stroke="#63b8ff" d="M870.85,-164.99C888.55,-155.58 911.73,-143.24 929.21,-133.95"/>
<polygon fill="#63b8ff" stroke="#63b8ff" points="931.07,-136.92 938.26,-129.14 927.78,-130.74 931.07,-136.92"/>
</a>
</g>
</g>
<!-- Node3 -->
<g id="Node000003" class="node">
<title>Node3</title>
<g id="a_Node000003"><a xlink:href="bytecode_8hpp.html" target="_top" xlink:title=" ">
<polygon fill="white" stroke="#666666" points="152,-74 69,-74 69,-55 152,-55 152,-74"/>
<text text-anchor="middle" x="110.5" y="-62" font-family="Helvetica,sans-Serif" font-size="10.00">bytecode.hpp</text>
</a>
</g>
</g>
<!-- Node2&#45;&gt;Node3 -->
<g id="edge2_Node000002_Node000003" class="edge">
<title>Node2&#45;&gt;Node3</title>
<g id="a_edge2_Node000002_Node000003"><a xlink:title=" ">
<path fill="none" stroke="#63b8ff" d="M312.78,-109.98C271.09,-100.82 204.68,-86.21 159.41,-76.26"/>
<polygon fill="#63b8ff" stroke="#63b8ff" points="160.04,-72.81 149.52,-74.08 158.54,-79.65 160.04,-72.81"/>
</a>
</g>
</g>
<!-- Node4 -->
<g id="Node000004" class="node">
<title>Node4</title>
<g id="a_Node000004"><a xlink:title=" ">
<polygon fill="#e0e0e0" stroke="#999999" points="135.5,-19 85.5,-19 85.5,0 135.5,0 135.5,-19"/>
<text text-anchor="middle" x="110.5" y="-7" font-family="Helvetica,sans-Serif" font-size="10.00">cstdint</text>
</a>
</g>
</g>
<!-- Node2&#45;&gt;Node4 -->
<g id="edge16_Node000002_Node000004" class="edge">
<title>Node2&#45;&gt;Node4</title>
<g id="a_edge16_Node000002_Node000004"><a xlink:title=" ">
<path fill="none" stroke="#63b8ff" d="M311.33,-118.54C239.02,-117.67 91.5,-111.24 59.5,-74 45.2,-57.35 66.99,-37.55 86.36,-24.53"/>
<polygon fill="#63b8ff" stroke="#63b8ff" points="88.4,-27.39 94.96,-19.07 84.64,-21.48 88.4,-27.39"/>
</a>
</g>
</g>
<!-- Node2&#45;&gt;Node6 -->
<g id="edge18_Node000002_Node000006" class="edge">
<title>Node2&#45;&gt;Node6</title>
<g id="a_edge18_Node000002_Node000006"><a xlink:title=" ">
<path fill="none" stroke="#63b8ff" d="M329.36,-109.88C313.8,-102.65 293.8,-90.79 282.5,-74 273.59,-60.77 270.88,-42.64 270.23,-29.15"/>
<polygon fill="#63b8ff" stroke="#63b8ff" points="273.72,-29.05 270.07,-19.1 266.72,-29.16 273.72,-29.05"/>
</a>
</g>
</g>
<!-- Node7 -->
<g id="Node000007" class="node">
<title>Node7</title>
<g id="a_Node000007"><a xlink:title=" ">
<polygon fill="#e0e0e0" stroke="#999999" points="47,-19 0,-19 0,0 47,0 47,-19"/>
<text text-anchor="middle" x="23.5" y="-7" font-family="Helvetica,sans-Serif" font-size="10.00">vector</text>
</a>
</g>
</g>
<!-- Node2&#45;&gt;Node7 -->
<g id="edge20_Node000002_Node000007" class="edge">
<title>Node2&#45;&gt;Node7</title>
<g id="a_edge20_Node000002_Node000007"><a xlink:title=" ">
<path fill="none" stroke="#63b8ff" d="M311.32,-117.26C239.19,-114.28 91.54,-104.53 51.5,-74 37.3,-63.17 30.16,-43.6 26.66,-29.03"/>
<polygon fill="#63b8ff" stroke="#63b8ff" points="30.06,-28.2 24.64,-19.1 23.2,-29.6 30.06,-28.2"/>
</a>
</g>
</g>
<!-- Node8 -->
<g id="Node000008" class="node">
<title>Node8</title>
<g id="a_Node000008"><a xlink:href="essentials_8hpp.html" target="_top" xlink:title=" ">
<polygon fill="white" stroke="#666666" points="517,-74 430,-74 430,-55 517,-55 517,-74"/>
<text text-anchor="middle" x="473.5" y="-62" font-family="Helvetica,sans-Serif" font-size="10.00">essentials.hpp</text>
</a>
</g>
</g>
<!-- Node2&#45;&gt;Node8 -->
<g id="edge7_Node000002_Node000008" class="edge">
<title>Node2&#45;&gt;Node8</title>
<g id="a_edge7_Node000002_Node000008"><a xlink:title=" ">
<path fill="none" stroke="#63b8ff" d="M371.1,-109.98C390.82,-101.42 421.45,-88.11 444.08,-78.28"/>
<polygon fill="#63b8ff" stroke="#63b8ff" points="445.76,-81.37 453.54,-74.17 442.98,-74.94 445.76,-81.37"/>
</a>
</g>
</g>
<!-- Node10 -->
<g id="Node000010" class="node">
<title>Node10</title>
<g id="a_Node000010"><a xlink:href="params_8hpp.html" target="_top" xlink:title=" ">
<polygon fill="white" stroke="#666666" points="411.5,-74 291.5,-74 291.5,-55 411.5,-55 411.5,-74"/>
<text text-anchor="middle" x="351.5" y="-62" font-family="Helvetica,sans-Serif" font-size="10.00">compiler/params.hpp</text>
</a>
</g>
</g>
<!-- Node2&#45;&gt;Node10 -->
<g id="edge10_Node000002_Node000010" class="edge">
<title>Node2&#45;&gt;Node10</title>
<g id="a_edge10_Node000002_Node000010"><a xlink:title=" ">
<path fill="none" stroke="#63b8ff" d="M351.5,-109.75C351.5,-102.8 351.5,-92.85 351.5,-84.13"/>
<polygon fill="#63b8ff" stroke="#63b8ff" points="355,-84.09 351.5,-74.09 348,-84.09 355,-84.09"/>
</a>
</g>
</g>
<!-- Node11 -->
<g id="Node000011" class="node">
<title>Node11</title>
<g id="a_Node000011"><a xlink:href="types_8hpp.html" target="_top" xlink:title=" ">
<polygon fill="white" stroke="#666666" points="235,-74 170,-74 170,-55 235,-55 235,-74"/>
<text text-anchor="middle" x="202.5" y="-62" font-family="Helvetica,sans-Serif" font-size="10.00">types.hpp</text>
</a>
</g>
</g>
<!-- Node2&#45;&gt;Node11 -->
<g id="edge12_Node000002_Node000011" class="edge">
<title>Node2&#45;&gt;Node11</title>
<g id="a_edge12_Node000002_Node000011"><a xlink:title=" ">
<path fill="none" stroke="#63b8ff" d="M327.56,-109.98C302.94,-101.23 264.38,-87.51 236.58,-77.62"/>
<polygon fill="#63b8ff" stroke="#63b8ff" points="237.47,-74.22 226.88,-74.17 235.12,-80.82 237.47,-74.22"/>
</a>
</g>
</g>
<!-- Node12 -->
<g id="Node000012" class="node">
<title>Node12</title>
<g id="a_Node000012"><a xlink:title=" ">
<polygon fill="#e0e0e0" stroke="#999999" points="600,-74 535,-74 535,-55 600,-55 600,-74"/>
<text text-anchor="middle" x="567.5" y="-62" font-family="Helvetica,sans-Serif" font-size="10.00">exception</text>
</a>
</g>
</g>
<!-- Node2&#45;&gt;Node12 -->
<g id="edge17_Node000002_Node000012" class="edge">
<title>Node2&#45;&gt;Node12</title>
<g id="a_edge17_Node000002_Node000012"><a xlink:title=" ">
<path fill="none" stroke="#63b8ff" d="M386.2,-109.98C423.91,-100.73 484.19,-85.94 524.78,-75.98"/>
<polygon fill="#63b8ff" stroke="#63b8ff" points="525.77,-79.34 534.65,-73.56 524.11,-72.54 525.77,-79.34"/>
</a>
</g>
</g>
<!-- Node13 -->
<g id="Node000013" class="node">
<title>Node13</title>
<g id="a_Node000013"><a xlink:title=" ">
<polygon fill="#e0e0e0" stroke="#999999" points="711,-74 618,-74 618,-55 711,-55 711,-74"/>
<text text-anchor="middle" x="664.5" y="-62" font-family="Helvetica,sans-Serif" font-size="10.00">unordered_map</text>
</a>
</g>
</g>
<!-- Node2&#45;&gt;Node13 -->
<g id="edge19_Node000002_Node000013" class="edge">
<title>Node2&#45;&gt;Node13</title>
<g id="a_edge19_Node000002_Node000013"><a xlink:title=" ">
<path fill="none" stroke="#63b8ff" d="M391.78,-111.68C446.68,-102.38 545.28,-85.69 607.68,-75.12"/>
<polygon fill="#63b8ff" stroke="#63b8ff" points="608.48,-78.54 617.75,-73.42 607.31,-71.63 608.48,-78.54"/>
</a>
</g>
</g>
<!-- Node14 -->
<g id="Node000014" class="node">
<title>Node14</title>
<g id="a_Node000014"><a xlink:title=" ">
<polygon fill="#e0e0e0" stroke="#999999" points="787.5,-74 729.5,-74 729.5,-55 787.5,-55 787.5,-74"/>
<text text-anchor="middle" x="758.5" y="-62" font-family="Helvetica,sans-Serif" font-size="10.00">memory</text>
</a>
</g>
</g>
<!-- Node2&#45;&gt;Node14 -->
<g id="edge21_Node000002_Node000014" class="edge">
<title>Node2&#45;&gt;Node14</title>
<g id="a_edge21_Node000002_Node000014"><a xlink:title=" ">
<path fill="none" stroke="#63b8ff" d="M391.55,-114.99C457.71,-108.92 594.13,-95.17 718.98,-74.11"/>
<polygon fill="#63b8ff" stroke="#63b8ff" points="719.83,-77.51 729.1,-72.38 718.65,-70.61 719.83,-77.51"/>
</a>
</g>
</g>
<!-- Node3&#45;&gt;Node4 -->
<g id="edge3_Node000003_Node000004" class="edge">
<title>Node3&#45;&gt;Node4</title>
<g id="a_edge3_Node000003_Node000004"><a xlink:title=" ">
<path fill="none" stroke="#63b8ff" d="M110.5,-54.75C110.5,-47.8 110.5,-37.85 110.5,-29.13"/>
<polygon fill="#63b8ff" stroke="#63b8ff" points="114,-29.09 110.5,-19.09 107,-29.09 114,-29.09"/>
</a>
</g>
</g>
<!-- Node5 -->
<g id="Node000005" class="node">
<title>Node5</title>
<g id="a_Node000005"><a xlink:title=" ">
<polygon fill="#e0e0e0" stroke="#999999" points="222,-19 169,-19 169,0 222,0 222,-19"/>
<text text-anchor="middle" x="195.5" y="-7" font-family="Helvetica,sans-Serif" font-size="10.00">cstddef</text>
</a>
</g>
</g>
<!-- Node3&#45;&gt;Node5 -->
<g id="edge4_Node000003_Node000005" class="edge">
<title>Node3&#45;&gt;Node5</title>
<g id="a_edge4_Node000003_Node000005"><a xlink:title=" ">
<path fill="none" stroke="#63b8ff" d="M124.16,-54.98C137.34,-46.77 157.53,-34.18 173.07,-24.49"/>
<polygon fill="#63b8ff" stroke="#63b8ff" points="174.96,-27.43 181.59,-19.17 171.26,-21.49 174.96,-27.43"/>
</a>
</g>
</g>
<!-- Node3&#45;&gt;Node6 -->
<g id="edge5_Node000003_Node000006" class="edge">
<title>Node3&#45;&gt;Node6</title>
<g id="a_edge5_Node000003_Node000006"><a xlink:title=" ">
<path fill="none" stroke="#63b8ff" d="M136.21,-54.98C164.14,-45.73 208.8,-30.94 238.87,-20.98"/>
<polygon fill="#63b8ff" stroke="#63b8ff" points="240.07,-24.27 248.46,-17.8 237.87,-17.62 240.07,-24.27"/>
</a>
</g>
</g>
<!-- Node3&#45;&gt;Node7 -->
<g id="edge6_Node000003_Node000007" class="edge">
<title>Node3&#45;&gt;Node7</title>
<g id="a_edge6_Node000003_Node000007"><a xlink:title=" ">
<path fill="none" stroke="#63b8ff" d="M96.52,-54.98C83.03,-46.77 62.37,-34.18 46.46,-24.49"/>
<polygon fill="#63b8ff" stroke="#63b8ff" points="48.09,-21.38 37.73,-19.17 44.45,-27.36 48.09,-21.38"/>
</a>
</g>
</g>
<!-- Node8&#45;&gt;Node6 -->
<g id="edge9_Node000008_Node000006" class="edge">
<title>Node8&#45;&gt;Node6</title>
<g id="a_edge9_Node000008_Node000006"><a xlink:title=" ">
<path fill="none" stroke="#63b8ff" d="M440.88,-54.98C402.88,-45.06 340.47,-28.77 302.66,-18.9"/>
<polygon fill="#63b8ff" stroke="#63b8ff" points="303.25,-15.43 292.69,-16.29 301.48,-22.21 303.25,-15.43"/>
</a>
</g>
</g>
<!-- Node9 -->
<g id="Node000009" class="node">
<title>Node9</title>
<g id="a_Node000009"><a xlink:title=" ">
<polygon fill="#e0e0e0" stroke="#999999" points="499,-19 448,-19 448,0 499,0 499,-19"/>
<text text-anchor="middle" x="473.5" y="-7" font-family="Helvetica,sans-Serif" font-size="10.00">errno.h</text>
</a>
</g>
</g>
<!-- Node8&#45;&gt;Node9 -->
<g id="edge8_Node000008_Node000009" class="edge">
<title>Node8&#45;&gt;Node9</title>
<g id="a_edge8_Node000008_Node000009"><a xlink:title=" ">
<path fill="none" stroke="#63b8ff" d="M473.5,-54.75C473.5,-47.8 473.5,-37.85 473.5,-29.13"/>
<polygon fill="#63b8ff" stroke="#63b8ff" points="477,-29.09 473.5,-19.09 470,-29.09 477,-29.09"/>
</a>
</g>
</g>
<!-- Node10&#45;&gt;Node6 -->
<g id="edge11_Node000010_Node000006" class="edge">
<title>Node10&#45;&gt;Node6</title>
<g id="a_edge11_Node000010_Node000006"><a xlink:title=" ">
<path fill="none" stroke="#63b8ff" d="M338.49,-54.98C326.04,-46.84 307.04,-34.41 292.29,-24.76"/>
<polygon fill="#63b8ff" stroke="#63b8ff" points="294.04,-21.72 283.75,-19.17 290.2,-27.57 294.04,-21.72"/>
</a>
</g>
</g>
<!-- Node11&#45;&gt;Node4 -->
<g id="edge14_Node000011_Node000004" class="edge">
<title>Node11&#45;&gt;Node4</title>
<g id="a_edge14_Node000011_Node000004"><a xlink:title=" ">
<path fill="none" stroke="#63b8ff" d="M187.72,-54.98C173.32,-46.69 151.19,-33.94 134.31,-24.22"/>
<polygon fill="#63b8ff" stroke="#63b8ff" points="135.96,-21.13 125.55,-19.17 132.47,-27.19 135.96,-21.13"/>
</a>
</g>
</g>
<!-- Node11&#45;&gt;Node5 -->
<g id="edge13_Node000011_Node000005" class="edge">
<title>Node11&#45;&gt;Node5</title>
<g id="a_edge13_Node000011_Node000005"><a xlink:title=" ">
<path fill="none" stroke="#63b8ff" d="M201.34,-54.75C200.43,-47.8 199.11,-37.85 197.96,-29.13"/>
<polygon fill="#63b8ff" stroke="#63b8ff" points="201.41,-28.54 196.63,-19.09 194.47,-29.46 201.41,-28.54"/>
</a>
</g>
</g>
<!-- Node11&#45;&gt;Node6 -->
<g id="edge15_Node000011_Node000006" class="edge">
<title>Node11&#45;&gt;Node6</title>
<g id="a_edge15_Node000011_Node000006"><a xlink:title=" ">
<path fill="none" stroke="#63b8ff" d="M213.43,-54.98C223.58,-47.07 238.92,-35.11 251.15,-25.58"/>
<polygon fill="#63b8ff" stroke="#63b8ff" points="253.64,-28.08 259.38,-19.17 249.34,-22.56 253.64,-28.08"/>
</a>
</g>
</g>
</g>
</svg>
