<?xml version="1.0" encoding="UTF-8" standalone="no"?>
<!DOCTYPE svg PUBLIC "-//W3C//DTD SVG 1.1//EN"
 "http://www.w3.org/Graphics/SVG/1.1/DTD/svg11.dtd">
<!-- Generated by graphviz version 2.43.0 (0)
 -->
<!-- Title: src/compiler/symbol_table.cpp Pages: 1 -->
<svg width="537pt" height="203pt"
 viewBox="0.00 0.00 537.09 203.00" xmlns="http://www.w3.org/2000/svg" xmlns:xlink="http://www.w3.org/1999/xlink">
<g id="graph0" class="graph" transform="scale(1 1) rotate(0) translate(4 199)">
<title>src/compiler/symbol_table.cpp</title>
<!-- Node1 -->
<g id="Node000001" class="node">
<title>Node1</title>
<g id="a_Node000001"><a xlink:title=" ">
<polygon fill="#999999" stroke="#666666" points="337.59,-195 221.59,-195 221.59,-165 337.59,-165 337.59,-195"/>
<text text-anchor="start" x="229.59" y="-183" font-family="Helvetica,sans-Serif" font-size="10.00">src/compiler/symbol</text>
<text text-anchor="middle" x="279.59" y="-172" font-family="Helvetica,sans-Serif" font-size="10.00">_table.cpp</text>
</a>
</g>
</g>
<!-- Node2 -->
<g id="Node000002" class="node">
<title>Node2</title>
<g id="a_Node000002"><a xlink:href="compiler_8hpp.html" target="_top" xlink:title=" ">
<polygon fill="white" stroke="#666666" points="275.59,-129 195.59,-129 195.59,-110 275.59,-110 275.59,-129"/>
<text text-anchor="middle" x="235.59" y="-117" font-family="Helvetica,sans-Serif" font-size="10.00">compiler.hpp</text>
</a>
</g>
</g>
<!-- Node1&#45;&gt;Node2 -->
<g id="edge1_Node000001_Node000002" class="edge">
<title>Node1&#45;&gt;Node2</title>
<g id="a_edge1_Node000001_Node000002"><a xlink:title=" ">
<path fill="none" stroke="#63b8ff" d="M268.94,-164.84C262.75,-156.61 254.9,-146.18 248.38,-137.51"/>
<polygon fill="#63b8ff" stroke="#63b8ff" points="250.99,-135.15 242.18,-129.27 245.4,-139.36 250.99,-135.15"/>
</a>
</g>
</g>
<!-- Node6 -->
<g id="Node000006" class="node">
<title>Node6</title>
<g id="a_Node000006"><a xlink:title=" ">
<polygon fill="#e0e0e0" stroke="#999999" points="47.59,-19 3.59,-19 3.59,0 47.59,0 47.59,-19"/>
<text text-anchor="middle" x="25.59" y="-7" font-family="Helvetica,sans-Serif" font-size="10.00">string</text>
</a>
</g>
</g>
<!-- Node1&#45;&gt;Node6 -->
<g id="edge19_Node000001_Node000006" class="edge">
<title>Node1&#45;&gt;Node6</title>
<g id="a_edge19_Node000001_Node000006"><a xlink:title=" ">
<path fill="none" stroke="#63b8ff" d="M221.41,-175.34C156.19,-167.77 53.21,-144.61 4.59,-74 -5.04,-60.01 3.19,-41.28 12.01,-27.79"/>
<polygon fill="#63b8ff" stroke="#63b8ff" points="15.03,-29.59 18,-19.42 9.34,-25.51 15.03,-29.59"/>
</a>
</g>
</g>
<!-- Node12 -->
<g id="Node000012" class="node">
<title>Node12</title>
<g id="a_Node000012"><a xlink:title=" ">
<polygon fill="#e0e0e0" stroke="#999999" points="353.59,-129 293.59,-129 293.59,-110 353.59,-110 353.59,-129"/>
<text text-anchor="middle" x="323.59" y="-117" font-family="Helvetica,sans-Serif" font-size="10.00">iostream</text>
</a>
</g>
</g>
<!-- Node1&#45;&gt;Node12 -->
<g id="edge17_Node000001_Node000012" class="edge">
<title>Node1&#45;&gt;Node12</title>
<g id="a_edge17_Node000001_Node000012"><a xlink:title=" ">
<path fill="none" stroke="#63b8ff" d="M290.24,-164.84C296.43,-156.61 304.28,-146.18 310.8,-137.51"/>
<polygon fill="#63b8ff" stroke="#63b8ff" points="313.78,-139.36 317,-129.27 308.19,-135.15 313.78,-139.36"/>
</a>
</g>
</g>
<!-- Node13 -->
<g id="Node000013" class="node">
<title>Node13</title>
<g id="a_Node000013"><a xlink:title=" ">
<polygon fill="#e0e0e0" stroke="#999999" points="437.09,-129 372.09,-129 372.09,-110 437.09,-110 437.09,-129"/>
<text text-anchor="middle" x="404.59" y="-117" font-family="Helvetica,sans-Serif" font-size="10.00">stdexcept</text>
</a>
</g>
</g>
<!-- Node1&#45;&gt;Node13 -->
<g id="edge18_Node000001_Node000013" class="edge">
<title>Node1&#45;&gt;Node13</title>
<g id="a_edge18_Node000001_Node000013"><a xlink:title=" ">
<path fill="none" stroke="#63b8ff" d="M309.53,-164.99C330.01,-155.4 356.97,-142.79 376.94,-133.44"/>
<polygon fill="#63b8ff" stroke="#63b8ff" points="378.56,-136.55 386.13,-129.14 375.59,-130.21 378.56,-136.55"/>
</a>
</g>
</g>
<!-- Node3 -->
<g id="Node000003" class="node">
<title>Node3</title>
<g id="a_Node000003"><a xlink:href="bytecode_8hpp.html" target="_top" xlink:title=" ">
<polygon fill="white" stroke="#666666" points="460.09,-74 377.09,-74 377.09,-55 460.09,-55 460.09,-74"/>
<text text-anchor="middle" x="418.59" y="-62" font-family="Helvetica,sans-Serif" font-size="10.00">bytecode.hpp</text>
</a>
</g>
</g>
<!-- Node2&#45;&gt;Node3 -->
<g id="edge2_Node000002_Node000003" class="edge">
<title>Node2&#45;&gt;Node3</title>
<g id="a_edge2_Node000002_Node000003"><a xlink:title=" ">
<path fill="none" stroke="#63b8ff" d="M264.99,-109.98C295.98,-101.01 344.97,-86.82 379.26,-76.89"/>
<polygon fill="#63b8ff" stroke="#63b8ff" points="380.33,-80.23 388.96,-74.08 378.38,-73.5 380.33,-80.23"/>
</a>
</g>
</g>
<!-- Node4 -->
<g id="Node000004" class="node">
<title>Node4</title>
<g id="a_Node000004"><a xlink:title=" ">
<polygon fill="#e0e0e0" stroke="#999999" points="443.59,-19 393.59,-19 393.59,0 443.59,0 443.59,-19"/>
<text text-anchor="middle" x="418.59" y="-7" font-family="Helvetica,sans-Serif" font-size="10.00">cstdint</text>
</a>
</g>
</g>
<!-- Node2&#45;&gt;Node4 -->
<g id="edge11_Node000002_Node000004" class="edge">
<title>Node2&#45;&gt;Node4</title>
<g id="a_edge11_Node000002_Node000004"><a xlink:title=" ">
<path fill="none" stroke="#63b8ff" d="M275.69,-111.54C341.75,-99.99 466.49,-77.74 469.59,-74 483.51,-57.19 462.1,-37.56 442.91,-24.63"/>
<polygon fill="#63b8ff" stroke="#63b8ff" points="444.69,-21.62 434.38,-19.19 440.93,-27.52 444.69,-21.62"/>
</a>
</g>
</g>
<!-- Node2&#45;&gt;Node6 -->
<g id="edge13_Node000002_Node000006" class="edge">
<title>Node2&#45;&gt;Node6</title>
<g id="a_edge13_Node000002_Node000006"><a xlink:title=" ">
<path fill="none" stroke="#63b8ff" d="M195.4,-116.36C137.78,-112.37 36.14,-101.52 13.59,-74 3.18,-61.29 8.6,-42.34 15.16,-28.45"/>
<polygon fill="#63b8ff" stroke="#63b8ff" points="18.36,-29.87 19.92,-19.39 12.17,-26.62 18.36,-29.87"/>
</a>
</g>
</g>
<!-- Node7 -->
<g id="Node000007" class="node">
<title>Node7</title>
<g id="a_Node000007"><a xlink:title=" ">
<polygon fill="#e0e0e0" stroke="#999999" points="529.09,-19 482.09,-19 482.09,0 529.09,0 529.09,-19"/>
<text text-anchor="middle" x="505.59" y="-7" font-family="Helvetica,sans-Serif" font-size="10.00">vector</text>
</a>
</g>
</g>
<!-- Node2&#45;&gt;Node7 -->
<g id="edge15_Node000002_Node000007" class="edge">
<title>Node2&#45;&gt;Node7</title>
<g id="a_edge15_Node000002_Node000007"><a xlink:title=" ">
<path fill="none" stroke="#63b8ff" d="M275.84,-111.47C346.29,-99.15 484.6,-74.87 485.59,-74 498.2,-62.92 502.94,-43.99 504.68,-29.67"/>
<polygon fill="#63b8ff" stroke="#63b8ff" points="508.19,-29.67 505.52,-19.41 501.21,-29.09 508.19,-29.67"/>
</a>
</g>
</g>
<!-- Node8 -->
<g id="Node000008" class="node">
<title>Node8</title>
<g id="a_Node000008"><a xlink:href="types_8hpp.html" target="_top" xlink:title=" ">
<polygon fill="white" stroke="#666666" points="88.09,-74 23.09,-74 23.09,-55 88.09,-55 88.09,-74"/>
<text text-anchor="middle" x="55.59" y="-62" font-family="Helvetica,sans-Serif" font-size="10.00">types.hpp</text>
</a>
</g>
</g>
<!-- Node2&#45;&gt;Node8 -->
<g id="edge7_Node000002_Node000008" class="edge">
<title>Node2&#45;&gt;Node8</title>
<g id="a_edge7_Node000002_Node000008"><a xlink:title=" ">
<path fill="none" stroke="#63b8ff" d="M206.67,-109.98C176.32,-101.05 128.42,-86.94 94.71,-77.02"/>
<polygon fill="#63b8ff" stroke="#63b8ff" points="95.32,-73.55 84.74,-74.08 93.34,-80.26 95.32,-73.55"/>
</a>
</g>
</g>
<!-- Node9 -->
<g id="Node000009" class="node">
<title>Node9</title>
<g id="a_Node000009"><a xlink:title=" ">
<polygon fill="#e0e0e0" stroke="#999999" points="171.09,-74 106.09,-74 106.09,-55 171.09,-55 171.09,-74"/>
<text text-anchor="middle" x="138.59" y="-62" font-family="Helvetica,sans-Serif" font-size="10.00">exception</text>
</a>
</g>
</g>
<!-- Node2&#45;&gt;Node9 -->
<g id="edge12_Node000002_Node000009" class="edge">
<title>Node2&#45;&gt;Node9</title>
<g id="a_edge12_Node000002_Node000009"><a xlink:title=" ">
<path fill="none" stroke="#63b8ff" d="M220.01,-109.98C204.82,-101.69 181.49,-88.94 163.69,-79.22"/>
<polygon fill="#63b8ff" stroke="#63b8ff" points="164.91,-75.89 154.46,-74.17 161.56,-82.04 164.91,-75.89"/>
</a>
</g>
</g>
<!-- Node10 -->
<g id="Node000010" class="node">
<title>Node10</title>
<g id="a_Node000010"><a xlink:title=" ">
<polygon fill="#e0e0e0" stroke="#999999" points="282.09,-74 189.09,-74 189.09,-55 282.09,-55 282.09,-74"/>
<text text-anchor="middle" x="235.59" y="-62" font-family="Helvetica,sans-Serif" font-size="10.00">unordered_map</text>
</a>
</g>
</g>
<!-- Node2&#45;&gt;Node10 -->
<g id="edge14_Node000002_Node000010" class="edge">
<title>Node2&#45;&gt;Node10</title>
<g id="a_edge14_Node000002_Node000010"><a xlink:title=" ">
<path fill="none" stroke="#63b8ff" d="M235.59,-109.75C235.59,-102.8 235.59,-92.85 235.59,-84.13"/>
<polygon fill="#63b8ff" stroke="#63b8ff" points="239.09,-84.09 235.59,-74.09 232.09,-84.09 239.09,-84.09"/>
</a>
</g>
</g>
<!-- Node11 -->
<g id="Node000011" class="node">
<title>Node11</title>
<g id="a_Node000011"><a xlink:title=" ">
<polygon fill="#e0e0e0" stroke="#999999" points="358.59,-74 300.59,-74 300.59,-55 358.59,-55 358.59,-74"/>
<text text-anchor="middle" x="329.59" y="-62" font-family="Helvetica,sans-Serif" font-size="10.00">memory</text>
</a>
</g>
</g>
<!-- Node2&#45;&gt;Node11 -->
<g id="edge16_Node000002_Node000011" class="edge">
<title>Node2&#45;&gt;Node11</title>
<g id="a_edge16_Node000002_Node000011"><a xlink:title=" ">
<path fill="none" stroke="#63b8ff" d="M250.69,-109.98C265.41,-101.69 288.01,-88.94 305.26,-79.22"/>
<polygon fill="#63b8ff" stroke="#63b8ff" points="307.22,-82.13 314.21,-74.17 303.78,-76.03 307.22,-82.13"/>
</a>
</g>
</g>
<!-- Node3&#45;&gt;Node4 -->
<g id="edge3_Node000003_Node000004" class="edge">
<title>Node3&#45;&gt;Node4</title>
<g id="a_edge3_Node000003_Node000004"><a xlink:title=" ">
<path fill="none" stroke="#63b8ff" d="M418.59,-54.75C418.59,-47.8 418.59,-37.85 418.59,-29.13"/>
<polygon fill="#63b8ff" stroke="#63b8ff" points="422.09,-29.09 418.59,-19.09 415.09,-29.09 422.09,-29.09"/>
</a>
</g>
</g>
<!-- Node5 -->
<g id="Node000005" class="node">
<title>Node5</title>
<g id="a_Node000005"><a xlink:title=" ">
<polygon fill="#e0e0e0" stroke="#999999" points="247.09,-19 194.09,-19 194.09,0 247.09,0 247.09,-19"/>
<text text-anchor="middle" x="220.59" y="-7" font-family="Helvetica,sans-Serif" font-size="10.00">cstddef</text>
</a>
</g>
</g>
<!-- Node3&#45;&gt;Node5 -->
<g id="edge4_Node000003_Node000005" class="edge">
<title>Node3&#45;&gt;Node5</title>
<g id="a_edge4_Node000003_Node000005"><a xlink:title=" ">
<path fill="none" stroke="#63b8ff" d="M386.78,-54.98C351.41,-45.52 294.37,-30.25 257.17,-20.29"/>
<polygon fill="#63b8ff" stroke="#63b8ff" points="257.81,-16.84 247.24,-17.63 256,-23.6 257.81,-16.84"/>
</a>
</g>
</g>
<!-- Node3&#45;&gt;Node6 -->
<g id="edge5_Node000003_Node000006" class="edge">
<title>Node3&#45;&gt;Node6</title>
<g id="a_edge5_Node000003_Node000006"><a xlink:title=" ">
<path fill="none" stroke="#63b8ff" d="M376.86,-56.42C373.73,-55.93 370.61,-55.45 367.59,-55 253.89,-38.13 118.39,-21.54 57.73,-14.29"/>
<polygon fill="#63b8ff" stroke="#63b8ff" points="57.98,-10.8 47.63,-13.09 57.15,-17.75 57.98,-10.8"/>
</a>
</g>
</g>
<!-- Node3&#45;&gt;Node7 -->
<g id="edge6_Node000003_Node000007" class="edge">
<title>Node3&#45;&gt;Node7</title>
<g id="a_edge6_Node000003_Node000007"><a xlink:title=" ">
<path fill="none" stroke="#63b8ff" d="M432.57,-54.98C446.06,-46.77 466.72,-34.18 482.63,-24.49"/>
<polygon fill="#63b8ff" stroke="#63b8ff" points="484.64,-27.36 491.36,-19.17 481,-21.38 484.64,-27.36"/>
</a>
</g>
</g>
<!-- Node8&#45;&gt;Node4 -->
<g id="edge9_Node000008_Node000004" class="edge">
<title>Node8&#45;&gt;Node4</title>
<g id="a_edge9_Node000008_Node000004"><a xlink:title=" ">
<path fill="none" stroke="#63b8ff" d="M88.23,-56.53C91.05,-55.99 93.87,-55.47 96.59,-55 200.47,-37.08 324.18,-21.62 383.48,-14.57"/>
<polygon fill="#63b8ff" stroke="#63b8ff" points="383.93,-18.04 393.45,-13.39 383.11,-11.09 383.93,-18.04"/>
</a>
</g>
</g>
<!-- Node8&#45;&gt;Node5 -->
<g id="edge8_Node000008_Node000005" class="edge">
<title>Node8&#45;&gt;Node5</title>
<g id="a_edge8_Node000008_Node000005"><a xlink:title=" ">
<path fill="none" stroke="#63b8ff" d="M82.1,-54.98C109.8,-46.09 153.45,-32.07 184.33,-22.15"/>
<polygon fill="#63b8ff" stroke="#63b8ff" points="185.42,-25.47 193.87,-19.08 183.28,-18.81 185.42,-25.47"/>
</a>
</g>
</g>
<!-- Node8&#45;&gt;Node6 -->
<g id="edge10_Node000008_Node000006" class="edge">
<title>Node8&#45;&gt;Node6</title>
<g id="a_edge10_Node000008_Node000006"><a xlink:title=" ">
<path fill="none" stroke="#63b8ff" d="M50.64,-54.75C46.53,-47.49 40.56,-36.95 35.48,-27.98"/>
<polygon fill="#63b8ff" stroke="#63b8ff" points="38.42,-26.07 30.45,-19.09 32.33,-29.52 38.42,-26.07"/>
</a>
</g>
</g>
</g>
</svg>
