<?xml version="1.0" encoding="UTF-8" standalone="no"?>
<!DOCTYPE svg PUBLIC "-//W3C//DTD SVG 1.1//EN"
 "http://www.w3.org/Graphics/SVG/1.1/DTD/svg11.dtd">
<!-- Generated by graphviz version 2.43.0 (0)
 -->
<!-- Title: src/compiler/temp_allocator.cpp Pages: 1 -->
<svg width="1169pt" height="192pt"
 viewBox="0.00 0.00 1168.50 192.00" xmlns="http://www.w3.org/2000/svg" xmlns:xlink="http://www.w3.org/1999/xlink">
<g id="graph0" class="graph" transform="scale(1 1) rotate(0) translate(4 188)">
<title>src/compiler/temp_allocator.cpp</title>
<!-- Node1 -->
<g id="Node000001" class="node">
<title>Node1</title>
<g id="a_Node000001"><a xlink:title=" ">
<polygon fill="#999999" stroke="#666666" points="643.5,-184 470.5,-184 470.5,-165 643.5,-165 643.5,-184"/>
<text text-anchor="middle" x="557" y="-172" font-family="Helvetica,sans-Serif" font-size="10.00">src/compiler/temp_allocator.cpp</text>
</a>
</g>
</g>
<!-- Node2 -->
<g id="Node000002" class="node">
<title>Node2</title>
<g id="a_Node000002"><a xlink:href="bytecode_8hpp.html" target="_top" xlink:title=" ">
<polygon fill="white" stroke="#666666" points="287.5,-74 204.5,-74 204.5,-55 287.5,-55 287.5,-74"/>
<text text-anchor="middle" x="246" y="-62" font-family="Helvetica,sans-Serif" font-size="10.00">bytecode.hpp</text>
</a>
</g>
</g>
<!-- Node1&#45;&gt;Node2 -->
<g id="edge1_Node000001_Node000002" class="edge">
<title>Node1&#45;&gt;Node2</title>
<g id="a_edge1_Node000001_Node000002"><a xlink:title=" ">
<path fill="none" stroke="#63b8ff" d="M532.34,-164.94C477.11,-145.76 343.39,-99.32 280.18,-77.37"/>
<polygon fill="#63b8ff" stroke="#63b8ff" points="281.26,-74.04 270.67,-74.07 278.96,-80.65 281.26,-74.04"/>
</a>
</g>
</g>
<!-- Node3 -->
<g id="Node000003" class="node">
<title>Node3</title>
<g id="a_Node000003"><a xlink:title=" ">
<polygon fill="#e0e0e0" stroke="#999999" points="201,-19 151,-19 151,0 201,0 201,-19"/>
<text text-anchor="middle" x="176" y="-7" font-family="Helvetica,sans-Serif" font-size="10.00">cstdint</text>
</a>
</g>
</g>
<!-- Node1&#45;&gt;Node3 -->
<g id="edge25_Node000001_Node000003" class="edge">
<title>Node1&#45;&gt;Node3</title>
<g id="a_edge25_Node000001_Node000003"><a xlink:title=" ">
<path fill="none" stroke="#63b8ff" d="M486.51,-164.95C388.06,-151.42 217.1,-121.62 179,-74 169.1,-61.62 169.36,-43.15 171.5,-29.32"/>
<polygon fill="#63b8ff" stroke="#63b8ff" points="174.95,-29.91 173.46,-19.42 168.09,-28.55 174.95,-29.91"/>
</a>
</g>
</g>
<!-- Node5 -->
<g id="Node000005" class="node">
<title>Node5</title>
<g id="a_Node000005"><a xlink:title=" ">
<polygon fill="#e0e0e0" stroke="#999999" points="740,-19 696,-19 696,0 740,0 740,-19"/>
<text text-anchor="middle" x="718" y="-7" font-family="Helvetica,sans-Serif" font-size="10.00">string</text>
</a>
</g>
</g>
<!-- Node1&#45;&gt;Node5 -->
<g id="edge28_Node000001_Node000005" class="edge">
<title>Node1&#45;&gt;Node5</title>
<g id="a_edge28_Node000001_Node000005"><a xlink:title=" ">
<path fill="none" stroke="#63b8ff" d="M643.82,-165.04C752.75,-152.42 930.18,-124.55 970,-74 975.23,-67.37 975.43,-61.47 970,-55 942.32,-22.01 812.05,-13.46 750.44,-11.26"/>
<polygon fill="#63b8ff" stroke="#63b8ff" points="750.23,-7.75 740.12,-10.93 750.01,-14.75 750.23,-7.75"/>
</a>
</g>
</g>
<!-- Node7 -->
<g id="Node000007" class="node">
<title>Node7</title>
<g id="a_Node000007"><a xlink:href="vmreg__defines_8hpp.html" target="_top" xlink:title=" ">
<polygon fill="white" stroke="#666666" points="110,-129 0,-129 0,-110 110,-110 110,-129"/>
<text text-anchor="middle" x="55" y="-117" font-family="Helvetica,sans-Serif" font-size="10.00">vmreg_defines.hpp</text>
</a>
</g>
</g>
<!-- Node1&#45;&gt;Node7 -->
<g id="edge6_Node000001_Node000007" class="edge">
<title>Node1&#45;&gt;Node7</title>
<g id="a_edge6_Node000001_Node000007"><a xlink:title=" ">
<path fill="none" stroke="#63b8ff" d="M470.27,-165.11C382.82,-156.52 243.96,-142.55 124,-129 122.89,-128.87 121.77,-128.75 120.64,-128.62"/>
<polygon fill="#63b8ff" stroke="#63b8ff" points="120.69,-125.1 110.35,-127.42 119.88,-132.05 120.69,-125.1"/>
</a>
</g>
</g>
<!-- Node8 -->
<g id="Node000008" class="node">
<title>Node8</title>
<g id="a_Node000008"><a xlink:href="compiler_8hpp.html" target="_top" xlink:title=" ">
<polygon fill="white" stroke="#666666" points="597,-129 517,-129 517,-110 597,-110 597,-129"/>
<text text-anchor="middle" x="557" y="-117" font-family="Helvetica,sans-Serif" font-size="10.00">compiler.hpp</text>
</a>
</g>
</g>
<!-- Node1&#45;&gt;Node8 -->
<g id="edge8_Node000001_Node000008" class="edge">
<title>Node1&#45;&gt;Node8</title>
<g id="a_edge8_Node000001_Node000008"><a xlink:title=" ">
<path fill="none" stroke="#63b8ff" d="M557,-164.75C557,-157.8 557,-147.85 557,-139.13"/>
<polygon fill="#63b8ff" stroke="#63b8ff" points="560.5,-139.09 557,-129.09 553.5,-139.09 560.5,-139.09"/>
</a>
</g>
</g>
<!-- Node16 -->
<g id="Node000016" class="node">
<title>Node16</title>
<g id="a_Node000016"><a xlink:title=" ">
<polygon fill="#e0e0e0" stroke="#999999" points="1077,-129 1017,-129 1017,-110 1077,-110 1077,-129"/>
<text text-anchor="middle" x="1047" y="-117" font-family="Helvetica,sans-Serif" font-size="10.00">iostream</text>
</a>
</g>
</g>
<!-- Node1&#45;&gt;Node16 -->
<g id="edge26_Node000001_Node000016" class="edge">
<title>Node1&#45;&gt;Node16</title>
<g id="a_edge26_Node000001_Node000016"><a xlink:title=" ">
<path fill="none" stroke="#63b8ff" d="M643.62,-167.22C733.69,-160.13 878.65,-147.18 1003,-129 1004.26,-128.82 1005.53,-128.62 1006.82,-128.42"/>
<polygon fill="#63b8ff" stroke="#63b8ff" points="1007.5,-131.85 1016.77,-126.72 1006.32,-124.95 1007.5,-131.85"/>
</a>
</g>
</g>
<!-- Node17 -->
<g id="Node000017" class="node">
<title>Node17</title>
<g id="a_Node000017"><a xlink:title=" ">
<polygon fill="#e0e0e0" stroke="#999999" points="1160.5,-129 1095.5,-129 1095.5,-110 1160.5,-110 1160.5,-129"/>
<text text-anchor="middle" x="1128" y="-117" font-family="Helvetica,sans-Serif" font-size="10.00">stdexcept</text>
</a>
</g>
</g>
<!-- Node1&#45;&gt;Node17 -->
<g id="edge27_Node000001_Node000017" class="edge">
<title>Node1&#45;&gt;Node17</title>
<g id="a_edge27_Node000001_Node000017"><a xlink:title=" ">
<path fill="none" stroke="#63b8ff" d="M643.94,-169.28C746.89,-163.58 923.69,-151.61 1084.94,-128.98"/>
<polygon fill="#63b8ff" stroke="#63b8ff" points="1085.64,-132.42 1095.05,-127.54 1084.65,-125.49 1085.64,-132.42"/>
</a>
</g>
</g>
<!-- Node2&#45;&gt;Node3 -->
<g id="edge2_Node000002_Node000003" class="edge">
<title>Node2&#45;&gt;Node3</title>
<g id="a_edge2_Node000002_Node000003"><a xlink:title=" ">
<path fill="none" stroke="#63b8ff" d="M234.75,-54.98C224.2,-47 208.2,-34.88 195.56,-25.31"/>
<polygon fill="#63b8ff" stroke="#63b8ff" points="197.54,-22.42 187.45,-19.17 193.31,-28 197.54,-22.42"/>
</a>
</g>
</g>
<!-- Node4 -->
<g id="Node000004" class="node">
<title>Node4</title>
<g id="a_Node000004"><a xlink:title=" ">
<polygon fill="#e0e0e0" stroke="#999999" points="318.5,-19 265.5,-19 265.5,0 318.5,0 318.5,-19"/>
<text text-anchor="middle" x="292" y="-7" font-family="Helvetica,sans-Serif" font-size="10.00">cstddef</text>
</a>
</g>
</g>
<!-- Node2&#45;&gt;Node4 -->
<g id="edge3_Node000002_Node000004" class="edge">
<title>Node2&#45;&gt;Node4</title>
<g id="a_edge3_Node000002_Node000004"><a xlink:title=" ">
<path fill="none" stroke="#63b8ff" d="M253.6,-54.75C260.16,-47.18 269.82,-36.05 277.81,-26.84"/>
<polygon fill="#63b8ff" stroke="#63b8ff" points="280.63,-28.94 284.55,-19.09 275.35,-24.35 280.63,-28.94"/>
</a>
</g>
</g>
<!-- Node2&#45;&gt;Node5 -->
<g id="edge4_Node000002_Node000005" class="edge">
<title>Node2&#45;&gt;Node5</title>
<g id="a_edge4_Node000002_Node000005"><a xlink:title=" ">
<path fill="none" stroke="#63b8ff" d="M287.71,-56.21C290.51,-55.78 293.3,-55.37 296,-55 441.09,-35.04 615.31,-19.24 685.94,-13.18"/>
<polygon fill="#63b8ff" stroke="#63b8ff" points="686.31,-16.66 695.97,-12.33 685.71,-9.69 686.31,-16.66"/>
</a>
</g>
</g>
<!-- Node6 -->
<g id="Node000006" class="node">
<title>Node6</title>
<g id="a_Node000006"><a xlink:title=" ">
<polygon fill="#e0e0e0" stroke="#999999" points="473.5,-19 426.5,-19 426.5,0 473.5,0 473.5,-19"/>
<text text-anchor="middle" x="450" y="-7" font-family="Helvetica,sans-Serif" font-size="10.00">vector</text>
</a>
</g>
</g>
<!-- Node2&#45;&gt;Node6 -->
<g id="edge5_Node000002_Node000006" class="edge">
<title>Node2&#45;&gt;Node6</title>
<g id="a_edge5_Node000002_Node000006"><a xlink:title=" ">
<path fill="none" stroke="#63b8ff" d="M278.78,-54.98C316.46,-45.2 378,-29.21 416.13,-19.3"/>
<polygon fill="#63b8ff" stroke="#63b8ff" points="417.43,-22.58 426.23,-16.68 415.67,-15.8 417.43,-22.58"/>
</a>
</g>
</g>
<!-- Node7&#45;&gt;Node3 -->
<g id="edge7_Node000007_Node000003" class="edge">
<title>Node7&#45;&gt;Node3</title>
<g id="a_edge7_Node000007_Node000003"><a xlink:title=" ">
<path fill="none" stroke="#63b8ff" d="M64.28,-109.76C77.43,-97.42 102.33,-74.24 124,-55 135.11,-45.14 147.77,-34.3 157.81,-25.79"/>
<polygon fill="#63b8ff" stroke="#63b8ff" points="160.16,-28.38 165.55,-19.26 155.65,-23.03 160.16,-28.38"/>
</a>
</g>
</g>
<!-- Node8&#45;&gt;Node2 -->
<g id="edge9_Node000008_Node000002" class="edge">
<title>Node8&#45;&gt;Node2</title>
<g id="a_edge9_Node000008_Node000002"><a xlink:title=" ">
<path fill="none" stroke="#63b8ff" d="M516.98,-111.68C461.03,-102.15 359.4,-84.83 297.76,-74.32"/>
<polygon fill="#63b8ff" stroke="#63b8ff" points="298.3,-70.86 287.85,-72.63 297.12,-77.76 298.3,-70.86"/>
</a>
</g>
</g>
<!-- Node8&#45;&gt;Node3 -->
<g id="edge19_Node000008_Node000003" class="edge">
<title>Node8&#45;&gt;Node3</title>
<g id="a_edge19_Node000008_Node000003"><a xlink:title=" ">
<path fill="none" stroke="#63b8ff" d="M516.73,-118.91C432.77,-118.93 242.84,-114.39 195,-74 182.1,-63.1 177.74,-43.83 176.38,-29.37"/>
<polygon fill="#63b8ff" stroke="#63b8ff" points="179.85,-28.84 175.82,-19.05 172.86,-29.22 179.85,-28.84"/>
</a>
</g>
</g>
<!-- Node8&#45;&gt;Node5 -->
<g id="edge21_Node000008_Node000005" class="edge">
<title>Node8&#45;&gt;Node5</title>
<g id="a_edge21_Node000008_Node000005"><a xlink:title=" ">
<path fill="none" stroke="#63b8ff" d="M597.37,-114.61C646.52,-108.94 725.21,-96.55 743,-74 753.96,-60.11 743.63,-40.83 733.12,-27.16"/>
<polygon fill="#63b8ff" stroke="#63b8ff" points="735.5,-24.55 726.41,-19.11 730.12,-29.03 735.5,-24.55"/>
</a>
</g>
</g>
<!-- Node8&#45;&gt;Node6 -->
<g id="edge23_Node000008_Node000006" class="edge">
<title>Node8&#45;&gt;Node6</title>
<g id="a_edge23_Node000008_Node000006"><a xlink:title=" ">
<path fill="none" stroke="#63b8ff" d="M561.91,-109.84C568.61,-96.76 578.53,-71.72 567,-55 548.4,-28.03 511.14,-17.39 483.64,-13.2"/>
<polygon fill="#63b8ff" stroke="#63b8ff" points="484.01,-9.72 473.64,-11.89 483.1,-16.66 484.01,-9.72"/>
</a>
</g>
</g>
<!-- Node9 -->
<g id="Node000009" class="node">
<title>Node9</title>
<g id="a_Node000009"><a xlink:href="essentials_8hpp.html" target="_top" xlink:title=" ">
<polygon fill="white" stroke="#666666" points="960.5,-74 873.5,-74 873.5,-55 960.5,-55 960.5,-74"/>
<text text-anchor="middle" x="917" y="-62" font-family="Helvetica,sans-Serif" font-size="10.00">essentials.hpp</text>
</a>
</g>
</g>
<!-- Node8&#45;&gt;Node9 -->
<g id="edge10_Node000008_Node000009" class="edge">
<title>Node8&#45;&gt;Node9</title>
<g id="a_edge10_Node000008_Node000009"><a xlink:title=" ">
<path fill="none" stroke="#63b8ff" d="M597.4,-112.91C654.39,-104.96 761.93,-89.78 863.22,-74.25"/>
<polygon fill="#63b8ff" stroke="#63b8ff" points="863.96,-77.68 873.32,-72.7 862.9,-70.76 863.96,-77.68"/>
</a>
</g>
</g>
<!-- Node11 -->
<g id="Node000011" class="node">
<title>Node11</title>
<g id="a_Node000011"><a xlink:href="params_8hpp.html" target="_top" xlink:title=" ">
<polygon fill="white" stroke="#666666" points="734,-74 614,-74 614,-55 734,-55 734,-74"/>
<text text-anchor="middle" x="674" y="-62" font-family="Helvetica,sans-Serif" font-size="10.00">compiler/params.hpp</text>
</a>
</g>
</g>
<!-- Node8&#45;&gt;Node11 -->
<g id="edge13_Node000008_Node000011" class="edge">
<title>Node8&#45;&gt;Node11</title>
<g id="a_edge13_Node000008_Node000011"><a xlink:title=" ">
<path fill="none" stroke="#63b8ff" d="M575.8,-109.98C594.62,-101.46 623.82,-88.23 645.5,-78.41"/>
<polygon fill="#63b8ff" stroke="#63b8ff" points="647.2,-81.48 654.86,-74.17 644.31,-75.11 647.2,-81.48"/>
</a>
</g>
</g>
<!-- Node12 -->
<g id="Node000012" class="node">
<title>Node12</title>
<g id="a_Node000012"><a xlink:href="types_8hpp.html" target="_top" xlink:title=" ">
<polygon fill="white" stroke="#666666" points="370.5,-74 305.5,-74 305.5,-55 370.5,-55 370.5,-74"/>
<text text-anchor="middle" x="338" y="-62" font-family="Helvetica,sans-Serif" font-size="10.00">types.hpp</text>
</a>
</g>
</g>
<!-- Node8&#45;&gt;Node12 -->
<g id="edge15_Node000008_Node000012" class="edge">
<title>Node8&#45;&gt;Node12</title>
<g id="a_edge15_Node000008_Node000012"><a xlink:title=" ">
<path fill="none" stroke="#63b8ff" d="M521.81,-109.98C483.28,-100.66 421.49,-85.71 380.33,-75.74"/>
<polygon fill="#63b8ff" stroke="#63b8ff" points="381.14,-72.34 370.6,-73.39 379.49,-79.14 381.14,-72.34"/>
</a>
</g>
</g>
<!-- Node13 -->
<g id="Node000013" class="node">
<title>Node13</title>
<g id="a_Node000013"><a xlink:title=" ">
<polygon fill="#e0e0e0" stroke="#999999" points="855.5,-74 790.5,-74 790.5,-55 855.5,-55 855.5,-74"/>
<text text-anchor="middle" x="823" y="-62" font-family="Helvetica,sans-Serif" font-size="10.00">exception</text>
</a>
</g>
</g>
<!-- Node8&#45;&gt;Node13 -->
<g id="edge20_Node000008_Node000013" class="edge">
<title>Node8&#45;&gt;Node13</title>
<g id="a_edge20_Node000008_Node000013"><a xlink:title=" ">
<path fill="none" stroke="#63b8ff" d="M597.11,-110.51C646.4,-100.69 729.68,-84.09 780.18,-74.03"/>
<polygon fill="#63b8ff" stroke="#63b8ff" points="781.01,-77.44 790.13,-72.05 779.64,-70.57 781.01,-77.44"/>
</a>
</g>
</g>
<!-- Node14 -->
<g id="Node000014" class="node">
<title>Node14</title>
<g id="a_Node000014"><a xlink:title=" ">
<polygon fill="#e0e0e0" stroke="#999999" points="481.5,-74 388.5,-74 388.5,-55 481.5,-55 481.5,-74"/>
<text text-anchor="middle" x="435" y="-62" font-family="Helvetica,sans-Serif" font-size="10.00">unordered_map</text>
</a>
</g>
</g>
<!-- Node8&#45;&gt;Node14 -->
<g id="edge22_Node000008_Node000014" class="edge">
<title>Node8&#45;&gt;Node14</title>
<g id="a_edge22_Node000008_Node000014"><a xlink:title=" ">
<path fill="none" stroke="#63b8ff" d="M537.4,-109.98C517.68,-101.42 487.05,-88.11 464.42,-78.28"/>
<polygon fill="#63b8ff" stroke="#63b8ff" points="465.52,-74.94 454.96,-74.17 462.74,-81.37 465.52,-74.94"/>
</a>
</g>
</g>
<!-- Node15 -->
<g id="Node000015" class="node">
<title>Node15</title>
<g id="a_Node000015"><a xlink:title=" ">
<polygon fill="#e0e0e0" stroke="#999999" points="558,-74 500,-74 500,-55 558,-55 558,-74"/>
<text text-anchor="middle" x="529" y="-62" font-family="Helvetica,sans-Serif" font-size="10.00">memory</text>
</a>
</g>
</g>
<!-- Node8&#45;&gt;Node15 -->
<g id="edge24_Node000008_Node000015" class="edge">
<title>Node8&#45;&gt;Node15</title>
<g id="a_edge24_Node000008_Node000015"><a xlink:title=" ">
<path fill="none" stroke="#63b8ff" d="M552.38,-109.75C548.54,-102.49 542.98,-91.95 538.24,-82.98"/>
<polygon fill="#63b8ff" stroke="#63b8ff" points="541.3,-81.3 533.54,-74.09 535.11,-84.57 541.3,-81.3"/>
</a>
</g>
</g>
<!-- Node9&#45;&gt;Node5 -->
<g id="edge12_Node000009_Node000005" class="edge">
<title>Node9&#45;&gt;Node5</title>
<g id="a_edge12_Node000009_Node000005"><a xlink:title=" ">
<path fill="none" stroke="#63b8ff" d="M885.03,-54.98C847.87,-45.09 786.92,-28.86 749.83,-18.98"/>
<polygon fill="#63b8ff" stroke="#63b8ff" points="750.6,-15.56 740.04,-16.37 748.8,-22.32 750.6,-15.56"/>
</a>
</g>
</g>
<!-- Node10 -->
<g id="Node000010" class="node">
<title>Node10</title>
<g id="a_Node000010"><a xlink:title=" ">
<polygon fill="#e0e0e0" stroke="#999999" points="942.5,-19 891.5,-19 891.5,0 942.5,0 942.5,-19"/>
<text text-anchor="middle" x="917" y="-7" font-family="Helvetica,sans-Serif" font-size="10.00">errno.h</text>
</a>
</g>
</g>
<!-- Node9&#45;&gt;Node10 -->
<g id="edge11_Node000009_Node000010" class="edge">
<title>Node9&#45;&gt;Node10</title>
<g id="a_edge11_Node000009_Node000010"><a xlink:title=" ">
<path fill="none" stroke="#63b8ff" d="M917,-54.75C917,-47.8 917,-37.85 917,-29.13"/>
<polygon fill="#63b8ff" stroke="#63b8ff" points="920.5,-29.09 917,-19.09 913.5,-29.09 920.5,-29.09"/>
</a>
</g>
</g>
<!-- Node11&#45;&gt;Node5 -->
<g id="edge14_Node000011_Node000005" class="edge">
<title>Node11&#45;&gt;Node5</title>
<g id="a_edge14_Node000011_Node000005"><a xlink:title=" ">
<path fill="none" stroke="#63b8ff" d="M681.27,-54.75C687.54,-47.18 696.79,-36.05 704.43,-26.84"/>
<polygon fill="#63b8ff" stroke="#63b8ff" points="707.17,-29.02 710.87,-19.09 701.79,-24.55 707.17,-29.02"/>
</a>
</g>
</g>
<!-- Node12&#45;&gt;Node3 -->
<g id="edge17_Node000012_Node000003" class="edge">
<title>Node12&#45;&gt;Node3</title>
<g id="a_edge17_Node000012_Node000003"><a xlink:title=" ">
<path fill="none" stroke="#63b8ff" d="M311.97,-54.98C284.57,-46.02 241.28,-31.86 210.92,-21.92"/>
<polygon fill="#63b8ff" stroke="#63b8ff" points="211.76,-18.52 201.16,-18.73 209.58,-25.17 211.76,-18.52"/>
</a>
</g>
</g>
<!-- Node12&#45;&gt;Node4 -->
<g id="edge16_Node000012_Node000004" class="edge">
<title>Node12&#45;&gt;Node4</title>
<g id="a_edge16_Node000012_Node000004"><a xlink:title=" ">
<path fill="none" stroke="#63b8ff" d="M330.4,-54.75C323.84,-47.18 314.18,-36.05 306.19,-26.84"/>
<polygon fill="#63b8ff" stroke="#63b8ff" points="308.65,-24.35 299.45,-19.09 303.37,-28.94 308.65,-24.35"/>
</a>
</g>
</g>
<!-- Node12&#45;&gt;Node5 -->
<g id="edge18_Node000012_Node000005" class="edge">
<title>Node12&#45;&gt;Node5</title>
<g id="a_edge18_Node000012_Node000005"><a xlink:title=" ">
<path fill="none" stroke="#63b8ff" d="M370.63,-56.51C373.46,-55.97 376.28,-55.46 379,-55 491.08,-36.05 625.18,-20.55 685.63,-13.94"/>
<polygon fill="#63b8ff" stroke="#63b8ff" points="686.14,-17.41 695.7,-12.85 685.38,-10.45 686.14,-17.41"/>
</a>
</g>
</g>
</g>
</svg>
