<?xml version="1.0" encoding="UTF-8" standalone="no"?>
<!DOCTYPE svg PUBLIC "-//W3C//DTD SVG 1.1//EN"
 "http://www.w3.org/Graphics/SVG/1.1/DTD/svg11.dtd">
<!-- Generated by graphviz version 2.43.0 (0)
 -->
<!-- Title: src/compiler/temp_allocator.cpp Pages: 1 -->
<svg width="1063pt" height="192pt"
 viewBox="0.00 0.00 1062.50 192.00" xmlns="http://www.w3.org/2000/svg" xmlns:xlink="http://www.w3.org/1999/xlink">
<g id="graph0" class="graph" transform="scale(1 1) rotate(0) translate(4 188)">
<title>src/compiler/temp_allocator.cpp</title>
<!-- Node1 -->
<g id="Node000001" class="node">
<title>Node1</title>
<g id="a_Node000001"><a xlink:title=" ">
<polygon fill="#999999" stroke="#666666" points="604.5,-184 431.5,-184 431.5,-165 604.5,-165 604.5,-184"/>
<text text-anchor="middle" x="518" y="-172" font-family="Helvetica,sans-Serif" font-size="10.00">src/compiler/temp_allocator.cpp</text>
</a>
</g>
</g>
<!-- Node2 -->
<g id="Node000002" class="node">
<title>Node2</title>
<g id="a_Node000002"><a xlink:href="bytecode_8hpp.html" target="_top" xlink:title=" ">
<polygon fill="white" stroke="#666666" points="287.5,-74 204.5,-74 204.5,-55 287.5,-55 287.5,-74"/>
<text text-anchor="middle" x="246" y="-62" font-family="Helvetica,sans-Serif" font-size="10.00">bytecode.hpp</text>
</a>
</g>
</g>
<!-- Node1&#45;&gt;Node2 -->
<g id="edge1_Node000001_Node000002" class="edge">
<title>Node1&#45;&gt;Node2</title>
<g id="a_edge1_Node000001_Node000002"><a xlink:title=" ">
<path fill="none" stroke="#63b8ff" d="M496.2,-164.84C448.04,-145.72 332.43,-99.82 276.86,-77.75"/>
<polygon fill="#63b8ff" stroke="#63b8ff" points="278.11,-74.48 267.53,-74.05 275.53,-80.99 278.11,-74.48"/>
</a>
</g>
</g>
<!-- Node3 -->
<g id="Node000003" class="node">
<title>Node3</title>
<g id="a_Node000003"><a xlink:title=" ">
<polygon fill="#e0e0e0" stroke="#999999" points="201,-19 151,-19 151,0 201,0 201,-19"/>
<text text-anchor="middle" x="176" y="-7" font-family="Helvetica,sans-Serif" font-size="10.00">cstdint</text>
</a>
</g>
</g>
<!-- Node1&#45;&gt;Node3 -->
<g id="edge22_Node000001_Node000003" class="edge">
<title>Node1&#45;&gt;Node3</title>
<g id="a_edge22_Node000001_Node000003"><a xlink:title=" ">
<path fill="none" stroke="#63b8ff" d="M461.59,-164.99C374.54,-150.59 213.83,-118.6 179,-74 169.24,-61.51 169.49,-43.05 171.59,-29.25"/>
<polygon fill="#63b8ff" stroke="#63b8ff" points="175.03,-29.87 173.51,-19.38 168.16,-28.53 175.03,-29.87"/>
</a>
</g>
</g>
<!-- Node5 -->
<g id="Node000005" class="node">
<title>Node5</title>
<g id="a_Node000005"><a xlink:title=" ">
<polygon fill="#e0e0e0" stroke="#999999" points="653,-19 609,-19 609,0 653,0 653,-19"/>
<text text-anchor="middle" x="631" y="-7" font-family="Helvetica,sans-Serif" font-size="10.00">string</text>
</a>
</g>
</g>
<!-- Node1&#45;&gt;Node5 -->
<g id="edge25_Node000001_Node000005" class="edge">
<title>Node1&#45;&gt;Node5</title>
<g id="a_edge25_Node000001_Node000005"><a xlink:title=" ">
<path fill="none" stroke="#63b8ff" d="M577.97,-164.99C667.57,-150.9 829.6,-119.69 864,-74 869.08,-67.25 869.38,-61.51 864,-55 838.86,-24.6 720.86,-14.78 663.06,-11.76"/>
<polygon fill="#63b8ff" stroke="#63b8ff" points="663.17,-8.26 653.01,-11.27 662.83,-15.25 663.17,-8.26"/>
</a>
</g>
</g>
<!-- Node7 -->
<g id="Node000007" class="node">
<title>Node7</title>
<g id="a_Node000007"><a xlink:href="vmreg__defines_8hpp.html" target="_top" xlink:title=" ">
<polygon fill="white" stroke="#666666" points="110,-129 0,-129 0,-110 110,-110 110,-129"/>
<text text-anchor="middle" x="55" y="-117" font-family="Helvetica,sans-Serif" font-size="10.00">vmreg_defines.hpp</text>
</a>
</g>
</g>
<!-- Node1&#45;&gt;Node7 -->
<g id="edge6_Node000001_Node000007" class="edge">
<title>Node1&#45;&gt;Node7</title>
<g id="a_edge6_Node000001_Node000007"><a xlink:title=" ">
<path fill="none" stroke="#63b8ff" d="M440.6,-164.99C361.13,-156.2 233.89,-141.97 124,-129 122.89,-128.87 121.77,-128.74 120.65,-128.6"/>
<polygon fill="#63b8ff" stroke="#63b8ff" points="120.7,-125.08 110.36,-127.37 119.87,-132.03 120.7,-125.08"/>
</a>
</g>
</g>
<!-- Node8 -->
<g id="Node000008" class="node">
<title>Node8</title>
<g id="a_Node000008"><a xlink:href="compiler_8hpp.html" target="_top" xlink:title=" ">
<polygon fill="white" stroke="#666666" points="558,-129 478,-129 478,-110 558,-110 558,-129"/>
<text text-anchor="middle" x="518" y="-117" font-family="Helvetica,sans-Serif" font-size="10.00">compiler.hpp</text>
</a>
</g>
</g>
<!-- Node1&#45;&gt;Node8 -->
<g id="edge8_Node000001_Node000008" class="edge">
<title>Node1&#45;&gt;Node8</title>
<g id="a_edge8_Node000001_Node000008"><a xlink:title=" ">
<path fill="none" stroke="#63b8ff" d="M518,-164.75C518,-157.8 518,-147.85 518,-139.13"/>
<polygon fill="#63b8ff" stroke="#63b8ff" points="521.5,-139.09 518,-129.09 514.5,-139.09 521.5,-139.09"/>
</a>
</g>
</g>
<!-- Node14 -->
<g id="Node000014" class="node">
<title>Node14</title>
<g id="a_Node000014"><a xlink:title=" ">
<polygon fill="#e0e0e0" stroke="#999999" points="971,-129 911,-129 911,-110 971,-110 971,-129"/>
<text text-anchor="middle" x="941" y="-117" font-family="Helvetica,sans-Serif" font-size="10.00">iostream</text>
</a>
</g>
</g>
<!-- Node1&#45;&gt;Node14 -->
<g id="edge23_Node000001_Node000014" class="edge">
<title>Node1&#45;&gt;Node14</title>
<g id="a_edge23_Node000001_Node000014"><a xlink:title=" ">
<path fill="none" stroke="#63b8ff" d="M604.8,-165.15C681.78,-157.31 797.16,-144.48 897,-129 898.25,-128.81 899.53,-128.6 900.81,-128.39"/>
<polygon fill="#63b8ff" stroke="#63b8ff" points="901.51,-131.82 910.75,-126.65 900.3,-124.93 901.51,-131.82"/>
</a>
</g>
</g>
<!-- Node15 -->
<g id="Node000015" class="node">
<title>Node15</title>
<g id="a_Node000015"><a xlink:title=" ">
<polygon fill="#e0e0e0" stroke="#999999" points="1054.5,-129 989.5,-129 989.5,-110 1054.5,-110 1054.5,-129"/>
<text text-anchor="middle" x="1022" y="-117" font-family="Helvetica,sans-Serif" font-size="10.00">stdexcept</text>
</a>
</g>
</g>
<!-- Node1&#45;&gt;Node15 -->
<g id="edge24_Node000001_Node000015" class="edge">
<title>Node1&#45;&gt;Node15</title>
<g id="a_edge24_Node000001_Node000015"><a xlink:title=" ">
<path fill="none" stroke="#63b8ff" d="M604.75,-167.84C695.57,-161.3 842.5,-149 979.25,-128.94"/>
<polygon fill="#63b8ff" stroke="#63b8ff" points="980.12,-132.35 989.5,-127.42 979.09,-125.43 980.12,-132.35"/>
</a>
</g>
</g>
<!-- Node2&#45;&gt;Node3 -->
<g id="edge2_Node000002_Node000003" class="edge">
<title>Node2&#45;&gt;Node3</title>
<g id="a_edge2_Node000002_Node000003"><a xlink:title=" ">
<path fill="none" stroke="#63b8ff" d="M234.75,-54.98C224.2,-47 208.2,-34.88 195.56,-25.31"/>
<polygon fill="#63b8ff" stroke="#63b8ff" points="197.54,-22.42 187.45,-19.17 193.31,-28 197.54,-22.42"/>
</a>
</g>
</g>
<!-- Node4 -->
<g id="Node000004" class="node">
<title>Node4</title>
<g id="a_Node000004"><a xlink:title=" ">
<polygon fill="#e0e0e0" stroke="#999999" points="318.5,-19 265.5,-19 265.5,0 318.5,0 318.5,-19"/>
<text text-anchor="middle" x="292" y="-7" font-family="Helvetica,sans-Serif" font-size="10.00">cstddef</text>
</a>
</g>
</g>
<!-- Node2&#45;&gt;Node4 -->
<g id="edge3_Node000002_Node000004" class="edge">
<title>Node2&#45;&gt;Node4</title>
<g id="a_edge3_Node000002_Node000004"><a xlink:title=" ">
<path fill="none" stroke="#63b8ff" d="M253.6,-54.75C260.16,-47.18 269.82,-36.05 277.81,-26.84"/>
<polygon fill="#63b8ff" stroke="#63b8ff" points="280.63,-28.94 284.55,-19.09 275.35,-24.35 280.63,-28.94"/>
</a>
</g>
</g>
<!-- Node2&#45;&gt;Node5 -->
<g id="edge4_Node000002_Node000005" class="edge">
<title>Node2&#45;&gt;Node5</title>
<g id="a_edge4_Node000002_Node000005"><a xlink:title=" ">
<path fill="none" stroke="#63b8ff" d="M287.72,-56.29C290.52,-55.84 293.3,-55.41 296,-55 406.82,-38.23 538.79,-21.71 598.63,-14.4"/>
<polygon fill="#63b8ff" stroke="#63b8ff" points="599.11,-17.87 608.61,-13.19 598.26,-10.92 599.11,-17.87"/>
</a>
</g>
</g>
<!-- Node6 -->
<g id="Node000006" class="node">
<title>Node6</title>
<g id="a_Node000006"><a xlink:title=" ">
<polygon fill="#e0e0e0" stroke="#999999" points="464.5,-19 417.5,-19 417.5,0 464.5,0 464.5,-19"/>
<text text-anchor="middle" x="441" y="-7" font-family="Helvetica,sans-Serif" font-size="10.00">vector</text>
</a>
</g>
</g>
<!-- Node2&#45;&gt;Node6 -->
<g id="edge5_Node000002_Node000006" class="edge">
<title>Node2&#45;&gt;Node6</title>
<g id="a_edge5_Node000002_Node000006"><a xlink:title=" ">
<path fill="none" stroke="#63b8ff" d="M277.33,-54.98C313.05,-45.28 371.21,-29.47 407.73,-19.54"/>
<polygon fill="#63b8ff" stroke="#63b8ff" points="408.68,-22.91 417.41,-16.91 406.85,-16.16 408.68,-22.91"/>
</a>
</g>
</g>
<!-- Node7&#45;&gt;Node3 -->
<g id="edge7_Node000007_Node000003" class="edge">
<title>Node7&#45;&gt;Node3</title>
<g id="a_edge7_Node000007_Node000003"><a xlink:title=" ">
<path fill="none" stroke="#63b8ff" d="M64.28,-109.76C77.43,-97.42 102.33,-74.24 124,-55 135.11,-45.14 147.77,-34.3 157.81,-25.79"/>
<polygon fill="#63b8ff" stroke="#63b8ff" points="160.16,-28.38 165.55,-19.26 155.65,-23.03 160.16,-28.38"/>
</a>
</g>
</g>
<!-- Node8&#45;&gt;Node2 -->
<g id="edge9_Node000008_Node000002" class="edge">
<title>Node8&#45;&gt;Node2</title>
<g id="a_edge9_Node000008_Node000002"><a xlink:title=" ">
<path fill="none" stroke="#63b8ff" d="M477.87,-110.68C430.07,-101.37 350.13,-85.79 297.73,-75.58"/>
<polygon fill="#63b8ff" stroke="#63b8ff" points="298.12,-72.09 287.64,-73.61 296.79,-78.96 298.12,-72.09"/>
</a>
</g>
</g>
<!-- Node8&#45;&gt;Node3 -->
<g id="edge16_Node000008_Node000003" class="edge">
<title>Node8&#45;&gt;Node3</title>
<g id="a_edge16_Node000008_Node000003"><a xlink:title=" ">
<path fill="none" stroke="#63b8ff" d="M477.97,-118.23C401.11,-116.88 236.75,-109.77 195,-74 182.18,-63.01 177.81,-43.75 176.42,-29.32"/>
<polygon fill="#63b8ff" stroke="#63b8ff" points="179.9,-28.81 175.84,-19.02 172.91,-29.2 179.9,-28.81"/>
</a>
</g>
</g>
<!-- Node8&#45;&gt;Node5 -->
<g id="edge18_Node000008_Node000005" class="edge">
<title>Node8&#45;&gt;Node5</title>
<g id="a_edge18_Node000008_Node000005"><a xlink:title=" ">
<path fill="none" stroke="#63b8ff" d="M536.1,-109.93C551.4,-102.07 573.28,-89.34 589,-74 602.85,-60.48 614.6,-41.65 622.12,-28.01"/>
<polygon fill="#63b8ff" stroke="#63b8ff" points="625.23,-29.61 626.82,-19.14 619.04,-26.34 625.23,-29.61"/>
</a>
</g>
</g>
<!-- Node8&#45;&gt;Node6 -->
<g id="edge20_Node000008_Node000006" class="edge">
<title>Node8&#45;&gt;Node6</title>
<g id="a_edge20_Node000008_Node000006"><a xlink:title=" ">
<path fill="none" stroke="#63b8ff" d="M535.42,-109.92C556.98,-98.14 589.11,-76 574,-55 551.51,-23.75 506.06,-14.13 474.59,-11.34"/>
<polygon fill="#63b8ff" stroke="#63b8ff" points="474.73,-7.84 464.51,-10.63 474.24,-14.82 474.73,-7.84"/>
</a>
</g>
</g>
<!-- Node9 -->
<g id="Node000009" class="node">
<title>Node9</title>
<g id="a_Node000009"><a xlink:href="params_8hpp.html" target="_top" xlink:title=" ">
<polygon fill="white" stroke="#666666" points="855,-74 735,-74 735,-55 855,-55 855,-74"/>
<text text-anchor="middle" x="795" y="-62" font-family="Helvetica,sans-Serif" font-size="10.00">compiler/params.hpp</text>
</a>
</g>
</g>
<!-- Node8&#45;&gt;Node9 -->
<g id="edge10_Node000008_Node000009" class="edge">
<title>Node8&#45;&gt;Node9</title>
<g id="a_edge10_Node000008_Node000009"><a xlink:title=" ">
<path fill="none" stroke="#63b8ff" d="M558.28,-110.79C606.35,-101.6 686.94,-86.18 740.53,-75.92"/>
<polygon fill="#63b8ff" stroke="#63b8ff" points="741.38,-79.32 750.54,-74.01 740.06,-72.45 741.38,-79.32"/>
</a>
</g>
</g>
<!-- Node10 -->
<g id="Node000010" class="node">
<title>Node10</title>
<g id="a_Node000010"><a xlink:href="types_8hpp.html" target="_top" xlink:title=" ">
<polygon fill="white" stroke="#666666" points="370.5,-74 305.5,-74 305.5,-55 370.5,-55 370.5,-74"/>
<text text-anchor="middle" x="338" y="-62" font-family="Helvetica,sans-Serif" font-size="10.00">types.hpp</text>
</a>
</g>
</g>
<!-- Node8&#45;&gt;Node10 -->
<g id="edge12_Node000008_Node000010" class="edge">
<title>Node8&#45;&gt;Node10</title>
<g id="a_edge12_Node000008_Node000010"><a xlink:title=" ">
<path fill="none" stroke="#63b8ff" d="M489.08,-109.98C458.73,-101.05 410.83,-86.94 377.12,-77.02"/>
<polygon fill="#63b8ff" stroke="#63b8ff" points="377.73,-73.55 367.15,-74.08 375.75,-80.26 377.73,-73.55"/>
</a>
</g>
</g>
<!-- Node11 -->
<g id="Node000011" class="node">
<title>Node11</title>
<g id="a_Node000011"><a xlink:title=" ">
<polygon fill="#e0e0e0" stroke="#999999" points="453.5,-74 388.5,-74 388.5,-55 453.5,-55 453.5,-74"/>
<text text-anchor="middle" x="421" y="-62" font-family="Helvetica,sans-Serif" font-size="10.00">exception</text>
</a>
</g>
</g>
<!-- Node8&#45;&gt;Node11 -->
<g id="edge17_Node000008_Node000011" class="edge">
<title>Node8&#45;&gt;Node11</title>
<g id="a_edge17_Node000008_Node000011"><a xlink:title=" ">
<path fill="none" stroke="#63b8ff" d="M502.42,-109.98C487.23,-101.69 463.9,-88.94 446.1,-79.22"/>
<polygon fill="#63b8ff" stroke="#63b8ff" points="447.32,-75.89 436.87,-74.17 443.97,-82.04 447.32,-75.89"/>
</a>
</g>
</g>
<!-- Node12 -->
<g id="Node000012" class="node">
<title>Node12</title>
<g id="a_Node000012"><a xlink:title=" ">
<polygon fill="#e0e0e0" stroke="#999999" points="564.5,-74 471.5,-74 471.5,-55 564.5,-55 564.5,-74"/>
<text text-anchor="middle" x="518" y="-62" font-family="Helvetica,sans-Serif" font-size="10.00">unordered_map</text>
</a>
</g>
</g>
<!-- Node8&#45;&gt;Node12 -->
<g id="edge19_Node000008_Node000012" class="edge">
<title>Node8&#45;&gt;Node12</title>
<g id="a_edge19_Node000008_Node000012"><a xlink:title=" ">
<path fill="none" stroke="#63b8ff" d="M518,-109.75C518,-102.8 518,-92.85 518,-84.13"/>
<polygon fill="#63b8ff" stroke="#63b8ff" points="521.5,-84.09 518,-74.09 514.5,-84.09 521.5,-84.09"/>
</a>
</g>
</g>
<!-- Node13 -->
<g id="Node000013" class="node">
<title>Node13</title>
<g id="a_Node000013"><a xlink:title=" ">
<polygon fill="#e0e0e0" stroke="#999999" points="717,-74 659,-74 659,-55 717,-55 717,-74"/>
<text text-anchor="middle" x="688" y="-62" font-family="Helvetica,sans-Serif" font-size="10.00">memory</text>
</a>
</g>
</g>
<!-- Node8&#45;&gt;Node13 -->
<g id="edge21_Node000008_Node000013" class="edge">
<title>Node8&#45;&gt;Node13</title>
<g id="a_edge21_Node000008_Node000013"><a xlink:title=" ">
<path fill="none" stroke="#63b8ff" d="M545.31,-109.98C573.85,-101.09 618.83,-87.07 650.64,-77.15"/>
<polygon fill="#63b8ff" stroke="#63b8ff" points="651.97,-80.4 660.47,-74.08 649.88,-73.72 651.97,-80.4"/>
</a>
</g>
</g>
<!-- Node9&#45;&gt;Node5 -->
<g id="edge11_Node000009_Node000005" class="edge">
<title>Node9&#45;&gt;Node5</title>
<g id="a_edge11_Node000009_Node000005"><a xlink:title=" ">
<path fill="none" stroke="#63b8ff" d="M768.65,-54.98C739.85,-45.68 693.72,-30.77 662.9,-20.81"/>
<polygon fill="#63b8ff" stroke="#63b8ff" points="663.67,-17.38 653.08,-17.63 661.52,-24.04 663.67,-17.38"/>
</a>
</g>
</g>
<!-- Node10&#45;&gt;Node3 -->
<g id="edge14_Node000010_Node000003" class="edge">
<title>Node10&#45;&gt;Node3</title>
<g id="a_edge14_Node000010_Node000003"><a xlink:title=" ">
<path fill="none" stroke="#63b8ff" d="M311.97,-54.98C284.57,-46.02 241.28,-31.86 210.92,-21.92"/>
<polygon fill="#63b8ff" stroke="#63b8ff" points="211.76,-18.52 201.16,-18.73 209.58,-25.17 211.76,-18.52"/>
</a>
</g>
</g>
<!-- Node10&#45;&gt;Node4 -->
<g id="edge13_Node000010_Node000004" class="edge">
<title>Node10&#45;&gt;Node4</title>
<g id="a_edge13_Node000010_Node000004"><a xlink:title=" ">
<path fill="none" stroke="#63b8ff" d="M330.4,-54.75C323.84,-47.18 314.18,-36.05 306.19,-26.84"/>
<polygon fill="#63b8ff" stroke="#63b8ff" points="308.65,-24.35 299.45,-19.09 303.37,-28.94 308.65,-24.35"/>
</a>
</g>
</g>
<!-- Node10&#45;&gt;Node5 -->
<g id="edge15_Node000010_Node000005" class="edge">
<title>Node10&#45;&gt;Node5</title>
<g id="a_edge15_Node000010_Node000005"><a xlink:title=" ">
<path fill="none" stroke="#63b8ff" d="M370.66,-56.64C373.48,-56.07 376.29,-55.52 379,-55 457.69,-39.9 550.59,-23.99 598.61,-15.9"/>
<polygon fill="#63b8ff" stroke="#63b8ff" points="599.43,-19.32 608.71,-14.21 598.27,-12.41 599.43,-19.32"/>
</a>
</g>
</g>
</g>
</svg>
