<?xml version="1.0" encoding="UTF-8" standalone="no"?>
<!DOCTYPE svg PUBLIC "-//W3C//DTD SVG 1.1//EN"
 "http://www.w3.org/Graphics/SVG/1.1/DTD/svg11.dtd">
<!-- Generated by graphviz version 2.43.0 (0)
 -->
<!-- Title: src/common/types.hpp Pages: 1 -->
<svg width="772pt" height="148pt"
 viewBox="0.00 0.00 771.50 148.00" xmlns="http://www.w3.org/2000/svg" xmlns:xlink="http://www.w3.org/1999/xlink">
<g id="graph0" class="graph" transform="scale(1 1) rotate(0) translate(4 144)">
<title>src/common/types.hpp</title>
<!-- Node1 -->
<g id="Node000001" class="node">
<title>Node1</title>
<g id="a_Node000001"><a xlink:title=" ">
<polygon fill="#999999" stroke="#666666" points="219.5,-140 91.5,-140 91.5,-121 219.5,-121 219.5,-140"/>
<text text-anchor="middle" x="155.5" y="-128" font-family="Helvetica,sans-Serif" font-size="10.00">src/common/types.hpp</text>
</a>
</g>
</g>
<!-- Node2 -->
<g id="Node000002" class="node">
<title>Node2</title>
<g id="a_Node000002"><a xlink:href="types_8cpp.html" target="_top" xlink:title=" ">
<polygon fill="white" stroke="#666666" points="127,-85 0,-85 0,-66 127,-66 127,-85"/>
<text text-anchor="middle" x="63.5" y="-73" font-family="Helvetica,sans-Serif" font-size="10.00">src/common/types.cpp</text>
</a>
</g>
</g>
<!-- Node1&#45;&gt;Node2 -->
<g id="edge1_Node000001_Node000002" class="edge">
<title>Node1&#45;&gt;Node2</title>
<g id="a_edge1_Node000001_Node000002"><a xlink:title=" ">
<path fill="none" stroke="#63b8ff" d="M132.01,-115.97C115.19,-106.28 93.05,-93.52 78.55,-85.17"/>
<polygon fill="#63b8ff" stroke="#63b8ff" points="130.31,-119.03 140.72,-120.98 133.8,-112.96 130.31,-119.03"/>
</a>
</g>
</g>
<!-- Node3 -->
<g id="Node000003" class="node">
<title>Node3</title>
<g id="a_Node000003"><a xlink:href="compiler_8hpp.html" target="_top" xlink:title=" ">
<polygon fill="white" stroke="#666666" points="415,-85 272,-85 272,-66 415,-66 415,-85"/>
<text text-anchor="middle" x="343.5" y="-73" font-family="Helvetica,sans-Serif" font-size="10.00">src/compiler/compiler.hpp</text>
</a>
</g>
</g>
<!-- Node1&#45;&gt;Node3 -->
<g id="edge2_Node000001_Node000003" class="edge">
<title>Node1&#45;&gt;Node3</title>
<g id="a_edge2_Node000001_Node000003"><a xlink:title=" ">
<path fill="none" stroke="#63b8ff" d="M195.64,-118.18C230.8,-108.27 281.13,-94.08 313.06,-85.08"/>
<polygon fill="#63b8ff" stroke="#63b8ff" points="194.38,-114.9 185.71,-120.98 196.28,-121.64 194.38,-114.9"/>
</a>
</g>
</g>
<!-- Node5 -->
<g id="Node000005" class="node">
<title>Node5</title>
<g id="a_Node000005"><a xlink:href="lexer_8cpp.html" target="_top" xlink:title=" ">
<polygon fill="white" stroke="#666666" points="199,-24.5 76,-24.5 76,-5.5 199,-5.5 199,-24.5"/>
<text text-anchor="middle" x="137.5" y="-12.5" font-family="Helvetica,sans-Serif" font-size="10.00">src/compiler/lexer.cpp</text>
</a>
</g>
</g>
<!-- Node1&#45;&gt;Node5 -->
<g id="edge8_Node000001_Node000005" class="edge">
<title>Node1&#45;&gt;Node5</title>
<g id="a_edge8_Node000001_Node000005"><a xlink:title=" ">
<path fill="none" stroke="#63b8ff" d="M152.56,-110.99C148.62,-86.13 141.78,-42.96 138.87,-24.63"/>
<polygon fill="#63b8ff" stroke="#63b8ff" points="149.12,-111.64 154.15,-120.97 156.04,-110.54 149.12,-111.64"/>
</a>
</g>
</g>
<!-- Node4 -->
<g id="Node000004" class="node">
<title>Node4</title>
<g id="a_Node000004"><a xlink:href="ast_8cpp.html" target="_top" xlink:title=" ">
<polygon fill="white" stroke="#666666" points="332,-24.5 217,-24.5 217,-5.5 332,-5.5 332,-24.5"/>
<text text-anchor="middle" x="274.5" y="-12.5" font-family="Helvetica,sans-Serif" font-size="10.00">src/compiler/ast.cpp</text>
</a>
</g>
</g>
<!-- Node3&#45;&gt;Node4 -->
<g id="edge3_Node000003_Node000004" class="edge">
<title>Node3&#45;&gt;Node4</title>
<g id="a_edge3_Node000003_Node000004"><a xlink:title=" ">
<path fill="none" stroke="#63b8ff" d="M325.48,-59.22C312.5,-48.21 295.44,-33.75 284.72,-24.67"/>
<polygon fill="#63b8ff" stroke="#63b8ff" points="323.43,-62.07 333.32,-65.87 327.95,-56.73 323.43,-62.07"/>
</a>
</g>
</g>
<!-- Node3&#45;&gt;Node5 -->
<g id="edge4_Node000003_Node000005" class="edge">
<title>Node3&#45;&gt;Node5</title>
<g id="a_edge4_Node000003_Node000005"><a xlink:title=" ">
<path fill="none" stroke="#63b8ff" d="M303.89,-63.25C264.05,-51.94 203.51,-34.75 167.49,-24.52"/>
<polygon fill="#63b8ff" stroke="#63b8ff" points="302.97,-66.63 313.55,-65.99 304.88,-59.89 302.97,-66.63"/>
</a>
</g>
</g>
<!-- Node6 -->
<g id="Node000006" class="node">
<title>Node6</title>
<g id="a_Node000006"><a xlink:href="main_8cpp.html" target="_top" xlink:title=" ">
<polygon fill="white" stroke="#666666" points="475,-24.5 350,-24.5 350,-5.5 475,-5.5 475,-24.5"/>
<text text-anchor="middle" x="412.5" y="-12.5" font-family="Helvetica,sans-Serif" font-size="10.00">src/compiler/main.cpp</text>
</a>
</g>
</g>
<!-- Node3&#45;&gt;Node6 -->
<g id="edge5_Node000003_Node000006" class="edge">
<title>Node3&#45;&gt;Node6</title>
<g id="a_edge5_Node000003_Node000006"><a xlink:title=" ">
<path fill="none" stroke="#63b8ff" d="M361.52,-59.22C374.5,-48.21 391.56,-33.75 402.28,-24.67"/>
<polygon fill="#63b8ff" stroke="#63b8ff" points="359.05,-56.73 353.68,-65.87 363.57,-62.07 359.05,-56.73"/>
</a>
</g>
</g>
<!-- Node7 -->
<g id="Node000007" class="node">
<title>Node7</title>
<g id="a_Node000007"><a xlink:href="symbol_8cpp.html" target="_top" xlink:title=" ">
<polygon fill="white" stroke="#666666" points="629.5,-24.5 493.5,-24.5 493.5,-5.5 629.5,-5.5 629.5,-24.5"/>
<text text-anchor="middle" x="561.5" y="-12.5" font-family="Helvetica,sans-Serif" font-size="10.00">src/compiler/symbol.cpp</text>
</a>
</g>
</g>
<!-- Node3&#45;&gt;Node7 -->
<g id="edge6_Node000003_Node000007" class="edge">
<title>Node3&#45;&gt;Node7</title>
<g id="a_edge6_Node000003_Node000007"><a xlink:title=" ">
<path fill="none" stroke="#63b8ff" d="M384.88,-63.4C427.03,-52.08 491.48,-34.79 529.76,-24.52"/>
<polygon fill="#63b8ff" stroke="#63b8ff" points="383.95,-60.02 375.2,-65.99 385.76,-66.78 383.95,-60.02"/>
</a>
</g>
</g>
<!-- Node8 -->
<g id="Node000008" class="node">
<title>Node8</title>
<g id="a_Node000008"><a xlink:href="symbol__table_8cpp.html" target="_top" xlink:title=" ">
<polygon fill="white" stroke="#666666" points="763.5,-30 647.5,-30 647.5,0 763.5,0 763.5,-30"/>
<text text-anchor="start" x="655.5" y="-18" font-family="Helvetica,sans-Serif" font-size="10.00">src/compiler/symbol</text>
<text text-anchor="middle" x="705.5" y="-7" font-family="Helvetica,sans-Serif" font-size="10.00">_table.cpp</text>
</a>
</g>
</g>
<!-- Node3&#45;&gt;Node8 -->
<g id="edge7_Node000003_Node000008" class="edge">
<title>Node3&#45;&gt;Node8</title>
<g id="a_edge7_Node000003_Node000008"><a xlink:title=" ">
<path fill="none" stroke="#63b8ff" d="M417.07,-64.57C476.87,-56.22 563.32,-43.51 638.5,-30 641.42,-29.47 644.42,-28.92 647.43,-28.34"/>
<polygon fill="#63b8ff" stroke="#63b8ff" points="416.39,-61.13 406.97,-65.98 417.36,-68.07 416.39,-61.13"/>
</a>
</g>
</g>
</g>
</svg>
