<?xml version="1.0" encoding="UTF-8" standalone="no"?>
<!DOCTYPE svg PUBLIC "-//W3C//DTD SVG 1.1//EN"
 "http://www.w3.org/Graphics/SVG/1.1/DTD/svg11.dtd">
<!-- Generated by graphviz version 2.43.0 (0)
 -->
<!-- Title: src/common/types.hpp Pages: 1 -->
<svg width="1195pt" height="148pt"
 viewBox="0.00 0.00 1195.00 148.00" xmlns="http://www.w3.org/2000/svg" xmlns:xlink="http://www.w3.org/1999/xlink">
<g id="graph0" class="graph" transform="scale(1 1) rotate(0) translate(4 144)">
<title>src/common/types.hpp</title>
<!-- Node1 -->
<g id="Node000001" class="node">
<title>Node1</title>
<g id="a_Node000001"><a xlink:title=" ">
<polygon fill="#999999" stroke="#666666" points="399.5,-140 271.5,-140 271.5,-121 399.5,-121 399.5,-140"/>
<text text-anchor="middle" x="335.5" y="-128" font-family="Helvetica,sans-Serif" font-size="10.00">src/common/types.hpp</text>
</a>
</g>
</g>
<!-- Node2 -->
<g id="Node000002" class="node">
<title>Node2</title>
<g id="a_Node000002"><a xlink:href="types_8cpp.html" target="_top" xlink:title=" ">
<polygon fill="white" stroke="#666666" points="269,-85 142,-85 142,-66 269,-66 269,-85"/>
<text text-anchor="middle" x="205.5" y="-73" font-family="Helvetica,sans-Serif" font-size="10.00">src/common/types.cpp</text>
</a>
</g>
</g>
<!-- Node1&#45;&gt;Node2 -->
<g id="edge1_Node000001_Node000002" class="edge">
<title>Node1&#45;&gt;Node2</title>
<g id="a_edge1_Node000001_Node000002"><a xlink:title=" ">
<path fill="none" stroke="#63b8ff" d="M305.23,-117.16C281.16,-107.35 248.1,-93.87 226.77,-85.17"/>
<polygon fill="#63b8ff" stroke="#63b8ff" points="304.03,-120.45 314.61,-120.98 306.67,-113.97 304.03,-120.45"/>
</a>
</g>
</g>
<!-- Node3 -->
<g id="Node000003" class="node">
<title>Node3</title>
<g id="a_Node000003"><a xlink:href="compiler_2bytecode_8cpp.html" target="_top" xlink:title=" ">
<polygon fill="white" stroke="#666666" points="145,-24.5 0,-24.5 0,-5.5 145,-5.5 145,-24.5"/>
<text text-anchor="middle" x="72.5" y="-12.5" font-family="Helvetica,sans-Serif" font-size="10.00">src/compiler/bytecode.cpp</text>
</a>
</g>
</g>
<!-- Node1&#45;&gt;Node3 -->
<g id="edge2_Node000001_Node000003" class="edge">
<title>Node1&#45;&gt;Node3</title>
<g id="a_edge2_Node000001_Node000003"><a xlink:title=" ">
<path fill="none" stroke="#63b8ff" d="M324.01,-112C313.58,-97.5 296.89,-77.49 277.5,-66 251.42,-50.55 173.38,-34.18 121.47,-24.53"/>
<polygon fill="#63b8ff" stroke="#63b8ff" points="321.37,-114.33 329.93,-120.58 327.13,-110.36 321.37,-114.33"/>
</a>
</g>
</g>
<!-- Node4 -->
<g id="Node000004" class="node">
<title>Node4</title>
<g id="a_Node000004"><a xlink:href="compiler_8cpp.html" target="_top" xlink:title=" ">
<polygon fill="white" stroke="#666666" points="305.5,-24.5 163.5,-24.5 163.5,-5.5 305.5,-5.5 305.5,-24.5"/>
<text text-anchor="middle" x="234.5" y="-12.5" font-family="Helvetica,sans-Serif" font-size="10.00">src/compiler/compiler.cpp</text>
</a>
</g>
</g>
<!-- Node1&#45;&gt;Node4 -->
<g id="edge3_Node000001_Node000004" class="edge">
<title>Node1&#45;&gt;Node4</title>
<g id="a_edge3_Node000001_Node000004"><a xlink:title=" ">
<path fill="none" stroke="#63b8ff" d="M331.72,-110.75C328.25,-97.19 322.01,-79.05 311.5,-66 296.2,-47.01 271.69,-32.86 254.43,-24.55"/>
<polygon fill="#63b8ff" stroke="#63b8ff" points="328.39,-111.86 334.02,-120.84 335.21,-110.31 328.39,-111.86"/>
</a>
</g>
</g>
<!-- Node5 -->
<g id="Node000005" class="node">
<title>Node5</title>
<g id="a_Node000005"><a xlink:href="compiler_8hpp.html" target="_top" xlink:title=" ">
<polygon fill="white" stroke="#666666" points="608,-85 465,-85 465,-66 608,-66 608,-85"/>
<text text-anchor="middle" x="536.5" y="-73" font-family="Helvetica,sans-Serif" font-size="10.00">src/compiler/compiler.hpp</text>
</a>
</g>
</g>
<!-- Node1&#45;&gt;Node5 -->
<g id="edge4_Node000001_Node000005" class="edge">
<title>Node1&#45;&gt;Node5</title>
<g id="a_edge4_Node000001_Node000005"><a xlink:title=" ">
<path fill="none" stroke="#63b8ff" d="M377.93,-118.31C415.54,-108.39 469.67,-94.12 503.95,-85.08"/>
<polygon fill="#63b8ff" stroke="#63b8ff" points="376.57,-115.05 367.79,-120.98 378.36,-121.82 376.57,-115.05"/>
</a>
</g>
</g>
<!-- Node8 -->
<g id="Node000008" class="node">
<title>Node8</title>
<g id="a_Node000008"><a xlink:href="lexer_8cpp.html" target="_top" xlink:title=" ">
<polygon fill="white" stroke="#666666" points="1187,-24.5 1064,-24.5 1064,-5.5 1187,-5.5 1187,-24.5"/>
<text text-anchor="middle" x="1125.5" y="-12.5" font-family="Helvetica,sans-Serif" font-size="10.00">src/compiler/lexer.cpp</text>
</a>
</g>
</g>
<!-- Node1&#45;&gt;Node8 -->
<g id="edge13_Node000001_Node000008" class="edge">
<title>Node1&#45;&gt;Node8</title>
<g id="a_edge13_Node000001_Node000008"><a xlink:title=" ">
<path fill="none" stroke="#63b8ff" d="M409.94,-120.62C540.71,-104.71 820.05,-69.3 1054.5,-30 1064.16,-28.38 1074.53,-26.45 1084.27,-24.54"/>
<polygon fill="#63b8ff" stroke="#63b8ff" points="409.16,-117.19 399.65,-121.87 410,-124.14 409.16,-117.19"/>
</a>
</g>
</g>
<!-- Node5&#45;&gt;Node3 -->
<g id="edge7_Node000005_Node000003" class="edge">
<title>Node5&#45;&gt;Node3</title>
<g id="a_edge7_Node000005_Node000003"><a xlink:title=" ">
<path fill="none" stroke="#63b8ff" d="M454.72,-66.24C377.26,-58.12 257.76,-44.82 154.5,-30 143.35,-28.4 131.38,-26.48 120.13,-24.57"/>
<polygon fill="#63b8ff" stroke="#63b8ff" points="454.58,-69.75 464.89,-67.31 455.31,-62.79 454.58,-69.75"/>
</a>
</g>
</g>
<!-- Node5&#45;&gt;Node4 -->
<g id="edge8_Node000005_Node000004" class="edge">
<title>Node5&#45;&gt;Node4</title>
<g id="a_edge8_Node000005_Node000004"><a xlink:title=" ">
<path fill="none" stroke="#63b8ff" d="M482.47,-64.03C424.18,-52.74 332.51,-34.98 278.47,-24.52"/>
<polygon fill="#63b8ff" stroke="#63b8ff" points="482.1,-67.53 492.59,-65.99 483.43,-60.66 482.1,-67.53"/>
</a>
</g>
</g>
<!-- Node6 -->
<g id="Node000006" class="node">
<title>Node6</title>
<g id="a_Node000006"><a xlink:href="CompilerSyntaxException_8cpp.html" target="_top" xlink:title=" ">
<polygon fill="white" stroke="#666666" points="615.5,-30 457.5,-30 457.5,0 615.5,0 615.5,-30"/>
<text text-anchor="start" x="465.5" y="-18" font-family="Helvetica,sans-Serif" font-size="10.00">src/compiler/CompilerSyntax</text>
<text text-anchor="middle" x="536.5" y="-7" font-family="Helvetica,sans-Serif" font-size="10.00">Exception.cpp</text>
</a>
</g>
</g>
<!-- Node5&#45;&gt;Node6 -->
<g id="edge5_Node000005_Node000006" class="edge">
<title>Node5&#45;&gt;Node6</title>
<g id="a_edge5_Node000005_Node000006"><a xlink:title=" ">
<path fill="none" stroke="#63b8ff" d="M536.5,-55.65C536.5,-47.36 536.5,-37.78 536.5,-30.11"/>
<polygon fill="#63b8ff" stroke="#63b8ff" points="533,-55.87 536.5,-65.87 540,-55.87 533,-55.87"/>
</a>
</g>
</g>
<!-- Node7 -->
<g id="Node000007" class="node">
<title>Node7</title>
<g id="a_Node000007"><a xlink:href="ast_8cpp.html" target="_top" xlink:title=" ">
<polygon fill="white" stroke="#666666" points="748,-24.5 633,-24.5 633,-5.5 748,-5.5 748,-24.5"/>
<text text-anchor="middle" x="690.5" y="-12.5" font-family="Helvetica,sans-Serif" font-size="10.00">src/compiler/ast.cpp</text>
</a>
</g>
</g>
<!-- Node5&#45;&gt;Node7 -->
<g id="edge6_Node000005_Node000007" class="edge">
<title>Node5&#45;&gt;Node7</title>
<g id="a_edge6_Node000005_Node000007"><a xlink:title=" ">
<path fill="none" stroke="#63b8ff" d="M568.41,-62.38C598.18,-51.07 641.84,-34.49 668.08,-24.52"/>
<polygon fill="#63b8ff" stroke="#63b8ff" points="567,-59.17 558.89,-65.99 569.48,-65.71 567,-59.17"/>
</a>
</g>
</g>
<!-- Node5&#45;&gt;Node8 -->
<g id="edge9_Node000005_Node000008" class="edge">
<title>Node5&#45;&gt;Node8</title>
<g id="a_edge9_Node000005_Node000008"><a xlink:title=" ">
<path fill="none" stroke="#63b8ff" d="M618.7,-70.21C721.12,-64.23 901.34,-51.61 1054.5,-30 1064.83,-28.54 1075.92,-26.56 1086.2,-24.54"/>
<polygon fill="#63b8ff" stroke="#63b8ff" points="618.2,-66.73 608.42,-70.8 618.61,-73.72 618.2,-66.73"/>
</a>
</g>
</g>
<!-- Node9 -->
<g id="Node000009" class="node">
<title>Node9</title>
<g id="a_Node000009"><a xlink:href="compiler_2main_8cpp.html" target="_top" xlink:title=" ">
<polygon fill="white" stroke="#666666" points="891,-24.5 766,-24.5 766,-5.5 891,-5.5 891,-24.5"/>
<text text-anchor="middle" x="828.5" y="-12.5" font-family="Helvetica,sans-Serif" font-size="10.00">src/compiler/main.cpp</text>
</a>
</g>
</g>
<!-- Node5&#45;&gt;Node9 -->
<g id="edge10_Node000005_Node000009" class="edge">
<title>Node5&#45;&gt;Node9</title>
<g id="a_edge10_Node000005_Node000009"><a xlink:title=" ">
<path fill="none" stroke="#63b8ff" d="M589.1,-63.96C645.46,-52.67 733.85,-34.96 785.99,-24.52"/>
<polygon fill="#63b8ff" stroke="#63b8ff" points="588.08,-60.6 578.96,-65.99 589.45,-67.46 588.08,-60.6"/>
</a>
</g>
</g>
<!-- Node10 -->
<g id="Node000010" class="node">
<title>Node10</title>
<g id="a_Node000010"><a xlink:href="symbol_8cpp.html" target="_top" xlink:title=" ">
<polygon fill="white" stroke="#666666" points="1045.5,-24.5 909.5,-24.5 909.5,-5.5 1045.5,-5.5 1045.5,-24.5"/>
<text text-anchor="middle" x="977.5" y="-12.5" font-family="Helvetica,sans-Serif" font-size="10.00">src/compiler/symbol.cpp</text>
</a>
</g>
</g>
<!-- Node5&#45;&gt;Node10 -->
<g id="edge11_Node000005_Node000010" class="edge">
<title>Node5&#45;&gt;Node10</title>
<g id="a_edge11_Node000005_Node000010"><a xlink:title=" ">
<path fill="none" stroke="#63b8ff" d="M618.32,-65.87C692.22,-57.76 803.86,-44.68 900.5,-30 911.11,-28.39 922.51,-26.44 933.19,-24.51"/>
<polygon fill="#63b8ff" stroke="#63b8ff" points="617.71,-62.42 608.15,-66.99 618.47,-69.38 617.71,-62.42"/>
</a>
</g>
</g>
<!-- Node11 -->
<g id="Node000011" class="node">
<title>Node11</title>
<g id="a_Node000011"><a xlink:href="symbol__table_8cpp.html" target="_top" xlink:title=" ">
<polygon fill="white" stroke="#666666" points="439.5,-30 323.5,-30 323.5,0 439.5,0 439.5,-30"/>
<text text-anchor="start" x="331.5" y="-18" font-family="Helvetica,sans-Serif" font-size="10.00">src/compiler/symbol</text>
<text text-anchor="middle" x="381.5" y="-7" font-family="Helvetica,sans-Serif" font-size="10.00">_table.cpp</text>
</a>
</g>
</g>
<!-- Node5&#45;&gt;Node11 -->
<g id="edge12_Node000005_Node000011" class="edge">
<title>Node5&#45;&gt;Node11</title>
<g id="a_edge12_Node000005_Node000011"><a xlink:title=" ">
<path fill="none" stroke="#63b8ff" d="M504.59,-62.46C479.66,-53.05 444.97,-39.95 418.76,-30.06"/>
<polygon fill="#63b8ff" stroke="#63b8ff" points="503.37,-65.74 513.96,-65.99 505.84,-59.19 503.37,-65.74"/>
</a>
</g>
</g>
</g>
</svg>
