<?xml version="1.0" encoding="UTF-8" standalone="no"?>
<!DOCTYPE svg PUBLIC "-//W3C//DTD SVG 1.1//EN"
 "http://www.w3.org/Graphics/SVG/1.1/DTD/svg11.dtd">
<!-- Generated by graphviz version 2.43.0 (0)
 -->
<!-- Title: src/common/types.hpp Pages: 1 -->
<svg width="3073pt" height="148pt"
 viewBox="0.00 0.00 3073.00 148.00" xmlns="http://www.w3.org/2000/svg" xmlns:xlink="http://www.w3.org/1999/xlink">
<g id="graph0" class="graph" transform="scale(1 1) rotate(0) translate(4 144)">
<title>src/common/types.hpp</title>
<!-- Node1 -->
<g id="Node000001" class="node">
<title>Node1</title>
<g id="a_Node000001"><a xlink:title=" ">
<polygon fill="#999999" stroke="#666666" points="928.5,-140 800.5,-140 800.5,-121 928.5,-121 928.5,-140"/>
<text text-anchor="middle" x="864.5" y="-128" font-family="Helvetica,sans-Serif" font-size="10.00">src/common/types.hpp</text>
</a>
</g>
</g>
<!-- Node2 -->
<g id="Node000002" class="node">
<title>Node2</title>
<g id="a_Node000002"><a xlink:href="types_8cpp.html" target="_top" xlink:title=" ">
<polygon fill="white" stroke="#666666" points="760,-85 633,-85 633,-66 760,-66 760,-85"/>
<text text-anchor="middle" x="696.5" y="-73" font-family="Helvetica,sans-Serif" font-size="10.00">src/common/types.cpp</text>
</a>
</g>
</g>
<!-- Node1&#45;&gt;Node2 -->
<g id="edge1_Node000001_Node000002" class="edge">
<title>Node1&#45;&gt;Node2</title>
<g id="a_edge1_Node000001_Node000002"><a xlink:title=" ">
<path fill="none" stroke="#63b8ff" d="M827.82,-117.93C796.44,-108.03 751.99,-94.01 723.7,-85.08"/>
<polygon fill="#63b8ff" stroke="#63b8ff" points="826.92,-121.31 837.51,-120.98 829.02,-114.64 826.92,-121.31"/>
</a>
</g>
</g>
<!-- Node3 -->
<g id="Node000003" class="node">
<title>Node3</title>
<g id="a_Node000003"><a xlink:href="compiler_2bytecode_8cpp.html" target="_top" xlink:title=" ">
<polygon fill="white" stroke="#666666" points="145,-24.5 0,-24.5 0,-5.5 145,-5.5 145,-24.5"/>
<text text-anchor="middle" x="72.5" y="-12.5" font-family="Helvetica,sans-Serif" font-size="10.00">src/compiler/bytecode.cpp</text>
</a>
</g>
</g>
<!-- Node1&#45;&gt;Node3 -->
<g id="edge2_Node000001_Node000003" class="edge">
<title>Node1&#45;&gt;Node3</title>
<g id="a_edge2_Node000001_Node000003"><a xlink:title=" ">
<path fill="none" stroke="#63b8ff" d="M843.99,-115.11C818.34,-97.24 776.77,-68.75 768.5,-66 638.61,-22.75 289.5,-45.68 153.5,-30 141.45,-28.61 128.47,-26.6 116.51,-24.53"/>
<polygon fill="#63b8ff" stroke="#63b8ff" points="842.12,-118.07 852.32,-120.93 846.13,-112.33 842.12,-118.07"/>
</a>
</g>
</g>
<!-- Node4 -->
<g id="Node000004" class="node">
<title>Node4</title>
<g id="a_Node000004"><a xlink:href="compile_8cpp.html" target="_top" xlink:title=" ">
<polygon fill="white" stroke="#666666" points="302,-24.5 163,-24.5 163,-5.5 302,-5.5 302,-24.5"/>
<text text-anchor="middle" x="232.5" y="-12.5" font-family="Helvetica,sans-Serif" font-size="10.00">src/compiler/compile.cpp</text>
</a>
</g>
</g>
<!-- Node1&#45;&gt;Node4 -->
<g id="edge3_Node000001_Node000004" class="edge">
<title>Node1&#45;&gt;Node4</title>
<g id="a_edge3_Node000001_Node000004"><a xlink:title=" ">
<path fill="none" stroke="#63b8ff" d="M853.07,-112.06C842.09,-96.96 824.02,-76.01 802.5,-66 703.3,-19.87 420.06,-43.56 311.5,-30 299.89,-28.55 287.39,-26.54 275.84,-24.5"/>
<polygon fill="#63b8ff" stroke="#63b8ff" points="850.39,-114.34 858.96,-120.56 856.14,-110.35 850.39,-114.34"/>
</a>
</g>
</g>
<!-- Node5 -->
<g id="Node000005" class="node">
<title>Node5</title>
<g id="a_Node000005"><a xlink:href="compiler_8cpp.html" target="_top" xlink:title=" ">
<polygon fill="white" stroke="#666666" points="462.5,-24.5 320.5,-24.5 320.5,-5.5 462.5,-5.5 462.5,-24.5"/>
<text text-anchor="middle" x="391.5" y="-12.5" font-family="Helvetica,sans-Serif" font-size="10.00">src/compiler/compiler.cpp</text>
</a>
</g>
</g>
<!-- Node1&#45;&gt;Node5 -->
<g id="edge4_Node000001_Node000005" class="edge">
<title>Node1&#45;&gt;Node5</title>
<g id="a_edge4_Node000001_Node000005"><a xlink:title=" ">
<path fill="none" stroke="#63b8ff" d="M862.7,-110.86C860.22,-96.23 854.37,-76.62 840.5,-66 775.08,-15.92 553.14,-41.11 471.5,-30 460.18,-28.46 448.02,-26.49 436.68,-24.52"/>
<polygon fill="#63b8ff" stroke="#63b8ff" points="859.23,-111.38 864,-120.84 866.18,-110.47 859.23,-111.38"/>
</a>
</g>
</g>
<!-- Node6 -->
<g id="Node000006" class="node">
<title>Node6</title>
<g id="a_Node000006"><a xlink:href="compiler_8hpp.html" target="_top" xlink:title=" ">
<polygon fill="white" stroke="#666666" points="1509,-85 1366,-85 1366,-66 1509,-66 1509,-85"/>
<text text-anchor="middle" x="1437.5" y="-73" font-family="Helvetica,sans-Serif" font-size="10.00">src/compiler/compiler.hpp</text>
</a>
</g>
</g>
<!-- Node1&#45;&gt;Node6 -->
<g id="edge5_Node000001_Node000006" class="edge">
<title>Node1&#45;&gt;Node6</title>
<g id="a_edge5_Node000001_Node000006"><a xlink:title=" ">
<path fill="none" stroke="#63b8ff" d="M938.64,-122.64C1049.35,-112.4 1256.52,-93.24 1365.79,-83.13"/>
<polygon fill="#63b8ff" stroke="#63b8ff" points="938.2,-119.17 928.56,-123.57 938.84,-126.14 938.2,-119.17"/>
</a>
</g>
</g>
<!-- Node14 -->
<g id="Node000014" class="node">
<title>Node14</title>
<g id="a_Node000014"><a xlink:href="functions_8cpp.html" target="_top" xlink:title=" ">
<polygon fill="white" stroke="#666666" points="2924,-24.5 2779,-24.5 2779,-5.5 2924,-5.5 2924,-24.5"/>
<text text-anchor="middle" x="2851.5" y="-12.5" font-family="Helvetica,sans-Serif" font-size="10.00">src/compiler/functions.cpp</text>
</a>
</g>
</g>
<!-- Node1&#45;&gt;Node14 -->
<g id="edge26_Node000001_Node000014" class="edge">
<title>Node1&#45;&gt;Node14</title>
<g id="a_edge26_Node000001_Node000014"><a xlink:title=" ">
<path fill="none" stroke="#63b8ff" d="M939.15,-128.73C1195.04,-125.44 2060.13,-108.81 2769.5,-30 2781.84,-28.63 2795.15,-26.6 2807.38,-24.51"/>
<polygon fill="#63b8ff" stroke="#63b8ff" points="938.81,-125.24 928.86,-128.86 938.9,-132.24 938.81,-125.24"/>
</a>
</g>
</g>
<!-- Node16 -->
<g id="Node000016" class="node">
<title>Node16</title>
<g id="a_Node000016"><a xlink:href="lexer_8cpp.html" target="_top" xlink:title=" ">
<polygon fill="white" stroke="#666666" points="3065,-24.5 2942,-24.5 2942,-5.5 3065,-5.5 3065,-24.5"/>
<text text-anchor="middle" x="3003.5" y="-12.5" font-family="Helvetica,sans-Serif" font-size="10.00">src/compiler/lexer.cpp</text>
</a>
</g>
</g>
<!-- Node1&#45;&gt;Node16 -->
<g id="edge27_Node000001_Node000016" class="edge">
<title>Node1&#45;&gt;Node16</title>
<g id="a_edge27_Node000001_Node000016"><a xlink:title=" ">
<path fill="none" stroke="#63b8ff" d="M938.88,-128.44C1147.69,-125.18 1757.06,-113.74 2262.5,-85 2561.24,-68.01 2637.19,-71.63 2933.5,-30 2943.81,-28.55 2954.89,-26.55 2965.13,-24.51"/>
<polygon fill="#63b8ff" stroke="#63b8ff" points="938.59,-124.94 928.65,-128.6 938.7,-131.94 938.59,-124.94"/>
</a>
</g>
</g>
<!-- Node6&#45;&gt;Node3 -->
<g id="edge11_Node000006_Node000003" class="edge">
<title>Node6&#45;&gt;Node3</title>
<g id="a_edge11_Node000006_Node000003"><a xlink:title=" ">
<path fill="none" stroke="#63b8ff" d="M1355.73,-73.13C1111.22,-68.79 388.09,-54.22 153.5,-30 141.01,-28.71 127.53,-26.65 115.23,-24.51"/>
<polygon fill="#63b8ff" stroke="#63b8ff" points="1355.91,-76.63 1365.97,-73.31 1356.03,-69.63 1355.91,-76.63"/>
</a>
</g>
</g>
<!-- Node6&#45;&gt;Node4 -->
<g id="edge12_Node000006_Node000004" class="edge">
<title>Node6&#45;&gt;Node4</title>
<g id="a_edge12_Node000006_Node000004"><a xlink:title=" ">
<path fill="none" stroke="#63b8ff" d="M1355.89,-72.72C1132.47,-67.6 514.08,-51.85 311.5,-30 299.45,-28.7 286.47,-26.67 274.58,-24.55"/>
<polygon fill="#63b8ff" stroke="#63b8ff" points="1355.83,-76.22 1365.9,-72.94 1355.99,-69.22 1355.83,-76.22"/>
</a>
</g>
</g>
<!-- Node6&#45;&gt;Node5 -->
<g id="edge13_Node000006_Node000005" class="edge">
<title>Node6&#45;&gt;Node5</title>
<g id="a_edge13_Node000006_Node000005"><a xlink:title=" ">
<path fill="none" stroke="#63b8ff" d="M1355.57,-74.23C1188.7,-72.92 797.59,-65.9 471.5,-30 459.45,-28.67 446.46,-26.66 434.54,-24.57"/>
<polygon fill="#63b8ff" stroke="#63b8ff" points="1355.73,-77.74 1365.76,-74.31 1355.78,-70.74 1355.73,-77.74"/>
</a>
</g>
</g>
<!-- Node7 -->
<g id="Node000007" class="node">
<title>Node7</title>
<g id="a_Node000007"><a xlink:href="CompilerSyntaxException_8cpp.html" target="_top" xlink:title=" ">
<polygon fill="white" stroke="#666666" points="638.5,-30 480.5,-30 480.5,0 638.5,0 638.5,-30"/>
<text text-anchor="start" x="488.5" y="-18" font-family="Helvetica,sans-Serif" font-size="10.00">src/compiler/CompilerSyntax</text>
<text text-anchor="middle" x="559.5" y="-7" font-family="Helvetica,sans-Serif" font-size="10.00">Exception.cpp</text>
</a>
</g>
</g>
<!-- Node6&#45;&gt;Node7 -->
<g id="edge6_Node000006_Node000007" class="edge">
<title>Node6&#45;&gt;Node7</title>
<g id="a_edge6_Node000006_Node000007"><a xlink:title=" ">
<path fill="none" stroke="#63b8ff" d="M1355.79,-72.69C1212.01,-68.87 904.56,-57.95 646.5,-30 643.91,-29.72 641.29,-29.42 638.64,-29.09"/>
<polygon fill="#63b8ff" stroke="#63b8ff" points="1355.77,-76.19 1365.85,-72.95 1355.95,-69.19 1355.77,-76.19"/>
</a>
</g>
</g>
<!-- Node8 -->
<g id="Node000008" class="node">
<title>Node8</title>
<g id="a_Node000008"><a xlink:href="ast_8cpp.html" target="_top" xlink:title=" ">
<polygon fill="white" stroke="#666666" points="771,-24.5 656,-24.5 656,-5.5 771,-5.5 771,-24.5"/>
<text text-anchor="middle" x="713.5" y="-12.5" font-family="Helvetica,sans-Serif" font-size="10.00">src/compiler/ast.cpp</text>
</a>
</g>
</g>
<!-- Node6&#45;&gt;Node8 -->
<g id="edge7_Node000006_Node000008" class="edge">
<title>Node6&#45;&gt;Node8</title>
<g id="a_edge7_Node000006_Node000008"><a xlink:title=" ">
<path fill="none" stroke="#63b8ff" d="M1355.35,-72.67C1230.44,-69.06 985.49,-58.67 779.5,-30 769.64,-28.63 759.05,-26.62 749.3,-24.56"/>
<polygon fill="#63b8ff" stroke="#63b8ff" points="1355.5,-76.18 1365.59,-72.96 1355.7,-69.18 1355.5,-76.18"/>
</a>
</g>
</g>
<!-- Node9 -->
<g id="Node000009" class="node">
<title>Node9</title>
<g id="a_Node000009"><a xlink:href="binop_8cpp.html" target="_top" xlink:title=" ">
<polygon fill="white" stroke="#666666" points="916,-24.5 789,-24.5 789,-5.5 916,-5.5 916,-24.5"/>
<text text-anchor="middle" x="852.5" y="-12.5" font-family="Helvetica,sans-Serif" font-size="10.00">src/compiler/binop.cpp</text>
</a>
</g>
</g>
<!-- Node6&#45;&gt;Node9 -->
<g id="edge8_Node000006_Node000009" class="edge">
<title>Node6&#45;&gt;Node9</title>
<g id="a_edge8_Node000006_Node000009"><a xlink:title=" ">
<path fill="none" stroke="#63b8ff" d="M1355.42,-69.97C1254.05,-63.78 1076.52,-50.99 925.5,-30 914.89,-28.53 903.49,-26.54 892.92,-24.52"/>
<polygon fill="#63b8ff" stroke="#63b8ff" points="1355.39,-73.48 1365.59,-70.59 1355.82,-66.49 1355.39,-73.48"/>
</a>
</g>
</g>
<!-- Node10 -->
<g id="Node000010" class="node">
<title>Node10</title>
<g id="a_Node000010"><a xlink:href="block_8cpp.html" target="_top" xlink:title=" ">
<polygon fill="white" stroke="#666666" points="1060.5,-24.5 934.5,-24.5 934.5,-5.5 1060.5,-5.5 1060.5,-24.5"/>
<text text-anchor="middle" x="997.5" y="-12.5" font-family="Helvetica,sans-Serif" font-size="10.00">src/compiler/block.cpp</text>
</a>
</g>
</g>
<!-- Node6&#45;&gt;Node10 -->
<g id="edge9_Node000006_Node000010" class="edge">
<title>Node6&#45;&gt;Node10</title>
<g id="a_edge9_Node000006_Node000010"><a xlink:title=" ">
<path fill="none" stroke="#63b8ff" d="M1355.43,-66.28C1280.69,-58.39 1167.4,-45.42 1069.5,-30 1059.44,-28.42 1048.63,-26.45 1038.53,-24.51"/>
<polygon fill="#63b8ff" stroke="#63b8ff" points="1355.4,-69.8 1365.71,-67.36 1356.13,-62.83 1355.4,-69.8"/>
</a>
</g>
</g>
<!-- Node11 -->
<g id="Node000011" class="node">
<title>Node11</title>
<g id="a_Node000011"><a xlink:href="builtin_8cpp.html" target="_top" xlink:title=" ">
<polygon fill="white" stroke="#666666" points="1210,-24.5 1079,-24.5 1079,-5.5 1210,-5.5 1210,-24.5"/>
<text text-anchor="middle" x="1144.5" y="-12.5" font-family="Helvetica,sans-Serif" font-size="10.00">src/compiler/builtin.cpp</text>
</a>
</g>
</g>
<!-- Node6&#45;&gt;Node11 -->
<g id="edge10_Node000006_Node000011" class="edge">
<title>Node6&#45;&gt;Node11</title>
<g id="a_edge10_Node000006_Node000011"><a xlink:title=" ">
<path fill="none" stroke="#63b8ff" d="M1385.08,-64.03C1328.53,-52.74 1239.58,-34.98 1187.16,-24.52"/>
<polygon fill="#63b8ff" stroke="#63b8ff" points="1384.4,-67.47 1394.9,-65.99 1385.77,-60.6 1384.4,-67.47"/>
</a>
</g>
</g>
<!-- Node12 -->
<g id="Node000012" class="node">
<title>Node12</title>
<g id="a_Node000012"><a xlink:href="expr_8cpp.html" target="_top" xlink:title=" ">
<polygon fill="white" stroke="#666666" points="1349,-24.5 1228,-24.5 1228,-5.5 1349,-5.5 1349,-24.5"/>
<text text-anchor="middle" x="1288.5" y="-12.5" font-family="Helvetica,sans-Serif" font-size="10.00">src/compiler/expr.cpp</text>
</a>
</g>
</g>
<!-- Node6&#45;&gt;Node12 -->
<g id="edge14_Node000006_Node000012" class="edge">
<title>Node6&#45;&gt;Node12</title>
<g id="a_edge14_Node000006_Node000012"><a xlink:title=" ">
<path fill="none" stroke="#63b8ff" d="M1406.25,-62.23C1377.45,-50.92 1335.47,-34.44 1310.19,-24.52"/>
<polygon fill="#63b8ff" stroke="#63b8ff" points="1405.25,-65.6 1415.83,-65.99 1407.8,-59.08 1405.25,-65.6"/>
</a>
</g>
</g>
<!-- Node13 -->
<g id="Node000013" class="node">
<title>Node13</title>
<g id="a_Node000013"><a xlink:href="function_8cpp.html" target="_top" xlink:title=" ">
<polygon fill="white" stroke="#666666" points="1507.5,-24.5 1367.5,-24.5 1367.5,-5.5 1507.5,-5.5 1507.5,-24.5"/>
<text text-anchor="middle" x="1437.5" y="-12.5" font-family="Helvetica,sans-Serif" font-size="10.00">src/compiler/function.cpp</text>
</a>
</g>
</g>
<!-- Node6&#45;&gt;Node13 -->
<g id="edge15_Node000006_Node000013" class="edge">
<title>Node6&#45;&gt;Node13</title>
<g id="a_edge15_Node000006_Node000013"><a xlink:title=" ">
<path fill="none" stroke="#63b8ff" d="M1437.5,-55.66C1437.5,-45.24 1437.5,-32.8 1437.5,-24.67"/>
<polygon fill="#63b8ff" stroke="#63b8ff" points="1434,-55.87 1437.5,-65.87 1441,-55.87 1434,-55.87"/>
</a>
</g>
</g>
<!-- Node6&#45;&gt;Node14 -->
<g id="edge16_Node000006_Node000014" class="edge">
<title>Node6&#45;&gt;Node14</title>
<g id="a_edge16_Node000006_Node000014"><a xlink:title=" ">
<path fill="none" stroke="#63b8ff" d="M1519.3,-73.22C1769.97,-69.08 2525.14,-54.83 2769.5,-30 2782.14,-28.72 2795.78,-26.66 2808.24,-24.51"/>
<polygon fill="#63b8ff" stroke="#63b8ff" points="1519.12,-69.73 1509.17,-73.39 1519.23,-76.72 1519.12,-69.73"/>
</a>
</g>
</g>
<!-- Node15 -->
<g id="Node000015" class="node">
<title>Node15</title>
<g id="a_Node000015"><a xlink:href="instruction_8cpp.html" target="_top" xlink:title=" ">
<polygon fill="white" stroke="#666666" points="1677.5,-24.5 1525.5,-24.5 1525.5,-5.5 1677.5,-5.5 1677.5,-24.5"/>
<text text-anchor="middle" x="1601.5" y="-12.5" font-family="Helvetica,sans-Serif" font-size="10.00">src/compiler/instruction.cpp</text>
</a>
</g>
</g>
<!-- Node6&#45;&gt;Node15 -->
<g id="edge17_Node000006_Node000015" class="edge">
<title>Node6&#45;&gt;Node15</title>
<g id="a_edge17_Node000006_Node000015"><a xlink:title=" ">
<path fill="none" stroke="#63b8ff" d="M1471.07,-62.52C1502.78,-51.21 1549.55,-34.53 1577.62,-24.52"/>
<polygon fill="#63b8ff" stroke="#63b8ff" points="1469.59,-59.34 1461.35,-65.99 1471.94,-65.93 1469.59,-59.34"/>
</a>
</g>
</g>
<!-- Node6&#45;&gt;Node16 -->
<g id="edge18_Node000006_Node000016" class="edge">
<title>Node6&#45;&gt;Node16</title>
<g id="a_edge18_Node000006_Node000016"><a xlink:title=" ">
<path fill="none" stroke="#63b8ff" d="M1519.49,-73.87C1790.53,-71.51 2656.15,-61.63 2933.5,-30 2944.46,-28.75 2956.26,-26.68 2966.99,-24.5"/>
<polygon fill="#63b8ff" stroke="#63b8ff" points="1519.3,-70.37 1509.33,-73.96 1519.36,-77.37 1519.3,-70.37"/>
</a>
</g>
</g>
<!-- Node17 -->
<g id="Node000017" class="node">
<title>Node17</title>
<g id="a_Node000017"><a xlink:href="log_8cpp.html" target="_top" xlink:title=" ">
<polygon fill="white" stroke="#666666" points="1811,-24.5 1696,-24.5 1696,-5.5 1811,-5.5 1811,-24.5"/>
<text text-anchor="middle" x="1753.5" y="-12.5" font-family="Helvetica,sans-Serif" font-size="10.00">src/compiler/log.cpp</text>
</a>
</g>
</g>
<!-- Node6&#45;&gt;Node17 -->
<g id="edge19_Node000006_Node000017" class="edge">
<title>Node6&#45;&gt;Node17</title>
<g id="a_edge19_Node000006_Node000017"><a xlink:title=" ">
<path fill="none" stroke="#63b8ff" d="M1497.75,-64.24C1548.23,-55.52 1622.17,-42.47 1686.5,-30 1695.25,-28.3 1704.62,-26.4 1713.5,-24.56"/>
<polygon fill="#63b8ff" stroke="#63b8ff" points="1496.92,-60.83 1487.66,-65.98 1498.11,-67.73 1496.92,-60.83"/>
</a>
</g>
</g>
<!-- Node18 -->
<g id="Node000018" class="node">
<title>Node18</title>
<g id="a_Node000018"><a xlink:href="compiler_2main_8cpp.html" target="_top" xlink:title=" ">
<polygon fill="white" stroke="#666666" points="1954,-24.5 1829,-24.5 1829,-5.5 1954,-5.5 1954,-24.5"/>
<text text-anchor="middle" x="1891.5" y="-12.5" font-family="Helvetica,sans-Serif" font-size="10.00">src/compiler/main.cpp</text>
</a>
</g>
</g>
<!-- Node6&#45;&gt;Node18 -->
<g id="edge20_Node000006_Node000018" class="edge">
<title>Node6&#45;&gt;Node18</title>
<g id="a_edge20_Node000006_Node000018"><a xlink:title=" ">
<path fill="none" stroke="#63b8ff" d="M1519.36,-66.78C1596.88,-59.05 1716.42,-46 1819.5,-30 1829.57,-28.44 1840.37,-26.48 1850.47,-24.54"/>
<polygon fill="#63b8ff" stroke="#63b8ff" points="1518.79,-63.32 1509.18,-67.79 1519.48,-70.29 1518.79,-63.32"/>
</a>
</g>
</g>
<!-- Node19 -->
<g id="Node000019" class="node">
<title>Node19</title>
<g id="a_Node000019"><a xlink:href="statement_8cpp.html" target="_top" xlink:title=" ">
<polygon fill="white" stroke="#666666" points="2122.5,-24.5 1972.5,-24.5 1972.5,-5.5 2122.5,-5.5 2122.5,-24.5"/>
<text text-anchor="middle" x="2047.5" y="-12.5" font-family="Helvetica,sans-Serif" font-size="10.00">src/compiler/statement.cpp</text>
</a>
</g>
</g>
<!-- Node6&#45;&gt;Node19 -->
<g id="edge21_Node000006_Node000019" class="edge">
<title>Node6&#45;&gt;Node19</title>
<g id="a_edge21_Node000006_Node000019"><a xlink:title=" ">
<path fill="none" stroke="#63b8ff" d="M1519.08,-69.58C1622.49,-62.89 1806.13,-49.47 1962.5,-30 1974.67,-28.48 1987.76,-26.5 1999.94,-24.51"/>
<polygon fill="#63b8ff" stroke="#63b8ff" points="1518.77,-66.09 1509.02,-70.23 1519.22,-73.08 1518.77,-66.09"/>
</a>
</g>
</g>
<!-- Node20 -->
<g id="Node000020" class="node">
<title>Node20</title>
<g id="a_Node000020"><a xlink:href="symbol_8cpp.html" target="_top" xlink:title=" ">
<polygon fill="white" stroke="#666666" points="2276.5,-24.5 2140.5,-24.5 2140.5,-5.5 2276.5,-5.5 2276.5,-24.5"/>
<text text-anchor="middle" x="2208.5" y="-12.5" font-family="Helvetica,sans-Serif" font-size="10.00">src/compiler/symbol.cpp</text>
</a>
</g>
</g>
<!-- Node6&#45;&gt;Node20 -->
<g id="edge22_Node000006_Node000020" class="edge">
<title>Node6&#45;&gt;Node20</title>
<g id="a_edge22_Node000006_Node000020"><a xlink:title=" ">
<path fill="none" stroke="#63b8ff" d="M1519.47,-72.32C1649.59,-68.16 1911.27,-56.99 2131.5,-30 2142.96,-28.6 2155.3,-26.58 2166.67,-24.51"/>
<polygon fill="#63b8ff" stroke="#63b8ff" points="1519.07,-68.83 1509.19,-72.64 1519.29,-75.82 1519.07,-68.83"/>
</a>
</g>
</g>
<!-- Node21 -->
<g id="Node000021" class="node">
<title>Node21</title>
<g id="a_Node000021"><a xlink:href="symbol__table_8cpp.html" target="_top" xlink:title=" ">
<polygon fill="white" stroke="#666666" points="2410.5,-30 2294.5,-30 2294.5,0 2410.5,0 2410.5,-30"/>
<text text-anchor="start" x="2302.5" y="-18" font-family="Helvetica,sans-Serif" font-size="10.00">src/compiler/symbol</text>
<text text-anchor="middle" x="2352.5" y="-7" font-family="Helvetica,sans-Serif" font-size="10.00">_table.cpp</text>
</a>
</g>
</g>
<!-- Node6&#45;&gt;Node21 -->
<g id="edge23_Node000006_Node000021" class="edge">
<title>Node6&#45;&gt;Node21</title>
<g id="a_edge23_Node000006_Node000021"><a xlink:title=" ">
<path fill="none" stroke="#63b8ff" d="M1519.19,-74.37C1670.85,-73.21 2005.93,-66.33 2285.5,-30 2288.45,-29.62 2291.46,-29.18 2294.49,-28.69"/>
<polygon fill="#63b8ff" stroke="#63b8ff" points="1519,-70.87 1509.03,-74.44 1519.05,-77.87 1519,-70.87"/>
</a>
</g>
</g>
<!-- Node22 -->
<g id="Node000022" class="node">
<title>Node22</title>
<g id="a_Node000022"><a xlink:href="temp__allocator_8cpp.html" target="_top" xlink:title=" ">
<polygon fill="white" stroke="#666666" points="2602,-24.5 2429,-24.5 2429,-5.5 2602,-5.5 2602,-24.5"/>
<text text-anchor="middle" x="2515.5" y="-12.5" font-family="Helvetica,sans-Serif" font-size="10.00">src/compiler/temp_allocator.cpp</text>
</a>
</g>
</g>
<!-- Node6&#45;&gt;Node22 -->
<g id="edge24_Node000006_Node000022" class="edge">
<title>Node6&#45;&gt;Node22</title>
<g id="a_edge24_Node000006_Node000022"><a xlink:title=" ">
<path fill="none" stroke="#63b8ff" d="M1519.18,-73.54C1687.8,-70.97 2086.52,-61.74 2419.5,-30 2433.92,-28.63 2449.48,-26.59 2463.8,-24.5"/>
<polygon fill="#63b8ff" stroke="#63b8ff" points="1519.08,-70.04 1509.14,-73.69 1519.19,-77.04 1519.08,-70.04"/>
</a>
</g>
</g>
<!-- Node23 -->
<g id="Node000023" class="node">
<title>Node23</title>
<g id="a_Node000023"><a xlink:href="variable_8cpp.html" target="_top" xlink:title=" ">
<polygon fill="white" stroke="#666666" points="2760.5,-24.5 2620.5,-24.5 2620.5,-5.5 2760.5,-5.5 2760.5,-24.5"/>
<text text-anchor="middle" x="2690.5" y="-12.5" font-family="Helvetica,sans-Serif" font-size="10.00">src/compiler/variable.cpp</text>
</a>
</g>
</g>
<!-- Node6&#45;&gt;Node23 -->
<g id="edge25_Node000006_Node000023" class="edge">
<title>Node6&#45;&gt;Node23</title>
<g id="a_edge25_Node000006_Node000023"><a xlink:title=" ">
<path fill="none" stroke="#63b8ff" d="M1519.49,-75.26C1711.16,-76.19 2203.26,-73.7 2611.5,-30 2623.55,-28.71 2636.53,-26.68 2648.42,-24.56"/>
<polygon fill="#63b8ff" stroke="#63b8ff" points="1519.23,-71.76 1509.22,-75.2 1519.2,-78.76 1519.23,-71.76"/>
</a>
</g>
</g>
</g>
</svg>
