<?xml version="1.0" encoding="UTF-8" standalone="no"?>
<!DOCTYPE svg PUBLIC "-//W3C//DTD SVG 1.1//EN"
 "http://www.w3.org/Graphics/SVG/1.1/DTD/svg11.dtd">
<!-- Generated by graphviz version 2.43.0 (0)
 -->
<!-- Title: src/common/types.hpp Pages: 1 -->
<svg width="1685pt" height="148pt"
 viewBox="0.00 0.00 1685.00 148.00" xmlns="http://www.w3.org/2000/svg" xmlns:xlink="http://www.w3.org/1999/xlink">
<g id="graph0" class="graph" transform="scale(1 1) rotate(0) translate(4 144)">
<title>src/common/types.hpp</title>
<!-- Node1 -->
<g id="Node000001" class="node">
<title>Node1</title>
<g id="a_Node000001"><a xlink:title=" ">
<polygon fill="#999999" stroke="#666666" points="858.5,-140 730.5,-140 730.5,-121 858.5,-121 858.5,-140"/>
<text text-anchor="middle" x="794.5" y="-128" font-family="Helvetica,sans-Serif" font-size="10.00">src/common/types.hpp</text>
</a>
</g>
</g>
<!-- Node2 -->
<g id="Node000002" class="node">
<title>Node2</title>
<g id="a_Node000002"><a xlink:href="types_8cpp.html" target="_top" xlink:title=" ">
<polygon fill="white" stroke="#666666" points="678,-85 551,-85 551,-66 678,-66 678,-85"/>
<text text-anchor="middle" x="614.5" y="-73" font-family="Helvetica,sans-Serif" font-size="10.00">src/common/types.cpp</text>
</a>
</g>
</g>
<!-- Node1&#45;&gt;Node2 -->
<g id="edge1_Node000001_Node000002" class="edge">
<title>Node1&#45;&gt;Node2</title>
<g id="a_edge1_Node000001_Node000002"><a xlink:title=" ">
<path fill="none" stroke="#63b8ff" d="M755.63,-118.06C721.99,-108.15 674.08,-94.04 643.65,-85.08"/>
<polygon fill="#63b8ff" stroke="#63b8ff" points="755,-121.52 765.58,-120.98 756.98,-114.8 755,-121.52"/>
</a>
</g>
</g>
<!-- Node3 -->
<g id="Node000003" class="node">
<title>Node3</title>
<g id="a_Node000003"><a xlink:href="compiler_2bytecode_8cpp.html" target="_top" xlink:title=" ">
<polygon fill="white" stroke="#666666" points="145,-24.5 0,-24.5 0,-5.5 145,-5.5 145,-24.5"/>
<text text-anchor="middle" x="72.5" y="-12.5" font-family="Helvetica,sans-Serif" font-size="10.00">src/compiler/bytecode.cpp</text>
</a>
</g>
</g>
<!-- Node1&#45;&gt;Node3 -->
<g id="edge2_Node000001_Node000003" class="edge">
<title>Node1&#45;&gt;Node3</title>
<g id="a_edge2_Node000001_Node000003"><a xlink:title=" ">
<path fill="none" stroke="#63b8ff" d="M771.63,-115.69C741.32,-97.44 691.11,-67.43 686.5,-66 460.07,3.93 389.83,-57.98 154.5,-30 142.45,-28.57 129.48,-26.57 117.49,-24.53"/>
<polygon fill="#63b8ff" stroke="#63b8ff" points="769.95,-118.77 780.32,-120.93 773.56,-112.77 769.95,-118.77"/>
</a>
</g>
</g>
<!-- Node4 -->
<g id="Node000004" class="node">
<title>Node4</title>
<g id="a_Node000004"><a xlink:href="compiler_8cpp.html" target="_top" xlink:title=" ">
<polygon fill="white" stroke="#666666" points="305.5,-24.5 163.5,-24.5 163.5,-5.5 305.5,-5.5 305.5,-24.5"/>
<text text-anchor="middle" x="234.5" y="-12.5" font-family="Helvetica,sans-Serif" font-size="10.00">src/compiler/compiler.cpp</text>
</a>
</g>
</g>
<!-- Node1&#45;&gt;Node4 -->
<g id="edge3_Node000001_Node000004" class="edge">
<title>Node1&#45;&gt;Node4</title>
<g id="a_edge3_Node000001_Node000004"><a xlink:title=" ">
<path fill="none" stroke="#63b8ff" d="M780.83,-112.97C767.26,-97.85 744.98,-76.32 720.5,-66 637.03,-30.83 404.3,-41.82 314.5,-30 303.04,-28.49 290.71,-26.51 279.25,-24.52"/>
<polygon fill="#63b8ff" stroke="#63b8ff" points="778.24,-115.33 787.44,-120.6 783.54,-110.74 778.24,-115.33"/>
</a>
</g>
</g>
<!-- Node5 -->
<g id="Node000005" class="node">
<title>Node5</title>
<g id="a_Node000005"><a xlink:href="compiler_8hpp.html" target="_top" xlink:title=" ">
<polygon fill="white" stroke="#666666" points="916,-85 773,-85 773,-66 916,-66 916,-85"/>
<text text-anchor="middle" x="844.5" y="-73" font-family="Helvetica,sans-Serif" font-size="10.00">src/compiler/compiler.hpp</text>
</a>
</g>
</g>
<!-- Node1&#45;&gt;Node5 -->
<g id="edge4_Node000001_Node000005" class="edge">
<title>Node1&#45;&gt;Node5</title>
<g id="a_edge4_Node000001_Node000005"><a xlink:title=" ">
<path fill="none" stroke="#63b8ff" d="M809.84,-113.24C818.6,-103.95 829.24,-92.68 836.4,-85.09"/>
<polygon fill="#63b8ff" stroke="#63b8ff" points="807.07,-111.07 802.76,-120.75 812.16,-115.88 807.07,-111.07"/>
</a>
</g>
</g>
<!-- Node9 -->
<g id="Node000009" class="node">
<title>Node9</title>
<g id="a_Node000009"><a xlink:href="functions_8cpp.html" target="_top" xlink:title=" ">
<polygon fill="white" stroke="#666666" points="1536,-24.5 1391,-24.5 1391,-5.5 1536,-5.5 1536,-24.5"/>
<text text-anchor="middle" x="1463.5" y="-12.5" font-family="Helvetica,sans-Serif" font-size="10.00">src/compiler/functions.cpp</text>
</a>
</g>
</g>
<!-- Node1&#45;&gt;Node9 -->
<g id="edge16_Node000001_Node000009" class="edge">
<title>Node1&#45;&gt;Node9</title>
<g id="a_edge16_Node000001_Node000009"><a xlink:title=" ">
<path fill="none" stroke="#63b8ff" d="M855.07,-119.26C961.55,-101.25 1189.25,-62.7 1381.5,-30 1391.89,-28.23 1403.03,-26.33 1413.63,-24.52"/>
<polygon fill="#63b8ff" stroke="#63b8ff" points="854.42,-115.82 845.15,-120.94 855.59,-122.72 854.42,-115.82"/>
</a>
</g>
</g>
<!-- Node11 -->
<g id="Node000011" class="node">
<title>Node11</title>
<g id="a_Node000011"><a xlink:href="lexer_8cpp.html" target="_top" xlink:title=" ">
<polygon fill="white" stroke="#666666" points="1677,-24.5 1554,-24.5 1554,-5.5 1677,-5.5 1677,-24.5"/>
<text text-anchor="middle" x="1615.5" y="-12.5" font-family="Helvetica,sans-Serif" font-size="10.00">src/compiler/lexer.cpp</text>
</a>
</g>
</g>
<!-- Node1&#45;&gt;Node11 -->
<g id="edge17_Node000001_Node000011" class="edge">
<title>Node1&#45;&gt;Node11</title>
<g id="a_edge17_Node000001_Node000011"><a xlink:title=" ">
<path fill="none" stroke="#63b8ff" d="M868.73,-121.3C1003.8,-106.02 1298.61,-71 1545.5,-30 1555.16,-28.4 1565.52,-26.45 1575.24,-24.52"/>
<polygon fill="#63b8ff" stroke="#63b8ff" points="868.05,-117.86 858.51,-122.46 868.83,-124.81 868.05,-117.86"/>
</a>
</g>
</g>
<!-- Node5&#45;&gt;Node3 -->
<g id="edge7_Node000005_Node000003" class="edge">
<title>Node5&#45;&gt;Node3</title>
<g id="a_edge7_Node000005_Node000003"><a xlink:title=" ">
<path fill="none" stroke="#63b8ff" d="M762.57,-68.83C748.54,-67.87 734.1,-66.9 720.5,-66 468.98,-49.38 404.86,-59.25 154.5,-30 142.45,-28.59 129.48,-26.6 117.49,-24.56"/>
<polygon fill="#63b8ff" stroke="#63b8ff" points="762.49,-72.33 772.7,-69.52 762.97,-65.35 762.49,-72.33"/>
</a>
</g>
</g>
<!-- Node5&#45;&gt;Node4 -->
<g id="edge9_Node000005_Node000004" class="edge">
<title>Node5&#45;&gt;Node4</title>
<g id="a_edge9_Node000005_Node000004"><a xlink:title=" ">
<path fill="none" stroke="#63b8ff" d="M762.44,-66.36C761.12,-66.24 759.8,-66.12 758.5,-66 561.32,-48.26 510.88,-55.09 314.5,-30 302.89,-28.52 290.4,-26.52 278.82,-24.51"/>
<polygon fill="#63b8ff" stroke="#63b8ff" points="762.43,-69.87 772.71,-67.31 763.08,-62.9 762.43,-69.87"/>
</a>
</g>
</g>
<!-- Node6 -->
<g id="Node000006" class="node">
<title>Node6</title>
<g id="a_Node000006"><a xlink:href="CompilerSyntaxException_8cpp.html" target="_top" xlink:title=" ">
<polygon fill="white" stroke="#666666" points="769.5,-30 611.5,-30 611.5,0 769.5,0 769.5,-30"/>
<text text-anchor="start" x="619.5" y="-18" font-family="Helvetica,sans-Serif" font-size="10.00">src/compiler/CompilerSyntax</text>
<text text-anchor="middle" x="690.5" y="-7" font-family="Helvetica,sans-Serif" font-size="10.00">Exception.cpp</text>
</a>
</g>
</g>
<!-- Node5&#45;&gt;Node6 -->
<g id="edge5_Node000005_Node000006" class="edge">
<title>Node5&#45;&gt;Node6</title>
<g id="a_edge5_Node000005_Node000006"><a xlink:title=" ">
<path fill="none" stroke="#63b8ff" d="M812.47,-62.33C787.73,-52.93 753.44,-39.91 727.52,-30.06"/>
<polygon fill="#63b8ff" stroke="#63b8ff" points="811.52,-65.71 822.11,-65.99 814,-59.17 811.52,-65.71"/>
</a>
</g>
</g>
<!-- Node7 -->
<g id="Node000007" class="node">
<title>Node7</title>
<g id="a_Node000007"><a xlink:href="ast_8cpp.html" target="_top" xlink:title=" ">
<polygon fill="white" stroke="#666666" points="902,-24.5 787,-24.5 787,-5.5 902,-5.5 902,-24.5"/>
<text text-anchor="middle" x="844.5" y="-12.5" font-family="Helvetica,sans-Serif" font-size="10.00">src/compiler/ast.cpp</text>
</a>
</g>
</g>
<!-- Node5&#45;&gt;Node7 -->
<g id="edge6_Node000005_Node000007" class="edge">
<title>Node5&#45;&gt;Node7</title>
<g id="a_edge6_Node000005_Node000007"><a xlink:title=" ">
<path fill="none" stroke="#63b8ff" d="M844.5,-55.66C844.5,-45.24 844.5,-32.8 844.5,-24.67"/>
<polygon fill="#63b8ff" stroke="#63b8ff" points="841,-55.87 844.5,-65.87 848,-55.87 841,-55.87"/>
</a>
</g>
</g>
<!-- Node8 -->
<g id="Node000008" class="node">
<title>Node8</title>
<g id="a_Node000008"><a xlink:href="compile_8cpp.html" target="_top" xlink:title=" ">
<polygon fill="white" stroke="#666666" points="1059,-24.5 920,-24.5 920,-5.5 1059,-5.5 1059,-24.5"/>
<text text-anchor="middle" x="989.5" y="-12.5" font-family="Helvetica,sans-Serif" font-size="10.00">src/compiler/compile.cpp</text>
</a>
</g>
</g>
<!-- Node5&#45;&gt;Node8 -->
<g id="edge8_Node000005_Node000008" class="edge">
<title>Node5&#45;&gt;Node8</title>
<g id="a_edge8_Node000005_Node000008"><a xlink:title=" ">
<path fill="none" stroke="#63b8ff" d="M874.91,-62.23C902.93,-50.92 943.79,-34.44 968.39,-24.52"/>
<polygon fill="#63b8ff" stroke="#63b8ff" points="873.55,-59.01 865.58,-65.99 876.17,-65.5 873.55,-59.01"/>
</a>
</g>
</g>
<!-- Node5&#45;&gt;Node9 -->
<g id="edge10_Node000005_Node000009" class="edge">
<title>Node5&#45;&gt;Node9</title>
<g id="a_edge10_Node000005_Node000009"><a xlink:title=" ">
<path fill="none" stroke="#63b8ff" d="M926.63,-69.91C1032.17,-63.5 1220.95,-50.32 1381.5,-30 1393.25,-28.51 1405.88,-26.54 1417.63,-24.55"/>
<polygon fill="#63b8ff" stroke="#63b8ff" points="926.14,-66.43 916.37,-70.52 926.56,-73.42 926.14,-66.43"/>
</a>
</g>
</g>
<!-- Node10 -->
<g id="Node000010" class="node">
<title>Node10</title>
<g id="a_Node000010"><a xlink:href="instruction_8cpp.html" target="_top" xlink:title=" ">
<polygon fill="white" stroke="#666666" points="1229.5,-24.5 1077.5,-24.5 1077.5,-5.5 1229.5,-5.5 1229.5,-24.5"/>
<text text-anchor="middle" x="1153.5" y="-12.5" font-family="Helvetica,sans-Serif" font-size="10.00">src/compiler/instruction.cpp</text>
</a>
</g>
</g>
<!-- Node5&#45;&gt;Node10 -->
<g id="edge11_Node000005_Node000010" class="edge">
<title>Node5&#45;&gt;Node10</title>
<g id="a_edge11_Node000005_Node000010"><a xlink:title=" ">
<path fill="none" stroke="#63b8ff" d="M899.42,-64.1C959.03,-52.82 1053.11,-35.01 1108.51,-24.52"/>
<polygon fill="#63b8ff" stroke="#63b8ff" points="898.61,-60.69 889.43,-65.99 899.91,-67.57 898.61,-60.69"/>
</a>
</g>
</g>
<!-- Node5&#45;&gt;Node11 -->
<g id="edge12_Node000005_Node000011" class="edge">
<title>Node5&#45;&gt;Node11</title>
<g id="a_edge12_Node000005_Node000011"><a xlink:title=" ">
<path fill="none" stroke="#63b8ff" d="M926.57,-72.85C1057.82,-69.42 1322.86,-59.2 1545.5,-30 1555.95,-28.63 1567.17,-26.63 1577.51,-24.56"/>
<polygon fill="#63b8ff" stroke="#63b8ff" points="926.11,-69.36 916.2,-73.12 926.29,-76.36 926.11,-69.36"/>
</a>
</g>
</g>
<!-- Node12 -->
<g id="Node000012" class="node">
<title>Node12</title>
<g id="a_Node000012"><a xlink:href="compiler_2main_8cpp.html" target="_top" xlink:title=" ">
<polygon fill="white" stroke="#666666" points="1373,-24.5 1248,-24.5 1248,-5.5 1373,-5.5 1373,-24.5"/>
<text text-anchor="middle" x="1310.5" y="-12.5" font-family="Helvetica,sans-Serif" font-size="10.00">src/compiler/main.cpp</text>
</a>
</g>
</g>
<!-- Node5&#45;&gt;Node12 -->
<g id="edge13_Node000005_Node000012" class="edge">
<title>Node5&#45;&gt;Node12</title>
<g id="a_edge13_Node000005_Node000012"><a xlink:title=" ">
<path fill="none" stroke="#63b8ff" d="M926.26,-67.18C1006.12,-59.58 1131,-46.5 1238.5,-30 1248.57,-28.45 1259.38,-26.51 1269.48,-24.56"/>
<polygon fill="#63b8ff" stroke="#63b8ff" points="925.89,-63.7 916.26,-68.13 926.55,-70.67 925.89,-63.7"/>
</a>
</g>
</g>
<!-- Node13 -->
<g id="Node000013" class="node">
<title>Node13</title>
<g id="a_Node000013"><a xlink:href="symbol_8cpp.html" target="_top" xlink:title=" ">
<polygon fill="white" stroke="#666666" points="459.5,-24.5 323.5,-24.5 323.5,-5.5 459.5,-5.5 459.5,-24.5"/>
<text text-anchor="middle" x="391.5" y="-12.5" font-family="Helvetica,sans-Serif" font-size="10.00">src/compiler/symbol.cpp</text>
</a>
</g>
</g>
<!-- Node5&#45;&gt;Node13 -->
<g id="edge14_Node000005_Node000013" class="edge">
<title>Node5&#45;&gt;Node13</title>
<g id="a_edge14_Node000005_Node000013"><a xlink:title=" ">
<path fill="none" stroke="#63b8ff" d="M762.92,-66.32C686.62,-58.32 569.6,-45.16 468.5,-30 457.88,-28.41 446.49,-26.47 435.8,-24.54"/>
<polygon fill="#63b8ff" stroke="#63b8ff" points="762.63,-69.81 772.94,-67.37 763.36,-62.85 762.63,-69.81"/>
</a>
</g>
</g>
<!-- Node14 -->
<g id="Node000014" class="node">
<title>Node14</title>
<g id="a_Node000014"><a xlink:href="symbol__table_8cpp.html" target="_top" xlink:title=" ">
<polygon fill="white" stroke="#666666" points="593.5,-30 477.5,-30 477.5,0 593.5,0 593.5,-30"/>
<text text-anchor="start" x="485.5" y="-18" font-family="Helvetica,sans-Serif" font-size="10.00">src/compiler/symbol</text>
<text text-anchor="middle" x="535.5" y="-7" font-family="Helvetica,sans-Serif" font-size="10.00">_table.cpp</text>
</a>
</g>
</g>
<!-- Node5&#45;&gt;Node14 -->
<g id="edge15_Node000005_Node000014" class="edge">
<title>Node5&#45;&gt;Node14</title>
<g id="a_edge15_Node000005_Node000014"><a xlink:title=" ">
<path fill="none" stroke="#63b8ff" d="M786.11,-64.17C737.05,-55.39 665.11,-42.3 602.5,-30 599.58,-29.43 596.6,-28.83 593.59,-28.23"/>
<polygon fill="#63b8ff" stroke="#63b8ff" points="785.76,-67.66 796.22,-65.98 787,-60.77 785.76,-67.66"/>
</a>
</g>
</g>
</g>
</svg>
