<?xml version="1.0" encoding="UTF-8" standalone="no"?>
<!DOCTYPE svg PUBLIC "-//W3C//DTD SVG 1.1//EN"
 "http://www.w3.org/Graphics/SVG/1.1/DTD/svg11.dtd">
<!-- Generated by graphviz version 2.43.0 (0)
 -->
<!-- Title: src/common/types.hpp Pages: 1 -->
<svg width="1523pt" height="148pt"
 viewBox="0.00 0.00 1523.00 148.00" xmlns="http://www.w3.org/2000/svg" xmlns:xlink="http://www.w3.org/1999/xlink">
<g id="graph0" class="graph" transform="scale(1 1) rotate(0) translate(4 144)">
<title>src/common/types.hpp</title>
<!-- Node1 -->
<g id="Node000001" class="node">
<title>Node1</title>
<g id="a_Node000001"><a xlink:title=" ">
<polygon fill="#999999" stroke="#666666" points="488.5,-140 360.5,-140 360.5,-121 488.5,-121 488.5,-140"/>
<text text-anchor="middle" x="424.5" y="-128" font-family="Helvetica,sans-Serif" font-size="10.00">src/common/types.hpp</text>
</a>
</g>
</g>
<!-- Node2 -->
<g id="Node000002" class="node">
<title>Node2</title>
<g id="a_Node000002"><a xlink:href="types_8cpp.html" target="_top" xlink:title=" ">
<polygon fill="white" stroke="#666666" points="358,-85 231,-85 231,-66 358,-66 358,-85"/>
<text text-anchor="middle" x="294.5" y="-73" font-family="Helvetica,sans-Serif" font-size="10.00">src/common/types.cpp</text>
</a>
</g>
</g>
<!-- Node1&#45;&gt;Node2 -->
<g id="edge1_Node000001_Node000002" class="edge">
<title>Node1&#45;&gt;Node2</title>
<g id="a_edge1_Node000001_Node000002"><a xlink:title=" ">
<path fill="none" stroke="#63b8ff" d="M394.23,-117.16C370.16,-107.35 337.1,-93.87 315.77,-85.17"/>
<polygon fill="#63b8ff" stroke="#63b8ff" points="393.03,-120.45 403.61,-120.98 395.67,-113.97 393.03,-120.45"/>
</a>
</g>
</g>
<!-- Node3 -->
<g id="Node000003" class="node">
<title>Node3</title>
<g id="a_Node000003"><a xlink:href="compiler_2bytecode_8cpp.html" target="_top" xlink:title=" ">
<polygon fill="white" stroke="#666666" points="145,-24.5 0,-24.5 0,-5.5 145,-5.5 145,-24.5"/>
<text text-anchor="middle" x="72.5" y="-12.5" font-family="Helvetica,sans-Serif" font-size="10.00">src/compiler/bytecode.cpp</text>
</a>
</g>
</g>
<!-- Node1&#45;&gt;Node3 -->
<g id="edge2_Node000001_Node000003" class="edge">
<title>Node1&#45;&gt;Node3</title>
<g id="a_edge2_Node000001_Node000003"><a xlink:title=" ">
<path fill="none" stroke="#63b8ff" d="M413.54,-112.12C403.26,-97.37 386.5,-76.91 366.5,-66 282.6,-20.23 248.72,-46.04 154.5,-30 144.11,-28.23 132.97,-26.33 122.37,-24.52"/>
<polygon fill="#63b8ff" stroke="#63b8ff" points="410.88,-114.44 419.33,-120.84 416.71,-110.57 410.88,-114.44"/>
</a>
</g>
</g>
<!-- Node4 -->
<g id="Node000004" class="node">
<title>Node4</title>
<g id="a_Node000004"><a xlink:href="compiler_8cpp.html" target="_top" xlink:title=" ">
<polygon fill="white" stroke="#666666" points="305.5,-24.5 163.5,-24.5 163.5,-5.5 305.5,-5.5 305.5,-24.5"/>
<text text-anchor="middle" x="234.5" y="-12.5" font-family="Helvetica,sans-Serif" font-size="10.00">src/compiler/compiler.cpp</text>
</a>
</g>
</g>
<!-- Node1&#45;&gt;Node4 -->
<g id="edge3_Node000001_Node000004" class="edge">
<title>Node1&#45;&gt;Node4</title>
<g id="a_edge3_Node000001_Node000004"><a xlink:title=" ">
<path fill="none" stroke="#63b8ff" d="M421.93,-110.67C419.05,-96.53 413.01,-77.68 400.5,-66 382.68,-49.36 320.94,-33.76 278,-24.54"/>
<polygon fill="#63b8ff" stroke="#63b8ff" points="418.52,-111.49 423.63,-120.77 425.42,-110.33 418.52,-111.49"/>
</a>
</g>
</g>
<!-- Node5 -->
<g id="Node000005" class="node">
<title>Node5</title>
<g id="a_Node000005"><a xlink:href="compiler_8hpp.html" target="_top" xlink:title=" ">
<polygon fill="white" stroke="#666666" points="786,-85 643,-85 643,-66 786,-66 786,-85"/>
<text text-anchor="middle" x="714.5" y="-73" font-family="Helvetica,sans-Serif" font-size="10.00">src/compiler/compiler.hpp</text>
</a>
</g>
</g>
<!-- Node1&#45;&gt;Node5 -->
<g id="edge4_Node000001_Node000005" class="edge">
<title>Node1&#45;&gt;Node5</title>
<g id="a_edge4_Node000001_Node000005"><a xlink:title=" ">
<path fill="none" stroke="#63b8ff" d="M481.26,-119.13C535.63,-109.19 616.71,-94.37 667.54,-85.08"/>
<polygon fill="#63b8ff" stroke="#63b8ff" points="480.3,-115.74 471.09,-120.98 481.56,-122.63 480.3,-115.74"/>
</a>
</g>
</g>
<!-- Node10 -->
<g id="Node000010" class="node">
<title>Node10</title>
<g id="a_Node000010"><a xlink:href="lexer_8cpp.html" target="_top" xlink:title=" ">
<polygon fill="white" stroke="#666666" points="1515,-24.5 1392,-24.5 1392,-5.5 1515,-5.5 1515,-24.5"/>
<text text-anchor="middle" x="1453.5" y="-12.5" font-family="Helvetica,sans-Serif" font-size="10.00">src/compiler/lexer.cpp</text>
</a>
</g>
</g>
<!-- Node1&#45;&gt;Node10 -->
<g id="edge15_Node000001_Node000010" class="edge">
<title>Node1&#45;&gt;Node10</title>
<g id="a_edge15_Node000001_Node000010"><a xlink:title=" ">
<path fill="none" stroke="#63b8ff" d="M499.05,-124.17C660.74,-112.07 1055.57,-79.69 1383.5,-30 1393.55,-28.48 1404.34,-26.49 1414.37,-24.5"/>
<polygon fill="#63b8ff" stroke="#63b8ff" points="498.45,-120.7 488.74,-124.93 498.97,-127.68 498.45,-120.7"/>
</a>
</g>
</g>
<!-- Node5&#45;&gt;Node3 -->
<g id="edge7_Node000005_Node000003" class="edge">
<title>Node5&#45;&gt;Node3</title>
<g id="a_edge7_Node000005_Node000003"><a xlink:title=" ">
<path fill="none" stroke="#63b8ff" d="M632.39,-70.29C523.04,-64.15 323.72,-51.13 154.5,-30 142.61,-28.52 129.8,-26.52 117.93,-24.5"/>
<polygon fill="#63b8ff" stroke="#63b8ff" points="632.51,-73.8 642.69,-70.86 632.9,-66.81 632.51,-73.8"/>
</a>
</g>
</g>
<!-- Node5&#45;&gt;Node4 -->
<g id="edge9_Node000005_Node000004" class="edge">
<title>Node5&#45;&gt;Node4</title>
<g id="a_edge9_Node000005_Node000004"><a xlink:title=" ">
<path fill="none" stroke="#63b8ff" d="M632.66,-66.91C551.68,-59.03 424.28,-45.7 314.5,-30 303.47,-28.42 291.63,-26.49 280.53,-24.56"/>
<polygon fill="#63b8ff" stroke="#63b8ff" points="632.5,-70.41 642.8,-67.88 633.18,-63.44 632.5,-70.41"/>
</a>
</g>
</g>
<!-- Node6 -->
<g id="Node000006" class="node">
<title>Node6</title>
<g id="a_Node000006"><a xlink:href="CompilerSyntaxException_8cpp.html" target="_top" xlink:title=" ">
<polygon fill="white" stroke="#666666" points="1241.5,-30 1083.5,-30 1083.5,0 1241.5,0 1241.5,-30"/>
<text text-anchor="start" x="1091.5" y="-18" font-family="Helvetica,sans-Serif" font-size="10.00">src/compiler/CompilerSyntax</text>
<text text-anchor="middle" x="1162.5" y="-7" font-family="Helvetica,sans-Serif" font-size="10.00">Exception.cpp</text>
</a>
</g>
</g>
<!-- Node5&#45;&gt;Node6 -->
<g id="edge5_Node000005_Node000006" class="edge">
<title>Node5&#45;&gt;Node6</title>
<g id="a_edge5_Node000005_Node000006"><a xlink:title=" ">
<path fill="none" stroke="#63b8ff" d="M796.37,-65.2C869.41,-56.71 979.21,-43.46 1074.5,-30 1077.41,-29.59 1080.37,-29.16 1083.37,-28.72"/>
<polygon fill="#63b8ff" stroke="#63b8ff" points="795.85,-61.74 786.32,-66.37 796.65,-68.69 795.85,-61.74"/>
</a>
</g>
</g>
<!-- Node7 -->
<g id="Node000007" class="node">
<title>Node7</title>
<g id="a_Node000007"><a xlink:href="ast_8cpp.html" target="_top" xlink:title=" ">
<polygon fill="white" stroke="#666666" points="1374,-24.5 1259,-24.5 1259,-5.5 1374,-5.5 1374,-24.5"/>
<text text-anchor="middle" x="1316.5" y="-12.5" font-family="Helvetica,sans-Serif" font-size="10.00">src/compiler/ast.cpp</text>
</a>
</g>
</g>
<!-- Node5&#45;&gt;Node7 -->
<g id="edge6_Node000005_Node000007" class="edge">
<title>Node5&#45;&gt;Node7</title>
<g id="a_edge6_Node000005_Node000007"><a xlink:title=" ">
<path fill="none" stroke="#63b8ff" d="M796.61,-70.91C902.11,-65.55 1090.69,-53.49 1250.5,-30 1260.23,-28.57 1270.69,-26.57 1280.34,-24.53"/>
<polygon fill="#63b8ff" stroke="#63b8ff" points="796.17,-67.42 786.35,-71.42 796.52,-74.42 796.17,-67.42"/>
</a>
</g>
</g>
<!-- Node8 -->
<g id="Node000008" class="node">
<title>Node8</title>
<g id="a_Node000008"><a xlink:href="compile_8cpp.html" target="_top" xlink:title=" ">
<polygon fill="white" stroke="#666666" points="463,-24.5 324,-24.5 324,-5.5 463,-5.5 463,-24.5"/>
<text text-anchor="middle" x="393.5" y="-12.5" font-family="Helvetica,sans-Serif" font-size="10.00">src/compiler/compile.cpp</text>
</a>
</g>
</g>
<!-- Node5&#45;&gt;Node8 -->
<g id="edge8_Node000005_Node000008" class="edge">
<title>Node5&#45;&gt;Node8</title>
<g id="a_edge8_Node000005_Node000008"><a xlink:title=" ">
<path fill="none" stroke="#63b8ff" d="M657.83,-64.17C595.93,-52.89 497.91,-35.03 440.23,-24.52"/>
<polygon fill="#63b8ff" stroke="#63b8ff" points="657.36,-67.64 667.82,-65.99 658.61,-60.76 657.36,-67.64"/>
</a>
</g>
</g>
<!-- Node9 -->
<g id="Node000009" class="node">
<title>Node9</title>
<g id="a_Node000009"><a xlink:href="instruction_8cpp.html" target="_top" xlink:title=" ">
<polygon fill="white" stroke="#666666" points="633.5,-24.5 481.5,-24.5 481.5,-5.5 633.5,-5.5 633.5,-24.5"/>
<text text-anchor="middle" x="557.5" y="-12.5" font-family="Helvetica,sans-Serif" font-size="10.00">src/compiler/instruction.cpp</text>
</a>
</g>
</g>
<!-- Node5&#45;&gt;Node9 -->
<g id="edge10_Node000005_Node000009" class="edge">
<title>Node5&#45;&gt;Node9</title>
<g id="a_edge10_Node000005_Node000009"><a xlink:title=" ">
<path fill="none" stroke="#63b8ff" d="M681.97,-62.38C651.62,-51.07 607.11,-34.49 580.36,-24.52"/>
<polygon fill="#63b8ff" stroke="#63b8ff" points="681.08,-65.78 691.67,-65.99 683.52,-59.22 681.08,-65.78"/>
</a>
</g>
</g>
<!-- Node5&#45;&gt;Node10 -->
<g id="edge11_Node000005_Node000010" class="edge">
<title>Node5&#45;&gt;Node10</title>
<g id="a_edge11_Node000005_Node000010"><a xlink:title=" ">
<path fill="none" stroke="#63b8ff" d="M796.46,-72.5C922.93,-68.64 1173.06,-57.92 1383.5,-30 1393.94,-28.61 1405.17,-26.61 1415.51,-24.54"/>
<polygon fill="#63b8ff" stroke="#63b8ff" points="795.98,-69.02 786.09,-72.81 796.19,-76.01 795.98,-69.02"/>
</a>
</g>
</g>
<!-- Node11 -->
<g id="Node000011" class="node">
<title>Node11</title>
<g id="a_Node000011"><a xlink:href="compiler_2main_8cpp.html" target="_top" xlink:title=" ">
<polygon fill="white" stroke="#666666" points="777,-24.5 652,-24.5 652,-5.5 777,-5.5 777,-24.5"/>
<text text-anchor="middle" x="714.5" y="-12.5" font-family="Helvetica,sans-Serif" font-size="10.00">src/compiler/main.cpp</text>
</a>
</g>
</g>
<!-- Node5&#45;&gt;Node11 -->
<g id="edge12_Node000005_Node000011" class="edge">
<title>Node5&#45;&gt;Node11</title>
<g id="a_edge12_Node000005_Node000011"><a xlink:title=" ">
<path fill="none" stroke="#63b8ff" d="M714.5,-55.66C714.5,-45.24 714.5,-32.8 714.5,-24.67"/>
<polygon fill="#63b8ff" stroke="#63b8ff" points="711,-55.87 714.5,-65.87 718,-55.87 711,-55.87"/>
</a>
</g>
</g>
<!-- Node12 -->
<g id="Node000012" class="node">
<title>Node12</title>
<g id="a_Node000012"><a xlink:href="symbol_8cpp.html" target="_top" xlink:title=" ">
<polygon fill="white" stroke="#666666" points="931.5,-24.5 795.5,-24.5 795.5,-5.5 931.5,-5.5 931.5,-24.5"/>
<text text-anchor="middle" x="863.5" y="-12.5" font-family="Helvetica,sans-Serif" font-size="10.00">src/compiler/symbol.cpp</text>
</a>
</g>
</g>
<!-- Node5&#45;&gt;Node12 -->
<g id="edge13_Node000005_Node000012" class="edge">
<title>Node5&#45;&gt;Node12</title>
<g id="a_edge13_Node000005_Node000012"><a xlink:title=" ">
<path fill="none" stroke="#63b8ff" d="M745.75,-62.23C774.55,-50.92 816.53,-34.44 841.81,-24.52"/>
<polygon fill="#63b8ff" stroke="#63b8ff" points="744.2,-59.08 736.17,-65.99 746.75,-65.6 744.2,-59.08"/>
</a>
</g>
</g>
<!-- Node13 -->
<g id="Node000013" class="node">
<title>Node13</title>
<g id="a_Node000013"><a xlink:href="symbol__table_8cpp.html" target="_top" xlink:title=" ">
<polygon fill="white" stroke="#666666" points="1065.5,-30 949.5,-30 949.5,0 1065.5,0 1065.5,-30"/>
<text text-anchor="start" x="957.5" y="-18" font-family="Helvetica,sans-Serif" font-size="10.00">src/compiler/symbol</text>
<text text-anchor="middle" x="1007.5" y="-7" font-family="Helvetica,sans-Serif" font-size="10.00">_table.cpp</text>
</a>
</g>
</g>
<!-- Node5&#45;&gt;Node13 -->
<g id="edge14_Node000005_Node000013" class="edge">
<title>Node5&#45;&gt;Node13</title>
<g id="a_edge14_Node000005_Node000013"><a xlink:title=" ">
<path fill="none" stroke="#63b8ff" d="M768.71,-64.01C814.51,-55.1 881.84,-41.9 940.5,-30 943.41,-29.41 946.39,-28.8 949.4,-28.18"/>
<polygon fill="#63b8ff" stroke="#63b8ff" points="767.85,-60.61 758.7,-65.95 769.19,-67.48 767.85,-60.61"/>
</a>
</g>
</g>
</g>
</svg>
