<?xml version="1.0" encoding="UTF-8" standalone="no"?>
<!DOCTYPE svg PUBLIC "-//W3C//DTD SVG 1.1//EN"
 "http://www.w3.org/Graphics/SVG/1.1/DTD/svg11.dtd">
<!-- Generated by graphviz version 2.43.0 (0)
 -->
<!-- Title: src/common/types.hpp Pages: 1 -->
<svg width="2011pt" height="148pt"
 viewBox="0.00 0.00 2011.00 148.00" xmlns="http://www.w3.org/2000/svg" xmlns:xlink="http://www.w3.org/1999/xlink">
<g id="graph0" class="graph" transform="scale(1 1) rotate(0) translate(4 144)">
<title>src/common/types.hpp</title>
<!-- Node1 -->
<g id="Node000001" class="node">
<title>Node1</title>
<g id="a_Node000001"><a xlink:title=" ">
<polygon fill="#999999" stroke="#666666" points="486.5,-140 358.5,-140 358.5,-121 486.5,-121 486.5,-140"/>
<text text-anchor="middle" x="422.5" y="-128" font-family="Helvetica,sans-Serif" font-size="10.00">src/common/types.hpp</text>
</a>
</g>
</g>
<!-- Node2 -->
<g id="Node000002" class="node">
<title>Node2</title>
<g id="a_Node000002"><a xlink:href="types_8cpp.html" target="_top" xlink:title=" ">
<polygon fill="white" stroke="#666666" points="318,-85 191,-85 191,-66 318,-66 318,-85"/>
<text text-anchor="middle" x="254.5" y="-73" font-family="Helvetica,sans-Serif" font-size="10.00">src/common/types.cpp</text>
</a>
</g>
</g>
<!-- Node1&#45;&gt;Node2 -->
<g id="edge1_Node000001_Node000002" class="edge">
<title>Node1&#45;&gt;Node2</title>
<g id="a_edge1_Node000001_Node000002"><a xlink:title=" ">
<path fill="none" stroke="#63b8ff" d="M385.82,-117.93C354.44,-108.03 309.99,-94.01 281.7,-85.08"/>
<polygon fill="#63b8ff" stroke="#63b8ff" points="384.92,-121.31 395.51,-120.98 387.02,-114.64 384.92,-121.31"/>
</a>
</g>
</g>
<!-- Node3 -->
<g id="Node000003" class="node">
<title>Node3</title>
<g id="a_Node000003"><a xlink:href="compiler_2bytecode_8cpp.html" target="_top" xlink:title=" ">
<polygon fill="white" stroke="#666666" points="145,-24.5 0,-24.5 0,-5.5 145,-5.5 145,-24.5"/>
<text text-anchor="middle" x="72.5" y="-12.5" font-family="Helvetica,sans-Serif" font-size="10.00">src/compiler/bytecode.cpp</text>
</a>
</g>
</g>
<!-- Node1&#45;&gt;Node3 -->
<g id="edge2_Node000001_Node000003" class="edge">
<title>Node1&#45;&gt;Node3</title>
<g id="a_edge2_Node000001_Node000003"><a xlink:title=" ">
<path fill="none" stroke="#63b8ff" d="M402.7,-115.07C379.5,-98.41 342.24,-72.46 326.5,-66 307.76,-58.31 189.49,-36.66 121.13,-24.52"/>
<polygon fill="#63b8ff" stroke="#63b8ff" points="400.67,-117.93 410.83,-120.94 404.77,-112.25 400.67,-117.93"/>
</a>
</g>
</g>
<!-- Node4 -->
<g id="Node000004" class="node">
<title>Node4</title>
<g id="a_Node000004"><a xlink:href="compile_8cpp.html" target="_top" xlink:title=" ">
<polygon fill="white" stroke="#666666" points="302,-24.5 163,-24.5 163,-5.5 302,-5.5 302,-24.5"/>
<text text-anchor="middle" x="232.5" y="-12.5" font-family="Helvetica,sans-Serif" font-size="10.00">src/compiler/compile.cpp</text>
</a>
</g>
</g>
<!-- Node1&#45;&gt;Node4 -->
<g id="edge3_Node000001_Node000004" class="edge">
<title>Node1&#45;&gt;Node4</title>
<g id="a_edge3_Node000001_Node000004"><a xlink:title=" ">
<path fill="none" stroke="#63b8ff" d="M409.87,-113.08C398.31,-98.99 380.08,-78.96 360.5,-66 330.76,-46.31 292.1,-32.56 265.09,-24.54"/>
<polygon fill="#63b8ff" stroke="#63b8ff" points="407.19,-115.33 416.16,-120.97 412.66,-110.97 407.19,-115.33"/>
</a>
</g>
</g>
<!-- Node5 -->
<g id="Node000005" class="node">
<title>Node5</title>
<g id="a_Node000005"><a xlink:href="compiler_8cpp.html" target="_top" xlink:title=" ">
<polygon fill="white" stroke="#666666" points="462.5,-24.5 320.5,-24.5 320.5,-5.5 462.5,-5.5 462.5,-24.5"/>
<text text-anchor="middle" x="391.5" y="-12.5" font-family="Helvetica,sans-Serif" font-size="10.00">src/compiler/compiler.cpp</text>
</a>
</g>
</g>
<!-- Node1&#45;&gt;Node5 -->
<g id="edge4_Node000001_Node000005" class="edge">
<title>Node1&#45;&gt;Node5</title>
<g id="a_edge4_Node000001_Node000005"><a xlink:title=" ">
<path fill="none" stroke="#63b8ff" d="M417.44,-110.99C410.65,-86.13 398.86,-42.96 393.86,-24.63"/>
<polygon fill="#63b8ff" stroke="#63b8ff" points="414.16,-112.24 420.17,-120.97 420.91,-110.4 414.16,-112.24"/>
</a>
</g>
</g>
<!-- Node6 -->
<g id="Node000006" class="node">
<title>Node6</title>
<g id="a_Node000006"><a xlink:href="compiler_8hpp.html" target="_top" xlink:title=" ">
<polygon fill="white" stroke="#666666" points="1063,-85 920,-85 920,-66 1063,-66 1063,-85"/>
<text text-anchor="middle" x="991.5" y="-73" font-family="Helvetica,sans-Serif" font-size="10.00">src/compiler/compiler.hpp</text>
</a>
</g>
</g>
<!-- Node1&#45;&gt;Node6 -->
<g id="edge5_Node000001_Node000006" class="edge">
<title>Node1&#45;&gt;Node6</title>
<g id="a_edge5_Node000001_Node000006"><a xlink:title=" ">
<path fill="none" stroke="#63b8ff" d="M496.68,-122.59C606.66,-112.35 811.59,-93.26 920,-83.16"/>
<polygon fill="#63b8ff" stroke="#63b8ff" points="496.3,-119.11 486.67,-123.52 496.95,-126.08 496.3,-119.11"/>
</a>
</g>
</g>
<!-- Node9 -->
<g id="Node000009" class="node">
<title>Node9</title>
<g id="a_Node000009"><a xlink:href="functions_8cpp.html" target="_top" xlink:title=" ">
<polygon fill="white" stroke="#666666" points="626,-24.5 481,-24.5 481,-5.5 626,-5.5 626,-24.5"/>
<text text-anchor="middle" x="553.5" y="-12.5" font-family="Helvetica,sans-Serif" font-size="10.00">src/compiler/functions.cpp</text>
</a>
</g>
</g>
<!-- Node1&#45;&gt;Node9 -->
<g id="edge19_Node000001_Node000009" class="edge">
<title>Node1&#45;&gt;Node9</title>
<g id="a_edge19_Node000001_Node000009"><a xlink:title=" ">
<path fill="none" stroke="#63b8ff" d="M440.12,-114.23C468.01,-90.07 521.43,-43.79 543.54,-24.63"/>
<polygon fill="#63b8ff" stroke="#63b8ff" points="437.61,-111.78 432.35,-120.97 442.2,-117.07 437.61,-111.78"/>
</a>
</g>
</g>
<!-- Node11 -->
<g id="Node000011" class="node">
<title>Node11</title>
<g id="a_Node000011"><a xlink:href="lexer_8cpp.html" target="_top" xlink:title=" ">
<polygon fill="white" stroke="#666666" points="2003,-24.5 1880,-24.5 1880,-5.5 2003,-5.5 2003,-24.5"/>
<text text-anchor="middle" x="1941.5" y="-12.5" font-family="Helvetica,sans-Serif" font-size="10.00">src/compiler/lexer.cpp</text>
</a>
</g>
</g>
<!-- Node1&#45;&gt;Node11 -->
<g id="edge20_Node000001_Node000011" class="edge">
<title>Node1&#45;&gt;Node11</title>
<g id="a_edge20_Node000001_Node000011"><a xlink:title=" ">
<path fill="none" stroke="#63b8ff" d="M496.84,-127.7C710.98,-121.81 1347.31,-99.31 1870.5,-30 1881.09,-28.6 1892.47,-26.58 1902.96,-24.52"/>
<polygon fill="#63b8ff" stroke="#63b8ff" points="496.56,-124.21 486.66,-127.98 496.75,-131.21 496.56,-124.21"/>
</a>
</g>
</g>
<!-- Node6&#45;&gt;Node3 -->
<g id="edge8_Node000006_Node000003" class="edge">
<title>Node6&#45;&gt;Node3</title>
<g id="a_edge8_Node000006_Node000003"><a xlink:title=" ">
<path fill="none" stroke="#63b8ff" d="M909.73,-73.36C759.51,-70.55 429.65,-61.09 153.5,-30 141.3,-28.63 128.16,-26.6 116.08,-24.51"/>
<polygon fill="#63b8ff" stroke="#63b8ff" points="909.74,-76.86 919.8,-73.54 909.87,-69.86 909.74,-76.86"/>
</a>
</g>
</g>
<!-- Node6&#45;&gt;Node4 -->
<g id="edge9_Node000006_Node000004" class="edge">
<title>Node6&#45;&gt;Node4</title>
<g id="a_edge9_Node000006_Node000004"><a xlink:title=" ">
<path fill="none" stroke="#63b8ff" d="M909.68,-72.05C781.68,-67.57 526.49,-56 311.5,-30 299.88,-28.6 287.39,-26.6 275.83,-24.56"/>
<polygon fill="#63b8ff" stroke="#63b8ff" points="909.68,-75.56 919.79,-72.4 909.92,-68.56 909.68,-75.56"/>
</a>
</g>
</g>
<!-- Node6&#45;&gt;Node5 -->
<g id="edge10_Node000006_Node000005" class="edge">
<title>Node6&#45;&gt;Node5</title>
<g id="a_edge10_Node000006_Node000005"><a xlink:title=" ">
<path fill="none" stroke="#63b8ff" d="M909.81,-69.74C807.19,-63.24 625.85,-50.07 471.5,-30 460.03,-28.51 447.71,-26.54 436.24,-24.54"/>
<polygon fill="#63b8ff" stroke="#63b8ff" points="909.59,-73.23 919.79,-70.36 910.03,-66.24 909.59,-73.23"/>
</a>
</g>
</g>
<!-- Node7 -->
<g id="Node000007" class="node">
<title>Node7</title>
<g id="a_Node000007"><a xlink:href="CompilerSyntaxException_8cpp.html" target="_top" xlink:title=" ">
<polygon fill="white" stroke="#666666" points="993.5,-30 835.5,-30 835.5,0 993.5,0 993.5,-30"/>
<text text-anchor="start" x="843.5" y="-18" font-family="Helvetica,sans-Serif" font-size="10.00">src/compiler/CompilerSyntax</text>
<text text-anchor="middle" x="914.5" y="-7" font-family="Helvetica,sans-Serif" font-size="10.00">Exception.cpp</text>
</a>
</g>
</g>
<!-- Node6&#45;&gt;Node7 -->
<g id="edge6_Node000006_Node000007" class="edge">
<title>Node6&#45;&gt;Node7</title>
<g id="a_edge6_Node000006_Node000007"><a xlink:title=" ">
<path fill="none" stroke="#63b8ff" d="M972.11,-59.77C960.15,-50.68 944.89,-39.09 933.08,-30.11"/>
<polygon fill="#63b8ff" stroke="#63b8ff" points="970.06,-62.61 980.14,-65.87 974.29,-57.03 970.06,-62.61"/>
</a>
</g>
</g>
<!-- Node8 -->
<g id="Node000008" class="node">
<title>Node8</title>
<g id="a_Node000008"><a xlink:href="ast_8cpp.html" target="_top" xlink:title=" ">
<polygon fill="white" stroke="#666666" points="1126,-24.5 1011,-24.5 1011,-5.5 1126,-5.5 1126,-24.5"/>
<text text-anchor="middle" x="1068.5" y="-12.5" font-family="Helvetica,sans-Serif" font-size="10.00">src/compiler/ast.cpp</text>
</a>
</g>
</g>
<!-- Node6&#45;&gt;Node8 -->
<g id="edge7_Node000006_Node000008" class="edge">
<title>Node6&#45;&gt;Node8</title>
<g id="a_edge7_Node000006_Node000008"><a xlink:title=" ">
<path fill="none" stroke="#63b8ff" d="M1011.19,-59.54C1025.73,-48.49 1045.02,-33.84 1057.09,-24.67"/>
<polygon fill="#63b8ff" stroke="#63b8ff" points="1008.71,-57.03 1002.86,-65.87 1012.94,-62.61 1008.71,-57.03"/>
</a>
</g>
</g>
<!-- Node6&#45;&gt;Node9 -->
<g id="edge11_Node000006_Node000009" class="edge">
<title>Node6&#45;&gt;Node9</title>
<g id="a_edge11_Node000006_Node000009"><a xlink:title=" ">
<path fill="none" stroke="#63b8ff" d="M909.93,-65.44C837.47,-57.13 728.76,-44.01 634.5,-30 623.49,-28.36 611.67,-26.42 600.55,-24.52"/>
<polygon fill="#63b8ff" stroke="#63b8ff" points="909.57,-68.92 919.91,-66.58 910.37,-61.97 909.57,-68.92"/>
</a>
</g>
</g>
<!-- Node10 -->
<g id="Node000010" class="node">
<title>Node10</title>
<g id="a_Node000010"><a xlink:href="instruction_8cpp.html" target="_top" xlink:title=" ">
<polygon fill="white" stroke="#666666" points="1296.5,-24.5 1144.5,-24.5 1144.5,-5.5 1296.5,-5.5 1296.5,-24.5"/>
<text text-anchor="middle" x="1220.5" y="-12.5" font-family="Helvetica,sans-Serif" font-size="10.00">src/compiler/instruction.cpp</text>
</a>
</g>
</g>
<!-- Node6&#45;&gt;Node10 -->
<g id="edge12_Node000006_Node000010" class="edge">
<title>Node6&#45;&gt;Node10</title>
<g id="a_edge12_Node000006_Node000010"><a xlink:title=" ">
<path fill="none" stroke="#63b8ff" d="M1034.69,-63.47C1078.96,-52.16 1146.86,-34.81 1187.16,-24.52"/>
<polygon fill="#63b8ff" stroke="#63b8ff" points="1033.62,-60.13 1024.8,-65.99 1035.35,-66.91 1033.62,-60.13"/>
</a>
</g>
</g>
<!-- Node6&#45;&gt;Node11 -->
<g id="edge13_Node000006_Node000011" class="edge">
<title>Node6&#45;&gt;Node11</title>
<g id="a_edge13_Node000006_Node000011"><a xlink:title=" ">
<path fill="none" stroke="#63b8ff" d="M1073.44,-74.28C1229.27,-73 1578.83,-65.95 1870.5,-30 1881.35,-28.66 1893.02,-26.62 1903.71,-24.5"/>
<polygon fill="#63b8ff" stroke="#63b8ff" points="1072.98,-70.79 1063.01,-74.36 1073.04,-77.79 1072.98,-70.79"/>
</a>
</g>
</g>
<!-- Node12 -->
<g id="Node000012" class="node">
<title>Node12</title>
<g id="a_Node000012"><a xlink:href="log_8cpp.html" target="_top" xlink:title=" ">
<polygon fill="white" stroke="#666666" points="1430,-24.5 1315,-24.5 1315,-5.5 1430,-5.5 1430,-24.5"/>
<text text-anchor="middle" x="1372.5" y="-12.5" font-family="Helvetica,sans-Serif" font-size="10.00">src/compiler/log.cpp</text>
</a>
</g>
</g>
<!-- Node6&#45;&gt;Node12 -->
<g id="edge14_Node000006_Node000012" class="edge">
<title>Node6&#45;&gt;Node12</title>
<g id="a_edge14_Node000006_Node000012"><a xlink:title=" ">
<path fill="none" stroke="#63b8ff" d="M1070.89,-64.7C1134.51,-56.5 1225.96,-43.93 1305.5,-30 1314.75,-28.38 1324.67,-26.43 1333.96,-24.5"/>
<polygon fill="#63b8ff" stroke="#63b8ff" points="1070.4,-61.24 1060.93,-65.98 1071.29,-68.18 1070.4,-61.24"/>
</a>
</g>
</g>
<!-- Node13 -->
<g id="Node000013" class="node">
<title>Node13</title>
<g id="a_Node000013"><a xlink:href="compiler_2main_8cpp.html" target="_top" xlink:title=" ">
<polygon fill="white" stroke="#666666" points="1573,-24.5 1448,-24.5 1448,-5.5 1573,-5.5 1573,-24.5"/>
<text text-anchor="middle" x="1510.5" y="-12.5" font-family="Helvetica,sans-Serif" font-size="10.00">src/compiler/main.cpp</text>
</a>
</g>
</g>
<!-- Node6&#45;&gt;Node13 -->
<g id="edge15_Node000006_Node000013" class="edge">
<title>Node6&#45;&gt;Node13</title>
<g id="a_edge15_Node000006_Node000013"><a xlink:title=" ">
<path fill="none" stroke="#63b8ff" d="M1073.29,-68.74C1163.32,-61.85 1312.19,-48.83 1439.5,-30 1449.69,-28.49 1460.64,-26.51 1470.81,-24.52"/>
<polygon fill="#63b8ff" stroke="#63b8ff" points="1072.85,-65.26 1063.14,-69.51 1073.38,-72.24 1072.85,-65.26"/>
</a>
</g>
</g>
<!-- Node14 -->
<g id="Node000014" class="node">
<title>Node14</title>
<g id="a_Node000014"><a xlink:href="symbol_8cpp.html" target="_top" xlink:title=" ">
<polygon fill="white" stroke="#666666" points="1727.5,-24.5 1591.5,-24.5 1591.5,-5.5 1727.5,-5.5 1727.5,-24.5"/>
<text text-anchor="middle" x="1659.5" y="-12.5" font-family="Helvetica,sans-Serif" font-size="10.00">src/compiler/symbol.cpp</text>
</a>
</g>
</g>
<!-- Node6&#45;&gt;Node14 -->
<g id="edge16_Node000006_Node000014" class="edge">
<title>Node6&#45;&gt;Node14</title>
<g id="a_edge16_Node000006_Node000014"><a xlink:title=" ">
<path fill="none" stroke="#63b8ff" d="M1073.23,-71.05C1187.53,-65.62 1401.45,-53.21 1582.5,-30 1593.82,-28.55 1606,-26.54 1617.26,-24.5"/>
<polygon fill="#63b8ff" stroke="#63b8ff" points="1072.98,-67.56 1063.16,-71.53 1073.31,-74.55 1072.98,-67.56"/>
</a>
</g>
</g>
<!-- Node15 -->
<g id="Node000015" class="node">
<title>Node15</title>
<g id="a_Node000015"><a xlink:href="symbol__table_8cpp.html" target="_top" xlink:title=" ">
<polygon fill="white" stroke="#666666" points="1861.5,-30 1745.5,-30 1745.5,0 1861.5,0 1861.5,-30"/>
<text text-anchor="start" x="1753.5" y="-18" font-family="Helvetica,sans-Serif" font-size="10.00">src/compiler/symbol</text>
<text text-anchor="middle" x="1803.5" y="-7" font-family="Helvetica,sans-Serif" font-size="10.00">_table.cpp</text>
</a>
</g>
</g>
<!-- Node6&#45;&gt;Node15 -->
<g id="edge17_Node000006_Node000015" class="edge">
<title>Node6&#45;&gt;Node15</title>
<g id="a_edge17_Node000006_Node000015"><a xlink:title=" ">
<path fill="none" stroke="#63b8ff" d="M1073.27,-73.52C1210.8,-71 1496.88,-62.02 1736.5,-30 1739.44,-29.61 1742.45,-29.16 1745.48,-28.66"/>
<polygon fill="#63b8ff" stroke="#63b8ff" points="1073.17,-70.02 1063.23,-73.7 1073.29,-77.02 1073.17,-70.02"/>
</a>
</g>
</g>
<!-- Node16 -->
<g id="Node000016" class="node">
<title>Node16</title>
<g id="a_Node000016"><a xlink:href="temp__allocator_8cpp.html" target="_top" xlink:title=" ">
<polygon fill="white" stroke="#666666" points="817,-24.5 644,-24.5 644,-5.5 817,-5.5 817,-24.5"/>
<text text-anchor="middle" x="730.5" y="-12.5" font-family="Helvetica,sans-Serif" font-size="10.00">src/compiler/temp_allocator.cpp</text>
</a>
</g>
</g>
<!-- Node6&#45;&gt;Node16 -->
<g id="edge18_Node000006_Node000016" class="edge">
<title>Node6&#45;&gt;Node16</title>
<g id="a_edge18_Node000006_Node000016"><a xlink:title=" ">
<path fill="none" stroke="#63b8ff" d="M943.54,-63.75C893.12,-52.45 814.81,-34.9 768.5,-24.52"/>
<polygon fill="#63b8ff" stroke="#63b8ff" points="943.02,-67.22 953.55,-65.99 944.56,-60.39 943.02,-67.22"/>
</a>
</g>
</g>
</g>
</svg>
