<?xml version="1.0" encoding="UTF-8" standalone="no"?>
<!DOCTYPE svg PUBLIC "-//W3C//DTD SVG 1.1//EN"
 "http://www.w3.org/Graphics/SVG/1.1/DTD/svg11.dtd">
<!-- Generated by graphviz version 2.43.0 (0)
 -->
<!-- Title: src/common/types.hpp Pages: 1 -->
<svg width="696pt" height="148pt"
 viewBox="0.00 0.00 695.50 148.00" xmlns="http://www.w3.org/2000/svg" xmlns:xlink="http://www.w3.org/1999/xlink">
<g id="graph0" class="graph" transform="scale(1 1) rotate(0) translate(4 144)">
<title>src/common/types.hpp</title>
<!-- Node1 -->
<g id="Node000001" class="node">
<title>Node1</title>
<g id="a_Node000001"><a xlink:title=" ">
<polygon fill="#999999" stroke="#666666" points="323.5,-140 195.5,-140 195.5,-121 323.5,-121 323.5,-140"/>
<text text-anchor="middle" x="259.5" y="-128" font-family="Helvetica,sans-Serif" font-size="10.00">src/common/types.hpp</text>
</a>
</g>
</g>
<!-- Node2 -->
<g id="Node000002" class="node">
<title>Node2</title>
<g id="a_Node000002"><a xlink:href="types_8cpp.html" target="_top" xlink:title=" ">
<polygon fill="white" stroke="#666666" points="247,-85 120,-85 120,-66 247,-66 247,-85"/>
<text text-anchor="middle" x="183.5" y="-73" font-family="Helvetica,sans-Serif" font-size="10.00">src/common/types.cpp</text>
</a>
</g>
</g>
<!-- Node1&#45;&gt;Node2 -->
<g id="edge1_Node000001_Node000002" class="edge">
<title>Node1&#45;&gt;Node2</title>
<g id="a_edge1_Node000001_Node000002"><a xlink:title=" ">
<path fill="none" stroke="#63b8ff" d="M238.92,-115.15C225.19,-105.57 207.57,-93.29 195.93,-85.17"/>
<polygon fill="#63b8ff" stroke="#63b8ff" points="237.08,-118.14 247.29,-120.98 241.09,-112.39 237.08,-118.14"/>
</a>
</g>
</g>
<!-- Node3 -->
<g id="Node000003" class="node">
<title>Node3</title>
<g id="a_Node000003"><a xlink:href="compiler_8hpp.html" target="_top" xlink:title=" ">
<polygon fill="white" stroke="#666666" points="408,-85 265,-85 265,-66 408,-66 408,-85"/>
<text text-anchor="middle" x="336.5" y="-73" font-family="Helvetica,sans-Serif" font-size="10.00">src/compiler/compiler.hpp</text>
</a>
</g>
</g>
<!-- Node1&#45;&gt;Node3 -->
<g id="edge2_Node000001_Node000003" class="edge">
<title>Node1&#45;&gt;Node3</title>
<g id="a_edge2_Node000001_Node000003"><a xlink:title=" ">
<path fill="none" stroke="#63b8ff" d="M280.35,-115.15C294.26,-105.57 312.11,-93.29 323.9,-85.17"/>
<polygon fill="#63b8ff" stroke="#63b8ff" points="278.12,-112.43 271.87,-120.98 282.09,-118.2 278.12,-112.43"/>
</a>
</g>
</g>
<!-- Node4 -->
<g id="Node000004" class="node">
<title>Node4</title>
<g id="a_Node000004"><a xlink:href="ast_8cpp.html" target="_top" xlink:title=" ">
<polygon fill="white" stroke="#666666" points="115,-24.5 0,-24.5 0,-5.5 115,-5.5 115,-24.5"/>
<text text-anchor="middle" x="57.5" y="-12.5" font-family="Helvetica,sans-Serif" font-size="10.00">src/compiler/ast.cpp</text>
</a>
</g>
</g>
<!-- Node3&#45;&gt;Node4 -->
<g id="edge3_Node000003_Node000004" class="edge">
<title>Node3&#45;&gt;Node4</title>
<g id="a_edge3_Node000003_Node000004"><a xlink:title=" ">
<path fill="none" stroke="#63b8ff" d="M285.29,-63.85C242.14,-54.86 178.77,-41.64 123.5,-30 115.13,-28.24 106.17,-26.34 97.63,-24.53"/>
<polygon fill="#63b8ff" stroke="#63b8ff" points="284.76,-67.31 295.26,-65.92 286.18,-60.46 284.76,-67.31"/>
</a>
</g>
</g>
<!-- Node5 -->
<g id="Node000005" class="node">
<title>Node5</title>
<g id="a_Node000005"><a xlink:href="lexer_8cpp.html" target="_top" xlink:title=" ">
<polygon fill="white" stroke="#666666" points="256,-24.5 133,-24.5 133,-5.5 256,-5.5 256,-24.5"/>
<text text-anchor="middle" x="194.5" y="-12.5" font-family="Helvetica,sans-Serif" font-size="10.00">src/compiler/lexer.cpp</text>
</a>
</g>
</g>
<!-- Node3&#45;&gt;Node5 -->
<g id="edge4_Node000003_Node000005" class="edge">
<title>Node3&#45;&gt;Node5</title>
<g id="a_edge4_Node000003_Node000005"><a xlink:title=" ">
<path fill="none" stroke="#63b8ff" d="M306.36,-62.08C278.93,-50.78 239.16,-34.4 215.17,-24.52"/>
<polygon fill="#63b8ff" stroke="#63b8ff" points="305.27,-65.42 315.85,-65.99 307.94,-58.95 305.27,-65.42"/>
</a>
</g>
</g>
<!-- Node6 -->
<g id="Node000006" class="node">
<title>Node6</title>
<g id="a_Node000006"><a xlink:href="main_8cpp.html" target="_top" xlink:title=" ">
<polygon fill="white" stroke="#666666" points="399,-24.5 274,-24.5 274,-5.5 399,-5.5 399,-24.5"/>
<text text-anchor="middle" x="336.5" y="-12.5" font-family="Helvetica,sans-Serif" font-size="10.00">src/compiler/main.cpp</text>
</a>
</g>
</g>
<!-- Node3&#45;&gt;Node6 -->
<g id="edge5_Node000003_Node000006" class="edge">
<title>Node3&#45;&gt;Node6</title>
<g id="a_edge5_Node000003_Node000006"><a xlink:title=" ">
<path fill="none" stroke="#63b8ff" d="M336.5,-55.66C336.5,-45.24 336.5,-32.8 336.5,-24.67"/>
<polygon fill="#63b8ff" stroke="#63b8ff" points="333,-55.87 336.5,-65.87 340,-55.87 333,-55.87"/>
</a>
</g>
</g>
<!-- Node7 -->
<g id="Node000007" class="node">
<title>Node7</title>
<g id="a_Node000007"><a xlink:href="symbol_8cpp.html" target="_top" xlink:title=" ">
<polygon fill="white" stroke="#666666" points="553.5,-24.5 417.5,-24.5 417.5,-5.5 553.5,-5.5 553.5,-24.5"/>
<text text-anchor="middle" x="485.5" y="-12.5" font-family="Helvetica,sans-Serif" font-size="10.00">src/compiler/symbol.cpp</text>
</a>
</g>
</g>
<!-- Node3&#45;&gt;Node7 -->
<g id="edge6_Node000003_Node000007" class="edge">
<title>Node3&#45;&gt;Node7</title>
<g id="a_edge6_Node000003_Node000007"><a xlink:title=" ">
<path fill="none" stroke="#63b8ff" d="M367.75,-62.23C396.55,-50.92 438.53,-34.44 463.81,-24.52"/>
<polygon fill="#63b8ff" stroke="#63b8ff" points="366.2,-59.08 358.17,-65.99 368.75,-65.6 366.2,-59.08"/>
</a>
</g>
</g>
<!-- Node8 -->
<g id="Node000008" class="node">
<title>Node8</title>
<g id="a_Node000008"><a xlink:href="symbol__table_8cpp.html" target="_top" xlink:title=" ">
<polygon fill="white" stroke="#666666" points="687.5,-30 571.5,-30 571.5,0 687.5,0 687.5,-30"/>
<text text-anchor="start" x="579.5" y="-18" font-family="Helvetica,sans-Serif" font-size="10.00">src/compiler/symbol</text>
<text text-anchor="middle" x="629.5" y="-7" font-family="Helvetica,sans-Serif" font-size="10.00">_table.cpp</text>
</a>
</g>
</g>
<!-- Node3&#45;&gt;Node8 -->
<g id="edge7_Node000003_Node000008" class="edge">
<title>Node3&#45;&gt;Node8</title>
<g id="a_edge7_Node000003_Node000008"><a xlink:title=" ">
<path fill="none" stroke="#63b8ff" d="M390.71,-64.01C436.51,-55.1 503.84,-41.9 562.5,-30 565.41,-29.41 568.39,-28.8 571.4,-28.18"/>
<polygon fill="#63b8ff" stroke="#63b8ff" points="389.85,-60.61 380.7,-65.95 391.19,-67.48 389.85,-60.61"/>
</a>
</g>
</g>
</g>
</svg>
