<?xml version="1.0" encoding="UTF-8" standalone="no"?>
<!DOCTYPE svg PUBLIC "-//W3C//DTD SVG 1.1//EN"
 "http://www.w3.org/Graphics/SVG/1.1/DTD/svg11.dtd">
<!-- Generated by graphviz version 2.43.0 (0)
 -->
<!-- Title: src/common/types.hpp Pages: 1 -->
<svg width="1032pt" height="148pt"
 viewBox="0.00 0.00 1031.50 148.00" xmlns="http://www.w3.org/2000/svg" xmlns:xlink="http://www.w3.org/1999/xlink">
<g id="graph0" class="graph" transform="scale(1 1) rotate(0) translate(4 144)">
<title>src/common/types.hpp</title>
<!-- Node1 -->
<g id="Node000001" class="node">
<title>Node1</title>
<g id="a_Node000001"><a xlink:title=" ">
<polygon fill="#999999" stroke="#666666" points="545,-140 417,-140 417,-121 545,-121 545,-140"/>
<text text-anchor="middle" x="481" y="-128" font-family="Helvetica,sans-Serif" font-size="10.00">src/common/types.hpp</text>
</a>
</g>
</g>
<!-- Node2 -->
<g id="Node000002" class="node">
<title>Node2</title>
<g id="a_Node000002"><a xlink:href="types_8cpp.html" target="_top" xlink:title=" ">
<polygon fill="white" stroke="#666666" points="402.5,-85 275.5,-85 275.5,-66 402.5,-66 402.5,-85"/>
<text text-anchor="middle" x="339" y="-73" font-family="Helvetica,sans-Serif" font-size="10.00">src/common/types.cpp</text>
</a>
</g>
</g>
<!-- Node1&#45;&gt;Node2 -->
<g id="edge1_Node000001_Node000002" class="edge">
<title>Node1&#45;&gt;Node2</title>
<g id="a_edge1_Node000001_Node000002"><a xlink:title=" ">
<path fill="none" stroke="#63b8ff" d="M448.64,-117.42C422.29,-107.59 385.74,-93.95 362.23,-85.17"/>
<polygon fill="#63b8ff" stroke="#63b8ff" points="447.59,-120.77 458.19,-120.98 450.04,-114.21 447.59,-120.77"/>
</a>
</g>
</g>
<!-- Node3 -->
<g id="Node000003" class="node">
<title>Node3</title>
<g id="a_Node000003"><a xlink:href="compiler_8cpp.html" target="_top" xlink:title=" ">
<polygon fill="white" stroke="#666666" points="142,-24.5 0,-24.5 0,-5.5 142,-5.5 142,-24.5"/>
<text text-anchor="middle" x="71" y="-12.5" font-family="Helvetica,sans-Serif" font-size="10.00">src/compiler/compiler.cpp</text>
</a>
</g>
</g>
<!-- Node1&#45;&gt;Node3 -->
<g id="edge2_Node000001_Node000003" class="edge">
<title>Node1&#45;&gt;Node3</title>
<g id="a_edge2_Node000001_Node000003"><a xlink:title=" ">
<path fill="none" stroke="#63b8ff" d="M467.79,-112.81C454.97,-97.91 434.11,-76.8 411,-66 305.31,-16.61 266.25,-48.06 151,-30 140.41,-28.34 129.06,-26.43 118.33,-24.57"/>
<polygon fill="#63b8ff" stroke="#63b8ff" points="465.29,-115.28 474.36,-120.75 470.68,-110.82 465.29,-115.28"/>
</a>
</g>
</g>
<!-- Node4 -->
<g id="Node000004" class="node">
<title>Node4</title>
<g id="a_Node000004"><a xlink:href="compiler_8hpp.html" target="_top" xlink:title=" ">
<polygon fill="white" stroke="#666666" points="602.5,-85 459.5,-85 459.5,-66 602.5,-66 602.5,-85"/>
<text text-anchor="middle" x="531" y="-73" font-family="Helvetica,sans-Serif" font-size="10.00">src/compiler/compiler.hpp</text>
</a>
</g>
</g>
<!-- Node1&#45;&gt;Node4 -->
<g id="edge3_Node000001_Node000004" class="edge">
<title>Node1&#45;&gt;Node4</title>
<g id="a_edge3_Node000001_Node000004"><a xlink:title=" ">
<path fill="none" stroke="#63b8ff" d="M496.34,-113.24C505.1,-103.95 515.74,-92.68 522.9,-85.09"/>
<polygon fill="#63b8ff" stroke="#63b8ff" points="493.57,-111.07 489.26,-120.75 498.66,-115.88 493.57,-111.07"/>
</a>
</g>
</g>
<!-- Node7 -->
<g id="Node000007" class="node">
<title>Node7</title>
<g id="a_Node000007"><a xlink:href="lexer_8cpp.html" target="_top" xlink:title=" ">
<polygon fill="white" stroke="#666666" points="1023.5,-24.5 900.5,-24.5 900.5,-5.5 1023.5,-5.5 1023.5,-24.5"/>
<text text-anchor="middle" x="962" y="-12.5" font-family="Helvetica,sans-Serif" font-size="10.00">src/compiler/lexer.cpp</text>
</a>
</g>
</g>
<!-- Node1&#45;&gt;Node7 -->
<g id="edge11_Node000001_Node000007" class="edge">
<title>Node1&#45;&gt;Node7</title>
<g id="a_edge11_Node000001_Node000007"><a xlink:title=" ">
<path fill="none" stroke="#63b8ff" d="M527.08,-118.63C622.4,-96.13 839.55,-44.89 925.76,-24.55"/>
<polygon fill="#63b8ff" stroke="#63b8ff" points="526.08,-115.27 517.15,-120.97 527.69,-122.08 526.08,-115.27"/>
</a>
</g>
</g>
<!-- Node4&#45;&gt;Node3 -->
<g id="edge6_Node000004_Node000003" class="edge">
<title>Node4&#45;&gt;Node3</title>
<g id="a_edge6_Node000004_Node000003"><a xlink:title=" ">
<path fill="none" stroke="#63b8ff" d="M449.28,-66.28C372.21,-58.21 253.53,-44.96 151,-30 139.98,-28.39 128.14,-26.44 117.04,-24.52"/>
<polygon fill="#63b8ff" stroke="#63b8ff" points="449.1,-69.78 459.4,-67.34 449.82,-62.82 449.1,-69.78"/>
</a>
</g>
</g>
<!-- Node5 -->
<g id="Node000005" class="node">
<title>Node5</title>
<g id="a_Node000005"><a xlink:href="CompilerSyntaxException_8cpp.html" target="_top" xlink:title=" ">
<polygon fill="white" stroke="#666666" points="318,-30 160,-30 160,0 318,0 318,-30"/>
<text text-anchor="start" x="168" y="-18" font-family="Helvetica,sans-Serif" font-size="10.00">src/compiler/CompilerSyntax</text>
<text text-anchor="middle" x="239" y="-7" font-family="Helvetica,sans-Serif" font-size="10.00">Exception.cpp</text>
</a>
</g>
</g>
<!-- Node4&#45;&gt;Node5 -->
<g id="edge4_Node000004_Node000005" class="edge">
<title>Node4&#45;&gt;Node5</title>
<g id="a_edge4_Node000004_Node000005"><a xlink:title=" ">
<path fill="none" stroke="#63b8ff" d="M478.49,-63.98C431.1,-54.49 361.04,-40.45 308.92,-30.01"/>
<polygon fill="#63b8ff" stroke="#63b8ff" points="478.05,-67.46 488.54,-65.99 479.42,-60.6 478.05,-67.46"/>
</a>
</g>
</g>
<!-- Node6 -->
<g id="Node000006" class="node">
<title>Node6</title>
<g id="a_Node000006"><a xlink:href="ast_8cpp.html" target="_top" xlink:title=" ">
<polygon fill="white" stroke="#666666" points="450.5,-24.5 335.5,-24.5 335.5,-5.5 450.5,-5.5 450.5,-24.5"/>
<text text-anchor="middle" x="393" y="-12.5" font-family="Helvetica,sans-Serif" font-size="10.00">src/compiler/ast.cpp</text>
</a>
</g>
</g>
<!-- Node4&#45;&gt;Node6 -->
<g id="edge5_Node000004_Node000006" class="edge">
<title>Node4&#45;&gt;Node6</title>
<g id="a_edge5_Node000004_Node000006"><a xlink:title=" ">
<path fill="none" stroke="#63b8ff" d="M501.71,-62.08C475.05,-50.78 436.4,-34.4 413.09,-24.52"/>
<polygon fill="#63b8ff" stroke="#63b8ff" points="500.36,-65.31 510.93,-65.99 503.09,-58.87 500.36,-65.31"/>
</a>
</g>
</g>
<!-- Node4&#45;&gt;Node7 -->
<g id="edge7_Node000004_Node000007" class="edge">
<title>Node4&#45;&gt;Node7</title>
<g id="a_edge7_Node000004_Node000007"><a xlink:title=" ">
<path fill="none" stroke="#63b8ff" d="M612.66,-66.09C685.78,-58.17 795.83,-45.25 891,-30 900.8,-28.43 911.31,-26.5 921.17,-24.57"/>
<polygon fill="#63b8ff" stroke="#63b8ff" points="612.16,-62.63 602.59,-67.18 612.91,-69.59 612.16,-62.63"/>
</a>
</g>
</g>
<!-- Node8 -->
<g id="Node000008" class="node">
<title>Node8</title>
<g id="a_Node000008"><a xlink:href="main_8cpp.html" target="_top" xlink:title=" ">
<polygon fill="white" stroke="#666666" points="593.5,-24.5 468.5,-24.5 468.5,-5.5 593.5,-5.5 593.5,-24.5"/>
<text text-anchor="middle" x="531" y="-12.5" font-family="Helvetica,sans-Serif" font-size="10.00">src/compiler/main.cpp</text>
</a>
</g>
</g>
<!-- Node4&#45;&gt;Node8 -->
<g id="edge8_Node000004_Node000008" class="edge">
<title>Node4&#45;&gt;Node8</title>
<g id="a_edge8_Node000004_Node000008"><a xlink:title=" ">
<path fill="none" stroke="#63b8ff" d="M531,-55.66C531,-45.24 531,-32.8 531,-24.67"/>
<polygon fill="#63b8ff" stroke="#63b8ff" points="527.5,-55.87 531,-65.87 534.5,-55.87 527.5,-55.87"/>
</a>
</g>
</g>
<!-- Node9 -->
<g id="Node000009" class="node">
<title>Node9</title>
<g id="a_Node000009"><a xlink:href="symbol_8cpp.html" target="_top" xlink:title=" ">
<polygon fill="white" stroke="#666666" points="748,-24.5 612,-24.5 612,-5.5 748,-5.5 748,-24.5"/>
<text text-anchor="middle" x="680" y="-12.5" font-family="Helvetica,sans-Serif" font-size="10.00">src/compiler/symbol.cpp</text>
</a>
</g>
</g>
<!-- Node4&#45;&gt;Node9 -->
<g id="edge9_Node000004_Node000009" class="edge">
<title>Node4&#45;&gt;Node9</title>
<g id="a_edge9_Node000004_Node000009"><a xlink:title=" ">
<path fill="none" stroke="#63b8ff" d="M562.25,-62.23C591.05,-50.92 633.03,-34.44 658.31,-24.52"/>
<polygon fill="#63b8ff" stroke="#63b8ff" points="560.7,-59.08 552.67,-65.99 563.25,-65.6 560.7,-59.08"/>
</a>
</g>
</g>
<!-- Node10 -->
<g id="Node000010" class="node">
<title>Node10</title>
<g id="a_Node000010"><a xlink:href="symbol__table_8cpp.html" target="_top" xlink:title=" ">
<polygon fill="white" stroke="#666666" points="882,-30 766,-30 766,0 882,0 882,-30"/>
<text text-anchor="start" x="774" y="-18" font-family="Helvetica,sans-Serif" font-size="10.00">src/compiler/symbol</text>
<text text-anchor="middle" x="824" y="-7" font-family="Helvetica,sans-Serif" font-size="10.00">_table.cpp</text>
</a>
</g>
</g>
<!-- Node4&#45;&gt;Node10 -->
<g id="edge10_Node000004_Node000010" class="edge">
<title>Node4&#45;&gt;Node10</title>
<g id="a_edge10_Node000004_Node000010"><a xlink:title=" ">
<path fill="none" stroke="#63b8ff" d="M585.21,-64.01C631.01,-55.1 698.34,-41.9 757,-30 759.91,-29.41 762.89,-28.8 765.9,-28.18"/>
<polygon fill="#63b8ff" stroke="#63b8ff" points="584.35,-60.61 575.2,-65.95 585.69,-67.48 584.35,-60.61"/>
</a>
</g>
</g>
</g>
</svg>
