<?xml version="1.0" encoding="UTF-8" standalone="no"?>
<!DOCTYPE svg PUBLIC "-//W3C//DTD SVG 1.1//EN"
 "http://www.w3.org/Graphics/SVG/1.1/DTD/svg11.dtd">
<!-- Generated by graphviz version 2.43.0 (0)
 -->
<!-- Title: src/vm/VirtualMachine.hpp Pages: 1 -->
<svg width="432pt" height="137pt"
 viewBox="0.00 0.00 431.50 137.00" xmlns="http://www.w3.org/2000/svg" xmlns:xlink="http://www.w3.org/1999/xlink">
<g id="graph0" class="graph" transform="scale(1 1) rotate(0) translate(4 133)">
<title>src/vm/VirtualMachine.hpp</title>
<!-- Node1 -->
<g id="Node000001" class="node">
<title>Node1</title>
<g id="a_Node000001"><a xlink:title=" ">
<polygon fill="#999999" stroke="#666666" points="252,-129 105,-129 105,-110 252,-110 252,-129"/>
<text text-anchor="middle" x="178.5" y="-117" font-family="Helvetica,sans-Serif" font-size="10.00">src/vm/VirtualMachine.hpp</text>
</a>
</g>
</g>
<!-- Node2 -->
<g id="Node000002" class="node">
<title>Node2</title>
<g id="a_Node000002"><a xlink:title=" ">
<polygon fill="#e0e0e0" stroke="#999999" points="53,-19 0,-19 0,0 53,0 53,-19"/>
<text text-anchor="middle" x="26.5" y="-7" font-family="Helvetica,sans-Serif" font-size="10.00">cstddef</text>
</a>
</g>
</g>
<!-- Node1&#45;&gt;Node2 -->
<g id="edge1_Node000001_Node000002" class="edge">
<title>Node1&#45;&gt;Node2</title>
<g id="a_edge1_Node000001_Node000002"><a xlink:title=" ">
<path fill="none" stroke="#63b8ff" d="M122.1,-109.97C97.44,-103.68 69.8,-92.79 50.5,-74 38.24,-62.06 32.17,-43.24 29.21,-29.18"/>
<polygon fill="#63b8ff" stroke="#63b8ff" points="32.62,-28.4 27.44,-19.15 25.73,-29.61 32.62,-28.4"/>
</a>
</g>
</g>
<!-- Node3 -->
<g id="Node000003" class="node">
<title>Node3</title>
<g id="a_Node000003"><a xlink:title=" ">
<polygon fill="#e0e0e0" stroke="#999999" points="146.5,-19 96.5,-19 96.5,0 146.5,0 146.5,-19"/>
<text text-anchor="middle" x="121.5" y="-7" font-family="Helvetica,sans-Serif" font-size="10.00">cstdint</text>
</a>
</g>
</g>
<!-- Node1&#45;&gt;Node3 -->
<g id="edge2_Node000001_Node000003" class="edge">
<title>Node1&#45;&gt;Node3</title>
<g id="a_edge2_Node000001_Node000003"><a xlink:title=" ">
<path fill="none" stroke="#63b8ff" d="M114.32,-109.98C92.64,-103.7 70.63,-92.82 57.5,-74 43.88,-54.48 69.02,-35.75 91.68,-23.75"/>
<polygon fill="#63b8ff" stroke="#63b8ff" points="93.41,-26.8 100.79,-19.19 90.28,-20.54 93.41,-26.8"/>
</a>
</g>
</g>
<!-- Node4 -->
<g id="Node000004" class="node">
<title>Node4</title>
<g id="a_Node000004"><a xlink:title=" ">
<polygon fill="#e0e0e0" stroke="#999999" points="345,-74 296,-74 296,-55 345,-55 345,-74"/>
<text text-anchor="middle" x="320.5" y="-62" font-family="Helvetica,sans-Serif" font-size="10.00">cstdlib</text>
</a>
</g>
</g>
<!-- Node1&#45;&gt;Node4 -->
<g id="edge3_Node000001_Node000004" class="edge">
<title>Node1&#45;&gt;Node4</title>
<g id="a_edge3_Node000001_Node000004"><a xlink:title=" ">
<path fill="none" stroke="#63b8ff" d="M201.31,-109.98C224.67,-101.27 261.2,-87.63 287.67,-77.75"/>
<polygon fill="#63b8ff" stroke="#63b8ff" points="289.13,-80.95 297.27,-74.17 286.68,-74.39 289.13,-80.95"/>
</a>
</g>
</g>
<!-- Node5 -->
<g id="Node000005" class="node">
<title>Node5</title>
<g id="a_Node000005"><a xlink:title=" ">
<polygon fill="#e0e0e0" stroke="#999999" points="423.5,-74 363.5,-74 363.5,-55 423.5,-55 423.5,-74"/>
<text text-anchor="middle" x="393.5" y="-62" font-family="Helvetica,sans-Serif" font-size="10.00">iostream</text>
</a>
</g>
</g>
<!-- Node1&#45;&gt;Node5 -->
<g id="edge4_Node000001_Node000005" class="edge">
<title>Node1&#45;&gt;Node5</title>
<g id="a_edge4_Node000001_Node000005"><a xlink:title=" ">
<path fill="none" stroke="#63b8ff" d="M213.04,-109.98C251.34,-100.54 313.04,-85.34 353.43,-75.38"/>
<polygon fill="#63b8ff" stroke="#63b8ff" points="354.34,-78.76 363.21,-72.97 352.67,-71.96 354.34,-78.76"/>
</a>
</g>
</g>
<!-- Node6 -->
<g id="Node000006" class="node">
<title>Node6</title>
<g id="a_Node000006"><a xlink:href="bytecode_8hpp.html" target="_top" xlink:title=" ">
<polygon fill="white" stroke="#666666" points="278,-74 195,-74 195,-55 278,-55 278,-74"/>
<text text-anchor="middle" x="236.5" y="-62" font-family="Helvetica,sans-Serif" font-size="10.00">bytecode.hpp</text>
</a>
</g>
</g>
<!-- Node1&#45;&gt;Node6 -->
<g id="edge5_Node000001_Node000006" class="edge">
<title>Node1&#45;&gt;Node6</title>
<g id="a_edge5_Node000001_Node000006"><a xlink:title=" ">
<path fill="none" stroke="#63b8ff" d="M187.82,-109.98C196.31,-102.23 209.06,-90.58 219.38,-81.14"/>
<polygon fill="#63b8ff" stroke="#63b8ff" points="221.99,-83.5 227.01,-74.17 217.27,-78.33 221.99,-83.5"/>
</a>
</g>
</g>
<!-- Node9 -->
<g id="Node000009" class="node">
<title>Node9</title>
<g id="a_Node000009"><a xlink:href="vmreg__defines_8hpp.html" target="_top" xlink:title=" ">
<polygon fill="white" stroke="#666666" points="176.5,-74 66.5,-74 66.5,-55 176.5,-55 176.5,-74"/>
<text text-anchor="middle" x="121.5" y="-62" font-family="Helvetica,sans-Serif" font-size="10.00">vmreg_defines.hpp</text>
</a>
</g>
</g>
<!-- Node1&#45;&gt;Node9 -->
<g id="edge10_Node000001_Node000009" class="edge">
<title>Node1&#45;&gt;Node9</title>
<g id="a_edge10_Node000001_Node000009"><a xlink:title=" ">
<path fill="none" stroke="#63b8ff" d="M169.34,-109.98C161,-102.23 148.47,-90.58 138.32,-81.14"/>
<polygon fill="#63b8ff" stroke="#63b8ff" points="140.53,-78.42 130.82,-74.17 135.76,-83.54 140.53,-78.42"/>
</a>
</g>
</g>
<!-- Node6&#45;&gt;Node2 -->
<g id="edge7_Node000006_Node000002" class="edge">
<title>Node6&#45;&gt;Node2</title>
<g id="a_edge7_Node000006_Node000002"><a xlink:title=" ">
<path fill="none" stroke="#63b8ff" d="M202.76,-54.98C164.47,-45.32 102.24,-29.62 62.89,-19.68"/>
<polygon fill="#63b8ff" stroke="#63b8ff" points="63.71,-16.28 53.16,-17.23 62,-23.07 63.71,-16.28"/>
</a>
</g>
</g>
<!-- Node6&#45;&gt;Node3 -->
<g id="edge6_Node000006_Node000003" class="edge">
<title>Node6&#45;&gt;Node3</title>
<g id="a_edge6_Node000006_Node000003"><a xlink:title=" ">
<path fill="none" stroke="#63b8ff" d="M218.02,-54.98C199.52,-46.46 170.82,-33.23 149.52,-23.41"/>
<polygon fill="#63b8ff" stroke="#63b8ff" points="150.86,-20.18 140.31,-19.17 147.93,-26.53 150.86,-20.18"/>
</a>
</g>
</g>
<!-- Node7 -->
<g id="Node000007" class="node">
<title>Node7</title>
<g id="a_Node000007"><a xlink:title=" ">
<polygon fill="#e0e0e0" stroke="#999999" points="233.5,-19 189.5,-19 189.5,0 233.5,0 233.5,-19"/>
<text text-anchor="middle" x="211.5" y="-7" font-family="Helvetica,sans-Serif" font-size="10.00">string</text>
</a>
</g>
</g>
<!-- Node6&#45;&gt;Node7 -->
<g id="edge8_Node000006_Node000007" class="edge">
<title>Node6&#45;&gt;Node7</title>
<g id="a_edge8_Node000006_Node000007"><a xlink:title=" ">
<path fill="none" stroke="#63b8ff" d="M232.37,-54.75C228.99,-47.57 224.08,-37.18 219.88,-28.27"/>
<polygon fill="#63b8ff" stroke="#63b8ff" points="222.98,-26.64 215.55,-19.09 216.65,-29.63 222.98,-26.64"/>
</a>
</g>
</g>
<!-- Node8 -->
<g id="Node000008" class="node">
<title>Node8</title>
<g id="a_Node000008"><a xlink:title=" ">
<polygon fill="#e0e0e0" stroke="#999999" points="299,-19 252,-19 252,0 299,0 299,-19"/>
<text text-anchor="middle" x="275.5" y="-7" font-family="Helvetica,sans-Serif" font-size="10.00">vector</text>
</a>
</g>
</g>
<!-- Node6&#45;&gt;Node8 -->
<g id="edge9_Node000006_Node000008" class="edge">
<title>Node6&#45;&gt;Node8</title>
<g id="a_edge9_Node000006_Node000008"><a xlink:title=" ">
<path fill="none" stroke="#63b8ff" d="M242.94,-54.75C248.39,-47.34 256.36,-36.5 263.06,-27.41"/>
<polygon fill="#63b8ff" stroke="#63b8ff" points="266.07,-29.22 269.18,-19.09 260.43,-25.07 266.07,-29.22"/>
</a>
</g>
</g>
<!-- Node9&#45;&gt;Node3 -->
<g id="edge11_Node000009_Node000003" class="edge">
<title>Node9&#45;&gt;Node3</title>
<g id="a_edge11_Node000009_Node000003"><a xlink:title=" ">
<path fill="none" stroke="#63b8ff" d="M121.5,-54.75C121.5,-47.8 121.5,-37.85 121.5,-29.13"/>
<polygon fill="#63b8ff" stroke="#63b8ff" points="125,-29.09 121.5,-19.09 118,-29.09 125,-29.09"/>
</a>
</g>
</g>
</g>
</svg>
