<?xml version="1.0" encoding="UTF-8" standalone="no"?>
<!DOCTYPE svg PUBLIC "-//W3C//DTD SVG 1.1//EN"
 "http://www.w3.org/Graphics/SVG/1.1/DTD/svg11.dtd">
<!-- Generated by graphviz version 2.43.0 (0)
 -->
<!-- Title: src/vm/main.cpp Pages: 1 -->
<svg width="834pt" height="203pt"
 viewBox="0.00 0.00 834.00 203.00" xmlns="http://www.w3.org/2000/svg" xmlns:xlink="http://www.w3.org/1999/xlink">
<g id="graph0" class="graph" transform="scale(1 1) rotate(0) translate(4 199)">
<title>src/vm/main.cpp</title>
<!-- Node1 -->
<g id="Node000001" class="node">
<title>Node1</title>
<g id="a_Node000001"><a xlink:title=" ">
<polygon fill="#999999" stroke="#666666" points="394,-195 296,-195 296,-176 394,-176 394,-195"/>
<text text-anchor="middle" x="345" y="-183" font-family="Helvetica,sans-Serif" font-size="10.00">src/vm/main.cpp</text>
</a>
</g>
</g>
<!-- Node2 -->
<g id="Node000002" class="node">
<title>Node2</title>
<g id="a_Node000002"><a xlink:href="bytecode_8hpp.html" target="_top" xlink:title=" ">
<polygon fill="white" stroke="#666666" points="130.5,-74 47.5,-74 47.5,-55 130.5,-55 130.5,-74"/>
<text text-anchor="middle" x="89" y="-62" font-family="Helvetica,sans-Serif" font-size="10.00">bytecode.hpp</text>
</a>
</g>
</g>
<!-- Node1&#45;&gt;Node2 -->
<g id="edge1_Node000001_Node000002" class="edge">
<title>Node1&#45;&gt;Node2</title>
<g id="a_edge1_Node000001_Node000002"><a xlink:title=" ">
<path fill="none" stroke="#63b8ff" d="M295.72,-182.97C252.84,-179.56 190.59,-169.39 145,-140 123.29,-126 106.87,-100.49 97.6,-83.26"/>
<polygon fill="#63b8ff" stroke="#63b8ff" points="100.65,-81.54 92.97,-74.23 94.41,-84.73 100.65,-81.54"/>
</a>
</g>
</g>
<!-- Node4 -->
<g id="Node000004" class="node">
<title>Node4</title>
<g id="a_Node000004"><a xlink:title=" ">
<polygon fill="#e0e0e0" stroke="#999999" points="185.5,-19 132.5,-19 132.5,0 185.5,0 185.5,-19"/>
<text text-anchor="middle" x="159" y="-7" font-family="Helvetica,sans-Serif" font-size="10.00">cstddef</text>
</a>
</g>
</g>
<!-- Node1&#45;&gt;Node4 -->
<g id="edge15_Node000001_Node000004" class="edge">
<title>Node1&#45;&gt;Node4</title>
<g id="a_edge15_Node000001_Node000004"><a xlink:title=" ">
<path fill="none" stroke="#63b8ff" d="M295.59,-177.43C252.18,-170.17 193.57,-157.47 178,-140 150.49,-109.14 152.49,-56.74 155.94,-29"/>
<polygon fill="#63b8ff" stroke="#63b8ff" points="159.41,-29.46 157.38,-19.06 152.49,-28.45 159.41,-29.46"/>
</a>
</g>
</g>
<!-- Node5 -->
<g id="Node000005" class="node">
<title>Node5</title>
<g id="a_Node000005"><a xlink:title=" ">
<polygon fill="#e0e0e0" stroke="#999999" points="44,-19 0,-19 0,0 44,0 44,-19"/>
<text text-anchor="middle" x="22" y="-7" font-family="Helvetica,sans-Serif" font-size="10.00">string</text>
</a>
</g>
</g>
<!-- Node1&#45;&gt;Node5 -->
<g id="edge19_Node000001_Node000005" class="edge">
<title>Node1&#45;&gt;Node5</title>
<g id="a_edge19_Node000001_Node000005"><a xlink:title=" ">
<path fill="none" stroke="#63b8ff" d="M295.95,-182.85C246.84,-179.48 170.24,-169.46 111,-140 71.84,-120.52 60.54,-111.49 38,-74 29.85,-60.43 25.83,-42.84 23.86,-29.62"/>
<polygon fill="#63b8ff" stroke="#63b8ff" points="27.29,-28.83 22.61,-19.33 20.34,-29.68 27.29,-28.83"/>
</a>
</g>
</g>
<!-- Node7 -->
<g id="Node000007" class="node">
<title>Node7</title>
<g id="a_Node000007"><a xlink:href="VirtualMachine_8hpp.html" target="_top" xlink:title=" ">
<polygon fill="white" stroke="#666666" points="317,-134.5 187,-134.5 187,-115.5 317,-115.5 317,-134.5"/>
<text text-anchor="middle" x="252" y="-122.5" font-family="Helvetica,sans-Serif" font-size="10.00">vm/VirtualMachine.hpp</text>
</a>
</g>
</g>
<!-- Node1&#45;&gt;Node7 -->
<g id="edge6_Node000001_Node000007" class="edge">
<title>Node1&#45;&gt;Node7</title>
<g id="a_edge6_Node000001_Node000007"><a xlink:title=" ">
<path fill="none" stroke="#63b8ff" d="M331.28,-175.87C316.3,-166.45 292.11,-151.23 274.38,-140.08"/>
<polygon fill="#63b8ff" stroke="#63b8ff" points="276.11,-137.03 265.78,-134.67 272.38,-142.95 276.11,-137.03"/>
</a>
</g>
</g>
<!-- Node9 -->
<g id="Node000009" class="node">
<title>Node9</title>
<g id="a_Node000009"><a xlink:title=" ">
<polygon fill="#e0e0e0" stroke="#999999" points="519,-74 459,-74 459,-55 519,-55 519,-74"/>
<text text-anchor="middle" x="489" y="-62" font-family="Helvetica,sans-Serif" font-size="10.00">iostream</text>
</a>
</g>
</g>
<!-- Node1&#45;&gt;Node9 -->
<g id="edge18_Node000001_Node000009" class="edge">
<title>Node1&#45;&gt;Node9</title>
<g id="a_edge18_Node000001_Node000009"><a xlink:title=" ">
<path fill="none" stroke="#63b8ff" d="M344.87,-175.93C345.1,-160.69 347.76,-128.72 365,-110 376.64,-97.36 417.33,-84.23 448.96,-75.54"/>
<polygon fill="#63b8ff" stroke="#63b8ff" points="450.11,-78.85 458.86,-72.88 448.29,-72.09 450.11,-78.85"/>
</a>
</g>
</g>
<!-- Node11 -->
<g id="Node000011" class="node">
<title>Node11</title>
<g id="a_Node000011"><a xlink:title=" ">
<polygon fill="#e0e0e0" stroke="#999999" points="502.5,-140 373.5,-140 373.5,-110 502.5,-110 502.5,-140"/>
<text text-anchor="start" x="381.5" y="-128" font-family="Helvetica,sans-Serif" font-size="10.00">boost/program_options</text>
<text text-anchor="middle" x="438" y="-117" font-family="Helvetica,sans-Serif" font-size="10.00">/value_semantic.hpp</text>
</a>
</g>
</g>
<!-- Node1&#45;&gt;Node11 -->
<g id="edge14_Node000001_Node000011" class="edge">
<title>Node1&#45;&gt;Node11</title>
<g id="a_edge14_Node000001_Node000011"><a xlink:title=" ">
<path fill="none" stroke="#63b8ff" d="M358.72,-175.87C371.34,-167.93 390.51,-155.87 406.84,-145.6"/>
<polygon fill="#63b8ff" stroke="#63b8ff" points="408.96,-148.4 415.56,-140.11 405.23,-142.48 408.96,-148.4"/>
</a>
</g>
</g>
<!-- Node12 -->
<g id="Node000012" class="node">
<title>Node12</title>
<g id="a_Node000012"><a xlink:title=" ">
<polygon fill="#e0e0e0" stroke="#999999" points="585.5,-134.5 520.5,-134.5 520.5,-115.5 585.5,-115.5 585.5,-134.5"/>
<text text-anchor="middle" x="553" y="-122.5" font-family="Helvetica,sans-Serif" font-size="10.00">exception</text>
</a>
</g>
</g>
<!-- Node1&#45;&gt;Node12 -->
<g id="edge16_Node000001_Node000012" class="edge">
<title>Node1&#45;&gt;Node12</title>
<g id="a_edge16_Node000001_Node000012"><a xlink:title=" ">
<path fill="none" stroke="#63b8ff" d="M379.74,-175.98C413.66,-167.49 466.64,-153.77 512,-140 514.31,-139.3 516.68,-138.55 519.07,-137.79"/>
<polygon fill="#63b8ff" stroke="#63b8ff" points="520.41,-141.03 528.81,-134.57 518.21,-134.38 520.41,-141.03"/>
</a>
</g>
</g>
<!-- Node13 -->
<g id="Node000013" class="node">
<title>Node13</title>
<g id="a_Node000013"><a xlink:title=" ">
<polygon fill="#e0e0e0" stroke="#999999" points="658.5,-134.5 603.5,-134.5 603.5,-115.5 658.5,-115.5 658.5,-134.5"/>
<text text-anchor="middle" x="631" y="-122.5" font-family="Helvetica,sans-Serif" font-size="10.00">fstream</text>
</a>
</g>
</g>
<!-- Node1&#45;&gt;Node13 -->
<g id="edge17_Node000001_Node000013" class="edge">
<title>Node1&#45;&gt;Node13</title>
<g id="a_edge17_Node000001_Node000013"><a xlink:title=" ">
<path fill="none" stroke="#63b8ff" d="M394.03,-178.65C444.89,-171.91 526.45,-159.23 595,-140 597.15,-139.4 599.35,-138.71 601.55,-137.98"/>
<polygon fill="#63b8ff" stroke="#63b8ff" points="602.83,-141.24 611.05,-134.55 600.46,-134.65 602.83,-141.24"/>
</a>
</g>
</g>
<!-- Node14 -->
<g id="Node000014" class="node">
<title>Node14</title>
<g id="a_Node000014"><a xlink:title=" ">
<polygon fill="#e0e0e0" stroke="#999999" points="826,-134.5 676,-134.5 676,-115.5 826,-115.5 826,-134.5"/>
<text text-anchor="middle" x="751" y="-122.5" font-family="Helvetica,sans-Serif" font-size="10.00">boost/program_options.hpp</text>
</a>
</g>
</g>
<!-- Node1&#45;&gt;Node14 -->
<g id="edge20_Node000001_Node000014" class="edge">
<title>Node1&#45;&gt;Node14</title>
<g id="a_edge20_Node000001_Node000014"><a xlink:title=" ">
<path fill="none" stroke="#63b8ff" d="M394.04,-178.21C457.4,-169.98 571.06,-154.85 668,-140 675.72,-138.82 683.83,-137.52 691.84,-136.2"/>
<polygon fill="#63b8ff" stroke="#63b8ff" points="692.59,-139.63 701.88,-134.54 691.45,-132.72 692.59,-139.63"/>
</a>
</g>
</g>
<!-- Node3 -->
<g id="Node000003" class="node">
<title>Node3</title>
<g id="a_Node000003"><a xlink:title=" ">
<polygon fill="#e0e0e0" stroke="#999999" points="260,-19 210,-19 210,0 260,0 260,-19"/>
<text text-anchor="middle" x="235" y="-7" font-family="Helvetica,sans-Serif" font-size="10.00">cstdint</text>
</a>
</g>
</g>
<!-- Node2&#45;&gt;Node3 -->
<g id="edge2_Node000002_Node000003" class="edge">
<title>Node2&#45;&gt;Node3</title>
<g id="a_edge2_Node000002_Node000003"><a xlink:title=" ">
<path fill="none" stroke="#63b8ff" d="M112.46,-54.98C136.58,-46.23 174.37,-32.51 201.6,-22.62"/>
<polygon fill="#63b8ff" stroke="#63b8ff" points="202.91,-25.87 211.12,-19.17 200.52,-19.29 202.91,-25.87"/>
</a>
</g>
</g>
<!-- Node2&#45;&gt;Node4 -->
<g id="edge3_Node000002_Node000004" class="edge">
<title>Node2&#45;&gt;Node4</title>
<g id="a_edge3_Node000002_Node000004"><a xlink:title=" ">
<path fill="none" stroke="#63b8ff" d="M100.25,-54.98C110.8,-47 126.8,-34.88 139.44,-25.31"/>
<polygon fill="#63b8ff" stroke="#63b8ff" points="141.69,-28 147.55,-19.17 137.46,-22.42 141.69,-28"/>
</a>
</g>
</g>
<!-- Node2&#45;&gt;Node5 -->
<g id="edge4_Node000002_Node000005" class="edge">
<title>Node2&#45;&gt;Node5</title>
<g id="a_edge4_Node000002_Node000005"><a xlink:title=" ">
<path fill="none" stroke="#63b8ff" d="M78.24,-54.98C68.23,-47.07 53.11,-35.11 41.07,-25.58"/>
<polygon fill="#63b8ff" stroke="#63b8ff" points="42.97,-22.63 32.96,-19.17 38.63,-28.12 42.97,-22.63"/>
</a>
</g>
</g>
<!-- Node6 -->
<g id="Node000006" class="node">
<title>Node6</title>
<g id="a_Node000006"><a xlink:title=" ">
<polygon fill="#e0e0e0" stroke="#999999" points="112.5,-19 65.5,-19 65.5,0 112.5,0 112.5,-19"/>
<text text-anchor="middle" x="89" y="-7" font-family="Helvetica,sans-Serif" font-size="10.00">vector</text>
</a>
</g>
</g>
<!-- Node2&#45;&gt;Node6 -->
<g id="edge5_Node000002_Node000006" class="edge">
<title>Node2&#45;&gt;Node6</title>
<g id="a_edge5_Node000002_Node000006"><a xlink:title=" ">
<path fill="none" stroke="#63b8ff" d="M89,-54.75C89,-47.8 89,-37.85 89,-29.13"/>
<polygon fill="#63b8ff" stroke="#63b8ff" points="92.5,-29.09 89,-19.09 85.5,-29.09 92.5,-29.09"/>
</a>
</g>
</g>
<!-- Node7&#45;&gt;Node2 -->
<g id="edge11_Node000007_Node000002" class="edge">
<title>Node7&#45;&gt;Node2</title>
<g id="a_edge11_Node000007_Node000002"><a xlink:title=" ">
<path fill="none" stroke="#63b8ff" d="M228.3,-115.49C200.41,-105.49 153.93,-88.8 122.4,-77.49"/>
<polygon fill="#63b8ff" stroke="#63b8ff" points="123.32,-74.1 112.73,-74.02 120.96,-80.69 123.32,-74.1"/>
</a>
</g>
</g>
<!-- Node7&#45;&gt;Node3 -->
<g id="edge8_Node000007_Node000003" class="edge">
<title>Node7&#45;&gt;Node3</title>
<g id="a_edge8_Node000007_Node000003"><a xlink:title=" ">
<path fill="none" stroke="#63b8ff" d="M250.72,-115.47C247.99,-97.23 241.53,-54.07 237.79,-29.14"/>
<polygon fill="#63b8ff" stroke="#63b8ff" points="241.24,-28.5 236.29,-19.13 234.31,-29.54 241.24,-28.5"/>
</a>
</g>
</g>
<!-- Node7&#45;&gt;Node4 -->
<g id="edge7_Node000007_Node000004" class="edge">
<title>Node7&#45;&gt;Node4</title>
<g id="a_edge7_Node000007_Node000004"><a xlink:title=" ">
<path fill="none" stroke="#63b8ff" d="M245.01,-115.47C229.66,-96.74 192.78,-51.72 172.65,-27.16"/>
<polygon fill="#63b8ff" stroke="#63b8ff" points="175.12,-24.65 166.07,-19.13 169.7,-29.08 175.12,-24.65"/>
</a>
</g>
</g>
<!-- Node8 -->
<g id="Node000008" class="node">
<title>Node8</title>
<g id="a_Node000008"><a xlink:title=" ">
<polygon fill="#e0e0e0" stroke="#999999" points="312.5,-74 263.5,-74 263.5,-55 312.5,-55 312.5,-74"/>
<text text-anchor="middle" x="288" y="-62" font-family="Helvetica,sans-Serif" font-size="10.00">cstdlib</text>
</a>
</g>
</g>
<!-- Node7&#45;&gt;Node8 -->
<g id="edge9_Node000007_Node000008" class="edge">
<title>Node7&#45;&gt;Node8</title>
<g id="a_edge9_Node000007_Node000008"><a xlink:title=" ">
<path fill="none" stroke="#63b8ff" d="M257.31,-115.37C262.58,-106.81 270.79,-93.47 277.39,-82.74"/>
<polygon fill="#63b8ff" stroke="#63b8ff" points="280.41,-84.52 282.67,-74.17 274.44,-80.85 280.41,-84.52"/>
</a>
</g>
</g>
<!-- Node7&#45;&gt;Node9 -->
<g id="edge10_Node000007_Node000009" class="edge">
<title>Node7&#45;&gt;Node9</title>
<g id="a_edge10_Node000007_Node000009"><a xlink:title=" ">
<path fill="none" stroke="#63b8ff" d="M286.46,-115.49C329.55,-104.86 403.18,-86.68 448.79,-75.42"/>
<polygon fill="#63b8ff" stroke="#63b8ff" points="449.76,-78.79 458.63,-73 448.09,-71.99 449.76,-78.79"/>
</a>
</g>
</g>
<!-- Node10 -->
<g id="Node000010" class="node">
<title>Node10</title>
<g id="a_Node000010"><a xlink:href="vmreg__defines_8hpp.html" target="_top" xlink:title=" ">
<polygon fill="white" stroke="#666666" points="441,-74 331,-74 331,-55 441,-55 441,-74"/>
<text text-anchor="middle" x="386" y="-62" font-family="Helvetica,sans-Serif" font-size="10.00">vmreg_defines.hpp</text>
</a>
</g>
</g>
<!-- Node7&#45;&gt;Node10 -->
<g id="edge12_Node000007_Node000010" class="edge">
<title>Node7&#45;&gt;Node10</title>
<g id="a_edge12_Node000007_Node000010"><a xlink:title=" ">
<path fill="none" stroke="#63b8ff" d="M271.48,-115.49C294.01,-105.66 331.31,-89.38 357.19,-78.08"/>
<polygon fill="#63b8ff" stroke="#63b8ff" points="358.73,-81.23 366.49,-74.02 355.93,-74.81 358.73,-81.23"/>
</a>
</g>
</g>
<!-- Node10&#45;&gt;Node3 -->
<g id="edge13_Node000010_Node000003" class="edge">
<title>Node10&#45;&gt;Node3</title>
<g id="a_edge13_Node000010_Node000003"><a xlink:title=" ">
<path fill="none" stroke="#63b8ff" d="M361.74,-54.98C336.68,-46.19 297.37,-32.39 269.17,-22.49"/>
<polygon fill="#63b8ff" stroke="#63b8ff" points="270.3,-19.18 259.7,-19.17 267.98,-25.78 270.3,-19.18"/>
</a>
</g>
</g>
</g>
</svg>
