<?xml version="1.0" encoding="UTF-8" standalone="no"?>
<!DOCTYPE svg PUBLIC "-//W3C//DTD SVG 1.1//EN"
 "http://www.w3.org/Graphics/SVG/1.1/DTD/svg11.dtd">
<!-- Generated by graphviz version 2.43.0 (0)
 -->
<!-- Title: main Pages: 1 -->
<svg width="234pt" height="150pt"
 viewBox="0.00 0.00 234.00 149.50" xmlns="http://www.w3.org/2000/svg" xmlns:xlink="http://www.w3.org/1999/xlink">
<g id="graph0" class="graph" transform="scale(1 1) rotate(0) translate(4 145.5)">
<title>main</title>
<!-- Node1 -->
<g id="Node000001" class="node">
<title>Node1</title>
<g id="a_Node000001"><a xlink:title=" ">
<polygon fill="#999999" stroke="#666666" points="41,-74 0,-74 0,-55 41,-55 41,-74"/>
<text text-anchor="middle" x="20.5" y="-62" font-family="Helvetica,sans-Serif" font-size="10.00">main</text>
</a>
</g>
</g>
<!-- Node2 -->
<g id="Node000002" class="node">
<title>Node2</title>
<g id="a_Node000002"><a xlink:href="classULang_1_1VirtualMachine.html#a8ca760f8172091926fc64b54122a63a2" target="_top" xlink:title=" ">
<polygon fill="white" stroke="#666666" points="215,-141.5 88,-141.5 88,-111.5 215,-111.5 215,-141.5"/>
<text text-anchor="start" x="96" y="-129.5" font-family="Helvetica,sans-Serif" font-size="10.00">ULang::VirtualMachine</text>
<text text-anchor="middle" x="151.5" y="-118.5" font-family="Helvetica,sans-Serif" font-size="10.00">::init</text>
</a>
</g>
</g>
<!-- Node1&#45;&gt;Node2 -->
<g id="edge1_Node000001_Node000002" class="edge">
<title>Node1&#45;&gt;Node2</title>
<g id="a_edge1_Node000001_Node000002"><a xlink:title=" ">
<path fill="none" stroke="#63b8ff" d="M33.23,-74C44.06,-82.41 60.87,-94.55 77,-102.5 80.72,-104.34 84.62,-106.08 88.6,-107.72"/>
<polygon fill="#63b8ff" stroke="#63b8ff" points="87.38,-111.01 97.97,-111.38 89.93,-104.49 87.38,-111.01"/>
</a>
</g>
</g>
<!-- Node3 -->
<g id="Node000003" class="node">
<title>Node3</title>
<g id="a_Node000003"><a xlink:href="vm_2main_8cpp.html#a3bca66dd76f96107fb042878f9f3c901" target="_top" xlink:title=" ">
<polygon fill="white" stroke="#666666" points="196.5,-93 106.5,-93 106.5,-74 196.5,-74 196.5,-93"/>
<text text-anchor="middle" x="151.5" y="-81" font-family="Helvetica,sans-Serif" font-size="10.00">readInstruction</text>
</a>
</g>
</g>
<!-- Node1&#45;&gt;Node3 -->
<g id="edge2_Node000001_Node000003" class="edge">
<title>Node1&#45;&gt;Node3</title>
<g id="a_edge2_Node000001_Node000003"><a xlink:title=" ">
<path fill="none" stroke="#63b8ff" d="M41.09,-67.39C55.8,-69.55 76.68,-72.63 96.27,-75.51"/>
<polygon fill="#63b8ff" stroke="#63b8ff" points="95.96,-79 106.36,-77 96.98,-72.08 95.96,-79"/>
</a>
</g>
</g>
<!-- Node4 -->
<g id="Node000004" class="node">
<title>Node4</title>
<g id="a_Node000004"><a xlink:href="classULang_1_1VirtualMachine.html#a661c60cd3c0048b4bb0b1e7c017de578" target="_top" xlink:title=" ">
<polygon fill="white" stroke="#666666" points="226,-56 77,-56 77,-37 226,-37 226,-56"/>
<text text-anchor="middle" x="151.5" y="-44" font-family="Helvetica,sans-Serif" font-size="10.00">ULang::VirtualMachine::run</text>
</a>
</g>
</g>
<!-- Node1&#45;&gt;Node4 -->
<g id="edge3_Node000001_Node000004" class="edge">
<title>Node1&#45;&gt;Node4</title>
<g id="a_edge3_Node000001_Node000004"><a xlink:title=" ">
<path fill="none" stroke="#63b8ff" d="M41.09,-61.77C49.76,-60.56 60.58,-59.05 72.01,-57.45"/>
<polygon fill="#63b8ff" stroke="#63b8ff" points="72.75,-60.88 82.17,-56.03 71.79,-53.95 72.75,-60.88"/>
</a>
</g>
</g>
<!-- Node5 -->
<g id="Node000005" class="node">
<title>Node5</title>
<g id="a_Node000005"><a xlink:href="namespaceULang.html#ad491776cf7acfb29eec3e69cec0d6bd8" target="_top" xlink:title="Validate the bytecode header.">
<polygon fill="white" stroke="#666666" points="215.5,-19 87.5,-19 87.5,0 215.5,0 215.5,-19"/>
<text text-anchor="middle" x="151.5" y="-7" font-family="Helvetica,sans-Serif" font-size="10.00">ULang::validateHeader</text>
</a>
</g>
</g>
<!-- Node1&#45;&gt;Node5 -->
<g id="edge4_Node000001_Node000005" class="edge">
<title>Node1&#45;&gt;Node5</title>
<g id="a_edge4_Node000001_Node000005"><a xlink:title=" ">
<path fill="none" stroke="#63b8ff" d="M33.62,-54.98C44.45,-46.9 61.02,-35.53 77,-28.5 82.49,-26.09 88.35,-23.93 94.27,-22.02"/>
<polygon fill="#63b8ff" stroke="#63b8ff" points="95.67,-25.25 104.25,-19.03 93.66,-18.55 95.67,-25.25"/>
</a>
</g>
</g>
</g>
</svg>
