<?xml version="1.0" encoding="UTF-8" standalone="no"?>
<!DOCTYPE svg PUBLIC "-//W3C//DTD SVG 1.1//EN"
 "http://www.w3.org/Graphics/SVG/1.1/DTD/svg11.dtd">
<!-- Generated by graphviz version 2.43.0 (0)
 -->
<!-- Title: src/vm/main.cpp Pages: 1 -->
<svg width="925pt" height="203pt"
 viewBox="0.00 0.00 925.22 203.00" xmlns="http://www.w3.org/2000/svg" xmlns:xlink="http://www.w3.org/1999/xlink">
<g id="graph0" class="graph" transform="scale(1 1) rotate(0) translate(4 199)">
<title>src/vm/main.cpp</title>
<!-- Node1 -->
<g id="Node000001" class="node">
<title>Node1</title>
<g id="a_Node000001"><a xlink:title=" ">
<polygon fill="#999999" stroke="#666666" points="438.22,-195 340.22,-195 340.22,-176 438.22,-176 438.22,-195"/>
<text text-anchor="middle" x="389.22" y="-183" font-family="Helvetica,sans-Serif" font-size="10.00">src/vm/main.cpp</text>
</a>
</g>
</g>
<!-- Node2 -->
<g id="Node000002" class="node">
<title>Node2</title>
<g id="a_Node000002"><a xlink:href="bytecode_8hpp.html" target="_top" xlink:title=" ">
<polygon fill="white" stroke="#666666" points="299.72,-74 216.72,-74 216.72,-55 299.72,-55 299.72,-74"/>
<text text-anchor="middle" x="258.22" y="-62" font-family="Helvetica,sans-Serif" font-size="10.00">bytecode.hpp</text>
</a>
</g>
</g>
<!-- Node1&#45;&gt;Node2 -->
<g id="edge1_Node000001_Node000002" class="edge">
<title>Node1&#45;&gt;Node2</title>
<g id="a_edge1_Node000001_Node000002"><a xlink:title=" ">
<path fill="none" stroke="#63b8ff" d="M339.94,-178.21C315.03,-172.42 286.5,-161.32 269.22,-140 256.64,-124.49 255.16,-100.96 256,-84.51"/>
<polygon fill="#63b8ff" stroke="#63b8ff" points="259.5,-84.69 256.86,-74.44 252.53,-84.1 259.5,-84.69"/>
</a>
</g>
</g>
<!-- Node4 -->
<g id="Node000004" class="node">
<title>Node4</title>
<g id="a_Node000004"><a xlink:title=" ">
<polygon fill="#e0e0e0" stroke="#999999" points="195.72,-19 142.72,-19 142.72,0 195.72,0 195.72,-19"/>
<text text-anchor="middle" x="169.22" y="-7" font-family="Helvetica,sans-Serif" font-size="10.00">cstddef</text>
</a>
</g>
</g>
<!-- Node1&#45;&gt;Node4 -->
<g id="edge20_Node000001_Node000004" class="edge">
<title>Node1&#45;&gt;Node4</title>
<g id="a_edge20_Node000001_Node000004"><a xlink:title=" ">
<path fill="none" stroke="#63b8ff" d="M346.56,-175.99C318.59,-169.14 282.01,-157.68 253.22,-140 217.87,-118.29 208.22,-109.78 187.22,-74 179.14,-60.24 174.52,-42.67 171.99,-29.5"/>
<polygon fill="#63b8ff" stroke="#63b8ff" points="175.38,-28.54 170.27,-19.26 168.48,-29.71 175.38,-28.54"/>
</a>
</g>
</g>
<!-- Node5 -->
<g id="Node000005" class="node">
<title>Node5</title>
<g id="a_Node000005"><a xlink:title=" ">
<polygon fill="#e0e0e0" stroke="#999999" points="89.22,-19 45.22,-19 45.22,0 89.22,0 89.22,-19"/>
<text text-anchor="middle" x="67.22" y="-7" font-family="Helvetica,sans-Serif" font-size="10.00">string</text>
</a>
</g>
</g>
<!-- Node1&#45;&gt;Node5 -->
<g id="edge24_Node000001_Node000005" class="edge">
<title>Node1&#45;&gt;Node5</title>
<g id="a_edge24_Node000001_Node000005"><a xlink:title=" ">
<path fill="none" stroke="#63b8ff" d="M339.95,-183.91C280.21,-181.66 177.43,-172.81 96.22,-140 49.22,-121.01 26.48,-119.03 3.22,-74 -7.47,-53.31 15.87,-35.23 37.3,-23.71"/>
<polygon fill="#63b8ff" stroke="#63b8ff" points="38.92,-26.81 46.27,-19.18 35.76,-20.56 38.92,-26.81"/>
</a>
</g>
</g>
<!-- Node7 -->
<g id="Node000007" class="node">
<title>Node7</title>
<g id="a_Node000007"><a xlink:href="VirtualMachine_8hpp.html" target="_top" xlink:title=" ">
<polygon fill="white" stroke="#666666" points="408.22,-134.5 278.22,-134.5 278.22,-115.5 408.22,-115.5 408.22,-134.5"/>
<text text-anchor="middle" x="343.22" y="-122.5" font-family="Helvetica,sans-Serif" font-size="10.00">vm/VirtualMachine.hpp</text>
</a>
</g>
</g>
<!-- Node1&#45;&gt;Node7 -->
<g id="edge6_Node000001_Node000007" class="edge">
<title>Node1&#45;&gt;Node7</title>
<g id="a_edge6_Node000001_Node000007"><a xlink:title=" ">
<path fill="none" stroke="#63b8ff" d="M382.43,-175.87C375.57,-167.14 364.79,-153.43 356.26,-142.59"/>
<polygon fill="#63b8ff" stroke="#63b8ff" points="358.96,-140.36 350.03,-134.67 353.46,-144.69 358.96,-140.36"/>
</a>
</g>
</g>
<!-- Node10 -->
<g id="Node000010" class="node">
<title>Node10</title>
<g id="a_Node000010"><a xlink:title=" ">
<polygon fill="#e0e0e0" stroke="#999999" points="680.22,-74 620.22,-74 620.22,-55 680.22,-55 680.22,-74"/>
<text text-anchor="middle" x="650.22" y="-62" font-family="Helvetica,sans-Serif" font-size="10.00">iostream</text>
</a>
</g>
</g>
<!-- Node1&#45;&gt;Node10 -->
<g id="edge23_Node000001_Node000010" class="edge">
<title>Node1&#45;&gt;Node10</title>
<g id="a_edge23_Node000001_Node000010"><a xlink:title=" ">
<path fill="none" stroke="#63b8ff" d="M394.33,-175.79C404.06,-160.02 426.83,-126.83 455.22,-110 458.58,-108 553.91,-86.75 610.01,-74.35"/>
<polygon fill="#63b8ff" stroke="#63b8ff" points="610.99,-77.72 620,-72.15 609.48,-70.89 610.99,-77.72"/>
</a>
</g>
</g>
<!-- Node11 -->
<g id="Node000011" class="node">
<title>Node11</title>
<g id="a_Node000011"><a xlink:href="vmparams_8hpp.html" target="_top" xlink:title=" ">
<polygon fill="white" stroke="#666666" points="121.72,-74 12.72,-74 12.72,-55 121.72,-55 121.72,-74"/>
<text text-anchor="middle" x="67.22" y="-62" font-family="Helvetica,sans-Serif" font-size="10.00">vm/vmparams.hpp</text>
</a>
</g>
</g>
<!-- Node1&#45;&gt;Node11 -->
<g id="edge18_Node000001_Node000011" class="edge">
<title>Node1&#45;&gt;Node11</title>
<g id="a_edge18_Node000001_Node000011"><a xlink:title=" ">
<path fill="none" stroke="#63b8ff" d="M340.05,-184.96C286.73,-183.47 200.64,-175.1 136.22,-140 111.14,-126.34 90.17,-100.13 78.15,-82.73"/>
<polygon fill="#63b8ff" stroke="#63b8ff" points="80.87,-80.5 72.42,-74.1 75.04,-84.37 80.87,-80.5"/>
</a>
</g>
</g>
<!-- Node13 -->
<g id="Node000013" class="node">
<title>Node13</title>
<g id="a_Node000013"><a xlink:title=" ">
<polygon fill="#e0e0e0" stroke="#999999" points="593.72,-140 464.72,-140 464.72,-110 593.72,-110 593.72,-140"/>
<text text-anchor="start" x="472.72" y="-128" font-family="Helvetica,sans-Serif" font-size="10.00">boost/program_options</text>
<text text-anchor="middle" x="529.22" y="-117" font-family="Helvetica,sans-Serif" font-size="10.00">/value_semantic.hpp</text>
</a>
</g>
</g>
<!-- Node1&#45;&gt;Node13 -->
<g id="edge19_Node000001_Node000013" class="edge">
<title>Node1&#45;&gt;Node13</title>
<g id="a_edge19_Node000001_Node000013"><a xlink:title=" ">
<path fill="none" stroke="#63b8ff" d="M409.57,-175.99C429.55,-167.65 460.63,-154.66 486.1,-144.02"/>
<polygon fill="#63b8ff" stroke="#63b8ff" points="487.68,-147.15 495.56,-140.06 484.98,-140.69 487.68,-147.15"/>
</a>
</g>
</g>
<!-- Node14 -->
<g id="Node000014" class="node">
<title>Node14</title>
<g id="a_Node000014"><a xlink:title=" ">
<polygon fill="#e0e0e0" stroke="#999999" points="676.72,-134.5 611.72,-134.5 611.72,-115.5 676.72,-115.5 676.72,-134.5"/>
<text text-anchor="middle" x="644.22" y="-122.5" font-family="Helvetica,sans-Serif" font-size="10.00">exception</text>
</a>
</g>
</g>
<!-- Node1&#45;&gt;Node14 -->
<g id="edge21_Node000001_Node000014" class="edge">
<title>Node1&#45;&gt;Node14</title>
<g id="a_edge21_Node000001_Node000014"><a xlink:title=" ">
<path fill="none" stroke="#63b8ff" d="M438.5,-176.05C482.14,-168.14 547.4,-155.27 603.22,-140 605.85,-139.28 608.55,-138.48 611.26,-137.65"/>
<polygon fill="#63b8ff" stroke="#63b8ff" points="612.52,-140.92 620.96,-134.5 610.36,-134.26 612.52,-140.92"/>
</a>
</g>
</g>
<!-- Node15 -->
<g id="Node000015" class="node">
<title>Node15</title>
<g id="a_Node000015"><a xlink:title=" ">
<polygon fill="#e0e0e0" stroke="#999999" points="749.72,-134.5 694.72,-134.5 694.72,-115.5 749.72,-115.5 749.72,-134.5"/>
<text text-anchor="middle" x="722.22" y="-122.5" font-family="Helvetica,sans-Serif" font-size="10.00">fstream</text>
</a>
</g>
</g>
<!-- Node1&#45;&gt;Node15 -->
<g id="edge22_Node000001_Node000015" class="edge">
<title>Node1&#45;&gt;Node15</title>
<g id="a_edge22_Node000001_Node000015"><a xlink:title=" ">
<path fill="none" stroke="#63b8ff" d="M438.25,-180.52C497.69,-174.92 600.56,-162.77 686.22,-140 688.51,-139.39 690.86,-138.68 693.21,-137.91"/>
<polygon fill="#63b8ff" stroke="#63b8ff" points="694.45,-141.18 702.67,-134.51 692.08,-134.6 694.45,-141.18"/>
</a>
</g>
</g>
<!-- Node16 -->
<g id="Node000016" class="node">
<title>Node16</title>
<g id="a_Node000016"><a xlink:title=" ">
<polygon fill="#e0e0e0" stroke="#999999" points="917.22,-134.5 767.22,-134.5 767.22,-115.5 917.22,-115.5 917.22,-134.5"/>
<text text-anchor="middle" x="842.22" y="-122.5" font-family="Helvetica,sans-Serif" font-size="10.00">boost/program_options.hpp</text>
</a>
</g>
</g>
<!-- Node1&#45;&gt;Node16 -->
<g id="edge25_Node000001_Node000016" class="edge">
<title>Node1&#45;&gt;Node16</title>
<g id="a_edge25_Node000001_Node000016"><a xlink:title=" ">
<path fill="none" stroke="#63b8ff" d="M438.39,-179.34C509.37,-171.71 644.59,-156.55 759.22,-140 767.24,-138.84 775.68,-137.53 783.98,-136.18"/>
<polygon fill="#63b8ff" stroke="#63b8ff" points="784.7,-139.61 794,-134.53 783.56,-132.7 784.7,-139.61"/>
</a>
</g>
</g>
<!-- Node3 -->
<g id="Node000003" class="node">
<title>Node3</title>
<g id="a_Node000003"><a xlink:title=" ">
<polygon fill="#e0e0e0" stroke="#999999" points="489.22,-19 439.22,-19 439.22,0 489.22,0 489.22,-19"/>
<text text-anchor="middle" x="464.22" y="-7" font-family="Helvetica,sans-Serif" font-size="10.00">cstdint</text>
</a>
</g>
</g>
<!-- Node2&#45;&gt;Node3 -->
<g id="edge2_Node000002_Node000003" class="edge">
<title>Node2&#45;&gt;Node3</title>
<g id="a_edge2_Node000002_Node000003"><a xlink:title=" ">
<path fill="none" stroke="#63b8ff" d="M291.31,-54.98C329.11,-45.26 390.68,-29.42 429.24,-19.5"/>
<polygon fill="#63b8ff" stroke="#63b8ff" points="430.18,-22.87 438.99,-16.99 428.44,-16.09 430.18,-22.87"/>
</a>
</g>
</g>
<!-- Node2&#45;&gt;Node4 -->
<g id="edge3_Node000002_Node000004" class="edge">
<title>Node2&#45;&gt;Node4</title>
<g id="a_edge3_Node000002_Node000004"><a xlink:title=" ">
<path fill="none" stroke="#63b8ff" d="M243.92,-54.98C230.12,-46.77 208.98,-34.18 192.7,-24.49"/>
<polygon fill="#63b8ff" stroke="#63b8ff" points="194.16,-21.28 183.78,-19.17 190.58,-27.29 194.16,-21.28"/>
</a>
</g>
</g>
<!-- Node2&#45;&gt;Node5 -->
<g id="edge4_Node000002_Node000005" class="edge">
<title>Node2&#45;&gt;Node5</title>
<g id="a_edge4_Node000002_Node000005"><a xlink:title=" ">
<path fill="none" stroke="#63b8ff" d="M227.53,-54.98C192.4,-45.24 135.12,-29.34 99.38,-19.43"/>
<polygon fill="#63b8ff" stroke="#63b8ff" points="100.05,-15.98 89.47,-16.68 98.17,-22.72 100.05,-15.98"/>
</a>
</g>
</g>
<!-- Node6 -->
<g id="Node000006" class="node">
<title>Node6</title>
<g id="a_Node000006"><a xlink:title=" ">
<polygon fill="#e0e0e0" stroke="#999999" points="281.72,-19 234.72,-19 234.72,0 281.72,0 281.72,-19"/>
<text text-anchor="middle" x="258.22" y="-7" font-family="Helvetica,sans-Serif" font-size="10.00">vector</text>
</a>
</g>
</g>
<!-- Node2&#45;&gt;Node6 -->
<g id="edge5_Node000002_Node000006" class="edge">
<title>Node2&#45;&gt;Node6</title>
<g id="a_edge5_Node000002_Node000006"><a xlink:title=" ">
<path fill="none" stroke="#63b8ff" d="M258.22,-54.75C258.22,-47.8 258.22,-37.85 258.22,-29.13"/>
<polygon fill="#63b8ff" stroke="#63b8ff" points="261.72,-29.09 258.22,-19.09 254.72,-29.09 261.72,-29.09"/>
</a>
</g>
</g>
<!-- Node7&#45;&gt;Node2 -->
<g id="edge12_Node000007_Node000002" class="edge">
<title>Node7&#45;&gt;Node2</title>
<g id="a_edge12_Node000007_Node000002"><a xlink:title=" ">
<path fill="none" stroke="#63b8ff" d="M330.67,-115.37C317.11,-106.04 295.28,-91.01 279.12,-79.88"/>
<polygon fill="#63b8ff" stroke="#63b8ff" points="281.03,-76.95 270.81,-74.17 277.06,-82.72 281.03,-76.95"/>
</a>
</g>
</g>
<!-- Node7&#45;&gt;Node3 -->
<g id="edge9_Node000007_Node000003" class="edge">
<title>Node7&#45;&gt;Node3</title>
<g id="a_edge9_Node000007_Node000003"><a xlink:title=" ">
<path fill="none" stroke="#63b8ff" d="M375.19,-115.48C397.46,-107.99 426.27,-94.96 444.22,-74 454.91,-61.52 459.89,-43.31 462.21,-29.59"/>
<polygon fill="#63b8ff" stroke="#63b8ff" points="465.72,-29.72 463.6,-19.34 458.79,-28.78 465.72,-29.72"/>
</a>
</g>
</g>
<!-- Node7&#45;&gt;Node4 -->
<g id="edge8_Node000007_Node000004" class="edge">
<title>Node7&#45;&gt;Node4</title>
<g id="a_edge8_Node000007_Node000004"><a xlink:title=" ">
<path fill="none" stroke="#63b8ff" d="M298,-115.49C269.49,-108.29 233.27,-95.59 207.22,-74 192.71,-61.98 182.36,-42.9 176.15,-28.79"/>
<polygon fill="#63b8ff" stroke="#63b8ff" points="179.25,-27.1 172.22,-19.16 172.77,-29.75 179.25,-27.1"/>
</a>
</g>
</g>
<!-- Node8 -->
<g id="Node000008" class="node">
<title>Node8</title>
<g id="a_Node000008"><a xlink:title=" ">
<polygon fill="#e0e0e0" stroke="#999999" points="368.22,-74 318.22,-74 318.22,-55 368.22,-55 368.22,-74"/>
<text text-anchor="middle" x="343.22" y="-62" font-family="Helvetica,sans-Serif" font-size="10.00">chrono</text>
</a>
</g>
</g>
<!-- Node7&#45;&gt;Node8 -->
<g id="edge7_Node000007_Node000008" class="edge">
<title>Node7&#45;&gt;Node8</title>
<g id="a_edge7_Node000007_Node000008"><a xlink:title=" ">
<path fill="none" stroke="#63b8ff" d="M343.22,-115.37C343.22,-107.25 343.22,-94.81 343.22,-84.39"/>
<polygon fill="#63b8ff" stroke="#63b8ff" points="346.72,-84.17 343.22,-74.17 339.72,-84.17 346.72,-84.17"/>
</a>
</g>
</g>
<!-- Node9 -->
<g id="Node000009" class="node">
<title>Node9</title>
<g id="a_Node000009"><a xlink:title=" ">
<polygon fill="#e0e0e0" stroke="#999999" points="435.72,-74 386.72,-74 386.72,-55 435.72,-55 435.72,-74"/>
<text text-anchor="middle" x="411.22" y="-62" font-family="Helvetica,sans-Serif" font-size="10.00">cstdlib</text>
</a>
</g>
</g>
<!-- Node7&#45;&gt;Node9 -->
<g id="edge10_Node000007_Node000009" class="edge">
<title>Node7&#45;&gt;Node9</title>
<g id="a_edge10_Node000007_Node000009"><a xlink:title=" ">
<path fill="none" stroke="#63b8ff" d="M353.25,-115.37C363.8,-106.3 380.6,-91.84 393.41,-80.82"/>
<polygon fill="#63b8ff" stroke="#63b8ff" points="395.84,-83.34 401.14,-74.17 391.28,-78.04 395.84,-83.34"/>
</a>
</g>
</g>
<!-- Node7&#45;&gt;Node10 -->
<g id="edge11_Node000007_Node000010" class="edge">
<title>Node7&#45;&gt;Node10</title>
<g id="a_edge11_Node000007_Node000010"><a xlink:title=" ">
<path fill="none" stroke="#63b8ff" d="M391.23,-115.49C442.83,-106.25 527.5,-90.79 609.96,-74.21"/>
<polygon fill="#63b8ff" stroke="#63b8ff" points="610.89,-77.59 620,-72.18 609.51,-70.73 610.89,-77.59"/>
</a>
</g>
</g>
<!-- Node7&#45;&gt;Node11 -->
<g id="edge13_Node000007_Node000011" class="edge">
<title>Node7&#45;&gt;Node11</title>
<g id="a_edge13_Node000007_Node000011"><a xlink:title=" ">
<path fill="none" stroke="#63b8ff" d="M303.08,-115.49C253.92,-105.07 170.63,-87.42 117.31,-76.12"/>
<polygon fill="#63b8ff" stroke="#63b8ff" points="117.91,-72.67 107.4,-74.02 116.45,-79.51 117.91,-72.67"/>
</a>
</g>
</g>
<!-- Node12 -->
<g id="Node000012" class="node">
<title>Node12</title>
<g id="a_Node000012"><a xlink:href="vmreg__defines_8hpp.html" target="_top" xlink:title=" ">
<polygon fill="white" stroke="#666666" points="602.22,-74 492.22,-74 492.22,-55 602.22,-55 602.22,-74"/>
<text text-anchor="middle" x="547.22" y="-62" font-family="Helvetica,sans-Serif" font-size="10.00">vmreg_defines.hpp</text>
</a>
</g>
</g>
<!-- Node7&#45;&gt;Node12 -->
<g id="edge16_Node000007_Node000012" class="edge">
<title>Node7&#45;&gt;Node12</title>
<g id="a_edge16_Node000007_Node000012"><a xlink:title=" ">
<path fill="none" stroke="#63b8ff" d="M372.88,-115.49C408.46,-105.29 468.23,-88.15 507.7,-76.83"/>
<polygon fill="#63b8ff" stroke="#63b8ff" points="508.87,-80.14 517.52,-74.02 506.94,-73.41 508.87,-80.14"/>
</a>
</g>
</g>
<!-- Node11&#45;&gt;Node4 -->
<g id="edge14_Node000011_Node000004" class="edge">
<title>Node11&#45;&gt;Node4</title>
<g id="a_edge14_Node000011_Node000004"><a xlink:title=" ">
<path fill="none" stroke="#63b8ff" d="M83.6,-54.98C99.79,-46.57 124.79,-33.59 143.6,-23.81"/>
<polygon fill="#63b8ff" stroke="#63b8ff" points="145.27,-26.89 152.53,-19.17 142.04,-20.68 145.27,-26.89"/>
</a>
</g>
</g>
<!-- Node11&#45;&gt;Node5 -->
<g id="edge15_Node000011_Node000005" class="edge">
<title>Node11&#45;&gt;Node5</title>
<g id="a_edge15_Node000011_Node000005"><a xlink:title=" ">
<path fill="none" stroke="#63b8ff" d="M67.22,-54.75C67.22,-47.8 67.22,-37.85 67.22,-29.13"/>
<polygon fill="#63b8ff" stroke="#63b8ff" points="70.72,-29.09 67.22,-19.09 63.72,-29.09 70.72,-29.09"/>
</a>
</g>
</g>
<!-- Node12&#45;&gt;Node3 -->
<g id="edge17_Node000012_Node000003" class="edge">
<title>Node12&#45;&gt;Node3</title>
<g id="a_edge17_Node000012_Node000003"><a xlink:title=" ">
<path fill="none" stroke="#63b8ff" d="M533.88,-54.98C521.13,-46.84 501.66,-34.41 486.55,-24.76"/>
<polygon fill="#63b8ff" stroke="#63b8ff" points="488.11,-21.6 477.79,-19.17 484.34,-27.5 488.11,-21.6"/>
</a>
</g>
</g>
</g>
</svg>
