<?xml version="1.0" encoding="UTF-8" standalone="no"?>
<!DOCTYPE svg PUBLIC "-//W3C//DTD SVG 1.1//EN"
 "http://www.w3.org/Graphics/SVG/1.1/DTD/svg11.dtd">
<!-- Generated by graphviz version 2.43.0 (0)
 -->
<!-- Title: main Pages: 1 -->
<svg width="213pt" height="113pt"
 viewBox="0.00 0.00 213.00 112.50" xmlns="http://www.w3.org/2000/svg" xmlns:xlink="http://www.w3.org/1999/xlink">
<g id="graph0" class="graph" transform="scale(1 1) rotate(0) translate(4 108.5)">
<title>main</title>
<!-- Node1 -->
<g id="Node000001" class="node">
<title>Node1</title>
<g id="a_Node000001"><a xlink:title=" ">
<polygon fill="#999999" stroke="#666666" points="41,-56 0,-56 0,-37 41,-37 41,-56"/>
<text text-anchor="middle" x="20.5" y="-44" font-family="Helvetica,sans-Serif" font-size="10.00">main</text>
</a>
</g>
</g>
<!-- Node2 -->
<g id="Node000002" class="node">
<title>Node2</title>
<g id="a_Node000002"><a xlink:href="classULang_1_1VirtualMachine.html#a8ca760f8172091926fc64b54122a63a2" target="_top" xlink:title=" ">
<polygon fill="white" stroke="#666666" points="204.5,-104.5 77.5,-104.5 77.5,-74.5 204.5,-74.5 204.5,-104.5"/>
<text text-anchor="start" x="85.5" y="-92.5" font-family="Helvetica,sans-Serif" font-size="10.00">ULang::VirtualMachine</text>
<text text-anchor="middle" x="141" y="-81.5" font-family="Helvetica,sans-Serif" font-size="10.00">::init</text>
</a>
</g>
</g>
<!-- Node1&#45;&gt;Node2 -->
<g id="edge1_Node000001_Node000002" class="edge">
<title>Node1&#45;&gt;Node2</title>
<g id="a_edge1_Node000001_Node000002"><a xlink:title=" ">
<path fill="none" stroke="#63b8ff" d="M41.07,-53.6C54.04,-58.31 71.7,-64.72 88.51,-70.82"/>
<polygon fill="#63b8ff" stroke="#63b8ff" points="87.68,-74.24 98.27,-74.36 90.07,-67.66 87.68,-74.24"/>
</a>
</g>
</g>
<!-- Node3 -->
<g id="Node000003" class="node">
<title>Node3</title>
<g id="a_Node000003"><a xlink:href="vm_2main_8cpp.html#a3bca66dd76f96107fb042878f9f3c901" target="_top" xlink:title=" ">
<polygon fill="white" stroke="#666666" points="186,-56 96,-56 96,-37 186,-37 186,-56"/>
<text text-anchor="middle" x="141" y="-44" font-family="Helvetica,sans-Serif" font-size="10.00">readInstruction</text>
</a>
</g>
</g>
<!-- Node1&#45;&gt;Node3 -->
<g id="edge2_Node000001_Node000003" class="edge">
<title>Node1&#45;&gt;Node3</title>
<g id="a_edge2_Node000001_Node000003"><a xlink:title=" ">
<path fill="none" stroke="#63b8ff" d="M41.07,-46.5C53.25,-46.5 69.59,-46.5 85.47,-46.5"/>
<polygon fill="#63b8ff" stroke="#63b8ff" points="85.79,-50 95.79,-46.5 85.79,-43 85.79,-50"/>
</a>
</g>
</g>
<!-- Node4 -->
<g id="Node000004" class="node">
<title>Node4</title>
<g id="a_Node000004"><a xlink:href="namespaceULang.html#ad491776cf7acfb29eec3e69cec0d6bd8" target="_top" xlink:title="Validate the bytecode header.">
<polygon fill="white" stroke="#666666" points="205,-19 77,-19 77,0 205,0 205,-19"/>
<text text-anchor="middle" x="141" y="-7" font-family="Helvetica,sans-Serif" font-size="10.00">ULang::validateHeader</text>
</a>
</g>
</g>
<!-- Node1&#45;&gt;Node4 -->
<g id="edge3_Node000001_Node000004" class="edge">
<title>Node1&#45;&gt;Node4</title>
<g id="a_edge3_Node000001_Node000004"><a xlink:title=" ">
<path fill="none" stroke="#63b8ff" d="M41.25,-39.99C51.83,-36.52 65.11,-32.22 77,-28.5 83.74,-26.39 90.9,-24.19 97.88,-22.07"/>
<polygon fill="#63b8ff" stroke="#63b8ff" points="99.35,-25.28 107.91,-19.04 97.33,-18.58 99.35,-25.28"/>
</a>
</g>
</g>
</g>
</svg>
