<?xml version="1.0" encoding="UTF-8" standalone="no"?>
<!DOCTYPE svg PUBLIC "-//W3C//DTD SVG 1.1//EN"
 "http://www.w3.org/Graphics/SVG/1.1/DTD/svg11.dtd">
<!-- Generated by graphviz version 2.43.0 (0)
 -->
<!-- Title: src/vm/vm.cpp Pages: 1 -->
<svg width="758pt" height="192pt"
 viewBox="0.00 0.00 758.00 192.00" xmlns="http://www.w3.org/2000/svg" xmlns:xlink="http://www.w3.org/1999/xlink">
<g id="graph0" class="graph" transform="scale(1 1) rotate(0) translate(4 188)">
<title>src/vm/vm.cpp</title>
<!-- Node1 -->
<g id="Node000001" class="node">
<title>Node1</title>
<g id="a_Node000001"><a xlink:title=" ">
<polygon fill="#999999" stroke="#666666" points="540,-184 451,-184 451,-165 540,-165 540,-184"/>
<text text-anchor="middle" x="495.5" y="-172" font-family="Helvetica,sans-Serif" font-size="10.00">src/vm/vm.cpp</text>
</a>
</g>
</g>
<!-- Node2 -->
<g id="Node000002" class="node">
<title>Node2</title>
<g id="a_Node000002"><a xlink:href="VirtualMachine_8hpp.html" target="_top" xlink:title=" ">
<polygon fill="white" stroke="#666666" points="348,-129 237,-129 237,-110 348,-110 348,-129"/>
<text text-anchor="middle" x="292.5" y="-117" font-family="Helvetica,sans-Serif" font-size="10.00">VirtualMachine.hpp</text>
</a>
</g>
</g>
<!-- Node1&#45;&gt;Node2 -->
<g id="edge1_Node000001_Node000002" class="edge">
<title>Node1&#45;&gt;Node2</title>
<g id="a_edge1_Node000001_Node000002"><a xlink:title=" ">
<path fill="none" stroke="#63b8ff" d="M462.88,-164.98C428.21,-155.93 373.24,-141.58 335.15,-131.64"/>
<polygon fill="#63b8ff" stroke="#63b8ff" points="335.93,-128.22 325.37,-129.08 334.16,-134.99 335.93,-128.22"/>
</a>
</g>
</g>
<!-- Node4 -->
<g id="Node000004" class="node">
<title>Node4</title>
<g id="a_Node000004"><a xlink:title=" ">
<polygon fill="#e0e0e0" stroke="#999999" points="275.5,-19 225.5,-19 225.5,0 275.5,0 275.5,-19"/>
<text text-anchor="middle" x="250.5" y="-7" font-family="Helvetica,sans-Serif" font-size="10.00">cstdint</text>
</a>
</g>
</g>
<!-- Node1&#45;&gt;Node4 -->
<g id="edge14_Node000001_Node000004" class="edge">
<title>Node1&#45;&gt;Node4</title>
<g id="a_edge14_Node000001_Node000004"><a xlink:title=" ">
<path fill="none" stroke="#63b8ff" d="M495.48,-164.81C494.95,-142.84 490.32,-84.74 457.5,-55 432.65,-32.49 338.1,-19.46 285.8,-13.84"/>
<polygon fill="#63b8ff" stroke="#63b8ff" points="285.94,-10.33 275.63,-12.78 285.22,-17.29 285.94,-10.33"/>
</a>
</g>
</g>
<!-- Node6 -->
<g id="Node000006" class="node">
<title>Node6</title>
<g id="a_Node000006"><a xlink:title=" ">
<polygon fill="#e0e0e0" stroke="#999999" points="448.5,-74 388.5,-74 388.5,-55 448.5,-55 448.5,-74"/>
<text text-anchor="middle" x="418.5" y="-62" font-family="Helvetica,sans-Serif" font-size="10.00">iostream</text>
</a>
</g>
</g>
<!-- Node1&#45;&gt;Node6 -->
<g id="edge17_Node000001_Node000006" class="edge">
<title>Node1&#45;&gt;Node6</title>
<g id="a_edge17_Node000001_Node000006"><a xlink:title=" ">
<path fill="none" stroke="#63b8ff" d="M488.84,-164.7C482.12,-155.76 471.47,-141.51 462.5,-129 451.31,-113.39 438.86,-95.37 430.08,-82.52"/>
<polygon fill="#63b8ff" stroke="#63b8ff" points="432.92,-80.48 424.39,-74.19 427.14,-84.42 432.92,-80.48"/>
</a>
</g>
</g>
<!-- Node7 -->
<g id="Node000007" class="node">
<title>Node7</title>
<g id="a_Node000007"><a xlink:href="bytecode_8hpp.html" target="_top" xlink:title=" ">
<polygon fill="white" stroke="#666666" points="136,-74 53,-74 53,-55 136,-55 136,-74"/>
<text text-anchor="middle" x="94.5" y="-62" font-family="Helvetica,sans-Serif" font-size="10.00">bytecode.hpp</text>
</a>
</g>
</g>
<!-- Node1&#45;&gt;Node7 -->
<g id="edge13_Node000001_Node000007" class="edge">
<title>Node1&#45;&gt;Node7</title>
<g id="a_edge13_Node000001_Node000007"><a xlink:title=" ">
<path fill="none" stroke="#63b8ff" d="M450.68,-169.85C396.91,-164.61 304.51,-152.83 228.5,-129 188.03,-116.31 144.14,-93.65 118.01,-79.11"/>
<polygon fill="#63b8ff" stroke="#63b8ff" points="119.65,-76.02 109.22,-74.16 116.21,-82.12 119.65,-76.02"/>
</a>
</g>
</g>
<!-- Node9 -->
<g id="Node000009" class="node">
<title>Node9</title>
<g id="a_Node000009"><a xlink:title=" ">
<polygon fill="#e0e0e0" stroke="#999999" points="460,-19 413,-19 413,0 460,0 460,-19"/>
<text text-anchor="middle" x="436.5" y="-7" font-family="Helvetica,sans-Serif" font-size="10.00">vector</text>
</a>
</g>
</g>
<!-- Node1&#45;&gt;Node9 -->
<g id="edge19_Node000001_Node000009" class="edge">
<title>Node1&#45;&gt;Node9</title>
<g id="a_edge19_Node000001_Node000009"><a xlink:title=" ">
<path fill="none" stroke="#63b8ff" d="M497.4,-164.88C501.43,-144.49 509.03,-92.24 490.5,-55 484.22,-42.39 472.55,-32.07 461.65,-24.55"/>
<polygon fill="#63b8ff" stroke="#63b8ff" points="463.51,-21.59 453.2,-19.14 459.74,-27.48 463.51,-21.59"/>
</a>
</g>
</g>
<!-- Node11 -->
<g id="Node000011" class="node">
<title>Node11</title>
<g id="a_Node000011"><a xlink:title=" ">
<polygon fill="#e0e0e0" stroke="#999999" points="592.5,-129 542.5,-129 542.5,-110 592.5,-110 592.5,-129"/>
<text text-anchor="middle" x="567.5" y="-117" font-family="Helvetica,sans-Serif" font-size="10.00">cstring</text>
</a>
</g>
</g>
<!-- Node1&#45;&gt;Node11 -->
<g id="edge15_Node000001_Node000011" class="edge">
<title>Node1&#45;&gt;Node11</title>
<g id="a_edge15_Node000001_Node000011"><a xlink:title=" ">
<path fill="none" stroke="#63b8ff" d="M507.07,-164.98C517.92,-157 534.38,-144.88 547.38,-135.31"/>
<polygon fill="#63b8ff" stroke="#63b8ff" points="549.74,-137.92 555.72,-129.17 545.59,-132.28 549.74,-137.92"/>
</a>
</g>
</g>
<!-- Node12 -->
<g id="Node000012" class="node">
<title>Node12</title>
<g id="a_Node000012"><a xlink:title=" ">
<polygon fill="#e0e0e0" stroke="#999999" points="666.5,-129 610.5,-129 610.5,-110 666.5,-110 666.5,-129"/>
<text text-anchor="middle" x="638.5" y="-117" font-family="Helvetica,sans-Serif" font-size="10.00">iomanip</text>
</a>
</g>
</g>
<!-- Node1&#45;&gt;Node12 -->
<g id="edge16_Node000001_Node000012" class="edge">
<title>Node1&#45;&gt;Node12</title>
<g id="a_edge16_Node000001_Node000012"><a xlink:title=" ">
<path fill="none" stroke="#63b8ff" d="M518.48,-164.98C542,-156.27 578.79,-142.63 605.44,-132.75"/>
<polygon fill="#63b8ff" stroke="#63b8ff" points="606.95,-135.93 615.11,-129.17 604.51,-129.36 606.95,-135.93"/>
</a>
</g>
</g>
<!-- Node13 -->
<g id="Node000013" class="node">
<title>Node13</title>
<g id="a_Node000013"><a xlink:title=" ">
<polygon fill="#e0e0e0" stroke="#999999" points="750,-129 685,-129 685,-110 750,-110 750,-129"/>
<text text-anchor="middle" x="717.5" y="-117" font-family="Helvetica,sans-Serif" font-size="10.00">stdexcept</text>
</a>
</g>
</g>
<!-- Node1&#45;&gt;Node13 -->
<g id="edge18_Node000001_Node000013" class="edge">
<title>Node1&#45;&gt;Node13</title>
<g id="a_edge18_Node000001_Node000013"><a xlink:title=" ">
<path fill="none" stroke="#63b8ff" d="M531.17,-164.98C570.35,-155.63 633.23,-140.62 674.95,-130.66"/>
<polygon fill="#63b8ff" stroke="#63b8ff" points="675.9,-134.03 684.81,-128.3 674.27,-127.22 675.9,-134.03"/>
</a>
</g>
</g>
<!-- Node3 -->
<g id="Node000003" class="node">
<title>Node3</title>
<g id="a_Node000003"><a xlink:title=" ">
<polygon fill="#e0e0e0" stroke="#999999" points="53,-19 0,-19 0,0 53,0 53,-19"/>
<text text-anchor="middle" x="26.5" y="-7" font-family="Helvetica,sans-Serif" font-size="10.00">cstddef</text>
</a>
</g>
</g>
<!-- Node2&#45;&gt;Node3 -->
<g id="edge2_Node000002_Node000003" class="edge">
<title>Node2&#45;&gt;Node3</title>
<g id="a_edge2_Node000002_Node000003"><a xlink:title=" ">
<path fill="none" stroke="#63b8ff" d="M236.95,-115.4C172.37,-110.66 71.07,-99.33 43.5,-74 31.3,-62.79 27.47,-43.87 26.44,-29.59"/>
<polygon fill="#63b8ff" stroke="#63b8ff" points="29.93,-29.25 26.11,-19.37 22.93,-29.48 29.93,-29.25"/>
</a>
</g>
</g>
<!-- Node2&#45;&gt;Node4 -->
<g id="edge3_Node000002_Node000004" class="edge">
<title>Node2&#45;&gt;Node4</title>
<g id="a_edge3_Node000002_Node000004"><a xlink:title=" ">
<path fill="none" stroke="#63b8ff" d="M290.42,-109.7C287.36,-97.27 281.17,-73.99 273.5,-55 269.8,-45.83 264.84,-36.02 260.48,-27.95"/>
<polygon fill="#63b8ff" stroke="#63b8ff" points="263.5,-26.18 255.58,-19.14 257.38,-29.58 263.5,-26.18"/>
</a>
</g>
</g>
<!-- Node5 -->
<g id="Node000005" class="node">
<title>Node5</title>
<g id="a_Node000005"><a xlink:title=" ">
<polygon fill="#e0e0e0" stroke="#999999" points="370,-74 321,-74 321,-55 370,-55 370,-74"/>
<text text-anchor="middle" x="345.5" y="-62" font-family="Helvetica,sans-Serif" font-size="10.00">cstdlib</text>
</a>
</g>
</g>
<!-- Node2&#45;&gt;Node5 -->
<g id="edge4_Node000002_Node000005" class="edge">
<title>Node2&#45;&gt;Node5</title>
<g id="a_edge4_Node000002_Node000005"><a xlink:title=" ">
<path fill="none" stroke="#63b8ff" d="M301.25,-109.75C308.97,-102.03 320.4,-90.6 329.72,-81.28"/>
<polygon fill="#63b8ff" stroke="#63b8ff" points="332.31,-83.64 336.91,-74.09 327.36,-78.69 332.31,-83.64"/>
</a>
</g>
</g>
<!-- Node2&#45;&gt;Node6 -->
<g id="edge5_Node000002_Node000006" class="edge">
<title>Node2&#45;&gt;Node6</title>
<g id="a_edge5_Node000002_Node000006"><a xlink:title=" ">
<path fill="none" stroke="#63b8ff" d="M312.74,-109.98C333.2,-101.38 365.03,-87.99 388.43,-78.15"/>
<polygon fill="#63b8ff" stroke="#63b8ff" points="390.03,-81.27 397.89,-74.17 387.31,-74.82 390.03,-81.27"/>
</a>
</g>
</g>
<!-- Node2&#45;&gt;Node7 -->
<g id="edge6_Node000002_Node000007" class="edge">
<title>Node2&#45;&gt;Node7</title>
<g id="a_edge6_Node000002_Node000007"><a xlink:title=" ">
<path fill="none" stroke="#63b8ff" d="M260.69,-109.98C227.01,-100.97 173.7,-86.7 136.58,-76.76"/>
<polygon fill="#63b8ff" stroke="#63b8ff" points="137.13,-73.29 126.56,-74.08 135.32,-80.05 137.13,-73.29"/>
</a>
</g>
</g>
<!-- Node10 -->
<g id="Node000010" class="node">
<title>Node10</title>
<g id="a_Node000010"><a xlink:href="vmreg__defines_8hpp.html" target="_top" xlink:title=" ">
<polygon fill="white" stroke="#666666" points="264.5,-74 154.5,-74 154.5,-55 264.5,-55 264.5,-74"/>
<text text-anchor="middle" x="209.5" y="-62" font-family="Helvetica,sans-Serif" font-size="10.00">vmreg_defines.hpp</text>
</a>
</g>
</g>
<!-- Node2&#45;&gt;Node10 -->
<g id="edge11_Node000002_Node000010" class="edge">
<title>Node2&#45;&gt;Node10</title>
<g id="a_edge11_Node000002_Node000010"><a xlink:title=" ">
<path fill="none" stroke="#63b8ff" d="M279.16,-109.98C266.41,-101.84 246.95,-89.41 231.83,-79.76"/>
<polygon fill="#63b8ff" stroke="#63b8ff" points="233.39,-76.6 223.08,-74.17 229.62,-82.5 233.39,-76.6"/>
</a>
</g>
</g>
<!-- Node7&#45;&gt;Node3 -->
<g id="edge8_Node000007_Node000003" class="edge">
<title>Node7&#45;&gt;Node3</title>
<g id="a_edge8_Node000007_Node000003"><a xlink:title=" ">
<path fill="none" stroke="#63b8ff" d="M83.57,-54.98C73.42,-47.07 58.08,-35.11 45.85,-25.58"/>
<polygon fill="#63b8ff" stroke="#63b8ff" points="47.66,-22.56 37.62,-19.17 43.36,-28.08 47.66,-22.56"/>
</a>
</g>
</g>
<!-- Node7&#45;&gt;Node4 -->
<g id="edge7_Node000007_Node000004" class="edge">
<title>Node7&#45;&gt;Node4</title>
<g id="a_edge7_Node000007_Node000004"><a xlink:title=" ">
<path fill="none" stroke="#63b8ff" d="M119.56,-54.98C145.61,-46.14 186.55,-32.23 215.72,-22.32"/>
<polygon fill="#63b8ff" stroke="#63b8ff" points="217.16,-25.53 225.5,-18.99 214.9,-18.9 217.16,-25.53"/>
</a>
</g>
</g>
<!-- Node8 -->
<g id="Node000008" class="node">
<title>Node8</title>
<g id="a_Node000008"><a xlink:title=" ">
<polygon fill="#e0e0e0" stroke="#999999" points="116.5,-19 72.5,-19 72.5,0 116.5,0 116.5,-19"/>
<text text-anchor="middle" x="94.5" y="-7" font-family="Helvetica,sans-Serif" font-size="10.00">string</text>
</a>
</g>
</g>
<!-- Node7&#45;&gt;Node8 -->
<g id="edge9_Node000007_Node000008" class="edge">
<title>Node7&#45;&gt;Node8</title>
<g id="a_edge9_Node000007_Node000008"><a xlink:title=" ">
<path fill="none" stroke="#63b8ff" d="M94.5,-54.75C94.5,-47.8 94.5,-37.85 94.5,-29.13"/>
<polygon fill="#63b8ff" stroke="#63b8ff" points="98,-29.09 94.5,-19.09 91,-29.09 98,-29.09"/>
</a>
</g>
</g>
<!-- Node7&#45;&gt;Node9 -->
<g id="edge10_Node000007_Node000009" class="edge">
<title>Node7&#45;&gt;Node9</title>
<g id="a_edge10_Node000007_Node000009"><a xlink:title=" ">
<path fill="none" stroke="#63b8ff" d="M136.24,-56.5C139.37,-55.99 142.49,-55.48 145.5,-55 238.47,-40.14 348.33,-23.63 402.62,-15.53"/>
<polygon fill="#63b8ff" stroke="#63b8ff" points="403.34,-18.96 412.72,-14.03 402.31,-12.04 403.34,-18.96"/>
</a>
</g>
</g>
<!-- Node10&#45;&gt;Node4 -->
<g id="edge12_Node000010_Node000004" class="edge">
<title>Node10&#45;&gt;Node4</title>
<g id="a_edge12_Node000010_Node000004"><a xlink:title=" ">
<path fill="none" stroke="#63b8ff" d="M216.27,-54.75C222.06,-47.26 230.56,-36.28 237.64,-27.13"/>
<polygon fill="#63b8ff" stroke="#63b8ff" points="240.51,-29.14 243.86,-19.09 234.97,-24.86 240.51,-29.14"/>
</a>
</g>
</g>
</g>
</svg>
