<?xml version="1.0" encoding="UTF-8" standalone="no"?>
<!DOCTYPE svg PUBLIC "-//W3C//DTD SVG 1.1//EN"
 "http://www.w3.org/Graphics/SVG/1.1/DTD/svg11.dtd">
<!-- Generated by graphviz version 2.43.0 (0)
 -->
<!-- Title: src/vm/vm.cpp Pages: 1 -->
<svg width="938pt" height="192pt"
 viewBox="0.00 0.00 937.50 192.00" xmlns="http://www.w3.org/2000/svg" xmlns:xlink="http://www.w3.org/1999/xlink">
<g id="graph0" class="graph" transform="scale(1 1) rotate(0) translate(4 188)">
<title>src/vm/vm.cpp</title>
<!-- Node1 -->
<g id="Node000001" class="node">
<title>Node1</title>
<g id="a_Node000001"><a xlink:title=" ">
<polygon fill="#999999" stroke="#666666" points="700.5,-184 611.5,-184 611.5,-165 700.5,-165 700.5,-184"/>
<text text-anchor="middle" x="656" y="-172" font-family="Helvetica,sans-Serif" font-size="10.00">src/vm/vm.cpp</text>
</a>
</g>
</g>
<!-- Node2 -->
<g id="Node000002" class="node">
<title>Node2</title>
<g id="a_Node000002"><a xlink:href="VirtualMachine_8hpp.html" target="_top" xlink:title=" ">
<polygon fill="white" stroke="#666666" points="414.5,-129 303.5,-129 303.5,-110 414.5,-110 414.5,-129"/>
<text text-anchor="middle" x="359" y="-117" font-family="Helvetica,sans-Serif" font-size="10.00">VirtualMachine.hpp</text>
</a>
</g>
</g>
<!-- Node1&#45;&gt;Node2 -->
<g id="edge1_Node000001_Node000002" class="edge">
<title>Node1&#45;&gt;Node2</title>
<g id="a_edge1_Node000001_Node000002"><a xlink:title=" ">
<path fill="none" stroke="#63b8ff" d="M611.21,-165.51C559.31,-156.25 473.66,-140.96 416.78,-130.81"/>
<polygon fill="#63b8ff" stroke="#63b8ff" points="417.32,-127.35 406.86,-129.04 416.09,-134.24 417.32,-127.35"/>
</a>
</g>
</g>
<!-- Node3 -->
<g id="Node000003" class="node">
<title>Node3</title>
<g id="a_Node000003"><a xlink:title=" ">
<polygon fill="#e0e0e0" stroke="#999999" points="50,-74 0,-74 0,-55 50,-55 50,-74"/>
<text text-anchor="middle" x="25" y="-62" font-family="Helvetica,sans-Serif" font-size="10.00">chrono</text>
</a>
</g>
</g>
<!-- Node1&#45;&gt;Node3 -->
<g id="edge18_Node000001_Node000003" class="edge">
<title>Node1&#45;&gt;Node3</title>
<g id="a_edge18_Node000001_Node000003"><a xlink:title=" ">
<path fill="none" stroke="#63b8ff" d="M611.5,-170.13C540.54,-164.34 397.59,-150.95 278,-129 199.2,-114.53 108.48,-89.74 59.96,-75.79"/>
<polygon fill="#63b8ff" stroke="#63b8ff" points="60.84,-72.41 50.26,-72.99 58.89,-79.13 60.84,-72.41"/>
</a>
</g>
</g>
<!-- Node5 -->
<g id="Node000005" class="node">
<title>Node5</title>
<g id="a_Node000005"><a xlink:title=" ">
<polygon fill="#e0e0e0" stroke="#999999" points="478,-19 428,-19 428,0 478,0 478,-19"/>
<text text-anchor="middle" x="453" y="-7" font-family="Helvetica,sans-Serif" font-size="10.00">cstdint</text>
</a>
</g>
</g>
<!-- Node1&#45;&gt;Node5 -->
<g id="edge19_Node000001_Node000005" class="edge">
<title>Node1&#45;&gt;Node5</title>
<g id="a_edge19_Node000001_Node000005"><a xlink:title=" ">
<path fill="none" stroke="#63b8ff" d="M660.8,-164.87C671.96,-143.55 696.71,-87.75 670,-55 647.45,-27.35 543.6,-16.41 488.14,-12.47"/>
<polygon fill="#63b8ff" stroke="#63b8ff" points="488.27,-8.98 478.06,-11.8 487.8,-15.96 488.27,-8.98"/>
</a>
</g>
</g>
<!-- Node7 -->
<g id="Node000007" class="node">
<title>Node7</title>
<g id="a_Node000007"><a xlink:title=" ">
<polygon fill="#e0e0e0" stroke="#999999" points="628,-74 568,-74 568,-55 628,-55 628,-74"/>
<text text-anchor="middle" x="598" y="-62" font-family="Helvetica,sans-Serif" font-size="10.00">iostream</text>
</a>
</g>
</g>
<!-- Node1&#45;&gt;Node7 -->
<g id="edge22_Node000001_Node000007" class="edge">
<title>Node1&#45;&gt;Node7</title>
<g id="a_edge22_Node000001_Node000007"><a xlink:title=" ">
<path fill="none" stroke="#63b8ff" d="M651.25,-164.66C641.69,-146.85 619.95,-106.37 607.4,-83.01"/>
<polygon fill="#63b8ff" stroke="#63b8ff" points="610.46,-81.31 602.65,-74.16 604.3,-84.62 610.46,-81.31"/>
</a>
</g>
</g>
<!-- Node8 -->
<g id="Node000008" class="node">
<title>Node8</title>
<g id="a_Node000008"><a xlink:href="bytecode_8hpp.html" target="_top" xlink:title=" ">
<polygon fill="white" stroke="#666666" points="316.5,-74 233.5,-74 233.5,-55 316.5,-55 316.5,-74"/>
<text text-anchor="middle" x="275" y="-62" font-family="Helvetica,sans-Serif" font-size="10.00">bytecode.hpp</text>
</a>
</g>
</g>
<!-- Node1&#45;&gt;Node8 -->
<g id="edge17_Node000001_Node000008" class="edge">
<title>Node1&#45;&gt;Node8</title>
<g id="a_edge17_Node000001_Node000008"><a xlink:title=" ">
<path fill="none" stroke="#63b8ff" d="M611.18,-173.91C525.09,-173.76 340.99,-168.68 294,-129 281.1,-118.1 276.74,-98.83 275.38,-84.37"/>
<polygon fill="#63b8ff" stroke="#63b8ff" points="278.85,-83.84 274.82,-74.05 271.86,-84.22 278.85,-83.84"/>
</a>
</g>
</g>
<!-- Node10 -->
<g id="Node000010" class="node">
<title>Node10</title>
<g id="a_Node000010"><a xlink:title=" ">
<polygon fill="#e0e0e0" stroke="#999999" points="395.5,-19 348.5,-19 348.5,0 395.5,0 395.5,-19"/>
<text text-anchor="middle" x="372" y="-7" font-family="Helvetica,sans-Serif" font-size="10.00">vector</text>
</a>
</g>
</g>
<!-- Node1&#45;&gt;Node10 -->
<g id="edge24_Node000001_Node000010" class="edge">
<title>Node1&#45;&gt;Node10</title>
<g id="a_edge24_Node000001_Node000010"><a xlink:title=" ">
<path fill="none" stroke="#63b8ff" d="M657.63,-164.87C661.19,-143.05 667.13,-85.27 637,-55 602.36,-20.2 467.38,-27.37 419,-19 414.77,-18.27 410.33,-17.49 405.94,-16.7"/>
<polygon fill="#63b8ff" stroke="#63b8ff" points="406.36,-13.22 395.9,-14.89 405.12,-20.11 406.36,-13.22"/>
</a>
</g>
</g>
<!-- Node13 -->
<g id="Node000013" class="node">
<title>Node13</title>
<g id="a_Node000013"><a xlink:title=" ">
<polygon fill="#e0e0e0" stroke="#999999" points="772,-129 722,-129 722,-110 772,-110 772,-129"/>
<text text-anchor="middle" x="747" y="-117" font-family="Helvetica,sans-Serif" font-size="10.00">cstring</text>
</a>
</g>
</g>
<!-- Node1&#45;&gt;Node13 -->
<g id="edge20_Node000001_Node000013" class="edge">
<title>Node1&#45;&gt;Node13</title>
<g id="a_edge20_Node000001_Node000013"><a xlink:title=" ">
<path fill="none" stroke="#63b8ff" d="M670.62,-164.98C684.86,-156.69 706.75,-143.94 723.45,-134.22"/>
<polygon fill="#63b8ff" stroke="#63b8ff" points="725.23,-137.23 732.11,-129.17 721.71,-131.18 725.23,-137.23"/>
</a>
</g>
</g>
<!-- Node14 -->
<g id="Node000014" class="node">
<title>Node14</title>
<g id="a_Node000014"><a xlink:title=" ">
<polygon fill="#e0e0e0" stroke="#999999" points="846,-129 790,-129 790,-110 846,-110 846,-129"/>
<text text-anchor="middle" x="818" y="-117" font-family="Helvetica,sans-Serif" font-size="10.00">iomanip</text>
</a>
</g>
</g>
<!-- Node1&#45;&gt;Node14 -->
<g id="edge21_Node000001_Node000014" class="edge">
<title>Node1&#45;&gt;Node14</title>
<g id="a_edge21_Node000001_Node000014"><a xlink:title=" ">
<path fill="none" stroke="#63b8ff" d="M682.03,-164.98C709.11,-156.13 751.71,-142.19 782.01,-132.28"/>
<polygon fill="#63b8ff" stroke="#63b8ff" points="783.35,-135.52 791.77,-129.08 781.18,-128.87 783.35,-135.52"/>
</a>
</g>
</g>
<!-- Node15 -->
<g id="Node000015" class="node">
<title>Node15</title>
<g id="a_Node000015"><a xlink:title=" ">
<polygon fill="#e0e0e0" stroke="#999999" points="929.5,-129 864.5,-129 864.5,-110 929.5,-110 929.5,-129"/>
<text text-anchor="middle" x="897" y="-117" font-family="Helvetica,sans-Serif" font-size="10.00">stdexcept</text>
</a>
</g>
</g>
<!-- Node1&#45;&gt;Node15 -->
<g id="edge23_Node000001_Node000015" class="edge">
<title>Node1&#45;&gt;Node15</title>
<g id="a_edge23_Node000001_Node000015"><a xlink:title=" ">
<path fill="none" stroke="#63b8ff" d="M694.72,-164.98C738.39,-155.38 809.18,-139.81 854.39,-129.87"/>
<polygon fill="#63b8ff" stroke="#63b8ff" points="855.17,-133.28 864.18,-127.72 853.66,-126.45 855.17,-133.28"/>
</a>
</g>
</g>
<!-- Node2&#45;&gt;Node3 -->
<g id="edge2_Node000002_Node000003" class="edge">
<title>Node2&#45;&gt;Node3</title>
<g id="a_edge2_Node000002_Node000003"><a xlink:title=" ">
<path fill="none" stroke="#63b8ff" d="M303.36,-111.2C243.92,-103.15 147.03,-89.29 64,-74 62.73,-73.77 61.45,-73.52 60.15,-73.27"/>
<polygon fill="#63b8ff" stroke="#63b8ff" points="60.62,-69.8 50.13,-71.23 59.23,-76.65 60.62,-69.8"/>
</a>
</g>
</g>
<!-- Node4 -->
<g id="Node000004" class="node">
<title>Node4</title>
<g id="a_Node000004"><a xlink:title=" ">
<polygon fill="#e0e0e0" stroke="#999999" points="187.5,-19 134.5,-19 134.5,0 187.5,0 187.5,-19"/>
<text text-anchor="middle" x="161" y="-7" font-family="Helvetica,sans-Serif" font-size="10.00">cstddef</text>
</a>
</g>
</g>
<!-- Node2&#45;&gt;Node4 -->
<g id="edge3_Node000002_Node000004" class="edge">
<title>Node2&#45;&gt;Node4</title>
<g id="a_edge3_Node000002_Node000004"><a xlink:title=" ">
<path fill="none" stroke="#63b8ff" d="M303.25,-117.15C234.31,-114.18 122.86,-104.62 97,-74 81.31,-55.42 108.24,-36 131.84,-23.61"/>
<polygon fill="#63b8ff" stroke="#63b8ff" points="133.56,-26.66 140.95,-19.06 130.44,-20.39 133.56,-26.66"/>
</a>
</g>
</g>
<!-- Node2&#45;&gt;Node5 -->
<g id="edge4_Node000002_Node000005" class="edge">
<title>Node2&#45;&gt;Node5</title>
<g id="a_edge4_Node000002_Node000005"><a xlink:title=" ">
<path fill="none" stroke="#63b8ff" d="M366.69,-109.66C382.47,-91.54 418.7,-49.91 438.84,-26.77"/>
<polygon fill="#63b8ff" stroke="#63b8ff" points="441.54,-29 445.46,-19.16 436.26,-24.4 441.54,-29"/>
</a>
</g>
</g>
<!-- Node6 -->
<g id="Node000006" class="node">
<title>Node6</title>
<g id="a_Node000006"><a xlink:title=" ">
<polygon fill="#e0e0e0" stroke="#999999" points="383.5,-74 334.5,-74 334.5,-55 383.5,-55 383.5,-74"/>
<text text-anchor="middle" x="359" y="-62" font-family="Helvetica,sans-Serif" font-size="10.00">cstdlib</text>
</a>
</g>
</g>
<!-- Node2&#45;&gt;Node6 -->
<g id="edge5_Node000002_Node000006" class="edge">
<title>Node2&#45;&gt;Node6</title>
<g id="a_edge5_Node000002_Node000006"><a xlink:title=" ">
<path fill="none" stroke="#63b8ff" d="M359,-109.75C359,-102.8 359,-92.85 359,-84.13"/>
<polygon fill="#63b8ff" stroke="#63b8ff" points="362.5,-84.09 359,-74.09 355.5,-84.09 362.5,-84.09"/>
</a>
</g>
</g>
<!-- Node2&#45;&gt;Node7 -->
<g id="edge6_Node000002_Node000007" class="edge">
<title>Node2&#45;&gt;Node7</title>
<g id="a_edge6_Node000002_Node000007"><a xlink:title=" ">
<path fill="none" stroke="#63b8ff" d="M397.4,-109.98C441.35,-100.24 513,-84.35 557.72,-74.43"/>
<polygon fill="#63b8ff" stroke="#63b8ff" points="558.65,-77.81 567.66,-72.23 557.14,-70.98 558.65,-77.81"/>
</a>
</g>
</g>
<!-- Node2&#45;&gt;Node8 -->
<g id="edge7_Node000002_Node000008" class="edge">
<title>Node2&#45;&gt;Node8</title>
<g id="a_edge7_Node000002_Node000008"><a xlink:title=" ">
<path fill="none" stroke="#63b8ff" d="M345.5,-109.98C332.6,-101.84 312.9,-89.41 297.6,-79.76"/>
<polygon fill="#63b8ff" stroke="#63b8ff" points="299.07,-76.55 288.74,-74.17 295.33,-82.47 299.07,-76.55"/>
</a>
</g>
</g>
<!-- Node11 -->
<g id="Node000011" class="node">
<title>Node11</title>
<g id="a_Node000011"><a xlink:href="vmparams_8hpp.html" target="_top" xlink:title=" ">
<polygon fill="white" stroke="#666666" points="215.5,-74 106.5,-74 106.5,-55 215.5,-55 215.5,-74"/>
<text text-anchor="middle" x="161" y="-62" font-family="Helvetica,sans-Serif" font-size="10.00">vm/vmparams.hpp</text>
</a>
</g>
</g>
<!-- Node2&#45;&gt;Node11 -->
<g id="edge12_Node000002_Node000011" class="edge">
<title>Node2&#45;&gt;Node11</title>
<g id="a_edge12_Node000002_Node000011"><a xlink:title=" ">
<path fill="none" stroke="#63b8ff" d="M327.19,-109.98C293.51,-100.97 240.2,-86.7 203.08,-76.76"/>
<polygon fill="#63b8ff" stroke="#63b8ff" points="203.63,-73.29 193.06,-74.08 201.82,-80.05 203.63,-73.29"/>
</a>
</g>
</g>
<!-- Node12 -->
<g id="Node000012" class="node">
<title>Node12</title>
<g id="a_Node000012"><a xlink:href="vmreg__defines_8hpp.html" target="_top" xlink:title=" ">
<polygon fill="white" stroke="#666666" points="550,-74 440,-74 440,-55 550,-55 550,-74"/>
<text text-anchor="middle" x="495" y="-62" font-family="Helvetica,sans-Serif" font-size="10.00">vmreg_defines.hpp</text>
</a>
</g>
</g>
<!-- Node2&#45;&gt;Node12 -->
<g id="edge15_Node000002_Node000012" class="edge">
<title>Node2&#45;&gt;Node12</title>
<g id="a_edge15_Node000002_Node000012"><a xlink:title=" ">
<path fill="none" stroke="#63b8ff" d="M380.85,-109.98C403.12,-101.3 437.9,-87.75 463.22,-77.88"/>
<polygon fill="#63b8ff" stroke="#63b8ff" points="464.71,-81.06 472.75,-74.17 462.16,-74.54 464.71,-81.06"/>
</a>
</g>
</g>
<!-- Node8&#45;&gt;Node4 -->
<g id="edge9_Node000008_Node000004" class="edge">
<title>Node8&#45;&gt;Node4</title>
<g id="a_edge9_Node000008_Node000004"><a xlink:title=" ">
<path fill="none" stroke="#63b8ff" d="M256.68,-54.98C238.34,-46.46 209.89,-33.23 188.77,-23.41"/>
<polygon fill="#63b8ff" stroke="#63b8ff" points="190.19,-20.21 179.65,-19.17 187.24,-26.56 190.19,-20.21"/>
</a>
</g>
</g>
<!-- Node8&#45;&gt;Node5 -->
<g id="edge8_Node000008_Node000005" class="edge">
<title>Node8&#45;&gt;Node5</title>
<g id="a_edge8_Node000008_Node000005"><a xlink:title=" ">
<path fill="none" stroke="#63b8ff" d="M303.6,-54.98C334.77,-45.7 384.66,-30.85 418.11,-20.89"/>
<polygon fill="#63b8ff" stroke="#63b8ff" points="419.34,-24.17 427.92,-17.97 417.34,-17.47 419.34,-24.17"/>
</a>
</g>
</g>
<!-- Node9 -->
<g id="Node000009" class="node">
<title>Node9</title>
<g id="a_Node000009"><a xlink:title=" ">
<polygon fill="#e0e0e0" stroke="#999999" points="274,-19 230,-19 230,0 274,0 274,-19"/>
<text text-anchor="middle" x="252" y="-7" font-family="Helvetica,sans-Serif" font-size="10.00">string</text>
</a>
</g>
</g>
<!-- Node8&#45;&gt;Node9 -->
<g id="edge10_Node000008_Node000009" class="edge">
<title>Node8&#45;&gt;Node9</title>
<g id="a_edge10_Node000008_Node000009"><a xlink:title=" ">
<path fill="none" stroke="#63b8ff" d="M271.2,-54.75C268.09,-47.57 263.58,-37.18 259.71,-28.27"/>
<polygon fill="#63b8ff" stroke="#63b8ff" points="262.92,-26.87 255.73,-19.09 256.5,-29.66 262.92,-26.87"/>
</a>
</g>
</g>
<!-- Node8&#45;&gt;Node10 -->
<g id="edge11_Node000008_Node000010" class="edge">
<title>Node8&#45;&gt;Node10</title>
<g id="a_edge11_Node000008_Node000010"><a xlink:title=" ">
<path fill="none" stroke="#63b8ff" d="M290.58,-54.98C305.77,-46.69 329.1,-33.94 346.9,-24.22"/>
<polygon fill="#63b8ff" stroke="#63b8ff" points="349.03,-27.04 356.13,-19.17 345.68,-20.89 349.03,-27.04"/>
</a>
</g>
</g>
<!-- Node11&#45;&gt;Node4 -->
<g id="edge13_Node000011_Node000004" class="edge">
<title>Node11&#45;&gt;Node4</title>
<g id="a_edge13_Node000011_Node000004"><a xlink:title=" ">
<path fill="none" stroke="#63b8ff" d="M161,-54.75C161,-47.8 161,-37.85 161,-29.13"/>
<polygon fill="#63b8ff" stroke="#63b8ff" points="164.5,-29.09 161,-19.09 157.5,-29.09 164.5,-29.09"/>
</a>
</g>
</g>
<!-- Node11&#45;&gt;Node9 -->
<g id="edge14_Node000011_Node000009" class="edge">
<title>Node11&#45;&gt;Node9</title>
<g id="a_edge14_Node000011_Node000009"><a xlink:title=" ">
<path fill="none" stroke="#63b8ff" d="M175.62,-54.98C189.86,-46.69 211.75,-33.94 228.45,-24.22"/>
<polygon fill="#63b8ff" stroke="#63b8ff" points="230.23,-27.23 237.11,-19.17 226.71,-21.18 230.23,-27.23"/>
</a>
</g>
</g>
<!-- Node12&#45;&gt;Node5 -->
<g id="edge16_Node000012_Node000005" class="edge">
<title>Node12&#45;&gt;Node5</title>
<g id="a_edge16_Node000012_Node000005"><a xlink:title=" ">
<path fill="none" stroke="#63b8ff" d="M488.06,-54.75C482.13,-47.26 473.43,-36.28 466.18,-27.13"/>
<polygon fill="#63b8ff" stroke="#63b8ff" points="468.76,-24.75 459.81,-19.09 463.27,-29.1 468.76,-24.75"/>
</a>
</g>
</g>
</g>
</svg>
